<?xml version="1.0" encoding="UTF-8"?>
<svg width="28px" height="28px" viewBox="0 0 28 28" version="1.1" xmlns="http://www.w3.org/2000/svg" xmlns:xlink="http://www.w3.org/1999/xlink">
    <title>BF6DDF58-6952-48A5-9788-71EC46BEB6E9@1.00x</title>
    <defs>
        <path d="M19,13 L9,13 L9,15 L19,15 L19,13 Z M21,6 L20,6 L20,4 L18,4 L18,6 L10,6 L10,4 L8,4 L8,6 L7,6 C5.89,6 5,6.9 5,8 L5,22 C5,23.1 5.89,24 7,24 L21,24 C22.1,24 23,23.1 23,22 L23,8 C23,6.9 22.1,6 21,6 Z M21,22 L7,22 L7,11 L21,11 L21,22 Z M16,17 L9,17 L9,19 L16,19 L16,17 Z" id="path-1"></path>
    </defs>
    <g id="내역관리" stroke="none" stroke-width="1" fill="none" fill-rule="evenodd">
        <g id="02_내역관리-페이지_검색날짜지정" transform="translate(-899.000000, -248.000000)">
            <g id="setting" transform="translate(320.000000, 212.000000)">
                <g id="Group-10" transform="translate(150.000000, 26.000000)">
                    <g id="02" transform="translate(282.000000, 0.000000)">
                        <g id="icon" transform="translate(137.000000, 0.000000)">
                            <g id="Group-11" transform="translate(10.000000, 10.000000)">
                                <rect id="tr" x="0" y="0" width="28" height="28"></rect>
                                <mask id="mask-2" fill="white">
                                    <use xlink:href="#path-1"></use>
                                </mask>
                                <use id="icon/notification/event_note_24px" fill="#0B1F48" fill-rule="nonzero" xlink:href="#path-1"></use>
                            </g>
                        </g>
                    </g>
                </g>
            </g>
        </g>
    </g>
</svg>