<?xml version="1.0" encoding="UTF-8"?>
<svg width="111px" height="26px" viewBox="0 0 111 26" version="1.1" xmlns="http://www.w3.org/2000/svg" xmlns:xlink="http://www.w3.org/1999/xlink">
    <!-- Generator: sketchtool 61.2 (101010) - https://sketch.com -->
    <title>49DEFA20-A91E-43F3-ADAF-C49AE4530D7B@3.00x</title>
    <desc>Created with sketchtool.</desc>
    <g id="web-v2.0" stroke="none" stroke-width="1" fill="none" fill-rule="evenodd">
        <g id="2.0.원격협업-화면_GNB소스-정리" transform="translate(-50.000000, -159.000000)">
            <g id="gnb*1" transform="translate(30.000000, 144.000000)">
                <g id="logo_symtext" transform="translate(17.000000, 13.000000)">
                    <rect id="tr" opacity="0.363676525" x="0" y="0" width="30" height="30"></rect>
                    <polygon id="Fill-13" fill="#1F7FFA" points="11.6154338 27.8765829 23.7659273 20.9556686 23.7659273 16.86264 11.6154338 23.8144114 11.6154338 23.8192114 6.59374026 20.96184 6.59374026 15.2566971 15.1760052 10.3757829 11.6098649 8.34195429 3.02342338 13.2249257 3.02272727 13.2249257 3.02272727 13.2256114 3.02272727 13.2256114 3.02272727 13.2256114 3.02272727 22.99224 11.6154338 27.8758971"></polygon>
                    <polygon id="Fill-16" fill="#7EBAFC" points="27.3369403 13.2301371 15.1787896 6.31128 11.6098649 8.34168 20.1949143 13.2356229 20.199787 13.23288 23.7659273 15.2605371 23.7659273 20.9540229 23.7603584 20.9574514 18.745626 23.8093371 10.1626649 18.9009943 6.59165195 20.96088 18.7442338 27.8721943 27.3313714 22.9878514"></polygon>
                    <polygon id="Fill-18" fill="#C7DEFF" points="15.1788592 2.25 6.59172156 7.13365714 6.59241766 7.13434286 6.59172156 7.13365714 6.59172156 20.9604 10.1627345 22.9914857 10.1627345 9.16474286 10.1620384 9.16405714 10.1627345 9.16474286 15.1788592 6.31217143 20.1949839 9.16474286 20.1949839 18.906 23.7659969 16.8632571 23.7659969 7.13365714"></polygon>
                    <polygon id="Fill-20" fill="#1F7FFA" points="6.59380987 15.2564914 6.59380987 15.2564914 15.1760748 10.3755771 11.6099345 8.34174857 3.02349299 13.22472 3.02279688 13.22472 3.02279688 13.2254057 3.02279688 13.2254057 3.02279688 13.2254057"></polygon>
                    <path d="M98.9222436,8.72807192 L98.9222436,12.1252625 L101.624662,12.1252625 L101.624662,14.3766392 L98.9222436,14.3766392 L98.9222436,19.8977448 C98.9222436,20.6101888 99.0509611,21.0925308 99.3044956,21.3326955 C99.5528294,21.5688352 99.8232663,21.6828799 100.181465,21.7009929 C100.343337,21.7077014 100.783447,21.6667794 101.010328,21.6164656 L101.010328,21.6164656 L101.144776,21.5809602 C101.234536,21.5536292 101.325838,21.5187449 101.421184,21.474916 L101.421184,21.474916 L101.624662,21.3816677 L101.624662,23.738368 L101.527148,23.7725814 C101.162449,23.900714 100.466204,24 99.9695362,24 C99.9298808,24 99.8908755,23.9993291 99.8538204,23.9979874 C98.8715367,23.9610906 98.1076826,23.6672578 97.5193525,23.0977051 C96.8998181,22.498635 96.5767241,21.6567167 96.5617721,20.5967717 L96.5617721,20.5967717 L96.5617721,14.3766392 L94.6251583,14.3766392 L94.6251583,12.1252625 L96.5617721,12.1252625 L96.5617721,10.093925 L96.6287312,10.0496488 L98.6472561,8.72807192 L98.9222436,8.72807192 Z M88.3742969,11.5575211 C90.0430742,11.5575211 91.4427148,12.1512244 92.5322632,13.3232015 C93.6354635,14.4918244 94.1938896,15.9891643 94.1938896,17.7722868 C94.1938896,19.5715098 93.6354635,21.0701915 92.5309631,22.2233847 C91.4427148,23.3933492 90.0430742,23.9870526 88.3742969,23.9870526 C86.7048696,23.9870526 85.298728,23.3933492 84.1942276,22.2227139 C83.1053293,21.0534202 82.5547043,19.5560802 82.5547043,17.7722868 C82.5547043,15.9891643 83.1053293,14.4918244 84.1935775,13.3232015 C85.298728,12.1512244 86.7048696,11.5575211 88.3742969,11.5575211 Z M107.7457,11.5575211 C109.417078,11.5575211 110.767312,12.1243904 111.759347,13.2440411 C112.73513,14.3442371 113.25,15.9972145 113.25,18.0231852 L113.25,18.0231852 L113.214245,18.4042287 L104.564167,18.4042287 C104.618774,19.3803172 104.939918,20.1095325 105.593907,20.7555622 C106.210191,21.3646951 106.965594,21.6484652 107.971281,21.6484652 C109.193447,21.6484652 110.304449,20.9662095 111.100157,19.7291599 L111.100157,19.7291599 L111.19442,19.5829143 L112.88595,21.1936281 L112.816391,21.3016351 C112.340526,22.0348755 111.655983,22.7097518 110.938935,23.1525137 C110.041813,23.7059659 109.013373,23.9863817 107.880269,23.9863817 C106.225143,23.9863817 104.841105,23.3926784 103.765858,22.2207013 C102.67956,21.0346363 102.151038,19.6084066 102.151038,17.8608392 C102.151038,16.0616162 102.693862,14.4971912 103.720352,13.3366186 C104.764394,12.1559204 106.119179,11.5575211 107.7457,11.5575211 Z M57.2825772,11.5575211 C58.9533048,11.5575211 60.3035387,12.1243904 61.2955738,13.2440411 C62.2707066,14.3435662 62.7862268,15.9965437 62.7862268,18.0231852 L62.7862268,18.0231852 L62.750472,18.4042287 L54.1003938,18.4042287 C54.1563014,19.3689128 54.4858963,20.1182536 55.1307842,20.7555622 C55.7470681,21.3646951 56.5018209,21.6484652 57.5068578,21.6484652 C58.7296743,21.6484652 59.8413257,20.9662095 60.6370341,19.7291599 L60.6370341,19.7291599 L60.731297,19.5829143 L62.4221773,21.1936281 L62.3532679,21.3009643 C61.8774031,22.0342047 61.1928598,22.7097518 60.4758122,23.1525137 C59.5780399,23.7059659 58.5489497,23.9863817 57.4171456,23.9863817 C55.76137,23.9863817 54.3766815,23.3926784 53.3027352,22.2207013 C52.2157871,21.0346363 51.6866151,19.6084066 51.6866151,17.8608392 C51.6866151,16.0622871 52.229439,14.497862 53.2559288,13.3366186 C54.3006211,12.1559204 55.6554056,11.5575211 57.2825772,11.5575211 Z M45.7130165,6.75 C47.3492893,6.75 48.8620454,7.5174538 49.8631817,8.85580199 C50.5789292,9.80773987 50.9572807,10.9515412 50.9572807,12.1617568 C50.9572807,13.3719724 50.5789292,14.5157738 49.8631817,15.4677116 C49.1948907,16.3612855 48.2600634,17.0227448 47.2108205,17.3447534 L47.2108205,17.3447534 L51.9096604,23.6983853 L48.8925995,23.6983853 L48.8490436,23.6353253 L44.3712337,17.5728428 L40.6241234,17.5728428 L40.6241234,23.6983853 L38.2506501,23.6983853 L38.25,6.75 Z M77.0719225,11.5575211 C78.3857515,11.5575211 79.4148417,11.9801574 80.1305891,12.816038 C80.841786,13.6465518 81.2025851,14.8366419 81.2025851,16.3541074 L81.2025851,16.3541074 L81.2025851,23.678461 L78.8421136,23.678461 L78.8421136,16.6801411 C78.8421136,15.652397 78.6626892,14.9050687 78.3103412,14.4616361 C77.9657943,14.028937 77.3664127,13.808227 76.5310489,13.808227 C75.775646,13.808227 75.1574118,14.1322481 74.6418916,14.7977325 C74.1244211,15.4638878 73.8617853,16.260859 73.8617853,17.1678499 L73.8617853,17.1678499 L73.8617853,23.678461 L71.5000137,23.678461 L71.5000137,16.6801411 C71.5000137,15.652397 71.3205892,14.9057396 70.9688913,14.4616361 C70.6243444,14.028937 70.0249627,13.808227 69.189599,13.808227 C68.433546,13.808227 67.8153118,14.1322481 67.2997916,14.7977325 C66.7823211,15.4638878 66.5203354,16.2615299 66.5203354,17.1678499 L66.5203354,17.1678499 L66.5203354,23.678461 L64.1585637,23.678461 L64.1585637,11.9291727 L66.4299731,11.9291727 L66.4299731,13.2997217 C66.7517669,12.8435429 67.1977277,12.4524366 67.7574539,12.1324406 C68.4283453,11.7507263 69.1070377,11.5575211 69.7753287,11.5575211 C70.6087423,11.5575211 71.3530936,11.7601182 71.9908305,12.1592747 C72.5551074,12.5154967 72.9906667,12.996497 73.2884072,13.5902003 C74.2180338,12.2411185 75.4889569,11.5575211 77.0719225,11.5575211 Z M88.3742969,13.8954376 C87.3328551,13.8954376 86.5501485,14.222813 85.9117615,14.9231817 C85.2512716,15.6503844 84.9158259,16.60836 84.9158259,17.7722868 C84.9158259,18.9516433 85.2512716,19.9176691 85.9124116,20.6442009 C86.5345464,21.32914 87.317253,21.6484652 88.3742969,21.6484652 C89.4300407,21.6484652 90.2127473,21.32914 90.8355321,20.6442009 C91.4973223,19.9176691 91.8321179,18.9516433 91.8321179,17.7722868 C91.8321179,16.60836 91.4973223,15.6503844 90.8355321,14.9231817 C90.1977953,14.222813 89.4144386,13.8954376 88.3742969,13.8954376 Z M107.700844,13.8088978 C106.959093,13.8088978 106.312255,14.04705 105.778532,14.5166459 C105.303318,14.935257 104.95097,15.5631738 104.754643,16.3400195 L104.754643,16.3400195 L110.738058,16.3400195 C110.648996,15.6201961 110.343454,14.9889251 109.866939,14.5495176 C109.334517,14.0577836 108.605767,13.8088978 107.700844,13.8088978 Z M57.236421,13.8088978 C56.49532,13.8088978 55.8484819,14.04705 55.3160594,14.5166459 L55.3160594,14.5166459 C54.8395445,14.935257 54.4871965,15.5638446 54.2908698,16.3400195 L54.2908698,16.3400195 L60.2742847,16.3400195 C60.1858727,15.6201961 59.8803311,14.9889251 59.4031661,14.5495176 C58.8707435,14.0577836 58.1419943,13.8088978 57.236421,13.8088978 Z M45.614203,9.09596673 L40.6241234,9.09596673 L40.6241234,15.2275469 L45.614203,15.2275469 C47.2524261,15.2275469 48.5851076,13.851631 48.5851076,12.1617568 C48.5851076,10.4712117 47.2524261,9.09596673 45.614203,9.09596673 L45.614203,9.09596673 Z" id="remote" fill="#EDEDED"></path>
                </g>
            </g>
        </g>
    </g>
</svg>