<svg xmlns="http://www.w3.org/2000/svg" xmlns:xlink="http://www.w3.org/1999/xlink" width="24" height="24" viewBox="0 0 24 24">
    <defs>
        <path id="prefix__a" d="M16 2h-4.18C11.4.84 10.3 0 9 0 7.7 0 6.6.84 6.18 2H2C.9 2 0 2.9 0 4v14c0 1.1.9 2 2 2h14c1.1 0 2-.9 2-2V4c0-1.1-.9-2-2-2zM9 2c.55 0 1 .45 1 1s-.45 1-1 1-1-.45-1-1 .45-1 1-1zm0 4c1.66 0 3 1.34 3 3s-1.34 3-3 3-3-1.34-3-3 1.34-3 3-3zm6 12H3v-1.4c0-2 4-3.1 6-3.1s6 1.1 6 3.1V18z"/>
    </defs>
    <g fill="none" fill-rule="evenodd">
        <path d="M0 0L24 0 24 24 0 24z"/>
        <g transform="translate(3 2)">
            <mask id="prefix__b" fill="#fff">
                <use xlink:href="#prefix__a"/>
            </mask>
            <g fill="#919DB0" mask="url(#prefix__b)">
                <path d="M0 0H50V50H0z" transform="translate(-16 -15)"/>
            </g>
        </g>
    </g>
</svg>
