<svg xmlns="http://www.w3.org/2000/svg" xmlns:xlink="http://www.w3.org/1999/xlink" width="24" height="24" viewBox="0 0 24 24">
    <defs>
        <path id="ybhqr0aica" d="M3.6 15.6v4.8h4.8v2.4H3.2c-1.105 0-2-.895-2-2v-5.2h2.4zm19.2 0v5.2c0 1.105-.895 2-2 2h-5.2v-2.4h4.8v-4.8h2.4zm-4.915-6.15c.073.21.115.432.115.662v4.343c0 .711-.372 1.367-.974 1.716L13.2 18.386c-.183.106-.38.175-.58.214v-5.453c0-.4.21-.77.55-.965zm-11.77 0l4.716 2.732c.339.196.548.565.548.965V18.6c-.2-.04-.396-.108-.578-.214l-3.826-2.215C6.373 15.822 6 15.166 6 14.456V10.11c0-.229.043-.45.115-.66zm4.956-3.797c.577-.337 1.281-.337 1.858 0l2.107 1.23 1.687.985c.19.11.353.255.491.419l-4.69 2.74c-.326.19-.722.19-1.047 0l-4.691-2.74c.138-.164.301-.308.49-.418zM8.4 1.2v2.4H3.6v4.8H1.2V3.2c0-1.105.895-2 2-2h5.2zm12.4 0c1.105 0 2 .895 2 2v5.2h-2.4V3.6h-4.8V1.2z"/>
    </defs>
    <g fill="none" fill-rule="evenodd">
        <g>
            <g transform="translate(-104.000000, -765.000000) translate(104.000000, 765.000000)">
                <mask id="6bw6g2gtwb" fill="#fff">
                    <use xlink:href="#ybhqr0aica"/>
                </mask>
                <use fill="#000" fill-rule="nonzero" xlink:href="#ybhqr0aica"/>
                <g fill="#FFF" mask="url(#6bw6g2gtwb)">
                    <path d="M0 0H40V40H0z" transform="translate(-8.000000, -8.000000)"/>
                </g>
            </g>
        </g>
    </g>
</svg>
