<svg xmlns="http://www.w3.org/2000/svg" xmlns:xlink="http://www.w3.org/1999/xlink" width="24" height="24" viewBox="0 0 24 24">
    <defs>
        <path id="prefix__a" d="M18 4h-2.18c.11-.31.18-.65.18-1 0-1.66-1.34-3-3-3-1.05 0-1.96.54-2.5 1.35l-.5.67-.5-.68C8.96.54 8.05 0 7 0 5.34 0 4 1.34 4 3c0 .35.07.69.18 1H2C.89 4 .01 4.89.01 6L0 17c0 1.11.89 2 2 2h16c1.11 0 2-.89 2-2V6c0-1.11-.89-2-2-2zm-5-2c.55 0 1 .45 1 1s-.45 1-1 1-1-.45-1-1 .45-1 1-1zM7 2c.55 0 1 .45 1 1s-.45 1-1 1-1-.45-1-1 .45-1 1-1zm11 15H2v-2h16v2zm0-5H2V6h5.08L5 8.83 6.62 10 9 6.76l1-1.36 1 1.36L13.38 10 15 8.83 12.92 6H18v6z"/>
    </defs>
    <g fill="none" fill-rule="evenodd" transform="translate(-12 -10)">
        <rect width="216" height="44" fill="#FFF" fill-opacity="0" rx="3"/>
        <path d="M12 10L36 10 36 34 12 34z"/>
        <g transform="translate(14 12)">
            <mask id="prefix__b" fill="#fff">
                <use xlink:href="#prefix__a"/>
            </mask>
            <g fill="#919DB0" mask="url(#prefix__b)">
                <path d="M0 0H50V50H0z" transform="translate(-15 -15)"/>
            </g>
        </g>
    </g>
</svg>
