<svg xmlns="http://www.w3.org/2000/svg" width="16" height="16" viewBox="0 0 16 16">
    <g fill="none" fill-rule="evenodd">
        <g>
            <g>
                <g>
                    <g>
                        <path d="M0 0L16 0 16 16 0 16z" transform="translate(-1166.000000, -746.000000) translate(1070.000000, 174.000000) translate(30.000000, 568.000000) translate(66.000000, 4.000000)"/>
                        <path fill="#0D2A58" fill-rule="nonzero" d="M11.15 4.855c-.195-.195-.51-.195-.705 0L8 7.295 5.555 4.85c-.195-.195-.51-.195-.705 0-.195.195-.195.51 0 .705L7.295 8 4.85 10.445c-.195.195-.195.51 0 .705.195.195.51.195.705 0L8 8.705l2.445 2.445c.195.195.51.195.705 0 .195-.195.195-.51 0-.705L8.705 8l2.445-2.445c.19-.19.19-.51 0-.7z" transform="translate(-1166.000000, -746.000000) translate(1070.000000, 174.000000) translate(30.000000, 568.000000) translate(66.000000, 4.000000)"/>
                    </g>
                </g>
            </g>
        </g>
    </g>
</svg>
