<svg xmlns="http://www.w3.org/2000/svg" xmlns:xlink="http://www.w3.org/1999/xlink" width="18" height="18" viewBox="0 0 18 18">
    <defs>
        <path id="prefix__a" d="M8 .5C3.86.5.5 3.86.5 8c0 4.14 3.36 7.5 7.5 7.5 4.14 0 7.5-3.36 7.5-7.5C15.5 3.86 12.14.5 8 .5zm.75 12.75h-1.5v-1.5h1.5v1.5zm1.553-5.813l-.676.69c-.54.548-.877.998-.877 2.123h-1.5v-.375c0-.825.338-1.575.877-2.122l.93-.946c.278-.27.443-.645.443-1.057 0-.825-.675-1.5-1.5-1.5s-1.5.675-1.5 1.5H5c0-1.657 1.343-3 3-3 1.658 0 3 1.343 3 3 0 .66-.27 1.26-.697 1.688z"/>
    </defs>
    <g fill="none" fill-rule="evenodd" opacity=".75" transform="translate(1 1)">
        <mask id="prefix__b" fill="#fff">
            <use xlink:href="#prefix__a"/>
        </mask>
        <g fill="#0D2A58" mask="url(#prefix__b)">
            <path d="M0 0H37.5V37.5H0z" transform="translate(-10.75 -10.75)"/>
        </g>
    </g>
</svg>
