<svg xmlns="http://www.w3.org/2000/svg" xmlns:xlink="http://www.w3.org/1999/xlink" width="20" height="20" viewBox="0 0 20 20">
    <defs>
        <path id="prefix__a" d="M10 9.625C8.033 7.792 5.4 6.667 2.5 6.667v9.166c2.9 0 5.533 1.125 7.5 2.959 1.967-1.825 4.6-2.959 7.5-2.959V6.667c-2.9 0-5.533 1.125-7.5 2.958zm0-2.958c1.383 0 2.5-1.117 2.5-2.5 0-1.384-1.117-2.5-2.5-2.5s-2.5 1.116-2.5 2.5c0 1.383 1.117 2.5 2.5 2.5z"/>
    </defs>
    <g fill="none" fill-rule="evenodd" opacity=".8">
        <mask id="prefix__b" fill="#fff">
            <use xlink:href="#prefix__a"/>
        </mask>
        <g fill="#0D2A58" mask="url(#prefix__b)">
            <path d="M0 0H41.667V41.667H0z" transform="translate(-10.833 -10.833)"/>
        </g>
    </g>
</svg>
