<?xml version="1.0" encoding="UTF-8"?>
<svg width="22px" height="22px" viewBox="0 0 24 24" version="1.1" xmlns="http://www.w3.org/2000/svg" xmlns:xlink="http://www.w3.org/1999/xlink">
    <!-- Generator: sketchtool 63.1 (101010) - https://sketch.com -->
    <title>A581E519-1F5D-4B2A-A39E-005CF4505979</title>
    <desc>Created with sketchtool.</desc>
    <g id="C-B-05.워크스페이스-작업-관리" stroke="none" stroke-width="1" fill="none" fill-rule="evenodd">
        <g id="C-B-05.02.워크스페이스-작업-관리_워크스페이스-작업-목록_일자별-작업-진행률-그래프">
            <g id="Subheadline">
                <g id="btn-list">
                    <g id="ic_list">
                        <polygon points="0 0 24 0 24 24 0 24"></polygon>
                        <path d="M19.1111111,4 L4.88888889,4 C4.4,4 4,4.4 4,4.88888889 L4,19.1111111 C4,19.6 4.4,20 4.88888889,20 L19.1111111,20 C19.6,20 20,19.6 20,19.1111111 L20,4.88888889 C20,4.4 19.6,4 19.1111111,4 Z" id="Path" fill="#B3C0D4" fill-rule="nonzero"></path>
                        <path d="M12,9.33333333 L15.5555556,9.33333333 C16.0444444,9.33333333 16.4444444,8.93333333 16.4444444,8.44444444 C16.4444444,7.95555556 16.0444444,7.55555556 15.5555556,7.55555556 L12,7.55555556 C11.5111111,7.55555556 11.1111111,7.95555556 11.1111111,8.44444444 C11.1111111,8.93333333 11.5111111,9.33333333 12,9.33333333 Z M12,12.8888889 L15.5555556,12.8888889 C16.0444444,12.8888889 16.4444444,12.4888889 16.4444444,12 C16.4444444,11.5111111 16.0444444,11.1111111 15.5555556,11.1111111 L12,11.1111111 C11.5111111,11.1111111 11.1111111,11.5111111 11.1111111,12 C11.1111111,12.4888889 11.5111111,12.8888889 12,12.8888889 Z M12,16.4444444 L15.5555556,16.4444444 C16.0444444,16.4444444 16.4444444,16.0444444 16.4444444,15.5555556 C16.4444444,15.0666667 16.0444444,14.6666667 15.5555556,14.6666667 L12,14.6666667 C11.5111111,14.6666667 11.1111111,15.0666667 11.1111111,15.5555556 C11.1111111,16.0444444 11.5111111,16.4444444 12,16.4444444 Z M7.55555556,7.55555556 L9.33333333,7.55555556 L9.33333333,9.33333333 L7.55555556,9.33333333 L7.55555556,7.55555556 Z M7.55555556,11.1111111 L9.33333333,11.1111111 L9.33333333,12.8888889 L7.55555556,12.8888889 L7.55555556,11.1111111 Z M7.55555556,14.6666667 L9.33333333,14.6666667 L9.33333333,16.4444444 L7.55555556,16.4444444 L7.55555556,14.6666667 Z" id="Shape" fill="#0F2F65" fill-rule="nonzero"></path>
                    </g>
                </g>
            </g>
        </g>
    </g>
</svg>