<?xml version="1.0" encoding="UTF-8"?>
<svg width="24px" height="24px" viewBox="0 0 24 24" version="1.1" xmlns="http://www.w3.org/2000/svg" xmlns:xlink="http://www.w3.org/1999/xlink">
    <!-- Generator: Sketch 63.1 (92452) - https://sketch.com -->
    <title>path-1</title>
    <desc>Created with Sketch.</desc>
    <defs>
        <path d="M2,4 L0,4 L0,18 C0,19.1 0.9,20 2,20 L16,20 L16,18 L2,18 L2,4 L2,4 Z M18,0 L6,0 C4.9,0 4,0.9 4,2 L4,14 C4,15.1 4.9,16 6,16 L18,16 C19.1,16 20,15.1 20,14 L20,2 C20,0.9 19.1,0 18,0 L18,0 Z M17,9 L7,9 L7,7 L17,7 L17,9 L17,9 Z M17,13 L7,13 L7,11 L17,11 L17,13 L17,13 Z M17,5 L7,5 L7,3 L17,3 L17,5 L17,5 Z" id="path-1"></path>
    </defs>
    <g id="Page-1" stroke="none" stroke-width="1" fill="none" fill-rule="evenodd">
        <g id="Artboard">
            <g id="ic_work" transform="translate(2.000000, 2.000000)">
                <mask id="mask-2" fill="white">
                    <use xlink:href="#path-1"></use>
                </mask>
                <use id="path-1" fill="#FFFFFF" transform="translate(10.000000, 10.000000) scale(-1, 1) translate(-10.000000, -10.000000) " xlink:href="#path-1"></use>
            </g>
        </g>
    </g>
</svg>