<svg xmlns="http://www.w3.org/2000/svg" xmlns:xlink="http://www.w3.org/1999/xlink" width="20" height="20" viewBox="0 0 20 20">
    <defs>
        <path id="hxqzrfie7a" d="M12 2v2H4v12h12V8h2v8c0 1.105-.895 2-2 2H4c-1.105 0-2-.895-2-2V4c0-1.105.895-2 2-2h8zm-2 9c.99 0 1.93.21 2.78.58.74.32 1.22 1.04 1.22 1.85V14H6v-.57c0-.81.48-1.53 1.22-1.85.85-.37 1.79-.58 2.78-.58zm0-5c1.1 0 2 .9 2 2s-.9 2-2 2-2-.9-2-2 .9-2 2-2zm8-6v2h2v2h-2v2h-2V4h-2V2h2V0h2z"/>
    </defs>
    <g fill="none" fill-rule="evenodd">
        <g>
            <g>
                <g transform="translate(-502.000000, -626.000000) translate(502.000000, 626.000000)">
                    <mask id="ewpo4xbqeb" fill="#fff">
                        <use xlink:href="#hxqzrfie7a"/>
                    </mask>
                    <use fill="#000" fill-rule="nonzero" xlink:href="#hxqzrfie7a"/>
                    <g fill="#0D2A58" mask="url(#ewpo4xbqeb)">
                        <path d="M0 0H33.333V33.333H0z" transform="translate(-6.666667, -6.666667)"/>
                    </g>
                </g>
            </g>
        </g>
    </g>
</svg>
