<svg xmlns="http://www.w3.org/2000/svg" xmlns:xlink="http://www.w3.org/1999/xlink" width="20" height="20" viewBox="0 0 20 20">
    <defs>
        <path id="trem5d7qqa" d="M7 5v1.5H3.56L10 12.941 16.439 6.5H13V5h4c.277 0 .541.056.781.158.056.024.111.05.164.079.143.077.276.17.396.279l.03.028c.03.027.058.056.085.085l.03.033c.03.032.057.065.084.099l.018.023c.065.085.125.177.176.273l.013.025c.021.04.041.083.06.126l.006.014c.101.238.157.502.157.778v9c0 1.105-.895 2-2 2H3c-1.105 0-2-.895-2-2V7c0-.221.036-.434.102-.633l.055-.145.003-.008.003-.006.029-.064.003-.005.028-.058.012-.023c.052-.097.112-.189.178-.275l.017-.022c.027-.034.054-.067.083-.099l.031-.033c.027-.03.056-.058.085-.085l.03-.028c.12-.108.253-.202.396-.28l.026-.013c.04-.02.08-.04.12-.057l.017-.008C2.46 5.056 2.723 5 3 5h4zm10.5 2.563l-6.086 6.085c-.781.78-2.047.78-2.828 0L2.5 7.564V16c0 .245.177.45.41.492L3 16.5h14c.245 0 .45-.177.492-.41L17.5 16V7.563zM10 1l3 3h-2v5H9V4H7l3-3z"/>
    </defs>
    <g fill="none" fill-rule="evenodd">
        <g>
            <g>
                <g transform="translate(-422.000000, -626.000000) translate(422.000000, 626.000000)">
                    <mask id="5fm8ndqo7b" fill="#fff">
                        <use xlink:href="#trem5d7qqa"/>
                    </mask>
                    <use fill="#000" fill-rule="nonzero" xlink:href="#trem5d7qqa"/>
                    <g fill="#0D2A58" mask="url(#5fm8ndqo7b)">
                        <path d="M0 0H33.333V33.333H0z" transform="translate(-6.666667, -6.666667)"/>
                    </g>
                </g>
            </g>
        </g>
    </g>
</svg>
