<svg xmlns="http://www.w3.org/2000/svg" xmlns:xlink="http://www.w3.org/1999/xlink" width="24" height="24" viewBox="0 0 24 24">
    <defs>
        <path id="prefix__a" d="M13.998 8.784c.032-.256.056-.512.056-.784s-.024-.528-.056-.784l1.688-1.32c.152-.12.192-.336.096-.512l-1.6-2.768c-.096-.176-.312-.24-.488-.176l-1.992.8c-.416-.32-.864-.584-1.352-.784l-.304-2.12C10.022.144 9.854 0 9.654 0h-3.2c-.2 0-.368.144-.392.336l-.304 2.12c-.488.2-.936.472-1.352.784l-1.992-.8c-.184-.072-.392 0-.488.176l-1.6 2.768c-.104.176-.056.392.096.512l1.688 1.32c-.032.256-.056.52-.056.784s.024.528.056.784l-1.688 1.32c-.152.12-.192.336-.096.512l1.6 2.768c.096.176.312.24.488.176l1.992-.8c.416.32.864.584 1.352.784l.304 2.12c.024.192.192.336.392.336h3.2c.2 0 .368-.144.392-.336l.304-2.12c.488-.2.936-.472 1.352-.784l1.992.8c.184.072.392 0 .488-.176l1.6-2.768c.096-.176.056-.392-.096-.512l-1.688-1.32zM8.054 10.8c-1.544 0-2.8-1.256-2.8-2.8 0-1.544 1.256-2.8 2.8-2.8 1.544 0 2.8 1.256 2.8 2.8 0 1.544-1.256 2.8-2.8 2.8z"/>
        <path id="prefix__c" d="M0 0H50V50H0z"/>
    </defs>
    <g fill="none" fill-rule="evenodd" opacity=".7" transform="translate(4 4)">
        <mask id="prefix__b" fill="#fff">
            <use xlink:href="#prefix__a"/>
        </mask>
        <g mask="url(#prefix__b)">
            <g transform="translate(-17 -17)">
                <use fill="#0B1F48" xlink:href="#prefix__c"/>
            </g>
        </g>
    </g>
</svg>
