<?xml version="1.0" encoding="UTF-8"?>
<svg width="34px" height="34px" viewBox="0 0 34 34" version="1.1" xmlns="http://www.w3.org/2000/svg" xmlns:xlink="http://www.w3.org/1999/xlink">
    <title>2DAD2397-4C98-4426-B1A3-0B9C763863F2@1x</title>
    <defs>
        <path d="M23.6666667,15.6666667 L10.3333333,15.6666667 L10.3333333,18.3333333 L23.6666667,18.3333333 L23.6666667,15.6666667 Z M26.3333333,6.33333333 L25,6.33333333 L25,3.66666667 L22.3333333,3.66666667 L22.3333333,6.33333333 L11.6666667,6.33333333 L11.6666667,3.66666667 L9,3.66666667 L9,6.33333333 L7.66666667,6.33333333 C6.18666667,6.33333333 5,7.53333333 5,9 L5,27.6666667 C5,29.1333333 6.18666667,30.3333333 7.66666667,30.3333333 L26.3333333,30.3333333 C27.8,30.3333333 29,29.1333333 29,27.6666667 L29,9 C29,7.53333333 27.8,6.33333333 26.3333333,6.33333333 Z M26.3333333,27.6666667 L7.66666667,27.6666667 L7.66666667,13 L26.3333333,13 L26.3333333,27.6666667 Z M19.6666667,21 L10.3333333,21 L10.3333333,23.6666667 L19.6666667,23.6666667 L19.6666667,21 Z" id="path-1"></path>
    </defs>
    <g id="Design_v-2.2" stroke="none" stroke-width="1" fill="none" fill-rule="evenodd">
        <g id="RAS_0020-_대시보드_마스터-권한-" transform="translate(-361.000000, -1285.000000)">
            <g id="dashboard_month" transform="translate(320.000000, 1242.000000)">
                <g id="icon_number" transform="translate(41.000000, 43.000000)">
                    <rect id="tr" x="0" y="0" width="34" height="34"></rect>
                    <mask id="mask-2" fill="white">
                        <use xlink:href="#path-1"></use>
                    </mask>
                    <use id="icon/notification/event_note_24px" fill="#FFFFFF" fill-rule="nonzero" xlink:href="#path-1"></use>
                </g>
            </g>
        </g>
    </g>
</svg>