<?xml version="1.0" encoding="UTF-8"?>
<svg width="34px" height="34px" viewBox="0 0 34 34" version="1.1" xmlns="http://www.w3.org/2000/svg" xmlns:xlink="http://www.w3.org/1999/xlink">
    <title>60AEFA53-9A8C-4D01-9FF7-4BFEA01729FA@1x</title>
    <defs>
        <path d="M26.3333333,5 L7.66666667,5 C6.2,5 5,6.2 5,7.66666667 L5,26.3333333 C5,27.8 6.2,29 7.66666667,29 L26.3333333,29 C27.8,29 29,27.8 29,26.3333333 L29,7.66666667 C29,6.2 27.8,5 26.3333333,5 Z M13,23.6666667 L10.3333333,23.6666667 L10.3333333,14.3333333 L13,14.3333333 L13,23.6666667 Z M18.3333333,23.6666667 L15.6666667,23.6666667 L15.6666667,10.3333333 L18.3333333,10.3333333 L18.3333333,23.6666667 Z M23.6666667,23.6666667 L21,23.6666667 L21,18.3333333 L23.6666667,18.3333333 L23.6666667,23.6666667 Z" id="path-1"></path>
    </defs>
    <g id="Design_v-2.2" stroke="none" stroke-width="1" fill="none" fill-rule="evenodd">
        <g id="RAS_0020-_대시보드_마스터-권한-" transform="translate(-361.000000, -657.000000)">
            <g id="dashboard_date" transform="translate(320.000000, 614.000000)">
                <g id="icon_date" transform="translate(41.000000, 43.000000)">
                    <rect id="tr" x="0" y="0" width="34" height="34"></rect>
                    <mask id="mask-2" fill="white">
                        <use xlink:href="#path-1"></use>
                    </mask>
                    <use id="icon/social/poll_24px" fill="#FFFFFF" fill-rule="nonzero" xlink:href="#path-1"></use>
                </g>
            </g>
        </g>
    </g>
</svg>