<?xml version="1.0" encoding="UTF-8"?>
<svg width="34px" height="34px" viewBox="0 0 34 34" version="1.1" xmlns="http://www.w3.org/2000/svg" xmlns:xlink="http://www.w3.org/1999/xlink">
    <title>3FCE62AC-D55F-4A50-A95F-657A293D1503@1x</title>
    <defs>
        <path d="M19,5 C12.3733333,5 7,10.3733333 7,17 L3,17 L8.33333333,22.32 L13.6666667,17 L9.66666667,17 C9.66666667,11.84 13.84,7.66666667 19,7.66666667 C24.16,7.66666667 28.3333333,11.84 28.3333333,17 C28.3333333,22.16 24.16,26.3333333 19,26.3333333 C16.4266667,26.3333333 14.0933333,25.28 12.4133333,23.5866667 L10.52,25.48 C12.6933333,27.6533333 15.68,29 19,29 C25.6266667,29 31,23.6266667 31,17 C31,10.3733333 25.6266667,5 19,5 Z M17.6666667,11.6666667 L17.6666667,18.3333333 L23.3333333,21.6933333 L24.36,19.9866667 L19.6666667,17.2 L19.6666667,11.6666667 L17.6666667,11.6666667 Z" id="path-1"></path>
    </defs>
    <g id="Design_v-2.2" stroke="none" stroke-width="1" fill="none" fill-rule="evenodd">
        <g id="RAS_0020-_대시보드_마스터-권한-" transform="translate(-1333.000000, -1285.000000)">
            <g id="dashboard_month" transform="translate(320.000000, 1242.000000)">
                <g id="02" transform="translate(972.000000, 0.000000)">
                    <g id="icon_time" transform="translate(41.000000, 43.000000)">
                        <rect id="tr" x="0" y="0" width="34" height="34"></rect>
                        <mask id="mask-2" fill="white">
                            <use xlink:href="#path-1"></use>
                        </mask>
                        <use id="icon/action/history_24px" fill="#FFFFFF" fill-rule="nonzero" xlink:href="#path-1"></use>
                    </g>
                </g>
            </g>
        </g>
    </g>
</svg>