<?xml version="1.0" encoding="UTF-8"?>
<svg width="34px" height="34px" viewBox="0 0 34 34" version="1.1" xmlns="http://www.w3.org/2000/svg" xmlns:xlink="http://www.w3.org/1999/xlink">
    <title>AE09D9E4-C086-4699-B853-E23DFAFC29BA@1x</title>
    <defs>
        <path d="M15.6666667,23.6666667 C15.6666667,24.4 16.2666667,25 17,25 C17.7333333,25 18.3333333,24.4 18.3333333,23.6666667 C18.3333333,22.9333333 17.7333333,22.3333333 17,22.3333333 C16.2666667,22.3333333 15.6666667,22.9333333 15.6666667,23.6666667 Z M15.6666667,5 L15.6666667,10.3333333 L18.3333333,10.3333333 L18.3333333,7.77333333 C22.8533333,8.42666667 26.3333333,12.2933333 26.3333333,17 C26.3333333,22.16 22.16,26.3333333 17,26.3333333 C11.84,26.3333333 7.66666667,22.16 7.66666667,17 C7.66666667,14.76 8.45333333,12.7066667 9.77333333,11.1066667 L17,18.3333333 L18.88,16.4533333 L9.81333333,7.38666667 L9.81333333,7.41333333 C6.89333333,9.6 5,13.0666667 5,17 C5,23.6266667 10.36,29 17,29 C23.6266667,29 29,23.6266667 29,17 C29,10.3733333 23.6266667,5 17,5 L15.6666667,5 Z M25,17 C25,16.2666667 24.4,15.6666667 23.6666667,15.6666667 C22.9333333,15.6666667 22.3333333,16.2666667 22.3333333,17 C22.3333333,17.7333333 22.9333333,18.3333333 23.6666667,18.3333333 C24.4,18.3333333 25,17.7333333 25,17 Z M9,17 C9,17.7333333 9.6,18.3333333 10.3333333,18.3333333 C11.0666667,18.3333333 11.6666667,17.7333333 11.6666667,17 C11.6666667,16.2666667 11.0666667,15.6666667 10.3333333,15.6666667 C9.6,15.6666667 9,16.2666667 9,17 Z" id="path-1"></path>
    </defs>
    <g id="Design" stroke="none" stroke-width="1" fill="none" fill-rule="evenodd">
        <g id="RAS_0020-_대시보드_마스터-권한-" transform="translate(-1333.000000, -657.000000)">
            <g id="dashboard_date" transform="translate(320.000000, 614.000000)">
                <g id="03" transform="translate(972.000000, 0.000000)">
                    <g id="icon_time" transform="translate(41.000000, 43.000000)">
                        <rect id="tr" x="0" y="0" width="34" height="34"></rect>
                        <mask id="mask-2" fill="white">
                            <use xlink:href="#path-1"></use>
                        </mask>
                        <use id="icon/av/timer_24px" fill="#FFFFFF" fill-rule="nonzero" xlink:href="#path-1"></use>
                    </g>
                </g>
            </g>
        </g>
    </g>
</svg>