<svg xmlns="http://www.w3.org/2000/svg" width="24" height="24" viewBox="0 0 24 24">
    <g fill="none" fill-rule="evenodd">
        <path d="M0 0h24v24H0z"/>
        <g fill-rule="nonzero">
            <path fill="#94A6C4" d="M19.2 3H4.8C3.81 3 3 3.853 3 4.895V21l3.6-2.842h12.6c.99 0 1.8-.853 1.8-1.895V4.895C21 3.853 20.19 3 19.2 3z" opacity=".755"/>
            <path fill="#33486A" d="M7.333 14.167v-2.059l5.734-5.733a.413.413 0 0 1 .591 0l1.475 1.475a.413.413 0 0 1 0 .592l-5.741 5.725H7.333zm9.167 0h-5.417L12.75 12.5h3.75c.458 0 .833.375.833.833a.836.836 0 0 1-.833.834z"/>
        </g>
    </g>
</svg>
