<svg xmlns="http://www.w3.org/2000/svg" width="24" height="24" viewBox="0 0 24 24">
    <g fill="none" fill-rule="evenodd">
        <path d="M0 0h24v24H0z"/>
        <path fill="#2B405D" d="M3.582 15.518a.773.773 0 0 1 1.036-.346L12 18.863l7.382-3.69a.773.773 0 0 1 .691 1.382l-7.727 3.863a.773.773 0 0 1-.691 0l-7.728-3.863a.773.773 0 0 1-.345-1.037zm0-3.864a.773.773 0 0 1 1.036-.345L12 14.999l7.382-3.69a.773.773 0 1 1 .691 1.382l-7.727 3.864a.773.773 0 0 1-.691 0L3.927 12.69a.773.773 0 0 1-.345-1.037z"/>
        <path fill="#889DBA" fill-rule="nonzero" d="M11.655 3.582a.773.773 0 0 1 .69 0l7.728 3.863a.773.773 0 0 1 0 1.383l-7.727 3.863a.773.773 0 0 1-.691 0L3.927 8.828a.773.773 0 0 1 0-1.383l7.728-3.863z"/>
    </g>
</svg>
