<svg xmlns="http://www.w3.org/2000/svg" width="24" height="24" viewBox="0 0 24 24">
    <g fill="none" fill-rule="evenodd">
        <path d="M0 0h24v24H0z"/>
        <path fill="#0D2A58" fill-rule="nonzero" d="M17 17.833H7A.836.836 0 0 1 6.167 17V7c0-.458.375-.833.833-.833h4.167A.836.836 0 0 0 12 5.333a.836.836 0 0 0-.833-.833h-5c-.925 0-1.667.75-1.667 1.667v11.666c0 .917.75 1.667 1.667 1.667h11.666c.917 0 1.667-.75 1.667-1.667v-5a.836.836 0 0 0-.833-.833.836.836 0 0 0-.834.833V17a.836.836 0 0 1-.833.833zm-3.333-12.5c0 .459.375.834.833.834h2.158L9.05 13.775a.83.83 0 1 0 1.175 1.175l7.608-7.608V9.5c0 .458.375.833.834.833A.836.836 0 0 0 19.5 9.5v-5h-5a.836.836 0 0 0-.833.833z"/>
    </g>
</svg>
