<svg xmlns="http://www.w3.org/2000/svg" width="24" height="24" viewBox="0 0 24 24">
    <g fill="none" fill-rule="evenodd">
        <path d="M24 24V0H0v24z"/>
        <path fill="#A4B3CB" fill-opacity=".8" fill-rule="nonzero" d="M19.5 6.167v11.666c0 .917-.75 1.667-1.667 1.667H6.167c-.917 0-1.667-.75-1.667-1.667V6.167c0-.917.75-1.667 1.667-1.667h11.666c.917 0 1.667.75 1.667 1.667z"/>
        <path fill="#0F2F65" fill-rule="nonzero" d="M7.833 12c0 .458.375.833.834.833h6.666a.836.836 0 0 0 .834-.833.836.836 0 0 0-.834-.833H8.667a.836.836 0 0 0-.834.833zm0 3.333c0 .459.375.834.834.834h6.666a.836.836 0 0 0 .834-.834.836.836 0 0 0-.834-.833H8.667a.836.836 0 0 0-.834.833zm0-6.67c0 .459.375.834.834.834h6.666a.836.836 0 0 0 .834-.834.836.836 0 0 0-.834-.833H8.667a.836.836 0 0 0-.834.833z"/>
    </g>
</svg>
