<svg xmlns="http://www.w3.org/2000/svg" xmlns:xlink="http://www.w3.org/1999/xlink" width="64" height="64" viewBox="0 0 64 64">
    <defs>
        <path id="a" d="M32 64c24.209 0 32-7.791 32-32S56.209 0 32 0 0 7.791 0 32s7.791 32 32 32z"/>
    </defs>
    <g fill="none" fill-rule="evenodd">
        <mask id="b" fill="#fff">
            <use xlink:href="#a"/>
        </mask>
        <path fill="#FFF" d="M44.8 20.267c0 7.082-5.717 12.8-12.8 12.8-7.083 0-12.8-5.718-12.8-12.8 0-7.083 5.717-12.8 12.8-12.8 7.083 0 12.8 5.717 12.8 12.8zM5.333 50.293C7.162 40.76 23.111 39.467 32 39.467c8.889 0 24.894 1.713 26.667 10.826 1.182 6.075 2.96 15.474 5.333 28.196H0a7999.35 7999.35 0 0 1 5.333-28.196z" mask="url(#b)"/>
    </g>
</svg>
