<?xml version="1.0" encoding="UTF-8"?>
<svg width="32px" height="32px" viewBox="0 0 32 32" version="1.1" xmlns="http://www.w3.org/2000/svg" xmlns:xlink="http://www.w3.org/1999/xlink">
    <title>93533255-E7FA-455D-996F-210D45774C78@1x</title>
    <g id="Remote_Spot" stroke="none" stroke-width="1" fill="none" fill-rule="evenodd">
        <g id="RSS_0005_Spot-연결_카메라-출력안될경우" transform="translate(-72.000000, -72.000000)">
            <g id="Group-15-Copy" transform="translate(60.000000, 60.000000)">
                <g id="power_settings_new_black_24dp" transform="translate(12.000000, 12.000000)">
                    <polygon id="Path" points="0 0 32 0 32 32 0 32"></polygon>
                    <path d="M17,7 L15,7 L15,17 L17,17 L17,7 Z M21.83,9.17 L20.41,10.59 C21.99,11.86 23,13.81 23,16 C23,19.87 19.87,23 16,23 C12.13,23 9,19.87 9,16 C9,13.81 10.01,11.86 11.58,10.58 L10.17,9.17 C8.23,10.82 7,13.26 7,16 C7,20.97 11.03,25 16,25 C20.97,25 25,20.97 25,16 C25,13.26 23.77,10.82 21.83,9.17 Z" id="Shape" fill="#FFFFFF" fill-rule="nonzero"></path>
                </g>
            </g>
        </g>
    </g>
</svg>