<?xml version="1.0" encoding="UTF-8"?>
<svg width="32px" height="32px" viewBox="0 0 32 32" version="1.1" xmlns="http://www.w3.org/2000/svg" xmlns:xlink="http://www.w3.org/1999/xlink">
    <title>D7CCAC58-1D22-4D43-A52C-03C6027285C5@1x</title>
    <g id="Remote_Spot" stroke="none" stroke-width="1" fill="none" fill-rule="evenodd">
        <g id="RSS_0005_Spot-연결_카메라-출력안될경우" transform="translate(-136.000000, -72.000000)">
            <g id="Group-15-Copy" transform="translate(60.000000, 60.000000)">
                <g id="ic_motor" transform="translate(64.000000, 0.000000)">
                    <g id="bolt_black_24dp" transform="translate(12.000000, 12.000000)">
                        <polygon id="Path" points="0 0 32 0 32 32 0 32"></polygon>
                        <g id="engine" transform="translate(16.000000, 16.500000) rotate(-270.000000) translate(-16.000000, -16.500000) translate(6.000000, 10.000000)" fill="#FFFFFF" fill-rule="nonzero">
                            <path d="M19.4140625,5.859375 L17.265625,5.859375 L17.265625,2.1484375 C17.265625,1.82484375 17.0032813,1.5625 16.6796875,1.5625 L14.921875,1.5625 L14.921875,0.5859375 C14.921875,0.26234375 14.6595313,0 14.3359375,0 L4.7265625,0 L4.7265625,12.890625 L14.3359375,12.890625 C14.6595313,12.890625 14.921875,12.6282812 14.921875,12.3046875 L14.921875,11.328125 L16.6796875,11.328125 C17.0032813,11.328125 17.265625,11.0657813 17.265625,10.7421875 L17.265625,7.03125 L19.4140625,7.03125 C19.7376563,7.03125 20,6.76890625 20,6.4453125 C20,6.12171875 19.7376563,5.859375 19.4140625,5.859375 Z M12.5585938,9.375 L7.08984375,9.375 C6.76625,9.375 6.50390625,9.11265625 6.50390625,8.7890625 C6.50390625,8.46546875 6.76625,8.203125 7.08984375,8.203125 L12.5585938,8.203125 C12.8821875,8.203125 13.1445312,8.46546875 13.1445312,8.7890625 C13.1445312,9.11265625 12.8821875,9.375 12.5585938,9.375 Z M12.5585938,4.6875 L7.08984375,4.6875 C6.76625,4.6875 6.50390625,4.42515625 6.50390625,4.1015625 C6.50390625,3.77796875 6.76625,3.515625 7.08984375,3.515625 L12.5585938,3.515625 C12.8821875,3.515625 13.1445312,3.77796875 13.1445312,4.1015625 C13.1445312,4.42515625 12.8821875,4.6875 12.5585938,4.6875 Z" id="Shape"></path>
                            <path d="M1.7578125,0 C0.788554688,0 0,0.788554687 0,1.7578125 L0,11.1328125 C0,12.1020703 0.788554688,12.890625 1.7578125,12.890625 L3.5546875,12.890625 L3.5546875,0 L1.7578125,0 Z" id="Path"></path>
                        </g>
                    </g>
                </g>
            </g>
        </g>
    </g>
</svg>