<?xml version="1.0" encoding="UTF-8"?>
<svg width="18px" height="18px" viewBox="0 0 18 18" version="1.1" xmlns="http://www.w3.org/2000/svg" xmlns:xlink="http://www.w3.org/1999/xlink">
    <title>4516FB87-3A8F-407B-B582-DC57CDB66CBD@1x</title>
    <defs>
        <path d="M11.1464466,4.85355339 C11.3417088,4.65829124 11.6582912,4.65829124 11.8535534,4.85355339 L11.8535534,4.85355339 L16,9 L11.8535534,13.1464466 C11.7597852,13.2402148 11.6326082,13.2928932 11.5,13.2928932 C11.2238576,13.2928932 11,13.0690356 11,12.7928932 L11,12.7928932 L11,10 L3,10 C2.44771525,10 2,9.55228475 2,9 C2,8.44771525 2.44771525,8 3,8 L11,8 L11,5.20710678 C11,5.10102019 11.0337142,4.99840961 11.0952092,4.91359954 Z" id="path-1"></path>
    </defs>
    <g id="Remote_Spot" stroke="none" stroke-width="1" fill="none" fill-rule="evenodd">
        <g id="RSS_0007_Spot-연결_조작키-활성화" transform="translate(-1747.000000, -907.000000)">
            <g id="KEY" transform="translate(1652.000000, 884.000000)">
                <g id="Group-5" transform="translate(72.000000, 0.000000)">
                    <g id="Group-3" transform="translate(23.000000, 23.000000)">
                        <rect id="Rectangle" x="0" y="0" width="18" height="18"></rect>
                        <mask id="mask-2" fill="white">
                            <use xlink:href="#path-1"></use>
                        </mask>
                        <use id="icon/navigation/arrow_right_24px-2" fill="#FFFFFF" fill-rule="nonzero" transform="translate(9.000000, 9.000000) rotate(-90.000000) translate(-9.000000, -9.000000) " xlink:href="#path-1"></use>
                    </g>
                </g>
            </g>
        </g>
    </g>
</svg>