<?xml version="1.0" encoding="UTF-8"?>
<svg width="18px" height="18px" viewBox="0 0 18 18" version="1.1" xmlns="http://www.w3.org/2000/svg" xmlns:xlink="http://www.w3.org/1999/xlink">
    <title>ic_move_round_right</title>
    <g id="Remote_Spot" stroke="none" stroke-width="1" fill="none" fill-rule="evenodd">
        <g id="RSS_0007_Spot-연결_조작키-활성화" transform="translate(-1819.000000, -979.000000)">
            <g id="KEY" transform="translate(1652.000000, 884.000000)">
                <g id="Group-8" transform="translate(144.000000, 72.000000)">
                    <g id="Group-3" transform="translate(23.000000, 23.000000)">
                        <rect id="Rectangle" x="0" y="0" width="18" height="18"></rect>
                        <path d="M8.99539598,5 C11.205396,5 13.195396,5.9 14.645396,7.35 L14.645396,7.35 L16.1418426,5.85355339 C16.2356108,5.7597852 16.3627877,5.70710678 16.495396,5.70710678 C16.7715384,5.70710678 16.995396,5.93096441 16.995396,6.20710678 L16.995396,6.20710678 L16.995396,12 L11.2025028,12 C11.0698945,12 10.9427176,11.9473216 10.8489494,11.8535534 C10.6536872,11.6582912 10.6536872,11.3417088 10.8489494,11.1464466 L10.8489494,11.1464466 L13.215396,8.78 C12.135396,7.69 10.655396,7 8.99539598,7 C5.68539598,7 2.99539598,9.69 2.99539598,13 L2.996,12.926 L2.99714176,12.937628 C2.99714176,12.9446984 2.99706828,12.9517517 2.99692203,12.9587871 L2.99539598,13 C2.96259688,13.5228525 2.52885499,13.9361989 1.99857088,13.9361989 C1.44707541,13.9361989 1,13.4891235 1,12.937628 C1,12.8940522 1.00279118,12.8511283 1.00820451,12.8090253 C1.10849638,8.47753183 4.63911069,5 8.99539598,5 Z" id="Combined-Shape" fill="#FFFFFF" fill-rule="nonzero" transform="translate(8.997698, 9.468099) rotate(-15.000000) translate(-8.997698, -9.468099) "></path>
                    </g>
                </g>
            </g>
        </g>
    </g>
</svg>