<?xml version="1.0" encoding="UTF-8"?>
<svg width="288px" height="126px" viewBox="0 0 288 126" version="1.1" xmlns="http://www.w3.org/2000/svg" xmlns:xlink="http://www.w3.org/1999/xlink">
    <title>2608E538-F831-4BD2-8706-95C4D7AC6633@1x</title>
    <defs>
        <polygon id="path-1" points="0 0.416 241.9998 0.416 241.9998 3 0 3"></polygon>
        <polygon id="path-3" points="0 0.255235616 82.2308418 0.255235616 82.2308418 58.9998384 0 58.9998384"></polygon>
    </defs>
    <g id="Remote_SPOT_mobile/tablet" stroke="none" stroke-width="1" fill="none" fill-rule="evenodd">
        <g id="RSS_0003_Spot-연결-팝업_Mobile" transform="translate(-36.000000, -190.000000)">
            <g id="image_02" transform="translate(36.000000, 190.000000)">
                <polygon id="tr" points="-5.1159077e-13 -8.95283847e-13 288 -8.95283847e-13 288 126 -5.1159077e-13 126"></polygon>
                <g id="Group-52" transform="translate(23.000000, 58.000000)">
                    <path d="M50.0967,28.1427 C49.8697,28.4347 49.5317,28.6007 49.1637,28.6007 C48.9047,28.6007 48.6577,28.5167 48.4497,28.3587 C47.9347,27.9627 47.8377,27.2237 48.2327,26.7097 L51.3727,22.6207 L44.2557,22.6207 L49.0487,14.7567 C49.2137,14.4877 49.4727,14.2987 49.7797,14.2247 C50.0857,14.1537 50.3987,14.2027 50.6647,14.3667 C51.2157,14.7027 51.3917,15.4267 51.0557,15.9797 L51.0547,15.9807 L48.4397,20.2707 L56.1397,20.2707 L50.0967,28.1427 Z M84.7787,5.1697 C84.7787,3.8007 83.6647,2.6877 82.2957,2.6877 L18.3237,2.6877 C16.9547,2.6877 15.8417,3.8007 15.8417,5.1697 L15.8417,38.3017 L84.7787,38.3017 L84.7787,5.1697 Z" id="Fill-37" fill="#212124"></path>
                    <path d="M84.2559,39.1759 L85.1349,39.2339 L85.6349,39.2339 L85.7089,38.7339 L85.7089,36.6369 L85.2779,37.4329 L85.2779,5.1699 C85.2779,3.5259 83.9409,2.1879 82.2959,2.1879 L18.3229,2.1879 C16.6799,2.1879 15.3419,3.5259 15.3419,5.1699 L15.3419,37.5299 L14.9299,36.7749 L14.9099,38.7339 L14.9099,39.2339 L16.2529,39.2339 L16.0279,38.8019 L84.4949,38.8019 L84.2559,39.1759 Z M15.3419,43.9469 C15.3419,45.5919 16.6799,46.9299 18.3229,46.9299 L82.2959,46.9299 C83.9409,46.9299 85.2779,45.5919 85.2779,43.9469 L85.2779,40.3859 L15.3419,40.3859 L15.3419,43.9469 Z M57.7989,55.4249 L55.4329,48.5139 L45.1869,48.5139 L42.8199,55.4249 L41.1459,55.4249 L43.5129,48.5139 L18.3229,48.5139 C15.8059,48.5139 13.7579,46.4649 13.7579,43.9469 L13.7579,5.1699 C13.7579,2.6529 15.8059,0.6039 18.3229,0.6039 L82.2959,0.6039 C84.8139,0.6039 86.8619,2.6529 86.8619,5.1699 L86.8619,43.9469 C86.8619,46.4649 84.8139,48.5139 82.2959,48.5139 L57.1069,48.5139 L59.4739,55.4249 L57.7989,55.4249 Z" id="Fill-39" fill="#E9ECF0"></path>
                    <path d="M18.3232,46.4298 C16.9552,46.4298 15.8422,45.3158 15.8422,43.9468 L15.8422,40.8858 L84.7782,40.8858 L84.7782,43.9468 C84.7782,45.3158 83.6652,46.4298 82.2962,46.4298 L18.3232,46.4298 Z M85.1352,38.7338 C85.1582,38.6918 85.1862,38.6538 85.2092,38.6118 L85.2092,38.7338 L85.1352,38.7338 Z M15.8422,38.3018 L15.8422,5.1698 C15.8422,3.8008 16.9552,2.6878 18.3232,2.6878 L82.2962,2.6878 C83.6652,2.6878 84.7782,3.8008 84.7782,5.1698 L84.7782,38.3018 L15.8422,38.3018 Z M82.2962,0.1038 L18.3232,0.1038 C15.5302,0.1038 13.2582,2.3758 13.2582,5.1698 L13.2582,43.9468 C13.2582,46.7408 15.5302,49.0138 18.3232,49.0138 L42.8122,49.0138 L40.4452,55.9248 L43.1772,55.9248 L45.5442,49.0138 L55.0752,49.0138 L57.4412,55.9248 L60.1742,55.9248 L57.8062,49.0138 L82.2962,49.0138 C85.0902,49.0138 87.3622,46.7408 87.3622,43.9468 L87.3622,5.1698 C87.3622,2.3758 85.0902,0.1038 82.2962,0.1038 L82.2962,0.1038 Z M18.3232,47.4298 L82.2962,47.4298 C84.2162,47.4298 85.7782,45.8678 85.7782,43.9468 L85.7782,40.8858 L85.7782,39.8858 L84.7782,39.8858 L15.8422,39.8858 L14.8422,39.8858 L14.8422,40.8858 L14.8422,43.9468 C14.8422,45.8678 16.4032,47.4298 18.3232,47.4298 L18.3232,47.4298 Z M14.8422,35.6318 L14.4102,34.8608 L14.4102,38.7018 L14.4102,38.7338 L14.4292,39.7338 L15.4292,39.7338 L17.1502,39.7338 L16.9052,39.3018 L83.6552,39.3018 L83.4082,39.7338 L85.1352,39.7338 L85.2092,39.7338 L86.2092,39.7338 L86.2092,38.7338 L86.2092,38.6118 L86.2112,34.5258 L85.7782,35.3548 L85.7782,5.1698 C85.7782,3.2498 84.2162,1.6878 82.2962,1.6878 L18.3232,1.6878 C16.4032,1.6878 14.8422,3.2498 14.8422,5.1698 L14.8422,35.6318 L14.8422,35.6318 Z M82.2962,1.1038 C84.5382,1.1038 86.3622,2.9278 86.3622,5.1698 L86.3622,43.9468 C86.3622,46.1898 84.5382,48.0138 82.2962,48.0138 L57.8062,48.0138 L56.4072,48.0138 L56.8602,49.3378 L58.7742,54.9248 L58.1562,54.9248 L56.0212,48.6898 L55.7892,48.0138 L55.0752,48.0138 L45.5442,48.0138 L44.8292,48.0138 L44.5972,48.6898 L42.4632,54.9248 L41.8442,54.9248 L43.7592,49.3378 L44.2122,48.0138 L42.8122,48.0138 L18.3232,48.0138 C16.0822,48.0138 14.2582,46.1898 14.2582,43.9468 L14.2582,5.1698 C14.2582,2.9278 16.0822,1.1038 18.3232,1.1038 L82.2962,1.1038 L82.2962,1.1038 Z" id="Fill-41" fill="#E9ECF0"></path>
                    <path d="M25.4297,38.7335 L25.4297,38.7335 C25.4237,38.7225 25.4157,38.7125 25.4097,38.7025 C25.4157,38.7125 25.4237,38.7225 25.4297,38.7335" id="Fill-43" fill="#FFFFFF"></path>
                    <path d="M25.4102,38.7023 C25.4162,38.7133 25.4242,38.7233 25.4302,38.7333 C25.4242,38.7233 25.4162,38.7133 25.4102,38.7023" id="Fill-45" fill="#FFFFFF"></path>
                    <path d="M51.0547,15.9806 L51.0557,15.9796 C51.3917,15.4266 51.2157,14.7026 50.6647,14.3666 C50.3987,14.2026 50.0857,14.1536 49.7797,14.2246 C49.4727,14.2986 49.2137,14.4876 49.0487,14.7566 L44.2557,22.6206 L51.3727,22.6206 L48.2327,26.7096 C47.8377,27.2236 47.9347,27.9626 48.4497,28.3586 C48.6577,28.5166 48.9047,28.6006 49.1637,28.6006 C49.5317,28.6006 49.8697,28.4346 50.0967,28.1426 L56.1397,20.2706 L48.4397,20.2706 L51.0547,15.9806 Z" id="Fill-47" fill="#E9ECF0"></path>
                    <g id="Group-51" transform="translate(0.000000, 55.508900)">
                        <mask id="mask-2" fill="white">
                            <use xlink:href="#path-1"></use>
                        </mask>
                        <g id="Clip-50"></g>
                        <path d="M240.7168,0.416 L209.7048,0.416 L207.1208,0.416 L157.1708,0.416 L154.5868,0.416 L70.1738,0.416 L67.4418,0.416 L53.1778,0.416 L50.4458,0.416 L1.2828,0.416 C0.5738,0.416 -0.0002,0.991 -0.0002,1.699 L-0.0002,1.717 C-0.0002,2.426 0.5738,3 1.2828,3 L49.5608,3 L71.0588,3 L154.5868,3 L209.7048,3 L240.7168,3 C241.4258,3 241.9998,2.426 241.9998,1.717 L241.9998,1.699 C241.9998,0.991 241.4258,0.416 240.7168,0.416" id="Fill-49" fill="#E9ECF0" mask="url(#mask-2)"></path>
                    </g>
                </g>
                <g id="Group-8" transform="translate(173.000000, 55.000000)">
                    <g id="Group-3">
                        <mask id="mask-4" fill="white">
                            <use xlink:href="#path-3"></use>
                        </mask>
                        <g id="Clip-2"></g>
                        <path d="M79.210365,38.2956877 C78.9557243,38.3571123 78.6978602,38.3643863 78.4440252,38.3377151 C78.1168602,38.3021534 77.7977534,38.201126 77.5076563,38.0225096 C77.3916175,37.9505781 77.2852485,37.8673315 77.186132,37.7776192 C76.8460738,37.4729205 76.6043262,37.0752767 76.4963456,36.6218658 L76.3666078,36.0747014 L76.0120447,34.5827288 L75.8122,33.742989 L64.2856757,20.2837151 L63.177666,18.9905644 L56.187132,10.8283589 C55.4304621,9.94497534 55.0783165,8.77548219 55.2209476,7.61972877 C55.3643845,6.46316712 55.9905107,5.41571507 56.938967,4.74408493 C57.865666,4.09023562 58.9881806,3.84696164 60.1018311,4.06275616 C61.2146757,4.27693425 62.167967,4.92108493 62.7844233,5.87559178 L71.0151223,18.6042356 L71.7282777,19.7074548 L80.2361806,32.8644548 L80.880035,35.5736055 C81.1677146,36.785126 80.4191029,38.0071534 79.210365,38.2956877 L79.210365,38.2956877 Z M62.9923262,52.2358521 L63.4041029,54.4568384 C63.5507631,55.2472767 63.3460835,56.0587288 62.8432485,56.6834822 C62.3404136,57.3090438 61.5934136,57.6816329 60.7924233,57.7058795 C59.5699864,57.7268932 58.4724524,56.9574685 58.1017728,55.7984822 L57.9800932,55.417811 C57.5376951,54.0349479 58.2492388,52.5397425 59.5998019,52.0160164 L61.7972874,51.162537 L75.3222583,37.1560986 C75.5084039,37.7501397 75.8275107,38.2843726 76.277967,38.7030301 L62.9923262,52.2358521 Z M34.441132,18.9905644 L35.6990252,15.7067699 C36.1583456,14.5097973 37.2800544,13.7217836 38.5564816,13.697537 L56.7157534,13.4300164 L61.4781806,18.9905644 L34.441132,18.9905644 Z M27.6754233,18.9905644 L20.6252583,8.08687945 L43.0280058,8.08687945 C44.4035495,8.08687945 45.6686951,7.3934274 46.4108602,6.23120822 L49.4061126,1.54757808 L66.5403748,1.54757808 C66.7885689,1.54757808 67.0303165,1.63486575 67.2221029,1.79246849 L74.4568019,7.74823562 C74.8145883,8.04404384 74.9443262,8.53463288 74.7783262,8.96864658 L71.629967,17.1777288 L63.8666466,5.17163288 C63.0567922,3.91970137 61.8069573,3.07511233 60.3459961,2.79223562 C58.8842291,2.51097534 57.4111806,2.82698904 56.1951903,3.68855068 L56.1951903,3.68855068 C54.9509961,4.56950959 54.1290544,5.94429041 53.9421029,7.46050959 C53.7543456,8.97753699 54.2160835,10.511537 55.2088602,11.6713315 L55.6222485,12.1530301 L38.5347243,12.4051945 C36.7288699,12.4383315 35.1438117,13.5528658 34.4959282,15.2428521 L33.0599476,18.9905644 L27.6754233,18.9905644 Z M35.109967,32.8644548 L35.7538214,35.5736055 C36.041501,36.785126 35.2928893,38.0071534 34.0841515,38.2956877 C33.8287049,38.3563041 33.5708408,38.3643863 33.3178117,38.3377151 C32.9906466,38.3021534 32.6715398,38.201126 32.3814427,38.0225096 C32.2654039,37.9505781 32.159035,37.8673315 32.0599184,37.7776192 C31.7198602,37.4729205 31.4781126,37.0752767 31.370132,36.6218658 L31.2403942,36.0747014 L30.8858311,34.5827288 L30.6859864,33.742989 L19.1594621,20.2837151 L18.0514524,18.9905644 L11.0609184,10.8283589 C10.4065883,10.0637836 10.0560544,9.08503014 10.0655294,8.08687945 C10.0673359,7.93170137 10.0762,7.77490685 10.094734,7.61972877 C10.1301903,7.33604384 10.1954621,7.0604411 10.2865204,6.79372877 C10.5653359,5.9733863 11.0963748,5.25164658 11.8127534,4.74408493 C12.7394524,4.09023562 13.861967,3.84696164 14.9756175,4.06275616 C16.0884621,4.27693425 17.0417534,4.92108493 17.6582097,5.87559178 L18.2529087,6.79372877 L19.0885495,8.08687945 L26.1387146,18.9905644 L26.9751612,20.2837151 L35.109967,32.8644548 Z M17.8661126,52.2358521 L18.2778893,54.4568384 C18.4245495,55.2472767 18.2198699,56.0587288 17.717035,56.6834822 C17.2142,57.3090438 16.4672,57.6816329 15.6662097,57.7058795 C14.4526369,57.7268932 13.3462388,56.9574685 12.9755592,55.7984822 L12.8538796,55.417811 C12.4114816,54.0349479 13.1230252,52.5397425 14.4735883,52.0160164 L16.6710738,51.162537 L30.1960447,37.1560986 C30.3821903,37.7501397 30.7012971,38.2843726 31.1517534,38.7030301 L17.8661126,52.2358521 Z M6.76828738,18.9905644 C6.31380194,18.9905644 5.90605437,18.7020301 5.75455922,18.2720575 L2.16944272,8.08687945 L8.77720971,8.08687945 C8.76834563,9.39215342 9.22686019,10.6707562 10.0826466,11.6713315 L16.351967,18.9905644 L6.76828738,18.9905644 Z M1.34911262,5.75678356 C1.16377282,5.23063288 1.41680194,4.63982466 1.92527767,4.41352329 L8.14624854,1.64052329 C8.28404466,1.57909863 8.43151068,1.54757808 8.58300583,1.54757808 L47.8750447,1.54757808 L45.3262194,5.53371507 C44.8217728,6.32253699 43.9619573,6.79372877 43.0280058,6.79372877 L19.7896175,6.79372877 L18.740433,5.17163288 C17.9305786,3.91970137 16.6807437,3.07511233 15.2197825,2.79223562 C13.7588214,2.51097534 12.284967,2.82698904 11.0689767,3.68855068 L11.0689767,3.68855068 C10.0101223,4.43776986 9.26151068,5.54583836 8.94562718,6.79372877 L1.71415146,6.79372877 L1.34911262,5.75678356 Z M82.133899,35.2737562 L81.4384718,32.348811 L72.4962291,18.5185644 L75.9814233,9.43256438 C76.347268,8.47724932 76.0636175,7.39908493 75.2747146,6.74927671 L68.0400155,0.793509589 C67.6193748,0.445975342 67.0867243,0.255235616 66.5403748,0.255235616 L8.58300583,0.255235616 C8.2502,0.255235616 7.92706408,0.323934247 7.62326796,0.458906849 L1.40149126,3.23109863 C0.283005825,3.73057808 -0.274625243,5.0293863 0.13312233,6.18756438 L4.53856893,18.7028384 C4.87218058,19.6484548 5.76825825,20.2837151 6.76828738,20.2837151 L17.4591709,20.2837151 L29.5038408,34.347537 L29.8221417,35.6851397 L15.9418019,50.0593178 L14.0086272,50.8093452 C12.022268,51.5803863 10.975501,53.7779342 11.6258019,55.8122219 L11.7482874,56.1937014 C12.2809379,57.8602493 13.848268,58.9998384 15.586433,58.9998384 C15.6259184,58.9998384 15.6654039,58.9990301 15.7048893,58.9982219 C16.8822,58.9626603 17.9821515,58.4154959 18.7210932,57.4957425 C19.4608408,56.5751808 19.7606078,55.3822493 19.5454524,54.2200301 L19.256967,52.6617836 L32.2734621,39.4013315 C32.684433,39.5621671 33.1155495,39.6518795 33.5547243,39.6518795 C33.8311223,39.6518795 34.1083262,39.6195507 34.3831126,39.5540849 C36.2832485,39.0990575 37.4605592,37.1787288 37.0076854,35.2737562 L36.3122583,32.348811 L28.5110641,20.2837151 L62.5853845,20.2837151 L74.6300544,34.347537 L74.9483553,35.6851397 L61.0680155,50.0593178 L59.1348408,50.8093452 C57.1484816,51.5803863 56.1017146,53.7779342 56.7520155,55.8122219 L56.874501,56.1937014 C57.4071515,57.8602493 58.9744816,58.9998384 60.7126466,58.9998384 C60.752132,58.9998384 60.7916175,58.9990301 60.8311029,58.9982219 C62.0084136,58.9626603 63.108365,58.4154959 63.8473068,57.4957425 C64.5870544,56.5751808 64.8868214,55.3822493 64.671666,54.2200301 L64.3831806,52.6617836 L77.3996757,39.4013315 C77.8106466,39.5621671 78.2417631,39.6518795 78.6809379,39.6518795 C78.9573359,39.6518795 79.2345398,39.6195507 79.5093262,39.5540849 C81.4094621,39.0990575 82.5867728,37.1787288 82.133899,35.2737562 L82.133899,35.2737562 Z" id="Fill-1" stroke="#FFD986" stroke-width="0.5" fill="#FFD986" mask="url(#mask-4)"></path>
                    </g>
                    <path d="M14.5,6 C13.672,6 13,6.672 13,7.5 C13,8.328 13.672,9 14.5,9 C15.328,9 16,8.328 16,7.5 C16,6.672 15.328,6 14.5,6" id="Fill-4" fill="#FFD986"></path>
                    <path d="M59.5,6 C58.672,6 58,6.672 58,7.5 C58,8.328 58.672,9 59.5,9 C60.328,9 61,8.328 61,7.5 C61,6.672 60.328,6 59.5,6" id="Fill-6" fill="#FFD986"></path>
                </g>
            </g>
        </g>
    </g>
</svg>