<?xml version="1.0" encoding="UTF-8"?>
<svg width="432px" height="134px" viewBox="0 0 432 134" version="1.1" xmlns="http://www.w3.org/2000/svg" xmlns:xlink="http://www.w3.org/1999/xlink">
    <title>mdpi/image_02</title>
    <defs>
        <polygon id="path-1" points="0 0.3158 102.045502 0.3158 102.045502 72.9998 0 72.9998"></polygon>
    </defs>
    <g id="Remote_SPOT" stroke="none" stroke-width="1" fill="none" fill-rule="evenodd">
        <g id="RSS_0003_Spot-연결-팝업" transform="translate(-950.000000, -204.000000)">
            <g id="popup_02" transform="translate(934.000000, 178.000000)">
                <g id="image_02" transform="translate(16.000000, 25.000000)">
                    <g transform="translate(70.000000, 67.000000)">
                        <line x1="0.4434" y1="67" x2="292.4434" y2="67" id="Stroke-1" stroke="#454545" stroke-width="2" stroke-linecap="round"></line>
                        <polygon id="Fill-3" fill="#FFFFFF" points="70.3637 56.4944 73.4547 65.5194 55.4907 65.5194 58.5807 56.4944 56.4667 56.4944 52.6917 67.5194 76.2537 67.5194 72.4777 56.4944"></polygon>
                        <polygon id="Fill-4" fill="#FFFFFF" points="57.1514 54.4941 56.4664 56.4941 58.5814 56.4941 70.3634 56.4941 72.4774 56.4941 71.7924 54.4941"></polygon>
                        <g id="Group-32" transform="translate(21.000000, 0.000000)">
                            <path d="M83.9957,44.915 L83.9957,45.057 L83.9097,45.057 L2.9717,45.057 L2.9487,45.057 L2.9487,45.021 L2.9487,6.085 C2.9487,4.22 4.4657,2.702 6.3307,2.702 L80.6127,2.702 C82.4777,2.702 83.9957,4.22 83.9957,6.085 L83.9957,44.915 Z M83.9957,51.11 C83.9957,52.977 82.4777,54.494 80.6127,54.494 L50.7927,54.494 L36.1517,54.494 L6.3307,54.494 C4.4657,54.494 2.9487,52.977 2.9487,51.11 L2.9487,47.057 L83.9957,47.057 L83.9957,51.11 Z M80.6127,0.702 L6.3307,0.702 C3.3637,0.702 0.9487,3.117 0.9487,6.085 L0.9487,51.11 C0.9487,54.079 3.3637,56.494 6.3307,56.494 L35.4667,56.494 L37.5807,56.494 L49.3637,56.494 L51.4777,56.494 L80.6127,56.494 C83.5807,56.494 85.9957,54.079 85.9957,51.11 L85.9957,6.085 C85.9957,3.117 83.5807,0.702 80.6127,0.702 L80.6127,0.702 Z" id="Fill-5" fill="#FFFFFF"></path>
                            <path d="M42.8282,32.4551 C42.6572,32.6761 42.4012,32.7921 42.1422,32.7921 C41.9582,32.7921 41.7732,32.7331 41.6162,32.6131 C41.2382,32.3221 41.1662,31.7791 41.4572,31.4001 L45.7222,25.8481 L37.3332,25.8481 L42.4352,17.4771 C42.6842,17.0691 43.2152,16.9371 43.6232,17.1881 C44.0302,17.4371 44.1592,17.9691 43.9112,18.3771 L40.4102,24.1191 L49.2272,24.1191 L42.8282,32.4551 Z M80.6132,2.7021 L6.3312,2.7021 C4.4662,2.7021 2.9492,4.2201 2.9492,6.0851 L2.9492,45.0211 C2.9552,45.0331 2.9642,45.0451 2.9722,45.0571 L83.9102,45.0571 C83.9372,45.0091 83.9702,44.9651 83.9952,44.9151 L83.9952,6.0851 C83.9952,4.2201 82.4782,2.7021 80.6132,2.7021 L80.6132,2.7021 Z" id="Fill-7" fill="#212124"></path>
                            <path d="M43.9112,18.377 C44.1592,17.969 44.0302,17.438 43.6232,17.189 C43.2152,16.938 42.6842,17.069 42.4352,17.478 L37.3332,25.848 L45.7222,25.848 L41.4572,31.4 C41.1662,31.779 41.2382,32.322 41.6162,32.613 C41.7732,32.733 41.9582,32.792 42.1422,32.792 C42.4012,32.792 42.6572,32.676 42.8282,32.455 L49.2272,24.119 L40.4102,24.119 L43.9112,18.377 Z" id="Fill-9" fill="#FFFFFF"></path>
                        </g>
                    </g>
                    <g id="Group-8" transform="translate(252.000000, 59.000000)">
                        <g id="Group-3" transform="translate(0.000000, 0.684600)">
                            <mask id="mask-2" fill="white">
                                <use xlink:href="#path-1"></use>
                            </mask>
                            <g id="Clip-2"></g>
                            <path d="M98.2972,47.3828 C97.9812,47.4588 97.6612,47.4678 97.3462,47.4348 C96.9402,47.3908 96.5442,47.2658 96.1842,47.0448 C96.0402,46.9558 95.9082,46.8528 95.7852,46.7418 C95.3632,46.3648 95.0632,45.8728 94.9292,45.3118 L94.7682,44.6348 L94.3282,42.7888 L94.0802,41.7498 L79.7762,25.0968 L78.4012,23.4968 L69.7262,13.3978 C68.7872,12.3048 68.3502,10.8578 68.5272,9.4278 C68.7052,7.9968 69.4822,6.7008 70.6592,5.8698 C71.8092,5.0608 73.2022,4.7598 74.5842,5.0268 C75.9652,5.2918 77.1482,6.0888 77.9132,7.2698 L88.1272,23.0188 L89.0122,24.3838 L99.5702,40.6628 L100.3692,44.0148 C100.7262,45.5138 99.7972,47.0258 98.2972,47.3828 L98.2972,47.3828 Z M78.1712,64.6308 L78.6822,67.3788 C78.8642,68.3568 78.6102,69.3608 77.9862,70.1338 C77.3622,70.9078 76.4352,71.3688 75.4412,71.3988 C73.9242,71.4248 72.5622,70.4728 72.1022,69.0388 L71.9512,68.5678 C71.4022,66.8568 72.2852,65.0068 73.9612,64.3588 L76.6882,63.3028 L93.4722,45.9728 C93.7032,46.7078 94.0992,47.3688 94.6582,47.8868 L78.1712,64.6308 Z M42.7402,23.4968 L44.3012,19.4338 C44.8712,17.9528 46.2632,16.9778 47.8472,16.9478 L70.3822,16.6168 L76.2922,23.4968 L42.7402,23.4968 Z M34.3442,23.4968 L25.5952,10.0058 L53.3962,10.0058 C55.1032,10.0058 56.6732,9.1478 57.5942,7.7098 L61.3112,1.9148 L82.5742,1.9148 C82.8822,1.9148 83.1822,2.0228 83.4202,2.2178 L92.3982,9.5868 C92.8422,9.9528 93.0032,10.5598 92.7972,11.0968 L88.8902,21.2538 L79.2562,6.3988 C78.2512,4.8498 76.7002,3.8048 74.8872,3.4548 C73.0732,3.1068 71.2452,3.4978 69.7362,4.5638 L69.7362,4.5638 C68.1922,5.6538 67.1722,7.3548 66.9402,9.2308 C66.7072,11.1078 67.2802,13.0058 68.5122,14.4408 L69.0252,15.0368 L47.8202,15.3488 C45.5792,15.3898 43.6122,16.7688 42.8082,18.8598 L41.0262,23.4968 L34.3442,23.4968 Z M43.5702,40.6628 L44.3692,44.0148 C44.7262,45.5138 43.7972,47.0258 42.2972,47.3828 C41.9802,47.4578 41.6602,47.4678 41.3462,47.4348 C40.9402,47.3908 40.5442,47.2658 40.1842,47.0448 C40.0402,46.9558 39.9082,46.8528 39.7852,46.7418 C39.3632,46.3648 39.0632,45.8728 38.9292,45.3118 L38.7682,44.6348 L38.3282,42.7888 L38.0802,41.7498 L23.7762,25.0968 L22.4012,23.4968 L13.7262,13.3978 C12.9142,12.4518 12.4792,11.2408 12.4909582,10.0058 C12.4932,9.8138 12.5042,9.6198 12.5272,9.4278 C12.5712,9.0768 12.6522,8.7358 12.7652,8.4058 C13.1112,7.3908 13.7702,6.4978 14.6592,5.8698 C15.8092,5.0608 17.2022,4.7598 18.5842,5.0268 C19.9652,5.2918 21.1482,6.0888 21.9132,7.2698 L22.6512,8.4058 L23.6882,10.0058 L32.4372,23.4968 L33.4752,25.0968 L43.5702,40.6628 Z M22.1712,64.6308 L22.6822,67.3788 C22.8642,68.3568 22.6102,69.3608 21.9862,70.1338 C21.3622,70.9078 20.4352,71.3688 19.4412,71.3988 C17.9352,71.4248 16.5622,70.4728 16.1022,69.0388 L15.9512,68.5678 C15.4022,66.8568 16.2852,65.0068 17.9612,64.3588 L20.6882,63.3028 L37.4722,45.9728 C37.7032,46.7078 38.0992,47.3688 38.6582,47.8868 L22.1712,64.6308 Z M8.3992,23.4968 C7.8352,23.4968 7.3292,23.1398 7.1412,22.6078 L2.6922,10.0058 L10.8922,10.0058 C10.8812,11.6208 11.4502,13.2028 12.5122,14.4408 L20.2922,23.4968 L8.3992,23.4968 Z M1.6742,7.1228 C1.4442,6.4718 1.7582,5.7408 2.3892,5.4608 L10.1092,2.0298 C10.2802,1.9538 10.4632,1.9148 10.6512,1.9148 L59.4112,1.9148 L56.2482,6.8468 C55.6222,7.8228 54.5552,8.4058 53.3962,8.4058 L24.5582,8.4058 L23.2562,6.3988 C22.2512,4.8498 20.7002,3.8048 18.8872,3.4548 C17.0742,3.1068 15.2452,3.4978 13.7362,4.5638 L13.7362,4.5638 C12.4222,5.4908 11.4932,6.8618 11.1012,8.4058 L2.1272,8.4058 L1.6742,7.1228 Z M101.9252,43.6438 L101.0622,40.0248 L89.9652,22.9128 L94.2902,11.6708 C94.7442,10.4888 94.3922,9.1548 93.4132,8.3508 L84.4352,0.9818 C83.9132,0.5518 83.2522,0.3158 82.5742,0.3158 L10.6512,0.3158 C10.2382,0.3158 9.8372,0.4008 9.4602,0.5678 L1.7392,3.9978 C0.3512,4.6158 -0.3408,6.2228 0.1652,7.6558 L5.6322,23.1408 C6.0462,24.3108 7.1582,25.0968 8.3992,25.0968 L21.6662,25.0968 L36.6132,42.4978 L37.0082,44.1528 L19.7832,61.9378 L17.3842,62.8658 C14.9192,63.8198 13.6202,66.5388 14.4272,69.0558 L14.5792,69.5278 C15.2402,71.5898 17.1852,72.9998 19.3422,72.9998 C19.3912,72.9998 19.4402,72.9988 19.4892,72.9978 C20.9502,72.9538 22.3152,72.2768 23.2322,71.1388 C24.1502,69.9998 24.5222,68.5238 24.2552,67.0858 L23.8972,65.1578 L40.0502,48.7508 C40.5602,48.9498 41.0952,49.0608 41.6402,49.0608 C41.9832,49.0608 42.3272,49.0208 42.6682,48.9398 C45.0262,48.3768 46.4872,46.0008 45.9252,43.6438 L45.0622,40.0248 L35.3812,25.0968 L77.6662,25.0968 L92.6132,42.4978 L93.0082,44.1528 L75.7832,61.9378 L73.3842,62.8658 C70.9192,63.8198 69.6202,66.5388 70.4272,69.0558 L70.5792,69.5278 C71.2402,71.5898 73.1852,72.9998 75.3422,72.9998 C75.3912,72.9998 75.4402,72.9988 75.4892,72.9978 C76.9502,72.9538 78.3152,72.2768 79.2322,71.1388 C80.1502,69.9998 80.5222,68.5238 80.2552,67.0858 L79.8972,65.1578 L96.0502,48.7508 C96.5602,48.9498 97.0952,49.0608 97.6402,49.0608 C97.9832,49.0608 98.3272,49.0208 98.6682,48.9398 C101.0262,48.3768 102.4872,46.0008 101.9252,43.6438 L101.9252,43.6438 Z" id="Fill-1" fill="#FFD986" mask="url(#mask-2)"></path>
                        </g>
                        <path d="M17.6854,8.8907 C16.5814,8.8907 15.6854,9.7867 15.6854,10.8907 C15.6854,11.9947 16.5814,12.8907 17.6854,12.8907 C18.7894,12.8907 19.6854,11.9947 19.6854,10.8907 C19.6854,9.7867 18.7894,8.8907 17.6854,8.8907" id="Fill-4" fill="#FFD986"></path>
                        <path d="M73.6854,8.8907 C72.5814,8.8907 71.6854,9.7867 71.6854,10.8907 C71.6854,11.9947 72.5814,12.8907 73.6854,12.8907 C74.7894,12.8907 75.6854,11.9947 75.6854,10.8907 C75.6854,9.7867 74.7894,8.8907 73.6854,8.8907" id="Fill-6" fill="#FFD986"></path>
                    </g>
                </g>
            </g>
        </g>
    </g>
</svg>