<?xml version="1.0" encoding="UTF-8"?>
<svg width="56px" height="56px" viewBox="0 0 56 56" version="1.1" xmlns="http://www.w3.org/2000/svg" xmlns:xlink="http://www.w3.org/1999/xlink">
    <title>88728629-BCC1-492D-9798-733238D82B1F@3x</title>
    <g id="Remote_Spot" stroke="none" stroke-width="1" fill="none" fill-rule="evenodd" opacity="0.9">
        <g id="RSS_0005_Spot-연결_카메라-출력안될경우" transform="translate(-795.000000, -199.000000)">
            <g id="camera" transform="translate(359.000000, 52.000000)">
                <g id="front" transform="translate(332.000000, 0.000000)">
                    <g id="noact_ic_videocam" transform="translate(104.000000, 147.000000)">
                        <polygon points="0 0 54.2564103 0 54.2564103 54.2564103 0 54.2564103"></polygon>
                        <path d="M46.2184236,17.0807217 L38.1804368,25.1187085 L38.1804368,18.0854701 C38.1804368,16.9802469 37.2761633,16.0759734 36.1709402,16.0759734 L23.7522507,16.0759734 L46.2184236,38.5421462 L46.2184236,17.0807217 Z M10.5900475,8.0379867 L8.0379867,10.5900475 L13.5239126,16.0759734 L12.0569801,16.0759734 C10.9517569,16.0759734 10.0474834,16.9802469 10.0474834,18.0854701 L10.0474834,38.1804368 C10.0474834,39.28566 10.9517569,40.1899335 12.0569801,40.1899335 L36.1709402,40.1899335 C36.5929345,40.1899335 36.9546439,40.0291738 37.2560684,39.8282241 L43.6663628,46.2184236 L46.2184236,43.6663628 L10.5900475,8.0379867 Z" id="ic_videocam_off" fill="#FFFFFF" fill-rule="nonzero" opacity="0.100000001"></path>
                    </g>
                </g>
            </g>
        </g>
    </g>
</svg>