<?xml version="1.0" encoding="UTF-8"?>
<svg width="96px" height="96px" viewBox="0 0 96 96" version="1.1" xmlns="http://www.w3.org/2000/svg" xmlns:xlink="http://www.w3.org/1999/xlink">
    <title>F6995CC1-5F9A-44EC-A84D-98E3D15975E7@1x</title>
    <defs>
        <polygon id="path-1" points="0.196739795 0.240570111 11.5487107 0.240570111 11.5487107 12.9951424 0.196739795 12.9951424"></polygon>
        <polygon id="path-3" points="0.10004071 0.0597340115 7.54565869 0.0597340115 7.54565869 15.6639869 0.10004071 15.6639869"></polygon>
    </defs>
    <g id="워크스테이션" stroke="none" stroke-width="1" fill="none" fill-rule="evenodd">
        <g id="[구축형]-CLG_0020-_커스덤-로고-설정-적용" transform="translate(-473.000000, -324.000000)">
            <g id="Group-6" transform="translate(374.000000, 110.000000)">
                <g id="Group-11" transform="translate(30.000000, 154.000000)">
                    <g id="Google-Chrome-Desktop" transform="translate(0.000000, 36.000000)">
                        <g id="BI" transform="translate(67.000000, 0.000000)">
                            <rect id="tr" x="2" y="24" width="96" height="96"></rect>
                            <g id="bi" transform="translate(11.000000, 28.000000)">
                                <g id="logotype" transform="translate(0.000000, 70.299517)">
                                    <path d="M40.4581409,4.73043478 C38.8300875,4.73043478 37.5226489,5.43050807 36.5663879,6.81283568 C36.259879,6.20397126 35.8120174,5.71168504 35.2313254,5.34715163 C34.5759898,4.93791983 33.8098643,4.73043478 32.9526384,4.73043478 C32.2652707,4.73043478 31.5670297,4.92825532 30.8767233,5.31997018 C30.3007333,5.64765763 29.8422923,6.04782894 29.5113919,6.51474581 L29.5113919,5.11097505 L27.174812,5.11097505 L27.174812,17.1478261 L29.6039617,17.1478261 L29.6039617,10.4778009 C29.6039617,9.54970544 29.8734428,8.73244992 30.4056458,8.05019558 C30.9366733,7.36763923 31.5726133,7.03632759 32.3501998,7.03632759 C33.2097768,7.03632759 33.8263212,7.26223562 34.1807314,7.70589724 C34.5424883,8.16073347 34.7264525,8.92483416 34.7264525,9.97796425 L34.7264525,17.1478261 L37.1556022,17.1478261 L37.1556022,10.4778009 C37.1556022,9.54879939 37.4259649,8.73244992 37.9581679,8.05019558 C38.4889015,7.36763923 39.1248415,7.03632759 39.9018403,7.03632759 C40.7614172,7.03632759 41.3776678,7.26223562 41.7323718,7.70589724 C42.0947166,8.15982742 42.2786807,8.92483416 42.2786807,9.97796425 L42.2786807,17.1478261 L44.7069488,17.1478261 L44.7069488,9.64484051 C44.7069488,8.08945767 44.3360818,6.87052076 43.6043394,6.02004346 C42.867895,5.16382786 41.8096603,4.73043478 40.4581409,4.73043478" id="Fill-1" fill="#FFFFFF"></path>
                                    <path d="M54.7756021,13.8083071 C54.1501869,14.4924682 53.3644015,14.8111347 52.3037778,14.8111347 C51.2425802,14.8111347 50.456508,14.4924682 49.8319535,13.8083071 C49.1678085,13.0820302 48.8307154,12.1166061 48.8307154,10.9388359 C48.8307154,9.77667506 49.1678085,8.81920295 49.8313797,8.09292604 C50.4725737,7.39286108 51.258359,7.06653715 52.3037778,7.06653715 C53.3491965,7.06653715 54.1349819,7.39286108 54.7756021,8.09292604 C55.4397471,8.81920295 55.7768401,9.77667506 55.7768401,10.9388359 C55.7768401,12.1166061 55.4397471,13.0820302 54.7756021,13.8083071 M52.3037778,4.73043478 C50.6277799,4.73043478 49.2157187,5.32329586 48.1057503,6.49399769 C47.013282,7.66175435 46.4601625,9.15730753 46.4601625,10.9388359 C46.4601625,12.7212479 47.013282,14.216801 48.1066109,15.3845577 C49.2157187,16.554376 50.6277799,17.1478261 52.3037778,17.1478261 C53.9797756,17.1478261 55.3849515,16.554376 56.4782805,15.3851467 C57.5868145,14.2329994 58.1482537,12.7368572 58.1482537,10.9388359 C58.1482537,9.15730753 57.5868145,7.66175435 56.4797149,6.49399769 C55.3849515,5.32329586 53.9797756,4.73043478 52.3037778,4.73043478" id="Fill-3" fill="#FFFFFF"></path>
                                    <g id="Group-7" transform="translate(65.745513, 4.730435)">
                                        <mask id="mask-2" fill="white">
                                            <use xlink:href="#path-1"></use>
                                        </mask>
                                        <g id="Clip-6"></g>
                                        <path d="M2.85928697,5.14817618 C3.06002994,4.35071288 3.42031535,3.70723624 3.90683214,3.2770417 C4.4523738,2.7951149 5.11421196,2.55036991 5.87276908,2.55036991 C6.7978815,2.55036991 7.54328952,2.80630843 8.08824677,3.31092481 C8.57564017,3.76169124 8.88858881,4.40940328 8.97917152,5.14817618 L2.85928697,5.14817618 Z M11.5487984,6.87530742 C11.5487984,4.79663887 11.0219577,3.10066799 10.0237947,1.97133169 C9.00956056,0.822331082 7.62773598,0.240570111 5.91864484,0.240570111 C4.25484506,0.240570111 2.86922185,0.854399029 1.80151472,2.06662795 C0.751631925,3.25737739 0.196739795,4.86258993 0.196739795,6.7086146 C0.196739795,8.50230196 0.736729608,9.96562896 1.84885149,11.1826983 C2.94753206,12.3852463 4.3632521,12.9951424 6.05627211,12.9951424 C7.21485415,12.9951424 8.26707456,12.7071359 9.18458972,12.1389887 C9.91860185,11.6848945 10.6181341,10.9927109 11.1055275,10.2394166 L11.1759483,10.1292965 L9.44640297,8.47598204 L9.34968401,8.62603583 C8.53619286,9.89604756 7.39923379,10.5954919 6.14948464,10.5954919 C5.12122482,10.5954919 4.34864199,10.3041576 3.71777727,9.67943765 C3.04892625,9.01659923 2.72049089,8.26814544 2.66468025,7.2667784 L11.5116887,7.2667784 L11.5487984,6.87530742 Z" id="Fill-5" fill="#FFFFFF" mask="url(#mask-2)"></path>
                                    </g>
                                    <path d="M16.9226425,9.50830295 C17.1189833,8.73280505 17.4713679,8.10545582 17.9477872,7.68663394 L17.948073,7.68663394 C18.4807939,7.21744741 19.1278326,6.97917251 19.869755,6.97917251 C20.7748661,6.97917251 21.5042136,7.22834502 22.0369345,7.71962132 C22.5139254,8.15847125 22.8202971,8.78906031 22.908036,9.50830295 L16.9226425,9.50830295 Z M19.9151964,4.73043478 C18.2875969,4.73043478 16.9326453,5.32803647 15.8877807,6.50821879 C14.8609212,7.66807854 14.3179117,9.23115007 14.3179117,11.0274895 C14.3179117,12.7737588 14.8466315,14.1984011 15.934651,15.3832959 C17.0086666,16.5540533 18.3933408,17.1478261 20.0500913,17.1478261 C21.182409,17.1478261 22.2115549,16.8674334 23.1095211,16.3143058 C23.8274368,15.872216 24.5122004,15.1974474 24.9880481,14.4640673 L25.0569246,14.3577419 L23.3653072,12.7481346 L23.270995,12.8942216 C22.4750574,14.1306592 21.3630311,14.8116129 20.1401166,14.8116129 C19.1349775,14.8116129 18.3796227,14.5279804 17.7625924,13.9197756 C17.1175543,13.2830014 16.7877475,12.5340112 16.7320176,11.5708976 L25.3847309,11.5708976 L25.4215984,11.1897756 C25.4215984,9.16517532 24.9060251,7.51403927 23.9306086,6.4154418 C22.9374728,5.29681627 21.5868082,4.73043478 19.9151964,4.73043478 L19.9151964,4.73043478 Z" id="Fill-8" fill="#FFFFFF"></path>
                                    <g id="Group-12" transform="translate(58.148254, 1.773913)">
                                        <mask id="mask-4" fill="white">
                                            <use xlink:href="#path-3"></use>
                                        </mask>
                                        <g id="Clip-11"></g>
                                        <path d="M4.67115967,0.0597340115 L4.37851324,0.0597340115 L2.23091999,1.40984919 L2.16011354,1.455335 L2.16011354,3.53141572 L0.10004071,3.53141572 L0.10004071,5.83131071 L2.16011354,5.83131071 L2.16011354,12.1866722 C2.17621973,13.2698971 2.51931195,14.1302115 3.17875406,14.7423119 C3.80476822,15.3236868 4.61706719,15.6240136 5.66153839,15.6616674 C5.70195581,15.6631736 5.74298101,15.6640772 5.78552566,15.6640772 C6.31338324,15.6640772 7.05396407,15.5625626 7.44172819,15.4315273 L7.54565869,15.3965845 L7.54565869,12.9885478 L7.32898486,13.0837366 C7.17734356,13.150911 7.03481898,13.197903 6.89290218,13.2283273 L6.89229439,13.2283273 C6.65130933,13.2804402 6.1821026,13.3217087 6.01040454,13.3144792 C5.62932601,13.2961042 5.34154183,13.1795279 5.07715721,12.9382423 C4.80821423,12.6930407 4.67115967,12.2002275 4.67115967,11.4724546 L4.67115967,5.83131071 L7.54565869,5.83131071 L7.54565869,3.53141572 L4.67115967,3.53141572 L4.67115967,0.0597340115 Z" id="Fill-10" fill="#FFFFFF" mask="url(#mask-4)"></path>
                                    </g>
                                    <path d="M2.73019344,8.57704509 L2.73019344,2.37379581 L7.85375901,2.37379581 C9.53579984,2.37379581 10.9039614,3.76532101 10.9039614,5.47542045 C10.9039614,7.1855199 9.53579984,8.57704509 7.85375901,8.57704509 L2.73019344,8.57704509 Z M12.2166807,8.82074843 C12.9515102,7.85727011 13.3396058,6.70020126 13.3396058,5.47542045 C13.3396058,4.25093794 12.9515102,3.0935708 12.2166807,2.13009247 C11.1890928,0.775853596 9.63583052,0 7.95496307,0 L0.29220228,0 L0.292495625,17.1478261 L2.73019344,17.1478261 L2.73019344,10.9502443 L6.57741447,10.9502443 L11.1753056,17.0845885 L11.2198941,17.1478261 L14.3179117,17.1478261 L9.4932648,10.7199641 C10.5701347,10.393336 11.5305465,9.72486695 12.2166807,8.82074843 L12.2166807,8.82074843 Z" id="Fill-13" fill="#FFFFFF"></path>
                                </g>
                                <g id="Group-5" transform="translate(10.363441, 0.000000)">
                                    <polygon id="Fill-1" fill="#207FF4" points="0.00126790222 25.9256415 -0.000140878024 48.9992098 19.7847688 60.535638 47.7624401 44.1877376 47.7631444 34.5206578 19.7847688 50.9411681 19.7847688 50.951846 8.222205 44.201263 8.222205 30.7243002 8.22290939 30.7243002 27.9838698 19.1949906 19.7727942 14.3899252"></polygon>
                                    <polygon id="Fill-2" fill="#7DB3F6" points="19.7729351 14.3896405 39.5402351 25.9502719 39.5515053 25.9438652 47.7625809 30.7346934 47.7625809 44.1838936 47.7506063 44.1903003 36.203539 50.927358 16.4404654 39.3339809 8.21741515 44.2002664 36.2007215 60.5246753 55.9729522 48.9882471 55.9863356 25.9374584 27.9910546 9.59382923"></polygon>
                                    <polygon id="Fill-3" fill="#C0D8FF" points="27.9908433 7.11861545e-05 8.21790822 11.5364994 8.21790822 44.1988427 16.4402541 48.9975013 16.4402541 16.3344462 16.4388453 16.3337343 16.4402541 16.3337343 27.9901389 9.59525295 39.5400237 16.3344462 39.5400237 39.3460825 47.763074 34.5203731 47.763074 11.5364994"></polygon>
                                    <polygon id="Fill-4" fill="#207FF4" points="0.00126790222 25.9256415 -0.000140878024 25.9249297 -0.000140878024 25.9263534 8.222205 30.7243002 8.22290939 30.7243002 27.9838698 19.1949906 19.7727942 14.3899252"></polygon>
                                </g>
                            </g>
                        </g>
                    </g>
                </g>
            </g>
        </g>
    </g>
</svg>