<?xml version="1.0" encoding="UTF-8"?>
<svg width="194px" height="44px" viewBox="0 0 194 44" version="1.1" xmlns="http://www.w3.org/2000/svg" xmlns:xlink="http://www.w3.org/1999/xlink">
    <title>18098467-AE09-4593-8817-B07223806DC0@1x</title>
    <defs>
        <polygon id="path-1" points="0 0 490 0 490 140 0 140"></polygon>
    </defs>
    <g id="워크스테이션" stroke="none" stroke-width="1" fill="none" fill-rule="evenodd">
        <g id="[구축형]-CLG_0020-_커스덤-로고-설정-적용" transform="translate(-424.000000, -548.000000)">
            <g id="Group-6" transform="translate(374.000000, 110.000000)">
                <g id="Group-11-Copy" transform="translate(30.000000, 352.000000)">
                    <g id="Group-8" transform="translate(0.000000, 38.000000)">
                        <mask id="mask-2" fill="white">
                            <use xlink:href="#path-1"></use>
                        </mask>
                        <path stroke-opacity="0.8" stroke="#E2E7ED" d="M490.5,-0.5 L490.5,140.5 L-0.5,140.5 L-0.5,-0.5 L490.5,-0.5 Z"></path>
                        <rect id="bg" fill="#242427" mask="url(#mask-2)" transform="translate(117.000000, 70.000000) scale(1, -1) translate(-117.000000, -70.000000) " x="10" y="10" width="214" height="120"></rect>
                        <rect id="Logo_area" stroke="#1468E2" stroke-width="2" mask="url(#mask-2)" transform="translate(117.000000, 70.000000) scale(1, -1) translate(-117.000000, -70.000000) " x="19" y="47" width="196" height="46"></rect>
                        <g id="Logo" mask="url(#mask-2)">
                            <g transform="translate(20.000000, 48.000000)">
                                <g id="img_logo_symbol">
                                    <g id="logo" transform="translate(2.000000, 1.000000)">
                                        <g id="Group"></g>
                                        <polygon id="Fill-13" fill="#1F7FFA" points="13.9674317 41.6559726 33.718041 30.4060366 33.718041 23.7528247 13.9674317 35.0529189 13.9674317 35.0607213 5.80467634 30.4160683 5.80467634 21.142367 19.7551353 13.208448 13.9583796 9.90246269 0.00113151586 17.8397255 -1.77635684e-14 17.8397255 -1.77635684e-14 17.8408402 -1.77635684e-14 17.8408402 -1.77635684e-14 17.8408402 -1.77635684e-14 33.7164805 13.9674317 41.654858"></polygon>
                                        <polygon id="Fill-16" fill="#7EBAFC" points="39.5227173 17.8481967 19.7596614 6.60160464 13.9583796 9.90201684 27.9133646 17.8571137 27.9212852 17.8526552 33.718041 21.1486089 33.718041 30.4033615 33.7089888 30.4089347 25.5575486 35.0446707 11.6059581 27.0661666 5.80128179 30.4145078 25.5552856 41.648839 39.5136652 33.7093469"></polygon>
                                        <polygon id="Fill-18" fill="#C7DEFF" points="19.7597745 4.61852778e-14 5.80139494 7.93837747 5.80252646 7.9394921 5.80139494 7.93837747 5.80139494 30.4137276 11.6060713 33.7152544 11.6060713 11.2399043 11.6049398 11.2387897 11.6060713 11.2399043 19.7597745 6.60305366 27.9134778 11.2399043 27.9134778 27.0743034 33.7181541 23.7538279 33.7181541 7.93837747"></polygon>
                                        <polygon id="Fill-20" fill="#1F7FFA" points="5.80478949 21.1420326 5.80478949 21.1420326 19.7552485 13.2081136 13.9584927 9.90212831 0.00124466744 17.8393912 0.000113151586 17.8393912 0.000113151586 17.8405058 0.000113151586 17.8405058 0.000113151586 17.8405058"></polygon>
                                    </g>
                                    <rect id="tr" x="0" y="0" width="44" height="44"></rect>
                                </g>
                                <g id="img_logotype_symbol" transform="translate(54.000000, 0.000000)">
                                    <path d="M92.250503,15.1149888 C95.1592351,15.1149888 97.5988535,16.1809351 99.4979712,18.2851253 C101.420884,20.3832931 102.394239,23.0716459 102.394239,26.2730984 C102.394239,29.5034578 101.420884,32.1942195 99.4957049,34.2646848 C97.5988535,36.3652616 95.1592351,37.4312079 92.250503,37.4312079 C89.3406377,37.4312079 86.8896881,36.3652616 84.9645085,34.2634804 C83.066524,32.1641081 82.106767,29.4757552 82.106767,26.2730984 C82.106767,23.0716459 83.066524,20.3832931 84.9633754,18.2851253 C86.8896881,16.1809351 89.3406377,15.1149888 92.250503,15.1149888 Z M126.310475,15.1149888 C129.212784,15.1149888 131.557435,16.1328117 133.280082,18.1431625 C134.974507,20.1185821 135.868568,23.0865297 135.868568,26.7241927 L135.868568,26.7241927 L135.80648,27.4083624 L120.785813,27.4083624 C120.880638,29.160945 121.438297,30.4702628 122.573934,31.6302196 C123.644097,32.7239275 124.955838,33.2334412 126.70219,33.2334412 C128.824455,33.2334412 130.753684,32.0084402 132.135414,29.7872976 L132.135414,29.7872976 L132.299099,29.5247113 L135.236404,32.4167738 L135.115615,32.6107022 C134.289287,33.9272471 133.100593,35.1389984 131.855455,35.9339844 C130.297623,36.9277168 128.51176,37.4312079 126.544149,37.4312079 C123.670061,37.4312079 121.266709,36.365204 119.399568,34.2609003 C117.513236,32.1313016 116.595469,29.5704832 116.595469,26.4326978 C116.595469,23.202164 117.538071,20.3932137 119.320547,18.3093869 C121.133503,16.1894243 123.486056,15.1149888 126.310475,15.1149888 Z M37.0472866,15.1149888 C39.9482976,15.1149888 42.2928112,16.1328117 44.0153571,18.1431625 C45.7085542,20.1173776 46.6036911,23.0853252 46.6036911,26.7241927 L46.6036911,26.7241927 L46.5416072,27.4083624 L31.52182,27.4083624 C31.6188966,29.1404681 32.1911973,30.4859216 33.310965,31.6302196 C34.3810655,32.7239275 35.6916001,33.2334412 37.4367219,33.2334412 C39.5599911,33.2334412 41.4902358,32.0084402 42.8718847,29.7872976 L42.8718847,29.7872976 L43.0355604,29.5247113 L45.9715642,32.4167738 L45.8519116,32.6094977 C45.0256314,33.9260426 43.837007,35.1389984 42.5919427,35.9339844 C41.0330726,36.9277168 39.2461852,37.4312079 37.2809478,37.4312079 C34.4058991,37.4312079 32.0015592,36.365204 30.1367848,34.2609003 C28.2494344,32.1313016 27.3305927,29.5704832 27.3305927,26.4326978 C27.3305927,23.2033685 28.2731391,20.3944182 30.0555113,18.3093869 C31.8694898,16.1894243 34.221905,15.1149888 37.0472866,15.1149888 Z M110.881457,10.0431208 L110.881457,16.1355114 L115.581096,16.1355114 L115.581096,20.1730436 L110.881457,20.1730436 L110.881457,30.0743815 C110.881457,31.3520511 111.105303,32.2170647 111.546212,32.6477669 C111.978077,33.0712506 112.44838,33.275774 113.071305,33.3082571 C113.352809,33.3202879 114.118182,33.2469001 114.51387,33.1566692 C114.745629,33.1025307 114.97852,33.0207213 115.227238,32.9028196 L115.227238,32.9028196 L115.581096,32.7355917 L115.581096,36.9620072 L115.411515,37.0233642 C114.777285,37.2531523 113.56648,37.4312079 112.702751,37.4312079 C112.633788,37.4312079 112.565956,37.4300048 112.501515,37.4275987 C110.793275,37.3614294 109.464895,36.8344809 108.44176,35.813067 C107.364359,34.7387177 106.802482,33.2288539 106.77648,31.3279896 L106.77648,31.3279896 L106.77648,20.1730436 L103.408613,20.1730436 L103.408613,16.1355114 L106.77648,16.1355114 L106.77648,12.4925891 L106.892925,12.4131859 L110.40324,10.0431208 L110.881457,10.0431208 Z M71.6885644,15.1149888 C74.0343372,15.1149888 75.8717238,15.8577474 77.1496535,17.3267589 C78.4194582,18.7863385 79.0636462,20.8778525 79.0636462,23.5447096 L79.0636462,23.5447096 L79.0636462,36.4168343 L74.8491479,36.4168343 L74.8491479,24.1176948 C74.8491479,22.3114945 74.528795,20.9981086 73.8996961,20.2188016 C73.2845256,19.4583582 72.2143611,19.0704732 70.7228628,19.0704732 C69.3741305,19.0704732 68.2703057,19.6399214 67.3498713,20.8094715 C66.4259549,21.9802006 65.9570324,23.3808311 65.9570324,24.9748147 L65.9570324,24.9748147 L65.9570324,36.4168343 L61.7402128,36.4168343 L61.7402128,24.1176948 C61.7402128,22.3114945 61.4198598,20.9992876 60.7919216,20.2188016 C60.1767511,19.4583582 59.1065866,19.0704732 57.6150883,19.0704732 C56.2651953,19.0704732 55.1613705,19.6399214 54.2409361,20.8094715 C53.3170197,21.9802006 52.849258,23.3820101 52.849258,24.9748147 L52.849258,24.9748147 L52.849258,36.4168343 L48.6324383,36.4168343 L48.6324383,15.7681448 L52.6879208,15.7681448 L52.6879208,18.1768049 C53.2624668,17.3750971 54.0587064,16.6877507 55.0580683,16.1253763 C56.2559097,15.4545356 57.4676795,15.1149888 58.6608782,15.1149888 C60.1488944,15.1149888 61.4778948,15.4710413 62.6165406,16.1725356 C63.6240273,16.798575 64.4016957,17.643905 64.9332959,18.687304 C66.5930955,16.3163714 68.8622622,15.1149888 71.6885644,15.1149888 Z M17.300981,7 C20.2172327,7 22.9133462,8.33204791 24.6976242,10.6549811 C25.973267,12.3072329 26.6475851,14.2924966 26.6475851,16.3930337 C26.6475851,18.4935708 25.973267,20.4788345 24.6976242,22.1310862 C23.5065607,23.6820371 21.8404622,24.8301134 19.9704462,25.3890146 L19.9704462,25.3890146 L28.3449663,36.4168343 L22.9678014,36.4168343 L22.8901738,36.3073828 L14.9095851,25.784903 L8.2312877,25.784903 L8.2312877,36.4168343 L4.00115862,36.4168343 L4,7 Z M92.250503,19.3125289 C90.4352366,19.3125289 89.0709539,19.900305 87.9582251,21.1577603 C86.80697,22.4633941 86.2222774,24.1833617 86.2222774,26.2730984 C86.2222774,28.3905375 86.80697,30.1249587 87.9593582,31.429388 C89.0437589,32.6591408 90.4080416,33.2324633 92.250503,33.2324633 C94.0906982,33.2324633 95.4549808,32.6591408 96.5405147,31.429388 C97.694036,30.1249587 98.2775954,28.3905375 98.2775954,26.2730984 C98.2775954,24.1833617 97.694036,22.4633941 96.5405147,21.1577603 C95.4289189,19.900305 94.0635032,19.3125289 92.250503,19.3125289 Z M126.232583,19.1573719 C124.944549,19.1573719 123.821329,19.5849779 122.894532,20.4281449 C122.069332,21.1797679 121.457487,22.3072026 121.11657,23.7020415 L121.11657,23.7020415 L131.506636,23.7020415 C131.351982,22.4095871 130.821416,21.2761299 129.993958,20.4871665 C129.069419,19.6042503 127.803962,19.1573719 126.232583,19.1573719 Z M36.9671419,19.1573719 C35.6803121,19.1573719 34.557158,19.5849779 33.6315436,20.4281449 C32.8052634,21.1797679 32.1934549,22.3084071 31.8525578,23.7020415 L31.8525578,23.7020415 L42.2420153,23.7020415 C42.0884988,22.4095871 41.5579637,21.2761299 40.7294259,20.4871665 C39.8049403,19.6042503 38.5395576,19.1573719 36.9671419,19.1573719 Z M17.1248705,11.0718283 L8.2312877,11.0718283 L8.2312877,21.7142391 L17.1248705,21.7142391 C20.044598,21.7142391 22.4197732,19.3261007 22.4197732,16.3930337 C22.4197732,13.4588022 20.044598,11.0718283 17.1248705,11.0718283 L17.1248705,11.0718283 Z" id="remote" fill="#FFFFFF"></path>
                                    <rect id="tr" x="0" y="0" width="140" height="44"></rect>
                                </g>
                            </g>
                        </g>
                    </g>
                </g>
            </g>
        </g>
    </g>
</svg>