<svg xmlns="http://www.w3.org/2000/svg" width="32" height="32" viewBox="0 0 32 32">
    <g fill="none" fill-rule="evenodd">
        <path fill="#207FF4" d="M6.534 18L14.94 13.139 14.94 10.264 6.533 15.147 6.533 15.15 3.059 13.143 3.059 9.136 8.997 5.708 6.53 4.279 0.589 7.709 0.588 7.708 0.588 7.709 0.588 14.569 6.533 18z" transform="translate(7 7)"/>
        <path fill="#7DB3F6" d="M17.412 7.712L8.999 2.852 6.53 4.278 12.47 7.716 12.474 7.714 14.94 9.138 14.94 13.137 14.937 13.139 11.468 15.143 5.528 11.695 3.058 13.142 11.466 17.996 17.408 14.566z" transform="translate(7 7)"/>
        <path fill="#C0D8FF" d="M8.999 0L3.058 3.43 3.059 3.431 3.058 3.43 3.058 13.142 5.528 14.569 5.528 4.857 5.528 4.856 5.528 4.857 8.999 2.853 12.47 4.857 12.47 11.699 14.94 10.264 14.94 3.43z" transform="translate(7 7)"/>
        <path fill="#207FF4" d="M3.06 9.136L3.06 9.136 8.997 5.708 6.531 4.279 0.589 7.709 0.588 7.709 0.588 7.709z" transform="translate(7 7)"/>
    </g>
</svg>
