<svg xmlns="http://www.w3.org/2000/svg" width="32" height="32" viewBox="0 0 32 32">
    <g fill="none" fill-rule="evenodd">
        <path fill="#6FB6FB" d="M7.795 0L5.62 1.255 11.733 7.368 11.745 2.281z" transform="translate(8 7)"/>
        <path fill="#007CF7" d="M11.732 10.629L15.588 6.605 15.588 4.499 11.743 2.28z" transform="translate(8 7)"/>
        <path fill="#0065C7" d="M3.836 15.715L7.794 18 9.972 16.742 3.856 10.632z" transform="translate(8 7)"/>
        <path fill="#BFDCFF" d="M0.001 4.499L0.001 5.061 9.425 5.061 5.62 1.255z" transform="translate(8 7)"/>
        <path fill="#DEEDFF" d="M0.001 5.062L0.001 11.223 6.163 5.062z" transform="translate(8 7)"/>
        <path fill="#007CF7" d="M0 11.223L0 13.499 3.75 15.664 3.853 15.725 3.856 7.368z" transform="translate(8 7)"/>
        <path fill="#6FB6FB" d="M6.163 12.938L9.972 16.741 15.588 13.5 15.588 12.938z" transform="translate(8 7)"/>
        <g>
            <path fill="#007CF7" d="M2.76.548C1.425.548.344 1.63.344 2.963S1.425 5.378 2.76 5.378c1.333 0 2.415-1.08 2.415-2.415C5.175 1.63 4.093.548 2.76.548" transform="translate(8 7) translate(5 6)"/>
            <path fill="#FFF" d="M3.978 1.052c-.383 0-.692.311-.692.693 0 .383.309.692.692.692.383 0 .692-.309.692-.692 0-.382-.31-.693-.692-.693" transform="translate(8 7) translate(5 6)"/>
            <path fill="#BFDCFF" d="M4.425 6.938L6.732 4.63 10.588 0.606 10.588 6.938z" transform="translate(8 7) translate(5 6)"/>
        </g>
    </g>
</svg>
