<?xml version="1.0" encoding="UTF-8"?>
<svg width="50px" height="51px" viewBox="0 0 50 51" version="1.1" xmlns="http://www.w3.org/2000/svg" xmlns:xlink="http://www.w3.org/1999/xlink">
    <title>10394FE5-B6CB-4152-A9A6-0EDBA4DE4786@1x</title>
    <defs>
        <path d="M28.6672816,16 L18.8490998,16 C17.9490998,16 17.2127361,16.7363636 17.2127361,17.6363636 L17.2127361,29.0909091 L18.8490998,29.0909091 L18.8490998,17.6363636 L28.6672816,17.6363636 L28.6672816,16 Z M31.1509002,19.2727273 L22.1509002,19.2727273 C21.2509002,19.2727273 20.5145366,20.0090909 20.5145366,20.9090909 L20.5145366,32.3636364 C20.5145366,33.2636364 21.2509002,34 22.1509002,34 L31.1509002,34 C32.0509002,34 32.7872639,33.2636364 32.7872639,32.3636364 L32.7872639,20.9090909 C32.7872639,20.0090909 32.0509002,19.2727273 31.1509002,19.2727273 Z M31.121827,20.9090909 L31.121827,32.3636364 L22.121827,32.3636364 L22.121827,20.9090909 L31.121827,20.9090909 Z M28.386526,23.7436541 L26.6509002,25.4792798 L24.9152745,23.7436541 L23.7581907,24.9007379 L25.4938164,26.6363636 L23.7581907,28.3719894 L24.9152745,29.5290732 L26.6509002,27.7934475 L28.386526,29.5290732 L29.5436098,28.3719894 L27.8079841,26.6363636 L29.5436098,24.9007379 L28.386526,23.7436541 Z" id="path-1"></path>
    </defs>
    <g id="Remote_Cowork_Leader" stroke="none" stroke-width="1" fill="none" fill-rule="evenodd">
        <g id="RWS_0120_접속-화면-협업-보드_이미지-영역(리더)" transform="translate(-1069.000000, -69.000000)">
            <g id="edit-tool" transform="translate(644.000000, 70.000000)">
                <g id="ic_delete_sweep_white_48px" transform="translate(425.000000, 0.000000)">
                    <polygon id="Shape" points="0 0 50 0 50 50 0 50"></polygon>
                    <mask id="mask-2" fill="white">
                        <use xlink:href="#path-1"></use>
                    </mask>
                    <use id="icon/content/copy_24px" fill="#A8A8AA" fill-rule="nonzero" xlink:href="#path-1"></use>
                </g>
            </g>
        </g>
    </g>
</svg>