<svg xmlns="http://www.w3.org/2000/svg" width="50" height="50" viewBox="0 0 50 50">
    <g fill="none" fill-rule="evenodd">
        <path d="M0 0h50v50H0z" opacity=".01"/>
        <g fill="#FFF" fill-rule="nonzero">
            <path d="M16.5 15H22v1.5h-5.5V22H15v-7h1.5zM16.5 35H22v-1.5h-5.5V28H15v7h1.5zM33.5 15H28v1.5h5.5V22H35v-7h-1.5zM33.5 35H28v-1.5h5.5V28H35v7h-1.5z"/>
            <path stroke="#FFF" stroke-width=".3" d="M20.36 25.692h2.28l-.329-1.022c-.283-.827-.533-1.673-.794-2.53h-.045c-.238.867-.5 1.703-.772 2.53l-.34 1.022zm3.3 3.108l-.703-2.168h-2.904L19.34 28.8H18l2.768-7.6h1.52l2.768 7.6h-1.395zm3.41-6.64v2.613h1.259c1.214 0 1.871-.455 1.871-1.374s-.657-1.239-1.871-1.239h-1.26zm4.73 6.64h-1.486l-1.895-3.067h-1.35V28.8h-1.315v-7.6h2.734c1.724 0 3.017.558 3.017 2.2 0 1.177-.692 1.879-1.747 2.178L31.8 28.8z"/>
        </g>
    </g>
</svg>
