<?xml version="1.0" encoding="UTF-8"?>
<svg width="16px" height="16px" viewBox="0 0 16 16" version="1.1" xmlns="http://www.w3.org/2000/svg" xmlns:xlink="http://www.w3.org/1999/xlink">
    <title>CB08810B-FF10-4B41-B2B1-A64E006723BE@2x</title>
    <g id="Remote_Main" stroke="none" stroke-width="1" fill="none" fill-rule="evenodd">
        <g id="RWS_0006-_접속-전-화면_상단-컨텐츠_원격-협업-방-생성-_그룹-선택" transform="translate(-1045.000000, -361.000000)" fill-rule="nonzero">
            <g id="makegroup" transform="translate(411.000000, 114.000000)">
                <g id="memberList" transform="translate(406.000000, 103.000000)">
                    <g id="Dropdown_list" transform="translate(215.000000, 42.000000)">
                        <g id="01-copy-2" transform="translate(0.000000, 90.000000)">
                            <g id="icon_check_s_off" transform="translate(13.000000, 12.000000)">
                                <rect id="tr" x="0" y="0" width="16" height="16"></rect>
                                <path d="M8,1 C11.8659932,1 15,4.13400675 15,8 C15,11.8659932 11.8659932,15 8,15 C4.13400675,15 1,11.8659932 1,8 C1,4.13400675 4.13400675,1 8,1 Z M8,2.5 C4.96243388,2.5 2.5,4.96243388 2.5,8 C2.5,11.0375661 4.96243388,13.5 8,13.5 C11.0375661,13.5 13.5,11.0375661 13.5,8 C13.5,4.96243388 11.0375661,2.5 8,2.5 Z M10.9393398,4.93933983 L12,6 L7,11 L4,8 L5.06066017,6.93933983 L7,8.87833983 L10.9393398,4.93933983 Z" id="shape" fill="#757575"></path>
                            </g>
                        </g>
                    </g>
                </g>
            </g>
        </g>
    </g>
</svg>