<?xml version="1.0" encoding="UTF-8"?>
<svg width="20px" height="20px" viewBox="0 0 20 20" version="1.1" xmlns="http://www.w3.org/2000/svg" xmlns:xlink="http://www.w3.org/1999/xlink">
    <title>CCB63379-8A24-4FFD-A827-95C91BBAEEA2@1.00x</title>
    <g id="내역관리" stroke="none" stroke-width="1" fill="none" fill-rule="evenodd">
        <g id="05_내역관리-페이지_팝업_녹화내역다운_2" transform="translate(-1318.000000, -239.000000)">
            <g id="popup" transform="translate(550.000000, 217.000000)">
                <g id="ic_close" transform="translate(768.000000, 22.000000)">
                    <polygon points="0 0 20 0 20 20 0 20"></polygon>
                    <path d="M15.24375,4.75208333 C14.91875,4.42708333 14.39375,4.42708333 14.06875,4.75208333 L9.99375,8.81875 L5.91875,4.74375 C5.59375,4.41875 5.06875,4.41875 4.74375,4.74375 C4.41875,5.06875 4.41875,5.59375 4.74375,5.91875 L8.81875,9.99375 L4.74375,14.06875 C4.41875,14.39375 4.41875,14.91875 4.74375,15.24375 C5.06875,15.56875 5.59375,15.56875 5.91875,15.24375 L9.99375,11.16875 L14.06875,15.24375 C14.39375,15.56875 14.91875,15.56875 15.24375,15.24375 C15.56875,14.91875 15.56875,14.39375 15.24375,14.06875 L11.16875,9.99375 L15.24375,5.91875 C15.5604167,5.60208333 15.5604167,5.06875 15.24375,4.75208333 Z" id="Path" fill="#0D2A58" fill-rule="nonzero"></path>
                </g>
            </g>
        </g>
    </g>
</svg>