<?xml version="1.0" encoding="UTF-8"?>
<svg width="24px" height="24px" viewBox="0 0 24 24" version="1.1" xmlns="http://www.w3.org/2000/svg" xmlns:xlink="http://www.w3.org/1999/xlink">
    <title>5A5E491A-4FC5-49DD-944D-72AADB0252DC@2x</title>
    <defs>
        <path d="M20.0464466,4.93844661 L19.0615534,3.95355339 C18.8662912,3.75829124 18.5497088,3.75829124 18.3544466,3.95355339 L12,10.308 L12,10.308 L5.64555339,3.95355339 C5.45029124,3.75829124 5.13370876,3.75829124 4.93844661,3.95355339 L3.95355339,4.93844661 C3.75829124,5.13370876 3.75829124,5.45029124 3.95355339,5.64555339 L10.308,12 L10.308,12 L3.95355339,18.3544466 C3.75829124,18.5497088 3.75829124,18.8662912 3.95355339,19.0615534 L4.93844661,20.0464466 C5.13370876,20.2417088 5.45029124,20.2417088 5.64555339,20.0464466 L12,13.692 L12,13.692 L18.3544466,20.0464466 C18.5497088,20.2417088 18.8662912,20.2417088 19.0615534,20.0464466 L20.0464466,19.0615534 C20.2417088,18.8662912 20.2417088,18.5497088 20.0464466,18.3544466 L13.692,12 L13.692,12 L20.0464466,5.64555339 C20.2417088,5.45029124 20.2417088,5.13370876 20.0464466,4.93844661 Z" id="path-1"></path>
    </defs>
    <g id="Remote_Main_Mobile" stroke="none" stroke-width="1" fill="none" fill-rule="evenodd">
        <g id="Icon" transform="translate(-854.000000, -410.000000)">
            <g id="24-x-24" transform="translate(36.000000, 346.000000)">
                <g id="ic_main_cancle" transform="translate(800.000000, 46.000000)">
                    <rect id="tr" x="18" y="18" width="24" height="24"></rect>
                    <g id="icon-/-20px-/-ic_clear_20" transform="translate(18.000000, 18.000000)">
                        <mask id="mask-2" fill="white">
                            <use xlink:href="#path-1"></use>
                        </mask>
                        <g id="shape" fill-rule="nonzero"></g>
                        <rect id="🎨-Color" fill="#FFFFFF" mask="url(#mask-2)" x="-16.8" y="-16.8" width="57.6" height="57.6"></rect>
                    </g>
                </g>
            </g>
        </g>
    </g>
</svg>