<?xml version="1.0" encoding="UTF-8"?>
<svg width="24px" height="24px" viewBox="0 0 24 24" version="1.1" xmlns="http://www.w3.org/2000/svg" xmlns:xlink="http://www.w3.org/1999/xlink">
    <title>B7033F8A-53A1-46BB-AD1F-2F7F8326EABD@1x</title>
    <g id="Design_v-2.2" stroke="none" stroke-width="1" fill="none" fill-rule="evenodd">
        <g id="RAS_0130-_협업-내역_로컬-녹화-리스트-" transform="translate(-506.000000, -383.000000)">
            <g id="popup" transform="translate(434.000000, 203.000000)">
                <g id="listup" transform="translate(49.000000, 164.000000)">
                    <g id="ic_all_select" transform="translate(23.000000, 16.000000)">
                        <rect id="tr" x="0" y="0" width="24" height="24"></rect>
                        <path d="M17.3045654,8.19232177 C17.6707763,8.5585327 17.6707763,9.15216066 17.3045654,9.5181885 L11.0152588,15.8076782 C10.6490479,16.173706 10.055603,16.173706 9.68939208,15.8076782 L6.69543459,12.8135376 C6.32922366,12.4475098 6.32922366,11.8538818 6.69543459,11.487854 C7.06146239,11.1216431 7.65509034,11.1216431 8.02111819,11.487854 L10.3522339,13.8189697 L15.9786987,8.19232177 C16.3449097,7.82629397 16.9385376,7.82629397 17.3045654,8.19232177 L17.3045654,8.19232177 Z M24,12 C24,18.6329956 18.6320801,24 12,24 C5.36700441,24 0,18.6320801 0,12 C0,5.36700441 5.36791992,0 12,0 C18.6329956,0 24,5.36791992 24,12 Z M22.125,12 C22.125,6.40338136 17.5958862,1.875 12,1.875 C6.40338136,1.875 1.875,6.40411378 1.875,12 C1.875,17.5966186 6.40411378,22.125 12,22.125 C17.5966186,22.125 22.125,17.5958862 22.125,12 Z" id="ic_check" fill="#A6ADB8"></path>
                    </g>
                </g>
            </g>
        </g>
    </g>
</svg>