<?xml version="1.0" encoding="UTF-8"?>
<svg width="22px" height="22px" viewBox="0 0 22 22" version="1.1" xmlns="http://www.w3.org/2000/svg" xmlns:xlink="http://www.w3.org/1999/xlink">
    <!-- Generator: sketchtool 64 (101010) - https://sketch.com -->
    <title>8083D8A8-4FC8-421E-BDA9-E17E39042389@1.00x</title>
    <desc>Created with sketchtool.</desc>
    <g id="-" stroke="none" stroke-width="1" fill="none" fill-rule="evenodd">
        <g id="리소스-파일모음" transform="translate(-329.000000, -144.000000)">
            <g id="delete-2" transform="translate(329.000000, 144.000000)">
                <rect id="tr" x="0" y="0" width="22" height="22"></rect>
                <g id="ico-/-24-/-ui-/-delete" fill="#FFFFFF" fill-rule="nonzero">
                    <path d="M16.5,5.38541667 L16.5,6.07291667 C16.5,6.26276455 16.3460979,6.41666667 16.15625,6.41666667 L5.84375,6.41666667 C5.65390212,6.41666667 5.5,6.26276455 5.5,6.07291667 L5.5,5.38541667 C5.5,5.19556878 5.65390212,5.04166667 5.84375,5.04166667 L8.9375,5.04166667 L8.9375,4.35416667 C8.9375,3.9744709 9.24530423,3.66666667 9.625,3.66666667 L12.375,3.66666667 C12.7546958,3.66666667 13.0625,3.9744709 13.0625,4.35416667 L13.0625,5.04166667 L16.15625,5.04166667 C16.3460979,5.04166667 16.5,5.19556878 16.5,5.38541667 Z M6.18357143,16.9936866 C6.24143618,17.7496129 6.92832769,18.3351876 7.755,18.3333333 L14.2607143,18.3333333 C15.0873866,18.3351876 15.7742781,17.7496129 15.8321429,16.9936866 L16.5,8.25 L5.5,8.25 L6.18357143,16.9936866 Z" id="Icon-color"></path>
                </g>
            </g>
        </g>
    </g>
</svg>