<?xml version="1.0" encoding="UTF-8"?>
<svg width="22px" height="22px" viewBox="0 0 22 22" version="1.1" xmlns="http://www.w3.org/2000/svg" xmlns:xlink="http://www.w3.org/1999/xlink">
    <title>55278F35-C253-4AA2-A1F9-FECCF5353996@1.00x</title>
    <defs>
        <path d="M17.2222222,11 L17.2222222,17.2222222 L4.77777778,17.2222222 L4.77777778,11 L3,11 L3,17.2222222 C3,18.2 3.8,19 4.77777778,19 L17.2222222,19 C18.2,19 19,18.2 19,17.2222222 L19,11 L17.2222222,11 Z M11.8888889,11.5955556 L14.1911111,9.30222222 L15.4444444,10.5555556 L11,15 L6.55555556,10.5555556 L7.80888889,9.30222222 L10.1111111,11.5955556 L10.1111111,3 L11.8888889,3 L11.8888889,11.5955556 Z" id="path-1"></path>
    </defs>
    <g id="내역관리" stroke="none" stroke-width="1" fill="none" fill-rule="evenodd">
        <g id="05_내역관리-페이지_팝업_녹화내역다운_2" transform="translate(-1089.000000, -310.000000)">
            <g id="popup" transform="translate(550.000000, 217.000000)">
                <g id="Group" transform="translate(30.000000, 84.000000)">
                    <g id="Group-2" transform="translate(491.000000, 0.000000)">
                        <g id="ic_download" transform="translate(18.000000, 9.000000)">
                            <rect id="tr" x="0" y="0" width="22" height="22"></rect>
                            <mask id="mask-2" fill="white">
                                <use xlink:href="#path-1"></use>
                            </mask>
                            <use id="icon/content/save_alt_24px" fill="#FFFFFF" fill-rule="nonzero" xlink:href="#path-1"></use>
                        </g>
                    </g>
                </g>
            </g>
        </g>
    </g>
</svg>