<?xml version="1.0" encoding="UTF-8"?>
<svg width="22px" height="22px" viewBox="0 0 22 22" version="1.1" xmlns="http://www.w3.org/2000/svg" xmlns:xlink="http://www.w3.org/1999/xlink">
    <title>4BAB4AD9-1E9A-4F3A-80FE-280D3D72FF99@1x</title>
    <g id="Design_v-2.2" stroke="none" stroke-width="1" fill="none" fill-rule="evenodd">
        <g id="RAS_0120-_협업-내역_서버-녹화-리스트-" transform="translate(-1792.000000, -496.000000)" fill-rule="nonzero">
            <g id="btn_alldel" transform="translate(1782.000000, 487.000000)">
                <g id="ic_del" transform="translate(10.000000, 9.000000)">
                    <rect id="tr" x="0" y="0" width="22" height="22"></rect>
                    <g id="delete" transform="translate(5.000000, 3.000000)" fill="#A3ADC0">
                        <path d="M11.5,2.38541667 L11.5,3.07291667 C11.5,3.26276455 11.3460979,3.41666667 11.15625,3.41666667 L0.84375,3.41666667 C0.653902117,3.41666667 0.5,3.26276455 0.5,3.07291667 L0.5,2.38541667 C0.5,2.19556878 0.653902117,2.04166667 0.84375,2.04166667 L3.9375,2.04166667 L3.9375,1.35416667 C3.9375,0.974470901 4.24530423,0.666666667 4.625,0.666666667 L7.375,0.666666667 C7.75469577,0.666666667 8.0625,0.974470901 8.0625,1.35416667 L8.0625,2.04166667 L11.15625,2.04166667 C11.3460979,2.04166667 11.5,2.19556878 11.5,2.38541667 Z M1.18357143,13.9936866 C1.24143618,14.7496129 1.92832769,15.3351876 2.755,15.3333333 L9.26071429,15.3333333 C10.0873866,15.3351876 10.7742781,14.7496129 10.8321429,13.9936866 L11.5,5.25 L0.5,5.25 L1.18357143,13.9936866 Z" id="Icon-color"></path>
                    </g>
                </g>
            </g>
        </g>
    </g>
</svg>