<?xml version="1.0" encoding="UTF-8"?>
<svg width="22px" height="22px" viewBox="0 0 22 22" version="1.1" xmlns="http://www.w3.org/2000/svg" xmlns:xlink="http://www.w3.org/1999/xlink">
    <title>183C6C27-E152-49F1-AD61-794D200E5410@1.00x</title>
    <g id="내역관리" stroke="none" stroke-width="1" fill="none" fill-rule="evenodd">
        <g id="04_내역관리-페이지_팝업_녹화내역다운_1" transform="translate(-1243.000000, -310.000000)" fill-rule="nonzero">
            <g id="popup" transform="translate(550.000000, 217.000000)">
                <g id="Group" transform="translate(30.000000, 84.000000)">
                    <g id="Group-2" transform="translate(491.000000, 0.000000)">
                        <g id="btn_alldel" transform="translate(154.000000, 0.000000)">
                            <g id="ic_del" transform="translate(18.000000, 9.000000)">
                                <rect id="tr" x="0" y="0" width="22" height="22"></rect>
                                <g id="delete" transform="translate(5.000000, 3.000000)" fill="#757F91">
                                    <path d="M11.5,2.38541667 L11.5,3.07291667 C11.5,3.26276455 11.3460979,3.41666667 11.15625,3.41666667 L0.84375,3.41666667 C0.653902117,3.41666667 0.5,3.26276455 0.5,3.07291667 L0.5,2.38541667 C0.5,2.19556878 0.653902117,2.04166667 0.84375,2.04166667 L3.9375,2.04166667 L3.9375,1.35416667 C3.9375,0.974470901 4.24530423,0.666666667 4.625,0.666666667 L7.375,0.666666667 C7.75469577,0.666666667 8.0625,0.974470901 8.0625,1.35416667 L8.0625,2.04166667 L11.15625,2.04166667 C11.3460979,2.04166667 11.5,2.19556878 11.5,2.38541667 Z M1.18357143,13.9936866 C1.24143618,14.7496129 1.92832769,15.3351876 2.755,15.3333333 L9.26071429,15.3333333 C10.0873866,15.3351876 10.7742781,14.7496129 10.8321429,13.9936866 L11.5,5.25 L0.5,5.25 L1.18357143,13.9936866 Z" id="Icon-color"></path>
                                </g>
                            </g>
                        </g>
                    </g>
                </g>
            </g>
        </g>
    </g>
</svg>