<?xml version="1.0" encoding="UTF-8"?>
<svg width="24px" height="25px" viewBox="0 0 24 25" version="1.1" xmlns="http://www.w3.org/2000/svg" xmlns:xlink="http://www.w3.org/1999/xlink">
    <title>D15D29BD-9B48-4B9A-8BAB-A909399D82F5@1x</title>
    <defs>
        <path d="M7.70939111,3.78502764 C8.89360024,3.77350798 9.90295295,4.64008492 10.0696807,5.81793369 C10.1615058,6.51298352 10.3317985,7.19543208 10.5766458,7.85049041 C10.9007372,8.71121131 10.693449,9.68152061 10.0427,10.338464 L9.4787541,10.9014573 C10.4034871,12.349701 11.6344819,13.5786157 13.0851768,14.501786 L13.6522384,13.9356921 C14.3071732,13.2891401 15.2791244,13.0822021 16.1395275,13.4050826 C16.7974686,13.6501797 17.4810719,13.8201847 18.1843246,13.9128121 C19.3669973,14.0793764 20.2378289,15.1017624 20.213566,16.2927584 L20.2135596,18.6361129 C20.2162561,19.2993053 19.9387575,19.932901 19.4492377,20.3812431 C18.9597178,20.8295852 18.3035443,21.0511224 17.6277537,20.9900218 C15.0854825,20.7142499 12.643452,19.8469998 10.5039999,18.4618767 C8.50639632,17.1946605 6.81277716,15.5039024 5.5471396,13.515466 C4.1508893,11.3637904 3.28197431,8.91402931 3.00958325,6.35240042 C2.94997927,5.69393919 3.17033664,5.04078656 3.61682716,4.55249257 C4.06331767,4.06419858 4.69482572,3.78572837 5.35782913,3.78502764 L7.70939111,3.78502764 Z M7.71713092,5.35527686 L5.35856974,5.35527686 C5.13781547,5.3555234 4.92731279,5.44834681 4.77848261,5.61111147 C4.62965244,5.77387613 4.55619998,5.99159368 4.57486238,6.19883379 C4.81995978,8.50296493 5.60528506,10.7170588 6.87093885,12.6675356 C8.01645927,14.4672057 9.5448473,15.9930118 11.353681,17.140518 C13.2928472,18.3959359 15.4999541,19.1797565 17.7834917,19.4275918 C18.0040329,19.4474895 18.2227574,19.3736438 18.3859307,19.2241964 C18.549104,19.0747491 18.6416035,18.8635505 18.6406982,18.6392997 L18.6406982,16.2839834 C18.6508453,15.8659865 18.3600113,15.5233145 17.9716337,15.4685843 C17.157802,15.3614294 16.358725,15.1627074 15.5878711,14.8755454 C15.3004786,14.7676974 14.9764949,14.8366768 14.7613036,15.0490965 L13.7625325,16.0461803 C13.5122004,16.2960896 13.1254601,16.3482109 12.8177098,16.1735148 C10.7257818,14.9860211 8.99369657,13.2568619 7.80419348,11.1684678 C7.62920179,10.8612374 7.68141126,10.4751505 7.93174341,10.2252412 L8.9274116,9.23127237 C9.14329365,9.01332957 9.2123897,8.68989314 9.10369475,8.40121494 C8.81671132,7.63343444 8.61765301,6.83570741 8.51130466,6.03046884 C8.45605801,5.64025869 8.11960711,5.35139971 7.71713092,5.35527686 Z M20.2135661,3 C20.2186401,3 20.2237029,3.00004797 20.228754,3.00014348 C20.252582,3.00059553 20.2766116,3.00214418 20.3005429,3.00478731 C20.3168623,3.00654153 20.3329386,3.00881831 20.348851,3.01157252 C20.3656158,3.01453616 20.3826605,3.01806614 20.3995955,3.02216447 C20.4179906,3.02655835 20.4357569,3.03154755 20.4532568,3.03713185 C20.4686435,3.04207189 20.48433,3.04761013 20.4998628,3.05365994 C20.521025,3.06191734 20.5414646,3.07094056 20.5614254,3.08078456 C20.5730758,3.0864686 20.5850246,3.09272944 20.5968392,3.0993181 C20.6151963,3.10963891 20.6329781,3.12052348 20.6502754,3.13207478 C20.6924015,3.16012884 20.732432,3.19278808 20.7696588,3.22995205 L20.6884162,3.15921656 C20.7750568,3.22482915 20.8476549,3.30795959 20.900917,3.4033235 C20.9074384,3.4148927 20.9135391,3.42651521 20.9193282,3.43825209 C20.9289394,3.45776084 20.9379779,3.47816589 20.94615,3.49900469 C20.9523093,3.51479886 20.9578569,3.53045891 20.9628921,3.54624652 C20.9683991,3.56328993 20.9733967,3.58102624 20.9777744,3.59900471 C20.9819033,3.61629658 20.9854392,3.63331257 20.9884059,3.65040779 C20.9960282,3.69392656 21,3.73905293 21,3.7851054 L20.9955315,3.70127752 C20.997565,3.72029357 20.9989045,3.73936958 20.9995499,3.75846462 L21,3.7851054 L21,8.49573783 C21,8.92933957 20.6479015,9.28084323 20.2135661,9.28084323 C19.7792306,9.28084323 19.4271321,8.92933957 19.4271321,8.49573783 L19.4271321,8.49573783 L19.427,5.68 L15.2646213,9.83599659 C14.9854199,10.1147263 14.5485153,10.1400654 14.2406406,9.91201379 L14.1524358,9.83599659 C13.8453142,9.52939386 13.8453142,9.03229261 14.1524358,8.72568988 L14.1524358,8.72568988 L18.314,4.57 L15.4949625,4.57021081 C15.0968216,4.57021081 14.7677827,4.27485009 14.7157078,3.89163956 L14.7085286,3.7851054 C14.7085286,3.35150366 15.060627,3 15.4949625,3 L15.4949625,3 Z" id="path-1"></path>
    </defs>
    <g id="Remote_Main_Mobile" stroke="none" stroke-width="1" fill="none" fill-rule="evenodd">
        <g id="Icon" transform="translate(-1014.000000, -409.000000)">
            <g id="24-x-24" transform="translate(36.000000, 346.000000)">
                <g id="ic_main_collabo" transform="translate(960.000000, 46.000000)">
                    <g transform="translate(18.000000, 17.500000)">
                        <rect id="Rectangle" x="0" y="0" width="24" height="24"></rect>
                        <mask id="mask-2" fill="white">
                            <use xlink:href="#path-1"></use>
                        </mask>
                        <use id="Combined-Shape" fill="#FFFFFF" fill-rule="nonzero" xlink:href="#path-1"></use>
                    </g>
                </g>
            </g>
        </g>
    </g>
</svg>