<?xml version="1.0" encoding="UTF-8"?>
<svg width="24px" height="25px" viewBox="0 0 24 25" version="1.1" xmlns="http://www.w3.org/2000/svg" xmlns:xlink="http://www.w3.org/1999/xlink">
    <title>BA267CF5-1631-497A-87DE-3E93AAD90AB9@1x</title>
    <g id="Remote_Main_Mobile" stroke="none" stroke-width="1" fill="none" fill-rule="evenodd">
        <g id="Icon" transform="translate(-934.000000, -409.000000)">
            <g id="24-x-24" transform="translate(36.000000, 346.000000)">
                <g id="ic_main_openroom" transform="translate(880.000000, 46.000000)">
                    <g transform="translate(18.000000, 17.500000)">
                        <rect id="Rectangle" x="0" y="0" width="24" height="24"></rect>
                        <path d="M13.2209553,2.58047117 C14.3671917,1.24164191 16.4724569,2.41002823 16.0372812,4.14343289 L14.6192652,9.78338962 L16.9667509,10.7583232 C18.0234889,11.1972138 18.3404282,12.5905848 17.5850288,13.4734792 L10.7790447,21.4195288 C9.63280827,22.7583581 7.52754306,21.5899718 7.96271879,19.8565671 L9.38073479,14.2166104 L7.03324913,13.2416768 C5.97651109,12.8036384 5.65957179,11.4094152 6.41497116,10.5265208 L13.2209553,2.58047117 Z M14.4476582,3.71306447 L7.64249514,11.6591141 L11.3349201,13.1922483 L9.55234182,20.2869355 L16.3575049,12.3408859 L12.6650799,10.8077517 L14.4476582,3.71306447 L14.4476582,3.71306447 Z" id="Fill-1170" fill="#FFFFFF"></path>
                    </g>
                </g>
            </g>
        </g>
    </g>
</svg>