<?xml version="1.0" encoding="UTF-8"?>
<svg width="28px" height="28px" viewBox="0 0 28 28" version="1.1" xmlns="http://www.w3.org/2000/svg" xmlns:xlink="http://www.w3.org/1999/xlink">
    <!-- Generator: sketchtool 64 (101010) - https://sketch.com -->
    <title>2446D32E-35A7-4762-807A-B5294FBB73DE@1.00x</title>
    <desc>Created with sketchtool.</desc>
    <g id="-" stroke="none" stroke-width="1" fill="none" fill-rule="evenodd">
        <g id="리소스-파일모음" transform="translate(-440.000000, -141.000000)">
            <g id="hololens" transform="translate(440.000000, 141.000000)">
                <g id="icon_hololens">
                    <circle id="Oval" fill="#454C54" cx="14" cy="14" r="14"></circle>
                    <path d="M16.1964286,12 L12.8035714,12 C12.3598214,12 12,11.5522222 12,11 C12,10.4477778 12.3598214,10 12.8035714,10 L16.1964286,10 C16.6401786,10 17,10.4477778 17,11 C17,11.5522222 16.6401786,12 16.1964286,12 M22.6854369,10.6155301 C20.864466,9.05836166 15.7655728,8.98077471 14,9.00266719 C12.2344272,8.98077471 7.13553398,9.05836166 5.31456311,10.6155301 C5.10904854,10.7911953 5,11.0551311 5,11.3257221 L5,14.7882369 C5,14.9297499 5.01380583,15.0702121 5.04421359,15.2083974 C5.23417476,16.0713115 6.14221359,19 9.7184466,19 L10.7669903,19 C10.7669903,19 11.4660194,19 12.1650485,18.4745805 L13.038835,17.4237414 C13.038835,17.4237414 13.2135922,17.0734617 13.9126214,17.0734617 L14.0873786,17.0734617 C14.7864078,17.0734617 14.961165,17.4237414 14.961165,17.4237414 L15.8349515,18.4745805 C16.5339806,19 17.2330097,19 17.2330097,19 L18.2815534,19 C21.8577864,19 22.7658252,16.0713115 22.9557864,15.2083974 C22.9861942,15.0702121 23,14.9297499 23,14.7882369 L23,11.3257221 C23,11.0551311 22.8909515,10.7911953 22.6854369,10.6155301" id="Fill-1" fill="#B0B4B8"></path>
                </g>
            </g>
        </g>
    </g>
</svg>