<?xml version="1.0" encoding="UTF-8"?>
<svg width="20px" height="20px" viewBox="0 0 20 20" version="1.1" xmlns="http://www.w3.org/2000/svg" xmlns:xlink="http://www.w3.org/1999/xlink">
    <title>60F1546F-CFF5-49C7-9743-1E5CE4CBA4D4@1.00x</title>
    <defs>
        <path d="M1.8,3.6 L0,3.6 L0,16.2 C0,17.19 0.81,18 1.8,18 L14.4,18 L14.4,16.2 L1.8,16.2 L1.8,3.6 Z M16.2,0 L5.4,0 C4.41,0 3.6,0.81 3.6,1.8 L3.6,12.6 C3.6,13.59 4.41,14.4 5.4,14.4 L16.2,14.4 C17.19,14.4 18,13.59 18,12.6 L18,1.8 C18,0.81 17.19,0 16.2,0 Z M16.2,12.6 L5.4,12.6 L5.4,1.8 L16.2,1.8 L16.2,12.6 Z M9,3.15 L9,11.25 L14.4,7.2 L9,3.15 Z" id="path-1"></path>
    </defs>
    <g id="Remote_part02" stroke="none" stroke-width="1" fill="none" fill-rule="evenodd">
        <g id="2.0.원격협업-화면_GNB소스-정리_01" transform="translate(-788.000000, -448.000000)">
            <g id="Group-2" transform="translate(30.000000, 413.000000)">
                <g id="import_btns" transform="translate(638.000000, 35.000000)">
                    <g id="btn_rec_library" transform="translate(120.000000, 0.000000)">
                        <g>
                            <rect id="tr20" opacity="0.5" x="0" y="0" width="20" height="20"></rect>
                            <g transform="translate(1.000000, 1.000000)">
                                <mask id="mask-2" fill="white">
                                    <use xlink:href="#path-1"></use>
                                </mask>
                                <use fill="#FFFFFF" fill-rule="nonzero" xlink:href="#path-1"></use>
                            </g>
                        </g>
                    </g>
                </g>
            </g>
        </g>
    </g>
</svg>