<?xml version="1.0" encoding="UTF-8"?>
<svg width="62px" height="62px" viewBox="0 0 62 62" version="1.1" xmlns="http://www.w3.org/2000/svg" xmlns:xlink="http://www.w3.org/1999/xlink">
    <!-- Generator: sketchtool 64 (101010) - https://sketch.com -->
    <title>A38F21A5-05E8-4E39-A8C2-57085267A9FC@4.00x</title>
    <desc>Created with sketchtool.</desc>
    <defs>
        <linearGradient x1="50%" y1="1.62851282%" x2="50%" y2="111.777344%" id="linearGradient-1">
            <stop stop-color="#0F75F5" offset="0%"></stop>
            <stop stop-color="#145FC6" offset="100%"></stop>
        </linearGradient>
        <circle id="path-2" cx="31" cy="31" r="28"></circle>
    </defs>
    <g id="-" stroke="none" stroke-width="1" fill="none" fill-rule="evenodd">
        <g id="리소스-파일모음" transform="translate(-516.000000, -39.000000)">
            <g id="user" transform="translate(516.000000, 39.000000)">
                <g id="lnb_img_user">
                    <circle id="Mask" fill="#0F75F5" opacity="0.3" cx="31" cy="31" r="31"></circle>
                    <mask id="mask-3" fill="white">
                        <use xlink:href="#path-2"></use>
                    </mask>
                    <use id="Mask" fill="url(#linearGradient-1)" xlink:href="#path-2"></use>
                    <path d="M30.3333333,36.8666667 C35.8583333,36.8666667 40.3333333,32.3916667 40.3333333,26.8666667 C40.3333333,21.3416667 35.8583333,16.8666667 30.3333333,16.8666667 C24.8083333,16.8666667 20.3333333,21.3416667 20.3333333,26.8666667 C20.3333333,32.3916667 24.8083333,36.8666667 30.3333333,36.8666667 Z M31,40.8666667 C23.88,40.8666667 9.66666667,44.3135725 9.66666667,51.1559379 L9.66666667,56.3005735 C18.1184896,61.1224134 24.7851563,63.5333333 29.6666667,63.5333333 C34.5481771,63.5333333 42.1037326,61.1224134 52.3333333,56.3005735 L52.3333333,51.1559379 C52.3333333,44.3135725 38.12,40.8666667 31,40.8666667 Z" id="Shape" fill="#FFFFFF" fill-rule="nonzero" mask="url(#mask-3)"></path>
                </g>
            </g>
        </g>
    </g>
</svg>