<?xml version="1.0" encoding="UTF-8"?>
<svg width="34px" height="34px" viewBox="0 0 34 34" version="1.1" xmlns="http://www.w3.org/2000/svg" xmlns:xlink="http://www.w3.org/1999/xlink">
    <title>D71C8A25-FDEC-48B5-909A-704613336156@1x</title>
    <g id="Symbols" stroke="none" stroke-width="1" fill="none" fill-rule="evenodd">
        <g id="Top" transform="translate(-1500.000000, -17.000000)">
            <g id="icon_workspace" transform="translate(1500.000000, 17.000000)">
                <path d="M6.4270625,15.9375 L11.7045,15.9375 C11.795875,13.0336875 12.263375,10.3880625 12.9965,8.3725 C13.1845625,7.856125 13.393875,7.3684375 13.6265625,6.9221875 C9.734625,8.22375 6.84675,11.71725 6.4270625,15.9375 Z M17,4.25 C9.9588125,4.25 4.25,9.9588125 4.25,17 C4.25,24.0411875 9.9588125,29.75 17,29.75 C24.0411875,29.75 29.75,24.0411875 29.75,17 C29.75,9.9588125 24.0411875,4.25 17,4.25 Z M17,6.375 C16.8395625,6.375 16.5495,6.4610625 16.1510625,6.92325 C15.756875,7.38225 15.353125,8.109 14.9929375,9.0981875 C14.358625,10.8449375 13.9219375,13.2345 13.8305625,15.9375 L20.1694375,15.9375 C20.0780625,13.2345 19.641375,10.8449375 19.0070625,9.0981875 C18.646875,8.109 18.243125,7.38225 17.8489375,6.92325 C17.4505,6.4610625 17.1604375,6.375 17,6.375 Z M22.2955,15.9375 C22.2030625,13.0336875 21.736625,10.3880625 21.0035,8.3725 C20.8154375,7.856125 20.606125,7.3684375 20.3734375,6.9221875 C24.265375,8.22375 27.15325,11.71725 27.5729375,15.9375 L22.2955,15.9375 Z M20.1694375,18.0625 L13.8305625,18.0625 C13.9219375,20.7655 14.358625,23.1550625 14.9929375,24.9018125 C15.353125,25.891 15.756875,26.61775 16.1510625,27.07675 C16.5495,27.5389375 16.8395625,27.625 17,27.625 C17.1604375,27.625 17.4505,27.5389375 17.8489375,27.07675 C18.243125,26.61775 18.646875,25.891 19.0070625,24.9018125 C19.641375,23.1550625 20.0780625,20.7655 20.1694375,18.0625 Z M20.3734375,27.0778125 C20.606125,26.6315625 20.8154375,26.143875 21.0035,25.6275 C21.736625,23.6119375 22.2030625,20.9663125 22.2955,18.0625 L27.5729375,18.0625 C27.15325,22.28275 24.265375,25.77625 20.3734375,27.0778125 Z M13.6265625,27.0778125 C13.393875,26.6315625 13.1845625,26.143875 12.9965,25.6275 C12.263375,23.6119375 11.795875,20.9663125 11.7045,18.0625 L6.4270625,18.0625 C6.84675,22.28275 9.734625,25.77625 13.6265625,27.0778125 L13.6265625,27.0778125 Z" id="Fill-1152" fill="#BFBFBF"></path>
                <rect id="tr" x="0" y="0" width="34" height="34"></rect>
            </g>
        </g>
    </g>
</svg>