<?xml version="1.0" encoding="UTF-8"?>
<svg width="24px" height="24px" viewBox="0 0 24 24" version="1.1" xmlns="http://www.w3.org/2000/svg" xmlns:xlink="http://www.w3.org/1999/xlink">
    <title>B6910B1E-C624-4911-B2E1-7F2FC58609E2@1x</title>
    <defs>
        <path d="M10,8 C11.1045695,8 12,8.8954305 12,10 C12,11.1045695 11.1045695,12 10,12 C8.8954305,12 8,11.1045695 8,10 C8,8.8954305 8.8954305,8 10,8 Z M17,8 C18.1045695,8 19,8.8954305 19,10 C19,11.1045695 18.1045695,12 17,12 C15.8954305,12 15,11.1045695 15,10 C15,8.8954305 15.8954305,8 17,8 Z M3,8 C4.1045695,8 5,8.8954305 5,10 C5,11.1045695 4.1045695,12 3,12 C1.8954305,12 1,11.1045695 1,10 C1,8.8954305 1.8954305,8 3,8 Z" id="path-1"></path>
    </defs>
    <g id="Remote_Main_Mobile" stroke="none" stroke-width="1" fill="none" fill-rule="evenodd">
        <g id="Icon" transform="translate(-294.000000, -410.000000)">
            <g id="24-x-24" transform="translate(36.000000, 346.000000)">
                <g id="ic_more" transform="translate(240.000000, 46.000000)">
                    <g transform="translate(18.000000, 18.000000)">
                        <rect id="tr-copy-4" x="0" y="0" width="24" height="24"></rect>
                        <g id="Group" transform="translate(2.000000, 2.000000)">
                            <g id="icon-/-20px-/-ic_more_20" transform="translate(10.000000, 10.000000) rotate(-270.000000) translate(-10.000000, -10.000000) ">
                                <mask id="mask-2" fill="white">
                                    <use xlink:href="#path-1"></use>
                                </mask>
                                <g id="Shape" fill-rule="nonzero"></g>
                                <rect id="🎨-Color" fill="#FFFFFF" mask="url(#mask-2)" x="-14" y="-14" width="48" height="48"></rect>
                            </g>
                        </g>
                    </g>
                </g>
            </g>
        </g>
    </g>
</svg>