<?xml version="1.0" encoding="UTF-8"?>
<svg width="28px" height="28px" viewBox="0 0 28 28" version="1.1" xmlns="http://www.w3.org/2000/svg" xmlns:xlink="http://www.w3.org/1999/xlink">
    <!-- Generator: sketchtool 64 (101010) - https://sketch.com -->
    <title>B4F7553B-3695-407C-808E-78FC4E83CF16@1.00x</title>
    <desc>Created with sketchtool.</desc>
    <g id="-" stroke="none" stroke-width="1" fill="none" fill-rule="evenodd">
        <g id="리소스-파일모음" transform="translate(-480.000000, -141.000000)">
            <g id="mobile" transform="translate(480.000000, 141.000000)">
                <g id="icon_mobile">
                    <circle id="Oval" fill="#454C54" cx="14" cy="14" r="14"></circle>
                    <g id="ico-/-24-/-devices-/-android_phone" transform="translate(5.000000, 5.000000)" fill="#B0B4B8" fill-rule="nonzero">
                        <path d="M12,0.75 L6,0.75 C4.75735931,0.75 3.75,1.75735931 3.75,3 L3.75,15 C3.75,16.2426407 4.75735931,17.25 6,17.25 L12,17.25 C13.2426407,17.25 14.25,16.2426407 14.25,15 L14.25,3 C14.25,1.75735931 13.2426407,0.75 12,0.75 Z M12,3 L12,3 C12.4142136,3 12.75,3.33578644 12.75,3.75 L12.75,14.25 C12.75,14.6642136 12.4142136,15 12,15 L6,15 C5.58578644,15 5.25,14.6642136 5.25,14.25 L5.25,3.75 C5.25,3.33578644 5.58578644,3 6,3 L12,3 Z" id="Icon-color"></path>
                    </g>
                </g>
            </g>
        </g>
    </g>
</svg>