<?xml version="1.0" encoding="UTF-8"?>
<svg width="18px" height="18px" viewBox="0 0 18 18" version="1.1" xmlns="http://www.w3.org/2000/svg" xmlns:xlink="http://www.w3.org/1999/xlink">
    <title>5DE5E745-A566-4AA6-8F3C-98BB89226916@1.00x</title>
    <g id="Remote_part02" stroke="none" stroke-width="1" fill="none" fill-rule="evenodd">
        <g id="2.0.원격협업-화면_GNB소스-정리_01" transform="translate(-350.000000, -933.000000)">
            <g id="frame_list-copy" transform="translate(32.000000, 925.000000)">
                <g id="02.frame-" transform="translate(190.000000, 0.000000)">
                    <g id="icon" transform="translate(8.000000, 8.000000)">
                        <g id="icon_mic" transform="translate(120.000000, 0.000000)">
                            <rect id="tr" x="0" y="0" width="18" height="18"></rect>
                            <path d="M9,11.25 C10.245,11.25 11.2425,10.245 11.2425,9 L11.25,4.5 C11.25,3.255 10.245,2.25 9,2.25 C7.755,2.25 6.75,3.255 6.75,4.5 L6.75,9 C6.75,10.245 7.755,11.25 9,11.25 Z M12.975,9 C12.975,11.25 11.07,12.825 9,12.825 C6.93,12.825 5.025,11.25 5.025,9 L3.75,9 C3.75,11.5575 5.79,13.6725 8.25,14.04 L8.25,16.5 L9.75,16.5 L9.75,14.04 C12.21,13.68 14.25,11.565 14.25,9 L12.975,9 Z" id="Shape" fill="#FFFFFF" fill-rule="nonzero"></path>
                            <path d="M13.0528169,9 C13.0528169,9.50762195 12.9401408,9.98094512 12.75,10.40625 L13.6161972,11.25 C14.0105634,10.5777439 14.25,9.81631098 14.25,9 L13.0528169,9 Z M11.235,9 C11.235,8.95583424 11.25,8.91902944 11.25,8.87486369 L11.25,4.4582879 C11.25,3.23636859 10.245,2.25 9,2.25 C7.755,2.25 6.75,3.23636859 6.75,4.4582879 L6.75,4.59078517 L11.235,9 Z M3.2025,3 L2.25,3.9525 L6.7575,8.46 L6.7575,9 C6.7575,10.245 7.755,11.25 9,11.25 C9.165,11.25 9.33,11.2275 9.4875,11.19 L10.7325,12.435 C10.2,12.6825 9.6075,12.825 9,12.825 C6.93,12.825 5.025,11.25 5.025,9 L3.75,9 C3.75,11.5575 5.79,13.6725 8.25,14.04 L8.25,16.5 L9.75,16.5 L9.75,14.04 C10.4325,13.9425 11.0775,13.7025 11.655,13.365 L14.7975,16.5 L15.75,15.5475 L3.2025,3 Z" id="Shape" fill="#FFFFFF" fill-rule="nonzero"></path>
                        </g>
                    </g>
                </g>
            </g>
        </g>
    </g>
</svg>