<?xml version="1.0" encoding="UTF-8"?>
<svg width="20px" height="20px" viewBox="0 0 20 20" version="1.1" xmlns="http://www.w3.org/2000/svg" xmlns:xlink="http://www.w3.org/1999/xlink">
    <title>3E06BDD2-A155-44A6-A960-56C0AF7E80CD@1.00x</title>
    <defs>
        <path d="M10,6 C11.1,6 12,5.1 12,4 C12,2.9 11.1,2 10,2 C8.9,2 8,2.9 8,4 C8,5.1 8.9,6 10,6 Z M10,8 C8.9,8 8,8.9 8,10 C8,11.1 8.9,12 10,12 C11.1,12 12,11.1 12,10 C12,8.9 11.1,8 10,8 Z M10,14 C8.9,14 8,14.9 8,16 C8,17.1 8.9,18 10,18 C11.1,18 12,17.1 12,16 C12,14.9 11.1,14 10,14 Z" id="path-1"></path>
    </defs>
    <g id="Remote_part02" stroke="none" stroke-width="1" fill="none" fill-rule="evenodd">
        <g id="2.0.원격협업-화면_GNB소스-정리_01" transform="translate(-376.000000, -840.000000)">
            <g id="frame_list" transform="translate(32.000000, 593.000000)">
                <g id="02.frame-" transform="translate(190.000000, 172.000000)">
                    <g id="name_aera" transform="translate(0.000000, 70.000000)">
                        <g id="btn_more" transform="translate(154.000000, 5.000000)">
                            <rect id="tr" opacity="0.699999988" fill-rule="nonzero" x="0" y="0" width="20" height="20"></rect>
                            <mask id="mask-2" fill="white">
                                <use xlink:href="#path-1"></use>
                            </mask>
                            <use id="icon/navigation/more_vert_24px" fill="#FFFFFF" fill-rule="nonzero" xlink:href="#path-1"></use>
                        </g>
                    </g>
                </g>
            </g>
        </g>
    </g>
</svg>