<?xml version="1.0" encoding="UTF-8"?>
<svg width="24px" height="24px" viewBox="0 0 24 24" version="1.1" xmlns="http://www.w3.org/2000/svg" xmlns:xlink="http://www.w3.org/1999/xlink">
    <title>20E6318F-E226-431E-A687-51F9C6554E59@1x</title>
    <defs>
        <path d="M10.6441975,4.35580254 C10.8382551,4.16174493 11.159995,4.15999504 11.3573589,4.35735893 L11.3573589,4.35735893 L17,10 L11.3573589,15.6426411 C11.1604855,15.8395145 10.8407018,15.8407018 10.6441975,15.6441975 L10.6441975,15.6441975 L9.94580254,14.9458025 C9.75174493,14.7517449 9.75090211,14.4287466 9.94938492,14.2298304 L9.94938492,14.2298304 L13.172,10.9997977 L3.5,11 C3.22385763,11 3,10.7761424 3,10.5 L3,9.5 C3,9.22385763 3.22385763,9 3.5,9 L13.172,8.99979766 L9.94938492,5.7701696 C9.76538481,5.58576775 9.75040281,5.3187477 9.88735635,5.12367522 L9.94580254,5.05419746 Z" id="path-1"></path>
    </defs>
    <g id="Remote_Main_Mobile" stroke="none" stroke-width="1" fill="none" fill-rule="evenodd">
        <g id="Icon" transform="translate(-774.000000, -410.000000)">
            <g id="24-x-24" transform="translate(36.000000, 346.000000)">
                <g id="ic_Enter" transform="translate(720.000000, 46.000000)">
                    <g id="Group-5" transform="translate(18.000000, 18.000000)">
                        <rect id="tr-copy-8" x="0" y="0" width="24" height="24"></rect>
                        <g id="icon-/-20px-/-ic_arrow_subdirectory_right_20" transform="translate(2.000000, 2.000000)">
                            <mask id="mask-2" fill="white">
                                <use xlink:href="#path-1"></use>
                            </mask>
                            <g id="Shape"></g>
                            <rect id="🎨-Color" fill="#FFFFFF" mask="url(#mask-2)" x="-14" y="-14" width="48" height="48"></rect>
                        </g>
                    </g>
                </g>
            </g>
        </g>
    </g>
</svg>