<?xml version="1.0" encoding="UTF-8"?>
<svg width="28px" height="28px" viewBox="0 0 28 28" version="1.1" xmlns="http://www.w3.org/2000/svg" xmlns:xlink="http://www.w3.org/1999/xlink">
    <!-- Generator: sketchtool 64 (101010) - https://sketch.com -->
    <title>370829A8-A62D-4E94-A4F9-06139084E778@1.00x</title>
    <desc>Created with sketchtool.</desc>
    <g id="-" stroke="none" stroke-width="1" fill="none" fill-rule="evenodd">
        <g id="리소스-파일모음" transform="translate(-520.000000, -141.000000)">
            <g id="icon_monitor" transform="translate(520.000000, 141.000000)">
                <g>
                    <circle id="Oval" fill="#454C54" cx="14" cy="14" r="14"></circle>
                    <g id="ico-/-24-/-devices-/-monitor" transform="translate(4.000000, 4.000000)" fill="#B0B4B8">
                        <path d="M16.6666667,12.45425 C16.6666667,12.93825 16.2835556,13.3333333 15.8142222,13.3333333 L4.18577778,13.3333333 C3.71644444,13.3333333 3.33333333,12.93825 3.33333333,12.45425 L3.33333333,5.04575 C3.33333333,4.56175 3.71644444,4.16666667 4.18577778,4.16666667 L15.8142222,4.16666667 C16.2835556,4.16666667 16.6666667,4.56175 16.6666667,5.04575 L16.6666667,12.45425 Z M15.7377193,2.5 L4.2622807,2.5 C2.83070175,2.5 1.66666667,3.66726852 1.66666667,5.10282407 L1.66666667,12.2119907 C1.66666667,13.6475463 2.83070175,14.8148148 4.2622807,14.8148148 L9.12280702,14.8148148 L9.12280702,16.5740741 L6.05263158,16.5740741 C5.56754386,16.5740741 5.1754386,16.9672685 5.1754386,17.4537037 C5.1754386,17.9401389 5.56754386,18.3333333 6.05263158,18.3333333 L13.9473684,18.3333333 C14.4324561,18.3333333 14.8245614,17.9401389 14.8245614,17.4537037 C14.8245614,16.9672685 14.4324561,16.5740741 13.9473684,16.5740741 L10.877193,16.5740741 L10.877193,14.8148148 L15.7377193,14.8148148 C17.1692982,14.8148148 18.3333333,13.6475463 18.3333333,12.2119907 L18.3333333,5.10282407 C18.3333333,3.66726852 17.1692982,2.5 15.7377193,2.5 L15.7377193,2.5 Z" id="Fill-1"></path>
                    </g>
                </g>
            </g>
        </g>
    </g>
</svg>