<?xml version="1.0" encoding="UTF-8"?>
<svg width="24px" height="24px" viewBox="0 0 24 24" version="1.1" xmlns="http://www.w3.org/2000/svg" xmlns:xlink="http://www.w3.org/1999/xlink">
    <title>69674062-966A-45A2-9869-6718E34AD5B3@1x</title>
    <defs>
        <path d="M18.3636364,8.75 L14.7272727,12.5 L17.4545455,12.5 C17.4545455,15.603125 15.0090909,18.125 12,18.125 C11.0818182,18.125 10.2090909,17.890625 9.45454545,17.46875 L8.12727273,18.8375 C9.24545455,19.56875 10.5727273,20 12,20 C16.0181818,20 19.2727273,16.64375 19.2727273,12.5 L22,12.5 L18.3636364,8.75 Z M6.54545455,12.5 C6.54545455,9.396875 8.99090909,6.875 12,6.875 C12.9181818,6.875 13.7909091,7.109375 14.5454545,7.53125 L15.8727273,6.1625 C14.7545455,5.43125 13.4272727,5 12,5 C7.98181818,5 4.72727273,8.35625 4.72727273,12.5 L2,12.5 L5.63636364,16.25 L9.27272727,12.5 L6.54545455,12.5 Z" id="path-1"></path>
    </defs>
    <g id="Design_v-2.2" stroke="none" stroke-width="1" fill="none" fill-rule="evenodd">
        <g id="RAS_0020-_대시보드_마스터-권한-" transform="translate(-1797.000000, -106.000000)">
            <rect fill="#F6F6F6" x="0" y="0" width="1920" height="1492"></rect>
            <g id="Dashboard" fill="#F8F8FA">
                <rect id="bg" x="0" y="0" width="1920" height="1760"></rect>
            </g>
            <g id="info" transform="translate(1657.000000, 83.000000)">
                <rect id="Rectangle" fill="#FF4BC4" x="0" y="0" width="251" height="124"></rect>
                <g id="btn_Refresh" transform="translate(129.000000, 14.000000)">
                    <path d="M104,0.5 C104.966498,0.5 105.841498,0.891750844 106.474874,1.52512627 C107.108249,2.15850169 107.5,3.03350169 107.5,4 L107.5,4 L107.5,38 C107.5,38.9664983 107.108249,39.8414983 106.474874,40.4748737 C105.841498,41.1082492 104.966498,41.5 104,41.5 L104,41.5 L4,41.5 C3.03350169,41.5 2.15850169,41.1082492 1.52512627,40.4748737 C0.891750844,39.8414983 0.5,38.9664983 0.5,38 L0.5,38 L0.5,4 C0.5,3.03350169 0.891750844,2.15850169 1.52512627,1.52512627 C2.15850169,0.891750844 3.03350169,0.5 4,0.5 L4,0.5 Z" id="Refresh_bg" stroke="#E3E3E3" fill="#FFFFFF"></path>
                    <g id="icon_Refresh" transform="translate(11.000000, 9.000000)">
                        <rect id="tr" x="0" y="0" width="24" height="24"></rect>
                        <mask id="mask-2" fill="white">
                            <use xlink:href="#path-1"></use>
                        </mask>
                        <use id="icon/action/cached_24px" fill="#757F91" fill-rule="nonzero" xlink:href="#path-1"></use>
                    </g>
                </g>
            </g>
        </g>
    </g>
</svg>