<?xml version="1.0" encoding="UTF-8"?>
<svg width="24px" height="24px" viewBox="0 0 24 24" version="1.1" xmlns="http://www.w3.org/2000/svg" xmlns:xlink="http://www.w3.org/1999/xlink">
    <title>BE1D64D4-9821-4CB8-BBD8-0E9017E79A23@1x</title>
    <g id="Design" stroke="none" stroke-width="1" fill="none" fill-rule="evenodd">
        <g id="00_리소스-정리" transform="translate(-66.000000, -434.000000)">
            <g id="rec" transform="translate(66.000000, 434.000000)">
                <rect id="tr20" opacity="0.5" x="0" y="0" width="24" height="24"></rect>
                <g id="rec_off" transform="translate(3.000000, 3.000000)" fill-rule="nonzero">
                    <path d="M9,0.675 C11.2988888,0.675 13.3801348,1.60680885 14.8866605,3.11333458 C16.3931927,4.61986679 17.325,6.70112073 17.325,9 C17.325,11.2988743 16.3931863,13.3801238 14.8866551,14.8866551 C13.3801238,16.3931863 11.2988743,17.325 9,17.325 C6.7011257,17.325 4.6198762,16.3931863 3.11334495,14.8866551 C1.60681369,13.3801238 0.675,11.2988743 0.675,9 C0.675,6.7011257 1.60681369,4.6198762 3.11334495,3.11334495 C4.6198762,1.60681369 6.7011257,0.675 9,0.675 Z" id="Path" stroke="#FFFFFF" stroke-width="1.35"></path>
                    <circle id="Oval" fill="#FFFFFF" cx="9" cy="9" r="5"></circle>
                </g>
            </g>
        </g>
    </g>
</svg>