<?xml version="1.0" encoding="UTF-8"?>
<svg width="36px" height="36px" viewBox="0 0 36 36" version="1.1" xmlns="http://www.w3.org/2000/svg" xmlns:xlink="http://www.w3.org/1999/xlink">
    <!-- Generator: sketchtool 64 (101010) - https://sketch.com -->
    <title>9333776F-9602-4086-9C8F-3026291CED7A@1.00x</title>
    <desc>Created with sketchtool.</desc>
    <defs>
        <circle id="path-1" cx="18" cy="18" r="18"></circle>
    </defs>
    <g id="-" stroke="none" stroke-width="1" fill="none" fill-rule="evenodd">
        <g id="0.0-리소스-파일모음" transform="translate(-178.000000, -39.000000)">
            <g id="gnb_icn_system" transform="translate(178.000000, 39.000000)">
                <g id="system">
                    <mask id="mask-2" fill="white">
                        <use xlink:href="#path-1"></use>
                    </mask>
                    <circle stroke="#0E50AB" cx="18" cy="18" r="17.5"></circle>
                    <g id="Group-5" mask="url(#mask-2)">
                        <g transform="translate(8.000000, 7.000000)">
                            <polygon id="Fill-1" fill="#83BEFF" points="0.0004032 8.9809944 6.72e-05 8.9807704 6.72e-05 8.9812184 1.12e-05 8.9812744 6.72e-05 8.9812744 6.72e-05 16.9739304 6.9264272 20.9703704 6.9264272 20.9705944 6.9265952 20.9705384 6.9267072 20.9705944 6.9267072 20.9704264 16.7211072 15.3070904 16.7213872 11.9582344 6.9265392 17.6466024 6.9264272 17.6466024 6.9264272 17.6505224 2.8786912 15.3121864 2.8786912 10.6432424 2.8787472 10.6432424 9.7968192 6.6492104 6.9221712 4.9848344"></polygon>
                            <polygon id="Fill-2" fill="#CAE7FF" points="6.922188 4.9848288 13.842668 8.9895568 13.846588 8.9872608 16.721124 10.6468208 16.721124 15.3056848 16.716812 15.3081488 12.674564 17.6420048 5.755596 13.6257968 2.87686 15.3116768 12.673276 20.9667248 19.595492 16.9702288 19.600028 8.9849088 9.799132 3.3235888"></polygon>
                            <polygon id="Fill-3" fill="#FFFFFF" points="9.7991208 -3.36e-05 2.8769048 3.9964064 2.8776888 3.9968544 2.8769048 3.9965184 2.8769048 15.3111504 5.7556408 16.9733984 5.7556408 5.6585984 5.7550808 5.6580944 5.7556408 5.6584304 9.7990648 3.3240144 13.8426008 5.6585984 13.8426568 5.6585984 13.8426568 13.6300304 16.7213368 11.9582064 16.7213368 3.9965184"></polygon>
                            <polygon id="Fill-4" fill="#83BEFF" points="0.0004032 8.9809944 6.72e-05 8.9807704 6.72e-05 8.9812184 1.12e-05 8.9812744 6.72e-05 8.9812744 2.8786912 10.6432424 2.8787472 10.6432424 9.7968192 6.6492104 6.9221712 4.9848344"></polygon>
                        </g>
                    </g>
                </g>
            </g>
        </g>
    </g>
</svg>