<?xml version="1.0" encoding="UTF-8"?>
<svg width="36px" height="36px" viewBox="0 0 36 36" version="1.1" xmlns="http://www.w3.org/2000/svg" xmlns:xlink="http://www.w3.org/1999/xlink">
    <!-- Generator: sketchtool 64 (101010) - https://sketch.com -->
    <title>9333776F-9602-4086-9C8F-3026291CED7A@1.00x</title>
    <desc>Created with sketchtool.</desc>
    <defs>
        <circle id="path-1" cx="18" cy="18" r="18"></circle>
    </defs>
    <g id="-" stroke="none" stroke-width="1" fill="none" fill-rule="evenodd">
        <g id="리소스-파일모음" transform="translate(-178.000000, -39.000000)">
            <g id="gnb_icn_system" transform="translate(178.000000, 39.000000)">
                <g id="system">
                    <mask id="mask-2" fill="white">
                        <use xlink:href="#path-1"></use>
                    </mask>
                    <circle stroke="#2A67BB" cx="18" cy="18" r="17.5"></circle>
                    <path d="M26.7190313,16.8736091 C26.5741523,16.7826597 25.4389219,16.1025959 24.9877266,15.8961932 L24.4286367,14.5464718 C24.59475,14.1001623 24.9121055,12.8481403 24.9617461,12.6310852 C25.0076953,12.4298504 24.9470508,12.2191235 24.801082,12.0731544 L23.9268164,11.1989223 C23.7808828,11.0529532 23.5700859,10.9922734 23.3688867,11.0382579 C23.2042852,11.0759103 21.9195352,11.397907 21.4535039,11.5713683 L20.10375,11.0122774 C19.9062422,10.5805578 19.2464297,9.47218452 19.1263359,9.2809693 C19.0166133,9.10613693 18.8246602,9 18.6182227,9 L17.3817773,9 C17.1753398,9 16.9833867,9.10613693 16.8736289,9.2809693 C16.7826797,9.42584849 16.1026172,10.5610812 15.8962148,11.0122774 L14.5464961,11.5713683 C14.1001875,11.4052547 12.848168,11.0878986 12.6311133,11.0382579 C12.4298789,10.9923086 12.2191523,11.0529884 12.0731836,11.1989223 L11.198918,12.0731896 C11.0529492,12.2191586 10.9922695,12.4298856 11.0382539,12.6311204 C11.0759062,12.7957223 11.3979023,14.0804748 11.5713633,14.5465069 L11.0122734,15.8962283 C10.5805547,16.0937365 9.47218359,16.7535503 9.28096875,16.8736443 C9.10613672,16.9833672 9,17.1753207 9,17.3817586 L9,18.6182063 C9,18.8246442 9.10613672,19.0165977 9.28096875,19.1263557 C9.42584766,19.2173051 10.5610781,19.8973689 11.0122734,20.1037717 L11.5713633,21.4534931 C11.40525,21.8998025 11.0878945,23.1518245 11.0382539,23.3688796 C10.9923047,23.5701144 11.0529492,23.7808414 11.198918,23.9268104 L12.0731836,24.8010777 C12.2191523,24.9470468 12.4299492,25.0077617 12.6311133,24.9617421 C12.7957148,24.9240897 14.0804648,24.602093 14.5464961,24.4286317 L15.8962148,24.9877226 C16.0937227,25.4194422 16.7535352,26.5278155 16.8736289,26.7190307 C16.9833867,26.8938631 17.1753398,27 17.3817773,27 L18.6182227,27 C18.8246602,27 19.0166133,26.8938631 19.1263711,26.7190307 C19.2173203,26.5741515 19.8973828,25.4389188 20.1037852,24.9877226 L21.4535039,24.4286317 C21.8998125,24.5947453 23.151832,24.9121014 23.3688867,24.9617421 C23.5701914,25.0077969 23.7808828,24.9470468 23.9268164,24.8010777 L24.801082,23.9268104 C24.9470508,23.7808414 25.0077305,23.5701144 24.9617461,23.3688796 C24.9240938,23.2042777 24.6020977,21.9195252 24.4286367,21.4534931 L24.9877266,20.1037717 C25.4194453,19.9062635 26.5278164,19.2464497 26.7190313,19.1263557 C26.8938633,19.0165977 27,18.8246442 27,18.6182063 L27,17.3817586 C27,17.1753207 26.8938633,16.9833672 26.7190313,16.8736091 Z M18,21.9236034 C15.8365195,21.9236034 14.0763867,20.1634671 14.0763867,17.9999824 C14.0763867,15.8364977 15.8365195,14.0763966 18,14.0763966 C20.1634805,14.0763966 21.9236133,15.8365329 21.9236133,18.0000176 C21.9236133,20.1635023 20.1634805,21.9236034 18,21.9236034 Z" id="Shape" fill="#FFFFFF" fill-rule="nonzero" mask="url(#mask-2)"></path>
                </g>
            </g>
        </g>
    </g>
</svg>