<?xml version="1.0" encoding="UTF-8"?>
<svg width="20px" height="20px" viewBox="0 0 20 20" version="1.1" xmlns="http://www.w3.org/2000/svg" xmlns:xlink="http://www.w3.org/1999/xlink">
    <title>252DB856-1664-4752-9904-8BA6FA356DFF@1.00x</title>
    <g id="Remote_part02" stroke="none" stroke-width="1" fill="none" fill-rule="evenodd" opacity="0.699999988">
        <g id="RWS_0124_접속-화면-협업-보드_파일공유(리더)" transform="translate(-64.000000, -1034.000000)">
            <g id="list_files" transform="translate(0.000000, 56.000000)">
                <g id="btn_save" transform="translate(14.000000, 967.000000)">
                    <g id="Group-10" transform="translate(50.000000, 11.000000)">
                        <g id="Group-11">
                            <g id="save_alt-24px">
                                <polygon id="Path" points="0 0 20 0 20 20 0 20"></polygon>
                                <path d="M15.8333333,10 L15.8333333,15.8333333 L4.16666667,15.8333333 L4.16666667,10 L2.5,10 L2.5,15.8333333 C2.5,16.75 3.25,17.5 4.16666667,17.5 L15.8333333,17.5 C16.75,17.5 17.5,16.75 17.5,15.8333333 L17.5,10 L15.8333333,10 Z M10.8333333,10.5583333 L12.9916667,8.40833333 L14.1666667,9.58333333 L10,13.75 L5.83333333,9.58333333 L7.00833333,8.40833333 L9.16666667,10.5583333 L9.16666667,2.5 L10.8333333,2.5 L10.8333333,10.5583333 Z" id="Shape" fill="#FFFFFF" fill-rule="nonzero"></path>
                            </g>
                        </g>
                    </g>
                </g>
            </g>
        </g>
    </g>
</svg>