<?xml version="1.0" encoding="UTF-8"?>
<svg width="24px" height="24px" viewBox="0 0 24 24" version="1.1" xmlns="http://www.w3.org/2000/svg" xmlns:xlink="http://www.w3.org/1999/xlink">
    <title>4DEB0A09-54A2-4D8C-8998-EF5F9991E9F1@2x</title>
    <g id="Seat-맴버-접속" stroke="none" stroke-width="1" fill="none" fill-rule="evenodd">
        <g id="SEA_0020-_URL-초대-요청_2" transform="translate(-714.000000, -708.000000)">
            <g id="icon_info" transform="translate(714.000000, 708.000000)">
                <polygon id="Path" points="0 0 24 0 24 24 0 24"></polygon>
                <g id="Shape-2" transform="translate(4.000000, 4.000000)" fill="#808991" fill-rule="nonzero">
                    <path d="M7.2,4 L8.8,4 L8.8,5.6 L7.2,5.6 L7.2,4 Z M7.2,7.2 L8.8,7.2 L8.8,12 L7.2,12 L7.2,7.2 Z M8,0 C3.584,0 0,3.584 0,8 C0,12.416 3.584,16 8,16 C12.416,16 16,12.416 16,8 C16,3.584 12.416,0 8,0 Z M8,14.4 C4.472,14.4 1.6,11.528 1.6,8 C1.6,4.472 4.472,1.6 8,1.6 C11.528,1.6 14.4,4.472 14.4,8 C14.4,11.528 11.528,14.4 8,14.4 Z" id="Shape"></path>
                </g>
            </g>
        </g>
    </g>
</svg>