<?xml version="1.0" encoding="UTF-8"?>
<svg width="56px" height="56px" viewBox="0 0 56 56" version="1.1" xmlns="http://www.w3.org/2000/svg" xmlns:xlink="http://www.w3.org/1999/xlink">
    <title>696AA3B2-A178-4672-BE54-1D005BFE5B46@1x</title>
    <defs>
        <path d="M22.4,44.8 C39.346087,44.8 44.8,39.346087 44.8,22.4 C44.8,5.45391304 39.346087,1.88446516e-15 22.4,0 C5.45391304,-1.88446516e-15 1.03764852e-15,5.45391304 0,22.4 C1.03764856e-15,39.346087 5.45391304,44.8 22.4,44.8 Z" id="path-1"></path>
    </defs>
    <g id="Design" stroke="none" stroke-width="1" fill="none" fill-rule="evenodd">
        <g id="RAS_0020-_대시보드_마스터-권한-_프로필" transform="translate(-1330.000000, -87.000000)">
            <g id="user" transform="translate(1300.000000, 61.000000)">
                <g id="user-profile" transform="translate(30.000000, 26.000000)">
                    <g id="bg">
                        <rect id="tr" x="0" y="0" width="56" height="56"></rect>
                        <path d="M28,56 C49.1826087,56 56,49.1826087 56,28 C56,6.8173913 49.1826087,7.3293806e-15 28,4.97379915e-15 C6.8173913,2.6182177e-15 6.2708598e-15,6.8173913 4.97379915e-15,28 C6.27085985e-15,49.1826087 6.8173913,56 28,56 Z" id="icon_bg" fill="#D0D6DD"></path>
                    </g>
                    <g transform="translate(5.600000, 5.600000)" id="Group-3">
                        <mask id="mask-2" fill="white">
                            <use xlink:href="#path-1"></use>
                        </mask>
                        <g id="Combined-Shape"></g>
                        <path d="M31.36,14.1866667 C31.36,19.1445333 27.3578667,23.1466667 22.4,23.1466667 C17.4421333,23.1466667 13.44,19.1445333 13.44,14.1866667 C13.44,9.2288 17.4421333,5.22666667 22.4,5.22666667 C27.3578667,5.22666667 31.36,9.2288 31.36,14.1866667 Z" id="Path" fill="#FFFFFF" mask="url(#mask-2)"></path>
                        <path d="M3.73333333,35.204977 C5.01320313,28.5330009 16.1777778,27.6266667 22.4,27.6266667 C28.6222222,27.6266667 39.825625,28.8259436 41.0666667,35.204977 C41.8940278,39.457666 43.1384722,46.0367477 44.8,54.9422222 L0,54.9422222 C1.63564236,46.2320428 2.88008681,39.6529611 3.73333333,35.204977 Z" id="Path" fill="#FFFFFF" mask="url(#mask-2)"></path>
                    </g>
                </g>
            </g>
        </g>
    </g>
</svg>