<?xml version="1.0" encoding="UTF-8"?>
<svg width="24px" height="24px" viewBox="0 0 24 24" version="1.1" xmlns="http://www.w3.org/2000/svg" xmlns:xlink="http://www.w3.org/1999/xlink">
    <title>1CD1DE32-9E2A-4A9F-BB01-769A10840F2D@1.00x</title>
    <g id="Remote_part02" stroke="none" stroke-width="1" fill="none" fill-rule="evenodd">
        <g id="RWS_0102_2_접속-화면_협업-공통-메뉴_화면-녹화-완료-(리더)" transform="translate(-563.000000, -463.000000)">
            <g id="popup" transform="translate(491.000000, 185.000000)">
                <g id="makegroup" transform="translate(0.000000, 2.000000)">
                    <g id="Group" transform="translate(50.000000, 210.000000)">
                        <g id="title" transform="translate(0.000000, 50.000000)">
                            <g id="ic_all_select" transform="translate(22.000000, 16.000000)">
                                <rect id="tr" x="0" y="0" width="24" height="24"></rect>
                                <path d="M24,12 C24,18.6329956 18.6320801,24 12,24 C5.36700441,24 0,18.6320801 0,12 C0,5.36700441 5.36791992,0 12,0 C18.6329956,0 24,5.36791992 24,12 Z M21.6,12 C21.6,6.6935764 17.3057292,2.4 12,2.4 C6.6935764,2.4 2.4,6.69427084 2.4,12 C2.4,17.3064236 6.69427084,21.6 12,21.6 C17.3064236,21.6 21.6,17.3057292 21.6,12 Z" fill="#666668"></path>
                            </g>
                        </g>
                    </g>
                </g>
            </g>
        </g>
    </g>
</svg>