<?xml version="1.0" encoding="UTF-8"?>
<svg width="24px" height="24px" viewBox="0 0 24 24" version="1.1" xmlns="http://www.w3.org/2000/svg" xmlns:xlink="http://www.w3.org/1999/xlink">
    <title>E7A56F40-8AE3-4CD0-9CC2-7BBBC2835D8D@1.00x</title>
    <g id="내역관리" stroke="none" stroke-width="1" fill="none" fill-rule="evenodd">
        <g id="05_내역관리-페이지_팝업_녹화내역다운_2" transform="translate(-602.000000, -370.000000)">
            <g id="popup" transform="translate(550.000000, 217.000000)">
                <g id="Group" transform="translate(30.000000, 84.000000)">
                    <g id="title" transform="translate(0.000000, 53.000000)">
                        <g id="ic_all_select" transform="translate(22.000000, 16.000000)">
                            <rect id="tr" x="0" y="0" width="24" height="24"></rect>
                            <path d="M24,12 C24,18.6329956 18.6320801,24 12,24 C5.36700441,24 0,18.6320801 0,12 C0,5.36700441 5.36791992,0 12,0 C18.6329956,0 24,5.36791992 24,12 Z M21.6,12 C21.6,6.6935764 17.3057292,2.4 12,2.4 C6.6935764,2.4 2.4,6.69427084 2.4,12 C2.4,17.3064236 6.69427084,21.6 12,21.6 C17.3064236,21.6 21.6,17.3057292 21.6,12 Z" fill="#A6ADB8"></path>
                        </g>
                    </g>
                </g>
            </g>
        </g>
    </g>
</svg>