<?xml version="1.0" encoding="UTF-8"?>
<svg width="24px" height="24px" viewBox="0 0 24 24" version="1.1" xmlns="http://www.w3.org/2000/svg" xmlns:xlink="http://www.w3.org/1999/xlink">
    <title>A98C1075-CD6A-41FE-AF86-7CC3A91BDF94@1.00x</title>
    <defs>
        <path d="M17,10.5 L17,7 C17,6.45 16.55,6 16,6 L4,6 C3.45,6 3,6.45 3,7 L3,17 C3,17.55 3.45,18 4,18 L16,18 C16.55,18 17,17.55 17,17 L17,13.5 L21,17.5 L21,6.5 L17,10.5 Z M14,13 L11,13 L11,16 L9,16 L9,13 L6,13 L6,11 L9,11 L9,8 L11,8 L11,11 L14,11 L14,13 Z" id="path-1"></path>
    </defs>
    <g id="내역관리" stroke="none" stroke-width="1" fill="none" fill-rule="evenodd">
        <g id="01_내역관리-페이지" transform="translate(-1355.000000, -850.000000)">
            <g id="list" transform="translate(320.000000, 338.000000)">
                <g id="Rec" transform="translate(1023.000000, 13.000000)">
                    <g id="01" transform="translate(0.000000, 491.000000)">
                        <g id="icon_video" transform="translate(12.000000, 8.000000)">
                            <rect id="tr" x="0" y="0" width="24" height="24"></rect>
                            <mask id="mask-2" fill="white">
                                <use xlink:href="#path-1"></use>
                            </mask>
                            <use id="icon/av/video_call_24px" fill="#757F91" fill-rule="nonzero" xlink:href="#path-1"></use>
                        </g>
                    </g>
                </g>
            </g>
        </g>
    </g>
</svg>