<?xml version="1.0" encoding="UTF-8"?>
<svg width="18px" height="18px" viewBox="0 0 18 18" version="1.1" xmlns="http://www.w3.org/2000/svg" xmlns:xlink="http://www.w3.org/1999/xlink">
    <title>199B73AD-8CD3-41FE-AC8F-52A1226AAE13@1.00x</title>
    <g id="Remote_part02" stroke="none" stroke-width="1" fill="none" fill-rule="evenodd">
        <g id="2.0.원격협업-화면_GNB소스-정리_01" transform="translate(-564.000000, -933.000000)">
            <g id="frame_list-copy" transform="translate(32.000000, 925.000000)">
                <g id="03.frame" transform="translate(380.000000, 0.000000)">
                    <g id="icon" transform="translate(8.000000, 8.000000)">
                        <g id="icon_volume" transform="translate(144.000000, 0.000000)">
                            <rect id="tr" x="0" y="0" width="18" height="18"></rect>
                            <g id="Group-3" transform="translate(2.250000, 2.250000)" fill="#FFFFFF" fill-rule="nonzero">
                                <path d="M7.79166667,4.00704545 L7.79166667,5.58920455 L9.52708333,7.34318182 C9.54833333,7.2 9.5625,7.04965909 9.5625,6.89215909 C9.5625,5.625 8.84,4.53681818 7.79166667,4.00704545 Z M11.3333333,6.89215909 C11.3333333,7.56511364 11.1916667,8.19511364 10.9508333,8.78215909 L12.0204167,9.86318182 C12.4879167,8.97545455 12.75,7.96602273 12.75,6.89215909 C12.75,3.82806818 10.6320833,1.26511364 7.79166667,0.613636364 L7.79166667,2.08840909 C9.83875,2.70409091 11.3333333,4.62272727 11.3333333,6.89215909 Z M0.899583333,0.448977273 L0,1.35818182 L3.35041667,4.74443182 L0,4.74443182 L0,9.03988636 L2.83333333,9.03988636 L6.375,12.6194318 L6.375,7.80136364 L9.38541667,10.8439773 C8.91083333,11.21625 8.37958333,11.5097727 7.79166667,11.68875 L7.79166667,13.1635227 C8.76916667,12.9415909 9.65458333,12.4834091 10.4054167,11.8677273 L11.8504167,13.3353409 L12.75,12.4261364 L6.375,5.98295455 L0.899583333,0.448977273 Z M6.375,1.16488636 L4.89458333,2.66113636 L6.375,4.15738636 L6.375,1.16488636 Z" id="Shape"></path>
                                <path d="M0,4.74443182 L0,9.03988636 L2.83333333,9.03988636 L6.375,12.6194318 L6.375,1.16488636 L2.83333333,4.74443182 L0,4.74443182 Z M9.5625,6.89215909 C9.5625,5.625 8.84,4.53681818 7.79166667,4.00704545 L7.79166667,9.77011364 C8.84,9.2475 9.5625,8.15931818 9.5625,6.89215909 Z M7.79166667,0.613636364 L7.79166667,2.08840909 C9.83875,2.70409091 11.3333333,4.62272727 11.3333333,6.89215909 C11.3333333,9.16159091 9.83875,11.0802273 7.79166667,11.6959091 L7.79166667,13.1706818 C10.6320833,12.5192045 12.75,9.95625 12.75,6.89215909 C12.75,3.82806818 10.6320833,1.26511364 7.79166667,0.613636364 Z" id="Shape"></path>
                            </g>
                        </g>
                    </g>
                </g>
            </g>
        </g>
    </g>
</svg>