<?xml version="1.0" encoding="UTF-8"?>
<svg width="64px" height="64px" viewBox="0 0 64 64" version="1.1" xmlns="http://www.w3.org/2000/svg" xmlns:xlink="http://www.w3.org/1999/xlink">
    <title>icon_user_profile</title>
    <defs>
        <path d="M32,64 C56.2086957,64 64,56.2086957 64,32 C64,7.79130435 56.2086957,2.69209309e-15 32,0 C7.79130435,-2.69209309e-15 1.48235503e-15,7.79130435 0,32 C1.48235508e-15,56.2086957 7.79130435,64 32,64 Z" id="path-1"></path>
    </defs>
    <g id="Page-1" stroke="none" stroke-width="1" fill="none" fill-rule="evenodd">
        <g id="user-profile" transform="translate(-8.000000, -8.000000)">
            <g id="Group-3">
                <g transform="translate(8.000000, 8.000000)">
                    <g>
                        <mask id="mask-2" fill="white">
                            <use xlink:href="#path-1"></use>
                        </mask>
                        <g id="Combined-Shape"></g>
                        <path d="M44.8,20.2666667 C44.8,27.3493333 39.0826667,33.0666667 32,33.0666667 C24.9173333,33.0666667 19.2,27.3493333 19.2,20.2666667 C19.2,13.184 24.9173333,7.46666667 32,7.46666667 C39.0826667,7.46666667 44.8,13.184 44.8,20.2666667 Z" id="Path" fill="#C7C7C7" mask="url(#mask-2)"></path>
                        <path d="M5.33333333,50.2928243 C7.16171875,40.7614299 23.1111111,39.4666667 32,39.4666667 C40.8888889,39.4666667 56.89375,41.1799195 58.6666667,50.2928243 C59.8486111,56.3680942 61.6263889,65.7667824 64,78.4888889 L0,78.4888889 C2.33663194,66.0457755 4.11440972,56.6470873 5.33333333,50.2928243 Z" id="Path" fill="#C7C7C7" mask="url(#mask-2)"></path>
                    </g>
                </g>
            </g>
        </g>
    </g>
</svg>