<?xml version="1.0" encoding="UTF-8"?>
<svg width="54px" height="54px" viewBox="0 0 54 54" version="1.1" xmlns="http://www.w3.org/2000/svg" xmlns:xlink="http://www.w3.org/1999/xlink">
    <title>7D77CEEA-415A-4BA0-B350-80F8D8F530A6@2x</title>
    <defs>
        <path d="M19.4285714,38.8571429 C34.1267081,38.8571429 38.8571429,34.1267081 38.8571429,19.4285714 C38.8571429,4.73043478 34.1267081,1.24195088e-14 19.4285714,1.07850237e-14 C4.73043478,9.15053858e-15 5.21401074e-15,4.73043478 4.31400947e-15,19.4285714 C5.21401077e-15,34.1267081 4.73043478,38.8571429 19.4285714,38.8571429 Z" id="path-1"></path>
    </defs>
    <g id="Remote_Main_Mobile" stroke="none" stroke-width="1" fill="none" fill-rule="evenodd">
        <g id="Resource" transform="translate(-560.000000, -659.000000)">
            <g id="img_profile_collabo" transform="translate(560.000000, 659.000000)">
                <rect id="tr" x="0" y="0" width="54" height="54"></rect>
                <g id="user-profile_cowork" transform="translate(3.000000, 3.000000)">
                    <g id="Group">
                        <rect id="tr" x="0" y="0" width="48" height="48"></rect>
                        <path d="M24,48 C42.1565217,48 48,42.1565217 48,24 C48,5.84347826 42.1565217,2.01906981e-15 24,0 C5.84347826,-2.01906981e-15 1.11176627e-15,5.84347826 0,24 C1.11176631e-15,42.1565217 5.84347826,48 24,48 Z" id="ic_user-profile_bg" fill="#616872"></path>
                    </g>
                    <g transform="translate(4.571429, 4.571429)" id="Group-3">
                        <mask id="mask-2" fill="white">
                            <use xlink:href="#path-1"></use>
                        </mask>
                        <g id="Combined-Shape"></g>
                        <g id="Group-4" opacity="0.600000024" mask="url(#mask-2)" fill="#BCC1C7">
                            <g transform="translate(30.942461, 24.843408) rotate(-11.000000) translate(-30.942461, -24.843408) translate(18.942461, 11.700551)" id="Combined-Shape">
                                <path d="M11.8392857,11.4800595 C15.0014881,11.4800595 20.6951817,12.1131473 21.3258929,15.4805833 C21.746367,17.7255406 22.3788074,21.1985803 23.2232143,25.8997024 L0.455357143,25.8997024 C1.28660874,21.3016749 1.91904922,17.8286352 2.35267857,15.4805833 C3.0031226,11.9585054 8.67708333,11.4800595 11.8392857,11.4800595 Z M11.8392857,0.0961309524 C14.3589286,0.0961309524 16.3928571,2.13005952 16.3928571,4.64970238 C16.3928571,7.16934524 14.3589286,9.20327381 11.8392857,9.20327381 C9.31964286,9.20327381 7.28571429,7.16934524 7.28571429,4.64970238 C7.28571429,2.13005952 9.31964286,0.0961309524 11.8392857,0.0961309524 Z"></path>
                            </g>
                        </g>
                        <g id="Group-4" mask="url(#mask-2)" fill="#E9ECF0">
                            <g transform="translate(11.283865, 23.177320) rotate(6.000000) translate(-11.283865, -23.177320) translate(-3.001849, 7.177320)" id="Path">
                                <path d="M20.1875,5.78809524 C20.1875,8.93764881 17.6450893,11.4800595 14.4955357,11.4800595 C11.3459821,11.4800595 8.80357143,8.93764881 8.80357143,5.78809524 C8.80357143,2.63854167 11.3459821,0.0961309524 14.4955357,0.0961309524 C17.6450893,0.0961309524 20.1875,2.63854167 20.1875,5.78809524 Z"></path>
                                <path d="M2.7953869,19.3585131 C3.59760121,15.0949452 10.5954861,14.5157738 14.4955357,14.5157738 C18.3955853,14.5157738 25.4178074,15.2821433 26.1956845,19.3585131 C26.7142692,22.076093 27.4942792,26.2802989 28.5357143,31.971131 L0.455357143,31.971131 C1.48056745,26.4050976 2.26057737,22.2008917 2.7953869,19.3585131 Z"></path>
                            </g>
                        </g>
                    </g>
                </g>
            </g>
        </g>
    </g>
</svg>