<?xml version="1.0" encoding="UTF-8"?>
<svg width="64px" height="64px" viewBox="0 0 64 64" version="1.1" xmlns="http://www.w3.org/2000/svg" xmlns:xlink="http://www.w3.org/1999/xlink">
    <title>icon_user_remote</title>
    <defs>
        <path d="M32,64 C56.2086957,64 64,56.2086957 64,32 C64,7.79130435 56.2086957,2.04556615e-14 32,1.77635684e-14 C7.79130435,1.50714753e-14 8.58778239e-15,7.79130435 7.10542736e-15,32 C8.58778244e-15,56.2086957 7.79130435,64 32,64 Z" id="path-1"></path>
        <linearGradient x1="-49.3644435%" y1="56.0280789%" x2="33.9395854%" y2="56.0280789%" id="linearGradient-3">
            <stop stop-color="#808892" offset="0%"></stop>
            <stop stop-color="#F6F7F7" offset="86.7372255%"></stop>
            <stop stop-color="#FFFFFF" offset="100%"></stop>
        </linearGradient>
    </defs>
    <g id="Page-1" stroke="none" stroke-width="1" fill="none" fill-rule="evenodd">
        <g id="user-profile_2-copy" transform="translate(-8.000000, -8.000000)">
            <g id="user-profile-copy">
                <g id="user-profile" transform="translate(8.000000, 8.000000)">
                    <g id="Group-3">
                        <mask id="mask-2" fill="white">
                            <use xlink:href="#path-1"></use>
                        </mask>
                        <g id="Combined-Shape"></g>
                        <g id="Group-4" opacity="0.600000024" mask="url(#mask-2)" fill="url(#linearGradient-3)">
                            <g transform="translate(50.676150, 40.824705) rotate(-11.000000) translate(-50.676150, -40.824705) translate(31.176150, 19.324705)" id="Combined-Shape" opacity="0.6">
                                <path d="M35.125,25.4974313 C35.8175456,29.195008 36.8592122,34.9153087 38.25,42.6583333 L0.75,42.6583333 C2.11912028,35.0851115 3.16078695,29.3648109 3.875,25.4974313 C4.92983774,19.7856091 14.0060759,18.9337669 19.2567231,18.9089083 L19.5,18.9083333 C24.7083333,18.9083333 34.0861816,19.9510662 35.125,25.4974313 Z M19.5,0.158333333 C23.65,0.158333333 27,3.50833333 27,7.65833333 C27,11.8083333 23.65,15.1583333 19.5,15.1583333 C15.35,15.1583333 12,11.8083333 12,7.65833333 C12,3.50833333 15.35,0.158333333 19.5,0.158333333 Z"></path>
                            </g>
                        </g>
                        <g id="Group-4" mask="url(#mask-2)" fill="#C7C7C7">
                            <g transform="translate(18.540568, 38.317589) rotate(6.000000) translate(-18.540568, -38.317589) translate(-4.959432, 11.817589)" id="Path">
                                <path d="M33.25,9.53333333 C33.25,14.7208333 29.0625,18.9083333 23.875,18.9083333 C18.6875,18.9083333 14.5,14.7208333 14.5,9.53333333 C14.5,4.34583333 18.6875,0.158333333 23.875,0.158333333 C29.0625,0.158333333 33.25,4.34583333 33.25,9.53333333 Z"></path>
                                <path d="M4.60416667,31.8846098 C5.92546082,24.8622627 17.4513889,23.9083333 23.875,23.9083333 C30.2986111,23.9083333 41.864624,25.1705889 43.1458333,31.8846098 C43.9999729,36.3606237 45.2846951,43.2851982 47,52.6583333 L0.75,52.6583333 C2.43858168,43.4907491 3.7233039,36.5661745 4.60416667,31.8846098 Z"></path>
                            </g>
                        </g>
                    </g>
                </g>
            </g>
        </g>
    </g>
</svg>