<?xml version="1.0" encoding="UTF-8"?>
<svg width="30px" height="30px" viewBox="0 0 30 30" version="1.1" xmlns="http://www.w3.org/2000/svg" xmlns:xlink="http://www.w3.org/1999/xlink">
    <title>B492D8DB-4B66-46CC-8323-3582279363CE@1x</title>
    <defs>
        <path d="M12,24 C21.0782609,24 24,21.0782609 24,12 C24,2.92173913 21.0782609,1.00953491e-15 12,0 C2.92173913,-1.00953491e-15 5.55883137e-16,2.92173913 0,12 C5.55883156e-16,21.0782609 2.92173913,24 12,24 Z" id="path-1"></path>
    </defs>
    <g id="symbol" stroke="none" stroke-width="1" fill="none" fill-rule="evenodd">
        <g id="user-profile">
            <g id="bg">
                <rect id="tr" x="0" y="0" width="30" height="30"></rect>
                <path d="M15,30 C26.3478261,30 30,26.3478261 30,15 C30,3.65217391 26.3478261,3.92645389e-15 15,2.66453526e-15 C3.65217391,1.40261663e-15 3.35938918e-15,3.65217391 2.66453526e-15,15 C3.3593892e-15,26.3478261 3.65217391,30 15,30 Z" id="icon_bg" fill="#3E454F"></path>
            </g>
            <g transform="translate(3.000000, 3.000000)" id="Group-3">
                <mask id="mask-2" fill="white">
                    <use xlink:href="#path-1"></use>
                </mask>
                <g id="Combined-Shape"></g>
                <path d="M16.8,7.6 C16.8,10.256 14.656,12.4 12,12.4 C9.344,12.4 7.2,10.256 7.2,7.6 C7.2,4.944 9.344,2.8 12,2.8 C14.656,2.8 16.8,4.944 16.8,7.6 Z" id="Path" fill="#BCC1C7" mask="url(#mask-2)"></path>
                <path d="M2,18.8598091 C2.68564453,15.2855362 8.66666667,14.8 12,14.8 C15.3333333,14.8 21.3351562,15.4424698 22,18.8598091 C22.4432292,21.1380353 23.1098958,24.6625434 24,29.4333333 L0,29.4333333 C0.876236979,24.7671658 1.54290365,21.2426577 2,18.8598091 Z" id="Path" fill="#BCC1C7" mask="url(#mask-2)"></path>
            </g>
        </g>
    </g>
</svg>