<?xml version="1.0" encoding="UTF-8"?>
<svg width="40px" height="40px" viewBox="0 0 40 40" version="1.1" xmlns="http://www.w3.org/2000/svg" xmlns:xlink="http://www.w3.org/1999/xlink">
    <title>8512EFF2-DD33-48E2-BDE6-CA1D536BCA8D@1x</title>
    <defs>
        <path d="M16,32 C28.1043478,32 32,28.1043478 32,16 C32,3.89565217 28.1043478,1.34604654e-15 16,0 C3.89565217,-1.34604654e-15 7.41177516e-16,3.89565217 0,16 C7.41177541e-16,28.1043478 3.89565217,32 16,32 Z" id="path-1"></path>
    </defs>
    <g id="symbol" stroke="none" stroke-width="1" fill="none" fill-rule="evenodd">
        <g id="user-profile">
            <g id="bg">
                <rect id="tr" x="0" y="0" width="40" height="40"></rect>
                <path d="M20,40 C35.1304348,40 40,35.1304348 40,20 C40,4.86956522 35.1304348,5.23527186e-15 20,3.55271368e-15 C4.86956522,1.8701555e-15 4.47918557e-15,4.86956522 3.55271368e-15,20 C4.47918561e-15,35.1304348 4.86956522,40 20,40 Z" id="icon_bg" fill="#616872"></path>
            </g>
            <g transform="translate(4.000000, 4.000000)" id="Group-3">
                <mask id="mask-2" fill="white">
                    <use xlink:href="#path-1"></use>
                </mask>
                <g id="Combined-Shape"></g>
                <path d="M22.4,10.1333333 C22.4,13.6746667 19.5413333,16.5333333 16,16.5333333 C12.4586667,16.5333333 9.6,13.6746667 9.6,10.1333333 C9.6,6.592 12.4586667,3.73333333 16,3.73333333 C19.5413333,3.73333333 22.4,6.592 22.4,10.1333333 Z" id="Path" fill="#E9ECF0" mask="url(#mask-2)"></path>
                <path d="M2.66666667,25.1464122 C3.58085938,20.3807149 11.5555556,19.7333333 16,19.7333333 C20.4444444,19.7333333 28.446875,20.5899597 29.3333333,25.1464122 C29.9243056,28.1840471 30.8131944,32.8833912 32,39.2444444 L0,39.2444444 C1.16831597,33.0228877 2.05720486,28.3235436 2.66666667,25.1464122 Z" id="Path" fill="#E9ECF0" mask="url(#mask-2)"></path>
            </g>
        </g>
    </g>
</svg>