<?xml version="1.0" encoding="UTF-8"?>
<svg width="432px" height="206px" viewBox="0 0 432 206" version="1.1" xmlns="http://www.w3.org/2000/svg" xmlns:xlink="http://www.w3.org/1999/xlink">
    <title>6D06AF97-C9C9-4869-9798-718FF9C9F2DC@1x</title>
    <defs>
        <filter x="-14.5%" y="-22.6%" width="129.0%" height="145.2%" filterUnits="objectBoundingBox" id="filter-1">
            <feOffset dx="0" dy="6" in="SourceAlpha" result="shadowOffsetOuter1"></feOffset>
            <feGaussianBlur stdDeviation="6" in="shadowOffsetOuter1" result="shadowBlurOuter1"></feGaussianBlur>
            <feColorMatrix values="0 0 0 0 0.0588235294   0 0 0 0 0.458823529   0 0 0 0 0.960784314  0 0 0 0.3 0" type="matrix" in="shadowBlurOuter1" result="shadowMatrixOuter1"></feColorMatrix>
            <feMerge>
                <feMergeNode in="shadowMatrixOuter1"></feMergeNode>
                <feMergeNode in="SourceGraphic"></feMergeNode>
            </feMerge>
        </filter>
        <polygon id="path-2" points="0 0.723 114.5196 0.723 114.5196 38.53 0 38.53"></polygon>
    </defs>
    <g id="Design_v-2.2" stroke="none" stroke-width="1" fill="none" fill-rule="evenodd">
        <g id="RAS_0102-_협업-내역_리스트_리스트-없음-" transform="translate(-744.000000, -550.000000)">
            <g id="list" transform="translate(320.000000, 446.000000)">
                <g id="image_search" transform="translate(424.000000, 104.000000)">
                    <rect id="tr" x="0" y="0" width="432" height="206"></rect>
                    <g id="image" filter="url(#filter-1)" transform="translate(96.000000, 37.000000)">
                        <path d="M129.6191,40.6193 C111.4881,58.7503 111.4881,88.2503 129.6191,106.3813 C139.4041,116.1663 152.5001,120.6603 165.3341,119.8833 C156.7521,118.0143 148.5851,113.7603 141.9121,107.0883 C123.3621,88.5373 123.3621,58.4633 141.9121,39.9123 C148.5831,33.2423 156.7471,28.9883 165.3271,27.1173 C164.3861,27.0603 163.4431,27.0213 162.5001,27.0213 C150.5921,27.0213 138.6841,31.5543 129.6191,40.6193" id="Fill-1" fill="#DEE8FF"></path>
                        <path d="M196.1699,113.8518 L200.8999,118.5818 L203.0679,116.4148 L198.4529,111.7988 C197.7069,112.5088 196.9459,113.1948 196.1699,113.8518" id="Fill-3" fill="#DEE8FF"></path>
                        <path d="M200.9004,121.4104 L200.7234,121.5884 L229.7144,150.5794 C231.6644,152.5284 234.8364,152.5284 236.7864,150.5794 C236.8624,150.5024 236.9164,150.4134 236.9874,150.3324 L204.4824,117.8284 L200.9004,121.4104 Z" id="Fill-5" fill="#DEE8FF"></path>
                        <path d="M198.4531,111.799 L203.0681,116.414 L204.7891,114.694 L200.1781,110.081 C199.9161,110.354 199.6671,110.632 199.3991,110.9 C199.0901,111.209 198.7681,111.499 198.4531,111.799" id="Fill-7" fill="#A8CBFF"></path>
                        <path d="M207.7949,114.5168 L207.6169,114.6938 L204.4819,117.8288 L236.9869,150.3318 C238.7129,148.3708 238.6579,145.3808 236.7859,143.5078 L207.7949,114.5168 Z" id="Fill-9" fill="#A8CBFF"></path>
                        <path d="M198.6973,105.7727 C198.2553,106.2677 197.7953,106.7517 197.3293,107.2327 C197.1483,107.4187 196.9783,107.6117 196.7953,107.7947 C196.4013,108.1887 195.9963,108.5607 195.5923,108.9377 C194.8403,109.6417 194.0743,110.3247 193.2893,110.9707 C192.7673,111.3997 192.2363,111.8097 191.7033,112.2127 C183.0933,118.7147 172.8003,121.9777 162.5003,121.9777 C150.0803,121.9777 137.6603,117.2507 128.2053,107.7947 C109.2953,88.8847 109.2953,58.1157 128.2053,39.2057 C147.1153,20.2947 177.8853,20.2947 196.7953,39.2057 C215.0463,57.4567 215.6763,86.7517 198.6973,105.7727 M197.9853,38.0677 C188.1403,28.2227 175.2083,23.2997 162.2763,23.2997 C149.3443,23.2997 136.4123,28.2227 126.5673,38.0677 C106.8783,57.7577 106.8783,89.7947 126.5673,109.4857 C144.7303,127.6487 173.3933,129.0427 193.1853,113.6967 C193.7143,113.2877 194.2363,112.8677 194.7523,112.4337 C195.5313,111.7797 196.2923,111.0937 197.0393,110.3847 C197.3543,110.0847 197.6763,109.7947 197.9853,109.4857 C198.2533,109.2177 198.5033,108.9397 198.7633,108.6677 C199.2263,108.1837 199.6823,107.6957 200.1223,107.1977 C217.6363,87.3877 216.9313,57.0137 197.9853,38.0677" id="Fill-11" fill="#FFFFFF"></path>
                        <g id="Group-15" transform="translate(0.000000, 57.040000)">
                            <mask id="mask-3" fill="white">
                                <use xlink:href="#path-2"></use>
                            </mask>
                            <g id="Clip-14"></g>
                            <path d="M108.9766,27.05 C108.9766,27.863 108.3166,28.523 107.5026,28.523 L38.1686,28.523 C37.3556,28.523 36.6966,27.863 36.6966,27.05 L36.6966,23.323 C36.6966,22.51 37.3556,21.851 38.1686,21.851 L107.5026,21.851 C108.3166,21.851 108.9766,22.51 108.9766,23.323 L108.9766,27.05 Z M31.1356,29.383 C31.1356,30.75 30.0276,31.859 28.6606,31.859 L23.9996,31.859 L9.1486,31.859 C7.7806,31.859 6.6716,30.75 6.6716,29.383 L6.6716,9.871 C6.6716,8.503 7.7806,7.395 9.1486,7.395 L23.9996,7.395 L28.6606,7.395 C30.0276,7.395 31.1356,8.503 31.1356,9.871 L31.1356,29.383 Z M36.6966,12.204 C36.6966,11.39 37.3556,10.731 38.1686,10.731 L59.6876,10.731 C60.4996,10.731 61.1606,11.39 61.1606,12.204 L61.1606,15.93 C61.1606,16.743 60.4996,17.403 59.6876,17.403 L38.1686,17.403 C37.3556,17.403 36.6966,16.743 36.6966,15.93 L36.6966,12.204 Z M112.3006,0.723 L23.9996,0.723 L6.0906,0.723 C2.7266,0.723 -0.0004,3.449 -0.0004,6.814 L-0.0004,32.441 C-0.0004,35.804 2.7266,38.53 6.0906,38.53 L23.9996,38.53 L114.5196,38.53 C109.0976,26.616 108.3636,13.082 112.3006,0.723 L112.3006,0.723 Z" id="Fill-13" fill="#F8F8FA" mask="url(#mask-3)"></path>
                        </g>
                        <path d="M97.1602,27.9699 C97.1602,28.7829 96.5002,29.4429 95.6872,29.4429 L74.1692,29.4429 C73.3552,29.4429 72.6962,28.7829 72.6962,27.9699 L72.6962,24.2439 C72.6962,23.4299 73.3552,22.7709 74.1692,22.7709 L95.6872,22.7709 C96.5002,22.7709 97.1602,23.4299 97.1602,24.2439 L97.1602,27.9699 Z M67.1362,38.6059 L67.1362,41.4229 C67.1362,42.7899 66.0272,43.8989 64.6602,43.8989 L45.1482,43.8989 C43.7802,43.8989 42.6722,42.7899 42.6722,41.4229 L42.6722,38.6059 L42.6722,21.9109 C42.6722,20.5429 43.7802,19.4349 45.1482,19.4349 L64.6602,19.4349 C66.0272,19.4349 67.1362,20.5429 67.1362,21.9109 L67.1362,38.6059 Z M205.9092,12.7629 L42.0912,12.7629 C38.7262,12.7629 36.0002,15.4899 36.0002,18.8539 L36.0002,38.6059 L36.0002,44.4809 C36.0002,47.8439 38.7262,50.5709 42.0912,50.5709 L115.2172,50.5709 C116.9432,47.0539 119.0842,43.6959 121.6452,40.5629 L74.1692,40.5629 C73.3552,40.5629 72.6962,39.9039 72.6962,39.0899 L72.6962,38.6059 L72.6962,35.3639 C72.6962,34.5499 73.3552,33.8909 74.1692,33.8909 L128.1622,33.8909 C148.7642,16.2439 179.9022,17.1549 199.3992,36.6539 C200.0362,37.2899 200.6452,37.9439 201.2422,38.6059 C204.3452,42.0429 206.9132,45.7949 208.9472,49.7539 C210.7692,48.7009 212.0002,46.7369 212.0002,44.4809 L212.0002,38.6059 L212.0002,18.8539 C212.0002,15.4899 209.2732,12.7629 205.9092,12.7629 L205.9092,12.7629 Z" id="Fill-16" fill="#F8F8FA"></path>
                        <path d="M50.4014,28.2658 C50.4144,27.1188 50.8044,26.2108 51.5714,25.5428 C52.3384,24.8748 53.3544,24.5418 54.6174,24.5418 C55.9194,24.5418 56.9334,24.8718 57.6624,25.5338 C58.3904,26.1948 58.7554,27.1188 58.7554,28.3048 C58.7554,29.3618 58.2624,30.4018 57.2784,31.4258 L56.0844,32.6018 C55.6564,33.0878 55.4364,33.7978 55.4224,34.7318 L53.2174,34.7318 C53.2174,33.8698 53.3254,33.1818 53.5394,32.6698 C53.7524,32.1588 54.1744,31.5958 54.8064,30.9838 C55.4374,30.3698 55.8384,29.9348 56.0054,29.6748 C56.2644,29.2818 56.3944,28.8548 56.3944,28.3948 C56.3944,27.7868 56.2444,27.3238 55.9424,27.0028 C55.6414,26.6838 55.2004,26.5238 54.6174,26.5238 C54.0594,26.5238 53.6114,26.6798 53.2714,26.9928 C52.9314,27.3058 52.7614,27.7298 52.7614,28.2658 L50.4014,28.2658 Z M53.0524,37.7468 C53.0524,37.3668 53.1724,37.0588 53.4124,36.8238 C53.6524,36.5878 53.9754,36.4698 54.3834,36.4698 C54.7974,36.4698 55.1254,36.5908 55.3654,36.8328 C55.6044,37.0758 55.7244,37.3798 55.7244,37.7468 C55.7244,38.0878 55.6104,38.3708 55.3964,38.6058 L67.1354,38.6058 L67.1354,21.9118 C67.1354,20.5428 66.0274,19.4348 64.6604,19.4348 L45.1484,19.4348 C43.7804,19.4348 42.6724,20.5428 42.6724,21.9118 L42.6724,38.6058 L53.3774,38.6058 C53.1654,38.3708 53.0524,38.0878 53.0524,37.7468 L53.0524,37.7468 Z" id="Fill-18" fill="#306FE2"></path>
                        <path d="M45.1484,43.8986 L64.6604,43.8986 C66.0274,43.8986 67.1354,42.7906 67.1354,41.4226 L67.1354,38.6056 L55.3964,38.6056 C55.3864,38.6156 55.3844,38.6276 55.3754,38.6376 C55.1414,38.8766 54.8114,38.9956 54.3834,38.9956 C53.9564,38.9956 53.6274,38.8766 53.3974,38.6376 C53.3884,38.6276 53.3844,38.6156 53.3774,38.6056 L42.6714,38.6056 L42.6714,41.4226 C42.6714,42.7906 43.7804,43.8986 45.1484,43.8986" id="Fill-20" fill="#306FE2"></path>
                        <path d="M95.6875,22.7707 L74.1685,22.7707 C73.3555,22.7707 72.6965,23.4297 72.6965,24.2447 L72.6965,27.9697 C72.6965,28.7837 73.3555,29.4427 74.1685,29.4427 L95.6875,29.4427 C96.4995,29.4427 97.1605,28.7837 97.1605,27.9697 L97.1605,24.2447 C97.1605,23.4297 96.4995,22.7707 95.6875,22.7707" id="Fill-22" fill="#A8CBFF"></path>
                        <path d="M54.3838,36.4699 C53.9758,36.4699 53.6528,36.5879 53.4118,36.8239 C53.1728,37.0589 53.0528,37.3659 53.0528,37.7469 C53.0528,38.0879 53.1648,38.3709 53.3768,38.6059 C53.3848,38.6159 53.3888,38.6279 53.3978,38.6379 C53.6278,38.8759 53.9558,38.9949 54.3838,38.9949 C54.8118,38.9949 55.1418,38.8759 55.3748,38.6379 C55.3848,38.6279 55.3868,38.6159 55.3968,38.6059 C55.6108,38.3709 55.7248,38.0879 55.7248,37.7469 C55.7248,37.3799 55.6048,37.0749 55.3648,36.8329 C55.1248,36.5909 54.7978,36.4699 54.3838,36.4699" id="Fill-24" fill="#FFFFFF"></path>
                        <path d="M57.6621,25.5334 C56.9331,24.8724 55.9191,24.5424 54.6171,24.5424 C53.3541,24.5424 52.3391,24.8754 51.5711,25.5434 C50.8051,26.2114 50.4141,27.1184 50.4011,28.2654 L52.7621,28.2654 C52.7621,27.7294 52.9321,27.3054 53.2711,26.9924 C53.6111,26.6794 54.0591,26.5234 54.6171,26.5234 C55.2001,26.5234 55.6411,26.6834 55.9421,27.0034 C56.2441,27.3234 56.3941,27.7874 56.3941,28.3944 C56.3941,28.8544 56.2651,29.2814 56.0061,29.6754 C55.8381,29.9344 55.4371,30.3704 54.8071,30.9834 C54.1751,31.5954 53.7521,32.1584 53.5391,32.6704 C53.3251,33.1814 53.2181,33.8694 53.2181,34.7314 L55.4231,34.7314 C55.4361,33.7984 55.6561,33.0884 56.0841,32.6014 L57.2781,31.4264 C58.2631,30.4014 58.7551,29.3614 58.7551,28.3044 C58.7551,27.1184 58.3911,26.1944 57.6621,25.5334" id="Fill-26" fill="#FFFFFF"></path>
                        <path d="M21.2783,76.426 L20.0843,77.602 C19.6563,78.088 19.4363,78.798 19.4233,79.732 L17.2173,79.732 C17.2173,78.869 17.3253,78.182 17.5393,77.67 C17.7523,77.158 18.1743,76.596 18.8063,75.984 C19.4373,75.37 19.8383,74.935 20.0063,74.675 C20.2643,74.281 20.3943,73.855 20.3943,73.395 C20.3943,72.787 20.2443,72.323 19.9423,72.003 C19.6413,71.684 19.2003,71.524 18.6173,71.524 C18.0593,71.524 17.6113,71.68 17.2713,71.992 C16.9313,72.306 16.7613,72.73 16.7613,73.266 L14.4013,73.266 C14.4143,72.118 14.8043,71.211 15.5713,70.543 C16.3393,69.875 17.3543,69.542 18.6173,69.542 C19.9193,69.542 20.9333,69.872 21.6623,70.533 C22.3903,71.195 22.7553,72.118 22.7553,73.305 C22.7553,74.362 22.2623,75.402 21.2783,76.426 M19.3753,83.638 C19.1413,83.876 18.8113,83.995 18.3833,83.995 C17.9563,83.995 17.6283,83.876 17.3973,83.638 C17.1683,83.399 17.0523,83.103 17.0523,82.747 C17.0523,82.366 17.1733,82.059 17.4123,81.823 C17.6523,81.588 17.9753,81.47 18.3833,81.47 C18.7983,81.47 19.1253,81.591 19.3653,81.833 C19.6043,82.075 19.7243,82.38 19.7243,82.747 C19.7243,83.103 19.6073,83.399 19.3753,83.638 M28.6603,64.435 L24.0003,64.435 L9.1483,64.435 C7.7803,64.435 6.6723,65.543 6.6723,66.911 L6.6723,86.423 C6.6723,87.79 7.7803,88.899 9.1483,88.899 L24.0003,88.899 L28.6603,88.899 C30.0273,88.899 31.1353,87.79 31.1353,86.423 L31.1353,66.911 C31.1353,65.543 30.0273,64.435 28.6603,64.435" id="Fill-28" fill="#306FE2"></path>
                        <path d="M38.1689,74.4426 L59.6879,74.4426 C60.4999,74.4426 61.1599,73.7836 61.1599,72.9696 L61.1599,69.2446 C61.1599,68.4296 60.4999,67.7706 59.6879,67.7706 L38.1689,67.7706 C37.3559,67.7706 36.6959,68.4296 36.6959,69.2446 L36.6959,72.9696 C36.6959,73.7836 37.3559,74.4426 38.1689,74.4426" id="Fill-30" fill="#A8CBFF"></path>
                        <path d="M38.1689,85.5627 L107.5029,85.5627 C108.3159,85.5627 108.9769,84.9037 108.9769,84.0897 L108.9769,80.3637 C108.9769,79.5497 108.3159,78.8907 107.5029,78.8907 L38.1689,78.8907 C37.3559,78.8907 36.6959,79.5497 36.6959,80.3637 L36.6959,84.0897 C36.6959,84.9037 37.3559,85.5627 38.1689,85.5627" id="Fill-32" fill="#DEE8FF"></path>
                        <path d="M18.3838,81.4699 C17.9758,81.4699 17.6528,81.5879 17.4118,81.8239 C17.1728,82.0589 17.0528,82.3659 17.0528,82.7469 C17.0528,83.1029 17.1678,83.3989 17.3978,83.6379 C17.6278,83.8759 17.9558,83.9949 18.3838,83.9949 C18.8118,83.9949 19.1418,83.8759 19.3748,83.6379 C19.6078,83.3989 19.7248,83.1029 19.7248,82.7469 C19.7248,82.3799 19.6048,82.0749 19.3648,81.8329 C19.1248,81.5909 18.7978,81.4699 18.3838,81.4699" id="Fill-34" fill="#FFFFFF"></path>
                        <path d="M17.2715,71.9924 C17.6115,71.6804 18.0595,71.5234 18.6175,71.5234 C19.2005,71.5234 19.6415,71.6834 19.9425,72.0034 C20.2445,72.3234 20.3945,72.7874 20.3945,73.3944 C20.3945,73.8544 20.2645,74.2814 20.0055,74.6754 C19.8375,74.9344 19.4375,75.3704 18.8065,75.9834 C18.1745,76.5964 17.7515,77.1584 17.5395,77.6704 C17.3255,78.1814 17.2175,78.8694 17.2175,79.7314 L19.4225,79.7314 C19.4365,78.7984 19.6565,78.0884 20.0845,77.6014 L21.2785,76.4264 C22.2625,75.4014 22.7545,74.3614 22.7545,73.3044 C22.7545,72.1184 22.3905,71.1944 21.6625,70.5334 C20.9335,69.8724 19.9185,69.5424 18.6175,69.5424 C17.3545,69.5424 16.3385,69.8754 15.5715,70.5434 C14.8045,71.2114 14.4145,72.1184 14.4015,73.2654 L16.7615,73.2654 C16.7615,72.7294 16.9315,72.3054 17.2715,71.9924" id="Fill-36" fill="#FFFFFF"></path>
                        <path d="M74.1689,33.8908 C73.3559,33.8908 72.6959,34.5498 72.6959,35.3638 L72.6959,38.6058 L72.6959,39.0898 C72.6959,39.9038 73.3559,40.5628 74.1689,40.5628 L121.6459,40.5628 C122.1869,39.9018 122.7419,39.2478 123.3149,38.6058 C123.9059,37.9418 124.5179,37.2898 125.1529,36.6538 C126.1249,35.6818 127.1349,34.7708 128.1619,33.8908 L74.1689,33.8908 Z" id="Fill-38" fill="#DEE8FF"></path>
                        <path d="M236.9873,150.3322 C236.9163,150.4132 236.8623,150.5022 236.7863,150.5792 C234.8363,152.5282 231.6643,152.5282 229.7153,150.5792 L213.3273,134.1912 L200.7233,121.5882 L200.9003,121.4102 L204.4823,117.8282 L207.6173,114.6932 L207.7953,114.5172 L220.3263,127.0482 L236.7863,143.5082 C238.6583,145.3812 238.7133,148.3712 236.9873,150.3322 M238.2003,142.0942 L221.1563,125.0502 L207.7953,111.6872 L206.2033,113.2792 L201.5403,108.6152 C201.0993,109.1122 200.6403,109.5982 200.1773,110.0812 L204.7893,114.6932 L203.0683,116.4142 L200.9003,118.5822 L196.1703,113.8522 C195.6563,114.2872 195.1363,114.7102 194.6113,115.1212 L199.4863,119.9962 L197.8943,121.5882 L211.3523,135.0452 L228.3003,151.9932 C231.0293,154.7222 235.4703,154.7222 238.2003,151.9932 C238.2753,151.9182 238.3413,151.8362 238.4123,151.7582 C240.9193,149.0152 240.8533,144.7472 238.2003,142.0942" id="Fill-40" fill="#306FE2"></path>
                        <path d="M208.9473,49.7541 C208.3713,50.0871 207.7363,50.3291 207.0613,50.4591 C216.4883,68.5981 214.1793,91.2981 200.1223,107.1971 C199.6823,107.6951 199.2263,108.1841 198.7633,108.6671 C198.5033,108.9401 198.2533,109.2181 197.9853,109.4851 C197.6763,109.7951 197.3543,110.0851 197.0393,110.3851 C196.2923,111.0941 195.5313,111.7791 194.7523,112.4341 C194.2363,112.8671 193.7143,113.2871 193.1853,113.6961 C173.3933,129.0421 144.7303,127.6491 126.5673,109.4851 C122.4043,105.3221 119.1333,100.6041 116.7303,95.5701 C111.0713,83.7171 110.2973,70.1021 114.4013,57.7631 C115.2183,55.3051 116.2443,52.9031 117.4473,50.5701 L115.2173,50.5701 C114.0683,52.9101 113.0823,55.3101 112.3013,57.7631 C108.3633,70.1221 109.0973,83.6561 114.5193,95.5701 C117.0483,101.1281 120.5883,106.3341 125.1533,110.9001 C135.3873,121.1351 148.8323,126.2521 162.2763,126.2521 C173.7173,126.2521 185.1483,122.5321 194.6113,115.1211 C195.1363,114.7101 195.6563,114.2871 196.1703,113.8521 C196.9463,113.1941 197.7073,112.5091 198.4533,111.7991 C198.7683,111.4991 199.0903,111.2091 199.3993,110.9001 C199.6673,110.6321 199.9163,110.3541 200.1773,110.0811 C200.6403,109.5981 201.0993,109.1121 201.5403,108.6151 C216.1723,92.1461 218.6353,68.6111 208.9473,49.7541" id="Fill-42" fill="#306FE2"></path>
                        <path d="M128.1621,33.8908 L131.3221,33.8908 C140.3951,26.8398 151.3321,23.2998 162.2761,23.2998 C175.2081,23.2998 188.1411,28.2228 197.9851,38.0678 C201.7251,41.8078 204.7421,45.9968 207.0611,50.4588 C207.7361,50.3288 208.3711,50.0868 208.9471,49.7538 C206.5211,45.0348 203.3491,40.6028 199.3991,36.6538 C179.9021,17.1548 148.7651,16.2448 128.1621,33.8908" id="Fill-44" fill="#306FE2"></path>
                        <path d="M124.248,40.5627 L121.645,40.5627 C119.084,43.6957 116.943,47.0537 115.217,50.5707 L117.447,50.5707 C119.271,47.0357 121.533,43.6697 124.248,40.5627" id="Fill-46" fill="#306FE2"></path>
                        <path d="M131.3223,33.8908 L128.1623,33.8908 C127.1353,34.7708 126.1253,35.6818 125.1533,36.6538 C123.9003,37.9068 122.7443,39.2188 121.6453,40.5628 L124.2483,40.5628 C124.9903,39.7128 125.7583,38.8768 126.5673,38.0678 C128.0803,36.5538 129.6753,35.1718 131.3223,33.8908" id="Fill-48" fill="#306FE2"></path>
                        <path d="M195.3809,40.6193 C187.0329,32.2713 176.2759,27.7783 165.3269,27.1173 C156.7469,28.9883 148.5829,33.2423 141.9119,39.9123 C123.3619,58.4633 123.3619,88.5373 141.9119,107.0883 C148.5849,113.7603 156.7519,118.0143 165.3339,119.8833 C174.1619,119.3483 182.8629,116.3183 190.2789,110.7893 C190.8159,110.3903 191.3439,109.9743 191.8659,109.5493 C192.6549,108.9043 193.4259,108.2293 194.1809,107.5263 C194.5839,107.1503 194.9879,106.7733 195.3809,106.3813 C195.5649,106.1973 195.7349,106.0053 195.9149,105.8183 C196.3809,105.3383 196.8389,104.8513 197.2789,104.3553 C213.4809,86.1153 212.8529,58.0913 195.3809,40.6193" id="Fill-50" fill="#A8CBFF"></path>
                        <path d="M197.2793,104.3557 C196.8393,104.8517 196.3813,105.3377 195.9153,105.8187 C195.7343,106.0047 195.5643,106.1977 195.3813,106.3807 C194.9883,106.7737 194.5843,107.1507 194.1803,107.5267 C193.4253,108.2297 192.6553,108.9047 191.8663,109.5487 C191.3433,109.9747 190.8153,110.3897 190.2793,110.7897 C182.8633,116.3187 174.1623,119.3487 165.3343,119.8827 C152.5003,120.6607 139.4043,116.1667 129.6193,106.3807 C111.4883,88.2507 111.4883,58.7507 129.6193,40.6197 C138.6843,31.5537 150.5913,27.0217 162.5003,27.0217 C163.4433,27.0217 164.3853,27.0607 165.3273,27.1177 C176.2753,27.7787 187.0333,32.2717 195.3813,40.6197 C212.8523,58.0907 213.4803,86.1157 197.2793,104.3557 M196.7953,39.2057 C177.8843,20.2947 147.1153,20.2947 128.2053,39.2057 C109.2953,58.1157 109.2953,88.8847 128.2053,107.7947 C137.6603,117.2507 150.0803,121.9777 162.5003,121.9777 C172.8003,121.9777 183.0933,118.7147 191.7033,112.2127 C192.2363,111.8097 192.7673,111.3997 193.2893,110.9707 C194.0743,110.3247 194.8403,109.6417 195.5923,108.9377 C195.9963,108.5607 196.4013,108.1887 196.7953,107.7947 C196.9783,107.6117 197.1483,107.4187 197.3293,107.2327 C197.7953,106.7517 198.2553,106.2677 198.6973,105.7727 C215.6763,86.7517 215.0463,57.4567 196.7953,39.2057" id="Fill-52" fill="#306FE2"></path>
                        <path d="M205.9404,0.0002 L40.0594,0.0002 C31.1894,0.0002 24.0004,7.1892 24.0004,16.0602 L24.0004,38.6052 L24.0004,57.7632 L112.3004,57.7632 C113.0824,55.3102 114.0684,52.9102 115.2164,50.5702 L42.0904,50.5702 C38.7264,50.5702 36.0004,47.8442 36.0004,44.4802 L36.0004,38.6052 L36.0004,18.8542 C36.0004,15.4892 38.7264,12.7632 42.0904,12.7632 L205.9094,12.7632 C209.2734,12.7632 212.0004,15.4892 212.0004,18.8542 L212.0004,38.6052 L212.0004,44.4802 C212.0004,46.7362 210.7694,48.7012 208.9474,49.7542 C218.6344,68.6112 216.1714,92.1462 201.5404,108.6152 L206.2034,113.2792 L207.7944,111.6882 L214.1574,118.0512 C218.8344,115.4322 222.0004,110.4362 222.0004,104.6942 L222.0004,38.6052 L222.0004,16.0602 C222.0004,7.1892 214.8104,0.0002 205.9404,0.0002" id="Fill-54" fill="#FFFFFF"></path>
                        <path d="M114.5195,95.5705 L23.9995,95.5705 L23.9995,104.6945 C23.9995,113.1475 30.8525,120.0005 39.3055,120.0005 L137.3945,120.0005 C132.9965,117.6345 128.8615,114.6085 125.1535,110.8995 C120.5875,106.3345 117.0475,101.1285 114.5195,95.5705" id="Fill-56" fill="#FFFFFF"></path>
                        <path d="M194.6113,115.1213 C192.2383,116.9803 189.7413,118.6063 187.1503,120.0003 L199.4823,120.0003 L199.4863,119.9963 L194.6113,115.1213 Z" id="Fill-58" fill="#FFFFFF"></path>
                    </g>
                </g>
            </g>
        </g>
    </g>
</svg>