<?xml version="1.0" encoding="UTF-8"?>
<svg width="160px" height="140px" viewBox="0 0 160 140" version="1.1" xmlns="http://www.w3.org/2000/svg" xmlns:xlink="http://www.w3.org/1999/xlink">
    <title>BBB77B10-ABE4-4AAD-AF44-2CEC515FFBD0@1x</title>
    <defs>
        <filter x="-32.4%" y="-34.7%" width="164.8%" height="169.3%" filterUnits="objectBoundingBox" id="filter-1">
            <feOffset dx="0" dy="6" in="SourceAlpha" result="shadowOffsetOuter1"></feOffset>
            <feGaussianBlur stdDeviation="6" in="shadowOffsetOuter1" result="shadowBlurOuter1"></feGaussianBlur>
            <feColorMatrix values="0 0 0 0 0.0588235294   0 0 0 0 0.458823529   0 0 0 0 0.960784314  0 0 0 0.3 0" type="matrix" in="shadowBlurOuter1" result="shadowMatrixOuter1"></feColorMatrix>
            <feMerge>
                <feMergeNode in="shadowMatrixOuter1"></feMergeNode>
                <feMergeNode in="SourceGraphic"></feMergeNode>
            </feMerge>
        </filter>
    </defs>
    <g id="Design_v-2.2" stroke="none" stroke-width="1" fill="none" fill-rule="evenodd">
        <g id="WSG_0010-_그룹-설정-_리스트-없음" transform="translate(-880.000000, -493.000000)">
            <g id="image_group" transform="translate(860.000000, 493.000000)">
                <g transform="translate(20.000000, 0.000000)">
                    <rect id="tr" x="0" y="0" width="160" height="140"></rect>
                    <g id="Group-12" filter="url(#filter-1)" transform="translate(26.000000, 20.000000)">
                        <path d="M103.133838,47.6101587 C103.962265,47.6101587 104.712265,47.9459451 105.255158,48.4888383 C105.798051,49.0317315 106.133838,49.7817315 106.133838,50.6101587 L106.133838,50.6101587 L106.133838,93.193492 C106.133838,95.0114293 105.396973,96.6572626 104.205624,97.8486116 C103.014275,99.0399607 101.368442,99.7768253 99.5505045,99.7768253 C97.7325672,99.7768253 96.0867338,99.0399607 94.8953848,97.8486116 C93.7040358,96.6572626 92.9671711,95.0114293 92.9671711,93.193492 L92.9671711,93.193492 L92.9671711,47.6101587 Z" id="Rectangle" stroke="#306FE2" stroke-width="2" fill="#A8CBFF"></path>
                        <path d="M80,8 L97,8 C98.1045695,8 99,8.8954305 99,10 L99,100 L99,100 L80,100 L80,8 Z" id="Rectangle" fill="#F8F8FA"></path>
                        <path d="M12.4045177,-4.92642963e-13 L78.8211843,-4.92642963e-13 C79.9257538,-4.9284587e-13 80.8211843,0.8954305 80.8211843,2 L80.8211843,58.1228521 L80.8211843,58.1228521 L10.4045177,58.1228521 L10.4045177,2 C10.4045177,0.8954305 11.2999482,-4.92440057e-13 12.4045177,-4.92642963e-13 Z" id="Rectangle" fill="#FFFFFF"></path>
                        <path d="M38.0038289,31.284566 C38.9396373,31.284566 39.8218434,31.7212555 40.3893149,32.4653748 L40.3893149,32.4653748 L45.9888204,39.8079463 L89.1339881,39.8079463 C90.2385576,39.8079463 91.2385576,40.2556616 91.9624153,40.9795192 C92.6862729,41.7033768 93.1339881,42.7033768 93.1339881,43.8079463 L93.1339881,43.8079463 L93.1339881,92.9617673 C93.1339881,94.7853751 93.8731513,96.4363422 95.0682163,97.6314073 C96.2632814,98.8264723 97.9142484,99.5656354 99.7378563,99.5656354 L99.7378563,99.5656354 L99.97,99.56 L99.9494046,99.5655396 C99.4585429,99.6806974 98.9502674,99.7506517 98.4292095,99.770771 L98.115078,99.7768253 L8,99.7768253 C6.06700338,99.7768253 4.31700338,98.9933236 3.05025253,97.7265728 C1.78350169,96.459822 1,94.709822 1,92.7768253 L1,92.7768253 L1,34.284566 C1,33.4561389 1.33578644,32.7061389 1.87867966,32.1632457 C2.42157288,31.6203524 3.17157288,31.284566 4,31.284566 L4,31.284566 Z" id="Path-5" stroke="#306FE2" stroke-width="2" fill="#DEE8FF"></path>
                        <g id="Shape-2" transform="translate(26.654518, 49.456185)" fill="#A8CBFF" fill-rule="nonzero">
                            <path d="M19.7305333,0 C8.8348,0 0,8.83306667 0,19.7296667 C0,30.6262667 8.83393333,39.4593333 19.7305333,39.4593333 C30.628,39.4593333 39.4610667,30.6262667 39.4610667,19.7296667 C39.4610667,8.83306667 30.628,0 19.7305333,0 Z M19.7305333,6.76606667 C23.3358667,6.76606667 26.2574,9.68846667 26.2574,13.2920667 C26.2574,16.8965333 23.3358667,19.8180667 19.7305333,19.8180667 C16.1269333,19.8180667 13.2054,16.8965333 13.2054,13.2920667 C13.2054,9.68846667 16.1269333,6.76606667 19.7305333,6.76606667 Z M19.7262,35.1676 C16.1304,35.1676 12.8370667,33.8580667 10.2968667,31.6905333 C9.67806667,31.1627333 9.321,30.3888 9.321,29.5767333 C9.321,25.922 12.2789333,22.997 15.9345333,22.997 L23.5282667,22.997 C27.1847333,22.997 30.1314,25.922 30.1314,29.5767333 C30.1314,30.3896667 29.7760667,31.1618667 29.1564,31.6896667 C26.6170667,33.8580667 23.3228667,35.1676 19.7262,35.1676 Z" id="Shape"></path>
                        </g>
                        <rect id="Rectangle" fill="#A8CBFF" x="14.737851" y="5.76960898" width="27.0833333" height="5.41666667" rx="1"></rect>
                        <rect id="Rectangle-Copy-4" fill="#DEE8FF" x="14.737851" y="14.4362757" width="52" height="4.33333333" rx="1"></rect>
                        <path d="M15.737851,22.019609 L55.987851,22.019609 C56.5401358,22.019609 56.987851,22.4673242 56.987851,23.019609 L56.987851,25.3529423 C56.987851,25.9052271 56.5401358,26.3529423 55.987851,26.3529423 L15.737851,26.3529423 C15.1855663,26.3529423 14.737851,25.9052271 14.737851,25.3529423 L14.737851,23.019609 C14.737851,22.4673242 15.1855663,22.019609 15.737851,22.019609 Z" id="Rectangle-Copy-5" fill="#DEE8FF"></path>
                    </g>
                </g>
            </g>
        </g>
    </g>
</svg>