<svg xmlns="http://www.w3.org/2000/svg" xmlns:xlink="http://www.w3.org/1999/xlink" width="120" height="120"><defs><linearGradient id="b" x1="50%" x2="50%" y1="4.913%" y2="98.207%"><stop offset="0%" stop-color="#CDD2DA"/><stop offset="100%" stop-color="#B5B7BC"/></linearGradient><circle id="a" cx="60" cy="60" r="60"/></defs><g fill="none" fill-rule="evenodd"><mask id="c" fill="#fff"><use xlink:href="#a"/></mask><use fill="url(#b)" xlink:href="#a"/><path fill="#EFF1F5" d="M44.439 32.492c2.73-4.667 8.133-6.963 16.208-6.89 12.111.11 18.12 7.14 19.229 9.197 1.108 2.058 4.96 8.396 1.421 19.611.838-.017 3.24-.207 2.838 3.54-.402 3.746-1.569 6.851-2.428 8.757-.86 1.906-1.752 2.387-2.517 2.363-.213 1.25-.935 6.245-6.487 12.005-.044 1.083-.008 2.858.108 5.325.046 1.432.694 2.464 1.944 3.096 1.25.633 9.797 4.482 25.64 11.549a8.959 8.959 0 0 1 3.205 2.231c-1.345 1.655-15.454 19.19-42.105 19.519-17.767.219-32.666-6.174-44.695-19.18 1.171-1.019 1.894-1.632 2.17-1.84.414-.312.662-.448 1.24-.73s24.271-10.712 25.543-11.549c1.271-.836 1.681-.769 1.755-3.096.049-1.552.073-3.327.073-5.325-2.385-1.991-4.58-5.993-6.584-12.005-.772-.175-4.398-2.83-4.655-12.136.126-.901.462-2.625 2.753-2.524-.946-3.123-3.652-10.5-.43-16.288 1.81-3.367 3.735-5.243 5.774-5.63z" mask="url(#c)"/></g></svg>