<?xml version="1.0" encoding="UTF-8"?>
<svg width="34px" height="20px" viewBox="0 0 34 20" version="1.1" xmlns="http://www.w3.org/2000/svg" xmlns:xlink="http://www.w3.org/1999/xlink">
    <!-- Generator: sketchtool 64 (101010) - https://sketch.com -->
    <title>C35F9FD0-658B-4FBE-851B-2C61B4559B0E@1.00x</title>
    <desc>Created with sketchtool.</desc>
    <g id="page" stroke="none" stroke-width="1" fill="none" fill-rule="evenodd">
        <g id="0.0-리소스-파일모음" transform="translate(-55.000000, -410.000000)">
            <g id="usa" transform="translate(55.000000, 410.000000)">
                <g id="국기">
                    <polygon id="Fill-1" fill="#CB001C" points="0 19.5781 33.565 19.5781 33.565 18.0721 0 18.0721"></polygon>
                    <polygon id="Fill-2" fill="#FFFFFF" points="0 18.0721 33.565 18.0721 33.565 16.5661 0 16.5661"></polygon>
                    <polygon id="Fill-3" fill="#CB001C" points="0 16.5671 33.565 16.5671 33.565 15.0621 0 15.0621"></polygon>
                    <polygon id="Fill-4" fill="#FFFFFF" points="0 15.0621 33.565 15.0621 33.565 13.5551 0 13.5551"></polygon>
                    <polygon id="Fill-5" fill="#CB001C" points="0 13.5551 33.565 13.5551 33.565 12.0481 0 12.0481"></polygon>
                    <polygon id="Fill-6" fill="#FFFFFF" points="0 12.0491 33.565 12.0491 33.565 10.5441 0 10.5441"></polygon>
                    <polygon id="Fill-7" fill="#CB001C" points="0 10.5441 33.565 10.5441 33.565 9.0361 0 9.0361"></polygon>
                    <polygon id="Fill-8" fill="#FFFFFF" points="0 9.0361 33.565 9.0361 33.565 7.5311 0 7.5311"></polygon>
                    <polygon id="Fill-9" fill="#CB001C" points="0 7.5321 33.565 7.5321 33.565 6.0251 0 6.0251"></polygon>
                    <polygon id="Fill-10" fill="#FFFFFF" points="0 6.0251 33.565 6.0251 33.565 4.5181 0 4.5181"></polygon>
                    <polygon id="Fill-11" fill="#CB001C" points="0 4.5181 33.565 4.5181 33.565 3.0121 0 3.0121"></polygon>
                    <polygon id="Fill-12" fill="#FFFFFF" points="0 3.0131 33.565 3.0131 33.565 1.5071 0 1.5071"></polygon>
                    <polygon id="Fill-13" fill="#CB001C" points="0 1.5071 33.565 1.5071 33.565 0.0001 0 0.0001"></polygon>
                    <polygon id="Fill-14" fill="#2A3560" points="0 10.5441 15.328 10.5441 15.328 0.0001 0 0.0001"></polygon>
                    <polygon id="Fill-15" fill="#FFFFFF" points="1.2537 1.5619 0.8377 1.5619 1.1777 1.8079 1.0447 2.2059 1.3847 1.9599 1.7247 2.2059 1.5957 1.8079 1.9357 1.5619 1.5157 1.5619 1.3847 1.1619"></polygon>
                    <polygon id="Fill-16" fill="#FFFFFF" points="1.2537 3.3205 0.8377 3.3205 1.1777 3.5655 1.0447 3.9655 1.3847 3.7195 1.7247 3.9655 1.5957 3.5655 1.9357 3.3205 1.5157 3.3205 1.3847 2.9225"></polygon>
                    <polygon id="Fill-17" fill="#FFFFFF" points="1.2537 5.08 0.8377 5.08 1.1777 5.327 1.0447 5.725 1.3847 5.479 1.7247 5.725 1.5957 5.327 1.9357 5.08 1.5157 5.08 1.3847 4.682"></polygon>
                    <polygon id="Fill-18" fill="#FFFFFF" points="1.2537 6.8404 0.8377 6.8404 1.1777 7.0874 1.0447 7.4844 1.3847 7.2394 1.7247 7.4844 1.5957 7.0874 1.9357 6.8404 1.5157 6.8404 1.3847 6.4414"></polygon>
                    <polygon id="Fill-19" fill="#FFFFFF" points="1.2537 8.6017 0.8377 8.6017 1.1777 8.8457 1.0447 9.2447 1.3847 8.9977 1.7247 9.2447 1.5957 8.8457 1.9357 8.6017 1.5157 8.6017 1.3847 8.2007"></polygon>
                    <polygon id="Fill-20" fill="#FFFFFF" points="2.6114 2.0889 2.7364 2.4879 3.1584 2.4879 2.8204 2.7349 2.9474 3.1329 2.6114 2.8879 2.2734 3.1329 2.4004 2.7349 2.0624 2.4879 2.4824 2.4879"></polygon>
                    <polygon id="Fill-21" fill="#FFFFFF" points="2.6114 3.8496 2.7364 4.2466 3.1584 4.2466 2.8204 4.4946 2.9474 4.8916 2.6114 4.6476 2.2734 4.8916 2.4004 4.4946 2.0624 4.2466 2.4824 4.2466"></polygon>
                    <polygon id="Fill-22" fill="#FFFFFF" points="2.6114 5.6094 2.7364 6.0074 3.1584 6.0074 2.8204 6.2544 2.9474 6.6524 2.6114 6.4064 2.2734 6.6524 2.4004 6.2544 2.0624 6.0074 2.4824 6.0074"></polygon>
                    <polygon id="Fill-23" fill="#FFFFFF" points="2.6114 7.3701 2.7364 7.7671 3.1584 7.7671 2.8204 8.0141 2.9474 8.4111 2.6114 8.1641 2.2734 8.4111 2.4004 8.0141 2.0624 7.7671 2.4824 7.7671"></polygon>
                    <polygon id="Fill-24" fill="#FFFFFF" points="3.8497 1.1621 3.9807 1.5611 4.4007 1.5611 4.0607 1.8081 4.1917 2.2061 3.8497 1.9601 3.5137 2.2061 3.6427 1.8081 3.3027 1.5611 3.7207 1.5611"></polygon>
                    <polygon id="Fill-25" fill="#FFFFFF" points="3.8497 2.9229 3.9807 3.3199 4.4007 3.3199 4.0607 3.5659 4.1917 3.9659 3.8497 3.7189 3.5137 3.9659 3.6427 3.5659 3.3027 3.3199 3.7207 3.3199"></polygon>
                    <polygon id="Fill-26" fill="#FFFFFF" points="3.8497 4.6826 3.9807 5.0796 4.4007 5.0796 4.0607 5.3266 4.1917 5.7256 3.8497 5.4786 3.5137 5.7256 3.6427 5.3266 3.3027 5.0796 3.7207 5.0796"></polygon>
                    <polygon id="Fill-27" fill="#FFFFFF" points="3.8497 6.4414 3.9807 6.8404 4.4007 6.8404 4.0607 7.0874 4.1917 7.4844 3.8497 7.2394 3.5137 7.4844 3.6427 7.0874 3.3027 6.8404 3.7207 6.8404"></polygon>
                    <polygon id="Fill-28" fill="#FFFFFF" points="3.8497 8.2012 3.9807 8.6012 4.4007 8.6012 4.0607 8.8462 4.1917 9.2442 3.8497 8.9982 3.5137 9.2442 3.6427 8.8462 3.3027 8.6012 3.7207 8.6012"></polygon>
                    <polygon id="Fill-29" fill="#FFFFFF" points="5.0762 2.0889 5.2052 2.4879 5.6272 2.4879 5.2852 2.7349 5.4162 3.1329 5.0762 2.8879 4.7382 3.1329 4.8692 2.7349 4.5272 2.4879 4.9472 2.4879"></polygon>
                    <polygon id="Fill-30" fill="#FFFFFF" points="5.0762 3.8496 5.2052 4.2466 5.6272 4.2466 5.2852 4.4946 5.4162 4.8916 5.0762 4.6476 4.7382 4.8916 4.8692 4.4946 4.5272 4.2466 4.9472 4.2466"></polygon>
                    <polygon id="Fill-31" fill="#FFFFFF" points="5.0762 5.6094 5.2052 6.0074 5.6272 6.0074 5.2852 6.2544 5.4162 6.6524 5.0762 6.4064 4.7382 6.6524 4.8692 6.2544 4.5272 6.0074 4.9472 6.0074"></polygon>
                    <polygon id="Fill-32" fill="#FFFFFF" points="5.0762 7.3701 5.2052 7.7671 5.6272 7.7671 5.2852 8.0141 5.4162 8.4111 5.0762 8.1641 4.7382 8.4111 4.8692 8.0141 4.5272 7.7671 4.9472 7.7671"></polygon>
                    <polygon id="Fill-33" fill="#FFFFFF" points="6.3184 1.1621 6.4494 1.5611 6.8654 1.5611 6.5254 1.8081 6.6604 2.2061 6.3184 1.9601 5.9784 2.2061 6.1074 1.8081 5.7714 1.5611 6.1894 1.5611"></polygon>
                    <polygon id="Fill-34" fill="#FFFFFF" points="6.3184 2.9229 6.4494 3.3199 6.8654 3.3199 6.5254 3.5659 6.6604 3.9659 6.3184 3.7189 5.9784 3.9659 6.1074 3.5659 5.7714 3.3199 6.1894 3.3199"></polygon>
                    <polygon id="Fill-35" fill="#FFFFFF" points="6.3184 4.6826 6.4494 5.0796 6.8654 5.0796 6.5254 5.3266 6.6604 5.7256 6.3184 5.4786 5.9784 5.7256 6.1074 5.3266 5.7714 5.0796 6.1894 5.0796"></polygon>
                    <polygon id="Fill-36" fill="#FFFFFF" points="6.3184 6.4414 6.4494 6.8404 6.8654 6.8404 6.5254 7.0874 6.6604 7.4844 6.3184 7.2394 5.9784 7.4844 6.1074 7.0874 5.7714 6.8404 6.1894 6.8404"></polygon>
                    <polygon id="Fill-37" fill="#FFFFFF" points="6.3184 8.2012 6.4494 8.6012 6.8654 8.6012 6.5254 8.8462 6.6604 9.2442 6.3184 8.9982 5.9784 9.2442 6.1074 8.8462 5.7714 8.6012 6.1894 8.6012"></polygon>
                    <polygon id="Fill-38" fill="#FFFFFF" points="7.545 2.0889 7.674 2.4879 8.092 2.4879 7.754 2.7349 7.881 3.1329 7.545 2.8879 7.207 3.1329 7.334 2.7349 6.996 2.4879 7.414 2.4879"></polygon>
                    <polygon id="Fill-39" fill="#FFFFFF" points="7.545 3.8496 7.674 4.2466 8.092 4.2466 7.754 4.4946 7.881 4.8916 7.545 4.6476 7.207 4.8916 7.334 4.4946 6.996 4.2466 7.414 4.2466"></polygon>
                    <polygon id="Fill-40" fill="#FFFFFF" points="7.545 5.6094 7.674 6.0074 8.092 6.0074 7.754 6.2544 7.881 6.6524 7.545 6.4064 7.207 6.6524 7.334 6.2544 6.996 6.0074 7.414 6.0074"></polygon>
                    <polygon id="Fill-41" fill="#FFFFFF" points="7.545 7.3701 7.674 7.7671 8.092 7.7671 7.754 8.0141 7.881 8.4111 7.545 8.1641 7.207 8.4111 7.334 8.0141 6.996 7.7671 7.414 7.7671"></polygon>
                    <polygon id="Fill-42" fill="#FFFFFF" points="8.7832 1.1621 8.9142 1.5611 9.3322 1.5611 8.9942 1.8081 9.1252 2.2061 8.7832 1.9601 8.4472 2.2061 8.5742 1.8081 8.2362 1.5611 8.6542 1.5611"></polygon>
                    <polygon id="Fill-43" fill="#FFFFFF" points="8.7832 2.9229 8.9142 3.3199 9.3322 3.3199 8.9942 3.5659 9.1252 3.9659 8.7832 3.7189 8.4472 3.9659 8.5742 3.5659 8.2362 3.3199 8.6542 3.3199"></polygon>
                    <polygon id="Fill-44" fill="#FFFFFF" points="8.7832 4.6826 8.9142 5.0796 9.3322 5.0796 8.9942 5.3266 9.1252 5.7256 8.7832 5.4786 8.4472 5.7256 8.5742 5.3266 8.2362 5.0796 8.6542 5.0796"></polygon>
                    <polygon id="Fill-45" fill="#FFFFFF" points="8.7832 6.4414 8.9142 6.8404 9.3322 6.8404 8.9942 7.0874 9.1252 7.4844 8.7832 7.2394 8.4472 7.4844 8.5742 7.0874 8.2362 6.8404 8.6542 6.8404"></polygon>
                    <polygon id="Fill-46" fill="#FFFFFF" points="8.7832 8.2012 8.9142 8.6012 9.3322 8.6012 8.9942 8.8462 9.1252 9.2442 8.7832 8.9982 8.4472 9.2442 8.5742 8.8462 8.2362 8.6012 8.6542 8.6012"></polygon>
                    <polygon id="Fill-47" fill="#FFFFFF" points="10.0098 2.0889 10.1388 2.4879 10.5608 2.4879 10.2208 2.7349 10.3498 3.1329 10.0098 2.8879 9.6718 3.1329 9.8028 2.7349 9.4628 2.4879 9.8828 2.4879"></polygon>
                    <polygon id="Fill-48" fill="#FFFFFF" points="10.0098 3.8496 10.1388 4.2466 10.5608 4.2466 10.2208 4.4946 10.3498 4.8916 10.0098 4.6476 9.6718 4.8916 9.8028 4.4946 9.4628 4.2466 9.8828 4.2466"></polygon>
                    <polygon id="Fill-49" fill="#FFFFFF" points="10.0098 5.6094 10.1388 6.0074 10.5608 6.0074 10.2208 6.2544 10.3498 6.6524 10.0098 6.4064 9.6718 6.6524 9.8028 6.2544 9.4628 6.0074 9.8828 6.0074"></polygon>
                    <polygon id="Fill-50" fill="#FFFFFF" points="10.0098 7.3701 10.1388 7.7671 10.5608 7.7671 10.2208 8.0141 10.3498 8.4111 10.0098 8.1641 9.6718 8.4111 9.8028 8.0141 9.4628 7.7671 9.8828 7.7671"></polygon>
                    <polygon id="Fill-51" fill="#FFFFFF" points="11.252 1.1621 11.383 1.5611 11.801 1.5611 11.463 1.8081 11.59 2.2061 11.252 1.9601 10.916 2.2061 11.043 1.8081 10.705 1.5611 11.123 1.5611"></polygon>
                    <polygon id="Fill-52" fill="#FFFFFF" points="11.252 2.9229 11.383 3.3199 11.801 3.3199 11.463 3.5659 11.59 3.9659 11.252 3.7189 10.916 3.9659 11.043 3.5659 10.705 3.3199 11.123 3.3199"></polygon>
                    <polygon id="Fill-53" fill="#FFFFFF" points="11.252 4.6826 11.383 5.0796 11.801 5.0796 11.463 5.3266 11.59 5.7256 11.252 5.4786 10.916 5.7256 11.043 5.3266 10.705 5.0796 11.123 5.0796"></polygon>
                    <polygon id="Fill-54" fill="#FFFFFF" points="11.252 6.4414 11.383 6.8404 11.801 6.8404 11.463 7.0874 11.59 7.4844 11.252 7.2394 10.916 7.4844 11.043 7.0874 10.705 6.8404 11.123 6.8404"></polygon>
                    <polygon id="Fill-55" fill="#FFFFFF" points="11.252 8.2012 11.383 8.6012 11.801 8.6012 11.463 8.8462 11.59 9.2442 11.252 8.9982 10.916 9.2442 11.043 8.8462 10.705 8.6012 11.123 8.6012"></polygon>
                    <polygon id="Fill-56" fill="#FFFFFF" points="12.4786 2.0889 12.6056 2.4879 13.0256 2.4879 12.6896 2.7349 12.8146 3.1329 12.4786 2.8879 12.1366 3.1329 12.2676 2.7349 11.9316 2.4879 12.3476 2.4879"></polygon>
                    <polygon id="Fill-57" fill="#FFFFFF" points="12.4786 3.8496 12.6056 4.2466 13.0256 4.2466 12.6896 4.4946 12.8146 4.8916 12.4786 4.6476 12.1366 4.8916 12.2676 4.4946 11.9316 4.2466 12.3476 4.2466"></polygon>
                    <polygon id="Fill-58" fill="#FFFFFF" points="12.4786 5.6094 12.6056 6.0074 13.0256 6.0074 12.6896 6.2544 12.8146 6.6524 12.4786 6.4064 12.1366 6.6524 12.2676 6.2544 11.9316 6.0074 12.3476 6.0074"></polygon>
                    <polygon id="Fill-59" fill="#FFFFFF" points="12.4786 7.3701 12.6056 7.7671 13.0256 7.7671 12.6896 8.0141 12.8146 8.4111 12.4786 8.1641 12.1366 8.4111 12.2676 8.0141 11.9316 7.7671 12.3476 7.7671"></polygon>
                    <polygon id="Fill-60" fill="#FFFFFF" points="13.7168 1.1621 13.8498 1.5611 14.2658 1.5611 13.9278 1.8081 14.0588 2.2061 13.7168 1.9601 13.3808 2.2061 13.5078 1.8081 13.1698 1.5611 13.5878 1.5611"></polygon>
                    <polygon id="Fill-61" fill="#FFFFFF" points="13.7168 2.9229 13.8498 3.3199 14.2658 3.3199 13.9278 3.5659 14.0588 3.9659 13.7168 3.7189 13.3808 3.9659 13.5078 3.5659 13.1698 3.3199 13.5878 3.3199"></polygon>
                    <polygon id="Fill-62" fill="#FFFFFF" points="13.7168 4.6826 13.8498 5.0796 14.2658 5.0796 13.9278 5.3266 14.0588 5.7256 13.7168 5.4786 13.3808 5.7256 13.5078 5.3266 13.1698 5.0796 13.5878 5.0796"></polygon>
                    <polygon id="Fill-63" fill="#FFFFFF" points="13.7168 6.4414 13.8498 6.8404 14.2658 6.8404 13.9278 7.0874 14.0588 7.4844 13.7168 7.2394 13.3808 7.4844 13.5078 7.0874 13.1698 6.8404 13.5878 6.8404"></polygon>
                    <polygon id="Fill-64" fill="#FFFFFF" points="13.7168 8.2012 13.8498 8.6012 14.2658 8.6012 13.9278 8.8462 14.0588 9.2442 13.7168 8.9982 13.3808 9.2442 13.5078 8.8462 13.1698 8.6012 13.5878 8.6012"></polygon>
                </g>
            </g>
        </g>
    </g>
</svg>