<?xml version="1.0" encoding="UTF-8"?>
<svg width="200px" height="230px" viewBox="0 0 200 230" version="1.1" xmlns="http://www.w3.org/2000/svg" xmlns:xlink="http://www.w3.org/1999/xlink">
    <title>424E53F2-775F-4F45-84A4-948260B4AEAF@1x</title>
    <defs>
        <path d="M0,65.2859359 L0,163.284971 C0,169.103542 3.0685567,174.480466 8.05,177.389491 L91.95,226.389269 C96.9314433,229.298815 103.068557,229.298815 108.05,226.389269 L191.95,177.389491 C196.931443,174.480466 200,169.103542 200,163.284971 L200,65.2859359 C200,59.4673654 196.931443,54.0909624 191.95,51.1814164 L108.05,2.18215948 C103.068557,-0.727386493 96.9314433,-0.727386493 91.95,2.18215948 L8.05,51.1814164 C3.0685567,54.0909624 0,59.4673654 0,65.2859359" id="path-1"></path>
        <path d="M103.870476,0.0885714286 C100.289524,0.10952381 96.7133333,1.04666667 93.5047619,2.9 L93.5047619,2.9 L10.68,50.7180952 C4.18857143,54.467619 0.187619048,61.3952381 0.187619048,68.892381 L0.187619048,68.892381 L0.187619048,164.529524 C0.187619048,172.026667 4.18857143,178.954286 10.68,182.70381 L10.68,182.70381 L93.5047619,230.521905 C96.712381,232.374286 100.288571,233.311429 103.869524,233.333333 L103.869524,233.333333 L104.124762,233.333333 C107.705714,233.311429 111.281905,232.374286 114.489524,230.521905 L114.489524,230.521905 L197.313333,182.70381 C203.806667,178.954286 207.806667,172.026667 207.806667,164.529524 L207.806667,164.529524 L207.806667,68.892381 C207.806667,61.3952381 203.806667,54.467619 197.313333,50.7180952 L197.313333,50.7180952 L114.489524,2.9 C111.280952,1.04666667 107.704762,0.10952381 104.12381,0.0885714286 L104.12381,0.0885714286 L103.870476,0.0885714286 Z" id="path-3"></path>
        <path d="M103.870476,0.0885714286 C100.289524,0.10952381 96.7133333,1.04666667 93.5047619,2.9 L93.5047619,2.9 L10.68,50.7180952 C4.18857143,54.467619 0.187619048,61.3952381 0.187619048,68.892381 L0.187619048,68.892381 L0.187619048,164.529524 C0.187619048,172.026667 4.18857143,178.954286 10.68,182.70381 L10.68,182.70381 L93.5047619,230.521905 C96.712381,232.374286 100.288571,233.311429 103.869524,233.333333 L103.869524,233.333333 L104.124762,233.333333 C107.705714,233.311429 111.281905,232.374286 114.489524,230.521905 L114.489524,230.521905 L197.313333,182.70381 C203.806667,178.954286 207.806667,172.026667 207.806667,164.529524 L207.806667,164.529524 L207.806667,68.892381 C207.806667,61.3952381 203.806667,54.467619 197.313333,50.7180952 L197.313333,50.7180952 L114.489524,2.9 C111.280952,1.04666667 107.704762,0.10952381 104.12381,0.0885714286 L104.12381,0.0885714286 L103.870476,0.0885714286 Z" id="path-5"></path>
        <path d="M103.870476,0.0885714286 C100.289524,0.10952381 96.7133333,1.04666667 93.5047619,2.9 L93.5047619,2.9 L10.68,50.7180952 C4.18857143,54.467619 0.187619048,61.3952381 0.187619048,68.892381 L0.187619048,68.892381 L0.187619048,164.529524 C0.187619048,172.026667 4.18857143,178.954286 10.68,182.70381 L10.68,182.70381 L93.5047619,230.521905 C96.712381,232.374286 100.288571,233.311429 103.869524,233.333333 L103.869524,233.333333 L104.124762,233.333333 C107.705714,233.311429 111.281905,232.374286 114.489524,230.521905 L114.489524,230.521905 L197.313333,182.70381 C203.806667,178.954286 207.806667,172.026667 207.806667,164.529524 L207.806667,164.529524 L207.806667,68.892381 C207.806667,61.3952381 203.806667,54.467619 197.313333,50.7180952 L197.313333,50.7180952 L114.489524,2.9 C111.280952,1.04666667 107.704762,0.10952381 104.12381,0.0885714286 L104.12381,0.0885714286" id="path-7"></path>
        <path d="M103.870476,0.0885714286 C100.289524,0.10952381 96.7133333,1.04666667 93.5047619,2.9 L93.5047619,2.9 L10.68,50.7180952 C4.18857143,54.467619 0.187619048,61.3952381 0.187619048,68.892381 L0.187619048,68.892381 L0.187619048,164.529524 C0.187619048,172.026667 4.18857143,178.954286 10.68,182.70381 L10.68,182.70381 L93.5047619,230.521905 C96.712381,232.374286 100.288571,233.311429 103.869524,233.333333 L103.869524,233.333333 L104.124762,233.333333 C107.705714,233.311429 111.281905,232.374286 114.489524,230.521905 L114.489524,230.521905 L197.313333,182.70381 C203.806667,178.954286 207.806667,172.026667 207.806667,164.529524 L207.806667,164.529524 L207.806667,68.892381 C207.806667,61.3952381 203.806667,54.467619 197.313333,50.7180952 L197.313333,50.7180952 L114.489524,2.9 C111.280952,1.04666667 107.704762,0.10952381 104.12381,0.0885714286 L104.12381,0.0885714286 L103.870476,0.0885714286 Z" id="path-9"></path>
        <path d="M103.870476,0.0885714286 C100.289524,0.10952381 96.7133333,1.04666667 93.5047619,2.9 L93.5047619,2.9 L10.68,50.7180952 C4.18857143,54.467619 0.187619048,61.3952381 0.187619048,68.892381 L0.187619048,68.892381 L0.187619048,164.529524 C0.187619048,172.026667 4.18857143,178.954286 10.68,182.70381 L10.68,182.70381 L93.5047619,230.521905 C96.712381,232.374286 100.288571,233.311429 103.869524,233.333333 L103.869524,233.333333 L104.124762,233.333333 C107.705714,233.311429 111.281905,232.374286 114.489524,230.521905 L114.489524,230.521905 L197.313333,182.70381 C203.806667,178.954286 207.806667,172.026667 207.806667,164.529524 L207.806667,164.529524 L207.806667,68.892381 C207.806667,61.3952381 203.806667,54.467619 197.313333,50.7180952 L197.313333,50.7180952 L114.489524,2.9 C111.280952,1.04666667 107.704762,0.10952381 104.12381,0.0885714286 L104.12381,0.0885714286" id="path-11"></path>
        <path d="M103.870476,0.0885714286 C100.289524,0.10952381 96.7133333,1.04666667 93.5047619,2.9 L93.5047619,2.9 L10.68,50.7180952 C4.18857143,54.467619 0.187619048,61.3952381 0.187619048,68.892381 L0.187619048,68.892381 L0.187619048,164.529524 C0.187619048,172.026667 4.18857143,178.954286 10.68,182.70381 L10.68,182.70381 L93.5047619,230.521905 C96.712381,232.374286 100.288571,233.311429 103.869524,233.333333 L103.869524,233.333333 L104.124762,233.333333 C107.705714,233.311429 111.281905,232.374286 114.489524,230.521905 L114.489524,230.521905 L197.313333,182.70381 C203.806667,178.954286 207.806667,172.026667 207.806667,164.529524 L207.806667,164.529524 L207.806667,68.892381 C207.806667,61.3952381 203.806667,54.467619 197.313333,50.7180952 L197.313333,50.7180952 L114.489524,2.9 C111.280952,1.04666667 107.704762,0.10952381 104.12381,0.0885714286 L104.12381,0.0885714286 L103.870476,0.0885714286 Z" id="path-13"></path>
    </defs>
    <g id="Remote_Main_Mobile" stroke="none" stroke-width="1" fill="none" fill-rule="evenodd">
        <g id="RWS_0010-_접속-전-화면_원격-협업-_목록-없음" transform="translate(-80.000000, -232.000000)">
            <g id="Group-5" transform="translate(80.000000, 232.000000)">
                <rect id="tr" x="0" y="0" width="200" height="230"></rect>
                <g id="Group" transform="translate(0.000000, 1.000000)">
                    <mask id="mask-2" fill="white">
                        <use xlink:href="#path-1"></use>
                    </mask>
                    <use id="image_BG" fill="#272B30" xlink:href="#path-1"></use>
                    <g id="Group-22" mask="url(#mask-2)">
                        <g transform="translate(-4.761905, 0.000000)">
                            <g id="Group-3" transform="translate(0.000000, 0.863810)">
                                <mask id="mask-4" fill="white">
                                    <use xlink:href="#path-3"></use>
                                </mask>
                                <g id="Clip-2"></g>
                                <path d="M44.8760952,196.683238 C44.8760952,196.683238 39.198,170.600381 95.885619,170.049905 C96.9951429,170.038476 98.1094286,170.066095 99.2189524,170.094667 C104.245619,170.228952 139.959905,166.022286 222.880857,106.035619 C222.880857,106.035619 257.082762,83.9213333 219.682762,129.933714 C219.682762,129.933714 163.089429,186.901333 206.149429,178.225143 C206.149429,178.225143 218.698952,173.977524 232.477048,162.905143 L240.843714,183.383238 C240.843714,183.383238 220.913238,203.245143 275.045619,207.927048 C275.045619,207.927048 311.708476,203.750857 301.127524,214.330857 L290.465619,221.478476 L44.8760952,196.683238 Z" id="Fill-1" fill="#3E454F" mask="url(#mask-4)"></path>
                            </g>
                            <g id="Group-9" transform="translate(0.000000, 0.863810)">
                                <mask id="mask-6" fill="white">
                                    <use xlink:href="#path-5"></use>
                                </mask>
                                <g id="Clip-8"></g>
                                <path d="M188.8,160.049143 C197.375238,163.762476 208.420952,162.036762 208.532381,162.018667 C208.537143,162.017714 208.541905,162.020571 208.546667,162.020571 C208.555238,162.018667 208.561905,162.014857 208.570476,162.013905 C208.630476,162.011048 214.672381,161.598667 218.524762,156.649143 C221.622857,152.669143 222.502857,146.914857 221.14,139.542476 L189.699048,137.187238 L188.8,160.049143 Z" id="Fill-7" fill="#1C2024" mask="url(#mask-6)"></path>
                            </g>
                            <g id="Group-12" transform="translate(0.000000, 0.863810)">
                                <mask id="mask-8" fill="white">
                                    <use xlink:href="#path-7"></use>
                                </mask>
                                <g id="Clip-11"></g>
                                <path d="M173.658667,128.631714 C174.263429,136.923143 175.279619,148.268857 176.025333,156.326952 C177.832952,175.833619 179.867238,195.813619 179.887238,196.012667 L179.896762,196.101238 C181.025333,195.621238 183.879619,194.70219 186.320571,196.386 L188.050095,160.278381 L188.050095,160.275524 L188.973905,136.787905 C188.973905,136.784095 188.971048,136.780286 188.972,136.776476 C188.972,136.773619 188.974857,136.771714 188.974857,136.76981 L189.404381,125.831714 C189.412,125.659333 189.53581,125.515524 189.705333,125.48219 C189.870095,125.450762 190.042476,125.539333 190.112,125.695524 L195.064381,136.847905 L220.710095,138.767905 L215.278667,130.940286 C214.790095,130.238381 214.620571,129.355524 214.812952,128.519333 C215.006286,127.681238 215.54819,126.961238 216.298667,126.544095 C220.910095,123.986 231.589143,122.521238 232.041524,122.461238 C234.072952,121.966 234.122665,121.515524 234.122665,121.510762 C234.133905,121.331714 233.625333,120.994571 233.198667,120.835524 C192.429143,103.874571 172.234857,107.383143 169.549143,107.976476 C170.306286,112.568857 167.649143,115.005048 167.28819,115.311714 L166.049143,117.021238 C165.769143,117.408857 165.807238,117.941238 166.140571,118.285048 L169.919619,122.197429 L172.66819,124.894571 C172.331048,119.38981 172.42819,118.198381 172.581524,117.857429 C172.667238,117.670762 172.885333,117.587905 173.072,117.672667 C173.258667,117.757429 173.340571,117.976476 173.256762,118.16219 C173.149143,118.436476 173.05581,120.164095 173.658667,128.631714" id="Fill-10" fill="#1C2024" mask="url(#mask-8)"></path>
                            </g>
                            <g id="Group-15" transform="translate(0.000000, 0.863810)">
                                <mask id="mask-10" fill="white">
                                    <use xlink:href="#path-9"></use>
                                </mask>
                                <g id="Clip-14"></g>
                                <path d="M172.163143,195.407238 L172.163143,195.411048 C172.168857,195.411048 172.173619,195.406286 172.180286,195.406286 L174.771714,195.406286 C174.779333,192.464381 174.508857,172.113905 166.174571,150.70819 C166.117429,150.563429 166.157429,150.397714 166.275524,150.29581 C166.392667,150.192952 166.56219,150.173905 166.699333,150.251048 C167.426952,150.657714 173.04219,153.805333 175.20219,155.465333 C174.643143,149.402476 173.955524,141.724381 173.400286,134.87581 L160.381238,133.161524 C155.023143,132.522476 152.900286,135.184381 152.812667,135.298667 C142.786952,146.049143 161.314571,192.067238 162.880286,195.88819 L164.42981,195.75581 C164.435524,195.754857 164.439333,195.759619 164.445048,195.759619 L164.445048,195.754857 L172.163143,195.407238 Z" id="Fill-13" fill="#1C2024" mask="url(#mask-10)"></path>
                            </g>
                            <g id="Group-18" transform="translate(0.000000, 0.863810)">
                                <mask id="mask-12" fill="white">
                                    <use xlink:href="#path-11"></use>
                                </mask>
                                <g id="Clip-17"></g>
                                <path d="M35.2918095,93.5470476 C35.3241905,92.4718095 35.8051429,91.4927619 36.7184762,90.6365714 L42.7165714,86.2346667 C42.8108571,86.1670476 42.9299048,86.1460952 43.0394286,86.1784762 C43.1499048,86.2099048 43.2384762,86.2918095 43.280381,86.3994286 C43.3308571,86.5289524 48.3070476,99.340381 50.7794286,107.952762 C51.8013333,107.847048 54.955619,107.805143 57.4184762,110.690857 C54.4260952,95.4575238 52.2575238,87.6965714 52.235619,87.6175238 C52.1870476,87.448 52.2660952,87.268 52.4232381,87.1870476 C52.5794286,87.1070476 52.7737143,87.1489524 52.8822857,87.2889524 C56.0651429,91.3337143 61.3394286,96.1775238 68.1346667,101.309905 C68.6127619,100.457524 69.9899048,98.7327619 73.0899048,99.0927619 C57.975619,86.3175238 50.6946667,70.9975238 50.6213333,70.840381 C49.8537143,68.9299048 49.0689524,67.2032381 48.2832381,65.6899048 C47.9822857,65.1108571 47.6822857,64.5689524 47.380381,64.0565714 C46.1765714,61.9918095 44.9375238,60.3432381 43.700381,59.1565714 C43.5889524,59.0518095 43.4746667,58.9441905 43.3670476,58.8508571 C42.620381,58.180381 41.8946667,57.6946667 41.200381,57.4032381 C40.6708571,57.1737143 40.0594286,57.0870476 39.4746667,57.1622857 C34.4165714,57.7613333 34.1537143,63.8518095 34.1451429,64.1108571 C33.795619,67.2737143 33.1737143,70.1337143 32.295619,72.640381 C30.5270476,77.7137143 26.7641905,82.0222857 22.475619,83.8832381 C17.2489524,86.1499048 15.9651429,86.940381 15.655619,87.175619 C15.4222857,87.3489524 15.1927619,87.495619 14.9699048,87.6146667 C12.9841905,88.7260952 11.5146667,90.540381 10.5889524,92.9908571 C13.6108571,93.1099048 28.7432381,93.8127619 36.0022857,96.088 C35.6308571,95.4508571 35.2594286,94.5584762 35.2918095,93.5470476" id="Fill-16" fill="#3E454F" mask="url(#mask-12)"></path>
                            </g>
                            <g id="Group-21" transform="translate(0.000000, 0.863810)">
                                <mask id="mask-14" fill="white">
                                    <use xlink:href="#path-13"></use>
                                </mask>
                                <g id="Clip-20"></g>
                                <path d="M266.280476,214.048381 L264.004286,213.993143 C261.769048,214.087429 260.201429,214.705524 259.347143,215.834095 C258.392857,217.091238 258.71,218.496 258.723333,218.554095 C258.73,218.581714 258.752857,218.596952 258.763333,218.620762 L188.078571,211.316952 C188.079524,211.311238 188.085238,211.307429 188.08619,211.301714 C188.384286,207.703619 186.299524,204.298857 185.771905,203.501714 C187.299524,200.189333 187.032857,197.208381 187.021429,197.134095 L188.764286,160.841714 C196.799524,164.202667 206.775714,163.009333 208.417619,162.783619 C227.863333,190.871238 263.575714,209.947429 267.605238,212.040762 L266.280476,214.048381 Z M185.644286,210.685524 C185.41,209.789333 184.679524,207.094095 184.142381,206.114095 C184.612857,205.530286 185.017619,204.906476 185.370952,204.257905 C186.027143,205.344571 187.462381,208.051238 187.370952,210.863619 L185.644286,210.685524 Z M178.391905,210.316 C180.50619,209.428381 182.261429,208.220762 183.620476,206.710286 C184.023333,207.609333 184.611905,209.642667 184.958571,210.994095 L178.391905,210.316 Z M169.004286,209.008381 C169.00619,208.842667 169.05,208.596952 169.236667,208.321714 C169.635714,207.725524 170.937619,206.674095 175.155714,206.334095 C175.490952,206.305524 175.840476,206.276 176.212857,206.260762 C176.258571,206.258857 176.303333,206.249333 176.34619,206.229333 C176.520476,206.153143 180.528095,204.277905 179.961429,196.876952 C180.775714,196.483619 183.852857,195.225524 186.29381,197.304571 C186.325238,197.95219 186.358571,200.589333 185.016667,203.378857 C184.594762,204.25981 184.056667,205.09219 183.41381,205.856 C181.978571,207.594095 180.015714,208.946476 177.575714,209.873143 L169.004286,209.008381 Z M168.597619,207.945524 C168.357619,208.316952 168.284286,208.664571 168.270952,208.934095 L152.972857,207.39219 C152.792857,206.541714 152.912857,205.885524 153.328095,205.437905 C154.548095,204.133143 157.861429,204.753143 157.894762,204.760762 C157.932857,204.768381 157.971905,204.770286 158.010952,204.764571 C160.65,204.434095 162.577619,203.429333 163.741429,201.774095 C165.149048,199.773143 165.022381,197.425524 164.894762,196.475048 L171.956667,196.156952 C174.568095,201.215048 174.77,204.648381 174.764398,205.631238 C171.476667,205.935048 169.394762,206.710286 168.597619,207.945524 L168.597619,207.945524 Z M162.880476,195.888381 C161.314762,192.067429 142.787143,146.049333 152.811905,135.297905 C152.900476,135.183619 155.023333,132.521714 160.381429,133.160762 L173.400476,134.876 C173.955714,141.724571 174.643333,149.402667 175.202381,155.464571 C173.042381,153.805524 167.427143,150.656952 166.698571,150.251238 C166.562381,150.174095 166.392857,150.193143 166.275714,150.296 C166.157619,150.397905 166.117619,150.563619 166.174762,150.708381 C174.509048,172.114095 174.779524,192.464571 174.771905,195.406476 L172.179524,195.406476 C172.172857,195.406476 172.169048,195.411238 172.163333,195.411238 L172.163333,195.407429 L164.444286,195.755048 L164.445238,195.75981 C164.438571,195.75981 164.434762,195.755048 164.43,195.756 L162.880476,195.888381 Z M167.232857,151.401714 C169.824286,152.873143 174.463333,155.602667 175.299524,156.518857 C177.103333,175.989333 179.130952,195.889333 179.151905,196.089333 L179.163333,196.198857 C179.180476,196.363619 179.197619,196.524571 179.21,196.690286 C179.805238,203.353143 176.594762,205.27219 176.104286,205.525524 C175.895714,205.535048 175.704286,205.55219 175.508095,205.568381 C175.51,204.421714 175.268095,201.074095 172.785238,196.146476 L175.139524,196.146476 C175.340476,196.146476 175.505238,195.986476 175.509048,195.784571 C175.512857,195.568381 175.875714,174.217905 167.232857,151.401714 L167.232857,151.401714 Z M173.071905,117.673143 C172.885238,117.588381 172.667143,117.671238 172.581429,117.857905 C172.428095,118.197905 172.331905,119.390286 172.668095,124.895048 L169.919524,122.197905 L166.141429,118.285524 C165.807143,117.940762 165.769048,117.409333 166.049048,117.020762 L167.288095,115.311238 C167.649048,115.005524 170.307143,112.568381 169.549048,107.976 C172.234762,107.382667 192.429048,103.875048 233.198571,120.835048 C233.625238,120.994095 234.13381,121.33219 234.12257,121.511238 C234.12257,121.515048 234.072857,121.966476 232.041429,122.460762 C231.589048,122.520762 220.91,123.986476 216.299524,126.543619 C215.548095,126.961714 215.00619,127.680762 214.812857,128.518857 C214.620476,129.355048 214.79,130.237905 215.278571,130.93981 L220.71,138.767429 L195.064286,136.847429 L190.111905,125.695048 C190.042381,125.538857 189.870952,125.451238 189.705238,125.482667 C189.535714,125.515048 189.411905,125.658857 189.404286,125.831238 L188.974762,136.769333 C188.974762,136.771238 188.971905,136.773143 188.971905,136.776 C188.970952,136.77981 188.97381,136.783619 188.97381,136.788381 L188.05,160.275048 L188.05,160.277905 L186.320476,196.385524 C183.879524,194.702667 181.025238,195.620762 179.896667,196.100762 L179.887143,196.013143 C179.867143,195.814095 177.832857,175.833143 176.025238,156.327429 C175.279524,148.269333 174.263333,136.923619 173.658571,128.631238 C173.055714,120.163619 173.149048,118.436 173.256667,118.161714 C173.340476,117.976 173.258571,117.756952 173.071905,117.673143 L173.071905,117.673143 Z M118.17381,118.165524 L113.927143,111.690286 L152.872857,111.63219 C155.409048,117.182667 157.983333,117.718857 158.852857,117.718857 C159.038571,117.718857 159.148095,117.695048 159.160476,117.691238 C161.711905,117.51219 161.547143,113.47981 161.538571,113.306476 L161.445238,111.548381 L166.495714,115.142667 L165.449048,116.587429 C164.958571,117.267429 165.02619,118.197905 165.609048,118.79981 L168.71381,122.014095 L118.17381,118.165524 Z M106.872857,117.304571 L100.441429,112.004571 C100.284286,111.875048 100.051905,111.896952 99.9204762,112.054095 C99.882381,112.09981 99.8842857,112.157905 99.8719048,112.21219 C97.262381,112.271238 94.2728571,111.910286 92.6795238,110.766476 L98.9804762,111.363619 C99.1385714,111.384571 99.2995238,111.282667 99.3595238,111.128381 C99.4195238,110.974095 99.3690476,110.797905 99.2366667,110.698857 C99.2280952,110.69219 98.2995238,109.986476 98.2042857,109.128381 C98.1766667,108.889333 98.2166667,108.661714 98.3252381,108.43981 C99.2614286,109.369333 102.211905,111.698857 108.292857,111.698857 L108.411905,111.698857 L113.045238,111.691238 L117.243333,118.095048 L106.872857,117.304571 Z M98.097619,117.035048 L104.404286,116.291238 L104.470952,116.283619 L105.72619,117.317905 C104.05381,117.350286 100.59381,117.366476 98.097619,117.035048 L98.097619,117.035048 Z M94.9909524,115.516 L102.602381,114.743619 L103.627143,115.588381 C99.8538095,115.767429 96.8204762,115.738857 94.9909524,115.516 L94.9909524,115.516 Z M91.9385714,113.463619 L100.148095,112.948381 L100.242381,112.941714 C100.317619,112.941714 100.371905,112.938857 100.408095,112.936 L101.744286,114.036952 C97.9271429,114.197905 93.8395238,114.068381 91.9385714,113.463619 L91.9385714,113.463619 Z M151.915714,106.964571 L158.168095,107.428381 C158.44619,107.415048 158.99,107.263619 159.260476,106.783619 C159.549048,106.273143 159.451905,105.562667 158.975714,104.677905 C158.785238,104.306476 158.363333,103.195048 158.682381,102.51981 C158.817619,102.235048 159.077619,102.046476 159.474762,101.946476 C159.820476,102.024571 161.147143,102.468381 160.861429,104.635048 C160.849048,104.723619 160.87,104.814095 160.919524,104.888381 C160.936667,104.914095 161.347143,105.529333 162.09381,106.182667 C162.840476,106.838857 164.197619,107.747429 165.991905,107.747429 C166.536667,107.747429 167.125238,107.649333 167.744286,107.450286 L168.796667,107.946476 C169.48619,111.766476 167.622381,113.962667 166.98619,114.583619 L161.394762,110.604571 L161.227143,107.460762 C161.217619,107.256952 161.039524,107.108381 160.838571,107.111238 C160.63381,107.122667 160.477619,107.296 160.489048,107.500762 L160.800476,113.343619 C160.801429,113.378857 160.942381,116.824571 159.052857,116.960762 C159.027143,116.965524 156.26619,117.460762 153.43381,111.086476 C152.898571,109.906476 152.39,108.516 151.915714,106.964571 L151.915714,106.964571 Z M218.524286,156.648381 C214.672857,161.598857 208.630952,162.010286 208.57,162.014095 C208.561429,162.015048 208.555714,162.018857 208.547143,162.020762 C208.542381,162.020762 208.536667,162.017905 208.531905,162.018857 C208.420476,162.036952 197.374762,163.762667 188.799524,160.049333 L189.699524,137.187429 L221.140476,139.542667 C222.502381,146.915048 221.622381,152.669333 218.524286,156.648381 L218.524286,156.648381 Z M121.65,184.778857 L77.0061905,197.99219 L84.7519048,192.514095 C84.81,192.505524 84.87,192.495048 84.9185714,192.45981 L104.283333,178.69981 L121.927143,166.220762 L121.65,184.778857 Z M73.6138095,199.488381 L10.3480952,192.951238 C10.2833333,191.265524 9.04428571,190.000762 6.7852381,189.375048 C5.97571429,189.149333 5.11190476,188.814095 4.14904762,188.349333 L-2.37571429,185.13219 C-3.16047619,184.782667 -3.63285714,184.324571 -3.77952381,183.766476 C-4.01857143,182.856952 -3.33952381,181.925524 -3.30333333,181.873143 C-2.99761905,181.309333 -2.6052381,180.67219 -2.13761905,179.977905 C2.49380952,173.067429 13.2538095,162.383619 13.3119048,162.317905 C22.4480952,155.994095 27.5461905,150.036952 30.2157143,146.154095 C33.1252381,141.920762 33.8519048,139.216 33.8861905,139.078857 C34.83,134.204571 35.1157143,129.384571 34.75,124.722667 C39.67,132.686476 50.3319048,143.17981 50.4385714,143.283619 C66.877619,160.353143 78.9414286,178.776 79.5128571,179.654095 L84.2366667,191.971238 L73.622381,199.477905 C73.617619,199.480762 73.617619,199.485524 73.6138095,199.488381 L73.6138095,199.488381 Z M-13.0385714,190.535048 C-13.4709524,190.330286 -14.142381,189.898857 -14.4671429,189.07981 C-14.9490476,187.863619 -14.5452381,186.210286 -13.2433333,184.11981 C-13.2328571,184.096952 -12.1909524,181.794095 -10.442381,178.247429 C-6.79380952,177.660762 -3.84238095,179.303619 -2.95095238,179.875048 C-3.34047619,180.466476 -3.67571429,181.011238 -3.92428571,181.474095 C-3.96142857,181.523619 -4.82333333,182.691238 -4.49571429,183.949333 C-4.29190476,184.737905 -3.67952381,185.362667 -2.68904762,185.801714 L3.82428571,189.014095 C4.83,189.49981 5.73380952,189.851238 6.58714286,190.087429 C7.93285714,190.460762 9.48619048,191.246476 9.61285714,192.875048 L-13.0385714,190.535048 Z M18.4480952,136.174095 C18.5938095,136.073143 18.6461905,135.881714 18.5738095,135.71981 C18.4452381,135.436952 5.94142857,107.493143 10.3347619,93.7207619 C12.7557143,93.8169524 30.0461905,94.583619 36.7690476,97.1312381 C37.3614286,97.7226667 44.7909524,105.158857 51.1671429,112.545524 C51.1738095,112.582667 51.1804762,112.61981 51.19,112.656 L51.2490476,112.640762 C55.877619,118.01219 58.8242857,122.051238 60.0090476,124.645524 L60.0195238,124.640762 C60.0309524,124.666476 60.0357143,124.696 60.0538095,124.718857 C60.1652381,124.861714 71.377619,139.483619 84.7385714,173.977905 C84.7490476,173.99981 84.9671429,174.461714 85.3566667,175.110286 C82.4814286,176.236952 80.8442857,178.237905 80.1528571,179.281714 C80.0166667,179.068381 67.7719048,160.216 50.9633333,142.761714 C50.8442857,142.644571 38.962381,130.954095 34.5842857,122.975048 C33.5633333,114.106476 30.5280952,109.011238 30.3995238,108.797905 L29.7661905,109.181714 C29.797619,109.233143 32.8557143,114.376 33.8528571,123.09219 L33.8157143,123.113143 L33.8652381,123.203619 C34.4347619,128.282667 34.197619,133.576 33.1652381,138.915048 C33.137619,139.022667 30.1452381,149.767429 12.8414286,161.750286 C12.7338095,161.856952 2.23571429,172.282667 -2.54047619,179.256952 C-3.46619048,178.649333 -6.34333333,177.029333 -10.0461905,177.445524 C-4.91952381,167.122667 7.45857143,143.867429 18.4480952,136.174095 L18.4480952,136.174095 Z M50.8338095,111.034095 C44.417619,103.704571 37.3071429,96.6226667 37.2414286,96.5569524 C37.2280952,96.543619 35.9804762,95.1979048 36.03,93.5702857 C36.0585714,92.6988571 36.4595238,91.8931429 37.19,91.2045714 L42.7652381,87.1179048 C43.6804762,89.4979048 47.9804762,100.785524 50.1557143,108.461714 C50.4261905,109.423619 50.6509524,110.276 50.8338095,111.034095 L50.8338095,111.034095 Z M14.97,87.6140952 C15.1919048,87.496 15.422381,87.348381 15.6557143,87.176 C15.9652381,86.9407619 17.2490476,86.1502857 22.4757143,83.883619 C26.7642857,82.0226667 30.5271429,77.7140952 32.2957143,72.6407619 C33.1738095,70.1340952 33.7957143,67.2731429 34.1452381,64.1102857 C34.1538095,63.8512381 34.4166667,57.7607619 39.4747619,57.1626667 C40.0595238,57.0874286 40.6709524,57.1731429 41.2004762,57.4026667 C41.8947619,57.6950476 42.6204762,58.1807619 43.3661905,58.8512381 C43.4747619,58.9445714 43.5890476,59.0521905 43.7004762,59.156 C44.937619,60.343619 46.1766667,61.9921905 47.3804762,64.056 C47.682381,64.568381 47.982381,65.1112381 48.2833333,65.6893333 C49.0690476,67.203619 49.8538095,68.9293333 50.6214286,70.8407619 C50.6947619,70.9969524 57.9757143,86.3179048 73.0890476,99.0931429 C69.99,98.7331429 68.6128571,100.457905 68.1347619,101.310286 C61.3395238,96.1769524 56.0642857,91.3331429 52.882381,87.288381 C52.7738095,87.1493333 52.5795238,87.1064762 52.4233333,87.1874286 C52.2661905,87.2674286 52.1871429,87.4474286 52.2357143,87.6179048 C52.257619,87.6969524 54.4261905,95.4579048 57.4185714,110.691238 C54.9557143,107.805524 51.8014286,107.847429 50.7795238,107.953143 C48.3071429,99.3407619 43.3309524,86.5293333 43.2804762,86.3998095 C43.2385714,86.2921905 43.15,86.2102857 43.0395238,86.1779048 C42.9290476,86.1455238 42.81,86.1674286 42.7166667,86.2350476 L36.7185714,90.636 C35.8052381,91.4921905 35.3242857,92.4712381 35.2919048,93.5474286 C35.2595238,94.5579048 35.6309524,95.4502857 36.002381,96.088381 C28.7433333,93.8131429 13.6109524,93.1102857 10.5880952,92.9902857 C11.5147619,90.5398095 12.9842857,88.7264762 14.97,87.6140952 L14.97,87.6140952 Z M47.5785714,55.3579048 C48.0204762,54.9702857 50.5147619,52.6826667 49.7280952,51.1007619 C49.6880952,51.0340952 48.7804762,49.4674286 50.1147619,48.6055238 C50.1185714,48.6026667 50.5585714,48.3112381 50.9357143,48.4855238 C51.3128571,48.6598095 51.5757143,49.2912381 51.677619,50.2788571 L51.9328571,51.9645714 C51.9290476,52.0798095 51.9109524,53.1045714 52.6509524,53.5017143 C53.2528571,53.8245714 54.0738095,53.6007619 55.11,52.8493333 C55.2357143,52.7864762 57.6633333,51.5512381 58.6080952,49.9464762 C59.2452381,52.0721905 60.2614286,57.1750476 56.8614286,60.8826667 C56.2280952,61.576 55.1490476,61.616 54.3519048,61.423619 C53.2538095,61.1540952 52.2309524,60.516 50.9280952,59.2855238 C50.4652381,58.8502857 49.9461905,58.3198095 49.342381,57.6626667 C49.2042857,57.5121905 48.9690476,57.5026667 48.8195238,57.6398095 C48.6690476,57.7788571 48.6595238,58.0131429 48.797619,58.1626667 C49.2052381,58.6074286 49.5661905,58.9788571 49.9090476,59.3207619 C48.6480952,59.8512381 47.9042857,61.7855238 47.5614286,62.9417143 C46.4642857,61.1712381 45.342381,59.7074286 44.2109524,58.6207619 C46.2547619,57.2950476 47.2280952,55.9445714 47.5785714,55.3579048 L47.5785714,55.3579048 Z M86.1480952,108.075048 C85.7147619,108.296952 84.8319048,108.443619 83.2442857,107.543619 C83.0995238,107.460762 82.9166667,107.485524 82.7995238,107.604571 C82.682381,107.723619 82.657619,107.905524 82.7414286,108.050286 C82.7528571,108.070286 83.7680952,109.836952 85.0966667,112.822667 C84.3814286,112.189333 83.3633333,111.021714 82.3509524,108.946476 L82.3271429,108.957905 L82.2795238,108.842667 L82.0119048,109.094095 L81.6414286,109.094095 C81.6414286,109.13981 81.6509524,109.186476 81.6671429,109.230286 C81.7661905,109.614095 82.61,112.838857 83.8585714,115.121714 C83.0452381,114.427429 81.982381,113.078857 81.1957143,110.496 C81.1414286,110.314095 80.9595238,110.201714 80.77,110.240762 C80.5833333,110.277905 80.4557143,110.449333 80.4728571,110.638857 C80.5185714,111.101714 80.83,114.143619 81.5290476,116.398857 C80.422381,114.974095 79.1404762,112.590286 79.2585714,109.276952 C79.2633333,109.145524 79.1966667,109.020762 79.0852381,108.950286 C79.037619,108.920762 74.3366667,105.961714 68.7252381,101.757905 C69.0985714,100.99981 70.4709524,99.016 74.2804762,100.076952 C78.0680952,103.155048 82.0566667,105.844571 86.1480952,108.075048 L86.1480952,108.075048 Z M59.5890476,122.328381 C58.0414286,119.77981 55.4595238,116.396952 51.8547619,112.211238 C51.6566667,111.236 51.3661905,110.064571 50.9814286,108.671238 C52.122381,108.561714 55.502381,108.600762 57.7595238,112.434095 C58.4138095,115.838857 59.0157143,119.096952 59.5890476,122.328381 L59.5890476,122.328381 Z M85.7585714,175.747429 C86.9042857,177.45219 89.0366667,179.877905 91.8633333,179.877905 C92.1604762,179.877905 92.4642857,179.851238 92.7747619,179.794095 C92.9319048,179.788381 96.6652381,179.638857 100.564286,177.307429 C100.634762,177.251238 102.23381,176.017905 104.661429,177.525524 L104.201429,177.850286 L104.201429,177.849333 L104.029048,177.97219 L84.8585714,191.530286 L80.4938095,180.13981 C80.8404762,179.531238 82.4528571,176.993143 85.7585714,175.747429 L85.7585714,175.747429 Z M273.20619,220.113143 L283.97,209.297905 C284.252857,209.030286 284.379524,208.643619 284.31,208.263619 C284.238571,207.880762 283.982381,207.563619 283.623333,207.415048 L271.917619,202.476 L277.485238,198.63219 C278.05381,198.322667 278.800476,197.838857 278.714762,197.204571 C278.638571,196.646476 277.974762,196.421714 277.74619,196.361714 L273.938571,194.330286 C273.37381,194.105524 273.060476,193.805524 272.978571,193.41219 C272.801429,192.556952 273.744286,191.37981 274.122381,190.998857 C274.142381,190.97981 274.158571,190.958857 274.172857,190.936 C274.834762,189.894095 274.941429,188.963619 274.48619,188.170286 C272.861429,185.336 264.188095,185.617905 263.868095,185.634095 C262.418571,185.502667 261.424286,184.982667 260.912857,184.087429 C259.740476,182.038857 261.32619,178.63219 261.342381,178.597905 C261.35381,178.575048 261.363333,178.549333 261.369048,178.522667 C261.577619,177.61219 261.39381,176.85981 260.823333,176.286476 C258.38619,173.836 249.254762,175.83981 248.874762,175.924571 C242.503333,177.202667 238.51,166.428381 238.471905,166.324571 C233.215714,151.226476 221.834762,139.061714 221.755714,138.983619 L215.887143,130.517905 C215.515714,129.986476 215.387143,129.317905 215.53381,128.684571 C215.680476,128.051238 216.090952,127.506476 216.657619,127.191238 C221.147143,124.700762 232.031905,123.208381 232.178571,123.187429 C233.992857,122.746476 234.821429,122.243619 234.861429,121.554095 C234.910952,120.727429 233.700476,120.233143 233.47,120.146476 C191.408095,102.649333 171.03,106.855048 169.169048,107.303619 L167.951905,106.731238 C167.94619,106.728381 167.939524,106.726476 167.93381,106.723619 L167.11,106.336 C166.63381,106.047429 166.071905,105.596952 166.092857,105.086476 C166.118571,104.430286 167.042381,103.814095 167.429048,103.614095 C167.77,103.502667 169.872857,102.700762 169.654762,99.9198095 C169.585238,99.0217143 169.254762,98.3740952 168.675714,97.9950476 C168.077619,97.6026667 167.35,97.5998095 166.834762,97.6693333 C167.132857,96.576 167.289048,95.556 167.294762,94.6312381 C167.311905,92.703619 165.839524,91.1093333 163.943333,91.0026667 C158.236667,90.6550476 151.85381,98.6388571 151.562381,99.0112381 C149.304286,102.603619 150.555714,105.29219 150.760476,105.681714 C150.85381,106.016952 150.94619,106.345524 151.039524,106.660762 C151.043333,106.674095 151.05381,106.684571 151.059524,106.697905 C151.521429,108.267429 152.020476,109.669333 152.545238,110.893143 L108.409048,110.957905 C108.371905,110.958857 108.334762,110.958857 108.297619,110.958857 C101.25381,110.958857 98.6014286,107.651238 98.5747619,107.616952 C98.5071429,107.529333 98.402381,107.476 98.29,107.474095 C98.2042857,107.457905 98.0719048,107.518857 98.0004762,107.603619 C97.5814286,108.097905 97.4033333,108.640762 97.4690476,109.215048 C97.5280952,109.727429 97.7766667,110.180762 98.0442857,110.53219 L91.7090476,109.931238 C91.5652381,109.913143 91.4242857,109.990286 91.3528571,110.116 C91.2814286,110.242667 91.2890476,110.398857 91.3757143,110.516952 C92.142381,111.575048 93.5661905,112.180762 95.0690476,112.525524 L90.6671429,112.801714 C90.5290476,112.810286 90.4071429,112.896 90.3519048,113.023619 C90.2966667,113.150286 90.3166667,113.297905 90.4042857,113.405524 C91.0538095,114.197905 93.1233333,114.569333 95.397619,114.730286 L92.9538095,114.977905 C92.802381,114.994095 92.6757143,115.100762 92.6347619,115.248381 C92.5947619,115.396 92.6490476,115.55219 92.7709524,115.643619 C93.4033333,116.11219 95.0871429,116.330286 97.0842857,116.409333 L95.8566667,116.555048 C95.6871429,116.575048 95.5538095,116.707429 95.5328571,116.876 C95.51,117.044571 95.6071429,117.205524 95.7652381,117.267429 C98.5138095,118.333143 106.405238,118.044571 106.696667,118.031238 L117.956667,118.889333 C117.959524,118.889333 117.961429,118.891238 117.964286,118.891238 C117.96619,118.891238 117.96619,118.889333 117.968095,118.889333 L169.49381,122.816 L172.49381,125.760762 L173.109048,134.091238 L160.472857,132.426476 C154.672857,131.733143 152.323333,134.720762 152.249048,134.820762 C147.729048,139.664571 148.056667,151.523619 153.223333,170.065524 C157.05,183.79981 162.249048,196.296952 162.299524,196.421714 C162.362381,196.569333 162.501429,196.656952 162.672857,196.647429 L164.152857,196.521714 C164.262381,197.333143 164.409048,199.544571 163.131905,201.354095 C162.101429,202.816 160.36619,203.714095 157.975714,204.023619 C157.47381,203.933143 154.198571,203.420762 152.789048,204.933143 C152.185238,205.578857 152.025238,206.487429 152.279524,207.616952 L122.094762,204.498857 L122.389048,185.060762 L122.677619,165.504571 C122.680476,165.365524 122.603333,165.236 122.480476,165.171238 C122.357619,165.107429 122.209048,165.116 122.09381,165.196952 L105.308095,177.068381 C102.287143,175.023619 100.135714,176.702667 100.142381,176.701714 C96.457619,178.901714 92.7861905,179.054095 92.6957143,179.060762 C89.6414286,179.621714 87.322381,176.815048 86.2147619,175.096952 C85.7042857,174.296952 85.4195238,173.689333 85.4195238,173.689333 C72.5138095,140.371238 61.5814286,125.515048 60.6947619,124.33981 C60.0061905,120.37981 59.2785714,116.418857 58.4757143,112.235048 L58.4652381,112.236952 C58.4652381,112.235048 58.4642857,112.23219 58.4633333,112.230286 L58.4757143,112.227429 C56.1071429,99.9902857 54.2071429,92.2426667 53.3861905,89.0674286 C56.7328571,92.9740952 61.6557143,97.376 68.0471429,102.175048 C73.1680952,106.026476 77.5842857,108.87219 78.5138095,109.463619 C78.3966667,115.449333 82.4547619,118.450286 82.63,118.576 C82.6957143,118.623619 82.7719048,118.646476 82.8471429,118.646476 C82.9509524,118.646476 83.0547619,118.602667 83.1271429,118.517905 C83.2519048,118.373143 83.2452381,118.155048 83.1128571,118.017905 C82.4452381,117.334095 81.9385714,115.296952 81.61,113.43981 C83.1214286,116.184571 84.8480952,116.543619 84.9395238,116.560762 C85.0919048,116.589333 85.2471429,116.518857 85.3261905,116.384571 C85.4061905,116.250286 85.3919048,116.080762 85.2928571,115.960762 C84.49,114.993143 83.7861905,113.349333 83.27,111.903619 C84.642381,113.731238 85.7547619,114.174095 85.8185714,114.197905 C85.8604762,114.214095 85.9042857,114.221714 85.9471429,114.221714 C86.0471429,114.221714 86.1433333,114.181714 86.2157143,114.107429 C86.3166667,114.000762 86.3461905,113.842667 86.2880952,113.707429 C85.3185714,111.428381 84.4566667,109.696952 83.9271429,108.686476 C86.21,109.547429 87.0690476,108.268381 87.11,108.206476 C87.1652381,108.118857 87.1814286,108.013143 87.1566667,107.913143 C87.1309524,107.813143 87.0642857,107.728381 86.9738095,107.67981 C82.7309524,105.408381 78.5947619,102.637905 74.6747619,99.4464762 L74.437619,99.7379048 L74.437619,99.7293333 L74.6690476,99.4474286 C58.9328571,86.6093333 51.3661905,70.6864762 51.2995238,70.5455238 C50.6166667,68.8455238 49.9128571,67.2845714 49.2052381,65.8798095 C63.3766667,65.7817143 70.7719048,61.148381 72.1233333,60.2055238 C73.2109524,59.4426667 73.6528571,58.8407619 73.5138095,58.3121905 C73.3757143,57.7874286 72.7433333,57.6588571 72.55,57.6321905 C72.177619,57.4988571 71.4604762,57.123619 71.41,56.7150476 C71.3738095,56.423619 71.6880952,56.048381 72.2957143,55.656 C75.0233333,53.9064762 74.9909524,51.7969524 74.9890476,51.7426667 C75.0538095,50.6817143 74.7195238,49.8331429 73.9947619,49.2198095 C71.622381,47.2131429 65.7985714,48.5340952 65.5880952,48.5855238 C62.1385714,49.036 58.7604762,45.2512381 58.7519048,45.2512381 L58.71,45.1826667 C57.2252381,42.7626667 54.1338095,37.7274286 46.8166667,41.7998095 C45.0480952,42.783619 43.9947619,44.1502857 43.6861905,45.8617143 C42.9995238,49.668381 46.2166667,53.9474286 46.9880952,54.9055238 C46.9833333,54.9140952 46.9785714,54.9217143 46.9747619,54.9293333 C46.6661905,55.4579048 45.7252381,56.8007619 43.637619,58.1121905 C42.91,57.488381 42.1880952,57.016 41.4919048,56.7226667 C40.8347619,56.4379048 40.1061905,56.3369524 39.3852381,56.428381 C33.6957143,57.1017143 33.4061905,64.0169524 33.4061905,64.0579048 C33.0661905,67.1369524 32.457619,69.9426667 31.5985714,72.3969524 C29.8947619,77.2817143 26.2861905,81.4226667 22.1804762,83.2045714 C17.3271429,85.3093333 15.71,86.2055238 15.2119048,86.5845714 C15.0109524,86.7331429 14.8128571,86.8598095 14.6147619,86.9655238 C12.3319048,88.2445714 10.6804762,90.3493333 9.71,93.2217143 C7.72142857,99.0921905 8.49666667,108.086476 12.0166667,119.953143 C14.3404762,127.783619 17.1566667,134.337905 17.7747619,135.745524 C6.48428571,143.869333 -6.10619048,167.784571 -11.0195238,177.743619 C-12.8214286,181.39219 -13.897619,183.771238 -13.8947619,183.771238 C-15.3090476,186.033143 -15.7309524,187.915048 -15.1509524,189.362667 C-14.9842857,189.77981 -14.7509524,190.11219 -14.4947619,190.383619 L-22.857619,189.51981 L-22.857619,190.448381 L296.860476,223.485524 L296.860476,222.557905 L273.20619,220.113143 Z" id="Fill-19" fill="#616872" mask="url(#mask-14)"></path>
                            </g>
                        </g>
                    </g>
                </g>
            </g>
        </g>
    </g>
</svg>