<?xml version="1.0" encoding="UTF-8"?>
<svg width="126px" height="40px" viewBox="0 0 126 40" version="1.1" xmlns="http://www.w3.org/2000/svg" xmlns:xlink="http://www.w3.org/1999/xlink">
    <title>EBFAAF23-CD99-4788-85B1-8391A0E44A94@1x</title>
    <defs>
        <path d="M83.0254527,13.6034899 C85.6433116,13.6034899 87.8389682,14.5628416 89.5481741,16.4566127 C91.278796,18.3449638 92.1548151,20.7644813 92.1548151,23.6457885 C92.1548151,26.553112 91.278796,28.9747976 89.5461344,30.8382163 C87.8389682,32.7287354 85.6433116,33.6880871 83.0254527,33.6880871 C80.4065739,33.6880871 78.2007193,32.7287354 76.4680577,30.8371323 C74.7598716,28.9476973 73.8960903,26.5281797 73.8960903,23.6457885 C73.8960903,20.7644813 74.7598716,18.3449638 76.4670379,16.4566127 C78.2007193,14.5628416 80.4065739,13.6034899 83.0254527,13.6034899 Z M113.679427,13.6034899 C116.291506,13.6034899 118.401692,14.5195305 119.952074,16.3288463 C121.477057,18.1067239 122.281711,20.7778767 122.281711,24.0517734 L122.281711,24.0517734 L122.225832,24.6675261 L108.707232,24.6675261 C108.792574,26.2448505 109.294467,27.4232365 110.316541,28.4671976 C111.279688,29.4515348 112.460254,29.9100971 114.031971,29.9100971 C115.94201,29.9100971 117.678316,28.8075961 118.921872,26.8085678 L118.921872,26.8085678 L119.069189,26.5722402 L121.712763,29.1750965 L121.604054,29.349632 C120.860358,30.5345224 119.790533,31.6250986 118.66991,32.340586 C117.267861,33.2349451 115.660584,33.6880871 113.889735,33.6880871 C111.303055,33.6880871 109.140038,32.7286836 107.459611,30.8348103 C105.761912,28.9181715 104.935922,26.6134349 104.935922,23.789428 C104.935922,20.8819476 105.784264,18.3538923 107.388493,16.4784482 C109.020153,14.5704819 111.137451,13.6034899 113.679427,13.6034899 Z M33.3425579,13.6034899 C35.9534679,13.6034899 38.0635301,14.5195305 39.6138214,16.3288463 C41.1376988,18.1056399 41.943322,20.7767926 41.943322,24.0517734 L41.943322,24.0517734 L41.8874465,24.6675261 L28.369638,24.6675261 C28.457007,26.2264213 28.9720775,27.4373294 29.9798685,28.4671976 C30.942959,29.4515348 32.1224401,29.9100971 33.6930497,29.9100971 C35.603992,29.9100971 37.3412122,28.8075961 38.5846962,26.8085678 L38.5846962,26.8085678 L38.7320043,26.5722402 L41.3744078,29.1750965 L41.2667204,29.3485479 C40.5230683,30.5334384 39.4533063,31.6250986 38.3327485,32.340586 C36.9297653,33.2349451 35.3215667,33.6880871 33.552853,33.6880871 C30.9653092,33.6880871 28.8014033,32.7286836 27.1231063,30.8348103 C25.4244909,28.9181715 24.5975335,26.6134349 24.5975335,23.789428 C24.5975335,20.8830317 25.4458252,18.3549764 27.0499602,16.4784482 C28.6825408,14.5704819 30.7997145,13.6034899 33.3425579,13.6034899 Z M99.7933111,9.03880871 L99.7933111,14.5219603 L104.022986,14.5219603 L104.022986,18.1557393 L99.7933111,18.1557393 L99.7933111,27.0669434 C99.7933111,28.216846 99.9947727,28.9953583 100.391591,29.3829902 C100.780269,29.7641256 101.203542,29.9481966 101.764175,29.9774314 C102.017528,29.9882591 102.706364,29.9222101 103.062483,29.8410023 C103.271067,29.7922776 103.480668,29.7186492 103.704514,29.6125377 L103.704514,29.6125377 L104.022986,29.4620325 L104.022986,33.2658065 L103.870364,33.3210278 C103.299556,33.527837 102.209832,33.6880871 101.432476,33.6880871 C101.370409,33.6880871 101.30936,33.6870044 101.251364,33.6848388 C99.7139475,33.6252864 98.5184054,33.1510328 97.5975837,32.2317603 C96.6279228,31.264846 96.122234,29.9059686 96.0988319,28.1951906 L96.0988319,28.1951906 L96.0988319,18.1557393 L93.0677513,18.1557393 L93.0677513,14.5219603 L96.0988319,14.5219603 L96.0988319,11.2433302 L96.2036326,11.1718673 L99.362916,9.03880871 L99.7933111,9.03880871 Z M64.519708,13.6034899 C66.6309035,13.6034899 68.2845514,14.2719727 69.4346881,15.594083 C70.5775124,16.9077047 71.1572816,18.7900672 71.1572816,21.1902386 L71.1572816,21.1902386 L71.1572816,32.7751509 L67.3642331,32.7751509 L67.3642331,21.7059253 C67.3642331,20.080345 67.0759155,18.8982978 66.5097265,18.1969214 C65.956073,17.5125224 64.992925,17.1634258 63.6505765,17.1634258 C62.4367174,17.1634258 61.4432751,17.6759293 60.6148842,18.7285244 C59.7833594,19.7821805 59.3613292,21.042748 59.3613292,22.4773332 L59.3613292,22.4773332 L59.3613292,32.7751509 L55.5661915,32.7751509 L55.5661915,21.7059253 C55.5661915,20.080345 55.2778738,18.8993588 54.7127295,18.1969214 C54.159076,17.5125224 53.1959279,17.1634258 51.8535795,17.1634258 C50.6386758,17.1634258 49.6452335,17.6759293 48.8168425,18.7285244 C47.9853177,19.7821805 47.5643322,21.0438091 47.5643322,22.4773332 L47.5643322,22.4773332 L47.5643322,32.7751509 L43.7691945,32.7751509 L43.7691945,14.1913303 L47.4191287,14.1913303 L47.4191287,16.3591244 C47.9362202,15.6375874 48.6528358,15.0189756 49.5522615,14.5128387 C50.6303187,13.909082 51.7209116,13.6034899 52.7947903,13.6034899 C54.1340049,13.6034899 55.3301053,13.9239372 56.3548865,14.555282 C57.2616246,15.1187175 57.9615261,15.8795145 58.4399663,16.8185736 C59.933786,14.6847342 61.976036,13.6034899 64.519708,13.6034899 Z M15.5708829,6.3 C18.1955094,6.3 20.6220116,7.49884312 22.2278617,9.58948301 C23.3759403,11.0765096 23.9828265,12.8632469 23.9828265,14.7537303 C23.9828265,16.6442137 23.3759403,18.430951 22.2278617,19.9179776 C21.1559046,21.3138334 19.656416,22.347102 17.9734016,22.8501131 L17.9734016,22.8501131 L25.5104697,32.7751509 L20.6710213,32.7751509 L20.6011564,32.6766446 L13.4186266,23.2064127 L7.40815893,23.2064127 L7.40815893,32.7751509 L3.60104276,32.7751509 L3.6,6.3 Z M83.0254527,17.381276 C81.3917129,17.381276 80.1638585,17.9102745 79.1624026,19.0419843 C78.126273,20.2170547 77.6000497,21.7650256 77.6000497,23.6457885 C77.6000497,25.5514838 78.126273,27.1124628 79.1634224,28.2864492 C80.139383,29.3932267 81.3672374,29.909217 83.0254527,29.909217 C84.6816284,29.909217 85.9094827,29.3932267 86.8864632,28.2864492 C87.9246324,27.1124628 88.4498359,25.5514838 88.4498359,23.6457885 C88.4498359,21.7650256 87.9246324,20.2170547 86.8864632,19.0419843 C85.886027,17.9102745 84.6571528,17.381276 83.0254527,17.381276 Z M113.609325,17.2416347 C112.450094,17.2416347 111.439196,17.6264802 110.605078,18.3853304 C109.862399,19.0617911 109.311739,20.0764823 109.004913,21.3318374 L109.004913,21.3318374 L118.355973,21.3318374 C118.216784,20.1686284 117.739274,19.1485169 116.994563,18.4384499 C116.162477,17.6438253 115.023566,17.2416347 113.609325,17.2416347 Z M33.2704277,17.2416347 C32.1122809,17.2416347 31.1014422,17.6264802 30.2683892,18.3853304 C29.5247371,19.0617911 28.9741094,20.0775664 28.6673021,21.3318374 L28.6673021,21.3318374 L38.0178138,21.3318374 C37.8796489,20.1686284 37.4021673,19.1485169 36.6564833,18.4384499 C35.8244463,17.6438253 34.6856019,17.2416347 33.2704277,17.2416347 Z M15.4123834,9.96464545 L7.40815893,9.96464545 L7.40815893,19.5428151 L15.4123834,19.5428151 C18.0401382,19.5428151 20.1777959,17.3934906 20.1777959,14.7537303 C20.1777959,12.112922 18.0401382,9.96464545 15.4123834,9.96464545 L15.4123834,9.96464545 Z" id="path-1"></path>
        <filter x="-12.2%" y="-34.7%" width="124.4%" height="205.9%" filterUnits="objectBoundingBox" id="filter-2">
            <feOffset dx="0" dy="5" in="SourceAlpha" result="shadowOffsetOuter1"></feOffset>
            <feGaussianBlur stdDeviation="4" in="shadowOffsetOuter1" result="shadowBlurOuter1"></feGaussianBlur>
            <feColorMatrix values="0 0 0 0 0   0 0 0 0 0   0 0 0 0 0  0 0 0 0.783763112 0" type="matrix" in="shadowBlurOuter1"></feColorMatrix>
        </filter>
    </defs>
    <g id="seat-멤버-초대" stroke="none" stroke-width="1" fill="none" fill-rule="evenodd">
        <g id="SEA_0210-_Android-Webbrowser-접속-_퍼블릭서비스" transform="translate(-117.000000, -199.000000)">
            <g id="image_appicon" transform="translate(112.000000, 88.000000)">
                <g id="Group-3" transform="translate(5.000000, 5.000000)">
                    <g id="img_logotype_symbol" transform="translate(0.000000, 106.000000)">
                        <g id="remote">
                            <use fill="black" fill-opacity="1" filter="url(#filter-2)" xlink:href="#path-1"></use>
                            <use fill="#FFFFFF" fill-rule="evenodd" xlink:href="#path-1"></use>
                        </g>
                        <rect id="tr" x="0" y="0" width="126" height="39.6"></rect>
                    </g>
                </g>
            </g>
        </g>
    </g>
</svg>