<?xml version="1.0" encoding="UTF-8"?>
<svg width="168px" height="192px" viewBox="0 0 168 192" version="1.1" xmlns="http://www.w3.org/2000/svg" xmlns:xlink="http://www.w3.org/1999/xlink">
    <title>D33FEDD3-F5BA-4E78-9526-00405F208E80@1x</title>
    <defs>
        <path d="M0,54.8401861 L0,137.159376 C0,142.046975 2.57758763,146.563592 6.762,149.007172 L77.238,190.166986 C81.4224124,192.611005 86.5775876,192.611005 90.762,190.166986 L161.238,149.007172 C165.422412,146.563592 168,142.046975 168,137.159376 L168,54.8401861 C168,49.9525869 165.422412,45.4364084 161.238,42.9923898 L90.762,1.83301396 C86.5775876,-0.611004654 81.4224124,-0.611004654 77.238,1.83301396 L6.762,42.9923898 C2.57758763,45.4364084 0,49.9525869 0,54.8401861" id="path-1"></path>
        <path d="M78.3864,2.8792 L8.8136,43.0464 C3.4048,46.1688 0.056,51.9168 0,58.1552 L0,58.1552 L0,138.8056 C0.056,145.0424 3.4048,150.7912 8.8136,153.9136 L8.8136,153.9136 L78.3864,194.0808 C83.8408,197.2304 90.5592,197.2304 96.0136,194.0808 L96.0136,194.0808 L165.5864,153.9136 C171.04,150.7648 174.4,144.9456 174.4,138.6472 L174.4,138.6472 L174.4,58.3128 C174.4,52.0144 171.04,46.1952 165.5864,43.0464 L165.5864,43.0464 L96.0136,2.8792 C93.2864,1.3048 90.2432,0.5176 87.2,0.5176 L87.2,0.5176 C84.1568,0.5176 81.1136,1.3048 78.3864,2.8792" id="path-3"></path>
        <path d="M78.3864,2.8792 L8.8136,43.0464 C3.4048,46.1688 0.056,51.9168 0,58.1552 L0,58.1552 L0,138.8056 C0.056,145.0424 3.4048,150.7912 8.8136,153.9136 L8.8136,153.9136 L78.3864,194.0808 C83.8408,197.2304 90.5592,197.2304 96.0136,194.0808 L96.0136,194.0808 L165.5864,153.9136 C171.04,150.7648 174.4,144.9456 174.4,138.6472 L174.4,138.6472 L174.4,58.3128 C174.4,52.0144 171.04,46.1952 165.5864,43.0464 L165.5864,43.0464 L96.0136,2.8792 C93.2864,1.3048 90.2432,0.5176 87.2,0.5176 L87.2,0.5176 C84.1568,0.5176 81.1136,1.3048 78.3864,2.8792" id="path-5"></path>
        <path d="M78.3864,2.8792 L8.8136,43.0464 C3.4048,46.1688 0.056,51.9168 0,58.1552 L0,58.1552 L0,138.8056 C0.056,145.0424 3.4048,150.7912 8.8136,153.9136 L8.8136,153.9136 L78.3864,194.0808 C83.8408,197.2304 90.5592,197.2304 96.0136,194.0808 L96.0136,194.0808 L165.5864,153.9136 C171.04,150.7648 174.4,144.9456 174.4,138.6472 L174.4,138.6472 L174.4,58.3128 C174.4,52.0144 171.04,46.1952 165.5864,43.0464 L165.5864,43.0464 L96.0136,2.8792 C93.2864,1.3048 90.2432,0.5176 87.2,0.5176 L87.2,0.5176 C84.1568,0.5176 81.1136,1.3048 78.3864,2.8792 L78.3864,2.8792 Z" id="path-7"></path>
        <path d="M78.3864,2.8792 L8.8136,43.0464 C3.4048,46.1688 0.056,51.9168 0,58.1552 L0,58.1552 L0,138.8056 C0.056,145.0424 3.4048,150.7912 8.8136,153.9136 L8.8136,153.9136 L78.3864,194.0808 C83.8408,197.2304 90.5592,197.2304 96.0136,194.0808 L96.0136,194.0808 L165.5864,153.9136 C171.04,150.7648 174.4,144.9456 174.4,138.6472 L174.4,138.6472 L174.4,58.3128 C174.4,52.0144 171.04,46.1952 165.5864,43.0464 L165.5864,43.0464 L96.0136,2.8792 C93.2864,1.3048 90.2432,0.5176 87.2,0.5176 L87.2,0.5176 C84.1568,0.5176 81.1136,1.3048 78.3864,2.8792" id="path-9"></path>
        <path d="M78.3864,2.8792 L8.8136,43.0464 C3.4048,46.1688 0.056,51.9168 0,58.1552 L0,58.1552 L0,138.8056 C0.056,145.0424 3.4048,150.7912 8.8136,153.9136 L8.8136,153.9136 L78.3864,194.0808 C83.8408,197.2304 90.5592,197.2304 96.0136,194.0808 L96.0136,194.0808 L165.5864,153.9136 C171.04,150.7648 174.4,144.9456 174.4,138.6472 L174.4,138.6472 L174.4,58.3128 C174.4,52.0144 171.04,46.1952 165.5864,43.0464 L165.5864,43.0464 L96.0136,2.8792 C93.2864,1.3048 90.2432,0.5176 87.2,0.5176 L87.2,0.5176 C84.1568,0.5176 81.1136,1.3048 78.3864,2.8792" id="path-11"></path>
    </defs>
    <g id="Remote_Main_Mobile" stroke="none" stroke-width="1" fill="none" fill-rule="evenodd">
        <g id="Resource" transform="translate(-68.000000, -259.000000)">
            <g id="image" transform="translate(68.000000, 259.000000)">
                <mask id="mask-2" fill="white">
                    <use xlink:href="#path-1"></use>
                </mask>
                <use id="image_BG" fill="#20252A" xlink:href="#path-1"></use>
                <g id="Group-16" mask="url(#mask-2)">
                    <g transform="translate(-4.000000, -2.400000)">
                        <g id="Group-3" transform="translate(0.000000, 0.282400)">
                            <mask id="mask-4" fill="white">
                                <use xlink:href="#path-3"></use>
                            </mask>
                            <g id="Clip-2"></g>
                            <path d="M140.5004,126.39384 L131.8724,126.39384 C130.9684,126.39384 130.234,125.65864 130.234,124.75464 L130.234,113.05864 L142.1396,113.05864 L142.1396,124.75464 C142.1396,125.65864 141.4044,126.39384 140.5004,126.39384 M131.8724,108.02904 L140.5004,108.02904 C141.4044,108.02904 142.1396,108.76424 142.1396,109.66824 L142.1396,111.61864 L130.234,111.61864 L130.234,109.66824 C130.234,108.76424 130.9684,108.02904 131.8724,108.02904 M140.5004,106.58984 L131.8724,106.58984 C130.1748,106.58984 128.7932,107.97064 128.7932,109.66824 L128.7932,124.75464 C128.7932,126.45224 130.1748,127.83384 131.8724,127.83384 L140.5004,127.83384 C142.198,127.83384 143.5804,126.45224 143.5804,124.75464 L143.5804,109.66824 C143.5804,107.97064 142.198,106.58984 140.5004,106.58984" id="Fill-1" fill="#73757A" mask="url(#mask-4)"></path>
                        </g>
                        <g id="Group-6" transform="translate(0.000000, 0.282400)">
                            <mask id="mask-6" fill="white">
                                <use xlink:href="#path-5"></use>
                            </mask>
                            <g id="Clip-5"></g>
                            <path d="M106.60664,91.27512 L95.92984,157.17912 L124.16664,157.17912 L123.34264,92.88552 C120.49944,95.23112 113.30904,99.64072 106.60664,91.27512" id="Fill-4" fill="#32373F" mask="url(#mask-6)"></path>
                        </g>
                        <g id="Group-9" transform="translate(0.000000, 0.282400)">
                            <mask id="mask-8" fill="white">
                                <use xlink:href="#path-7"></use>
                            </mask>
                            <g id="Clip-8"></g>
                            <path d="M126.47856,219.93528 L124.75296,85.34168 C130.89536,87.54488 164.89216,101.14248 165.33536,132.11848 C165.77696,162.83848 146.86176,189.17208 142.91616,194.32488 L134.93056,179.76408 C139.81376,174.08088 146.80896,145.03048 147.11136,143.76328 L145.71136,143.42808 C143.25136,153.70808 137.85696,173.43048 134.18416,178.40248 L132.89216,176.04648 L131.62896,176.73848 L145.78016,202.54248 L147.04256,201.85048 L143.67056,195.70088 C144.67136,194.42328 147.63776,190.49688 151.13216,184.62168 L154.11936,219.14568 L126.47856,219.93528 Z M110.93376,236.16008 L108.50416,212.77688 L108.31456,212.79608 L114.57456,193.37208 L113.20416,192.93048 L99.27216,236.16008 L70.45536,236.16008 L75.14416,219.95288 L85.75936,219.95288 L95.69616,158.62408 L124.25216,158.62408 L125.05696,221.41688 L137.74896,221.05368 L138.69456,236.16008 L110.93376,236.16008 Z M67.30656,218.51368 L85.63536,143.52808 L67.55936,144.81928 L67.40576,144.84728 C67.20416,144.90488 62.47536,146.14808 58.49616,137.57688 C54.66976,129.33368 46.68016,113.98728 44.94416,110.66488 L57.06816,104.45208 L68.51376,128.49768 C68.69296,128.87528 69.06256,129.12808 69.47936,129.15768 C69.89216,129.18248 70.29216,128.98888 70.52016,128.64328 C72.88976,125.06568 91.88336,96.77368 105.63456,88.28248 L84.53376,218.51368 L75.56096,218.51368 L74.60256,218.51368 L67.30656,218.51368 Z M31.33616,100.53528 C29.80576,100.98568 28.93296,101.08568 28.45376,101.08568 C28.05616,101.08568 27.92096,101.02088 27.91856,101.02248 C27.91296,100.97128 27.95296,100.83928 27.99536,100.76408 L28.03376,100.69048 C29.16416,98.19288 38.21856,96.16008 45.47296,95.14168 C45.47616,95.14168 45.48256,95.14328 45.48576,95.14328 C45.53136,95.14328 45.57216,95.14088 45.60496,95.13608 L45.60416,95.12408 C46.83456,94.95288 48.01376,94.81048 49.08896,94.70088 C50.63456,94.55288 51.78656,94.92248 52.60576,95.83128 C54.68976,98.14008 54.04336,103.16168 53.82736,104.49528 L46.86896,108.06008 C47.02256,105.92008 46.66176,104.23288 46.63856,104.13128 C44.98976,97.53128 31.93616,100.39928 31.33616,100.53528 L31.33616,100.53528 Z M39.85936,92.29448 C38.82176,91.98888 38.29936,91.74168 38.04176,91.58648 C38.28736,91.47048 38.65456,91.34808 38.96256,91.28488 C46.86816,90.19288 49.95776,91.45608 51.15376,92.70808 C51.42816,92.99448 51.59616,93.28328 51.70816,93.55128 C50.90256,93.26568 49.98256,93.16808 48.94736,93.26808 C48.92176,93.27048 47.52256,93.41528 45.45856,93.70328 C45.31056,93.69448 44.24256,93.58888 39.85936,92.29448 L39.85936,92.29448 Z M110.60816,86.08568 L111.17136,85.95928 L111.17136,78.90728 L110.15216,79.37208 C110.10736,79.39368 105.61376,81.41288 102.71536,79.92248 C101.50656,79.30168 100.75536,78.16488 100.41936,76.44888 C99.16256,70.02168 106.92816,60.56888 108.70736,58.50648 L116.82096,62.69208 C116.17296,63.84568 114.89536,66.24248 114.53616,67.81048 C114.37856,68.50008 114.24336,69.46968 114.89296,69.93608 C115.34016,70.25688 115.89776,70.12728 116.23936,69.91688 L116.38816,69.82568 L116.47856,69.67608 C117.93216,67.27048 118.92016,66.91048 119.38016,66.91048 L119.38176,66.91048 C119.94976,66.91128 120.30496,67.48248 120.30656,67.48248 L120.30656,67.48168 C120.97616,68.71928 121.13936,69.70968 120.79216,70.42408 C120.30576,71.42328 118.92176,71.67048 118.91056,71.67208 L117.94816,71.82808 L120.18816,76.35768 C120.01456,77.42648 119.66256,81.46328 123.30336,84.65208 L123.40896,92.89048 L124.23296,157.18488 L95.99616,157.18488 L95.92976,157.18488 L107.24256,87.36648 C108.41696,86.76088 109.54416,86.32408 110.60816,86.08568 L110.60816,86.08568 Z M105.78976,55.80088 C106.99136,53.58408 111.41696,46.95208 120.27936,49.48648 C120.37616,49.50888 130.04336,51.80168 133.47696,58.56728 C135.09136,61.74808 135.08816,65.45688 133.46976,69.60248 L129.84416,67.78968 L129.83216,67.78328 L128.65536,67.12488 L128.66176,67.17928 L109.70176,57.39848 L109.78336,57.30968 L105.78976,55.80088 Z M104.48656,55.20808 C103.41776,54.57928 102.47616,53.75608 102.41936,53.25128 C102.66976,53.16568 103.46336,53.05128 105.35136,53.81128 C104.97296,54.36168 104.68736,54.84328 104.48656,55.20808 L104.48656,55.20808 Z M118.17856,45.22248 C118.71216,45.40088 119.28416,45.58248 119.88336,45.77288 C125.83056,47.66488 134.30256,50.36808 135.15456,58.77528 C135.03216,58.48328 134.90336,58.19368 134.75856,57.90888 C131.01456,50.54168 121.02496,48.18008 120.63776,48.09288 C115.91696,46.74248 112.30496,47.78728 109.68096,49.50008 C111.56176,46.86168 114.54816,44.01048 118.17856,45.22248 L118.17856,45.22248 Z M121.22976,75.21688 L120.04816,72.82648 C120.72336,72.55448 121.60576,72.03208 122.08096,71.06648 C122.65056,69.90808 122.47936,68.47208 121.56416,66.78248 C121.29056,66.30168 120.52736,65.48408 119.40896,65.47048 L119.37776,65.47048 C118.26896,65.47048 117.17376,66.20968 116.05136,67.72168 C116.48496,66.31448 117.55376,64.32808 118.10176,63.35208 L128.66096,68.80008 C128.28576,69.57848 126.82176,71.64728 121.22976,75.21688 L121.22976,75.21688 Z M152.38976,182.45608 C159.11616,170.63208 167.06576,152.31368 166.77616,132.09848 C166.28976,98.20248 127.04336,84.57128 124.37376,83.68648 C121.24416,81.04568 121.45136,77.68168 121.59216,76.69528 C127.38656,73.05368 129.33456,70.73928 129.95936,69.45688 L134.20256,71.57928 L134.50336,70.87768 C135.41056,68.76488 135.93776,66.74328 136.08656,64.82328 C139.48416,50.50008 127.49136,46.68248 120.32016,44.40088 C119.72736,44.21208 119.16176,44.03288 118.63456,43.85688 C111.36336,41.43288 106.72416,51.47048 106.22176,52.61608 C102.32736,50.96088 101.32976,52.11848 101.11456,52.53128 L101.07136,52.63048 C100.49056,54.32968 102.67296,55.83848 103.86576,56.51688 L103.82976,56.60008 L107.31216,57.91528 C104.96816,60.67128 97.67376,69.91288 99.00656,76.72488 C99.42656,78.87208 100.45296,80.37928 102.05776,81.20328 C104.65536,82.53768 108.05456,81.66408 109.73056,81.08168 L109.73056,84.82168 C96.11216,88.59688 74.54896,119.99048 69.59856,127.42728 L57.73056,102.49448 L55.39136,103.69368 C55.64416,101.47688 55.79536,97.21848 53.67696,94.86888 C53.56896,94.74888 53.45296,94.64088 53.33536,94.53368 C53.34896,93.92408 53.21696,92.80808 52.23536,91.75528 C50.17696,89.54648 45.64576,88.90728 38.72336,89.86568 C37.87696,90.03528 36.45216,90.47448 36.40496,91.51288 C36.36576,92.39928 37.24816,93.02568 39.45136,93.67608 C40.24736,93.91048 40.97456,94.11848 41.63056,94.29928 C40.71616,94.45688 39.76336,94.63368 38.80416,94.82888 C31.65856,96.28488 27.70976,97.99608 26.73856,100.06088 C26.46416,100.54168 26.31216,101.28728 26.76016,101.86728 C27.42176,102.72008 28.95776,102.73688 31.69776,101.92888 C35.09616,101.16328 44.15376,100.12968 45.23696,104.46008 C45.24176,104.48088 45.67376,106.52248 45.33776,108.84488 L42.99536,110.04568 L43.33216,110.68888 C43.42816,110.87128 52.91936,128.98248 57.19056,138.18328 C61.47936,147.42168 66.93616,146.44968 67.72976,146.25128 L83.76816,145.10568 L65.47216,219.95288 L73.64496,219.95288 L68.53936,237.60008 L100.32096,237.60008 L107.36416,215.74408 L109.63536,237.60008 L140.22736,237.60008 L139.18976,221.01288 L155.68496,220.54168 L152.38976,182.45608 Z" id="Fill-7" fill="#616872" mask="url(#mask-8)"></path>
                        </g>
                        <g id="Group-12" transform="translate(0.000000, 0.282400)">
                            <mask id="mask-10" fill="white">
                                <use xlink:href="#path-9"></use>
                            </mask>
                            <g id="Clip-11"></g>
                            <path d="M42.3168,77.11656 C41.572,77.11656 40.9688,76.51336 40.9688,75.76856 L40.9688,70.61096 C40.9688,70.24856 41.1144,69.90136 41.3736,69.64856 C41.6328,69.39416 42.008,69.25096 42.344,69.26296 C42.4176,69.26456 42.4912,69.26536 42.5624,69.26536 C48.9792,69.26536 49.4424,63.42216 49.4736,62.74936 C49.4784,62.67336 49.692,59.30456 47.656,57.11896 C46.4384,55.81256 44.6088,55.15016 42.2168,55.15016 C34.5464,55.15016 34.2664,61.31016 34.2608,62.01256 C34.2536,62.75256 33.652,63.35096 32.9128,63.35096 L32.9056,63.35096 C32.1648,63.34776 31.5648,62.74856 31.5648,62.00616 C31.5648,61.91096 31.6864,52.45496 42.2168,52.45496 C45.4,52.45496 47.9,53.41256 49.6472,55.30216 C52.4824,58.36616 52.1792,62.72776 52.1648,62.91176 C52.164,62.95096 51.7392,71.23096 43.6648,71.91656 L43.6648,75.76856 C43.6648,76.51336 43.0616,77.11656 42.3168,77.11656" id="Fill-10" fill="#616872" mask="url(#mask-10)"></path>
                        </g>
                        <g id="Group-15" transform="translate(0.000000, 0.282400)">
                            <mask id="mask-12" fill="white">
                                <use xlink:href="#path-11"></use>
                            </mask>
                            <g id="Clip-14"></g>
                            <path d="M42.37464,78.772 C41.05544,78.772 39.98104,79.8456 39.98104,81.1656 C39.98104,82.4856 41.05544,83.5584 42.37464,83.5584 C43.69384,83.5584 44.76744,82.4856 44.76744,81.1656 C44.76744,79.8456 43.69384,78.772 42.37464,78.772" id="Fill-13" fill="#616872" mask="url(#mask-12)"></path>
                        </g>
                    </g>
                </g>
            </g>
        </g>
    </g>
</svg>