<?xml version="1.0" encoding="UTF-8"?>
<svg width="100px" height="100px" viewBox="0 0 100 100" version="1.1" xmlns="http://www.w3.org/2000/svg" xmlns:xlink="http://www.w3.org/1999/xlink">
    <title>D4A4C00A-30B5-46D8-9734-8E3B7297149C@1x</title>
    <defs>
        <polygon id="path-1" points="0.0002 0.1313 86.099 0.1313 86.099 81 0.0002 81"></polygon>
    </defs>
    <g id="Remote_collabo_Mobile" stroke="none" stroke-width="1" fill="none" fill-rule="evenodd">
        <g id="RWS_0103_1_접속-화면-채팅-공유-파일_파일없음(리더)" transform="translate(-129.000000, -306.000000)">
            <g id="img_nofile_chat" transform="translate(105.000000, 306.000000)">
                <g transform="translate(24.000000, 0.000000)">
                    <rect id="tr" x="0" y="0" width="100" height="100"></rect>
                    <g transform="translate(7.000000, 9.000000)">
                        <polygon id="Fill-1" fill="#32373F" points="23.392 20.2934 83.051 20.2934 83.051 14.1954 23.392 14.1954"></polygon>
                        <g id="Group-11" transform="translate(0.000000, 0.869400)">
                            <path d="M3.0488,76.4268 C3.0488,77.2668 3.7318,77.9508 4.5738,77.9508 L81.5258,77.9508 C82.3678,77.9508 83.0498,77.2668 83.0498,76.4268 L83.0498,74.6258 L3.0488,74.6258 L3.0488,76.4268 Z" id="Fill-2" fill="#32373F"></path>
                            <g id="Group-6">
                                <mask id="mask-2" fill="white">
                                    <use xlink:href="#path-1"></use>
                                </mask>
                                <g id="Clip-5"></g>
                                <path d="M83.0502,19.4243 L23.3912,19.4243 L23.3912,13.3263 L81.5262,13.3263 C82.3672,13.3263 83.0502,14.0103 83.0502,14.8513 L83.0502,19.4243 Z M83.0502,74.6263 L83.0502,76.4263 C83.0502,77.2663 82.3672,77.9513 81.5262,77.9513 L4.5732,77.9513 C3.7322,77.9513 3.0492,77.2663 3.0492,76.4263 L3.0492,74.6263 L3.0492,4.7043 C3.0492,3.8643 3.7322,3.1793 4.5732,3.1793 L18.8182,3.1793 C19.6592,3.1793 20.3422,3.8643 20.3422,4.7043 L20.3422,20.9493 C20.3422,21.7903 21.0242,22.4733 21.8672,22.4733 L83.0502,22.4733 L83.0502,74.6263 Z M81.5262,10.2773 L23.3912,10.2773 L23.3912,4.7043 L23.3912,4.7023 C23.3902,2.1813 21.3382,0.1313 18.8182,0.1313 L4.5732,0.1313 C2.0522,0.1313 0.0002,2.1823 0.0002,4.7043 L0.0002,76.4263 C0.0002,78.9483 2.0522,81.0003 4.5732,81.0003 L81.5262,81.0003 C84.0472,81.0003 86.0992,78.9483 86.0992,76.4263 L86.0992,14.8513 C86.0992,12.3293 84.0472,10.2773 81.5262,10.2773 L81.5262,10.2773 Z" id="Fill-4" fill="#3E454F" mask="url(#mask-2)"></path>
                            </g>
                            <path d="M51.0668,53.9487 C51.5878,54.4697 51.5878,55.3147 51.0668,55.8357 C50.5458,56.3567 49.7008,56.3567 49.1798,55.8357 L43.7288,50.3847 L38.2778,55.8357 C37.7568,56.3567 36.9118,56.3567 36.3908,55.8357 C35.8698,55.3147 35.8698,54.4697 36.3908,53.9487 L41.8418,48.4977 L36.3908,43.0467 C35.8698,42.5257 35.8698,41.6807 36.3908,41.1597 C36.9118,40.6387 37.7568,40.6387 38.2778,41.1597 L43.7288,46.6107 L49.1798,41.1597 C49.7008,40.6387 50.5458,40.6387 51.0668,41.1597 C51.5878,41.6807 51.5878,42.5257 51.0668,43.0467 L45.6158,48.4977 L51.0668,53.9487 Z M43.7288,32.1547 C34.5488,32.1547 27.0798,39.6237 27.0798,48.8037 C27.0798,57.9847 34.5488,65.4537 43.7288,65.4537 C52.9088,65.4537 60.3788,57.9847 60.3788,48.8037 C60.3788,39.6237 52.9088,32.1547 43.7288,32.1547 L43.7288,32.1547 Z" id="Fill-7" fill="#394E6A"></path>
                        </g>
                    </g>
                </g>
            </g>
        </g>
    </g>
</svg>