<?xml version="1.0" encoding="UTF-8"?>
<svg width="109px" height="27px" viewBox="0 0 109 27" version="1.1" xmlns="http://www.w3.org/2000/svg" xmlns:xlink="http://www.w3.org/1999/xlink">
    <title>DEEB385A-B6A6-4AAC-9307-40D00694ED52@2x</title>
    <defs>
        <linearGradient x1="61.0326595%" y1="4.94673679%" x2="26.4525181%" y2="71.9326429%" id="linearGradient-1">
            <stop stop-color="#00A0FF" offset="0%"></stop>
            <stop stop-color="#00A1FF" offset="0.7%"></stop>
            <stop stop-color="#00BEFF" offset="26%"></stop>
            <stop stop-color="#00D2FF" offset="51.2%"></stop>
            <stop stop-color="#00DFFF" offset="76%"></stop>
            <stop stop-color="#00E3FF" offset="100%"></stop>
        </linearGradient>
        <linearGradient x1="107.594672%" y1="50.0071383%" x2="-130.515834%" y2="50.0071383%" id="linearGradient-2">
            <stop stop-color="#FFE000" offset="0%"></stop>
            <stop stop-color="#FFBD00" offset="40.9%"></stop>
            <stop stop-color="#FFA500" offset="77.5%"></stop>
            <stop stop-color="#FF9C00" offset="100%"></stop>
        </linearGradient>
        <linearGradient x1="86.245051%" y1="30.9002394%" x2="-50.1231709%" y2="136.017978%" id="linearGradient-3">
            <stop stop-color="#FF3A44" offset="0%"></stop>
            <stop stop-color="#C31162" offset="100%"></stop>
        </linearGradient>
        <linearGradient x1="-18.8049506%" y1="-11.8220467%" x2="42.0874672%" y2="35.0898572%" id="linearGradient-4">
            <stop stop-color="#32A071" offset="0%"></stop>
            <stop stop-color="#2DA771" offset="6.9%"></stop>
            <stop stop-color="#15CF74" offset="47.6%"></stop>
            <stop stop-color="#06E775" offset="80.1%"></stop>
            <stop stop-color="#00F076" offset="100%"></stop>
        </linearGradient>
    </defs>
    <g id="seat-멤버-초대" stroke="none" stroke-width="1" fill="none" fill-rule="evenodd">
        <g id="SEA_0210-_Android-Webbrowser-접속-_퍼블릭서비스" transform="translate(-126.000000, -425.000000)">
            <g id="01" transform="translate(70.000000, 414.000000)">
                <g id="image_google" transform="translate(56.000000, 11.000000)">
                    <rect id="tr" x="0" y="0" width="109" height="27"></rect>
                    <g id="Google_Play-Logo.wine">
                        <g id="g1231" transform="translate(0.000000, 0.013153)">
                            <path d="M0.446821348,0.387156776 C0.163083163,0.692109031 0,1.16147033 0,1.77137484 L0,23.4654131 C0,24.0753176 0.163083163,24.5446789 0.457428383,24.8390241 L0.534329386,24.9039922 L12.6899915,12.7483301 L12.6899915,12.475199 L0.523722351,0.322188687 L0.446821348,0.387156776 Z" id="path1192" fill="url(#linearGradient-1)"></path>
                            <path d="M16.7339235,16.8161281 L12.6793844,12.7602631 L12.6793844,12.4765249 L16.7352494,8.42065988 L16.8227575,8.47502094 L21.619789,11.2010289 C22.9934,11.9753425 22.9934,13.2508384 21.619789,14.035759 L16.8227575,16.761767 C16.8214316,16.761767 16.7339235,16.8161281 16.7339235,16.8161281 L16.7339235,16.8161281 Z" id="path1203" fill="url(#linearGradient-2)"></path>
                            <path d="M16.8214316,16.761767 L12.6793844,12.618394 L0.446821348,24.850957 C0.893642696,25.3309254 1.6454163,25.3852864 2.48602382,24.9159251 L16.8214316,16.761767" id="path1210" fill="url(#linearGradient-3)"></path>
                            <path d="M16.8214316,8.47634682 L2.48602382,0.332795722 C1.64674218,-0.14717261 0.893642696,-0.082204521 0.446821348,0.397763811 L12.6780585,12.618394 L16.8214316,8.47634682 Z" id="path1223" fill="url(#linearGradient-4)"></path>
                            <path d="M16.7339235,16.674259 L2.49663085,24.763449 C1.70110323,25.2208774 0.991757769,25.1890563 0.534329386,24.774056 L0.457428383,24.850957 L0.534329386,24.9159251 C0.991757769,25.3295995 1.70110323,25.3627465 2.49663085,24.9053181 L16.8320386,16.761767 L16.7339235,16.674259 L16.7339235,16.674259 Z" id="path1225" fill="#000000" fill-rule="nonzero" opacity="0.2"></path>
                            <path d="M21.6184631,13.8938899 L16.7233165,16.674259 L16.8108245,16.761767 L21.6078561,14.035759 C22.2946616,13.6432987 22.6327609,13.1315093 22.6327609,12.618394 C22.5890068,13.0877553 22.2403006,13.5345766 21.6184631,13.8938899 L21.6184631,13.8938899 Z" id="path1227" fill="#000000" fill-rule="nonzero" opacity="0.12"></path>
                            <path d="M2.48602382,0.474664815 L21.6184631,11.3442239 C22.2403006,11.6929302 22.5890068,12.1503586 22.6433679,12.6197198 C22.6433679,12.1079304 22.3052686,11.5948151 21.6184631,11.2023548 L2.48602382,0.332795722 C1.11241279,-0.452124865 0,0.201533664 0,1.77137484 L0,1.91324393 C0,0.343402757 1.11241279,-0.299648738 2.48602382,0.474664815 Z" id="path1229" fill="#FFFFFF" opacity="0.25"></path>
                        </g>
                        <g id="g1237" transform="translate(27.299856, 5.634881)" fill="#808285">
                            <path d="M0.0132587937,6.30853404 C0.0132587937,2.83340421 2.93417105,0.00397763811 6.40930088,0.00397763811 C8.33050008,0.00397763811 9.69748172,0.758403 10.7290159,1.74087961 L9.51451036,2.95538512 C8.77732143,2.26327609 7.77760839,1.72629494 6.407975,1.72629494 C3.87024188,1.72629494 1.88672634,3.76947505 1.88672634,6.30720817 C1.88672634,8.84494128 3.87024188,10.8907731 6.40664912,10.8907731 C8.05206542,10.8907731 8.98813625,10.2304852 9.58875961,9.62853599 C10.0806609,9.13663474 10.4028495,8.42994104 10.5274822,7.46072322 L6.40930088,7.46072322 L6.40930088,5.74238355 L12.2060455,5.74238355 C12.2670359,6.04998757 12.298857,6.41858203 12.298857,6.81767172 C12.298857,8.10775235 11.9448472,9.70808875 10.8059169,10.8470191 C9.69748172,12.0005342 8.28409431,12.6157422 6.407975,12.6157422 C2.93151929,12.6157422 0.010607035,9.78896739 0.010607035,6.3111858 L0.0132587937,6.30853404 Z M16.9845147,4.49473029 C14.739801,4.49473029 12.9074357,6.2024637 12.9074357,8.55324782 C12.9074357,10.892099 14.7384751,12.6117646 16.9845147,12.6117646 C19.2305544,12.6117646 21.058942,10.8894473 21.058942,8.55192194 C21.058942,6.20113782 19.2292285,4.49340519 16.9845147,4.49473029 L16.9845147,4.49473029 Z M16.9845147,11.0154058 C15.7554246,11.0154058 14.6933952,10.0011081 14.6933952,8.5545737 C14.6933952,7.09345463 15.7540987,6.09374159 16.9845147,6.09374159 C18.2136049,6.09374159 19.2743084,7.09212875 19.2743084,8.5545737 C19.2743084,9.99978221 18.2149308,11.0154058 16.9845147,11.0154058 Z M25.8745359,4.49473029 C23.6298221,4.49473029 21.8001086,6.2024637 21.8001086,8.55324782 C21.8001086,10.892099 23.6298221,12.6117646 25.8745359,12.6117646 C28.1192497,12.6117646 29.9489632,10.8894473 29.9489632,8.55192194 C29.9489632,6.20113782 28.1205756,4.49340519 25.8745359,4.49473029 L25.8745359,4.49473029 Z M25.8745359,11.0154058 C24.6454457,11.0154058 23.5834164,10.0011081 23.5834164,8.5545737 C23.5834164,7.09345463 24.6441199,6.09374159 25.8745359,6.09374159 C27.1036261,6.09374159 28.1656555,7.09212875 28.1656555,8.5545737 C28.1656555,9.99978221 27.1036261,11.0154058 25.8745359,11.0154058 Z M36.7851973,4.74134463 L36.7851973,5.40163256 L36.7242068,5.40163256 C36.3251171,4.9229901 35.5561071,4.49340519 34.5882151,4.49340519 C32.5582938,4.49340519 30.6954333,6.27803882 30.6954333,8.57048425 C30.6954333,10.8443674 32.5569679,12.6144163 34.5882151,12.6144163 C35.5561071,12.6144163 36.3251171,12.1848314 36.7242068,11.6929302 L36.7851973,11.6929302 L36.7851973,12.2763171 C36.7851973,13.8289218 35.9551968,14.6602482 34.6173845,14.6602482 C33.5248599,14.6602482 32.8486614,13.8753276 32.5715526,13.2163656 L31.017622,13.8620688 C31.4631175,14.937357 32.6484536,16.2605846 34.6160586,16.2605846 C36.7056445,16.2605846 38.4743676,15.0288427 38.4743676,12.0310294 L38.4743676,4.74001875 L36.7851973,4.74134463 Z M34.7406913,11.0154058 C33.5116011,11.0154058 32.4787411,9.98387166 32.4787411,8.57048425 C32.4787411,7.14118629 33.5102752,6.09506747 34.7406913,6.09506747 C35.9551968,6.09506747 36.9085054,7.13986041 36.9085054,8.57048425 C36.9098299,9.98387166 35.9565226,11.0154058 34.7406913,11.0154058 Z M39.7061095,0.434888434 L41.4907431,0.434888434 L41.4907431,12.3678028 L39.7061095,12.3678028 L39.7061095,0.434888434 Z M46.3819121,11.0154058 C45.4750106,11.0154058 44.8279815,10.5990797 44.415633,9.78631563 L49.8437832,7.5389501 L49.6568342,7.07754408 C49.3200608,6.17196847 48.2885267,4.49473107 46.1817044,4.49473107 C44.0907926,4.49473107 42.3525647,6.14014736 42.3525647,8.5545737 C42.3525647,10.8284568 44.074882,12.6130905 46.3819121,12.6130905 C48.2434468,12.6130905 49.3200608,11.4768118 49.7655563,10.8138721 L48.3813382,9.89238598 C47.9186063,10.5699103 47.2874877,11.0167317 46.3819121,11.0154058 L46.3819121,11.0154058 Z M46.2426948,6.06324636 C46.9493885,6.06324636 47.548686,6.41725615 47.7488938,6.92374207 L44.1186361,8.43126692 C44.0735562,6.86275162 45.3344674,6.06324636 46.2426948,6.06324636 L46.2426948,6.06324636 Z" id="path1233"></path>
                            <path d="M57.6744267,0.434888434 L53.4077469,0.434888434 L53.4077469,12.3678028 L55.1884029,12.3678028 L55.1884029,7.84787999 L57.6757526,7.84787999 C59.649987,7.84787999 61.5910744,6.41858203 61.5910744,4.14072127 C61.5910744,1.86683815 59.6513129,0.436214313 57.6784044,0.436214313 L57.6744267,0.434888434 Z M57.7208325,6.18655314 L55.1884029,6.18655314 L55.1884029,2.09488941 L57.7208325,2.09488941 C59.0520154,2.09488941 59.8104184,3.19934692 59.8104184,4.14072127 C59.8104184,5.06618507 59.0520154,6.18655314 57.7208325,6.18655314 L57.7208325,6.18655314 Z M64.3528811,12.3678028 L64.3528811,0.434888434 L62.5722251,0.434888434 L62.5722251,12.3678028 L64.3528811,12.3678028 Z M72.3519114,12.3465887 L72.3519114,7.77230487 C72.3519114,5.65354964 70.7688114,4.47219112 68.7256313,4.47219112 C67.4382024,4.47219112 66.1030419,5.04099337 65.5501502,6.29925289 L67.1305984,6.95821494 C67.4686976,6.29925289 68.0971645,6.08313455 68.7587783,6.08313455 C69.6789386,6.08313455 70.6150094,6.63602625 70.6295941,7.61982874 L70.6295941,7.74313552 C70.3074054,7.55883829 69.6179481,7.2817295 68.7720371,7.2817295 C67.0682821,7.2817295 65.3340319,8.21780034 65.3340319,9.96796111 C65.3340319,11.5656457 66.7315087,12.5932023 68.2973723,12.5932023 C69.4959672,12.5932023 70.1549292,12.0562211 70.5686036,11.4277543 L70.6295941,11.4277543 L70.6295941,12.3492405 L72.3505855,12.3492405 L72.3519114,12.3465887 Z M68.5134906,11.0127541 C67.9301037,11.0127541 67.1160137,10.7210606 67.1160137,10.0011081 C67.1160137,9.07962193 68.1303115,8.72428626 69.0053918,8.72428626 C69.7889865,8.72428626 70.1562551,8.89267294 70.6335717,9.12337595 C70.4970061,10.1946865 69.5914305,10.9994953 68.5134906,11.0127541 L68.5134906,11.0127541 Z M78.6140396,4.73338935 L76.5721854,9.90564478 L76.511195,9.90564478 L74.3924397,4.73338935 L72.4738923,4.73338935 L75.6506992,11.9647354 L73.8382221,15.9861276 L75.6957791,15.9861276 L80.5922517,4.73338935 L78.6140396,4.73338935 Z" id="path1235"></path>
                        </g>
                    </g>
                </g>
            </g>
        </g>
    </g>
</svg>