<?xml version="1.0" encoding="UTF-8"?>
<svg width="200px" height="230px" viewBox="0 0 200 230" version="1.1" xmlns="http://www.w3.org/2000/svg" xmlns:xlink="http://www.w3.org/1999/xlink">
    <title>FEC7C88C-ECCA-48B8-8334-E244FCDA682F@1x</title>
    <defs>
        <path d="M0,65.2859359 L0,163.284971 C0,169.103542 3.0685567,174.480466 8.05,177.389491 L91.95,226.389269 C96.9314433,229.298815 103.068557,229.298815 108.05,226.389269 L191.95,177.389491 C196.931443,174.480466 200,169.103542 200,163.284971 L200,65.2859359 C200,59.4673654 196.931443,54.0909624 191.95,51.1814164 L108.05,2.18215948 C103.068557,-0.727386493 96.9314433,-0.727386493 91.95,2.18215948 L8.05,51.1814164 C3.0685567,54.0909624 0,59.4673654 0,65.2859359" id="path-1"></path>
        <polygon id="path-3" points="67.2228571 0.635238095 108.217143 126.698095 0.82952381 121.484762 38.787619 0.635238095"></polygon>
        <linearGradient x1="50%" y1="0%" x2="50%" y2="100%" id="linearGradient-5">
            <stop stop-color="#73757A" stop-opacity="0.438155594" offset="0%"></stop>
            <stop stop-color="#1E1F22" stop-opacity="0" offset="100%"></stop>
        </linearGradient>
    </defs>
    <g id="Remote_Main_Mobile" stroke="none" stroke-width="1" fill="none" fill-rule="evenodd">
        <g id="RWS_0000-_접속-전-화면_상단-컨텐츠-_기록없음" transform="translate(-80.000000, -232.000000)">
            <g id="image" transform="translate(80.000000, 232.000000)">
                <rect id="tr" x="0" y="0" width="200" height="230"></rect>
                <g id="Group-2" transform="translate(0.000000, 1.000000)">
                    <mask id="mask-2" fill="white">
                        <use xlink:href="#path-1"></use>
                    </mask>
                    <use id="image_BG" fill="#272B30" xlink:href="#path-1"></use>
                    <g id="Group-10" mask="url(#mask-2)">
                        <g transform="translate(-34.523810, -28.571429)">
                            <g id="Group-9" transform="translate(114.523810, 78.303810)">
                                <mask id="mask-4" fill="white">
                                    <use xlink:href="#path-3"></use>
                                </mask>
                                <g id="Clip-8"></g>
                                <polygon id="Fill-7" fill="url(#linearGradient-5)" mask="url(#mask-4)" points="108.217143 126.698095 67.2228571 0.635238095 38.787619 0.635238095 0.82952381 121.484762"></polygon>
                            </g>
                            <g id="Group-3" transform="translate(0.000000, 96.637143)">
                                <path d="M93.0829524,125.634762 C93.1324762,124.738571 93.9781905,121.417619 101.87819,112.415714 L114.337238,112.415714 C113.281048,119.000476 120.529619,120.94619 120.673429,120.977619 C123.521048,121.291905 125.983905,121.778571 127.991524,122.425238 C131.441048,123.544286 132.74581,124.885238 133.227714,125.634762 L93.0829524,125.634762 Z M62.7077143,125.634762 C70.0200952,123.376667 78.3772381,117.242381 87.6524762,107.280476 C93.3172381,101.195714 97.9924762,95.057619 100.644857,91.397619 L92.4715238,112.415714 L100.554381,112.415714 C93.354381,120.72619 92.1334286,124.239524 92.0839048,125.634762 L62.7077143,125.634762 Z M130.702,111.974762 C130.466762,113.58619 129.654381,118.327143 127.919143,121.356667 C125.928667,120.751905 123.542952,120.292857 120.820095,119.990952 C120.248667,119.834762 114.059143,117.998571 115.427714,112.029048 C115.54581,111.516667 115.720095,110.972857 115.944857,110.417619 C118.433429,104.330952 120.876286,97.2404762 121.907714,94.177619 L126.956286,111.974762 L130.702,111.974762 Z M52.6372381,125.634762 C52.0724762,125.559524 40.789619,123.971905 34.8991429,117.225238 C35.854381,116.034762 39.4839048,111.557619 44.9181905,105.472857 C44.9181905,105.472857 44.9181905,105.471905 44.9191429,105.471905 C44.9448571,105.444286 44.9715238,105.415714 44.9991429,105.383333 C45.0010476,105.382381 45.0029524,105.381429 45.0039048,105.380476 C87.3515238,57.9471429 113.722,49.2338095 125.737238,48.2861905 C126.404857,48.5985714 130.130571,50.6480952 130.140095,57.3966667 C130.051524,58.1280952 127.797238,76.3861905 122.030571,90.9528571 L121.980095,90.7766667 L121.472476,92.33 C121.440095,92.4271429 118.268667,102.096667 115.021048,110.041429 C114.830571,110.511905 114.683905,110.970952 114.562952,111.417619 L102.755333,111.417619 L101.651524,111.417619 L93.9305714,111.417619 L103.046762,87.9738095 C105.38581,84.5519048 109.843905,69.497619 110.032476,68.8547619 C110.110571,68.5909524 109.960095,68.3128571 109.695333,68.2347619 C109.430571,68.157619 109.154381,68.3080952 109.076286,68.5728571 C109.029619,68.7290476 104.433429,84.2566667 102.196286,87.4519048 L102.184857,87.4709524 C101.930571,87.8519048 76.5915238,125.634762 56.6315238,125.634762 L52.6372381,125.634762 Z M31.9810476,102.769048 C31.9877143,102.752857 32.4715238,101.445238 33.4505714,99.2185714 C33.4305714,101.123333 34.2210476,103.17381 35.854381,105.349048 C35.9248571,105.443333 37.6229524,107.643333 40.1934286,107.772857 C40.2724762,107.776667 40.3515238,107.779524 40.4305714,107.778571 C40.862,107.778571 41.2886667,107.71381 41.7124762,107.594762 C37.842,112.019524 35.2048571,115.255714 34.2534286,116.436667 C31.3839048,112.68619 30.6191429,108.078571 31.9810476,102.769048 L31.9810476,102.769048 Z M34.8572381,97.17 C35.4000952,95.9014286 36.4229524,94.7909524 37.9048571,93.8661905 L37.9886667,93.8119048 C38.2372381,93.6509524 38.4886667,93.4880952 38.7181905,93.3119048 C61.0553333,76.4719048 80.454381,64.7357143 92.7953333,57.8547619 C92.7991429,57.8528571 92.8010476,57.8490476 92.8048571,57.8461905 C102.30581,52.5471429 108.494381,49.6319048 109.85819,49.0014286 L109.863905,49.0061905 L110.163905,48.8614286 C110.242952,48.8233333 117.533429,45.3957143 123.829619,47.4842857 C110.927714,49.1709524 84.8191429,59.2871429 44.2591429,104.715714 C44.2562857,104.719524 44.2553333,104.724286 44.2534286,104.727143 C44.2505714,104.730952 44.2458095,104.732857 44.2429524,104.735714 C44.2267619,104.755714 44.209619,104.771905 44.1810476,104.800476 C42.9010476,106.175714 41.582,106.84619 40.2505714,106.776667 C38.1467619,106.674762 36.6639048,104.765238 36.6505714,104.748095 C34.5277143,101.919524 33.9239048,99.3690476 34.8572381,97.17 L34.8572381,97.17 Z M92.1991429,57.0452381 C80.0753333,63.81 61.2058095,75.2319048 39.4505714,91.5214286 C44.5972381,83.6204762 63.7305714,56.0071429 89.5562857,39.7366667 C89.5810476,39.7233333 92.1000952,38.482381 95.1972381,39.1995238 C97.1867619,39.6652381 98.6305714,41.45 98.6305714,43.4461905 C98.6305714,44.4557143 98.434381,45.5861905 98.0477143,46.8090476 C97.7639048,47.7147619 97.3515238,48.61 96.822,49.4709524 L92.1991429,57.0452381 Z M95.4172381,32.2947619 C95.4210476,32.2938095 95.5648571,32.2433333 95.8400952,32.1557143 C95.9781905,32.9538095 96.334381,34.422381 97.2429524,35.9471429 C98.3962857,37.8833333 100.670571,40.217619 105.000095,40.6757143 C104.406762,42.05 104.262,43.2395238 104.575333,44.2185714 L104.617238,44.3480952 L109.04581,48.2795238 C107.215333,49.137619 101.844857,51.7195238 93.9448571,56.0747619 L97.6724762,49.9919048 C98.2448571,49.062381 98.6915238,48.0919048 98.9991429,47.1090476 C99.4162857,45.79 99.6286667,44.557619 99.6286667,43.4461905 C99.6286667,40.9919048 97.8600952,38.797619 95.4229524,38.2280952 C91.9572381,37.4271429 89.2200952,38.7890476 89.0658095,38.8690476 C59.2362857,57.6595238 38.3115238,91.3852381 37.2610476,93.102381 C36.6867619,93.4690476 36.1915238,93.8709524 35.7429524,94.2938095 C43.2067619,79.0690476 61.8639048,47.9471429 95.4172381,32.2947619 L95.4172381,32.2947619 Z M103.814381,29.7880952 L103.815333,29.7880952 C104.219143,29.7328571 107.830571,29.1147619 110.002952,24.6966667 L110.114381,24.4671429 L109.994381,24.242381 C109.628667,23.5538095 108.720095,21.3795238 109.328667,20.45 C109.577238,20.0671429 110.11819,19.9042857 111.000095,19.9652381 C111.009619,19.9661905 111.88581,19.9271429 112.310571,20.51 C112.686762,21.0271429 112.651524,21.9414286 112.208667,23.1595238 C111.973429,23.3728571 111.389619,23.9347619 110.982952,24.6261905 C110.100095,26.1509524 110.759143,27.0642857 111.25819,27.4871429 C111.362952,27.5985714 111.611524,27.8080952 112.044857,27.8690476 C112.753429,27.9690476 113.624857,27.6271429 114.632476,26.8538095 L118.802952,22.2814286 L126.38581,27.162381 C124.723905,31.402381 119.652476,43.13 114.80581,41.9280952 L114.687714,41.9138095 C114.65819,41.9128571 111.74581,41.8052381 108.737238,36.3795238 C108.077238,35.1757143 107.444857,33.7709524 106.857238,32.2042857 L105.922952,32.5547619 C106.47819,34.0357143 107.075333,35.3709524 107.700095,36.5461905 C107.201048,37.1233333 106.242,38.3128571 105.480095,39.7071429 C98.3981905,39.1614286 97.0334286,33.4233333 96.7953333,31.8547619 C97.9762857,31.4880952 100.217238,30.8080952 103.814381,29.7880952 L103.814381,29.7880952 Z M107.847714,13.0033333 L127.207714,24.95 C127.108667,25.2328571 126.952476,25.6671429 126.749619,26.21 L118.633429,20.9861905 L113.990571,26.0890476 C112.727714,27.0461905 112.116286,26.9319048 112.007714,26.8309524 L111.921048,26.7414286 C111.733429,26.5880952 111.235333,26.182381 111.843905,25.1290476 C112.262952,24.4185714 112.946762,23.8385714 112.953429,23.8328571 L113.053429,23.7490476 L113.100095,23.6271429 C113.71819,21.9919048 113.721048,20.742381 113.109619,19.9128571 C112.359143,18.8947619 110.99819,18.9680952 111.009619,18.97 C109.804857,18.8804762 108.956286,19.1938095 108.492476,19.9052381 C107.583905,21.297619 108.609619,23.6852381 108.995333,24.477619 C107.582952,27.1995238 105.60581,28.2204762 104.475333,28.5985714 C104.583905,27.7328571 104.607714,26.1433333 104.402,23.1461905 L104.384857,23.0480952 C104.307714,22.7671429 102.595333,16.1928571 107.847714,13.0033333 L107.847714,13.0033333 Z M105.564857,10.422381 C105.806762,10.0633333 106.211524,9.49952381 106.767714,8.8547619 C109.06581,6.19190476 113.972476,2.12904762 121.076286,4.85 C121.219143,4.88809524 135.333429,8.81380952 133.429619,19.9338095 C132.870571,21.9642857 131.942,25.157619 131.466762,26.4052381 L105.564857,10.422381 Z M119.130571,1.74619048 C119.327714,1.79285714 138.839143,6.53666667 136.961048,15.6842857 C136.950571,15.7195238 135.804857,19.3395238 134.017238,22.7347619 C133.772476,23.2014286 133.526762,23.6366667 133.281048,24.05 C133.802952,22.3233333 134.301048,20.5214286 134.402,20.15 C136.472476,8.08333333 121.484857,3.92714286 121.383905,3.90238095 C116.17819,1.9052381 112.067714,3.30904762 109.196286,5.31 C111.159143,3.1852381 114.403905,0.994761905 119.130571,1.74619048 L119.130571,1.74619048 Z M137.321048,26.0652381 C137.623905,26.6109524 137.601048,27.2461905 137.264857,27.7652381 C136.934381,28.2728571 136.374381,28.5452381 135.772476,28.4909524 C134.491524,28.3728571 133.099143,27.5166667 132.420095,27.0461905 C133.164857,26.1509524 133.916286,25.0109524 134.660095,23.6471429 C135.956286,24.402381 136.850571,25.2147619 137.321048,26.0652381 L137.321048,26.0652381 Z M168.326762,125.634762 C166.671524,121.652857 158.297238,119.859524 153.342952,119.141429 C152.402952,119.002381 151.536286,118.524286 150.904857,117.797619 L145.710571,111.789048 L150.384857,111.789048 L131.13819,57.3338095 C131.102952,49.4185714 126.214381,47.3966667 126.060095,47.3395238 C119.682,43.8909524 111.708667,47.082381 110.034381,47.8233333 L105.489619,43.7890476 C105.273429,42.9395238 105.517238,41.7957143 106.200095,40.4671429 C106.834381,39.2309524 107.691524,38.1147619 108.223905,37.4738095 C111.19819,42.462381 114.115333,42.8766667 114.614381,42.9090476 C114.915333,42.9785714 115.213429,43.0128571 115.511524,43.0128571 C120.562952,43.0128571 125.121048,33.2261905 127.464857,27.142381 C127.732476,26.4404762 127.93819,25.8757143 128.076286,25.4861905 L131.404857,27.5395238 C131.607714,27.7004762 133.671524,29.3004762 135.682952,29.4842857 C135.763905,29.4919048 135.844857,29.4947619 135.924857,29.4947619 C136.808667,29.4947619 137.610571,29.0633333 138.101048,28.31 C138.634381,27.4880952 138.670571,26.4442857 138.194381,25.5814286 C137.630571,24.5642857 136.599143,23.6185714 135.12581,22.7633333 C136.827714,19.4195238 137.902952,16.0157143 137.926762,15.9338095 C138.79819,11.6919048 135.822,7.71571429 129.320095,4.43571429 C124.523905,2.01666667 119.412476,0.788095238 119.323905,0.768095238 C110.51819,-0.632857143 106.356286,7.45761905 105.967714,8.25666667 C104.982952,9.40619048 104.462952,10.2938095 104.442,10.3319048 L104.19819,10.7519048 L106.915333,12.4280952 C101.782952,15.9385714 103.244857,22.5928571 103.409619,23.2585714 C103.689619,27.3633333 103.503905,28.5480952 103.416286,28.8652381 C99.4439048,29.9919048 97.1286667,30.7033333 96.1039048,31.0261905 C95.4010476,31.2442857 95.0886667,31.3519048 95.0429524,31.3709524 C59.0134286,48.1757143 40.034381,82.5709524 33.5477143,96.5785714 C31.869619,100.19 31.0524762,102.402381 31.029619,102.472857 C29.5105714,108.389048 30.4648571,113.464286 33.8648571,117.559524 C37.662,122.136667 43.6429524,124.48619 47.8153333,125.634762 L0.238190476,125.634762 L0.238190476,126.632857 L283.637238,126.632857 L283.637238,125.634762 L168.326762,125.634762 Z" id="Fill-1" fill="#616872"></path>
                            </g>
                            <g id="Group-6" transform="translate(152.380952, 0.208571)">
                                <path d="M15.7206667,64.539619 C15.721619,64.5300952 15.726381,64.5215238 15.726381,64.512 L15.726381,1.24247619 C15.726381,0.967238095 15.5025714,0.743428571 15.2273333,0.743428571 C14.9511429,0.743428571 14.7282857,0.967238095 14.7282857,1.24247619 L14.7282857,64.512 C14.7282857,64.519619 14.7320952,64.5253333 14.7330476,64.5329524 C10.974,64.6415238 7.57495238,66.1929524 5.09495238,68.6739048 C2.52257143,71.2462857 0.933047619,74.8015238 0.933047619,78.7281905 L29.3644762,78.7281905 C29.3644762,71.0710476 23.306381,64.8424762 15.7206667,64.539619" id="Fill-4" fill="#616872"></path>
                            </g>
                        </g>
                    </g>
                </g>
            </g>
        </g>
    </g>
</svg>