<?xml version="1.0" encoding="UTF-8"?>
<svg width="100px" height="100px" viewBox="0 0 100 100" version="1.1" xmlns="http://www.w3.org/2000/svg" xmlns:xlink="http://www.w3.org/1999/xlink">
    <title>E237C346-4703-4620-86FB-745FCE467A08@1.00x</title>
    <defs>
        <polygon id="path-1" points="0 0.5021 87.6616 0.5021 87.6616 85 0 85"></polygon>
    </defs>
    <g id="Remote_part01" stroke="none" stroke-width="1" fill="none" fill-rule="evenodd">
        <g id="RWS_0034_접속-전-화면_최근기록_상세보기_다운로드-_파일없음" transform="translate(-1020.000000, -560.000000)">
            <g id="list" transform="translate(770.000000, 325.000000)">
                <g id="img_nofile_download" transform="translate(221.000000, 235.000000)">
                    <g transform="translate(29.000000, 0.000000)">
                        <rect id="tr" x="0" y="0" width="100" height="100"></rect>
                        <g id="img_nofile" transform="translate(6.000000, 7.000000)">
                            <path d="M6.413,82.4987 L81.248,82.4987 C83.095,82.4987 84.595,81.0217 84.651,79.1887 L3.011,79.1887 C3.067,81.0217 4.567,82.4987 6.413,82.4987" id="Fill-1" fill="#343538"></path>
                            <g id="Group-7" transform="translate(0.000000, 0.498500)">
                                <mask id="mask-2" fill="white">
                                    <use xlink:href="#path-1"></use>
                                </mask>
                                <g id="Clip-6"></g>
                                <path d="M84.6616,78.5871 C84.6616,78.6221 84.6526,78.6551 84.6516,78.6911 C84.5956,80.5241 83.0946,82.0001 81.2486,82.0001 L6.4126,82.0001 C4.5666,82.0001 3.0666,80.5241 3.0106,78.6911 C3.0096,78.6551 2.9996,78.6221 2.9996,78.5871 L2.9996,54.3561 L26.7746,54.3561 C28.9846,61.8101 35.9716,67.1031 43.8306,67.1031 C51.6906,67.1031 58.6766,61.8101 60.8866,54.3561 L84.6616,54.3561 L84.6616,78.5871 Z M8.0866,11.3491 C8.0866,11.2961 8.1646,11.2191 8.2886,11.2191 L79.3726,11.2191 C79.4966,11.2191 79.5756,11.2961 79.5756,11.3491 L79.5756,51.3561 L58.5236,51.3561 L58.2626,52.5301 C56.7716,59.2351 50.7026,64.1031 43.8306,64.1031 C36.9586,64.1031 30.8896,59.2351 29.3996,52.5301 L29.1386,51.3561 L8.0866,51.3561 L8.0866,11.3491 Z M10.7546,5.7041 C10.7546,5.5921 10.8456,5.5021 10.9566,5.5021 L76.7046,5.5021 C76.8166,5.5021 76.9076,5.5921 76.9076,5.7041 L76.9076,8.2191 L10.7546,8.2191 L10.7546,5.7041 Z M82.5756,51.3561 L82.5756,11.3491 C82.5756,9.6231 82.1396,8.2191 80.3726,8.2191 L79.9076,8.2191 L79.9076,5.7041 C79.9076,3.9381 78.4706,2.5021 76.7046,2.5021 L10.9566,2.5021 C9.1906,2.5021 7.7546,3.9381 7.7546,5.7041 L7.7546,8.2191 L7.2886,8.2191 C5.5226,8.2191 5.0866,9.6231 5.0866,11.3491 L5.0866,51.3561 L-0.0004,51.3561 L-0.0004,78.5871 C-0.0004,82.1231 2.8766,85.0001 6.4126,85.0001 L81.2486,85.0001 C84.7846,85.0001 87.6616,82.1231 87.6616,78.5871 L87.6616,51.3561 L82.5756,51.3561 Z" id="Fill-5" fill="#616264" mask="url(#mask-2)"></path>
                            </g>
                            <path d="M51.1689,39.63 C51.6899,40.151 51.6899,40.996 51.1689,41.517 C50.6479,42.038 49.8029,42.038 49.2819,41.517 L43.8309,36.066 L38.3799,41.517 C37.8589,42.038 37.0139,42.038 36.4929,41.517 C35.9719,40.996 35.9719,40.151 36.4929,39.63 L41.9439,34.179 L36.4929,28.728 C35.9719,28.207 35.9719,27.362 36.4929,26.841 C37.0139,26.32 37.8589,26.32 38.3799,26.841 L43.8309,32.292 L49.2819,26.841 C49.8029,26.32 50.6479,26.32 51.1689,26.841 C51.6899,27.362 51.6899,28.207 51.1689,28.728 L45.7179,34.179 L51.1689,39.63 Z M43.8309,17.836 C34.6499,17.836 27.1819,25.304 27.1819,34.485 C27.1819,43.666 34.6499,51.134 43.8309,51.134 C53.0109,51.134 60.4809,43.666 60.4809,34.485 C60.4809,25.304 53.0109,17.836 43.8309,17.836 L43.8309,17.836 Z" id="Fill-8" fill="#4B5569"></path>
                        </g>
                    </g>
                </g>
            </g>
        </g>
    </g>
</svg>