<?xml version="1.0" encoding="UTF-8"?>
<svg width="96px" height="96px" viewBox="0 0 96 96" version="1.1" xmlns="http://www.w3.org/2000/svg" xmlns:xlink="http://www.w3.org/1999/xlink">
    <title>70659EB8-C383-48F2-8E6D-6202AF0D614F@1x</title>
    <g id="Remote_collabo_Mobile" stroke="none" stroke-width="1" fill="none" fill-rule="evenodd">
        <g id="RMS_0201_접속-화면-실시간-공유_작업자영상중지_2(리더)" transform="translate(-132.000000, -209.000000)">
            <g id="area_copy" transform="translate(102.000000, 209.000000)">
                <g id="image_stop" transform="translate(30.000000, 0.000000)">
                    <g id="Group" transform="translate(5.000000, 6.000000)">
                        <polygon id="Fill-14" fill="#3E454F" points="0.504533333 15.3943211 17.5628053 15.3943211 17.5628053 0.640757333 0.504533333 0.640757333"></polygon>
                        <polygon id="Fill-16" fill="#3E454F" points="0.504533333 59.6550123 17.5628053 59.6550123 17.5628053 44.9014485 0.504533333 44.9014485"></polygon>
                        <polygon id="Fill-20" fill="#3E454F" points="57.2130709 30.1478848 74.2713429 30.1478848 74.2713429 15.3943211 57.2130709 15.3943211"></polygon>
                        <g id="Group-9" stroke="#616872" stroke-width="2.59">
                            <polygon id="Stroke-1" points="0.504533333 74.408576 74.2713429 74.408576 74.2713429 0.6417664 0.504533333 0.6417664"></polygon>
                            <polygon id="Stroke-3" points="0.504533333 15.3943211 17.5628053 15.3943211 17.5628053 0.640757333 0.504533333 0.640757333"></polygon>
                            <polygon id="Stroke-4" points="0.504533333 44.9014485 17.5628053 44.9014485 17.5628053 30.1478848 0.504533333 30.1478848"></polygon>
                            <polygon id="Stroke-5" points="0.504533333 59.6550123 17.5628053 59.6550123 17.5628053 44.9014485 0.504533333 44.9014485"></polygon>
                            <polygon id="Stroke-6" points="0.504533333 74.408576 17.5628053 74.408576 17.5628053 59.6550123 0.504533333 59.6550123"></polygon>
                            <polygon id="Stroke-7" points="0.504533333 30.1478848 17.5628053 30.1478848 17.5628053 15.3943211 0.504533333 15.3943211"></polygon>
                            <polygon id="Stroke-8" points="57.2130709 15.3943211 74.2713429 15.3943211 74.2713429 0.640757333 57.2130709 0.640757333"></polygon>
                        </g>
                        <polygon id="Stroke-11" stroke="#FEFEFE" stroke-width="3.0272" points="57.2130709 59.6550123 74.2713429 59.6550123 74.2713429 44.9014485 57.2130709 44.9014485"></polygon>
                        <polygon id="Stroke-12" stroke="#FEFEFE" stroke-width="3.0272" points="57.2130709 74.408576 74.2713429 74.408576 74.2713429 59.6550123 57.2130709 59.6550123"></polygon>
                        <polygon id="Stroke-13" stroke="#616872" stroke-width="2.59" points="57.2130709 30.1478848 74.2713429 30.1478848 74.2713429 15.3943211 57.2130709 15.3943211"></polygon>
                        <g id="Group-32" transform="translate(14.126933, 27.262933)">
                            <path d="M72.3555712,34.3272811 C72.3555712,47.9284907 61.3294997,58.9545621 47.7282901,58.9545621 C34.1260715,58.9545621 23.1,47.9284907 23.1,34.3272811 C23.1,20.7260715 34.1260715,9.7 47.7282901,9.7 C61.3294997,9.7 72.3555712,20.7260715 72.3555712,34.3272811" id="Fill-22" fill="#272B30"></path>
                            <path d="M72.3555712,34.3272811 C72.3555712,47.9284907 61.3294997,58.9545621 47.7282901,58.9545621 C34.1260715,58.9545621 23.1,47.9284907 23.1,34.3272811 C23.1,20.7260715 34.1260715,9.7 47.7282901,9.7 C61.3294997,9.7 72.3555712,20.7260715 72.3555712,34.3272811 Z" id="Stroke-24" stroke="#616872" stroke-width="2.59"></path>
                            <line x1="43.0861376" y1="0.836005704" x2="43.0861376" y2="10.2370667" id="Path-2" stroke="#616872" stroke-width="2.59"></line>
                            <g id="Group-10" transform="translate(37.799285, 23.467018)" fill="#616872">
                                <rect id="Rectangle" x="0" y="0" width="7.06346667" height="22.1994667"></rect>
                                <rect id="Rectangle-Copy-3" x="13.1178667" y="-1.91491267e-13" width="7.06346667" height="22.1994667"></rect>
                            </g>
                            <g id="Group-29" transform="translate(0.000000, 2.000000)" stroke="#616872" stroke-width="2.59">
                                <line x1="52.762986" y1="0.87667712" x2="0.584148693" y2="0.87667712" id="Stroke-28"></line>
                            </g>
                        </g>
                    </g>
                </g>
            </g>
        </g>
    </g>
</svg>