<?xml version="1.0" encoding="UTF-8"?>
<svg width="34px" height="20px" viewBox="0 0 34 20" version="1.1" xmlns="http://www.w3.org/2000/svg" xmlns:xlink="http://www.w3.org/1999/xlink">
    <!-- Generator: sketchtool 64 (101010) - https://sketch.com -->
    <title>2BB9E08A-A2F4-444A-8504-EA7D29E60894@1.00x</title>
    <desc>Created with sketchtool.</desc>
    <g id="page" stroke="none" stroke-width="1" fill="none" fill-rule="evenodd">
        <g id="0.0-리소스-파일모음" transform="translate(-148.000000, -410.000000)">
            <g id="CN" transform="translate(148.000000, 410.000000)">
                <g id="국기">
                    <polygon id="Fill-1" fill="#CB1D23" points="0 19.5742 33.563 19.5742 33.563 0.0002 0 0.0002"></polygon>
                    <polygon id="Fill-2" fill="#F7DE29" points="3.2276 7.0859 3.8576 5.1329 2.2026 3.9179 4.2536 3.9139 4.8946 1.9649 5.5326 3.9139 7.5846 3.9219 5.9266 5.1329 6.5536 7.0859 4.8926 5.8789"></polygon>
                    <polygon id="Fill-3" fill="#F7DE29" points="8.9503 8.1406 9.6443 8.4216 10.1263 7.8476 10.0743 8.5936 10.7673 8.8746 10.0423 9.0586 9.9883 9.7966 9.5913 9.1676 8.8673 9.3436 9.3453 8.7736"></polygon>
                    <polygon id="Fill-4" fill="#F7DE29" points="12.7022 4.3867 11.9662 4.2577 11.6132 4.9177 11.5102 4.1797 10.7722 4.0427 11.4432 3.7187 11.3422 2.9767 11.8622 3.5117 12.5332 3.1877 12.1822 3.8477"></polygon>
                    <polygon id="Fill-5" fill="#F7DE29" points="11.1407 7.7305 11.3687 7.0195 10.7657 6.5785 11.5137 6.5785 11.7447 5.8675 11.9767 6.5785 12.7247 6.5785 12.1217 7.0195 12.3487 7.7305 11.7447 7.2935"></polygon>
                    <polygon id="Fill-6" fill="#F7DE29" points="8.9883 1.2422 9.6653 1.5582 10.1753 1.0122 10.0873 1.7542 10.7613 2.0742 10.0303 2.2152 9.9373 2.9572 9.5733 2.3042 8.8413 2.4412 9.3483 1.8942"></polygon>
                </g>
            </g>
        </g>
    </g>
</svg>