<?xml version="1.0" encoding="UTF-8"?>
<svg width="96px" height="96px" viewBox="0 0 96 96" version="1.1" xmlns="http://www.w3.org/2000/svg" xmlns:xlink="http://www.w3.org/1999/xlink">
    <title>F88039BE-A4E1-4962-A305-550FDFF7E742@1.00x</title>
    <defs>
        <polygon id="path-1" points="0.00037632 0.8495424 85.8329472 0.8495424 85.8329472 84.672 0.00037632 84.672"></polygon>
        <polygon id="path-3" points="-4.01087163e-14 84.7629754 85.8329472 84.7629754 85.8329472 0.94051776 -4.01087163e-14 0.94051776"></polygon>
    </defs>
    <g id="Remote_part01" stroke="none" stroke-width="1" fill="none" fill-rule="evenodd">
        <g id="RWS_0002-_접속-전-화면_상단-콘텐츠_알림-_info_알람없음" transform="translate(-1597.000000, -239.000000)">
            <g id="popup_alarm****" transform="translate(1437.000000, 55.000000)">
                <g id="image_noalram" transform="translate(121.000000, 184.000000)">
                    <g transform="translate(39.000000, 0.000000)">
                        <rect id="tr" x="0" y="0" width="96" height="96"></rect>
                        <g id="Group-9" transform="translate(5.000000, 5.000000)">
                            <path d="M18.5141914,25.5491174 C9.86165376,25.5491174 2.82258816,32.588183 2.82258816,41.2407206 L2.82258816,81.9406694 L34.2057946,81.9406694 L34.2057946,41.2407206 C34.2057946,32.588183 27.166729,25.5491174 18.5141914,25.5491174" id="Fill-1" fill="#1F2022"></path>
                            <g id="Group-5" transform="translate(0.000000, 0.090975)">
                                <mask id="mask-2" fill="white">
                                    <use xlink:href="#path-1"></use>
                                </mask>
                                <g id="Clip-4"></g>
                                <path d="M83.0109235,81.8496 L37.0283827,81.8496 L37.0283827,41.1496512 C37.0283827,34.5330048 33.5276659,28.7329728 28.2930547,25.458048 L50.3745715,25.458048 L50.3745715,46.9534464 C50.3745715,50.1436992 52.9702387,52.7403072 56.1604915,52.7403072 C59.3516851,52.7403072 61.9473523,50.1436992 61.9473523,46.9534464 L61.9473523,25.458048 L67.3193203,25.458048 C75.9718579,25.458048 83.0109235,32.4971136 83.0109235,41.1496512 L83.0109235,81.8496 Z M34.2059827,81.8496 L2.82277632,81.8496 L2.82277632,41.1496512 C2.82277632,32.4971136 9.86184192,25.458048 18.5143795,25.458048 C27.1669171,25.458048 34.2059827,32.4971136 34.2059827,41.1496512 L34.2059827,81.8496 Z M53.1969715,3.6719424 L71.9527603,3.6719424 L71.9527603,16.4423616 L59.1249523,16.4423616 L59.1249523,22.635648 L59.1249523,25.458048 L59.1249523,46.9534464 C59.1249523,48.587616 57.7956019,49.9179072 56.1604915,49.9179072 C54.5263219,49.9179072 53.1969715,48.587616 53.1969715,46.9534464 L53.1969715,25.458048 L53.1969715,22.635648 L53.1969715,3.6719424 Z M67.3193203,22.635648 L61.9473523,22.635648 L61.9473523,19.2647616 L74.7751603,19.2647616 L74.7751603,0.849542399 L50.3745715,0.849542399 L50.3745715,22.635648 L18.5143795,22.635648 C8.30575872,22.635648 0.000376319376,30.9410304 0.000376319376,41.1496512 L0.000376319376,84.672 L35.6171827,84.672 L37.0283827,84.672 L85.8333235,84.672 L85.8333235,41.1496512 C85.8333235,30.9410304 77.5279411,22.635648 67.3193203,22.635648 L67.3193203,22.635648 Z" id="Fill-3" fill="#616264" mask="url(#mask-2)"></path>
                            </g>
                            <mask id="mask-4" fill="white">
                                <use xlink:href="#path-3"></use>
                            </mask>
                            <g id="Clip-7"></g>
                            <polygon id="Fill-6" fill="#343538" mask="url(#mask-4)" points="66.6782592 16.533337 71.952384 16.533337 71.952384 3.76385856 66.6782592 3.76385856"></polygon>
                            <polygon id="Fill-8" fill="#343538" mask="url(#mask-4)" points="37.0280064 81.9405754 83.0105472 81.9405754 83.0105472 66.9405754 37.0280064 66.9405754"></polygon>
                        </g>
                    </g>
                </g>
            </g>
        </g>
    </g>
</svg>