<?xml version="1.0" encoding="UTF-8"?>
<svg width="34px" height="20px" viewBox="0 0 34 20" version="1.1" xmlns="http://www.w3.org/2000/svg" xmlns:xlink="http://www.w3.org/1999/xlink">
    <title>501339E0-DCE8-4362-9E6A-AC70659F9117@1x</title>
    <g id="Remote_Main" stroke="none" stroke-width="1" fill="none" fill-rule="evenodd">
        <g id="RWS_0041-_접속-전-화면_환경-설정-_언어-설정" transform="translate(-904.000000, -859.000000)">
            <g id="Group-2" transform="translate(220.000000, 458.000000)">
                <g id="Group-3" transform="translate(282.000000, 0.000000)">
                    <g id="중국어" transform="translate(70.000000, 401.000000)">
                        <g id="국기" transform="translate(332.000000, 0.000000)">
                            <polygon id="Fill-1" fill="#CB1D23" points="0 20.0002 34 20.0002 34 0.0002 0 0.0002"></polygon>
                            <polygon id="Fill-2" fill="#F7DE29" points="3.2276 9.0859 3.8576 7.1329 2.2026 5.9179 4.2536 5.9139 4.8946 3.9649 5.5326 5.9139 7.5846 5.9219 5.9266 7.1329 6.5536 9.0859 4.8926 7.8789"></polygon>
                            <polygon id="Fill-3" fill="#F7DE29" points="8.9503 10.1406 9.6443 10.4216 10.1263 9.8476 10.0743 10.5936 10.7673 10.8746 10.0423 11.0586 9.9883 11.7966 9.5913 11.1676 8.8673 11.3436 9.3453 10.7736"></polygon>
                            <polygon id="Fill-4" fill="#F7DE29" points="12.7022 6.3867 11.9662 6.2577 11.6132 6.9177 11.5102 6.1797 10.7722 6.0427 11.4432 5.7187 11.3422 4.9767 11.8622 5.5117 12.5332 5.1877 12.1822 5.8477"></polygon>
                            <polygon id="Fill-5" fill="#F7DE29" points="11.1407 9.7305 11.3687 9.0195 10.7657 8.5785 11.5137 8.5785 11.7447 7.8675 11.9767 8.5785 12.7247 8.5785 12.1217 9.0195 12.3487 9.7305 11.7447 9.2935"></polygon>
                            <polygon id="Fill-6" fill="#F7DE29" points="8.9883 3.2422 9.6653 3.5582 10.1753 3.0122 10.0873 3.7542 10.7613 4.0742 10.0303 4.2152 9.9373 4.9572 9.5733 4.3042 8.8413 4.4412 9.3483 3.8942"></polygon>
                        </g>
                    </g>
                </g>
            </g>
        </g>
    </g>
</svg>