<?xml version="1.0" encoding="UTF-8"?>
<svg width="120px" height="120px" viewBox="0 0 120 120" version="1.1" xmlns="http://www.w3.org/2000/svg" xmlns:xlink="http://www.w3.org/1999/xlink">
    <title>98CF24C7-DDAF-4DEE-8A31-E9CF1FB0B284@1.00x</title>
    <g id="Remote_part02" stroke="none" stroke-width="1" fill="none" fill-rule="evenodd" opacity="0.200000003">
        <g id="2.0.원격협업-화면_GNB소스-정리_03" transform="translate(-56.000000, -198.000000)">
            <g id="image_novideo" transform="translate(56.000000, 198.000000)">
                <rect id="tr" opacity="0.449813991" x="0" y="0" width="120" height="120"></rect>
                <g id="Group-10" transform="translate(8.000000, 5.000000)">
                    <polygon id="Stroke-1" stroke="#FEFEFE" stroke-width="3" points="0.5 110.396 68.339 110.396 68.339 42.558 0.5 42.558"></polygon>
                    <path d="M90.2859,49.9492 L90.2859,102.9902 C90.2859,103.4762 89.6949,103.7172 89.3559,103.3672 L68.3389,81.7152 L68.3389,70.9082 L89.3579,49.5692 C89.6989,49.2242 90.2859,49.4652 90.2859,49.9492 Z" id="Stroke-3" stroke="#FEFEFE" stroke-width="3"></path>
                    <path d="M59.3601,55.7914 C59.3601,58.2934 57.3311,60.3224 54.8291,60.3224 C52.3271,60.3224 50.2971,58.2934 50.2971,55.7914 C50.2971,53.2894 52.3271,51.2604 54.8291,51.2604 C57.3311,51.2604 59.3601,53.2894 59.3601,55.7914" id="Fill-4" fill="#FEFEFE" opacity="0.200000003"></path>
                    <polygon id="Fill-5" fill="#FEFEFE" opacity="0.400000006" points="0.5 95.807 68.339 95.807 68.339 76.477 0.5 76.477"></polygon>
                    <path d="M55.3035,0.4999 L55.3035,25.1079 L66.3035,25.1079 L66.3035,33.5789 C66.3035,33.9269 66.7365,34.0879 66.9635,33.8249 L74.5335,25.1079 L103.5225,25.1079 L103.5225,0.4999 L55.3035,0.4999 Z" id="Stroke-6" stroke="#FEFEFE" stroke-width="3"></path>
                    <path d="M70.9441,13.1899 C70.9441,14.8159 69.6261,16.1339 68.0001,16.1339 C66.3731,16.1339 65.0541,14.8159 65.0541,13.1899 C65.0541,11.5639 66.3731,10.2449 68.0001,10.2449 C69.6261,10.2449 70.9441,11.5639 70.9441,13.1899" id="Fill-7" fill="#FEFEFE"></path>
                    <path d="M82.7976,13.1899 C82.7976,14.8159 81.4796,16.1339 79.8536,16.1339 C78.2266,16.1339 76.9076,14.8159 76.9076,13.1899 C76.9076,11.5639 78.2266,10.2449 79.8536,10.2449 C81.4796,10.2449 82.7976,11.5639 82.7976,13.1899" id="Fill-8" fill="#FEFEFE"></path>
                    <path d="M93.7712,13.1899 C93.7712,14.8159 92.4532,16.1339 90.8272,16.1339 C89.2002,16.1339 87.8812,14.8159 87.8812,13.1899 C87.8812,11.5639 89.2002,10.2449 90.8272,10.2449 C92.4532,10.2449 93.7712,11.5639 93.7712,13.1899" id="Fill-9" fill="#FEFEFE"></path>
                </g>
            </g>
        </g>
    </g>
</svg>