<?xml version="1.0" encoding="UTF-8"?>
<svg width="120px" height="120px" viewBox="0 0 120 120" version="1.1" xmlns="http://www.w3.org/2000/svg" xmlns:xlink="http://www.w3.org/1999/xlink">
    <title>717421CA-0857-458F-A685-5BBDAD8E8E43@1.00x</title>
    <g id="Remote_part02" stroke="none" stroke-width="1" fill="none" fill-rule="evenodd" opacity="0.200000003">
        <g id="2.0.원격협업-화면_GNB소스-정리_03" transform="translate(-196.000000, -198.000000)">
            <g id="image_videolink" transform="translate(196.000000, 198.000000)">
                <g>
                    <rect id="tr" opacity="0.449813991" x="0" y="0" width="120" height="120"></rect>
                    <g id="Group-20" transform="translate(3.000000, 17.000000)">
                        <polygon id="Stroke-2" stroke="#FEFEFE" stroke-width="3" opacity="0.600000024" points="0.5 69.1228 90.918 69.1228 90.918 0.4998 0.5 0.4998"></polygon>
                        <polygon id="Fill-4" fill="#FEFEFE" opacity="0.800000012" points="31.8702 18.9119 31.8702 50.7099 59.5482 34.8109"></polygon>
                        <g id="Group-19" transform="translate(61.000000, 6.540800)">
                            <path d="M23.8419,3.6299 C23.8419,5.3419 22.4539,6.7299 20.7419,6.7299 C19.0299,6.7299 17.6419,5.3419 17.6419,3.6299 C17.6419,1.9179 19.0299,0.5299 20.7419,0.5299 C22.4539,0.5299 23.8419,1.9179 23.8419,3.6299" id="Fill-5" fill="#FEFEFE" opacity="0.229999989"></path>
                            <path d="M12.3546,0.5303 C14.0666,0.5303 15.4556,1.9183 15.4556,3.6303 C15.4556,5.3423 14.0666,6.7303 12.3546,6.7303 C10.6426,6.7303 9.2546,5.3423 9.2546,3.6303 C9.2546,1.9183 10.6426,0.5303 12.3546,0.5303" id="Fill-7" fill="#FEFEFE" opacity="0.229999989"></path>
                            <path d="M3.9679,0.5303 C5.6799,0.5303 7.0679,1.9183 7.0679,3.6303 C7.0679,5.3423 5.6799,6.7303 3.9679,6.7303 C2.2559,6.7303 0.8679,5.3423 0.8679,3.6303 C0.8679,1.9183 2.2559,0.5303 3.9679,0.5303" id="Fill-9" fill="#FEFEFE" opacity="0.229999989"></path>
                            <path d="M52.6602,54.0938 C52.6602,67.5728 41.7332,78.4998 28.2542,78.4998 C14.7752,78.4998 3.8482,67.5728 3.8482,54.0938 C3.8482,40.6148 14.7752,29.6878 28.2542,29.6878 C41.7332,29.6878 52.6602,40.6148 52.6602,54.0938" id="Fill-11" fill="#1E1E20"></path>
                            <path d="M52.6602,54.0938 C52.6602,67.5728 41.7332,78.4998 28.2542,78.4998 C14.7752,78.4998 3.8482,67.5728 3.8482,54.0938 C3.8482,40.6148 14.7752,29.6878 28.2542,29.6878 C41.7332,29.6878 52.6602,40.6148 52.6602,54.0938 Z" id="Stroke-13" stroke="#FEFEFE" stroke-width="3"></path>
                            <path d="M40.0343,44.7305 C40.0663,46.2525 40.0873,47.7755 40.1363,49.2985 C40.1703,50.3925 40.2423,51.4855 40.3073,52.7735 C37.5233,52.0555 34.8753,51.3715 31.9343,50.6135 C32.9793,49.7605 33.7873,49.1005 34.5893,48.4455 C32.0903,45.2445 27.0953,44.5375 23.8203,46.7855 C22.0063,48.0315 20.8093,49.6825 20.2553,51.8145 C19.9623,52.9415 19.1613,53.4525 18.2013,53.1825 C17.3113,52.9335 16.8863,52.1065 17.1693,51.0065 C18.2463,46.8145 20.8783,44.0085 24.9913,42.7675 C29.1053,41.5245 32.8453,42.4275 36.0823,45.2915 C36.4313,45.6005 36.7723,45.9175 37.1783,46.2855 C38.0043,45.6095 38.8283,44.9365 39.6533,44.2635 L40.0343,44.7305 Z" id="Fill-15" fill="#FEFEFE"></path>
                            <path d="M21.8761,59.7681 C24.3861,62.9811 29.3721,63.6971 32.6371,61.4451 C34.4441,60.1991 35.6791,58.5771 36.2151,56.4271 C36.4981,55.2921 37.2971,54.7831 38.2651,55.0361 C39.1431,55.2651 39.5931,56.1221 39.3131,57.2091 C38.2301,61.4001 35.5891,64.2001 31.4821,65.4501 C27.4061,66.6901 23.6911,65.8001 20.4581,62.9991 C20.0801,62.6721 19.7221,62.3231 19.2951,61.9301 C18.4941,62.5831 17.6971,63.2341 16.6091,64.1231 C16.4531,61.1111 16.3131,58.3821 16.1601,55.4501 C18.9381,56.1661 21.5851,56.8491 24.5221,57.6061 C23.4831,58.4551 22.6771,59.1141 21.8761,59.7681" id="Fill-17" fill="#FEFEFE"></path>
                        </g>
                    </g>
                </g>
            </g>
        </g>
    </g>
</svg>