<?xml version="1.0" encoding="UTF-8"?>
<svg width="106px" height="26px" viewBox="0 0 106 26" version="1.1" xmlns="http://www.w3.org/2000/svg" xmlns:xlink="http://www.w3.org/1999/xlink">
    <title>2D91DD6D-45AF-43B2-9263-1199B19F9D1F@1x</title>
    <defs>
        <polygon id="path-1" points="0.7357 0.8964 9.7917 0.8964 9.7917 10 0.7357 10"></polygon>
        <polygon id="path-3" points="0.7357 0.017 8.7997 0.017 8.7997 11.8561 0.7357 11.8561"></polygon>
        <polygon id="path-5" points="0.7674 0.8961 9.7594 0.8961 9.7594 10 0.7674 10"></polygon>
        <polygon id="path-7" points="0.9593 0.8964 10.0153 0.8964 10.0153 10 0.9593 10"></polygon>
        <polygon id="path-9" points="0.9505 0.017 10.006 0.017 10.006 12 0.9505 12"></polygon>
    </defs>
    <g id="Symbols" stroke="none" stroke-width="1" fill="none" fill-rule="evenodd">
        <g id="Top" transform="translate(-465.000000, -21.000000)">
            <g id="logo_symtext" transform="translate(320.000000, 18.000000)">
                <g id="Group-6" transform="translate(144.200000, 2.600000)">
                    <g id="Group-2" transform="translate(0.800000, 0.400000)">
                        <rect id="tr" x="0" y="0" width="106" height="26"></rect>
                        <g id="Group-24" transform="translate(7.000000, 7.000000)">
                            <path d="M6.624,10.2959 C7.317,9.5919 7.664,8.5999 7.664,7.3199 C7.664,6.0289 7.317,5.0219 6.624,4.2959 C5.93,3.5699 4.933,3.2079 3.632,3.2079 L1.824,3.2079 L1.824,11.3519 L3.632,11.3519 C4.933,11.3519 5.93,10.9999 6.624,10.2959 M6.744,2.3999 C7.634,2.8539 8.322,3.5039 8.808,4.3519 C9.293,5.1999 9.536,6.1899 9.536,7.3199 C9.536,8.4499 9.293,9.4319 8.808,10.2639 C8.322,11.0959 7.634,11.7329 6.744,12.1759 C5.853,12.6179 4.816,12.8399 3.632,12.8399 L0,12.8399 L0,1.7199 L3.632,1.7199 C4.816,1.7199 5.853,1.9459 6.744,2.3999" id="Fill-1" fill="#FFFFFF"></path>
                            <g id="Group-5" transform="translate(10.000000, 2.983400)">
                                <mask id="mask-2" fill="white">
                                    <use xlink:href="#path-1"></use>
                                </mask>
                                <g id="Clip-4"></g>
                                <path d="M7.5757,3.8564 C7.3247,3.4084 6.9967,3.0674 6.5917,2.8324 C6.1857,2.5974 5.7487,2.4804 5.2797,2.4804 C4.8097,2.4804 4.3727,2.5944 3.9677,2.8244 C3.5617,3.0534 3.2337,3.3894 2.9837,3.8324 C2.7327,4.2754 2.6077,4.8004 2.6077,5.4084 C2.6077,6.0164 2.7327,6.5494 2.9837,7.0084 C3.2337,7.4664 3.5647,7.8164 3.9757,8.0564 C4.3867,8.2964 4.8207,8.4164 5.2797,8.4164 C5.7487,8.4164 6.1857,8.2984 6.5917,8.0644 C6.9967,7.8304 7.3247,7.4864 7.5757,7.0324 C7.8257,6.5794 7.9517,6.0484 7.9517,5.4404 C7.9517,4.8324 7.8257,4.3044 7.5757,3.8564 M1.2877,3.0564 C1.6557,2.3744 2.1567,1.8424 2.7917,1.4644 C3.4267,1.0854 4.1277,0.8964 4.8957,0.8964 C5.5887,0.8964 6.1937,1.0324 6.7117,1.3044 C7.2287,1.5764 7.6417,1.9154 7.9517,2.3204 L7.9517,1.0404 L9.7917,1.0404 L9.7917,9.8564 L7.9517,9.8564 L7.9517,8.5444 C7.6417,8.9604 7.2207,9.3074 6.6877,9.5844 C6.1547,9.8614 5.5457,10.0004 4.8637,10.0004 C4.1057,10.0004 3.4127,9.8054 2.7837,9.4164 C2.1547,9.0274 1.6557,8.4834 1.2877,7.7844 C0.9197,7.0854 0.7357,6.2944 0.7357,5.4084 C0.7357,4.5234 0.9197,3.7394 1.2877,3.0564" id="Fill-3" fill="#FFFFFF" mask="url(#mask-2)"></path>
                            </g>
                            <path d="M23.5278,12.6074 C22.9778,12.3574 22.5438,12.0154 22.2238,11.5844 C21.9038,11.1514 21.7328,10.6694 21.7118,10.1354 L23.5998,10.1354 C23.6318,10.5094 23.8098,10.8214 24.1358,11.0724 C24.4608,11.3224 24.8688,11.4484 25.3598,11.4484 C25.8718,11.4484 26.2688,11.3494 26.5518,11.1514 C26.8338,10.9554 26.9758,10.7014 26.9758,10.3914 C26.9758,10.0614 26.8188,9.8154 26.5038,9.6564 C26.1888,9.4964 25.6908,9.3204 25.0078,9.1284 C24.3458,8.9464 23.8078,8.7704 23.3918,8.5994 C22.9758,8.4294 22.6158,8.1684 22.3118,7.8154 C22.0078,7.4634 21.8558,7.0004 21.8558,6.4234 C21.8558,5.9554 21.9938,5.5254 22.2718,5.1354 C22.5488,4.7474 22.9458,4.4394 23.4638,4.2154 C23.9808,3.9924 24.5758,3.8794 25.2478,3.8794 C26.2498,3.8794 27.0578,4.1334 27.6718,4.6394 C28.2848,5.1464 28.6128,5.8364 28.6558,6.7114 L26.8318,6.7114 C26.7998,6.3174 26.6398,6.0034 26.3518,5.7674 C26.0638,5.5334 25.6738,5.4164 25.1838,5.4164 C24.7038,5.4164 24.3358,5.5064 24.0798,5.6874 C23.8238,5.8694 23.6958,6.1094 23.6958,6.4084 C23.6958,6.6424 23.7808,6.8394 23.9518,7.0004 C24.1218,7.1604 24.3298,7.2854 24.5758,7.3764 C24.8208,7.4664 25.1838,7.5814 25.6638,7.7194 C26.3038,7.8904 26.8288,8.0634 27.2398,8.2404 C27.6508,8.4164 28.0048,8.6744 28.3038,9.0154 C28.6018,9.3574 28.7568,9.8104 28.7678,10.3764 C28.7678,10.8774 28.6288,11.3254 28.3518,11.7194 C28.0738,12.1144 27.6818,12.4234 27.1758,12.6474 C26.6688,12.8724 26.0738,12.9834 25.3918,12.9834 C24.6978,12.9834 24.0768,12.8584 23.5278,12.6074" id="Fill-6" fill="#FFFFFF"></path>
                            <g id="Group-10" transform="translate(30.000000, 0.983400)">
                                <mask id="mask-4" fill="white">
                                    <use xlink:href="#path-3"></use>
                                </mask>
                                <g id="Clip-9"></g>
                                <path d="M7.0957,3.3281 C7.6237,3.6161 8.0397,4.0431 8.3437,4.6081 C8.6477,5.1741 8.7997,5.8561 8.7997,6.6561 L8.7997,11.8561 L6.9917,11.8561 L6.9917,6.9291 C6.9917,6.1401 6.7937,5.5341 6.3997,5.1121 C6.0047,4.6911 5.4667,4.4801 4.7837,4.4801 C4.1007,4.4801 3.5597,4.6911 3.1597,5.1121 C2.7597,5.5341 2.5597,6.1401 2.5597,6.9291 L2.5597,11.8561 L0.7357,11.8561 L0.7357,0.0161 L2.5597,0.0161 L2.5597,4.0641 C2.8687,3.6911 3.2607,3.4031 3.7357,3.2001 C4.2097,2.9981 4.7297,2.8961 5.2957,2.8961 C5.9677,2.8961 6.5677,3.0401 7.0957,3.3281" id="Fill-8" fill="#FFFFFF" mask="url(#mask-4)"></path>
                            </g>
                            <path d="M51.0229,10.9043 C51.3749,10.6053 51.5509,10.1893 51.5509,9.6563 C51.5509,9.1123 51.3639,8.6793 50.9909,8.3593 C50.6179,8.0403 50.1219,7.8803 49.5029,7.8803 L47.1029,7.8803 L47.1029,11.3513 L49.5669,11.3513 C50.1859,11.3513 50.6709,11.2023 51.0229,10.9043 L51.0229,10.9043 Z M47.1029,6.3913 L49.3589,6.3913 C49.9569,6.3913 50.4229,6.2563 50.7589,5.9833 C51.0949,5.7123 51.2629,5.3203 51.2629,4.8073 C51.2629,4.3063 51.0949,3.9153 50.7589,3.6323 C50.4229,3.3493 49.9569,3.2083 49.3589,3.2083 L47.1029,3.2083 L47.1029,6.3913 Z M52.7509,8.0723 C53.1669,8.5943 53.3749,9.1863 53.3749,9.8473 C53.3749,10.4133 53.2289,10.9233 52.9349,11.3763 C52.6419,11.8293 52.2179,12.1863 51.6629,12.4483 C51.1079,12.7093 50.4629,12.8403 49.7269,12.8403 L45.2789,12.8403 L45.2789,1.7193 L49.5189,1.7193 C50.2759,1.7193 50.9269,1.8473 51.4709,2.1033 C52.0149,2.3593 52.4259,2.7043 52.7029,3.1353 C52.9809,3.5673 53.1189,4.0503 53.1189,4.5843 C53.1189,5.2233 52.9479,5.7583 52.6069,6.1833 C52.2659,6.6103 51.8069,6.9253 51.2309,7.1283 C51.8279,7.2343 52.3349,7.5503 52.7509,8.0723 L52.7509,8.0723 Z" id="Fill-11" fill="#FFFFFF"></path>
                            <g id="Group-15" transform="translate(54.000000, 2.983400)">
                                <mask id="mask-6" fill="white">
                                    <use xlink:href="#path-5"></use>
                                </mask>
                                <g id="Clip-14"></g>
                                <path d="M6.5034,8.0801 C6.9134,7.8561 7.2474,7.5201 7.5034,7.0721 C7.7594,6.6241 7.8874,6.0801 7.8874,5.4401 C7.8874,4.8011 7.7644,4.2591 7.5194,3.8161 C7.2734,3.3741 6.9484,3.0401 6.5434,2.8161 C6.1374,2.5931 5.7004,2.4801 5.2314,2.4801 C4.7614,2.4801 4.3274,2.5931 3.9274,2.8161 C3.5274,3.0401 3.2094,3.3741 2.9754,3.8161 C2.7404,4.2591 2.6234,4.8011 2.6234,5.4401 C2.6234,6.3901 2.8654,7.1231 3.3514,7.6411 C3.8364,8.1581 4.4474,8.4161 5.1834,8.4161 C5.6524,8.4161 6.0924,8.3051 6.5034,8.0801 M2.9274,9.4331 C2.2554,9.0541 1.7274,8.5201 1.3434,7.8321 C0.9594,7.1441 0.7674,6.3481 0.7674,5.4401 C0.7674,4.5451 0.9644,3.7501 1.3594,3.0571 C1.7534,2.3631 2.2924,1.8301 2.9754,1.4561 C3.6574,1.0831 4.4204,0.8961 5.2634,0.8961 C6.1054,0.8961 6.8684,1.0831 7.5514,1.4561 C8.2334,1.8301 8.7724,2.3631 9.1674,3.0571 C9.5614,3.7501 9.7594,4.5451 9.7594,5.4401 C9.7594,6.3371 9.5564,7.1311 9.1514,7.8241 C8.7454,8.5171 8.1934,9.0541 7.4954,9.4331 C6.7964,9.8111 6.0254,10.0001 5.1834,10.0001 C4.3514,10.0001 3.5994,9.8111 2.9274,9.4331" id="Fill-13" fill="#FFFFFF" mask="url(#mask-6)"></path>
                            </g>
                            <g id="Group-18" transform="translate(64.000000, 2.983400)">
                                <mask id="mask-8" fill="white">
                                    <use xlink:href="#path-7"></use>
                                </mask>
                                <g id="Clip-17"></g>
                                <path d="M7.7993,3.8564 C7.5483,3.4084 7.2203,3.0674 6.8153,2.8324 C6.4093,2.5974 5.9723,2.4804 5.5033,2.4804 C5.0333,2.4804 4.5963,2.5944 4.1913,2.8244 C3.7853,3.0534 3.4573,3.3894 3.2073,3.8324 C2.9563,4.2754 2.8313,4.8004 2.8313,5.4084 C2.8313,6.0164 2.9563,6.5494 3.2073,7.0084 C3.4573,7.4664 3.7883,7.8164 4.1993,8.0564 C4.6103,8.2964 5.0443,8.4164 5.5033,8.4164 C5.9723,8.4164 6.4093,8.2984 6.8153,8.0644 C7.2203,7.8304 7.5483,7.4864 7.7993,7.0324 C8.0493,6.5794 8.1753,6.0484 8.1753,5.4404 C8.1753,4.8324 8.0493,4.3044 7.7993,3.8564 M1.5113,3.0564 C1.8793,2.3744 2.3803,1.8424 3.0153,1.4644 C3.6503,1.0854 4.3513,0.8964 5.1193,0.8964 C5.8123,0.8964 6.4173,1.0324 6.9353,1.3044 C7.4523,1.5764 7.8653,1.9154 8.1753,2.3204 L8.1753,1.0404 L10.0153,1.0404 L10.0153,9.8564 L8.1753,9.8564 L8.1753,8.5444 C7.8653,8.9604 7.4443,9.3074 6.9113,9.5844 C6.3783,9.8614 5.7693,10.0004 5.0873,10.0004 C4.3293,10.0004 3.6363,9.8054 3.0073,9.4164 C2.3783,9.0274 1.8793,8.4834 1.5113,7.7844 C1.1433,7.0854 0.9593,6.2944 0.9593,5.4084 C0.9593,4.5234 1.1433,3.7394 1.5113,3.0564" id="Fill-16" fill="#FFFFFF" mask="url(#mask-8)"></path>
                            </g>
                            <path d="M79.3027,4.2559 C79.7447,4.0049 80.2707,3.8799 80.8787,3.8799 L80.8787,5.7679 L80.4147,5.7679 C79.6997,5.7679 79.1587,5.9489 78.7907,6.3119 C78.4227,6.6749 78.2387,7.3039 78.2387,8.1999 L78.2387,12.8399 L76.4147,12.8399 L76.4147,4.0239 L78.2387,4.0239 L78.2387,5.3039 C78.5057,4.8559 78.8597,4.5069 79.3027,4.2559" id="Fill-19" fill="#FFFFFF"></path>
                            <g id="Group-23" transform="translate(81.000000, 0.983400)">
                                <mask id="mask-10" fill="white">
                                    <use xlink:href="#path-9"></use>
                                </mask>
                                <g id="Clip-22"></g>
                                <path d="M7.7905,5.8564 C7.5395,5.4084 7.2115,5.0674 6.8065,4.8324 C6.4005,4.5974 5.9635,4.4804 5.4945,4.4804 C5.0245,4.4804 4.5875,4.5944 4.1825,4.8244 C3.7765,5.0534 3.4485,5.3894 3.1985,5.8324 C2.9475,6.2754 2.8225,6.8004 2.8225,7.4084 C2.8225,8.0164 2.9475,8.5494 3.1985,9.0084 C3.4485,9.4664 3.7795,9.8164 4.1905,10.0564 C4.6015,10.2964 5.0355,10.4164 5.4945,10.4164 C5.9635,10.4164 6.4005,10.2984 6.8065,10.0644 C7.2115,9.8304 7.5395,9.4864 7.7905,9.0324 C8.0405,8.5794 8.1665,8.0484 8.1665,7.4404 C8.1665,6.8324 8.0405,6.3044 7.7905,5.8564 M1.5025,5.0564 C1.8705,4.3744 2.3715,3.8424 3.0065,3.4644 C3.6415,3.0854 4.3475,2.8964 5.1265,2.8964 C5.7025,2.8964 6.2705,3.0214 6.8305,3.2724 C7.3905,3.5234 7.8355,3.8564 8.1665,4.2724 L8.1665,0.0164 L10.0065,0.0164 L10.0065,11.8564 L8.1665,11.8564 L8.1665,10.5284 C7.8675,10.9554 7.4545,11.3074 6.9265,11.5844 C6.3985,11.8614 5.7925,12.0004 5.1105,12.0004 C4.3425,12.0004 3.6415,11.8054 3.0065,11.4164 C2.3715,11.0274 1.8705,10.4834 1.5025,9.7844 C1.1345,9.0854 0.9505,8.2944 0.9505,7.4084 C0.9505,6.5234 1.1345,5.7394 1.5025,5.0564" id="Fill-21" fill="#FFFFFF" mask="url(#mask-10)"></path>
                            </g>
                        </g>
                    </g>
                </g>
            </g>
        </g>
    </g>
</svg>