<?xml version="1.0" encoding="UTF-8"?>
<svg width="10px" height="10px" viewBox="0 0 10 10" version="1.1" xmlns="http://www.w3.org/2000/svg" xmlns:xlink="http://www.w3.org/1999/xlink">
    <title>EE523FE9-D027-434C-8FED-D0F83063BEEF@1x</title>
    <g id="Remote_Main" stroke="none" stroke-width="1" fill="none" fill-rule="evenodd">
        <g id="RWS_0012_1-_접속-전-화면_원격-협업_상세-보기(리더-권한)_참가자-정보-" transform="translate(-834.000000, -382.000000)">
            <g id="member_list" transform="translate(770.000000, 275.000000)">
                <g id="list" transform="translate(0.000000, 51.000000)">
                    <g id="user-profile_login" transform="translate(25.000000, 17.000000)">
                        <g id="star_purple500_black_24dp" transform="translate(39.000000, 39.000000)">
                            <polygon id="Path" points="2 2 8 2 8 8 2 8"></polygon>
                            <path d="M5.26812604,7.22889698 L6.28643141,7.87585304 C6.51951156,8.02393496 6.82850447,7.95503028 6.97658639,7.72195013 C7.04757602,7.61021284 7.07135649,7.47488339 7.04271298,7.34563828 L6.75478189,6.046437 C6.71604009,5.87162643 6.77373117,5.68944373 6.90603419,5.56879725 L7.8868579,4.67438889 C8.09090167,4.48832237 8.10547511,4.17207549 7.91940859,3.96803172 C7.83506801,3.87554238 7.71910447,3.81805104 7.59443031,3.80691697 L6.35232175,3.69599007 C6.16515692,3.67927525 6.00316679,3.55903301 5.93298242,3.38472232 L5.46381499,2.21949286 C5.36067568,1.96333491 5.0694077,1.8392888 4.81324976,1.94242811 C4.68704668,1.99324246 4.58699935,2.09328979 4.53618501,2.21949286 L4.06701758,3.38472232 C3.99683321,3.55903301 3.83484308,3.67927525 3.64767825,3.69599007 L2.40556969,3.80691697 C2.13052195,3.8314802 1.92746413,4.07436288 1.95202736,4.34941062 C1.96316142,4.47408477 2.02065276,4.59004831 2.1131421,4.67438889 L3.09396581,5.56879725 C3.22626883,5.68944373 3.28395991,5.87162643 3.24521811,6.046437 L2.95728702,7.34563828 C2.89753764,7.61523913 3.06765588,7.88223025 3.33725673,7.94197963 C3.46650185,7.97062315 3.60183129,7.94684267 3.71356859,7.87585304 L4.73187396,7.22889698 C4.89550866,7.12493557 5.10449134,7.12493557 5.26812604,7.22889698 Z" id="Path" fill="#FFFFFF" fill-rule="nonzero"></path>
                        </g>
                    </g>
                </g>
            </g>
        </g>
    </g>
</svg>