<?xml version="1.0" encoding="UTF-8"?>
<svg width="34px" height="34px" viewBox="0 0 34 34" version="1.1" xmlns="http://www.w3.org/2000/svg" xmlns:xlink="http://www.w3.org/1999/xlink">
    <!-- Generator: sketchtool 64 (101010) - https://sketch.com -->
    <title>51D7CB50-0957-47EC-8E73-BBBD8FA44CDC@1.00x</title>
    <desc>Created with sketchtool.</desc>
    <g id="page" stroke="none" stroke-width="1" fill="none" fill-rule="evenodd">
        <g id="0.0-리소스-파일모음" transform="translate(-252.000000, -198.000000)">
            <g id="icn_mic" transform="translate(252.000000, 198.000000)">
                <g>
                    <circle id="Oval" fill="#D8D8D8" opacity="0.0964239211" cx="17" cy="17" r="17"></circle>
                    <g id="mic-24px" transform="translate(5.000000, 6.000000)">
                        <path d="M12,14 C13.66,14 14.99,12.66 14.99,11 L15,5 C15,3.34 13.66,2 12,2 C10.34,2 9,3.34 9,5 L9,11 C9,12.66 10.34,14 12,14 Z M17.3,11 C17.3,14 14.76,16.1 12,16.1 C9.24,16.1 6.7,14 6.7,11 L5,11 C5,14.41 7.72,17.23 11,17.72 L11,21 L13,21 L13,17.72 C16.28,17.24 19,14.42 19,11 L17.3,11 Z" id="Shape" fill="#D2D2D2" fill-rule="nonzero"></path>
                        <polygon id="Path" points="0 0 24 0 24 24 0 24"></polygon>
                    </g>
                </g>
            </g>
        </g>
    </g>
</svg>