<?xml version="1.0" encoding="UTF-8"?>
<svg width="24px" height="24px" viewBox="0 0 24 24" version="1.1" xmlns="http://www.w3.org/2000/svg" xmlns:xlink="http://www.w3.org/1999/xlink">
    <title>mdpi/icon_3D</title>
    <g id="V2.2-update" stroke="none" stroke-width="1" fill="none" fill-rule="evenodd">
        <g id="RWS_0103_1_접속-화면-채팅-공유-파일(리더)" transform="translate(-1580.000000, -404.000000)">
            <g id="message_04" transform="translate(1559.000000, 56.000000)">
                <g id="list" transform="translate(1.000000, 97.000000)">
                    <g id="04.-png" transform="translate(0.000000, 237.000000)">
                        <g id="icon_3D" transform="translate(20.000000, 14.000000)">
                            <polygon id="Path" points="0 0 24 0 24 24 0 24"></polygon>
                            <g id="--(8)" transform="translate(1.000000, 4.000000)" fill="#000000" fill-rule="nonzero">
                                <path d="M21.1268608,0 L0.873063394,0 C0.390866214,0 0,0.393143769 0,0.877980434 L0,16.1220196 C0,16.6068562 0.390866214,17 0.873063394,17 L21.1269366,17 C21.609058,17 22,16.6069325 22,16.1220196 L22,0.877980434 C22,0.393143769 21.6089822,0 21.1268608,0 Z M9.77819603,9.7424139 C9.34646011,11.0691432 7.98812799,12 6.34979007,12 C5.3847546,12 4.4790792,11.66338 4,11.158129 L5.15860721,9.8216312 C5.50115825,10.3762949 6.01071377,10.663217 6.64405675,10.663217 C7.34754597,10.663217 7.8390763,10.3265969 8.02280295,9.76244996 C8.21304474,9.17826694 7.91457941,8.89077445 7.21072825,8.89077445 L6.08491386,8.89077445 L6.39105256,7.95043444 L8.48088895,6.34640889 L5.91776459,6.34640889 L6.35601564,5 L11,5 L10.6743883,5.99973516 L8.32908643,7.80176831 L8.6444911,7.85132368 C9.61850297,8.00982959 10.126104,8.67344382 9.77819603,9.7424139 Z M17.8041683,8.50028807 C17.1447185,10.5700412 15.1584242,12 12.9221789,12 L10,12 L11.4795208,7.35688272 L13.2485754,7.35688272 L12.2217149,10.5800514 L13.4838529,10.5800514 C14.5673317,10.5800514 15.6102257,9.74005144 16.0021162,8.51015432 C16.3970845,7.27024691 15.8529472,6.42038066 14.7297426,6.42038066 L11.7783597,6.41937243 L12.2303043,5 L15.2220572,5 C17.4085557,5.00007202 18.466839,6.42038066 17.8041683,8.50028807 Z" id="_x34_8-3D_icon"></path>
                            </g>
                        </g>
                    </g>
                </g>
            </g>
        </g>
    </g>
</svg>