<?xml version="1.0" encoding="UTF-8"?>
<svg width="24px" height="24px" viewBox="0 0 24 24" version="1.1" xmlns="http://www.w3.org/2000/svg" xmlns:xlink="http://www.w3.org/1999/xlink">
    <title>8119FAE5-4300-49EC-8B94-13940967D080@1.00x</title>
    <g id="Remote_part02" stroke="none" stroke-width="1" fill="none" fill-rule="evenodd">
        <g id="2.0.원격협업-화면_GNB소스-정리_02" transform="translate(-117.000000, -196.000000)">
            <g id="Group" transform="translate(30.000000, 111.000000)">
                <g id="Group-7-Copy" transform="translate(19.000000, 85.000000)">
                    <g id="icon_pdf" transform="translate(68.000000, 0.000000)">
                        <polygon id="Path" points="0 0 24 0 24 24 0 24"></polygon>
                        <g transform="translate(3.428571, 1.714286)" fill="#FFFFFF" fill-rule="nonzero">
                            <path d="M4.18720494,12.9803353 L3.76848444,12.9803353 L3.76848444,13.8177763 L4.18720494,13.8177763 C4.41833865,13.8177763 4.60592543,13.6301895 4.60592543,13.3990558 C4.60592543,13.1679221 4.41833865,12.9803353 4.18720494,12.9803353 Z" id="Path"></path>
                            <path d="M8.58377012,12.9803353 L7.95568938,12.9803353 L7.95568938,15.4926583 L8.58377012,15.4926583 C8.69933698,15.4926583 8.79313037,15.3988649 8.79313037,15.283298 L8.79313037,13.1896956 C8.79313037,13.0741287 8.69933698,12.9803353 8.58377012,12.9803353 Z" id="Path"></path>
                            <path d="M14.445857,0 L2.30296272,0 C1.03256474,0 0,1.03256474 0,2.30296272 L0,17.795621 C0,19.066019 1.03256474,20.0985837 2.30296272,20.0985837 L14.445857,20.0985837 C15.716255,20.0985837 16.7488197,19.066019 16.7488197,17.795621 L16.7488197,2.30296272 C16.7488197,1.03256474 15.716255,0 14.445857,0 Z M4.18720494,15.0739378 L3.76848444,15.0739378 L3.76848444,16.120739 C3.76848444,16.4674396 3.48710427,16.7488197 3.1404037,16.7488197 C2.79370313,16.7488197 2.51232296,16.4674396 2.51232296,16.120739 L2.51232296,12.3522546 C2.51232296,12.005554 2.79370313,11.7241738 3.1404037,11.7241738 L4.18720494,11.7241738 C5.11090235,11.7241738 5.86208691,12.4753584 5.86208691,13.3990558 C5.86208691,14.3227532 5.11090235,15.0739378 4.18720494,15.0739378 Z M10.0492918,15.283298 C10.0492918,16.0914286 9.39190067,16.7488197 8.58377012,16.7488197 L7.32760864,16.7488197 C6.98090807,16.7488197 6.6995279,16.4674396 6.6995279,16.120739 L6.6995279,12.3522546 C6.6995279,12.005554 6.98090807,11.7241738 7.32760864,11.7241738 L8.58377012,11.7241738 C9.39190067,11.7241738 10.0492918,12.381565 10.0492918,13.1896956 L10.0492918,15.283298 Z M13.608416,13.8177763 C13.9551166,13.8177763 14.2364968,14.0991565 14.2364968,14.445857 C14.2364968,14.7925576 13.9551166,15.0739378 13.608416,15.0739378 L12.1428943,15.0739378 L12.1428943,16.120739 C12.1428943,16.4674396 11.8615141,16.7488197 11.5148136,16.7488197 C11.168113,16.7488197 10.8867328,16.4674396 10.8867328,16.120739 L10.8867328,13.1896956 C10.8867328,12.381565 11.544124,11.7241738 12.3522546,11.7241738 L13.608416,11.7241738 C13.9551166,11.7241738 14.2364968,12.005554 14.2364968,12.3522546 C14.2364968,12.6989551 13.9551166,12.9803353 13.608416,12.9803353 L12.3522546,12.9803353 C12.2366877,12.9803353 12.1428943,13.0741287 12.1428943,13.1896956 L12.1428943,13.8177763 L13.608416,13.8177763 Z" id="Shape"></path>
                        </g>
                    </g>
                </g>
            </g>
        </g>
    </g>
</svg>