<?xml version="1.0" encoding="UTF-8"?>
<svg width="24px" height="24px" viewBox="0 0 24 24" version="1.1" xmlns="http://www.w3.org/2000/svg" xmlns:xlink="http://www.w3.org/1999/xlink">
    <title>mdpi/icon_MS</title>
    <defs>
        <path d="M14,2 L6,2 C4.9,2 4,2.9 4,4 L4,20 C4,21.1 4.89,22 5.99,22 L18,22 C19.1,22 20,21.1 20,20 L20,8 L14,2 Z M16,18 L8,18 L8,16 L16,16 L16,18 Z M16,14 L8,14 L8,12 L16,12 L16,14 Z M13,9 L13,3.5 L18.5,9 L13,9 Z" id="path-1"></path>
    </defs>
    <g id="V2.2-update" stroke="none" stroke-width="1" fill="none" fill-rule="evenodd">
        <g id="RWS_0103_1_접속-화면-채팅-공유-파일(리더)" transform="translate(-1580.000000, -246.000000)">
            <g id="message_04" transform="translate(1559.000000, 56.000000)">
                <g id="list" transform="translate(1.000000, 97.000000)">
                    <g id="02.-pdf" transform="translate(0.000000, 79.000000)">
                        <g id="icon" transform="translate(20.000000, 14.000000)">
                            <polygon id="Path" points="0 0 24 0 24 24 0 24"></polygon>
                            <mask id="mask-2" fill="white">
                                <use xlink:href="#path-1"></use>
                            </mask>
                            <use id="icon/action/description_24px" fill="#FFFFFF" fill-rule="nonzero" xlink:href="#path-1"></use>
                        </g>
                    </g>
                </g>
            </g>
        </g>
    </g>
</svg>