<svg xmlns="http://www.w3.org/2000/svg" width="42" height="42" viewBox="0 0 42 42">
    <g fill="none" fill-rule="evenodd">
        <rect width="42" height="42" rx="14"/>
        <path fill="#CDD4DC" d="M29.4 11.5c1.155 0 2.1.945 2.1 2.1v12.6c0 1.155-.945 2.1-2.1 2.1H14.7l-4.2 4.2.01-18.9c0-1.155.935-2.1 2.09-2.1h16.8zm-9.45 14.7h2.1v-2.1h-2.1v2.1zM21 13.6c-2.32 0-4.2 1.88-4.2 4.2h2.1c0-1.155.945-2.1 2.1-2.1 1.155 0 2.1.945 2.1 2.1 0 2.1-3.15 1.837-3.15 5.25h2.1c0-2.363 3.15-2.625 3.15-5.25 0-2.32-1.88-4.2-4.2-4.2z"/>
    </g>
</svg>
