<svg xmlns="http://www.w3.org/2000/svg" xmlns:xlink="http://www.w3.org/1999/xlink" width="16" height="16" viewBox="0 0 16 16">
    <defs>
        <path id="a" d="M9.168 3.682c1.016 0 1.83-.822 1.83-1.841C10.999.822 10.185 0 9.169 0a1.837 1.837 0 0 0-1.837 1.84c0 1.02.82 1.842 1.837 1.842zm-4.887 0c1.016 0 1.83-.822 1.83-1.841C6.112.822 5.298 0 4.282 0a1.837 1.837 0 0 0-1.837 1.84c0 1.02.82 1.842 1.837 1.842zm-.005 1.227C2.853 4.91 0 5.627 0 7.057V8.59h8.553V7.057c0-1.43-2.853-2.148-4.277-2.148zm4.888 0c-.178 0-.38.012-.593.03.709.516 1.204 1.21 1.204 2.118V8.59h3.665V7.057c0-1.43-2.853-2.148-4.276-2.148z"/>
    </defs>
    <g fill="none" fill-rule="evenodd">
        <use fill="#979FB0" transform="translate(1.28 3.7)" xlink:href="#a"/>
        <path d="M0 0h16v16H0z"/>
    </g>
</svg>
