<svg xmlns="http://www.w3.org/2000/svg" xmlns:xlink="http://www.w3.org/1999/xlink" width="220" height="29" viewBox="0 0 220 29">
    <defs>
        <path id="a" d="M.358.189h7.143v15.263H.358z"/>
        <path id="c" d="M0 17.609h199.876V.033H0z"/>
        <path id="e" d="M6.822.327L2.267 11.884.14 17.286h4.258L11.08.326z"/>
    </defs>
    <g fill="none" fill-rule="evenodd">
        <path d="M0 0h220v29H0z"/>
        <g transform="translate(9 8)">
            <path fill="#FFF" d="M150.44 17.282h-2.205V5.609h2.11v1.61h.096c.335-.568.85-1.042 1.546-1.42.695-.38 1.386-.57 2.074-.57.862 0 1.621.198 2.277.593a3.51 3.51 0 0 1 1.438 1.634c.975-1.484 2.326-2.226 4.051-2.226 1.359 0 2.406.41 3.14 1.231.736.822 1.103 1.99 1.103 3.507v7.314h-2.205v-6.983c0-1.09-.2-1.875-.6-2.357-.399-.481-1.07-.723-2.013-.723-.847 0-1.558.356-2.133 1.066-.576.711-.864 1.548-.864 2.512v6.485h-2.205v-6.983c0-1.09-.2-1.875-.6-2.357-.399-.481-1.07-.723-2.013-.723-.847 0-1.558.356-2.133 1.066-.576.711-.863 1.548-.863 2.512v6.485zM169.714 11.412c0 1.249.368 2.26 1.103 3.033.735.774 1.646 1.071 2.733 1.071 1.086 0 1.997-.297 2.733-1.071.735-.774 1.102-1.784 1.102-3.033 0-1.231-.367-2.234-1.102-3.008-.752-.79-1.663-1.095-2.733-1.095-1.071 0-1.982.305-2.733 1.095-.735.774-1.103 1.777-1.103 3.008m-2.205 0c0-1.784.567-3.26 1.702-4.43 1.15-1.168 2.597-1.752 4.339-1.752 1.742 0 3.18.584 4.315 1.753 1.15 1.168 1.726 2.645 1.726 4.43 0 1.8-.575 3.277-1.726 4.43-1.135 1.169-2.573 1.753-4.315 1.753-1.742 0-3.188-.584-4.34-1.753-1.134-1.169-1.7-2.646-1.7-4.43M191.977 7.978c.6-.506 1.315-.759 2.146-.759 1.007 0 1.81.265 2.409.794.6.53.93 1.286.995 2.092h-6.736c.191-.853.587-1.622 1.186-2.127zm5.894 5.514c-.908 1.351-2.147 2.024-3.46 2.024-1.023 0-1.903-.257-2.637-.953-.736-.695-1.12-1.52-1.151-2.658h9.23l.023-.236c0-2.006-.515-3.656-1.546-4.77-1.03-1.113-2.418-1.67-4.16-1.67-1.693 0-3.084.589-4.17 1.765-1.087 1.177-1.63 2.74-1.63 4.508 0 1.785.559 3.173 1.677 4.34 1.119 1.17 2.542 1.754 4.267 1.754 1.183 0 2.242-.277 3.177-.83a6.334 6.334 0 0 0 1.95-1.841l-1.57-1.433zM138.568 7.978c.6-.506 1.314-.759 2.145-.759 1.007 0 1.81.265 2.41.794.599.53.93 1.286.995 2.092h-6.737c.192-.853.587-1.622 1.187-2.127zm5.893 5.514c-.908 1.351-2.146 2.024-3.46 2.024-1.023 0-1.902-.257-2.637-.953-.735-.695-1.119-1.52-1.15-2.658h9.229l.024-.236c0-2.006-.516-3.656-1.547-4.77-1.03-1.113-2.417-1.67-4.159-1.67-1.694 0-3.084.589-4.171 1.765-1.087 1.177-1.63 2.74-1.63 4.508 0 1.785.56 3.173 1.678 4.34 1.119 1.17 2.541 1.754 4.267 1.754 1.183 0 2.241-.277 3.176-.83a6.334 6.334 0 0 0 1.95-1.841l-1.57-1.433z"/>
            <g transform="translate(180 2.156)">
                <mask id="b" fill="#fff">
                    <use xlink:href="#a"/>
                </mask>
                <path fill="#FFF" d="M7.034 13.324c-.26.056-.747.097-.923.089a1.557 1.557 0 0 1-1.03-.415c-.304-.276-.456-.801-.456-1.575v-5.78H7.5v-1.99H4.625V.189H4.53L2.42 1.513v2.14H.358v1.99h2.061v6.49c.016 1.043.34 1.857.971 2.44.631.586 1.427.843 2.385.877.506.019 1.324-.086 1.726-.22v-2.06a2.401 2.401 0 0 1-.467.154" mask="url(#b)"/>
            </g>
            <path fill="#FFF" d="M123.184 8.97V2.417H128.65c1.832 0 3.316 1.468 3.316 3.277 0 1.81-1.484 3.277-3.316 3.277H123.184zm6.905 1.92a5.432 5.432 0 0 0 2.962-1.92 5.295 5.295 0 0 0 1.132-3.277 5.293 5.293 0 0 0-1.132-3.277 5.44 5.44 0 0 0-4.296-2.087h-7.79V17.3h2.219v-6.243h4.22l4.809 6.234.006.01h2.82l-4.95-6.411zM100.135 3.816h5.29v13.47h4.1V3.816h5.293V.326h-14.683zM58.33.327v10.088L50.611.327h-3.6v16.959h4.092V7.206l7.742 10.08h3.578V.326z"/>
            <mask id="d" fill="#fff">
                <use xlink:href="#c"/>
            </mask>
            <path fill="#FFF" d="M20.656 17.286h4.095V.326h-4.095zM91.063 13.895c-2.644 0-4.878-2.33-4.878-5.088 0-2.759 2.234-5.089 4.878-5.089 2.15 0 3.462.77 4.693 2.342l2.467-2.438a8.94 8.94 0 0 0-7.16-3.589c-4.895 0-8.878 3.936-8.878 8.774 0 4.838 3.983 8.773 8.878 8.773 2.82 0 5.489-1.34 7.16-3.588l-2.467-2.439c-1.23 1.572-2.544 2.342-4.693 2.342M80.674 3.816V.326H66.59v16.96h14.084v-3.49h-9.992v-3.245h8.427v-3.49h-8.427V3.817zM39.977 11.883a6.125 6.125 0 0 0 2.95-2.92c.37-.78.576-1.651.576-2.57 0-.92-.206-1.79-.577-2.57A6.143 6.143 0 0 0 37.365.326h-8.458v16.96h4.095V3.822H36.804c1.437 0 2.601 1.151 2.601 2.57 0 1.42-1.164 2.57-2.6 2.57h-2.521v.001h-1.097v.243l4.636 6.098 1.523 1.983h4.764l-4.133-5.404zM4.259.327h-4.26l6.684 16.959h.001l2.129-5.402z" mask="url(#d)"/>
        </g>
        <g transform="translate(15.545 8)">
            <mask id="f" fill="#fff">
                <use xlink:href="#e"/>
            </mask>
            <path fill="#FFF" d="M6.822.327L2.267 11.884.14 17.286h4.258L11.08.326z" mask="url(#f)"/>
        </g>
    </g>
</svg>
