<svg xmlns="http://www.w3.org/2000/svg" xmlns:xlink="http://www.w3.org/1999/xlink" width="18" height="18" viewBox="0 0 18 18">
    <defs>
        <path id="a" d="M0 4.437V9.05h3.188l3.984 3.845V.592L3.188 4.437H0zm10.758 2.306c0-1.36-.813-2.53-1.992-3.098v6.19c1.179-.562 1.992-1.73 1.992-3.092zM8.766 0v1.584c2.303.661 3.984 2.722 3.984 5.16 0 2.437-1.681 4.497-3.984 5.159v1.584c3.195-.7 5.578-3.453 5.578-6.744C14.344 3.453 11.96.7 8.766 0z"/>
    </defs>
    <g fill="none" fill-rule="evenodd" opacity=".782">
        <use fill="#2046F1" transform="translate(2 2)" xlink:href="#a"/>
        <path d="M0 0h18v18H0z"/>
    </g>
</svg>
