<svg xmlns="http://www.w3.org/2000/svg" xmlns:xlink="http://www.w3.org/1999/xlink" width="44" height="44" viewBox="0 0 44 44">
    <defs>
        <path id="a" d="M9.02.191C4.038.191 0 4.336 0 9.45c0 5.113 4.038 9.258 9.02 9.258 4.981 0 9.02-4.145 9.02-9.258C18.04 4.336 14 .191 9.02.191z"/>
        <linearGradient id="b" x1="77.226%" x2="22.775%" y1="90.961%" y2="9.039%">
            <stop offset="0%" stop-color="#6700FF"/>
            <stop offset="100%" stop-color="#0454FF"/>
        </linearGradient>
        <path id="d" d="M.295.18h17.872v18.343H.295z"/>
    </defs>
    <g fill="none" fill-rule="evenodd">
        <g transform="translate(9 9.123)">
            <mask id="c" fill="#fff">
                <use xlink:href="#a"/>
            </mask>
            <path fill="url(#b)" d="M9.02.191C4.038.191 0 4.336 0 9.45c0 5.113 4.038 9.258 9.02 9.258 4.981 0 9.02-4.145 9.02-9.258C18.04 4.336 14 .191 9.02.191z" mask="url(#c)"/>
        </g>
        <g transform="translate(16.647 17.286)">
            <mask id="e" fill="#fff">
                <use xlink:href="#d"/>
            </mask>
            <path fill="#0068FF" d="M9.23.18C4.297.18.296 4.286.296 9.352c0 5.065 4 9.171 8.936 9.171 4.935 0 8.936-4.106 8.936-9.171C18.167 4.286 14.166.18 9.23.18m0 1.005c4.387 0 7.957 3.663 7.957 8.167 0 4.503-3.57 8.167-7.957 8.167-4.388 0-7.957-3.664-7.957-8.167 0-4.504 3.57-8.167 7.957-8.167" mask="url(#e)"/>
        </g>
    </g>
</svg>
