<svg xmlns="http://www.w3.org/2000/svg" xmlns:xlink="http://www.w3.org/1999/xlink" width="44" height="44" viewBox="0 0 44 44">
    <defs>
        <path id="a" d="M9.02.191C4.038.191 0 4.336 0 9.45c0 5.113 4.038 9.258 9.02 9.258 4.981 0 9.02-4.145 9.02-9.258C18.04 4.336 14 .191 9.02.191z"/>
        <path id="c" d="M8.647 9.286H26.52v18.343H8.647z"/>
    </defs>
    <g fill="none" fill-rule="evenodd" transform="translate(8.295 8.18)">
        <g transform="translate(.705 .943)">
            <mask id="b" fill="#fff">
                <use xlink:href="#a"/>
            </mask>
            <path fill="#979FB0" d="M9.02.191C4.038.191 0 4.336 0 9.45c0 5.113 4.038 9.258 9.02 9.258 4.981 0 9.02-4.145 9.02-9.258C18.04 4.336 14 .191 9.02.191z" mask="url(#b)"/>
        </g>
        <mask id="d" fill="#fff">
            <use xlink:href="#c"/>
        </mask>
        <path fill="#979FB0" d="M17.583 9.286c-4.935 0-8.936 4.106-8.936 9.171 0 5.066 4.001 9.172 8.936 9.172s8.936-4.106 8.936-9.172c0-5.065-4-9.171-8.936-9.171m0 1.005c4.388 0 7.957 3.663 7.957 8.166s-3.57 8.167-7.957 8.167c-4.387 0-7.957-3.664-7.957-8.167s3.57-8.166 7.957-8.166" mask="url(#d)"/>
    </g>
</svg>
