<svg xmlns="http://www.w3.org/2000/svg" xmlns:xlink="http://www.w3.org/1999/xlink" width="48" height="48" viewBox="0 0 48 48">
    <defs>
        <path id="a" d="M9.42.195C4.216.195 0 4.413 0 9.617c0 5.203 4.217 9.422 9.42 9.422 5.202 0 9.419-4.219 9.419-9.422 0-5.204-4.217-9.422-9.42-9.422z"/>
    </defs>
    <g fill="none" fill-rule="evenodd">
        <rect width="48" height="48" rx="16"/>
        <g transform="translate(11 11.125)">
            <mask id="b" fill="#fff">
                <use xlink:href="#a"/>
            </mask>
            <path fill="#FFF" d="M9.42.195C4.216.195 0 4.413 0 9.617c0 5.203 4.217 9.422 9.42 9.422 5.202 0 9.419-4.219 9.419-9.422 0-5.204-4.217-9.422-9.42-9.422z" mask="url(#b)"/>
        </g>
        <path fill="#E9E9E9" d="M28.625 19.616c-5.153 0-9.331 4.179-9.331 9.334 0 5.155 4.178 9.334 9.331 9.334 5.154 0 9.332-4.179 9.332-9.334 0-5.155-4.178-9.334-9.332-9.334m0 1.022c4.582 0 8.31 3.729 8.31 8.312 0 4.583-3.728 8.312-8.31 8.312-4.582 0-8.309-3.73-8.309-8.312 0-4.583 3.727-8.312 8.31-8.312"/>
    </g>
</svg>
