<svg xmlns="http://www.w3.org/2000/svg" xmlns:xlink="http://www.w3.org/1999/xlink" width="16" height="16" viewBox="0 0 16 16">
    <defs>
        <path id="a" d="M10.429 2.164V.8H9.172v1.364H3.143V.8H1.886v1.364h-.629c-.698 0-1.25.6-1.25 1.333L0 12.8c0 .733.56 1.333 1.257 1.333h9.8c.692 0 1.258-.6 1.258-1.333V3.497c0-.733-.566-1.333-1.257-1.333h-.629zM1.424 13V5.667h9.507V13H1.424z"/>
    </defs>
    <g fill="none" fill-rule="evenodd">
        <use fill="#979FB0" transform="translate(1.886 .5)" xlink:href="#a"/>
        <path stroke="#979FB0" stroke-width="1.3" d="M5.28 8.955l2.263 1.981 3.372-3.274"/>
        <path d="M0 0h15.086v16H0z"/>
    </g>
</svg>
