<svg xmlns="http://www.w3.org/2000/svg" xmlns:xlink="http://www.w3.org/1999/xlink" width="124" height="24" viewBox="0 0 124 24">
    <defs>
        <path id="a" d="M0 19.476h121V.413H0z"/>
        <path id="c" d="M14.798.732l-4.75 12.535-2.22 5.86H12.268L19.239.731z"/>
    </defs>
    <g fill="none" fill-rule="evenodd" opacity=".8">
        <g transform="translate(1 2)">
            <mask id="b" fill="#fff">
                <use xlink:href="#a"/>
            </mask>
            <path fill="#000" d="M105.299 4.516h5.517v14.61h4.276V4.516h5.522V.732h-15.315zM61.694.732v10.942L53.644.732H49.89v18.394h4.268V8.193l8.075 10.933h3.732V.732zM22.4 19.126h4.271V.732H22.4zM95.837 15.448c-2.759 0-5.089-2.527-5.089-5.519 0-2.991 2.33-5.519 5.089-5.519 2.241 0 3.61.835 4.894 2.54l2.573-2.644c-1.743-2.44-4.527-3.893-7.467-3.893-5.106 0-9.26 4.27-9.26 9.516 0 5.247 4.154 9.516 9.26 9.516 2.94 0 5.724-1.453 7.467-3.892l-2.573-2.645c-1.283 1.704-2.653 2.54-4.894 2.54M85 4.516V.732H70.31v18.394H85V15.34H74.58v-3.52h8.789V8.037h-8.79v-3.52zM42.552 13.266a6.518 6.518 0 0 0 3.076-3.167 6.692 6.692 0 0 0 .602-2.787c0-.997-.215-1.942-.602-2.789-1.02-2.24-3.234-3.791-5.8-3.791h-8.822v18.395h4.271V4.523H39.243c1.498 0 2.713 1.248 2.713 2.788 0 1.54-1.215 2.788-2.713 2.788h-2.63.002-1.145v.264l4.836 6.613 1.589 2.15h4.968l-4.311-5.86zM5.297.732H.855l6.97 18.394h.002l2.22-5.86z" mask="url(#b)"/>
            <mask id="d" fill="#fff">
                <use xlink:href="#c"/>
            </mask>
            <path fill="#6700FF" d="M14.798.732l-4.75 12.535-2.22 5.86H12.268L19.239.731z" mask="url(#d)"/>
        </g>
        <path d="M0 0h124v24H0z"/>
    </g>
</svg>
