<svg xmlns="http://www.w3.org/2000/svg" width="40" height="40"><g fill="none" fill-rule="evenodd"><path d="M5 5h30v30H5z"/><path fill="#FFF" fill-rule="nonzero" d="M13.275 18.488c1.8 3.537 4.7 6.425 8.237 8.237l2.75-2.75c.338-.338.838-.45 1.276-.3 1.4.462 2.912.712 4.462.712.688 0 1.25.563 1.25 1.25V30c0 .688-.563 1.25-1.25 1.25-11.738 0-21.25-9.512-21.25-21.25 0-.688.563-1.25 1.25-1.25h4.375c.688 0 1.25.563 1.25 1.25 0 1.563.25 3.063.712 4.463.138.437.038.925-.312 1.275l-2.75 2.75z"/></g></svg>