<svg xmlns="http://www.w3.org/2000/svg" width="40" height="40"><g fill="none" fill-rule="evenodd"><path d="M5 5h30v30H5z"/><path fill="#FFF" fill-rule="nonzero" d="M20 16.25c-2 0-3.938.313-5.75.9v3.875c0 .488-.287.925-.7 1.125a14.389 14.389 0 0 0-3.325 2.313c-.225.224-.537.35-.875.35-.35 0-.662-.138-.887-.363l-3.1-3.1A1.196 1.196 0 0 1 5 20.475c0-.35.138-.663.362-.888A21.214 21.214 0 0 1 20 13.75a21.214 21.214 0 0 1 14.638 5.837c.224.226.362.538.362.888s-.138.662-.362.887l-3.1 3.1a1.246 1.246 0 0 1-.888.363c-.337 0-.65-.137-.875-.35a14.088 14.088 0 0 0-3.337-2.313c-.413-.2-.7-.624-.7-1.124v-3.875c-1.8-.6-3.738-.913-5.738-.913z"/></g></svg>