<svg xmlns="http://www.w3.org/2000/svg" width="40" height="40"><defs><filter id="a" width="163.2%" height="163.2%" x="-31.6%" y="-31.6%" filterUnits="objectBoundingBox"><feOffset dy="3" in="SourceAlpha" result="shadowOffsetOuter1"/><feGaussianBlur in="shadowOffsetOuter1" result="shadowBlurOuter1" stdDeviation="4"/><feColorMatrix in="shadowBlurOuter1" result="shadowMatrixOuter1" values="0 0 0 0 0.062745098 0 0 0 0 0.062745098 0 0 0 0 0.0666666667 0 0 0 0.2 0"/><feMerge><feMergeNode in="shadowMatrixOuter1"/><feMergeNode in="SourceGraphic"/></feMerge></filter></defs><g fill="none" fill-rule="evenodd" filter="url(#a)" transform="translate(-14 -14)"><path d="M19 19h30v30H19z"/><path fill="#F70925" fill-rule="nonzero" d="M34 30.25c-2 0-3.938.313-5.75.9v3.875c0 .488-.287.925-.7 1.125a14.389 14.389 0 0 0-3.325 2.313c-.225.224-.537.35-.875.35-.35 0-.662-.138-.887-.363l-3.1-3.1a1.196 1.196 0 0 1-.363-.875c0-.35.138-.662.362-.887A21.214 21.214 0 0 1 34 27.75a21.214 21.214 0 0 1 14.638 5.838c.224.225.362.537.362.887s-.138.663-.362.888l-3.1 3.1a1.246 1.246 0 0 1-.888.362c-.337 0-.65-.137-.875-.35a14.088 14.088 0 0 0-3.337-2.312c-.413-.2-.7-.625-.7-1.125v-3.875c-1.8-.6-3.738-.913-5.738-.913z"/></g></svg>