<svg xmlns="http://www.w3.org/2000/svg" width="62" height="34"><g fill="none" fill-rule="evenodd"><rect width="62" height="34" fill="#EE0C0C" rx="17"/><path d="M19 5h24v24H19z"/><path fill="#FFF" fill-rule="nonzero" d="M31 14c-1.6 0-3.15.25-4.6.72v3.1c0 .39-.23.74-.56.9-.98.49-1.87 1.12-2.66 1.85-.18.18-.43.28-.7.28-.28 0-.53-.11-.71-.29l-2.48-2.48a.956.956 0 0 1-.29-.7c0-.28.11-.53.29-.71C22.34 13.78 26.46 12 31 12c4.54 0 8.66 1.78 11.71 4.67.18.18.29.43.29.71 0 .28-.11.53-.29.71l-2.48 2.48c-.18.18-.43.29-.71.29-.27 0-.52-.11-.7-.28a11.27 11.27 0 0 0-2.67-1.85.996.996 0 0 1-.56-.9v-3.1C34.15 14.25 32.6 14 31 14z"/><path d="M0 0h62v34H0z" opacity=".496"/></g></svg>