<svg xmlns="http://www.w3.org/2000/svg" width="40" height="40"><defs><filter id="a" width="163.2%" height="163.2%" x="-31.6%" y="-31.6%" filterUnits="objectBoundingBox"><feOffset dy="3" in="SourceAlpha" result="shadowOffsetOuter1"/><feGaussianBlur in="shadowOffsetOuter1" result="shadowBlurOuter1" stdDeviation="4"/><feColorMatrix in="shadowBlurOuter1" result="shadowMatrixOuter1" values="0 0 0 0 0.062745098 0 0 0 0 0.062745098 0 0 0 0 0.0666666667 0 0 0 0.2 0"/><feMerge><feMergeNode in="shadowMatrixOuter1"/><feMergeNode in="SourceGraphic"/></feMerge></filter></defs><g fill="none" fill-rule="evenodd" filter="url(#a)" transform="translate(-14 -14)"><path d="M19 19h30v30H19z"/><path fill="#7ED321" fill-rule="nonzero" d="M27.275 32.487c1.8 3.538 4.7 6.425 8.237 8.238l2.75-2.75c.338-.338.838-.45 1.275-.3 1.4.462 2.913.712 4.463.712.687 0 1.25.563 1.25 1.25V44c0 .688-.563 1.25-1.25 1.25-11.738 0-21.25-9.512-21.25-21.25 0-.688.562-1.25 1.25-1.25h4.375c.687 0 1.25.563 1.25 1.25 0 1.563.25 3.063.712 4.463.138.437.038.924-.312 1.274l-2.75 2.75z"/></g></svg>