<svg xmlns="http://www.w3.org/2000/svg" xmlns:xlink="http://www.w3.org/1999/xlink" width="20" height="20" viewBox="0 0 20 20">
    <defs>
        <path id="a" d="M8-.5C3.86-.5.5 2.86.5 7c0 4.14 3.36 7.5 7.5 7.5 4.14 0 7.5-3.36 7.5-7.5 0-4.14-3.36-7.5-7.5-7.5zm-.75 13.447A5.991 5.991 0 0 1 2 7c0-.465.06-.907.158-1.343L5.75 9.25V10c0 .825.675 1.5 1.5 1.5v1.447zm5.175-1.904A1.488 1.488 0 0 0 11 10h-.75V7.75A.752.752 0 0 0 9.5 7H5V5.5h1.5c.412 0 .75-.338.75-.75v-1.5h1.5c.825 0 1.5-.675 1.5-1.5v-.308A6.003 6.003 0 0 1 14 7c0 1.56-.6 2.977-1.575 4.043z"/>
    </defs>
    <g fill="none" fill-rule="evenodd">
        <use fill="#3957e1" transform="translate(2 3)" xlink:href="#a"/>
        <path d="M0 0h20v20H0z"/>
    </g>
</svg>
