<svg xmlns="http://www.w3.org/2000/svg" xmlns:xlink="http://www.w3.org/1999/xlink" width="110" height="110" viewBox="0 0 110 110">
    <defs>
        <path id="a" d="M49.95 0C22.35 0 0 22.4 0 50s22.35 50 49.95 50C77.6 100 100 77.6 100 50S77.6 0 49.95 0zM50 93C26.242 93 7 73.757 7 50 7 26.242 26.242 7 50 7c23.757 0 43 19.242 43 43 0 23.757-19.243 43-43 43zm2.283-67.783h-7.5v29.936l26.25 15.717 3.75-6.137-22.5-13.322V25.217z"/>
    </defs>
    <g fill="none" fill-rule="evenodd">
        <use fill="#616774" opacity=".384" transform="translate(5 5)" xlink:href="#a"/>
        <path d="M0 0h110v110H0z"/>
    </g>
</svg>
