<svg xmlns="http://www.w3.org/2000/svg" width="40" height="40"><g fill="none" fill-rule="evenodd"><g fill-rule="nonzero" opacity=".817"><path stroke="#FFF" stroke-width="1.5" d="M29.25 15.31l-5.56-5.56H15c-.69 0-1.25.56-1.25 1.25v17c0 .69.56 1.25 1.25 1.25h13c.69 0 1.25-.56 1.25-1.25V15.31z"/><path fill="#FFF" d="M23 10h1.5v6H23z"/><path fill="#FFF" d="M23 17v-1.5h6V17z"/></g><path fill="#FFF" d="M10.6 13.2V10L5 15.6l5.6 5.6v-3.28c4 0 6.8 1.28 8.8 4.08-.8-4-3.2-8-8.8-8.8z"/><path d="M3 6h19v19H3z"/><path fill="#D8D8D8" d="M0 0h40v40H0z" opacity=".01"/></g></svg>