<svg xmlns="http://www.w3.org/2000/svg" width="26" height="26"><g fill="none" fill-rule="evenodd"><path d="M-1134-603H786V477h-1920z"/><path fill="#FFF" fill-rule="nonzero" d="M9.548 11.693a10.94 10.94 0 0 0 4.76 4.76l1.588-1.59a.718.718 0 0 1 .737-.173 8.238 8.238 0 0 0 2.578.412c.397 0 .722.325.722.722v2.52a.724.724 0 0 1-.722.723c-6.782 0-12.278-5.496-12.278-12.278 0-.397.325-.722.723-.722h2.527c.398 0 .723.325.723.722 0 .903.144 1.77.411 2.578a.725.725 0 0 1-.18.737l-1.59 1.589z"/></g></svg>