<svg xmlns="http://www.w3.org/2000/svg" xmlns:xlink="http://www.w3.org/1999/xlink" width="276" height="95" viewBox="0 0 276 95">
    <defs>
        <path id="a" d="M17.444.513C7.864.513.098 8.279.098 17.859s7.766 17.345 17.346 17.345S34.79 27.438 34.79 17.86c0-9.58-7.766-17.346-17.346-17.346z"/>
        <linearGradient id="b" x1="78.681%" x2="21.318%" y1="90.961%" y2="9.04%">
            <stop offset="0%" stop-color="#6700FF"/>
            <stop offset="100%" stop-color="#0454FF"/>
        </linearGradient>
        <path id="d" d="M.008.277H15.83v17.206H.008z"/>
        <path id="f" d="M.492.263h9.823V21.5H.492z"/>
        <path id="h" d="M0 24.5h274.83V.046H0z"/>
        <path id="j" d="M9.38.455l-6.263 16.08-2.926 7.517h5.856L15.236.454z"/>
        <linearGradient id="k" x1="37.552%" x2="59.988%" y1="97.653%" y2="11.763%">
            <stop offset="0%" stop-color="#6700FF"/>
            <stop offset="100%" stop-color="#004DFF"/>
        </linearGradient>
    </defs>
    <g fill="none" fill-rule="evenodd">
        <g transform="translate(113 2)">
            <mask id="c" fill="#fff">
                <use xlink:href="#a"/>
            </mask>
            <path fill="url(#b)" d="M17.444.513C7.864.513.098 8.279.098 17.859s7.766 17.345 17.346 17.345S34.79 27.438 34.79 17.86c0-9.58-7.766-17.346-17.346-17.346z" mask="url(#c)"/>
        </g>
        <path fill="#0068FF" d="M145.556 17.786c-9.491 0-17.185 7.693-17.185 17.184 0 9.49 7.694 17.184 17.185 17.184 9.49 0 17.184-7.693 17.184-17.184 0-9.49-7.694-17.184-17.184-17.184m0 1.883c8.437 0 15.301 6.864 15.301 15.301 0 8.437-6.864 15.302-15.301 15.302-8.438 0-15.302-6.865-15.302-15.302s6.864-15.301 15.302-15.301"/>
        <path d="M112 1h52v52h-52z"/>
        <g transform="translate(1 69.454)">
            <path fill="#000" d="M206.856 24.046h-3.032V7.804h2.9v2.24h.132c.461-.79 1.17-1.449 2.126-1.977.956-.527 1.906-.79 2.851-.79 1.187 0 2.23.274 3.131.823a4.866 4.866 0 0 1 1.978 2.275c1.34-2.065 3.198-3.098 5.571-3.098 1.867 0 3.307.57 4.318 1.713 1.01 1.143 1.516 2.769 1.516 4.879v10.177h-3.032V14.33c0-1.516-.275-2.609-.825-3.28-.549-.67-1.472-1.005-2.768-1.005-1.165 0-2.143.494-2.933 1.483-.792.989-1.188 2.154-1.188 3.495v9.023h-3.032V14.33c0-1.516-.275-2.609-.824-3.28-.55-.67-1.472-1.005-2.769-1.005-1.165 0-2.142.494-2.933 1.483-.792.989-1.187 2.154-1.187 3.495v9.023zM233.357 15.879c0 1.737.506 3.143 1.517 4.22 1.01 1.077 2.263 1.49 3.757 1.49 1.494 0 2.747-.413 3.758-1.49 1.01-1.077 1.516-2.483 1.516-4.22 0-1.714-.505-3.11-1.516-4.186-1.033-1.098-2.286-1.523-3.758-1.523s-2.725.425-3.757 1.523c-1.011 1.077-1.517 2.472-1.517 4.186m-3.032 0c0-2.483.78-4.537 2.34-6.163 1.583-1.626 3.57-2.44 5.966-2.44 2.395 0 4.373.814 5.934 2.44 1.582 1.626 2.373 3.68 2.373 6.163 0 2.506-.791 4.56-2.373 6.164-1.561 1.627-3.539 2.44-5.934 2.44s-4.383-.813-5.966-2.44c-1.56-1.626-2.34-3.68-2.34-6.164"/>
            <g transform="translate(259 7)">
                <mask id="e" fill="#fff">
                    <use xlink:href="#d"/>
                </mask>
                <path fill="#000" d="M4.969 4.1c.824-.703 1.807-1.055 2.95-1.055 1.384 0 2.489.368 3.312 1.104.824.737 1.28 1.79 1.369 2.91H3.337c.264-1.186.807-2.256 1.632-2.96zm8.103 7.673c-1.248 1.88-2.951 2.816-4.758 2.816-1.406 0-2.615-.358-3.625-1.326-1.012-.967-1.539-2.116-1.583-3.698h12.69l.034-.33c0-2.79-.71-5.086-2.127-6.635C12.286 1.05 10.38.277 7.985.277c-2.33 0-4.242.818-5.736 2.455C.755 4.369.008 6.544.008 9.004c0 2.483.77 4.413 2.307 6.039 1.538 1.627 3.494 2.44 5.867 2.44 1.627 0 3.082-.385 4.368-1.155a8.752 8.752 0 0 0 2.681-2.562l-2.159-1.993z" mask="url(#e)"/>
            </g>
            <path fill="#000" d="M190.53 11.1c.825-.703 1.808-1.055 2.95-1.055 1.385 0 2.49.368 3.313 1.104.824.737 1.28 1.79 1.369 2.91h-9.263c.263-1.186.807-2.256 1.632-2.96zm8.104 7.673c-1.248 1.88-2.951 2.816-4.758 2.816-1.406 0-2.615-.358-3.625-1.326-1.012-.967-1.539-2.116-1.583-3.698h12.69l.033-.33c0-2.79-.708-5.086-2.126-6.635-1.417-1.55-3.324-2.323-5.718-2.323-2.33 0-4.242.818-5.736 2.455-1.494 1.637-2.241 3.812-2.241 6.272 0 2.483.77 4.413 2.307 6.039 1.538 1.627 3.494 2.44 5.867 2.44 1.627 0 3.082-.385 4.368-1.155a8.752 8.752 0 0 0 2.681-2.562l-2.159-1.993z"/>
            <g transform="translate(247.5 3)">
                <mask id="g" fill="#fff">
                    <use xlink:href="#f"/>
                </mask>
                <path fill="#000" d="M9.672 18.54a6.981 6.981 0 0 1-1.269.122c-.542-.025-1-.192-1.417-.576-.418-.385-.627-1.116-.627-2.192V7.85h3.956V5.082H6.359V.262H6.23L3.327 2.106v2.977H.492v2.769h2.835v9.032c.022 1.45.466 2.582 1.335 3.395.867.813 1.962 1.171 3.28 1.22.695.024 1.82-.121 2.373-.309v-2.865a3.29 3.29 0 0 1-.643.215" mask="url(#g)"/>
            </g>
            <path fill="#000" d="M169.377 12.482v-9.12h7.517a4.56 4.56 0 1 1 0 9.12h-7.517zm9.495 2.671a7.46 7.46 0 0 0 4.073-11.791 7.449 7.449 0 0 0-5.907-2.904h-10.71v23.615h3.05v-8.687h5.801l6.613 8.674.01.013h3.877l-6.807-8.92zM137.686 5.31h7.273V24.05h5.637V5.31h7.28V.455h-20.19zM80.202.455v14.037L69.592.455H64.64V24.05h5.627V10.026l10.645 14.025h4.92V.455z"/>
            <mask id="i" fill="#fff">
                <use xlink:href="#h"/>
            </mask>
            <path fill="#000" d="M28.401 24.051h5.631V.455h-5.63zM125.212 19.333c-3.636 0-6.708-3.242-6.708-7.08 0-3.837 3.072-7.08 6.708-7.08 2.955 0 4.76 1.072 6.453 3.258l3.392-3.392a12.245 12.245 0 0 0-9.845-4.993c-6.731 0-12.208 5.476-12.208 12.207 0 6.732 5.477 12.208 12.208 12.208 3.877 0 7.547-1.865 9.844-4.994l-3.392-3.392c-1.691 2.186-3.497 3.258-6.452 3.258M110.927 5.31V.455H91.561V24.05h19.366v-4.855h-13.74l.001-4.515h11.587V9.826H97.188V5.31zM54.968 16.534a8.471 8.471 0 0 0 4.055-4.063 8.392 8.392 0 0 0 .794-3.576 8.44 8.44 0 0 0-8.44-8.44h-11.63v23.597h5.63V5.318h5.229a3.576 3.576 0 0 1 0 7.153h-4.974v.338l6.375 8.484 2.094 2.76h6.55l-5.683-7.52zM5.856.455H0L9.189 24.05h.002l2.927-7.516z" mask="url(#i)"/>
        </g>
        <g transform="translate(10 69.454)">
            <mask id="l" fill="#fff">
                <use xlink:href="#j"/>
            </mask>
            <path fill="url(#k)" d="M9.38.455l-6.263 16.08-2.926 7.517h5.856L15.236.454z" mask="url(#l)"/>
        </g>
        <path d="M0 69h276v26H0z"/>
    </g>
</svg>
