<svg xmlns="http://www.w3.org/2000/svg" xmlns:xlink="http://www.w3.org/1999/xlink" width="270" height="32"><defs><path id="a" d="M10.899.103C4.879.103 0 4.983 0 11.002 0 17.02 4.88 21.9 10.899 21.9c6.019 0 10.898-4.88 10.898-10.898 0-6.02-4.88-10.899-10.898-10.899z"/><linearGradient id="b" x1="76.266%" x2="22.144%" y1="86.626%" y2="11.157%"><stop offset="0%" stop-color="#6700FF"/><stop offset="100%" stop-color="#004DFF"/></linearGradient><path id="d" d="M.277.246h17.578v19.46H.277z"/><path id="f" d="M7.742.572L2.752 13.39.417 19.38h4.667L12.412.572z"/><linearGradient id="g" x1="37.55%" x2="59.989%" y1="97.653%" y2="11.759%"><stop offset="0%" stop-color="#6700FF"/><stop offset="100%" stop-color="#004DFF"/></linearGradient><path id="i" d="M0 .572h223.498v19.164H0z"/></defs><g fill="none" fill-rule="evenodd"><mask id="c" fill="#fff"><use xlink:href="#a"/></mask><path fill="url(#b)" d="M10.899.103C4.879.103 0 4.983 0 11.002 0 17.02 4.88 21.9 10.899 21.9c6.019 0 10.898-4.88 10.898-10.898 0-6.02-4.88-10.899-10.898-10.899z" mask="url(#c)"/><path fill="#0454FF" d="M21.029 10.057c-6.06 0-10.972 4.912-10.972 10.972S14.97 32 21.03 32C27.088 32 32 27.088 32 21.029c0-6.06-4.912-10.972-10.971-10.972m0 1.202c5.386 0 9.769 4.383 9.769 9.77 0 5.386-4.383 9.769-9.77 9.769-5.386 0-9.769-4.383-9.769-9.77 0-5.386 4.383-9.769 9.77-9.769"/><g><path fill="#1D1D1B" d="M155.748 6.313v3.868h5.798v14.94h4.492v-14.94h5.802V6.313zm-45.819 0v11.188l-8.46-11.188h-3.943v18.808h4.485v-11.18l8.484 11.18h3.921V6.313zm-41.29 18.809h4.488V6.313h-4.488z"/><g transform="translate(135.797 5.741)"><mask id="e" fill="#fff"><use xlink:href="#d"/></mask><path fill="#1D1D1B" d="M10.008 15.62c-2.9 0-5.347-2.585-5.347-5.644s2.448-5.643 5.347-5.643c2.355 0 3.795.854 5.143 2.596l2.704-2.703a9.763 9.763 0 0 0-7.847-3.98C4.643.245.278 4.61.278 9.975s4.365 9.73 9.73 9.73a9.76 9.76 0 0 0 7.847-3.98l-2.704-2.704c-1.348 1.743-2.788 2.598-5.143 2.598" mask="url(#e)"/></g><path fill="#1D1D1B" d="M134.419 10.182V6.313H118.98v18.81h15.438v-3.871h-10.952v-3.6h9.237v-3.87h-9.237v-3.6zM50.667 6.313h-4.666l7.323 18.81h.002l2.334-5.993z"/><g transform="translate(52.907 5.741)"><mask id="h" fill="#fff"><use xlink:href="#f"/></mask><path fill="url(#g)" d="M7.742.572L2.752 13.39.417 19.38h4.667L12.412.572z" mask="url(#h)"/></g><g transform="translate(46 5.741)"><mask id="j" fill="#fff"><use xlink:href="#i"/></mask><path fill="#1D1D1B" d="M31.682 19.381h4.489V.572h-4.49zm9.684-9.231h-4.994v.268l5.082 6.763 1.67 2.2h5.22z" mask="url(#j)"/><path fill="#1D1D1B" d="M47.047 4.474A6.728 6.728 0 0 0 40.952.597h-9.27v3.877h8.655a2.85 2.85 0 1 1 0 5.7h-2.762l2.93 3.878h.447a6.726 6.726 0 0 0 6.095-9.578" mask="url(#j)"/><path fill="#000" d="M169.318 19.373H166.9V6.427h2.313v1.786h.105c.367-.63.931-1.155 1.694-1.575.762-.42 1.52-.631 2.274-.631.945 0 1.776.219 2.494.656a3.878 3.878 0 0 1 1.577 1.813c1.068-1.646 2.548-2.47 4.44-2.47 1.489 0 2.635.457 3.442 1.367.806.911 1.208 2.207 1.208 3.889v8.11h-2.416V11.63c0-1.208-.22-2.08-.658-2.614-.437-.534-1.173-.802-2.206-.802-.93 0-1.708.395-2.338 1.184-.631.787-.946 1.717-.946 2.784v7.192h-2.418V11.63c0-1.208-.219-2.08-.657-2.614-.438-.534-1.173-.802-2.207-.802-.928 0-1.707.395-2.338 1.184-.63.787-.945 1.717-.945 2.784v7.192zm21.123-6.509c0 1.384.403 2.505 1.209 3.363.805.858 1.804 1.187 2.995 1.187 1.19 0 2.19-.33 2.995-1.187.805-.858 1.21-1.98 1.21-3.363 0-1.366-.405-2.478-1.21-3.337-.823-.876-1.822-1.214-2.995-1.214-1.175 0-2.172.338-2.995 1.214-.806.859-1.209 1.97-1.209 3.337m-2.417 0c0-1.98.622-3.617 1.865-4.913 1.262-1.296 2.846-1.944 4.756-1.944 1.91 0 3.485.648 4.73 1.944 1.26 1.296 1.891 2.934 1.891 4.913 0 1.997-.63 3.636-1.892 4.914-1.244 1.295-2.82 1.944-4.73 1.944-1.909 0-3.493-.649-4.755-1.944-1.243-1.297-1.865-2.934-1.865-4.914m26.816-3.81c.658-.56 1.442-.84 2.353-.84 1.104 0 1.984.293 2.641.88.656.588 1.02 1.426 1.09 2.32h-7.383c.21-.946.644-1.8 1.3-2.36zm6.46 6.116c-.994 1.5-2.352 2.245-3.792 2.245-1.122 0-2.084-.285-2.89-1.057-.806-.77-1.227-1.687-1.261-2.947h10.115l.026-.264c0-2.223-.565-4.053-1.694-5.288-1.13-1.235-2.65-1.852-4.558-1.852-1.857 0-3.381.652-4.572 1.958-1.191 1.304-1.787 3.038-1.787 4.999 0 1.98.613 3.517 1.838 4.813 1.228 1.296 2.787 1.945 4.679 1.945 1.295 0 2.456-.307 3.48-.92a6.987 6.987 0 0 0 2.137-2.042l-1.72-1.59zm-65.263-6.116c.656-.56 1.44-.84 2.351-.84 1.103 0 1.984.293 2.64.88.657.588 1.021 1.426 1.09 2.32h-7.382c.21-.946.643-1.8 1.3-2.36zm6.46 6.116c-.997 1.5-2.354 2.245-3.794 2.245-1.122 0-2.084-.285-2.89-1.057-.807-.77-1.227-1.687-1.261-2.947h10.115l.026-.264c0-2.223-.565-4.053-1.695-5.288-1.13-1.235-2.65-1.852-4.558-1.852-1.857 0-3.38.652-4.571 1.958-1.191 1.304-1.787 3.038-1.787 4.999 0 1.98.612 3.517 1.839 4.813 1.227 1.296 2.786 1.945 4.677 1.945 1.296 0 2.456-.307 3.48-.92a6.987 6.987 0 0 0 2.138-2.042l-1.72-1.59zm46.926 2.205a5.649 5.649 0 0 1-1.01.099 1.7 1.7 0 0 1-1.131-.46c-.333-.307-.5-.889-.5-1.747V8.855h3.154V6.65h-3.154V2.807h-.101l-2.315 1.47v2.372h-2.26v2.206h2.26v7.2c.018 1.156.372 2.058 1.064 2.706.691.649 1.564.935 2.615.973.553.02 1.45-.097 1.891-.246v-2.283c-.159.07-.328.13-.513.17m-72.679 2.02h2.431V.572h-2.431z" mask="url(#j)"/><path fill="#000" d="M149.99 2.887a5.936 5.936 0 0 0-4.708-2.315h-8.538v2.315h8.422a3.635 3.635 0 0 1 0 7.268h-8.422v2.315h8.538c1.915 0 3.62-.906 4.708-2.315a5.91 5.91 0 0 0 1.241-3.634c0-1.369-.463-2.63-1.241-3.634" mask="url(#j)"/><path fill="#000" d="M146.463 11.918h-3.084l5.693 7.466.006.01h3.091z" mask="url(#j)"/></g></g></g></svg>