<svg xmlns="http://www.w3.org/2000/svg" xmlns:xlink="http://www.w3.org/1999/xlink" width="130" height="130"><defs><path id="a" d="M0 0h100v100H0z"/></defs><g fill="none" fill-rule="evenodd"><g opacity=".86"><g transform="translate(18 15)"><mask id="b" fill="#fff"><use xlink:href="#a"/></mask><path fill="#FEFEFE" d="M79.785 95.972a.952.952 0 0 1-.91.691H4.273a.901.901 0 0 1-.742-.366c-.104-.138-.269-.423-.21-.684l10.008-27.45v.009l6.935-19.009.048-.13c.107-.416.48-.7.904-.7h74.6c.636 0 .798.912.84 1.366l-16.87 46.273zM3.337 22.882c0-.665.544-1.219 1.221-1.219h8.771V58.39L3.337 85.67V22.882zm13.33-19.544h35.002v25h25v16.667H21.216c-.237 0-.472.012-.7.056-1.629.267-2.979 1.448-3.377 2.96l-.473 1.288V3.34zm38.33 2.35l19.311 19.313h-19.31V5.688zM85.45 33.334c.666 0 1.22.546 1.22 1.221v10.45h-6.672v-11.67h5.452zm10.366 11.671h-5.818v-10.45a4.559 4.559 0 0 0-4.548-4.558h-5.452v-4.02l-.823-.822v-.01L67.016 12.986 54.021.001H13.329v18.333h-8.77a4.559 4.559 0 0 0-4.56 4.548v72.813h.01a4.24 4.24 0 0 0 .87 2.629A4.232 4.232 0 0 0 4.273 100h74.602c1.927 0 3.62-1.302 4.083-3.021L100 50.253v-.3c0-2.865-1.759-4.948-4.184-4.948z" mask="url(#b)"/></g><path fill="#FEFEFE" d="M44.668 43.337h16.667c.919 0 1.669-.75 1.669-1.668 0-.921-.75-1.669-1.669-1.669H44.668a1.67 1.67 0 0 0 0 3.338m0-11.671h16.667c.919 0 1.669-.748 1.669-1.67 0-.918-.75-1.668-1.669-1.668H44.668a1.67 1.67 0 0 0 0 3.338m0 23.331h39.998a1.664 1.664 0 1 0 0-3.327H44.668a1.664 1.664 0 0 0 0 3.327"/></g><path d="M0 0h130v130H0z"/></g></svg>