<?xml version="1.0" encoding="UTF-8"?>
<svg width="28px" height="28px" viewBox="0 0 28 28" version="1.1" xmlns="http://www.w3.org/2000/svg" xmlns:xlink="http://www.w3.org/1999/xlink">
    <!-- Generator: sketchtool 64 (101010) - https://sketch.com -->
    <title>B61C63C0-9F9B-4B90-A728-7D8ADA3362DD@1.00x</title>
    <desc>Created with sketchtool.</desc>
    <g id="-" stroke="none" stroke-width="1" fill="none" fill-rule="evenodd">
        <g id="리소스-파일모음" transform="translate(-57.000000, -142.000000)">
            <g id="icn_more" transform="translate(57.000000, 142.000000)">
                <g>
                    <polygon id="Path" points="0 0 28 0 28 28 0 28"></polygon>
                    <rect id="pressed" fill="#FFFFFF" opacity="0.2" x="0" y="0" width="28" height="28" rx="14"></rect>
                    <path d="M6.421875,13.46875 C6.73437656,13.1562484 7.09374797,13 7.5,13 C7.90625203,13 8.25781102,13.148436 8.5546875,13.4453125 C8.85156398,13.742189 9,14.093748 9,14.5 C9,14.906252 8.85156398,15.257811 8.5546875,15.5546875 C8.25781102,15.851564 7.90625203,16 7.5,16 C7.09374797,16 6.74218898,15.851564 6.4453125,15.5546875 C6.14843602,15.257811 6,14.906252 6,14.5 C6,14.093748 6.14062359,13.7500014 6.421875,13.46875 Z M12.921875,13.46875 C13.2343766,13.1562484 13.593748,13 14,13 C14.406252,13 14.757811,13.148436 15.0546875,13.4453125 C15.351564,13.742189 15.5,14.093748 15.5,14.5 C15.5,14.906252 15.351564,15.257811 15.0546875,15.5546875 C14.757811,15.851564 14.406252,16 14,16 C13.593748,16 13.242189,15.851564 12.9453125,15.5546875 C12.648436,15.257811 12.5,14.906252 12.5,14.5 C12.5,14.093748 12.6406236,13.7500014 12.921875,13.46875 Z M19.421875,13.46875 C19.7343766,13.1562484 20.093748,13 20.5,13 C20.906252,13 21.257811,13.148436 21.5546875,13.4453125 C21.851564,13.742189 22,14.093748 22,14.5 C22,14.906252 21.851564,15.257811 21.5546875,15.5546875 C21.257811,15.851564 20.906252,16 20.5,16 C20.093748,16 19.742189,15.851564 19.4453125,15.5546875 C19.148436,15.257811 19,14.906252 19,14.5 C19,14.093748 19.1406236,13.7500014 19.421875,13.46875 Z" id="more" fill="#FFFFFF" fill-rule="nonzero"></path>
                </g>
            </g>
        </g>
    </g>
</svg>