<?xml version="1.0" encoding="UTF-8"?>
<svg width="22px" height="22px" viewBox="0 0 22 22" version="1.1" xmlns="http://www.w3.org/2000/svg" xmlns:xlink="http://www.w3.org/1999/xlink">
    <!-- Generator: sketchtool 64 (101010) - https://sketch.com -->
    <title>D1DEBA25-0FD2-41A6-9F30-0C0EA0C79CBF@1.00x</title>
    <desc>Created with sketchtool.</desc>
    <g id="-" stroke="none" stroke-width="1" fill="none" fill-rule="evenodd">
        <g id="리소스-파일모음" transform="translate(-269.000000, -144.000000)">
            <g id="ic_renew" transform="translate(269.000000, 144.000000)">
                <rect id="icn_renew" opacity="0.447803442" x="0" y="0" width="22" height="22"></rect>
                <path d="M11.05,6.86 L11.05,4 L7.26875,7.575 L11.05,11.15 L11.05,8.29 C13.5531875,8.29 15.5875,10.21335 15.5875,12.58 C15.5875,14.94665 13.5531875,16.87 11.05,16.87 C8.5468125,16.87 6.5125,14.94665 6.5125,12.58 L5,12.58 C5,15.7403 7.707375,18.3 11.05,18.3 C14.392625,18.3 17.1,15.7403 17.1,12.58 C17.1,9.4197 14.392625,6.86 11.05,6.86 L11.05,6.86 Z" id="Shape" fill="#FFFFFF"></path>
            </g>
        </g>
    </g>
</svg>