<?xml version="1.0" encoding="UTF-8"?>
<svg width="72px" height="72px" viewBox="0 0 72 72" version="1.1" xmlns="http://www.w3.org/2000/svg" xmlns:xlink="http://www.w3.org/1999/xlink">
    <!-- Generator: sketchtool 64 (101010) - https://sketch.com -->
    <title>2C97F62A-4E23-49F4-A1A8-FAA07179BBA5@1.00x</title>
    <desc>Created with sketchtool.</desc>
    <defs>
        <linearGradient x1="50%" y1="1.62851282%" x2="50%" y2="111.777344%" id="linearGradient-1">
            <stop stop-color="#D0D5DC" offset="0%"></stop>
            <stop stop-color="#ABAFB5" offset="100%"></stop>
        </linearGradient>
        <circle id="path-2" cx="36" cy="36" r="36"></circle>
        <linearGradient x1="9.21052632%" y1="58.3182734%" x2="38.1578947%" y2="50%" id="linearGradient-4">
            <stop stop-color="#E1E1E1" offset="0%"></stop>
            <stop stop-color="#FFFFFF" offset="100%"></stop>
        </linearGradient>
        <path d="M27.66,19.68 C33.0966,19.68 37.5,15.2766 37.5,9.84 C37.5,4.4034 33.0966,1.23634436e-13 27.66,1.23634436e-13 C22.2234,1.23634436e-13 17.82,4.4034 17.82,9.84 C17.82,15.2766 22.2234,19.68 27.66,19.68 Z" id="path-5"></path>
        <filter x="-35.6%" y="-35.6%" width="181.3%" height="181.3%" filterUnits="objectBoundingBox" id="filter-6">
            <feOffset dx="1" dy="1" in="SourceAlpha" result="shadowOffsetOuter1"></feOffset>
            <feGaussianBlur stdDeviation="2.5" in="shadowOffsetOuter1" result="shadowBlurOuter1"></feGaussianBlur>
            <feColorMatrix values="0 0 0 0 0   0 0 0 0 0   0 0 0 0 0  0 0 0 0.0811024913 0" type="matrix" in="shadowBlurOuter1"></feColorMatrix>
        </filter>
        <path d="M27.4051758,26.4874219 C14.2914167,26.4874219 5.1,34.0811309 2.63026304,41.8987409 C0.983771727,47.1104809 0.107017381,50.9876187 -5.75539616e-13,53.5301543 C11.9396812,53.55867 20.7041717,53.5729278 26.2934717,53.5729278 C31.8827717,53.5729278 41.3883983,53.55867 54.8103516,53.5301543 C54.8103516,51.1352325 53.7013474,47.2580946 51.4833391,41.8987409 C48.1563266,33.8597103 40.5189348,26.4874219 27.4051758,26.4874219 Z" id="path-7"></path>
        <filter x="-12.8%" y="-25.8%" width="129.2%" height="159.1%" filterUnits="objectBoundingBox" id="filter-8">
            <feOffset dx="1" dy="1" in="SourceAlpha" result="shadowOffsetOuter1"></feOffset>
            <feGaussianBlur stdDeviation="2.5" in="shadowOffsetOuter1" result="shadowBlurOuter1"></feGaussianBlur>
            <feColorMatrix values="0 0 0 0 0   0 0 0 0 0   0 0 0 0 0  0 0 0 0.195093969 0" type="matrix" in="shadowBlurOuter1"></feColorMatrix>
        </filter>
    </defs>
    <g id="-" stroke="none" stroke-width="1" fill="none" fill-rule="evenodd">
        <g id="리소스-파일모음" transform="translate(-605.000000, -40.000000)">
            <g id="72x72" transform="translate(605.000000, 40.000000)">
                <g id="lnb_img_user">
                    <mask id="mask-3" fill="white">
                        <use xlink:href="#path-2"></use>
                    </mask>
                    <use id="Mask" fill="url(#linearGradient-1)" xlink:href="#path-2"></use>
                    <path d="M52.8,45.7101563 C57.441,45.7101563 61.2,41.9511563 61.2,37.3101563 C61.2,32.6691563 57.441,28.9101563 52.8,28.9101563 C48.159,28.9101563 44.4,32.6691563 44.4,37.3101563 C44.4,41.9511563 48.159,45.7101563 52.8,45.7101563 Z M52.4103516,52.2773437 C39.0908203,52.2773437 28.8,61.8119891 28.8,69.7813323 L28.8,76.8 C38.3083008,76.8 45.8083008,76.8 51.3,76.8 C56.7916992,76.8 65.2916992,76.8 76.8,76.8 L76.8,69.7813323 C76.8,61.8119891 65.7298828,52.2773437 52.4103516,52.2773437 Z" id="Shape" fill="url(#linearGradient-4)" fill-rule="nonzero" opacity="0.76" mask="url(#mask-3)" transform="translate(52.800000, 52.855078) rotate(-2.000000) translate(-52.800000, -52.855078) "></path>
                    <g id="Group" mask="url(#mask-3)" fill-rule="nonzero">
                        <g transform="translate(22.742097, 49.559994) rotate(4.000000) translate(-22.742097, -49.559994) translate(-4.757903, 22.559994)">
                            <g id="Shape">
                                <use fill="black" fill-opacity="1" filter="url(#filter-6)" xlink:href="#path-5"></use>
                                <use fill="#FFFFFF" xlink:href="#path-5"></use>
                            </g>
                            <g id="Path">
                                <use fill="black" fill-opacity="1" filter="url(#filter-8)" xlink:href="#path-7"></use>
                                <use fill="#FFFFFF" xlink:href="#path-7"></use>
                            </g>
                        </g>
                    </g>
                </g>
            </g>
        </g>
    </g>
</svg>