<svg xmlns="http://www.w3.org/2000/svg" width="24" height="24" viewBox="0 0 24 24">
    <g fill="none" fill-rule="evenodd">
        <path d="M0 0h24v24H0z"/>
        <path fill="#0D2A58" fill-rule="nonzero" d="M18.222 12.889v4.444c0 .49-.4.89-.889.89H6.667a.892.892 0 0 1-.89-.89V12.89c0-.489-.4-.889-.888-.889-.489 0-.889.4-.889.889v5.333C4 19.2 4.8 20 5.778 20h12.444C19.2 20 20 19.2 20 18.222V12.89c0-.489-.4-.889-.889-.889s-.889.4-.889.889zm-5.333-.293l1.671-1.672a.885.885 0 1 1 1.253 1.254l-3.19 3.19a.885.885 0 0 1-1.254 0l-3.191-3.19a.885.885 0 1 1 1.253-1.254l1.68 1.672V4.889c0-.489.4-.889.889-.889s.889.4.889.889v7.707z"/>
    </g>
</svg>
