<svg xmlns="http://www.w3.org/2000/svg" width="24" height="24" viewBox="0 0 24 24">
    <g fill="none" fill-rule="evenodd">
        <path d="M0 0h24v24H0z"/>
        <path fill="#A4B3CB" fill-opacity=".8" fill-rule="nonzero" d="M17.833 4.5H6.167C5.25 4.5 4.5 5.25 4.5 6.167v11.666c0 .917.75 1.667 1.667 1.667h11.666c.917 0 1.667-.75 1.667-1.667V6.167c0-.917-.75-1.667-1.667-1.667z"/>
        <path fill="#0F2F65" fill-rule="nonzero" d="M8.667 16.167a.836.836 0 0 1-.834-.834v-4.166c0-.459.375-.834.834-.834.458 0 .833.375.833.834v4.166a.836.836 0 0 1-.833.834zm3.333 0a.836.836 0 0 1-.833-.834V8.667c0-.459.375-.834.833-.834.458 0 .833.375.833.834v6.666a.836.836 0 0 1-.833.834zm3.333 0a.836.836 0 0 1-.833-.834v-1.666c0-.459.375-.834.833-.834.459 0 .834.375.834.834v1.666a.836.836 0 0 1-.834.834z"/>
    </g>
</svg>
