<svg xmlns="http://www.w3.org/2000/svg" width="16" height="16" viewBox="0 0 16 16">
    <g fill="none" fill-rule="evenodd">
        <path d="M-4-4h24v24H-4z"/>
        <path fill="#A4B3CB" fill-opacity=".8" fill-rule="nonzero" d="M13.833.5H2.167C1.25.5.5 1.25.5 2.167v11.666c0 .917.75 1.667 1.667 1.667h11.666c.917 0 1.667-.75 1.667-1.667V2.167C15.5 1.25 14.75.5 13.833.5z"/>
        <path fill="#0F2F65" fill-rule="nonzero" d="M4.667 12.167a.836.836 0 0 1-.834-.834V7.167c0-.459.375-.834.834-.834.458 0 .833.375.833.834v4.166a.836.836 0 0 1-.833.834zm3.333 0a.836.836 0 0 1-.833-.834V4.667c0-.459.375-.834.833-.834.458 0 .833.375.833.834v6.666a.836.836 0 0 1-.833.834zm3.333 0a.836.836 0 0 1-.833-.834V9.667c0-.459.375-.834.833-.834.459 0 .834.375.834.834v1.666a.836.836 0 0 1-.834.834z"/>
    </g>
</svg>
