<svg xmlns="http://www.w3.org/2000/svg" width="24" height="24" viewBox="0 0 24 24">
    <g fill="none" fill-rule="evenodd">
        <path d="M0 0h24v24H0z"/>
        <path fill="#FFF" fill-rule="nonzero" d="M9.824 19.92v-5.405h4.347v5.404c0 .595.49 1.081 1.087 1.081h3.261c.598 0 1.087-.486 1.087-1.08v-7.566h1.848c.5 0 .74-.616.359-.94l-9.087-8.138a1.1 1.1 0 0 0-1.457 0l-9.087 8.138a.538.538 0 0 0 .36.94h1.847v7.565c0 .595.49 1.081 1.087 1.081h3.26c.599 0 1.088-.486 1.088-1.08z"/>
    </g>
</svg>
