<svg xmlns="http://www.w3.org/2000/svg" width="24" height="24" viewBox="0 0 24 24">
    <g fill="none" fill-rule="evenodd">
        <path d="M0 0h24v24H0z"/>
        <path fill="#FFF" fill-rule="nonzero" d="M9.693 20.8v-6.005h4.83v6.004c0 .66.544 1.201 1.209 1.201h3.623c.664 0 1.207-.54 1.207-1.2v-8.407h2.054c.555 0 .82-.684.398-1.044L12.918 2.306a1.222 1.222 0 0 0-1.619 0L1.203 11.35c-.41.36-.157 1.044.398 1.044h2.053V20.8c0 .66.544 1.201 1.208 1.201h3.623c.665 0 1.208-.54 1.208-1.2z"/>
    </g>
</svg>
