<svg xmlns="http://www.w3.org/2000/svg" width="24" height="24" viewBox="0 0 24 24">
    <g fill="none" fill-rule="evenodd" opacity=".75">
        <path d="M0 0v24h24V0z"/>
        <path fill="#FFF" d="M16.917 11.083a2.742 2.742 0 0 1 2.74 2.741v1.843h1.426a1 1 0 0 1 .994.883l.006.117v4.416a1 1 0 0 1-1 1h-4.416a1 1 0 0 1-1-1v-4.416a1 1 0 0 1 1-1h1.157v-1.843a.916.916 0 0 0-.907-.907l-1.575-.001H7.083a.916.916 0 0 0-.908.908v1.843h1.158a1 1 0 0 1 .994.883l.006.117v4.416a1 1 0 0 1-1 1H2.917a1 1 0 0 1-1-1v-4.416a1 1 0 0 1 1-1h1.425v-1.843a2.743 2.743 0 0 1 2.574-2.736l.167-.005h4V9.134A3.668 3.668 0 0 1 12 1.917a3.667 3.667 0 0 1 .918 7.217l-.001 1.95h4z"/>
    </g>
</svg>
