<?xml version="1.0" encoding="UTF-8"?>
<svg width="14px" height="14px" viewBox="0 0 14 14" version="1.1" xmlns="http://www.w3.org/2000/svg" xmlns:xlink="http://www.w3.org/1999/xlink">
    <title>2B1EB4BA-D3F4-49EC-B513-85BF8C2872FC@1.00x</title>
    <g id="Remote_part02" stroke="none" stroke-width="1" fill="none" fill-rule="evenodd" opacity="0.900000036">
        <g id="2.0.원격협업-화면_GNB소스-정리_02" transform="translate(-819.000000, -265.000000)">
            <g id="message" transform="translate(773.000000, 28.000000)">
                <g id="texting-area">
                    <g id="notifi02" transform="translate(46.000000, 233.000000)">
                        <g id="Group-11">
                            <g id="chat_ic_ppl" transform="translate(0.000000, 4.000000)">
                                <rect id="tr14" opacity="0.4" x="0" y="0" width="14" height="14"></rect>
                                <path d="M7,7 C8.6575,7 10,5.6575 10,4 C10,2.3425 8.6575,1 7,1 C5.3425,1 4,2.3425 4,4 C4,5.6575 5.3425,7 7,7 Z M7,8.5 C4.9975,8.5 1,9.505 1,11.5 L1,13 L13,13 L13,11.5 C13,9.505 9.0025,8.5 7,8.5 Z" id="Shape" fill="#FFFFFF" fill-rule="nonzero"></path>
                            </g>
                        </g>
                    </g>
                </g>
            </g>
        </g>
    </g>
</svg>