<?xml version="1.0" encoding="UTF-8"?>
<svg width="24px" height="24px" viewBox="0 0 24 24" version="1.1" xmlns="http://www.w3.org/2000/svg" xmlns:xlink="http://www.w3.org/1999/xlink">
    <title>70C74828-DECC-4E8E-978E-A930CB11FD63@1.00x</title>
    <defs>
        <path d="M18,4 L20,8 L17,8 L15,4 L13,4 L15,8 L12,8 L10,4 L8,4 L10,8 L7,8 L5,4 L4,4 C2.9,4 2.01,4.9 2.01,6 L2,18 C2,19.1 2.9,20 4,20 L20,20 C21.1,20 22,19.1 22,18 L22,4 L18,4 Z" id="path-1"></path>
    </defs>
    <g id="Remote_part02" stroke="none" stroke-width="1" fill="none" fill-rule="evenodd">
        <g id="2.0.원격협업-화면_GNB소스-정리_02" transform="translate(-151.000000, -156.000000)">
            <g id="Group" transform="translate(30.000000, 111.000000)">
                <g id="Group-7" transform="translate(19.000000, 45.000000)">
                    <g id="icon_video" transform="translate(102.000000, 0.000000)">
                        <polygon id="Path" points="0 0 24 0 24 24 0 24"></polygon>
                        <mask id="mask-2" fill="white">
                            <use xlink:href="#path-1"></use>
                        </mask>
                        <use fill="#000000" fill-rule="nonzero" xlink:href="#path-1"></use>
                    </g>
                </g>
            </g>
        </g>
    </g>
</svg>