<?xml version="1.0" encoding="UTF-8"?>
<svg width="40px" height="40px" viewBox="0 0 40 40" version="1.1" xmlns="http://www.w3.org/2000/svg" xmlns:xlink="http://www.w3.org/1999/xlink">
    <!-- Generator: sketchtool 61.2 (101010) - https://sketch.com -->
    <title>5658343C-B36C-4735-A039-DACDEED198FC@3.00x</title>
    <desc>Created with sketchtool.</desc>
    <g id="web-v2.0" stroke="none" stroke-width="1" fill="none" fill-rule="evenodd">
        <g id="2.0.원격협업-화면_GNB소스-정리" transform="translate(-1616.000000, -276.000000)">
            <g id="gnb*2" transform="translate(30.000000, 268.000000)">
                <g id="gnb_ic_voice" transform="translate(1586.000000, 8.000000)">
                    <g id="gnb_ic_voice_off">
                        <polygon points="0 0 40 0 40 40 0 40"></polygon>
                        <path d="M27,20 L25.3,20 C25.3,20.74 25.14,21.43 24.87,22.05 L26.1,23.28 C26.66,22.3 27,21.19 27,20 L27,20 Z M22.98,20.17 C22.98,20.11 23,20.06 23,20 L23,14 C23,12.34 21.66,11 20,11 C18.34,11 17,12.34 17,14 L17,14.18 L22.98,20.17 Z M12.27,12 L11,13.27 L17.01,19.28 L17.01,20 C17.01,21.66 18.34,23 20,23 C20.22,23 20.44,22.97 20.65,22.92 L22.31,24.58 C21.6,24.91 20.81,25.1 20,25.1 C17.24,25.1 14.7,23 14.7,20 L13,20 C13,23.41 15.72,26.23 19,26.72 L19,30 L21,30 L21,26.72 C21.91,26.59 22.77,26.27 23.54,25.82 L27.73,30 L29,28.73 L12.27,12 Z" id="Shape" fill="#FFFFFF" fill-rule="nonzero"></path>
                    </g>
                </g>
            </g>
        </g>
    </g>
</svg>