<?xml version="1.0" encoding="UTF-8"?>
<svg width="40px" height="40px" viewBox="0 0 40 40" version="1.1" xmlns="http://www.w3.org/2000/svg" xmlns:xlink="http://www.w3.org/1999/xlink">
    <!-- Generator: sketchtool 61.2 (101010) - https://sketch.com -->
    <title>9861D9E4-46D7-4FBD-844F-B3DC305B8AEF@3.00x</title>
    <desc>Created with sketchtool.</desc>
    <g id="web-v2.0" stroke="none" stroke-width="1" fill="none" fill-rule="evenodd">
        <g id="2.0.원격협업-화면_GNB소스-정리" transform="translate(-1664.000000, -276.000000)">
            <g id="gnb*2" transform="translate(30.000000, 268.000000)">
                <g id="gnb_ic_volume" transform="translate(1634.000000, 8.000000)">
                    <g id="gnb_ic_volum_off">
                        <polygon points="0 0 40 0 40 40 0 40"></polygon>
                        <path d="M24.5,20 C24.5,18.23 23.48,16.71 22,15.97 L22,18.18 L24.45,20.63 C24.48,20.43 24.5,20.22 24.5,20 L24.5,20 Z M27,20 C27,20.94 26.8,21.82 26.46,22.64 L27.97,24.15 C28.63,22.91 29,21.5 29,20 C29,15.72 26.01,12.14 22,11.23 L22,13.29 C24.89,14.15 27,16.83 27,20 Z M12.27,11 L11,12.27 L15.73,17 L11,17 L11,23 L15,23 L20,28 L20,21.27 L24.25,25.52 C23.58,26.04 22.83,26.45 22,26.7 L22,28.76 C23.38,28.45 24.63,27.81 25.69,26.95 L27.73,29 L29,27.73 L20,18.73 L12.27,11 Z M20,12 L17.91,14.09 L20,16.18 L20,12 Z" id="Shape" fill="#FFFFFF" fill-rule="nonzero"></path>
                    </g>
                </g>
            </g>
        </g>
    </g>
</svg>