<?xml version="1.0" encoding="UTF-8"?>
<svg width="36px" height="36px" viewBox="0 0 36 36" version="1.1" xmlns="http://www.w3.org/2000/svg" xmlns:xlink="http://www.w3.org/1999/xlink">
    <!-- Generator: sketchtool 61.2 (101010) - https://sketch.com -->
    <title>38BBB237-B3A6-4421-BE1C-8343737DCCD7@3.00x</title>
    <desc>Created with sketchtool.</desc>
    <g id="web-v2.0" stroke="none" stroke-width="1" fill="none" fill-rule="evenodd">
        <g id="2.0.원격협업-화면_GNB소스-정리" transform="translate(-343.000000, -278.000000)" fill-rule="nonzero">
            <g id="gnb*2" transform="translate(30.000000, 268.000000)">
                <g id="btn_2drawing" transform="translate(308.000000, 10.000000)">
                    <g id="ic_creat_basic" transform="translate(5.000000, 0.000000)">
                        <g id="icn" transform="translate(7.000000, 8.000000)">
                            <path d="M10.6021538,9.50034717 L10.6021538,12 L13.1018066,12 L20.474116,4.6276906 L17.9744632,2.12803777 L10.6021538,9.50034717 Z M22.4071809,2.69462575 C22.6671448,2.43466185 22.6671448,2.01472018 22.4071809,1.75475628 L20.8473975,0.19497292 C20.5874336,-0.0649909735 20.167492,-0.0649909735 19.9075281,0.19497292 L18.6876975,1.4148035 L21.1873503,3.91445633 L22.4071809,2.69462575 Z" id="Shape" fill="#FFFFFF"></path>
                            <path d="M19.9295321,9 L19.9295321,17.0666667 C19.9295321,17.5821324 19.5240222,18 19.0238004,18 L1.83526384,18 C1.33504203,18 0.929532138,17.5821324 0.929532138,17.0666667 L0.929532138,4.93333333 C0.929532138,4.41786757 1.33504203,4 1.83526384,4 L12.3884091,4" id="Path" stroke="#FFFFFF" stroke-width="1.5"></path>
                        </g>
                    </g>
                </g>
            </g>
        </g>
    </g>
</svg>