<?xml version="1.0" encoding="UTF-8"?>
<svg width="36px" height="36px" viewBox="0 0 36 36" version="1.1" xmlns="http://www.w3.org/2000/svg" xmlns:xlink="http://www.w3.org/1999/xlink">
    <!-- Generator: sketchtool 61.2 (101010) - https://sketch.com -->
    <title>7D4190AD-097C-4552-849C-011FC9B25DA5@3.00x</title>
    <desc>Created with sketchtool.</desc>
    <g id="web-v2.0" stroke="none" stroke-width="1" fill="none" fill-rule="evenodd">
        <g id="2.0.원격협업-화면_GNB소스-정리" transform="translate(-466.000000, -278.000000)">
            <g id="gnb*2" transform="translate(30.000000, 268.000000)">
                <g id="btn_3arfuct" transform="translate(431.000000, 10.000000)">
                    <g id="gnb_ic_creat_ar" transform="translate(5.000000, 0.000000)">
                        <g id="Group-7" transform="translate(6.000000, 6.000000)">
                            <polygon id="Path-line" stroke="#FFFFFF" stroke-width="1.5" points="2.84 7.35305667 12.28725 1.84 21.84 7.30254475 21.84 18.2131193 12.376603 23.44 2.84 18.2131193"></polygon>
                            <path d="M12.34,21.4283936 C13.389341,21.4283936 14.24,22.2790525 14.24,23.3283936 C14.24,24.3777346 13.389341,25.2283936 12.34,25.2283936 C11.290659,25.2283936 10.44,24.3777346 10.44,23.3283936 C10.44,22.2790525 11.290659,21.4283936 12.34,21.4283936 Z M2.84,16.6258105 C3.88934102,16.6258105 4.74,17.4764695 4.74,18.5258105 C4.74,19.5751516 3.88934102,20.4258105 2.84,20.4258105 C1.79065898,20.4258105 0.94,19.5751516 0.94,18.5258105 C0.94,17.4764695 1.79065898,16.6258105 2.84,16.6258105 Z M21.84,16.3137207 C22.889341,16.3137207 23.74,17.1643797 23.74,18.2137207 C23.74,19.2630617 22.889341,20.1137207 21.84,20.1137207 C20.790659,20.1137207 19.94,19.2630617 19.94,18.2137207 C19.94,17.1643797 20.790659,16.3137207 21.84,16.3137207 Z M21.84,5.46866236 C22.889341,5.46866236 23.74,6.31932134 23.74,7.36866236 C23.74,8.41800338 22.889341,9.26866236 21.84,9.26866236 C20.790659,9.26866236 19.94,8.41800338 19.94,7.36866236 C19.94,6.31932134 20.790659,5.46866236 21.84,5.46866236 Z M2.84,5.46866236 C3.88934102,5.46866236 4.74,6.31932134 4.74,7.36866236 C4.74,8.41800338 3.88934102,9.26866236 2.84,9.26866236 C1.79065898,9.26866236 0.94,8.41800338 0.94,7.36866236 C0.94,6.31932134 1.79065898,5.46866236 2.84,5.46866236 Z M12.34,0.122119141 C13.389341,0.122119141 14.24,0.972778116 14.24,2.02211914 C14.24,3.07146017 13.389341,3.92211914 12.34,3.92211914 C11.290659,3.92211914 10.44,3.07146017 10.44,2.02211914 C10.44,0.972778116 11.290659,0.122119141 12.34,0.122119141 Z" id="Combined-Shape" fill="#FFFFFF"></path>
                            <path d="M17.0323343,10.0075751 L17.0323343,14.5998261 L13.0753585,12.3116595 L13.0753585,7.71240234 L17.0323343,10.0075751 Z M11.7589122,7.71240234 L11.7589122,12.3193109 L7.83233425,14.3970038 L7.83233425,9.79638611 L11.7589122,7.71240234 Z M12.2791412,17.5609882 L8.36122368,15.6556024 L12.4323343,13.5452289 L16.1970586,15.6556024 L12.2791412,17.5609882 Z" id="Shape" fill="#FFFFFF" fill-rule="nonzero" transform="translate(12.432334, 12.636695) rotate(-180.000000) translate(-12.432334, -12.636695) "></path>
                        </g>
                    </g>
                </g>
            </g>
        </g>
    </g>
</svg>