<?xml version="1.0" encoding="UTF-8"?>
<svg width="40px" height="40px" viewBox="0 0 40 40" version="1.1" xmlns="http://www.w3.org/2000/svg" xmlns:xlink="http://www.w3.org/1999/xlink">
    <!-- Generator: sketchtool 61.2 (101010) - https://sketch.com -->
    <title>BD49813C-0DF3-4AC6-95E6-75E9AE4947C5@3.00x</title>
    <desc>Created with sketchtool.</desc>
    <g id="web-v2.0" stroke="none" stroke-width="1" fill="none" fill-rule="evenodd">
        <g id="2.0.원격협업-화면_GNB소스-정리" transform="translate(-1712.000000, -276.000000)">
            <g id="gnb*2" transform="translate(30.000000, 268.000000)">
                <g id="gnb_ic_notifi_nor" transform="translate(1682.000000, 8.000000)">
                    <rect x="0" y="0" width="40" height="40"></rect>
                    <path d="M19,30.5 C20.1,30.5 21,29.6 21,28.5 L17,28.5 C17,29.6 17.89,30.5 19,30.5 Z M25,24.5 L25,19.5 C25,16.43 23.36,13.86 20.5,13.18 L20.5,12.5 C20.5,11.67 19.83,11 19,11 C18.17,11 17.5,11.67 17.5,12.5 L17.5,13.18 C14.63,13.86 13,16.42 13,19.5 L13,24.5 L11,26.5 L11,27.5 L27,27.5 L27,26.5 L25,24.5 Z" id="Shape" fill="#FFFFFF" fill-rule="nonzero"></path>
                </g>
            </g>
        </g>
    </g>
</svg>