<?xml version="1.0" encoding="UTF-8"?>
<svg width="14px" height="14px" viewBox="0 0 14 14" version="1.1" xmlns="http://www.w3.org/2000/svg" xmlns:xlink="http://www.w3.org/1999/xlink">
    <!-- Generator: sketchtool 61.2 (101010) - https://sketch.com -->
    <title>8B1DE4B8-E3FC-4D7B-B56F-4143044B7CC5@3.00x</title>
    <desc>Created with sketchtool.</desc>
    <g id="web-v2.0" stroke="none" stroke-width="1" fill="none" fill-rule="evenodd">
        <g id="2.0.원격협업-화면_전체" transform="translate(-1588.000000, -693.000000)">
            <g id="message" transform="translate(1560.000000, 56.000000)">
                <g id="texting-area">
                    <g id="notifi02" transform="translate(28.000000, 632.000000)">
                        <g id="chat_ic_ppl" transform="translate(0.000000, 5.000000)">
                            <rect opacity="0.4" x="0" y="0" width="14" height="14"></rect>
                            <path d="M7,7 C8.6575,7 10,5.6575 10,4 C10,2.3425 8.6575,1 7,1 C5.3425,1 4,2.3425 4,4 C4,5.6575 5.3425,7 7,7 Z M7,8.5 C4.9975,8.5 1,9.505 1,11.5 L1,13 L13,13 L13,11.5 C13,9.505 9.0025,8.5 7,8.5 Z" id="Shape" fill="#FFFFFF" fill-rule="nonzero" opacity="0.86"></path>
                        </g>
                    </g>
                </g>
            </g>
        </g>
    </g>
</svg>