<?xml version="1.0" encoding="UTF-8"?>
<svg width="14px" height="14px" viewBox="0 0 14 14" version="1.1" xmlns="http://www.w3.org/2000/svg" xmlns:xlink="http://www.w3.org/1999/xlink">
    <title>38569B71-DAE5-42E5-AF20-3112B1DA0F71@1.00x</title>
    <defs>
        <path d="M12.6803943,6.6588203 L11.7584712,5.73689722 L9.4307789,8.05805107 L10.352702,8.97997415 C10.352702,8.97997415 12.6084712,6.67843568 12.6803943,6.6588203 Z M6.96199546,3.87343568 L8.26968777,3.87343568 L8.26968777,7.14266645 L6.96199546,7.14266645 L6.96199546,3.87343568 Z M14.233628,10.0849741 L14.233628,11.3926665 L10.9643972,11.3926665 L10.9643972,10.0849741 L14.233628,10.0849741 Z M4.42593568,10.0849741 L4.42593568,11.3926665 L1.15670492,11.3926665 L1.15670492,10.0849741 L4.42593568,10.0849741 Z M4.87898125,8.97997415 L5.80090433,8.05805107 L3.47975048,5.73035876 L2.55128894,6.6588203 C2.62321202,6.67843568 4.87898125,8.97997415 4.87898125,8.97997415 L4.87898125,8.97997415 Z" id="path-1"></path>
    </defs>
    <g id="N:N-Web" stroke="none" stroke-width="1" fill="none" fill-rule="evenodd" opacity="0.900000036">
        <g id="RNN_0200_서비스-화면_참가자-기본-기능" transform="translate(-1622.000000, -515.000000)">
            <g id="message" transform="translate(1560.000000, 56.000000)">
                <g id="Group-2" transform="translate(15.000000, 114.000000)">
                    <g id="icn_pointing" transform="translate(44.000000, 342.000000)">
                        <rect id="tr14" opacity="0.4" x="3" y="3" width="14" height="14"></rect>
                        <g>
                            <path d="M16.7927092,12.280574 L9.63009242,9.18111997 C9.5016105,9.1267192 9.3527856,9.15508141 9.25400942,9.25385935 C9.15523325,9.3526373 9.12652984,9.50146485 9.18127134,9.62994908 L12.28067,16.7927622 C12.3350698,16.9192417 12.4592007,17 12.5950179,17 C12.6050185,17 12.6153837,16.9996583 12.6260449,16.9986559 C12.7735486,16.9853063 12.8956747,16.8781906 12.9283647,16.7336914 L13.6471573,13.6470858 L16.7336394,12.9282803 C16.8781361,12.895567 16.9852499,12.7734386 16.9985993,12.6259551 C17.0119486,12.4784716 16.9288682,12.3389615 16.7927092,12.280574 Z" id="Path" fill="#B6B6B7" fill-rule="nonzero"></path>
                            <mask id="mask-2" fill="white">
                                <use xlink:href="#path-1"></use>
                            </mask>
                            <use id="icon/communication/ring_volume_24px" fill="#C6C6C6" fill-rule="nonzero" transform="translate(7.695166, 7.633051) rotate(-405.000000) translate(-7.695166, -7.633051) " xlink:href="#path-1"></use>
                        </g>
                    </g>
                </g>
            </g>
        </g>
    </g>
</svg>