<?xml version="1.0" encoding="UTF-8"?>
<svg width="14px" height="14px" viewBox="0 0 14 14" version="1.1" xmlns="http://www.w3.org/2000/svg" xmlns:xlink="http://www.w3.org/1999/xlink">
    <title>A8BF5040-87C1-49FB-945E-5410E42D7BE5@1.00x</title>
    <defs>
        <path d="M0,10.1666667 L0,12 L1.90909091,12 C1.90909091,10.9855556 1.05636364,10.1666667 0,10.1666667 Z M0,7.72222222 L0,8.94444444 C1.75636364,8.94444444 3.18181818,10.3133333 3.18181818,12 L4.45454545,12 C4.45454545,9.635 2.46272727,7.72222222 0,7.72222222 Z M11.4545455,3.44444444 L2.54545455,3.44444444 L2.54545455,4.44055556 C5.06545455,5.22277778 7.05727273,7.13555556 7.87181818,9.55555556 L11.4545455,9.55555556 L11.4545455,3.44444444 Z M0,5.27777778 L0,6.5 C3.16272727,6.5 5.72727273,8.96277778 5.72727273,12 L7,12 C7,8.28444444 3.86272727,5.27777778 0,5.27777778 Z M12.7272727,1 L1.27272727,1 C0.572727273,1 0,1.55 0,2.22222222 L0,4.05555556 L1.27272727,4.05555556 L1.27272727,2.22222222 L12.7272727,2.22222222 L12.7272727,10.7777778 L8.27272727,10.7777778 L8.27272727,12 L12.7272727,12 C13.4272727,12 14,11.45 14,10.7777778 L14,2.22222222 C14,1.55 13.4272727,1 12.7272727,1 Z" id="path-1"></path>
    </defs>
    <g id="-" stroke="none" stroke-width="1" fill="none" fill-rule="evenodd" opacity="0.86">
        <g id="RNN_0200_서비스-화면_참가자-기본-기능-Copy-2" transform="translate(-1601.000000, -293.000000)">
            <g id="message" transform="translate(1560.000000, 56.000000)">
                <g id="Group-2" transform="translate(15.000000, 114.000000)">
                    <g id="notifi01" transform="translate(26.000000, 119.000000)">
                        <g id="icn" transform="translate(0.000000, 4.000000)">
                            <rect id="tr14" opacity="0.410109747" x="0" y="0" width="14" height="14"></rect>
                            <mask id="mask-2" fill="white">
                                <use xlink:href="#path-1"></use>
                            </mask>
                            <use id="icon/hardware/cast_connected_24px" fill="#E0E0E0" fill-rule="nonzero" xlink:href="#path-1"></use>
                        </g>
                    </g>
                </g>
            </g>
        </g>
    </g>
</svg>