<?xml version="1.0" encoding="UTF-8"?>
<svg width="14px" height="14px" viewBox="0 0 14 14" version="1.1" xmlns="http://www.w3.org/2000/svg" xmlns:xlink="http://www.w3.org/1999/xlink">
    <title>8974EDE1-26A9-474E-9B50-23B29264D64F@1.00x</title>
    <defs>
        <path d="M1.55555556,10.1111111 L0,10.1111111 L0,12.4444444 C0,13.3 0.7,14 1.55555556,14 L3.88888889,14 L3.88888889,12.4444444 L1.55555556,12.4444444 L1.55555556,10.1111111 Z M1.55555556,1.55555556 L3.88888889,1.55555556 L3.88888889,0 L1.55555556,0 C0.7,0 0,0.7 0,1.55555556 L0,3.88888889 L1.55555556,3.88888889 L1.55555556,1.55555556 Z M12.4444444,0 L10.1111111,0 L10.1111111,1.55555556 L12.4444444,1.55555556 L12.4444444,3.88888889 L14,3.88888889 L14,1.55555556 C14,0.7 13.3,0 12.4444444,0 Z M14,10.1111111 L14,12.4444444 C14,13.3 13.3,14 12.4444444,14 L12.4444444,14 L10.1111111,14 L10.1111111,12.4444444 L12.4444444,12.4444444 L12.4444444,10.1111111 L14,10.1111111 Z M8.55555556,4.66666667 L8.55555556,6.22222222 L10.8888889,4.66666667 L10.8888889,9.33333333 L8.55555556,7.77777778 L8.55555556,9.33333333 L3.11111111,9.33333333 L3.11111111,4.66666667 L8.55555556,4.66666667 Z" id="path-1"></path>
    </defs>
    <g id="N:N-Web" stroke="none" stroke-width="1" fill="none" fill-rule="evenodd" opacity="0.900000036">
        <g id="RNN_0200_서비스-화면_참가자-기본-기능" transform="translate(-1601.000000, -663.000000)">
            <g id="message" transform="translate(1560.000000, 56.000000)">
                <g id="Group-2" transform="translate(15.000000, 114.000000)">
                    <g id="notifi06" transform="translate(26.000000, 490.000000)">
                        <g id="icon_local_rec" transform="translate(0.000000, 3.000000)">
                            <rect id="tr14" opacity="0.4" x="0" y="0" width="14" height="14"></rect>
                            <mask id="mask-2" fill="white">
                                <use xlink:href="#path-1"></use>
                            </mask>
                            <use fill="#A8A8AA" fill-rule="nonzero" xlink:href="#path-1"></use>
                        </g>
                    </g>
                </g>
            </g>
        </g>
    </g>
</svg>