<?xml version="1.0" encoding="UTF-8"?>
<svg width="14px" height="14px" viewBox="0 0 14 14" version="1.1" xmlns="http://www.w3.org/2000/svg" xmlns:xlink="http://www.w3.org/1999/xlink">
    <title>17D2C833-E17C-4C13-B7DD-89739E25ED90@1.00x</title>
    <defs>
        <path d="M7,1 C3.682,1 1,3.682 1,7 C1,10.318 3.682,13 7,13 C10.318,13 13,10.318 13,7 C13,3.682 10.318,1 7,1 Z M10,9.154 L9.154,10 L7,7.846 L4.846,10 L4,9.154 L6.154,7 L4,4.846 L4.846,4 L7,6.154 L9.154,4 L10,4.846 L7.846,7 L10,9.154 Z" id="path-1"></path>
    </defs>
    <g id="Remote_part02" stroke="none" stroke-width="1" fill="none" fill-rule="evenodd" opacity="0.900000036">
        <g id="2.0.원격협업-화면_GNB소스-정리_02" transform="translate(-819.000000, -414.000000)">
            <g id="message" transform="translate(773.000000, 28.000000)">
                <g id="texting-area">
                    <g id="notifi04" transform="translate(46.000000, 382.000000)">
                        <g id="Group-10">
                            <g id="chat_ic_ppl" transform="translate(0.000000, 4.000000)">
                                <rect id="tr14" opacity="0.4" x="0" y="0" width="14" height="14"></rect>
                                <mask id="mask-2" fill="white">
                                    <use xlink:href="#path-1"></use>
                                </mask>
                                <use id="icon/navigation/cancel_24px" fill="#E0E0E0" fill-rule="nonzero" xlink:href="#path-1"></use>
                            </g>
                        </g>
                    </g>
                </g>
            </g>
        </g>
    </g>
</svg>