<?xml version="1.0" encoding="UTF-8"?>
<svg width="14px" height="14px" viewBox="0 0 14 14" version="1.1" xmlns="http://www.w3.org/2000/svg" xmlns:xlink="http://www.w3.org/1999/xlink">
    <title>D5F42AC2-C55D-4B29-BE2D-BC3210850DA3@1x</title>
    <defs>
        <path d="M3.18181818,12.0909091 L10.8181818,12.0909091 L7,8.27272727 L3.18181818,12.0909091 Z M12.7272727,0 L1.27272727,0 C0.572727273,0 0,0.572727273 0,1.27272727 L0,8.90909091 C0,9.60909091 0.572727273,10.1818182 1.27272727,10.1818182 L3.81818182,10.1818182 L3.81818182,8.90909091 L1.27272727,8.90909091 L1.27272727,1.27272727 L12.7272727,1.27272727 L12.7272727,8.90909091 L10.1818182,8.90909091 L10.1818182,10.1818182 L12.7272727,10.1818182 C13.4272727,10.1818182 14,9.60909091 14,8.90909091 L14,1.27272727 C14,0.572727273 13.4272727,0 12.7272727,0 Z" id="path-1"></path>
    </defs>
    <g id="Remote_Cowork_Leader" stroke="none" stroke-width="1" fill="none" fill-rule="evenodd">
        <g id="PCV_0001-_PC-화면-공유-송신자-화면_리더-권한-" transform="translate(-1625.000000, -287.000000)">
            <g id="message" transform="translate(1560.000000, 56.000000)">
                <g id="Group-2" transform="translate(15.000000, 114.000000)">
                    <g id="notifi02" transform="translate(50.000000, 113.000000)">
                        <g id="icon_airplay" transform="translate(0.000000, 4.000000)">
                            <rect id="tr14" opacity="0.410109747" x="0" y="0" width="14" height="14"></rect>
                            <g id="icon/av/airplay_24px-2" transform="translate(0.000000, 1.000000)">
                                <mask id="mask-2" fill="white">
                                    <use xlink:href="#path-1"></use>
                                </mask>
                                <use id="icon/av/airplay_24px" fill="#E0E0E0" fill-rule="nonzero" xlink:href="#path-1"></use>
                            </g>
                        </g>
                    </g>
                </g>
            </g>
        </g>
    </g>
</svg>