<?xml version="1.0" encoding="UTF-8"?>
<svg width="24px" height="24px" viewBox="0 0 24 24" version="1.1" xmlns="http://www.w3.org/2000/svg" xmlns:xlink="http://www.w3.org/1999/xlink">
    <title>EBB19291-B5C6-4D92-B8CB-0CE4B6050EB5@1x</title>
    <defs>
        <path d="M14.7,4 L16.347,5.77777778 L19.2,5.77777778 C20.19,5.77777778 21,6.57777778 21,7.55555556 L21,7.55555556 L21,18.2222222 C21,19.2 20.19,20 19.2,20 L19.2,20 L4.8,20 C3.81,20 3,19.2 3,18.2222222 L3,18.2222222 L3,7.55555556 C3,6.57777778 3.81,5.77777778 4.8,5.77777778 L4.8,5.77777778 L7.653,5.77777778 L9.3,4 L14.7,4 Z M12,7.71645983 C9.08198134,7.71645983 6.71645983,10.0819813 6.71645983,13 C6.71645983,15.9180187 9.08198134,18.2835402 12,18.2835402 C14.9180187,18.2835402 17.2835402,15.9180187 17.2835402,13 C17.2835402,10.0819813 14.9180187,7.71645983 12,7.71645983 Z M12.7573613,9.34194489 L12.9845697,10.4393614 C13.2875142,10.5491031 13.5601643,10.7027414 13.8025199,10.9002764 L13.8025199,10.9002764 L14.9006938,10.541787 L15.6580551,11.807474 L14.7946632,12.5390851 C14.8552521,12.9048906 14.8552521,13.0951094 14.7946632,13.4682311 L14.7946632,13.4682311 L15.6580551,14.1998421 L14.9006938,15.4655291 L13.8025199,15.1070397 C13.5601643,15.3045747 13.2875142,15.458213 12.9845697,15.5679547 L12.9845697,15.5679547 L12.7573613,16.6580551 L11.2426387,16.6580551 L11.0154303,15.5533225 C10.7124858,15.4435808 10.4398357,15.2899425 10.1974801,15.0924075 L10.1974801,15.0924075 L9.0993062,15.4508969 L8.34194489,14.1852099 L9.20533678,13.4535988 C9.14474788,13.0877933 9.14474788,12.8975745 9.20533678,12.5317689 L9.20533678,12.5317689 L8.34194489,11.8001579 L9.0993062,10.5344709 L10.1974801,10.8929603 C10.4398357,10.6954253 10.7124858,10.541787 11.0154303,10.4320453 L11.0154303,10.4320453 L11.2426387,9.34194489 L12.7573613,9.34194489 Z M12,11.4185554 C11.1302055,11.4185554 10.4185554,12.1302055 10.4185554,13 C10.4185554,13.8697945 11.1302055,14.5814446 12,14.5814446 C12.8697945,14.5814446 13.5814446,13.8697945 13.5814446,13 C13.5814446,12.1302055 12.8697945,11.4185554 12,11.4185554 Z" id="path-1"></path>
    </defs>
    <g id="Remote_Cowork_Leader" stroke="none" stroke-width="1" fill="none" fill-rule="evenodd">
        <g id="OVE_0020-_영상-제한-모드_참가자-권한-_2" transform="translate(-196.000000, -953.000000)">
            <g id="frame_list" transform="translate(189.000000, 915.000000)">
                <g id="Group-6" transform="translate(0.000000, 31.000000)">
                    <g id="Group-13" transform="translate(7.000000, 7.000000)">
                        <rect id="tr" x="0" y="0" width="24" height="24"></rect>
                        <mask id="mask-2" fill="white">
                            <use xlink:href="#path-1"></use>
                        </mask>
                        <use id="icon/image/photo_camera_24px" fill="#FFFFFF" fill-rule="nonzero" xlink:href="#path-1"></use>
                    </g>
                </g>
            </g>
        </g>
    </g>
</svg>