<?xml version="1.0" encoding="UTF-8"?>
<svg width="24px" height="24px" viewBox="0 0 24 24" version="1.1" xmlns="http://www.w3.org/2000/svg" xmlns:xlink="http://www.w3.org/1999/xlink">
    <title>F5032FC2-E352-4504-A9B6-F9A0C7338764@1x</title>
    <defs>
        <path d="M3,17.1428571 L6.85714286,17.1428571 L6.85714286,21 L9.42857143,21 L9.42857143,14.5714286 L3,14.5714286 L3,17.1428571 Z M6.85714286,6.85714286 L3,6.85714286 L3,9.42857143 L9.42857143,9.42857143 L9.42857143,3 L6.85714286,3 L6.85714286,6.85714286 Z M14.5714286,21 L17.1428571,21 L17.1428571,17.1428571 L21,17.1428571 L21,14.5714286 L14.5714286,14.5714286 L14.5714286,21 Z M17.1428571,6.85714286 L17.1428571,3 L14.5714286,3 L14.5714286,9.42857143 L21,9.42857143 L21,6.85714286 L17.1428571,6.85714286 Z" id="path-1"></path>
    </defs>
    <g id="Open-Room" stroke="none" stroke-width="1" fill="none" fill-rule="evenodd">
        <g id="TWO_0041-_협업-접속_오픈-방-접속_2" transform="translate(-1513.000000, -978.000000)">
            <g id="frame_imgs" transform="translate(0.000000, 149.000000)">
                <g id="btn_framesettings" transform="translate(0.000000, 754.000000)">
                    <g id="media_icon" transform="translate(740.000000, 62.000000)">
                        <g id="icn_Fullscreen" transform="translate(760.000000, 0.000000)">
                            <g transform="translate(13.000000, 13.000000)">
                                <rect id="tr" x="0" y="0" width="24" height="24"></rect>
                                <mask id="mask-2" fill="white">
                                    <use xlink:href="#path-1"></use>
                                </mask>
                                <use id="icon/navigation/fullscreen_exit_24px" fill="#FFFFFF" fill-rule="nonzero" xlink:href="#path-1"></use>
                            </g>
                        </g>
                    </g>
                </g>
            </g>
        </g>
    </g>
</svg>