<?xml version="1.0" encoding="UTF-8"?>
<svg width="36px" height="36px" viewBox="0 0 36 36" version="1.1" xmlns="http://www.w3.org/2000/svg" xmlns:xlink="http://www.w3.org/1999/xlink">
    <title>FB366E31-B8E8-42E0-AEFD-31187AC043D4@3x</title>
    <defs>
        <filter x="-9.1%" y="-14.5%" width="118.1%" height="129.0%" filterUnits="objectBoundingBox" id="filter-1">
            <feMorphology radius="0.5" operator="dilate" in="SourceAlpha" result="shadowSpreadOuter1"></feMorphology>
            <feOffset dx="0" dy="2" in="shadowSpreadOuter1" result="shadowOffsetOuter1"></feOffset>
            <feMorphology radius="1" operator="erode" in="SourceAlpha" result="shadowInner"></feMorphology>
            <feOffset dx="0" dy="2" in="shadowInner" result="shadowInner"></feOffset>
            <feComposite in="shadowOffsetOuter1" in2="shadowInner" operator="out" result="shadowOffsetOuter1"></feComposite>
            <feGaussianBlur stdDeviation="2.5" in="shadowOffsetOuter1" result="shadowBlurOuter1"></feGaussianBlur>
            <feColorMatrix values="0 0 0 0 0   0 0 0 0 0   0 0 0 0 0  0 0 0 0.07 0" type="matrix" in="shadowBlurOuter1" result="shadowMatrixOuter1"></feColorMatrix>
            <feMerge>
                <feMergeNode in="shadowMatrixOuter1"></feMergeNode>
                <feMergeNode in="SourceGraphic"></feMergeNode>
            </feMerge>
        </filter>
    </defs>
    <g id="Seat-맴버-접속" stroke="none" stroke-width="1" fill="none" fill-rule="evenodd">
        <g id="SEA_0020-_URL-초대-요청_1" transform="translate(-1047.000000, -936.000000)">
            <g id="frame_list_tag" transform="translate(415.000000, 915.000000)">
                <g id="btn_invit_ppl" filter="url(#filter-1)" transform="translate(570.000000, 0.000000)">
                    <g id="ic_share" transform="translate(62.000000, 21.000000)">
                        <rect id="smvideo_ic_addppl" opacity="0.11761" fill-rule="nonzero" x="0" y="0" width="36" height="36" rx="2.52631579"></rect>
                        <g id="share_black_24dp" transform="translate(4.000000, 4.000000)">
                            <polygon id="Path" points="0 0 28 0 28 28 0 28"></polygon>
                            <path d="M21,18.76 C20.1133333,18.76 19.32,19.11 18.7133333,19.6583333 L10.395,14.8166667 C10.4533333,14.5483333 10.5,14.28 10.5,14 C10.5,13.72 10.4533333,13.4516667 10.395,13.1833333 L18.62,8.38833333 C19.25,8.97166667 20.0783333,9.33333333 21,9.33333333 C22.9366667,9.33333333 24.5,7.77 24.5,5.83333333 C24.5,3.89666667 22.9366667,2.33333333 21,2.33333333 C19.0633333,2.33333333 17.5,3.89666667 17.5,5.83333333 C17.5,6.11333333 17.5466667,6.38166667 17.605,6.65 L9.38,11.445 C8.75,10.8616667 7.92166667,10.5 7,10.5 C5.06333333,10.5 3.5,12.0633333 3.5,14 C3.5,15.9366667 5.06333333,17.5 7,17.5 C7.92166667,17.5 8.75,17.1383333 9.38,16.555 L17.6866667,21.4083333 C17.6283333,21.6533333 17.5933333,21.91 17.5933333,22.1666667 C17.5933333,24.045 19.1216667,25.5733333 21,25.5733333 C22.8783333,25.5733333 24.4066667,24.045 24.4066667,22.1666667 C24.4066667,20.2883333 22.8783333,18.76 21,18.76 Z" id="Path" fill="#FFFFFF" fill-rule="nonzero"></path>
                        </g>
                    </g>
                </g>
            </g>
        </g>
    </g>
</svg>