<?xml version="1.0" encoding="UTF-8"?>
<svg width="50px" height="50px" viewBox="0 0 50 50" version="1.1" xmlns="http://www.w3.org/2000/svg" xmlns:xlink="http://www.w3.org/1999/xlink">
    <title>DADF8407-9699-4F68-9C93-C7164D6BF70A@1x</title>
    <g id="symbol" stroke="none" stroke-width="1" fill="none" fill-rule="evenodd">
        <g id="edit-tool_sharing" transform="translate(-175.000000, 0.000000)">
            <g id="on" transform="translate(175.000000, 0.000000)">
                <polygon id="icn_mic_on" opacity="0.300000012" points="0 0 50 0 50 50 0 50"></polygon>
                <g id="Group" transform="translate(17.000000, 14.000000)" fill="#FFFFFF" fill-rule="nonzero">
                    <path d="M8.20131303,9.76996262e-15 C3.94906108,9.76996262e-15 0.402484905,3.42533984 0.402484905,7.79882813 C0.402484905,9.46267266 0.902460686,10.9463406 1.86200014,12.3366117 L7.60448998,21.2972289 C7.88307358,21.7328289 8.52011967,21.7319781 8.79813608,21.2972289 L14.5655349,12.3061254 C15.5044193,10.9788594 16.0001412,9.42036992 16.0001412,7.79882813 C16.0001412,3.4985543 12.5015869,9.76996262e-15 8.20131303,9.76996262e-15 Z M8.20131303,11.34375 C6.24673764,11.34375 4.65639115,9.75340352 4.65639115,7.79882813 C4.65639115,5.84425273 6.24673764,4.25390625 8.20131303,4.25390625 C10.1558884,4.25390625 11.7462349,5.84425273 11.7462349,7.79882813 C11.7462349,9.75340352 10.1558884,11.34375 8.20131303,11.34375 Z" id="Shape"></path>
                </g>
            </g>
        </g>
    </g>
</svg>