<?xml version="1.0" encoding="UTF-8"?>
<svg width="50px" height="50px" viewBox="0 0 50 50" version="1.1" xmlns="http://www.w3.org/2000/svg" xmlns:xlink="http://www.w3.org/1999/xlink">
    <title>EDE14EB3-A48A-43AB-9E6B-77A431C5B696@1x</title>
    <defs>
        <path d="M2,0 L148,0 C149.104569,-2.02906125e-16 150,0.8954305 150,2 L150,48 C150,49.1045695 149.104569,50 148,50 L2,50 C0.8954305,50 1.3527075e-16,49.1045695 0,48 L0,2 C-1.3527075e-16,0.8954305 0.8954305,2.02906125e-16 2,0 Z" id="path-1"></path>
        <filter x="-10.0%" y="-18.0%" width="120.0%" height="160.0%" filterUnits="objectBoundingBox" id="filter-2">
            <feOffset dx="0" dy="6" in="SourceAlpha" result="shadowOffsetOuter1"></feOffset>
            <feGaussianBlur stdDeviation="4" in="shadowOffsetOuter1" result="shadowBlurOuter1"></feGaussianBlur>
            <feComposite in="shadowBlurOuter1" in2="SourceAlpha" operator="out" result="shadowBlurOuter1"></feComposite>
            <feColorMatrix values="0 0 0 0 0   0 0 0 0 0   0 0 0 0 0  0 0 0 0.24 0" type="matrix" in="shadowBlurOuter1"></feColorMatrix>
        </filter>
    </defs>
    <g id="LINKFLOW" stroke="none" stroke-width="1" fill="none" fill-rule="evenodd">
        <g id="NEX_0300-_Fitt-영상-출력_Web_리더-권한-" transform="translate(-705.000000, -70.000000)">
            <rect id="bg_screen" fill="none" x="0" y="0" width="1920" height="1080"></rect>
            <g id="edit-tool" transform="translate(705.000000, 70.000000)">
                <g id="edit_bg">
                    <use fill="none" fill-opacity="1" filter="url(#filter-2)" xlink:href="#path-1"></use>
                    <path stroke-opacity="0.423076923" stroke="none" stroke-width="1" d="M148,0.5 C148.414214,0.5 148.789214,0.667893219 149.06066,0.939339828 C149.332107,1.21078644 149.5,1.58578644 149.5,2 L149.5,2 L149.5,48 C149.5,48.4142136 149.332107,48.7892136 149.06066,49.0606602 C148.789214,49.3321068 148.414214,49.5 148,49.5 L148,49.5 L2,49.5 C1.58578644,49.5 1.21078644,49.3321068 0.939339828,49.0606602 C0.667893219,48.7892136 0.5,48.4142136 0.5,48 L0.5,48 L0.5,2 C0.5,1.58578644 0.667893219,1.21078644 0.939339828,0.939339828 C1.21078644,0.667893219 1.58578644,0.5 2,0.5 L2,0.5 Z" stroke-linejoin="square" fill="none" fill-rule="evenodd"></path>
                </g>
                <g id="icn_move">
                    <polygon id="tr" opacity="0.300000012" points="0 0 50 0 50 50 0 50"></polygon>
                    <g id="move" transform="translate(14.000000, 14.000000)" fill="#FFFFFF" fill-rule="nonzero">
                        <path d="M14.0559878,2.81604472 L11.4202805,0.180337398 C11.3008008,0.0608577236 11.141435,-0.00031300813 10.9767033,1.43500325e-05 C10.8089309,-0.00156504065 10.6459878,0.0608577236 10.5265081,0.180337398 L7.9451748,2.76167073 C7.70335366,3.00349187 7.70335366,3.39663008 7.9451748,3.63827236 L8.27803659,3.97113415 C8.51145122,4.20454878 8.91889837,4.20454878 9.15249187,3.97113415 L10.1407033,2.98077642 L10.1407033,6.62007724 C10.1407033,6.63116667 10.1471423,6.64028862 10.1491098,6.6506626 C10.175939,6.96778455 10.4419065,7.21872764 10.7661829,7.21872764 L11.2365894,7.21872764 C11.5783943,7.21872764 11.8593862,6.94113415 11.8593862,6.59932927 L11.8593862,6.19295528 C11.8593862,6.19116667 11.8593862,6.18991463 11.8593862,6.18848374 L11.8593862,3.03479268 L12.8479553,4.02532927 C13.0897764,4.26715041 13.4820203,4.26715041 13.7236626,4.02532927 L14.0559878,3.6928252 C14.2978089,3.4508252 14.2978089,3.05750813 14.0559878,2.81604472 Z" id="Path"></path>
                        <path d="M14.0556301,18.3081585 L13.7229472,17.9747602 C13.4895325,17.7409878 13.0819065,17.7409878 12.8481341,17.9747602 L11.859565,18.9652967 L11.859565,15.8255569 C11.859565,15.8237683 11.859565,15.8226951 11.859565,15.8210854 L11.859565,15.4147114 C11.859565,15.0727276 11.5783943,14.7815407 11.2369472,14.7815407 L10.7661829,14.7815407 C10.4422642,14.7815407 10.1762967,15.0389228 10.1492886,15.3564024 C10.1473211,15.3669553 10.1408821,15.3830528 10.1408821,15.3939634 L10.1408821,19.0196707 L9.15267073,18.029313 C8.91907724,17.7957195 8.51073577,17.7957195 8.27714228,18.029313 L7.94445935,18.3621748 C7.70299593,18.6038171 7.70335366,18.9971341 7.9451748,19.2389553 L10.526687,21.8201098 C10.643126,21.9369065 10.7985569,22.0004024 10.9589959,22.0004024 L10.982248,22.0004024 C11.1484106,22.0004024 11.3034837,21.9370854 11.4201016,21.8201098 L14.0556301,19.1845813 C14.2974512,18.942939 14.2974512,18.5498008 14.0556301,18.3081585 Z" id="Path"></path>
                        <path d="M6.58439431,10.1406138 L6.53145122,10.1406138 L6.17605285,10.1406138 C6.17480081,10.1406138 6.17354878,10.1406138 6.17211789,10.1406138 L3.04740244,10.1406138 L4.03793902,9.15544309 C4.15473577,9.0388252 4.21894715,8.88571951 4.21894715,8.71991463 C4.21894715,8.55393089 4.15473577,8.39957317 4.03793902,8.28313415 L3.70507724,7.9509878 C3.4632561,7.70916667 3.06993902,7.70952439 2.82847561,7.95134553 L0.192768293,10.586874 C0.0732886179,10.7061748 0.00943495935,10.8662561 0.0126544715,11.0304512 C0.00925609756,11.2012642 0.0732886179,11.3611667 0.192768293,11.4806463 L2.77410163,14.0621585 C2.8950122,14.1830691 3.0536626,14.2435244 3.21249187,14.2435244 C3.37132114,14.2435244 3.52997154,14.1830691 3.65088211,14.0621585 L3.98356504,13.7294756 C4.10036179,13.6128577 4.16475203,13.4570691 4.16475203,13.2912642 C4.16475203,13.1252805 4.10054065,12.9678821 3.98356504,12.8514431 L2.99338618,11.8594756 L6.6031748,11.8594756 C6.61408537,11.8594756 6.63197154,11.8567927 6.64234553,11.8548252 C6.95964634,11.8279959 7.21881707,11.5656057 7.21881707,11.2415081 L7.21881707,10.7703862 C7.21881707,10.428939 6.92619919,10.1406138 6.58439431,10.1406138 Z" id="Path"></path>
                        <path d="M21.8075,10.5870528 L19.1717927,7.95170325 C18.9301504,7.70988211 18.5368333,7.70988211 18.2951911,7.95170325 L17.962687,8.28456504 C17.8458902,8.40100407 17.7815,8.55679268 17.7815,8.72259756 C17.7815,8.8885813 17.8457114,9.0388252 17.962687,9.15544309 L18.9530447,10.1406138 L15.8082967,10.1406138 C15.806687,10.1406138 15.805435,10.1406138 15.8040041,10.1406138 L15.3978089,10.1406138 C15.0560041,10.1406138 14.7816301,10.4287602 14.7816301,10.7703862 L14.7816301,11.2415081 C14.7816301,11.5656057 15.0304268,11.8276382 15.3479065,11.8546463 C15.3584593,11.8567927 15.3661504,11.8594756 15.3768821,11.8594756 L19.0072398,11.8594756 L18.0165244,12.8512642 C17.8999065,12.9677033 17.8355163,13.1247439 17.8355163,13.2901911 C17.8355163,13.4563537 17.8997276,13.6125 18.0165244,13.7291179 L18.349565,14.0619797 C18.4702967,14.1828902 18.6289472,14.2435244 18.7877764,14.2435244 C18.9466057,14.2435244 19.1050772,14.1830691 19.2259878,14.0621585 L21.8076789,11.4806463 C21.9268008,11.3615244 21.9906545,11.2014431 21.9877927,11.0370691 C21.9904756,10.8662561 21.926622,10.7061748 21.8075,10.5870528 Z" id="Path"></path>
                        <path d="M11.0004919,9.28028862 C10.0523455,9.28028862 9.28091463,10.0517195 9.28091463,11.0000447 C9.28091463,11.9481911 10.0523455,12.7198008 11.0004919,12.7198008 C11.9486382,12.7198008 12.720248,11.9481911 12.720248,11.0000447 C12.720248,10.0517195 11.9486382,9.28028862 11.0004919,9.28028862 Z" id="Path"></path>
                    </g>
                </g>
            </g>
        </g>
    </g>
</svg>