<?xml version="1.0" encoding="UTF-8"?>
<svg width="24px" height="24px" viewBox="0 0 24 24" version="1.1" xmlns="http://www.w3.org/2000/svg" xmlns:xlink="http://www.w3.org/1999/xlink">
    <title>D9CC89DA-01EA-4EC5-A15D-11D67ADDBF4E@2x</title>
    <g id="Seat-맴버-접속" stroke="none" stroke-width="1" fill="none" fill-rule="evenodd">
        <g id="SEA_0020-_URL-초대-요청_2" transform="translate(-714.000000, -569.000000)">
            <g id="popup" transform="translate(684.000000, 333.000000)">
                <g id="name" transform="translate(30.000000, 98.000000)">
                    <g id="icon_mail" transform="translate(0.000000, 138.000000)">
                        <polygon id="Path" points="0 0 24 0 24 24 0 24"></polygon>
                        <path d="M20,4 L4,4 C2.9,4 2.01,4.9 2.01,6 L2,18 C2,19.1 2.9,20 4,20 L20,20 C21.1,20 22,19.1 22,18 L22,6 C22,4.9 21.1,4 20,4 Z M20,8 L12,13 L4,8 L4,6 L12,11 L20,6 L20,8 Z" id="Shape" fill="#494A4C" fill-rule="nonzero"></path>
                    </g>
                </g>
            </g>
        </g>
    </g>
</svg>