<?xml version="1.0" encoding="UTF-8"?>
<svg width="28px" height="28px" viewBox="0 0 28 28" version="1.1" xmlns="http://www.w3.org/2000/svg" xmlns:xlink="http://www.w3.org/1999/xlink">
    <title>B34FA7BD-4932-49B7-B164-B0D9C4668F9F@1.00x</title>
    <defs>
        <path d="M21.4347826,9.91304348 L18.953913,9.91304348 L17.5217391,8.34782609 L12.826087,8.34782609 L12.826087,9.91304348 L16.8330435,9.91304348 L18.2652174,11.4782609 L21.4347826,11.4782609 L21.4347826,20.8695652 L8.91304348,20.8695652 L8.91304348,13.826087 L7.34782609,13.826087 L7.34782609,20.8695652 C7.34782609,21.7304348 8.05217391,22.4347826 8.91304348,22.4347826 L21.4347826,22.4347826 C22.2956522,22.4347826 23,21.7304348 23,20.8695652 L23,11.4782609 C23,10.6173913 22.2956522,9.91304348 21.4347826,9.91304348 Z M11.2608696,16.173913 C11.2608696,18.333913 13.013913,20.0869565 15.173913,20.0869565 C17.333913,20.0869565 19.0869565,18.333913 19.0869565,16.173913 C19.0869565,14.013913 17.333913,12.2608696 15.173913,12.2608696 C13.013913,12.2608696 11.2608696,14.013913 11.2608696,16.173913 Z M15.173913,13.826087 C16.4652174,13.826087 17.5217391,14.8826087 17.5217391,16.173913 C17.5217391,17.4652174 16.4652174,18.5217391 15.173913,18.5217391 C13.8826087,18.5217391 12.826087,17.4652174 12.826087,16.173913 C12.826087,14.8826087 13.8826087,13.826087 15.173913,13.826087 Z M8.91304348,9.91304348 L11.2608696,9.91304348 L11.2608696,8.34782609 L8.91304348,8.34782609 L8.91304348,6 L7.34782609,6 L7.34782609,8.34782609 L5,8.34782609 L5,9.91304348 L7.34782609,9.91304348 L7.34782609,12.2608696 L8.91304348,12.2608696 L8.91304348,9.91304348 Z" id="path-1"></path>
    </defs>
    <g id="Remote_part02" stroke="none" stroke-width="1" fill="none" fill-rule="evenodd" opacity="0.699999988">
        <g id="RWS_0102-_접속-화면_협업-공통-메뉴-_캡쳐(리더)" transform="translate(-1112.000000, -759.000000)">
            <g id="capture" transform="translate(1058.000000, 489.000000)">
                <g id="Group-5" transform="translate(12.000000, 261.000000)">
                    <g id="01">
                        <g id="Group" transform="translate(42.000000, 9.000000)">
                            <g id="icon_camera"></g>
                            <rect id="tr" x="0" y="0" width="28" height="28"></rect>
                            <mask id="mask-2" fill="white">
                                <use xlink:href="#path-1"></use>
                            </mask>
                            <use id="icon/image/add_a_photo_24px" fill="#FFFFFF" fill-rule="nonzero" xlink:href="#path-1"></use>
                        </g>
                    </g>
                </g>
            </g>
        </g>
    </g>
</svg>