<?xml version="1.0" encoding="UTF-8"?>
<svg width="32px" height="33px" viewBox="0 0 32 33" version="1.1" xmlns="http://www.w3.org/2000/svg" xmlns:xlink="http://www.w3.org/1999/xlink">
    <title>C20FA644-01D1-48D6-AAC0-2D78801295FE@1x</title>
    <defs>
        <path d="M12.6666667,10.4444444 L10.4444444,10.4444444 L10.4444444,12.6666667 L12.6666667,12.6666667 L12.6666667,10.4444444 L12.6666667,10.4444444 Z M12.6666667,14.8888889 L10.4444444,14.8888889 L10.4444444,17.1111111 L12.6666667,17.1111111 L12.6666667,14.8888889 L12.6666667,14.8888889 Z M12.6666667,6 C11.4333333,6 10.4444444,7 10.4444444,8.22222222 L12.6666667,8.22222222 L12.6666667,6 L12.6666667,6 Z M17.1111111,19.3333333 L14.8888889,19.3333333 L14.8888889,21.5555556 L17.1111111,21.5555556 L17.1111111,19.3333333 L17.1111111,19.3333333 Z M23.7777778,6 L23.7777778,8.22222222 L26,8.22222222 C26,7 25,6 23.7777778,6 L23.7777778,6 Z M17.1111111,6 L14.8888889,6 L14.8888889,8.22222222 L17.1111111,8.22222222 L17.1111111,6 L17.1111111,6 Z M12.6666667,21.5555556 L12.6666667,19.3333333 L10.4444444,19.3333333 C10.4444444,20.5555556 11.4333333,21.5555556 12.6666667,21.5555556 L12.6666667,21.5555556 Z M23.7777778,17.1111111 L26,17.1111111 L26,14.8888889 L23.7777778,14.8888889 L23.7777778,17.1111111 L23.7777778,17.1111111 Z M23.7777778,12.6666667 L26,12.6666667 L26,10.4444444 L23.7777778,10.4444444 L23.7777778,12.6666667 L23.7777778,12.6666667 Z M23.7777778,21.5555556 C25,21.5555556 26,20.5555556 26,19.3333333 L23.7777778,19.3333333 L23.7777778,21.5555556 L23.7777778,21.5555556 Z M8.22222222,10.4444444 L6,10.4444444 L6,23.7777778 C6,25 6.98888889,26 8.22222222,26 L21.5555556,26 L21.5555556,23.7777778 L8.22222222,23.7777778 L8.22222222,10.4444444 L8.22222222,10.4444444 Z M19.3333333,8.22222222 L21.5555556,8.22222222 L21.5555556,6 L19.3333333,6 L19.3333333,8.22222222 L19.3333333,8.22222222 Z M19.3333333,21.5555556 L21.5555556,21.5555556 L21.5555556,19.3333333 L19.3333333,19.3333333 L19.3333333,21.5555556 L19.3333333,21.5555556 Z" id="path-1"></path>
        <filter x="-35.0%" y="-25.0%" width="170.0%" height="170.0%" filterUnits="objectBoundingBox" id="filter-3">
            <feOffset dx="0" dy="2" in="SourceAlpha" result="shadowOffsetOuter1"></feOffset>
            <feGaussianBlur stdDeviation="2" in="shadowOffsetOuter1" result="shadowBlurOuter1"></feGaussianBlur>
            <feColorMatrix values="0 0 0 0 0   0 0 0 0 0   0 0 0 0 0  0 0 0 0.5 0" type="matrix" in="shadowBlurOuter1"></feColorMatrix>
        </filter>
    </defs>
    <g id="Remote_Cowork" stroke="none" stroke-width="1" fill="none" fill-rule="evenodd">
        <g id="3CI_0012-_3D-콘텐츠-제어-패널_리더-화면-_X,Z,Y-이동-버튼" transform="translate(-1169.000000, -755.000000)">
            <g id="content-control-panel" transform="translate(1149.000000, 506.000000)">
                <g id="ic_scale" transform="translate(20.000000, 249.000000)">
                    <polygon id="tr" points="0 0 32 0 32 32 0 32"></polygon>
                    <mask id="mask-2" fill="white">
                        <use xlink:href="#path-1"></use>
                    </mask>
                    <g id="Mask">
                        <use fill="black" fill-opacity="1" filter="url(#filter-3)" xlink:href="#path-1"></use>
                        <use fill="#FFFFFF" fill-rule="evenodd" xlink:href="#path-1"></use>
                    </g>
                </g>
            </g>
        </g>
    </g>
</svg>