<?xml version="1.0" encoding="UTF-8"?>
<svg width="16px" height="16px" viewBox="0 0 16 16" version="1.1" xmlns="http://www.w3.org/2000/svg" xmlns:xlink="http://www.w3.org/1999/xlink">
    <!-- Generator: sketchtool 61.2 (101010) - https://sketch.com -->
    <title>878CACA5-FD36-457B-808F-301F7F90FB61@3.00x</title>
    <desc>Created with sketchtool.</desc>
    <g id="web-v2.0" stroke="none" stroke-width="1" fill="none" fill-rule="evenodd">
        <g id="2.0.원격협업-화면_전체" transform="translate(-1355.000000, -849.000000)">
            <g id="frame_imgs" transform="translate(110.000000, 134.000000)">
                <g id="btn_framesettings" transform="translate(1233.000000, 708.000000)">
                    <g id="ic_setting" transform="translate(12.000000, 7.000000)">
                        <polygon points="0 0 16 0 16 16 0 16"></polygon>
                        <path d="M12.5803422,8.585 C12.6050091,8.393 12.6235093,8.198 12.6235093,8 C12.6235093,7.802 12.6050091,7.607 12.5803422,7.415 L13.8846065,6.422 C14.0017745,6.332 14.0356915,6.17 13.9586074,6.038 L12.7252604,3.959 C12.6481762,3.83 12.4878411,3.776 12.3490896,3.83 L10.8135727,4.433 C10.4959858,4.196 10.1475653,3.995 9.77139453,3.842 L9.54014198,2.252 C9.51239167,2.111 9.38597361,2 9.23180525,2 L6.76511139,2 C6.61094302,2 6.48452496,2.111 6.45985802,2.252 L6.22860547,3.842 C5.85243466,3.995 5.50401415,4.193 5.18642732,4.433 L3.65091039,3.83 C3.51215886,3.779 3.35182376,3.83 3.27473958,3.959 L2.04139265,6.038 C1.96430846,6.167 1.9982255,6.329 2.11539346,6.422 L3.41657447,7.415 C3.39190754,7.607 3.37340733,7.802 3.37340733,8 C3.37340733,8.198 3.39190754,8.393 3.41657447,8.585 L2.11539346,9.578 C1.9982255,9.668 1.96430846,9.83 2.04139265,9.962 L3.27473958,12.041 C3.35182376,12.17 3.51215886,12.224 3.65091039,12.17 L5.18642732,11.567 C5.50401415,11.804 5.85243466,12.005 6.22860547,12.158 L6.45985802,13.748 C6.48452496,13.889 6.61094302,14 6.76511139,14 L9.23180525,14 C9.38597361,14 9.51239167,13.889 9.53705861,13.748 L9.76831116,12.158 C10.144482,12.005 10.4929025,11.807 10.8104893,11.567 L12.3460062,12.17 C12.4847578,12.221 12.6450929,12.17 12.7221771,12.041 L13.955524,9.962 C14.0326082,9.833 13.9986911,9.671 13.8815232,9.578 L12.5803422,8.585 L12.5803422,8.585 Z M7.99845832,10.1 C6.80519516,10.1 5.84010119,9.161 5.84010119,8 C5.84010119,6.839 6.80519516,5.9 7.99845832,5.9 C9.19172147,5.9 10.1568154,6.839 10.1568154,8 C10.1568154,9.161 9.19172147,10.1 7.99845832,10.1 Z" id="Shape" fill="#FFFFFF" fill-rule="nonzero"></path>
                    </g>
                </g>
            </g>
        </g>
    </g>
</svg>