<?xml version="1.0" encoding="UTF-8"?>
<svg width="30px" height="30px" viewBox="0 0 30 30" version="1.1" xmlns="http://www.w3.org/2000/svg" xmlns:xlink="http://www.w3.org/1999/xlink">
    <title>6962197D-20F5-4F2D-9CDD-5854D858F025@1x</title>
    <defs>
        <path d="M15.2,17.6421053 C17.0971429,17.6421053 18.6285714,16.1187368 18.6285714,14.2315789 L18.6285714,7.41052632 C18.6285714,5.52336842 17.0971429,4 15.2,4 C13.3028571,4 11.7714286,5.52336842 11.7714286,7.41052632 L11.7714286,14.2315789 C11.7714286,16.1187368 13.3028571,17.6421053 15.2,17.6421053 Z M20.9142857,14.2315789 C20.9142857,17.3692632 18.3542857,19.9157895 15.2,19.9157895 C12.0457143,19.9157895 9.48571429,17.3692632 9.48571429,14.2315789 L7.2,14.2315789 C7.2,18.2446316 10.1828571,21.5414737 14.0571429,22.0985263 L14.0571429,25.6 L16.3428571,25.6 L16.3428571,22.0985263 C20.2171429,21.5414737 23.2,18.2446316 23.2,14.2315789 L20.9142857,14.2315789 Z" id="path-1"></path>
    </defs>
    <g id="V2.2-update" stroke="none" stroke-width="1" fill="none" fill-rule="evenodd">
        <g id="RTT_0131-_STT_스트리밍-방식-" transform="translate(-1237.000000, -1092.000000)">
            <g id="message-copy-4" transform="translate(1200.000000, 122.000000)">
                <g id="rec" transform="translate(1.000000, 918.000000)">
                    <g id="icon" transform="translate(24.000000, 40.000000)">
                        <g id="icon_rec" transform="translate(12.000000, 12.000000)">
                            <rect id="tr" x="0" y="0" width="30" height="30"></rect>
                            <mask id="mask-2" fill="white">
                                <use xlink:href="#path-1"></use>
                            </mask>
                            <use id="icon/av/mic_24px" fill="#FFFFFF" fill-rule="nonzero" xlink:href="#path-1"></use>
                        </g>
                    </g>
                </g>
            </g>
        </g>
    </g>
</svg>