<?xml version="1.0" encoding="UTF-8"?>
<svg width="50px" height="50px" viewBox="0 0 50 50" version="1.1" xmlns="http://www.w3.org/2000/svg" xmlns:xlink="http://www.w3.org/1999/xlink">
    <title>A1F62DDF-8D10-4D06-B5B8-692F3307DC32@1x</title>
    <defs>
        <path d="M20.99,0.308233374 L2.99,0.308233374 C1.89,0.308233374 0.99,1.20823337 0.99,2.30823337 L0.99,14.3082334 C0.99,15.4082334 1.89,16.3082334 2.99,16.3082334 L9.99,16.3082334 L9.99,18.3082334 L8.49,18.3082334 C8.21385763,18.3082334 7.99,18.532091 7.99,18.8082334 L7.99,19.8082334 C7.99,20.0843757 8.21385763,20.3082334 8.49,20.3082334 L15.49,20.3082334 C15.7661424,20.3082334 15.99,20.0843757 15.99,19.8082334 L15.99,18.8082334 C15.99,18.532091 15.7661424,18.3082334 15.49,18.3082334 L13.99,18.3082334 L13.99,18.3082334 L13.99,16.3082334 L20.99,16.3082334 C22.09,16.3082334 22.99,15.4082334 22.99,14.3082334 L22.99,2.30823337 C22.99,1.20823337 22.09,0.308233374 20.99,0.308233374 Z M20.99,14.3082334 L2.99,14.3082334 L2.99,2.30823337 L20.99,2.30823337 L20.99,14.3082334 Z" id="path-1"></path>
    </defs>
    <g id="symbol" stroke="none" stroke-width="1" fill="none" fill-rule="evenodd">
        <g id="edit-tool_sharing" transform="translate(-125.000000, 0.000000)">
            <g id="on" transform="translate(125.000000, 0.000000)">
                <polygon id="icn_mic_on" opacity="0.300000012" points="4.01456646e-13 2.48689958e-14 50 2.48689958e-14 50 50 4.01456646e-13 50"></polygon>
                <g id="Group-3" transform="translate(13.010000, 14.691767)">
                    <mask id="mask-2" fill="white">
                        <use xlink:href="#path-1"></use>
                    </mask>
                    <use id="icon/hardware/desktop_windows_24px" fill="#FFFFFF" fill-rule="nonzero" xlink:href="#path-1"></use>
                </g>
            </g>
        </g>
    </g>
</svg>