<?xml version="1.0" encoding="UTF-8"?>
<svg width="51px" height="50px" viewBox="0 0 51 50" version="1.1" xmlns="http://www.w3.org/2000/svg" xmlns:xlink="http://www.w3.org/1999/xlink">
    <title>E97E0A0F-E30D-4C17-927A-C446CEB9CC7E@1x</title>
    <defs>
        <path d="M1.05644661,1.34421501 L0.353553391,2.04710823 C0.158291245,2.24237038 0.158291245,2.55895287 0.353553391,2.75421501 L0.99,3.39066162 L0.99,3.39066162 L0.99,15.3006616 C0.99,16.4006616 1.89,17.3006616 2.99,17.3006616 L10,17.3006616 L10,19.3006616 L8.5,19.3006616 C8.22385763,19.3006616 8,19.5245192 8,19.8006616 L8,20.8006616 C8,21.076804 8.22385763,21.3006616 8.5,21.3006616 L15.5,21.3006616 C15.7761424,21.3006616 16,21.076804 16,20.8006616 L16,19.8006616 C16,19.5245192 15.7761424,19.3006616 15.5,19.3006616 L14,19.3006616 L14,19.3006616 L14,17.3006616 L14.9,17.3006616 L20.5464466,22.9471082 C20.7417088,23.1423704 21.0582912,23.1423704 21.2535534,22.9471082 L21.9564466,22.244215 C22.1517088,22.0489529 22.1517088,21.7323704 21.9564466,21.5371082 L1.76355339,1.34421501 C1.56829124,1.14895287 1.25170876,1.14895287 1.05644661,1.34421501 Z M2.99,15.3006616 L2.99,5.39066162 L12.9,15.3006616 L2.99,15.3006616 Z M4.55,1.30066162 L6.55,3.30066162 L20.99,3.30066162 L20.99,15.3006616 L18.55,15.3006616 L20.55,17.3006616 L20.99,17.3006616 C22.09,17.3006616 22.99,16.4006616 22.99,15.3006616 L22.99,3.30066162 C22.99,2.20066162 22.09,1.30066162 20.99,1.30066162 L4.55,1.30066162 Z" id="path-1"></path>
    </defs>
    <g id="Remote_Cowork_Leader" stroke="none" stroke-width="1" fill="none" fill-rule="evenodd">
        <g id="RWS_0100-_접속-화면_기본-기능-(리더)" transform="translate(-817.000000, -150.000000)">
            <g id="edit-tool_sharing-copy" transform="translate(692.500000, 150.000000)">
                <g id="off" transform="translate(125.000000, 0.000000)">
                    <polygon id="icn_mic_on" opacity="0.300000012" points="4.01456646e-13 2.48689958e-14 50 2.48689958e-14 50 50 4.01456646e-13 50"></polygon>
                    <g id="Group-3" transform="translate(13.010000, 13.691767)">
                        <mask id="mask-2" fill="white">
                            <use xlink:href="#path-1"></use>
                        </mask>
                        <use id="icon/communication/desktop_access_disabled_24px" fill="#FFFFFF" fill-rule="nonzero" xlink:href="#path-1"></use>
                    </g>
                </g>
            </g>
        </g>
    </g>
</svg>