<?xml version="1.0" encoding="UTF-8"?>
<svg width="18px" height="18px" viewBox="0 0 18 18" version="1.1" xmlns="http://www.w3.org/2000/svg" xmlns:xlink="http://www.w3.org/1999/xlink">
    <title>89593D21-A93D-4855-A402-70EE82684767@1.00x</title>
    <defs>
        <path d="M16,13 L16,5.37700283 L12.9839774,8.39302545 L12.9839774,5.75400566 C12.9839774,5.33930254 12.6446748,5 12.2299717,5 L8,5 L16,13 Z M3.03134796,2 L2,3.03134796 L3.9968652,5.02821317 L3.46290491,5.02821317 C3.06060606,5.02821317 2.73145246,5.35736677 2.73145246,5.75966562 L2.73145246,13.0741902 C2.73145246,13.476489 3.06060606,13.8056426 3.46290491,13.8056426 L12.2403344,13.8056426 C12.3939394,13.8056426 12.5256008,13.7471264 12.6426332,13.6739812 L14.968652,16 L16,14.968652 L3.03134796,2 Z" id="path-1"></path>
    </defs>
    <g id="N:N" stroke="none" stroke-width="1" fill="none" fill-rule="evenodd">
        <g id="RWS_0100-_접속-화면_기본-기능-(리더)" transform="translate(-1080.000000, -923.000000)">
            <g id="frame_list" transform="translate(152.000000, 915.000000)">
                <g id="02.frame-" transform="translate(824.000000, 0.000000)">
                    <g id="icon" transform="translate(8.000000, 8.000000)">
                        <g id="icon_nocamera" transform="translate(96.000000, 0.000000)">
                            <rect id="tr" x="0" y="0" width="18" height="18"></rect>
                            <mask id="mask-2" fill="white">
                                <use xlink:href="#path-1"></use>
                            </mask>
                            <use id="icon/av/videocam_off_24px" fill="#FFFFFF" fill-rule="nonzero" xlink:href="#path-1"></use>
                        </g>
                    </g>
                </g>
            </g>
        </g>
    </g>
</svg>