<?xml version="1.0" encoding="UTF-8"?>
<svg width="40px" height="40px" viewBox="0 0 40 40" version="1.1" xmlns="http://www.w3.org/2000/svg" xmlns:xlink="http://www.w3.org/1999/xlink">
    <title>2D1B11A6-D5B7-4F8D-BBFB-9166B9478342@3x</title>
    <g id="Remote_Main_remote" stroke="none" stroke-width="1" fill="none" fill-rule="evenodd">
        <g id="RMS_0220_접속-화면-협업보드(리더)_드로잉" transform="translate(-304.000000, -439.000000)">
            <g id="expand-button_on" transform="translate(304.000000, 150.000000)">
                <g id="icn_dropdown" transform="translate(0.000000, 289.000000)">
                    <polygon opacity="0.234514509" points="4 4 37 4 37 37 4 37"></polygon>
                    <path d="M19.783346,16.0360645 L13.0087621,25.5790169 C12.7210311,25.9843264 12.8163473,26.5461468 13.2216569,26.8338778 C13.3738854,26.9419455 13.5559526,27 13.7426399,27 L27.2618226,27 C27.7588788,27 28.1618226,26.5970563 28.1618226,26.1 C28.1618226,25.9139555 28.1041668,25.7324829 27.9967888,25.5805536 L21.2521901,16.0376011 C20.9653078,15.6316905 20.4036881,15.535199 19.9977774,15.8220813 C19.9147232,15.8807809 19.8422193,15.9531333 19.783346,16.0360645 Z" fill="#FFFFFF" transform="translate(20.500000, 21.000000) rotate(-180.000000) translate(-20.500000, -21.000000) "></path>
                </g>
            </g>
        </g>
    </g>
</svg>