<?xml version="1.0" encoding="UTF-8"?>
<svg width="28px" height="28px" viewBox="0 0 28 28" version="1.1" xmlns="http://www.w3.org/2000/svg" xmlns:xlink="http://www.w3.org/1999/xlink">
    <title>5825E6D2-F218-4CBF-A94F-51D111F7047A@1x</title>
    <defs>
        <path d="M20.1111111,12.625 L20.1111111,8.25 C20.1111111,7.5625 19.5611111,7 18.8888889,7 L4.22222222,7 C3.55,7 3,7.5625 3,8.25 L3,20.75 C3,21.4375 3.55,22 4.22222222,22 L18.8888889,22 C19.5611111,22 20.1111111,21.4375 20.1111111,20.75 L20.1111111,16.375 L25,21.375 L25,7.625 L20.1111111,12.625 Z M16.4444444,15.75 L12.7777778,15.75 L12.7777778,19.5 L10.3333333,19.5 L10.3333333,15.75 L6.66666667,15.75 L6.66666667,13.25 L10.3333333,13.25 L10.3333333,9.5 L12.7777778,9.5 L12.7777778,13.25 L16.4444444,13.25 L16.4444444,15.75 Z" id="path-1"></path>
    </defs>
    <g id="Remote_collabo_Mobile" stroke="none" stroke-width="1" fill="none" fill-rule="evenodd">
        <g id="RWS_0060-_접속화면_참가자-정보_섬네일-선택" transform="translate(-32.000000, -406.000000)">
            <g id="bottom_area" transform="translate(0.000000, 280.000000)">
                <g id="list01" transform="translate(16.000000, 112.000000)">
                    <g id="icon_Video" transform="translate(16.000000, 14.000000)">
                        <polygon id="tr" points="0 0 28 0 28 28 0 28"></polygon>
                        <mask id="mask-2" fill="white">
                            <use xlink:href="#path-1"></use>
                        </mask>
                        <use id="icon/av/video_call_24px" fill="#71767F" fill-rule="nonzero" xlink:href="#path-1"></use>
                    </g>
                </g>
            </g>
        </g>
    </g>
</svg>