<?xml version="1.0" encoding="UTF-8"?>
<svg width="28px" height="28px" viewBox="0 0 28 28" version="1.1" xmlns="http://www.w3.org/2000/svg" xmlns:xlink="http://www.w3.org/1999/xlink">
    <title>1CBD6704-F0FC-4757-8CC9-B1141A94BCBB@1x</title>
    <defs>
        <path d="M11,16 C13.209139,16 15,14.209139 15,12 C15,9.790861 13.209139,8 11,8 C8.790861,8 7,9.790861 7,12 C7,14.209139 8.790861,16 11,16 Z M11,18 C8.33,18 3,19.34 3,22 L3,24 L19,24 L19,22 C19,19.34 13.67,18 11,18 Z M17.08,10.05 C17.92,11.23 17.92,12.76 17.08,13.94 L18.76,15.63 C20.78,13.61 20.78,10.56 18.76,8.36 L17.08,10.05 Z M22.07,5 L20.44,6.63 C23.21,9.65 23.21,14.19 20.44,17.37 L22.07,19 C25.97,15.11 25.98,9.05 22.07,5 Z" id="path-1"></path>
    </defs>
    <g id="Remote_collabo_Mobile" stroke="none" stroke-width="1" fill="none" fill-rule="evenodd">
        <g id="RWS_0060-_접속화면_참가자-정보_섬네일-선택_참가자" transform="translate(-32.000000, -518.000000)">
            <g id="bottom_area" transform="translate(0.000000, 392.000000)">
                <g id="list01" transform="translate(16.000000, 112.000000)">
                    <g id="icon_user_mute_off" transform="translate(16.000000, 14.000000)">
                        <polygon id="tr" points="0 0 28 0 28 28 0 28"></polygon>
                        <mask id="mask-2" fill="white">
                            <use xlink:href="#path-1"></use>
                        </mask>
                        <use id="icon/action/record_voice_over_24px" fill="#71767F" fill-rule="nonzero" xlink:href="#path-1"></use>
                    </g>
                </g>
            </g>
        </g>
    </g>
</svg>