<?xml version="1.0" encoding="UTF-8"?>
<svg width="25px" height="24px" viewBox="0 0 25 24" version="1.1" xmlns="http://www.w3.org/2000/svg" xmlns:xlink="http://www.w3.org/1999/xlink">
    <title>F990E8C8-A8EA-480A-8AE5-C264B9F68C56@2x</title>
    <g id="Remote_Main_remote" stroke="none" stroke-width="1" fill="none" fill-rule="evenodd">
        <g id="3DO_0042-_3D-파일-출력-완료_리더-권한_-Mobile-Web-" transform="translate(-248.000000, -570.000000)">
            <g id="Bottom_menu_leader" transform="translate(0.000000, 479.000000)">
                <g id="board" transform="translate(70.000000, 73.000000)">
                    <g id="icon_3D_control" transform="translate(160.000000, 0.000000)">
                        <g transform="translate(18.000000, 18.000000)">
                            <polygon id="Path" points="0 0 24 0 24 24 0 24"></polygon>
                            <path d="M13.9116,18.276 L15.8232,20.1768 L12,24 L8.1768,20.1768 L10.0884,18.276 L12,20.1768 L13.9116,18.276 Z M20.1768,8.1768 L24,12 L20.1768,15.8232 L18.276,13.9116 L20.1768,12 L18.276,10.0884 L20.1768,8.1768 Z M3.8232,8.1768 L5.724,10.0884 L3.8232,12 L5.724,13.9116 L3.8232,15.8232 L0,12 L3.8232,8.1768 Z M12,8.4 C13.9882251,8.4 15.6,10.0117749 15.6,12 C15.6,13.9882251 13.9882251,15.6 12,15.6 C10.0117749,15.6 8.4,13.9882251 8.4,12 C8.4,10.0117749 10.0117749,8.4 12,8.4 Z M12,1.77635684e-15 L15.8232,3.8232 L13.9116,5.724 L12,3.8232 L10.0884,5.724 L8.1768,3.8232 L12,1.77635684e-15 Z" id="Combined-Shape" fill="#32373F" fill-rule="nonzero"></path>
                        </g>
                    </g>
                </g>
            </g>
        </g>
    </g>
</svg>