<?xml version="1.0" encoding="UTF-8"?>
<svg width="24px" height="24px" viewBox="0 0 24 24" version="1.1" xmlns="http://www.w3.org/2000/svg" xmlns:xlink="http://www.w3.org/1999/xlink">
    <title>icon_back@2x</title>
    <defs>
        <path d="M11.1588297,5.15882968 L12.1331703,6.13317032 C12.3313465,6.33134648 12.3334426,6.65090361 12.1398398,6.84492908 L8.192,10.7997572 L19.9,10.8 C20.1761424,10.8 20.4,11.0238576 20.4,11.3 L20.4,12.7 C20.4,12.9761424 20.1761424,13.2 19.9,13.2 L8.192,13.1997572 L12.1398398,17.1550709 C12.3343325,17.3499883 12.3358535,17.6641465 12.1331703,17.8668297 L11.1588297,18.8411703 C10.9606535,19.0393465 10.63609,19.03609 10.452729,18.852729 L3.6,12 L10.452729,5.14727097 C10.6445215,4.95547851 10.9561465,4.95614648 11.1588297,5.15882968 Z" id="path-1"></path>
    </defs>
    <g id="Remote_Main_remote" stroke="none" stroke-width="1" fill="none" fill-rule="evenodd">
        <g id="RMS_0221_ì ‘ì†-í™”ë©´-í˜‘ì—…ë³´ë“œ_pdf-íŒŒì¼ëª©ë¡" transform="translate(-16.000000, -15.000000)">
            <g id="icon_back" transform="translate(16.000000, 15.000000)">
                <rect id="tr" x="0" y="0" width="24" height="24"></rect>
                <g id="icon-/-20px-/-ic_arrow_back_20">
                    <mask id="mask-2" fill="white">
                        <use xlink:href="#path-1"></use>
                    </mask>
                    <g id="shape"></g>
                    <rect id="ðŸŽ¨-Color" fill="#FFFFFF" mask="url(#mask-2)" x="-16.8" y="-16.8" width="57.6" height="57.6"></rect>
                </g>
            </g>
        </g>
    </g>
</svg>