<?xml version="1.0" encoding="UTF-8"?>
<svg width="432px" height="134px" viewBox="0 0 432 134" version="1.1" xmlns="http://www.w3.org/2000/svg" xmlns:xlink="http://www.w3.org/1999/xlink">
    <title>9CDC1AF0-E57A-40AA-BF0D-E755D323710F@1x</title>
    <defs>
        <polygon id="path-1" points="0.4434 0 71.4434 0 71.4434 23.9997 0.4434 23.9997"></polygon>
        <polygon id="path-3" points="0 89 294.443 89 294.443 0 0 0"></polygon>
    </defs>
    <g id="V2.2-update" stroke="none" stroke-width="1" fill="none" fill-rule="evenodd">
        <g id="ETC_0300-_네트워크-재연결-" transform="translate(-743.000000, -708.000000)">
            <g id="popup_03" transform="translate(727.000000, 682.000000)">
                <g id="image_02" transform="translate(16.000000, 26.000000)">
                    <rect id="tr" x="0" y="0" width="432" height="134"></rect>
                    <g transform="translate(69.000000, 45.000000)">
                        <line x1="1.4434" y1="88" x2="293.4434" y2="88" id="Stroke-1" stroke="#454545" stroke-width="2" stroke-linecap="round"></line>
                        <polygon id="Fill-3" fill="#FFFFFF" points="71.3637 77.4944 74.4547 86.5194 56.4907 86.5194 59.5807 77.4944 57.4667 77.4944 53.6917 88.5194 77.2537 88.5194 73.4777 77.4944"></polygon>
                        <polygon id="Fill-4" fill="#FFFFFF" points="58.1514 75.4941 57.4664 77.4941 59.5814 77.4941 71.3634 77.4941 73.4774 77.4941 72.7924 75.4941"></polygon>
                        <g id="Group-32">
                            <path d="M105.9957,65.915 L105.9957,66.057 L105.9097,66.057 L24.9717,66.057 L24.9487,66.057 L24.9487,66.021 L24.9487,27.085 C24.9487,25.22 26.4657,23.702 28.3307,23.702 L102.6127,23.702 C104.4777,23.702 105.9957,25.22 105.9957,27.085 L105.9957,65.915 Z M105.9957,72.11 C105.9957,73.977 104.4777,75.494 102.6127,75.494 L72.7927,75.494 L58.1517,75.494 L28.3307,75.494 C26.4657,75.494 24.9487,73.977 24.9487,72.11 L24.9487,68.057 L105.9957,68.057 L105.9957,72.11 Z M102.6127,21.702 L28.3307,21.702 C25.3637,21.702 22.9487,24.117 22.9487,27.085 L22.9487,72.11 C22.9487,75.079 25.3637,77.494 28.3307,77.494 L57.4667,77.494 L59.5807,77.494 L71.3637,77.494 L73.4777,77.494 L102.6127,77.494 C105.5807,77.494 107.9957,75.079 107.9957,72.11 L107.9957,27.085 C107.9957,24.117 105.5807,21.702 102.6127,21.702 L102.6127,21.702 Z" id="Fill-5" fill="#FFFFFF"></path>
                            <path d="M64.8282,53.4551 C64.6572,53.6761 64.4012,53.7921 64.1422,53.7921 C63.9582,53.7921 63.7732,53.7331 63.6162,53.6131 C63.2382,53.3221 63.1662,52.7791 63.4572,52.4001 L67.7222,46.8481 L59.3332,46.8481 L64.4352,38.4771 C64.6842,38.0691 65.2152,37.9371 65.6232,38.1881 C66.0302,38.4371 66.1592,38.9691 65.9112,39.3771 L62.4102,45.1191 L71.2272,45.1191 L64.8282,53.4551 Z M102.6132,23.7021 L28.3312,23.7021 C26.4662,23.7021 24.9492,25.2201 24.9492,27.0851 L24.9492,66.0211 C24.9552,66.0331 24.9642,66.0451 24.9722,66.0571 L105.9102,66.0571 C105.9372,66.0091 105.9702,65.9651 105.9952,65.9151 L105.9952,27.0851 C105.9952,25.2201 104.4782,23.7021 102.6132,23.7021 L102.6132,23.7021 Z" id="Fill-7" fill="#212124"></path>
                            <path d="M65.9112,39.377 C66.1592,38.969 66.0302,38.438 65.6232,38.189 C65.2152,37.938 64.6842,38.069 64.4352,38.478 L59.3332,46.848 L67.7222,46.848 L63.4572,52.4 C63.1662,52.779 63.2382,53.322 63.6162,53.613 C63.7732,53.733 63.9582,53.792 64.1422,53.792 C64.4012,53.792 64.6572,53.676 64.8282,53.455 L71.2272,45.119 L62.4102,45.119 L65.9112,39.377 Z" id="Fill-9" fill="#FFFFFF"></path>
                            <g id="Group-13" transform="translate(186.000000, 0.000000)">
                                <mask id="mask-2" fill="white">
                                    <use xlink:href="#path-1"></use>
                                </mask>
                                <g id="Clip-12"></g>
                                <path d="M69.4434,20.4297 C69.4434,21.2957 68.7394,21.9997 67.8734,21.9997 L67.4434,21.9997 L4.4434,21.9997 L4.0134,21.9997 C3.1474,21.9997 2.4434,21.2957 2.4434,20.4297 L2.4434,3.5707 C2.4434,2.7037 3.1474,1.9997 4.0134,1.9997 L67.8734,1.9997 C68.7394,1.9997 69.4434,2.7037 69.4434,3.5707 L69.4434,20.4297 Z M67.8734,-0.0003 L4.0134,-0.0003 C2.0414,-0.0003 0.4434,1.5987 0.4434,3.5707 L0.4434,20.4297 C0.4434,22.4017 2.0414,23.9997 4.0134,23.9997 L4.4434,23.9997 L6.4434,23.9997 L65.4434,23.9997 L67.4434,23.9997 L67.8734,23.9997 C69.8454,23.9997 71.4434,22.4017 71.4434,20.4297 L71.4434,3.5707 C71.4434,1.5987 69.8454,-0.0003 67.8734,-0.0003 L67.8734,-0.0003 Z" id="Fill-11" fill="#FFFFFF" mask="url(#mask-2)"></path>
                            </g>
                            <path d="M248.9434,7 C247.5624,7 246.4434,8.119 246.4434,9.5 C246.4434,10.881 247.5624,12 248.9434,12 C250.3244,12 251.4434,10.881 251.4434,9.5 C251.4434,8.119 250.3244,7 248.9434,7" id="Fill-14" fill="#4B4B4B"></path>
                            <path d="M255.4434,49.4297 C255.4434,50.2957 254.7394,50.9997 253.8734,50.9997 L253.4434,50.9997 L190.4434,50.9997 L190.0134,50.9997 C189.1474,50.9997 188.4434,50.2957 188.4434,49.4297 L188.4434,32.5707 C188.4434,31.7037 189.1474,30.9997 190.0134,30.9997 L190.4434,30.9997 L253.4434,30.9997 L253.8734,30.9997 C254.7394,30.9997 255.4434,31.7037 255.4434,32.5707 L255.4434,49.4297 Z M253.8734,28.9997 L253.4434,28.9997 L251.4434,28.9997 L192.4434,28.9997 L190.4434,28.9997 L190.0134,28.9997 C188.0414,28.9997 186.4434,30.5987 186.4434,32.5707 L186.4434,49.4297 C186.4434,51.4017 188.0414,52.9997 190.0134,52.9997 L190.4434,52.9997 L192.4434,52.9997 L251.4434,52.9997 L253.4434,52.9997 L253.8734,52.9997 C255.8454,52.9997 257.4434,51.4017 257.4434,49.4297 L257.4434,32.5707 C257.4434,30.5987 255.8454,28.9997 253.8734,28.9997 L253.8734,28.9997 Z" id="Fill-16" fill="#FFFFFF"></path>
                            <path d="M248.9434,41 C250.3244,41 251.4434,39.881 251.4434,38.5 C251.4434,37.119 250.3244,36 248.9434,36 C247.5624,36 246.4434,37.119 246.4434,38.5 C246.4434,39.881 247.5624,41 248.9434,41" id="Fill-18" fill="#4B4B4B"></path>
                            <mask id="mask-4" fill="white">
                                <use xlink:href="#path-3"></use>
                            </mask>
                            <g id="Clip-21"></g>
                            <polygon id="Fill-20" fill="#838385" mask="url(#mask-4)" points="190.443 29 192.443 29 192.443 24 190.443 24"></polygon>
                            <polygon id="Fill-22" fill="#838385" mask="url(#mask-4)" points="251.443 29 253.443 29 253.443 24 251.443 24"></polygon>
                            <polygon id="Fill-23" fill="#838385" mask="url(#mask-4)" points="190.443 58 192.443 58 192.443 53 190.443 53"></polygon>
                            <polygon id="Fill-24" fill="#838385" mask="url(#mask-4)" points="251.443 58 253.443 58 253.443 53 251.443 53"></polygon>
                            <polygon id="Fill-25" fill="#838385" mask="url(#mask-4)" points="251.4434 87 192.4434 87 192.4434 82 190.4434 82 190.4434 89 253.4434 89 253.4434 82 251.4434 82"></polygon>
                            <path d="M255.4434,78.4297 C255.4434,79.2957 254.7394,79.9997 253.8734,79.9997 L253.4434,79.9997 L190.4434,79.9997 L190.0134,79.9997 C189.1474,79.9997 188.4434,79.2957 188.4434,78.4297 L188.4434,61.5707 C188.4434,60.7037 189.1474,59.9997 190.0134,59.9997 L190.4434,59.9997 L253.4434,59.9997 L253.8734,59.9997 C254.7394,59.9997 255.4434,60.7037 255.4434,61.5707 L255.4434,78.4297 Z M253.8734,57.9997 L253.4434,57.9997 L251.4434,57.9997 L192.4434,57.9997 L190.4434,57.9997 L190.0134,57.9997 C188.0414,57.9997 186.4434,59.5987 186.4434,61.5707 L186.4434,78.4297 C186.4434,80.4017 188.0414,81.9997 190.0134,81.9997 L190.4434,81.9997 L192.4434,81.9997 L251.4434,81.9997 L253.4434,81.9997 L253.8734,81.9997 C255.8454,81.9997 257.4434,80.4017 257.4434,78.4297 L257.4434,61.5707 C257.4434,59.5987 255.8454,57.9997 253.8734,57.9997 L253.8734,57.9997 Z" id="Fill-26" fill="#FFFFFF" mask="url(#mask-4)"></path>
                            <path d="M192.4434,10 L220.4434,10 C220.9954,10 221.4434,9.553 221.4434,9 C221.4434,8.447 220.9954,8 220.4434,8 L192.4434,8 C191.8914,8 191.4434,8.447 191.4434,9 C191.4434,9.553 191.8914,10 192.4434,10" id="Fill-27" fill="#838385" mask="url(#mask-4)"></path>
                            <path d="M220.4434,37 L192.4434,37 C191.8914,37 191.4434,37.447 191.4434,38 C191.4434,38.553 191.8914,39 192.4434,39 L220.4434,39 C220.9954,39 221.4434,38.553 221.4434,38 C221.4434,37.447 220.9954,37 220.4434,37" id="Fill-28" fill="#838385" mask="url(#mask-4)"></path>
                            <path d="M220.4434,66 L192.4434,66 C191.8914,66 191.4434,66.447 191.4434,67 C191.4434,67.553 191.8914,68 192.4434,68 L220.4434,68 C220.9954,68 221.4434,67.553 221.4434,67 C221.4434,66.447 220.9954,66 220.4434,66" id="Fill-29" fill="#838385" mask="url(#mask-4)"></path>
                            <path d="M248.9434,70 C250.3244,70 251.4434,68.881 251.4434,67.5 C251.4434,66.119 250.3244,65 248.9434,65 C247.5624,65 246.4434,66.119 246.4434,67.5 C246.4434,68.881 247.5624,70 248.9434,70" id="Fill-30" fill="#4B4B4B" mask="url(#mask-4)"></path>
                            <path d="M293.4434,87 L3.4434,87 C2.8914,87 2.4434,87.447 2.4434,88 C2.4434,88.553 2.8914,89 3.4434,89 L293.4434,89 C293.9964,89 294.4434,88.553 294.4434,88 C294.4434,87.447 293.9964,87 293.4434,87" id="Fill-31" fill="#838385" mask="url(#mask-4)"></path>
                        </g>
                    </g>
                </g>
            </g>
        </g>
    </g>
</svg>