<?xml version="1.0" encoding="UTF-8"?>
<svg width="96px" height="96px" viewBox="0 0 96 96" version="1.1" xmlns="http://www.w3.org/2000/svg" xmlns:xlink="http://www.w3.org/1999/xlink">
    <title>B136FDA9-6F56-4958-8928-F0D18BEE71B4@1x</title>
    <g id="Remote_collabo_Mobile" stroke="none" stroke-width="1" fill="none" fill-rule="evenodd">
        <g id="RNN_0102_카메라-선택-안내-화면(리더)" transform="translate(-132.000000, -209.000000)">
            <g id="area_copy" transform="translate(95.000000, 209.000000)">
                <g id="image_videolink" transform="translate(37.000000, 0.000000)">
                    <rect id="tr" opacity="0.449813991" x="0" y="0" width="96" height="96"></rect>
                    <g id="Group-11" transform="translate(5.600000, 17.600000)">
                        <path d="M0,-0.00024 L0,52.19656 L9.8208,52.19656 L9.8208,61.28936 L84.5552,61.28936 L84.5552,9.09176 L74.7344,9.09176 L74.7344,-0.00024 L0,-0.00024 Z M2.4008,2.40056 L72.3352,2.40056 L72.3352,9.09176 L9.8208,9.09176 L9.8208,49.79736 L2.4008,49.79736 L2.4008,2.40056 Z M12.2208,52.19656 L12.2208,49.79736 L12.2208,11.49256 L72.3352,11.49256 L74.7344,11.49256 L82.156,11.49256 L82.156,58.88936 L12.2208,58.88936 L12.2208,52.19656 Z" id="Fill-1" fill="#616872"></path>
                        <g id="Group-10" transform="translate(37.600000, 15.689040)">
                            <path d="M1.30968,7.1664 C1.01208,6.9952 0.64088,7.2104 0.64088,7.5536 L0.64088,31.4488 C0.64088,31.792 1.01208,32.0072 1.30968,31.836 L22.10888,19.8888 C22.40808,19.7168 22.40808,19.2856 22.10888,19.1144 L1.30968,7.1664 Z" id="Fill-2" fill="#616872"></path>
                            <path d="M35.93464,2.66448 C35.93464,4.03408 37.04424,5.14448 38.41464,5.14448 C39.78424,5.14448 40.89384,4.03408 40.89384,2.66448 C40.89384,1.29488 39.78424,0.18448 38.41464,0.18448 C37.04424,0.18448 35.93464,1.29488 35.93464,2.66448" id="Fill-4" fill="#3E454F"></path>
                            <path d="M31.30496,0.1848 C29.93456,0.1848 28.82416,1.2952 28.82416,2.6648 C28.82416,4.0344 29.93456,5.1448 31.30496,5.1448 C32.67376,5.1448 33.78496,4.0344 33.78496,2.6648 C33.78496,1.2952 32.67376,0.1848 31.30496,0.1848" id="Fill-6" fill="#3E454F"></path>
                            <path d="M24.1948,0.1848 C22.8252,0.1848 21.7148,1.2952 21.7148,2.6648 C21.7148,4.0344 22.8252,5.1448 24.1948,5.1448 C25.5644,5.1448 26.6748,4.0344 26.6748,2.6648 C26.6748,1.2952 25.5644,0.1848 24.1948,0.1848" id="Fill-8" fill="#3E454F"></path>
                        </g>
                    </g>
                </g>
            </g>
        </g>
    </g>
</svg>