<?xml version="1.0" encoding="UTF-8"?>
<svg width="288px" height="126px" viewBox="0 0 288 126" version="1.1" xmlns="http://www.w3.org/2000/svg" xmlns:xlink="http://www.w3.org/1999/xlink">
    <title>9E651E27-C403-44BF-91C9-84EACD4020BB@1x</title>
    <defs>
        <polygon id="path-1" points="0 0.416 241.9998 0.416 241.9998 3 0 3"></polygon>
    </defs>
    <g id="Remote_Main_remote" stroke="none" stroke-width="1" fill="none" fill-rule="evenodd">
        <g id="ETC_0300-_네트워크-재연결-_2" transform="translate(-36.000000, -190.000000)">
            <g id="image_02" transform="translate(36.000000, 190.000000)">
                <polygon id="tr" points="-5.1159077e-13 -8.95283847e-13 288 -8.95283847e-13 288 126 -5.1159077e-13 126"></polygon>
                <g id="Group-52" transform="translate(23.000000, 39.000000)">
                    <path d="M161.1709,24.9747 L161.1709,21.5307 L158.6479,21.5307 C158.6269,21.5307 158.6079,21.5247 158.5869,21.5247 L158.5869,24.9817 C158.6079,24.9807 158.6269,24.9747 158.6479,24.9747 L161.1709,24.9747 Z" id="Fill-1" fill="#868C94"></path>
                    <path d="M211.1211,21.5304 L211.1211,24.9744 L213.6441,24.9744 C213.6651,24.9744 213.6841,24.9804 213.7051,24.9814 L213.7051,21.5244 C213.6841,21.5244 213.6651,21.5304 213.6441,21.5304 L211.1211,21.5304 Z" id="Fill-3" fill="#868C94"></path>
                    <path d="M157.7256,18.0245 L157.7256,3.5045 C157.7256,2.9975 158.1396,2.5835 158.6476,2.5835 L213.6446,2.5835 C214.1526,2.5835 214.5666,2.9975 214.5666,3.5045 L214.5666,18.0245 C214.5666,18.5325 214.1526,18.9465 213.6446,18.9465 L158.6476,18.9465 C158.1396,18.9465 157.7256,18.5325 157.7256,18.0245 L157.7256,18.0245 Z M161.1706,21.5305 L211.1216,21.5305 L213.6446,21.5305 C213.6646,21.5305 213.6836,21.5245 213.7046,21.5245 C215.6096,21.4915 217.1496,19.9365 217.1496,18.0245 L217.1496,3.5045 C217.1496,1.5725 215.5766,0.0005 213.6446,0.0005 L158.6476,0.0005 C156.7146,0.0005 155.1426,1.5725 155.1426,3.5045 L155.1426,18.0245 C155.1426,19.9365 156.6826,21.4915 158.5866,21.5245 C158.6076,21.5245 158.6266,21.5305 158.6476,21.5305 L161.1706,21.5305 Z" id="Fill-5" fill="#E9ECF0"></path>
                    <path d="M161.1709,49.9503 L161.1709,46.5053 L158.6479,46.5053 C158.6269,46.5053 158.6079,46.4993 158.5869,46.4993 L158.5869,49.9563 C158.6079,49.9563 158.6269,49.9503 158.6479,49.9503 L161.1709,49.9503 Z" id="Fill-7" fill="#868C94"></path>
                    <path d="M211.1211,46.505 L211.1211,49.95 L213.6441,49.95 C213.6651,49.95 213.6841,49.956 213.7051,49.956 L213.7051,46.499 C213.6841,46.499 213.6651,46.505 213.6441,46.505 L211.1211,46.505 Z" id="Fill-9" fill="#868C94"></path>
                    <path d="M157.7256,43.0001 L157.7256,28.4801 C157.7256,27.9731 158.1396,27.5591 158.6476,27.5591 L213.6446,27.5591 C214.1526,27.5591 214.5666,27.9731 214.5666,28.4801 L214.5666,43.0001 C214.5666,43.5081 214.1526,43.9221 213.6446,43.9221 L158.6476,43.9221 C158.1396,43.9221 157.7256,43.5081 157.7256,43.0001 L157.7256,43.0001 Z M161.1706,46.5051 L211.1216,46.5051 L213.6446,46.5051 C213.6646,46.5051 213.6836,46.4991 213.7046,46.4991 C215.6096,46.4661 217.1496,44.9121 217.1496,43.0001 L217.1496,28.4801 C217.1496,26.5681 215.6096,25.0151 213.7046,24.9811 C213.6836,24.9801 213.6646,24.9751 213.6446,24.9751 L211.1216,24.9751 L161.1706,24.9751 L158.6476,24.9751 C158.6266,24.9751 158.6076,24.9801 158.5866,24.9811 C156.6826,25.0151 155.1426,26.5681 155.1426,28.4801 L155.1426,43.0001 C155.1426,44.9121 156.6826,46.4661 158.5866,46.4991 C158.6076,46.4991 158.6266,46.5051 158.6476,46.5051 L161.1706,46.5051 Z" id="Fill-11" fill="#E9ECF0"></path>
                    <path d="M161.1709,71.4806 L158.6479,71.4806 C158.6269,71.4806 158.6079,71.4746 158.5869,71.4736 L158.5869,74.9246 L161.1709,74.9246 L161.1709,71.4806 Z" id="Fill-13" fill="#868C94"></path>
                    <path d="M211.1211,71.4806 L211.1211,74.9246 L213.7051,74.9246 L213.7051,71.4736 C213.6841,71.4746 213.6651,71.4806 213.6441,71.4806 L211.1211,71.4806 Z" id="Fill-15" fill="#868C94"></path>
                    <path d="M157.7256,67.9747 L157.7256,53.4547 C157.7256,52.9477 158.1396,52.5347 158.6476,52.5347 L213.6446,52.5347 C214.1526,52.5347 214.5666,52.9477 214.5666,53.4547 L214.5666,67.9747 C214.5666,68.4837 214.1526,68.8967 213.6446,68.8967 L158.6476,68.8967 C158.1396,68.8967 157.7256,68.4837 157.7256,67.9747 L157.7256,67.9747 Z M161.1706,71.4807 L211.1216,71.4807 L213.6446,71.4807 C213.6646,71.4807 213.6836,71.4747 213.7046,71.4737 C215.6096,71.4407 217.1496,69.8867 217.1496,67.9747 L217.1496,53.4547 C217.1496,51.5437 215.6096,49.9897 213.7046,49.9557 C213.6836,49.9557 213.6646,49.9507 213.6446,49.9507 L211.1216,49.9507 L161.1706,49.9507 L158.6476,49.9507 C158.6266,49.9507 158.6076,49.9557 158.5866,49.9557 C156.6826,49.9897 155.1426,51.5437 155.1426,53.4547 L155.1426,67.9747 C155.1426,69.8867 156.6826,71.4407 158.5866,71.4737 C158.6076,71.4747 158.6266,71.4807 158.6476,71.4807 L161.1706,71.4807 Z" id="Fill-17" fill="#E9ECF0"></path>
                    <path d="M164.1855,9.4737 L188.2985,9.4737 C189.0115,9.4737 189.5905,8.8937 189.5905,8.1817 C189.5905,7.4687 189.0115,6.8897 188.2985,6.8897 L164.1855,6.8897 C163.4725,6.8897 162.8935,7.4687 162.8935,8.1817 C162.8935,8.8937 163.4725,9.4737 164.1855,9.4737" id="Fill-19" fill="#868C94"></path>
                    <path d="M164.1855,34.4484 L188.2985,34.4484 C189.0115,34.4484 189.5905,33.8694 189.5905,33.1564 C189.5905,32.4444 189.0115,31.8644 188.2985,31.8644 L164.1855,31.8644 C163.4725,31.8644 162.8935,32.4444 162.8935,33.1564 C162.8935,33.8694 163.4725,34.4484 164.1855,34.4484" id="Fill-21" fill="#868C94"></path>
                    <path d="M164.1855,59.423 L188.2985,59.423 C189.0115,59.423 189.5905,58.844 189.5905,58.132 C189.5905,57.419 189.0115,56.84 188.2985,56.84 L164.1855,56.84 C163.4725,56.84 162.8935,57.419 162.8935,58.132 C162.8935,58.844 163.4725,59.423 164.1855,59.423" id="Fill-23" fill="#868C94"></path>
                    <path d="M209.3984,11.1954 C210.8234,11.1954 211.9824,10.0364 211.9824,8.6124 C211.9824,7.1874 210.8234,6.0284 209.3984,6.0284 C207.9734,6.0284 206.8144,7.1874 206.8144,8.6124 C206.8144,10.0364 207.9734,11.1954 209.3984,11.1954" id="Fill-25" fill="#868C94"></path>
                    <path d="M209.3984,36.171 C210.8234,36.171 211.9824,35.012 211.9824,33.587 C211.9824,32.162 210.8234,31.003 209.3984,31.003 C207.9734,31.003 206.8144,32.162 206.8144,33.587 C206.8144,35.012 207.9734,36.171 209.3984,36.171" id="Fill-27" fill="#868C94"></path>
                    <path d="M209.3984,61.1456 C210.8234,61.1456 211.9824,59.9876 211.9824,58.5626 C211.9824,57.1376 210.8234,55.9786 209.3984,55.9786 C207.9734,55.9786 206.8144,57.1376 206.8144,58.5626 C206.8144,59.9876 207.9734,61.1456 209.3984,61.1456" id="Fill-29" fill="#868C94"></path>
                    <path d="M50.0967,47.1427 C49.8697,47.4347 49.5317,47.6007 49.1637,47.6007 C48.9047,47.6007 48.6577,47.5167 48.4497,47.3587 C47.9347,46.9627 47.8377,46.2237 48.2327,45.7097 L51.3727,41.6207 L44.2557,41.6207 L49.0487,33.7567 C49.2137,33.4877 49.4727,33.2987 49.7797,33.2247 C50.0857,33.1537 50.3987,33.2027 50.6647,33.3667 C51.2157,33.7027 51.3917,34.4267 51.0557,34.9797 L51.0547,34.9807 L48.4397,39.2707 L56.1397,39.2707 L50.0967,47.1427 Z M84.7787,24.1697 C84.7787,22.8007 83.6647,21.6877 82.2957,21.6877 L18.3237,21.6877 C16.9547,21.6877 15.8417,22.8007 15.8417,24.1697 L15.8417,57.3017 L84.7787,57.3017 L84.7787,24.1697 Z" id="Fill-37" fill="#212124"></path>
                    <path d="M84.2559,58.1759 L85.1349,58.2339 L85.6349,58.2339 L85.7089,57.7339 L85.7089,55.6369 L85.2779,56.4329 L85.2779,24.1699 C85.2779,22.5259 83.9409,21.1879 82.2959,21.1879 L18.3229,21.1879 C16.6799,21.1879 15.3419,22.5259 15.3419,24.1699 L15.3419,56.5299 L14.9299,55.7749 L14.9099,57.7339 L14.9099,58.2339 L16.2529,58.2339 L16.0279,57.8019 L84.4949,57.8019 L84.2559,58.1759 Z M15.3419,62.9469 C15.3419,64.5919 16.6799,65.9299 18.3229,65.9299 L82.2959,65.9299 C83.9409,65.9299 85.2779,64.5919 85.2779,62.9469 L85.2779,59.3859 L15.3419,59.3859 L15.3419,62.9469 Z M57.7989,74.4249 L55.4329,67.5139 L45.1869,67.5139 L42.8199,74.4249 L41.1459,74.4249 L43.5129,67.5139 L18.3229,67.5139 C15.8059,67.5139 13.7579,65.4649 13.7579,62.9469 L13.7579,24.1699 C13.7579,21.6529 15.8059,19.6039 18.3229,19.6039 L82.2959,19.6039 C84.8139,19.6039 86.8619,21.6529 86.8619,24.1699 L86.8619,62.9469 C86.8619,65.4649 84.8139,67.5139 82.2959,67.5139 L57.1069,67.5139 L59.4739,74.4249 L57.7989,74.4249 Z" id="Fill-39" fill="#E9ECF0"></path>
                    <path d="M18.3232,65.4298 C16.9552,65.4298 15.8422,64.3158 15.8422,62.9468 L15.8422,59.8858 L84.7782,59.8858 L84.7782,62.9468 C84.7782,64.3158 83.6652,65.4298 82.2962,65.4298 L18.3232,65.4298 Z M85.1352,57.7338 C85.1582,57.6918 85.1862,57.6538 85.2092,57.6118 L85.2092,57.7338 L85.1352,57.7338 Z M15.8422,57.3018 L15.8422,24.1698 C15.8422,22.8008 16.9552,21.6878 18.3232,21.6878 L82.2962,21.6878 C83.6652,21.6878 84.7782,22.8008 84.7782,24.1698 L84.7782,57.3018 L15.8422,57.3018 Z M82.2962,19.1038 L18.3232,19.1038 C15.5302,19.1038 13.2582,21.3758 13.2582,24.1698 L13.2582,62.9468 C13.2582,65.7408 15.5302,68.0138 18.3232,68.0138 L42.8122,68.0138 L40.4452,74.9248 L43.1772,74.9248 L45.5442,68.0138 L55.0752,68.0138 L57.4412,74.9248 L60.1742,74.9248 L57.8062,68.0138 L82.2962,68.0138 C85.0902,68.0138 87.3622,65.7408 87.3622,62.9468 L87.3622,24.1698 C87.3622,21.3758 85.0902,19.1038 82.2962,19.1038 L82.2962,19.1038 Z M18.3232,66.4298 L82.2962,66.4298 C84.2162,66.4298 85.7782,64.8678 85.7782,62.9468 L85.7782,59.8858 L85.7782,58.8858 L84.7782,58.8858 L15.8422,58.8858 L14.8422,58.8858 L14.8422,59.8858 L14.8422,62.9468 C14.8422,64.8678 16.4032,66.4298 18.3232,66.4298 L18.3232,66.4298 Z M14.8422,54.6318 L14.4102,53.8608 L14.4102,57.7018 L14.4102,57.7338 L14.4292,58.7338 L15.4292,58.7338 L17.1502,58.7338 L16.9052,58.3018 L83.6552,58.3018 L83.4082,58.7338 L85.1352,58.7338 L85.2092,58.7338 L86.2092,58.7338 L86.2092,57.7338 L86.2092,57.6118 L86.2112,53.5258 L85.7782,54.3548 L85.7782,24.1698 C85.7782,22.2498 84.2162,20.6878 82.2962,20.6878 L18.3232,20.6878 C16.4032,20.6878 14.8422,22.2498 14.8422,24.1698 L14.8422,54.6318 L14.8422,54.6318 Z M82.2962,20.1038 C84.5382,20.1038 86.3622,21.9278 86.3622,24.1698 L86.3622,62.9468 C86.3622,65.1898 84.5382,67.0138 82.2962,67.0138 L57.8062,67.0138 L56.4072,67.0138 L56.8602,68.3378 L58.7742,73.9248 L58.1562,73.9248 L56.0212,67.6898 L55.7892,67.0138 L55.0752,67.0138 L45.5442,67.0138 L44.8292,67.0138 L44.5972,67.6898 L42.4632,73.9248 L41.8442,73.9248 L43.7592,68.3378 L44.2122,67.0138 L42.8122,67.0138 L18.3232,67.0138 C16.0822,67.0138 14.2582,65.1898 14.2582,62.9468 L14.2582,24.1698 C14.2582,21.9278 16.0822,20.1038 18.3232,20.1038 L82.2962,20.1038 L82.2962,20.1038 Z" id="Fill-41" fill="#E9ECF0"></path>
                    <path d="M25.4297,57.7335 L25.4297,57.7335 C25.4237,57.7225 25.4157,57.7125 25.4097,57.7025 C25.4157,57.7125 25.4237,57.7225 25.4297,57.7335" id="Fill-43" fill="#FFFFFF"></path>
                    <path d="M25.4102,57.7023 C25.4162,57.7133 25.4242,57.7233 25.4302,57.7333 C25.4242,57.7233 25.4162,57.7133 25.4102,57.7023" id="Fill-45" fill="#FFFFFF"></path>
                    <path d="M51.0547,34.9806 L51.0557,34.9796 C51.3917,34.4266 51.2157,33.7026 50.6647,33.3666 C50.3987,33.2026 50.0857,33.1536 49.7797,33.2246 C49.4727,33.2986 49.2137,33.4876 49.0487,33.7566 L44.2557,41.6206 L51.3727,41.6206 L48.2327,45.7096 C47.8377,46.2236 47.9347,46.9626 48.4497,47.3586 C48.6577,47.5166 48.9047,47.6006 49.1637,47.6006 C49.5317,47.6006 49.8697,47.4346 50.0967,47.1426 L56.1397,39.2706 L48.4397,39.2706 L51.0547,34.9806 Z" id="Fill-47" fill="#E9ECF0"></path>
                    <g id="Group-51" transform="translate(0.000000, 74.508900)">
                        <mask id="mask-2" fill="white">
                            <use xlink:href="#path-1"></use>
                        </mask>
                        <g id="Clip-50"></g>
                        <path d="M240.7168,0.416 L209.7048,0.416 L207.1208,0.416 L157.1708,0.416 L154.5868,0.416 L70.1738,0.416 L67.4418,0.416 L53.1778,0.416 L50.4458,0.416 L1.2828,0.416 C0.5738,0.416 -0.0002,0.991 -0.0002,1.699 L-0.0002,1.717 C-0.0002,2.426 0.5738,3 1.2828,3 L49.5608,3 L71.0588,3 L154.5868,3 L209.7048,3 L240.7168,3 C241.4258,3 241.9998,2.426 241.9998,1.717 L241.9998,1.699 C241.9998,0.991 241.4258,0.416 240.7168,0.416" id="Fill-49" fill="#E9ECF0" mask="url(#mask-2)"></path>
                    </g>
                </g>
            </g>
        </g>
    </g>
</svg>