<?xml version="1.0" encoding="UTF-8"?>
<svg width="96px" height="96px" viewBox="0 0 96 96" version="1.1" xmlns="http://www.w3.org/2000/svg" xmlns:xlink="http://www.w3.org/1999/xlink">
    <title>3E44B3E9-C8D0-4976-8C27-B1C4D1652983@1x</title>
    <g id="Remote_collabo_Mobile" stroke="none" stroke-width="1" fill="none" fill-rule="evenodd">
        <g id="RWS_0100-_접속-화면_기본-기능-_영상-없음(리더)" transform="translate(-132.000000, -240.000000)">
            <g id="image_novideo" transform="translate(132.000000, 240.000000)">
                <rect id="tr" opacity="0.449813991" x="0" y="0" width="96" height="96"></rect>
                <g id="Group-10" transform="translate(0.000000, 4.000000)">
                    <path d="M57.7546715,31.069919 L57.7546715,87.0955536 L1.72817282,87.0955536 L1.72817282,31.069919 L57.7546715,31.069919 Z" id="Stroke-1" stroke="#616872" stroke-width="2.59225923"></path>
                    <path d="M74.4126012,38.2555136 L74.4826897,79.9463357 L58.1142861,63.0833831 L58.1142861,54.8019595 L74.4126012,38.2555136 Z" id="Stroke-3" stroke="#616872" stroke-width="2.59225923"></path>
                    <path d="M50.2922556,42.2085905 C50.2922556,44.3705347 48.5390243,46.123766 46.3770801,46.123766 C44.2151359,46.123766 42.4610405,44.3705347 42.4610405,42.2085905 C42.4610405,40.0466463 44.2151359,38.2934149 46.3770801,38.2934149 C48.5390243,38.2934149 50.2922556,40.0466463 50.2922556,42.2085905" id="Fill-4" fill="#3E454F"></path>
                    <polygon id="Fill-5" fill="#3E454F" points="2.85210138 75.6040438 56.4334967 75.6040438 56.4334967 59.264219 2.85210138 59.264219"></polygon>
                    <path d="M94.494229,1.72808641 L94.494229,20.3992655 L70.1502899,20.3992655 L65.2581574,26.0326498 L64.8316306,20.3992655 L55.4211056,20.3992655 L55.4211056,1.72808641 L94.494229,1.72808641 Z" id="Stroke-6" stroke="#616872" stroke-width="2.59225923"></path>
                    <path d="M67.6398059,11.3972133 C67.6398059,12.8022178 66.50094,13.9410837 65.0959355,13.9410837 C63.6900669,13.9410837 62.550337,12.8022178 62.550337,11.3972133 C62.550337,9.99220882 63.6900669,8.85247885 65.0959355,8.85247885 C66.50094,8.85247885 67.6398059,9.99220882 67.6398059,11.3972133" id="Fill-7" fill="#616872"></path>
                    <path d="M77.8822542,11.3972133 C77.8822542,12.8022178 76.7433883,13.9410837 75.3383838,13.9410837 C73.9325152,13.9410837 72.7927852,12.8022178 72.7927852,11.3972133 C72.7927852,9.99220882 73.9325152,8.85247885 75.3383838,8.85247885 C76.7433883,8.85247885 77.8822542,9.99220882 77.8822542,11.3972133" id="Fill-8" fill="#616872"></path>
                    <path d="M87.3643928,11.3972133 C87.3643928,12.8022178 86.2255269,13.9410837 84.8205224,13.9410837 C83.4146538,13.9410837 82.2749238,12.8022178 82.2749238,11.3972133 C82.2749238,9.99220882 83.4146538,8.85247885 84.8205224,8.85247885 C86.2255269,8.85247885 87.3643928,9.99220882 87.3643928,11.3972133" id="Fill-9" fill="#616872"></path>
                </g>
            </g>
        </g>
    </g>
</svg>