<?xml version="1.0" encoding="UTF-8"?>
<svg width="120px" height="120px" viewBox="0 0 120 120" version="1.1" xmlns="http://www.w3.org/2000/svg" xmlns:xlink="http://www.w3.org/1999/xlink">
    <title>4D2DA7AF-DD87-428C-84F4-C03F9C71E5CA@1.00x</title>
    <defs>
        <polygon id="path-1" points="0 0.000769230769 92.3075 0.000769230769 92.3075 92.3076923 0 92.3076923"></polygon>
    </defs>
    <g id="Remote_part02" stroke="none" stroke-width="1" fill="none" fill-rule="evenodd">
        <g id="RWS_0120_접속-화면-협업-보드(리더)" transform="translate(-821.000000, -348.000000)">
            <g id="icn_input-files" transform="translate(728.000000, 348.000000)">
                <g id="img_inputfiles" transform="translate(93.000000, 0.000000)">
                    <g id="Group-10">
                        <g id="icn_inputfiles" opacity="0.86" transform="translate(16.615385, 13.846154)">
                            <g id="Group-3">
                                <mask id="mask-2" fill="white">
                                    <use xlink:href="#path-1"></use>
                                </mask>
                                <g id="Clip-2"></g>
                                <path d="M73.6478846,88.5892308 C73.5421154,88.9642308 73.1959615,89.2276923 72.8075,89.2276923 L3.94403846,89.2276923 C3.57480769,89.2276923 3.34980769,89.0180769 3.25942308,88.8892308 C3.16326923,88.7623077 3.01134615,88.4988462 3.06519231,88.2584615 L12.3036538,62.92 L12.3036538,62.9276923 L18.7055769,45.3815385 L18.7498077,45.2603846 C18.8478846,44.8776923 19.1921154,44.6142308 19.5844231,44.6142308 L88.4459615,44.6142308 C89.0325,44.6142308 89.1825,45.4565385 89.2209615,45.8757692 L73.6478846,88.5892308 Z M3.08057692,21.1219231 C3.08057692,20.5084615 3.5825,19.9969231 4.2075,19.9969231 L12.3036538,19.9969231 L12.3036538,53.8988462 L3.08057692,79.0796154 L3.08057692,21.1219231 Z M15.3844231,3.08153846 L47.6940385,3.08153846 L47.6940385,26.1584615 L70.7709615,26.1584615 L70.7709615,41.5430769 L19.5844231,41.5430769 C19.3651923,41.5430769 19.1478846,41.5546154 18.9382692,41.595 C17.4344231,41.8411538 16.1882692,42.9315385 15.8209615,44.3276923 L15.3844231,45.5161538 L15.3844231,3.08153846 Z M50.7671154,5.25076923 L68.5921154,23.0776923 L50.7671154,23.0776923 L50.7671154,5.25076923 Z M78.8767308,30.77 C79.4921154,30.77 80.0036538,31.2738462 80.0036538,31.8969231 L80.0036538,41.5430769 L73.8440385,41.5430769 L73.8440385,30.77 L78.8767308,30.77 Z M88.4459615,41.5430769 L83.0748077,41.5430769 L83.0748077,31.8969231 C83.0748077,29.5757692 81.1901923,27.6892308 78.8767308,27.6892308 L73.8440385,27.6892308 L73.8440385,23.9796154 L73.0844231,23.22 L73.0844231,23.2103846 L61.8613462,11.9873077 L49.8651923,0.000769230769 L12.3036538,0.000769230769 L12.3036538,16.9238462 L4.2075,16.9238462 C1.88442308,16.9238462 -0.000192307692,18.8103846 -0.000192307692,21.1219231 L-0.000192307692,88.3334615 L0.0075,88.3334615 C-0.000192307692,89.2046154 0.270961538,90.0546154 0.811346154,90.7603846 C1.56134615,91.745 2.70365385,92.3084615 3.94403846,92.3084615 L72.8075,92.3084615 C74.5863462,92.3084615 76.1498077,91.1065385 76.5767308,89.52 L92.3075,46.3873077 L92.3075,46.1103846 C92.3075,43.4661538 90.6844231,41.5430769 88.4459615,41.5430769 L88.4459615,41.5430769 Z" id="Fill-1" fill="#FEFEFE" mask="url(#mask-2)"></path>
                            </g>
                            <path d="M24.6169231,26.1576923 L40.0015385,26.1576923 C40.8496154,26.1576923 41.5419231,25.4653846 41.5419231,24.6173077 C41.5419231,23.7673077 40.8496154,23.0769231 40.0015385,23.0769231 L24.6169231,23.0769231 C23.7669231,23.0769231 23.0765385,23.7673077 23.0765385,24.6173077 C23.0765385,25.4653846 23.7669231,26.1576923 24.6169231,26.1576923" id="Fill-4" fill="#FEFEFE"></path>
                            <path d="M24.6169231,15.3846154 L40.0015385,15.3846154 C40.8496154,15.3846154 41.5419231,14.6942308 41.5419231,13.8442308 C41.5419231,12.9961538 40.8496154,12.3038462 40.0015385,12.3038462 L24.6169231,12.3038462 C23.7669231,12.3038462 23.0765385,12.9961538 23.0765385,13.8442308 C23.0765385,14.6942308 23.7669231,15.3846154 24.6169231,15.3846154" id="Fill-6" fill="#FEFEFE"></path>
                            <path d="M24.6169231,36.9215385 L61.5380769,36.9215385 C62.3880769,36.9215385 63.0784615,36.2388462 63.0784615,35.3811538 C63.0784615,34.5330769 62.3880769,33.8503846 61.5380769,33.8503846 L24.6169231,33.8503846 C23.7669231,33.8503846 23.0765385,34.5330769 23.0765385,35.3811538 C23.0765385,36.2388462 23.7669231,36.9215385 24.6169231,36.9215385" id="Fill-8" fill="#FEFEFE"></path>
                        </g>
                        <rect id="tr" x="0" y="0" width="120" height="120"></rect>
                    </g>
                </g>
            </g>
        </g>
    </g>
</svg>