<?xml version="1.0" encoding="UTF-8"?>
<svg width="120px" height="120px" viewBox="0 0 120 120" version="1.1" xmlns="http://www.w3.org/2000/svg" xmlns:xlink="http://www.w3.org/1999/xlink">
    <title>EC122C85-FEDA-4049-A0B4-D021FF26B631@1.00x</title>
    <g id="-" stroke="none" stroke-width="1" fill="none" fill-rule="evenodd" opacity="0.200000003">
        <g id="RNN_0102_카메라-선택-안내-화면(리더)" transform="translate(-720.000000, -424.000000)">
            <g id="frame_imgs" transform="translate(110.000000, 134.000000)">
                <g id="area_copy" transform="translate(575.000000, 290.000000)">
                    <g id="image_videolink" transform="translate(35.000000, 0.000000)">
                        <rect id="tr" opacity="0.449813991" x="0" y="0" width="120" height="120"></rect>
                        <g id="Group-11" transform="translate(7.000000, 22.000000)" fill="#FEFEFE">
                            <path d="M0,-0.0003 L0,65.2457 L12.276,65.2457 L12.276,76.6117 L105.694,76.6117 L105.694,11.3647 L93.418,11.3647 L93.418,-0.0003 L0,-0.0003 Z M3.001,3.0007 L90.419,3.0007 L90.419,11.3647 L12.276,11.3647 L12.276,62.2467 L3.001,62.2467 L3.001,3.0007 Z M15.276,65.2457 L15.276,62.2467 L15.276,14.3657 L90.419,14.3657 L93.418,14.3657 L102.695,14.3657 L102.695,73.6117 L15.276,73.6117 L15.276,65.2457 Z" id="Fill-1"></path>
                            <g id="Group-10" transform="translate(47.000000, 19.611300)">
                                <path d="M1.6371,8.958 C1.2651,8.744 0.8011,9.013 0.8011,9.442 L0.8011,39.311 C0.8011,39.74 1.2651,40.009 1.6371,39.795 L27.6361,24.861 C28.0101,24.646 28.0101,24.107 27.6361,23.893 L1.6371,8.958 Z" id="Fill-2"></path>
                                <path d="M44.9183,3.3306 C44.9183,5.0426 46.3053,6.4306 48.0183,6.4306 C49.7303,6.4306 51.1173,5.0426 51.1173,3.3306 C51.1173,1.6186 49.7303,0.2306 48.0183,0.2306 C46.3053,0.2306 44.9183,1.6186 44.9183,3.3306" id="Fill-4" opacity="0.400000006"></path>
                                <path d="M39.1312,0.231 C37.4182,0.231 36.0302,1.619 36.0302,3.331 C36.0302,5.043 37.4182,6.431 39.1312,6.431 C40.8422,6.431 42.2312,5.043 42.2312,3.331 C42.2312,1.619 40.8422,0.231 39.1312,0.231" id="Fill-6" opacity="0.400000006"></path>
                                <path d="M30.2435,0.231 C28.5315,0.231 27.1435,1.619 27.1435,3.331 C27.1435,5.043 28.5315,6.431 30.2435,6.431 C31.9555,6.431 33.3435,5.043 33.3435,3.331 C33.3435,1.619 31.9555,0.231 30.2435,0.231" id="Fill-8" opacity="0.400000006"></path>
                            </g>
                        </g>
                    </g>
                </g>
            </g>
        </g>
    </g>
</svg>