<?xml version="1.0" encoding="UTF-8"?>
<svg width="56px" height="56px" viewBox="0 0 56 56" version="1.1" xmlns="http://www.w3.org/2000/svg" xmlns:xlink="http://www.w3.org/1999/xlink">
    <title>15C0854B-FB3D-48AF-8F67-EC1BC945D709@1.00x</title>
    <g id="-" stroke="none" stroke-width="1" fill="none" fill-rule="evenodd">
        <g id="RNN_0101-_서비스-화면_기본-화면_2(리더)" transform="translate(-1038.000000, -531.000000)">
            <g id="popup" transform="translate(730.000000, 381.000000)">
                <g id="02" transform="translate(240.000000, 118.000000)">
                    <g id="img_sharing" transform="translate(68.000000, 32.000000)">
                        <rect id="tr" x="0" y="0" width="56" height="56"></rect>
                        <path d="M6,41 L6,47 L12,47 C12,43.68 9.32,41 6,41 Z M6,33 L6,37 C11.52,37 16,41.48 16,47 L20,47 C20,39.26 13.74,33 6,33 Z M42,19 L14,19 L14,22.26 C21.92,24.82 28.18,31.08 30.74,39 L42,39 L42,19 Z M6,25 L6,29 C15.94,29 24,37.06 24,47 L28,47 C28,34.84 18.14,25 6,25 Z M46,11 L10,11 C7.8,11 6,12.8 6,15 L6,21 L10,21 L10,15 L46,15 L46,43 L32,43 L32,47 L46,47 C48.2,47 50,45.2 50,43 L50,15 C50,12.8 48.2,11 46,11 Z" fill="#0F75F5" fill-rule="nonzero"></path>
                    </g>
                </g>
            </g>
        </g>
    </g>
</svg>