<?xml version="1.0" encoding="UTF-8"?>
<svg width="96px" height="96px" viewBox="0 0 96 96" version="1.1" xmlns="http://www.w3.org/2000/svg" xmlns:xlink="http://www.w3.org/1999/xlink">
    <title>FEA3C588-B019-4E30-99E1-2598F24959B5@1x</title>
    <defs>
        <polygon id="path-1" points="0 0.000615384615 73.846 0.000615384615 73.846 73.8461538 0 73.8461538"></polygon>
    </defs>
    <g id="Remote_Main_remote" stroke="none" stroke-width="1" fill="none" fill-rule="evenodd">
        <g id="RMS_0220_접속-화면-협업보드(리더)" transform="translate(-132.000000, -219.000000)">
            <g id="img_inputfiles" transform="translate(45.000000, 219.000000)">
                <g id="Group-10" transform="translate(87.000000, 0.000000)">
                    <g id="icn_inputfiles" opacity="0.86" transform="translate(13.292308, 11.076923)">
                        <g id="Group-3">
                            <mask id="mask-2" fill="white">
                                <use xlink:href="#path-1"></use>
                            </mask>
                            <g id="Clip-2"></g>
                            <path d="M58.9183077,70.8713846 C58.8336923,71.1713846 58.5567692,71.3821538 58.246,71.3821538 L3.15523077,71.3821538 C2.85984615,71.3821538 2.67984615,71.2144615 2.60753846,71.1113846 C2.53061538,71.0098462 2.40907692,70.7990769 2.45215385,70.6067692 L9.84292308,50.336 L9.84292308,50.3421538 L14.9644615,36.3052308 L14.9998462,36.2083077 C15.0783077,35.9021538 15.3536923,35.6913846 15.6675385,35.6913846 L70.7567692,35.6913846 C71.226,35.6913846 71.346,36.3652308 71.3767692,36.7006154 L58.9183077,70.8713846 Z M2.46446154,16.8975385 C2.46446154,16.4067692 2.866,15.9975385 3.366,15.9975385 L9.84292308,15.9975385 L9.84292308,43.1190769 L2.46446154,63.2636923 L2.46446154,16.8975385 Z M12.3075385,2.46523077 L38.1552308,2.46523077 L38.1552308,20.9267692 L56.6167692,20.9267692 L56.6167692,33.2344615 L15.6675385,33.2344615 C15.4921538,33.2344615 15.3183077,33.2436923 15.1506154,33.276 C13.9475385,33.4729231 12.9506154,34.3452308 12.6567692,35.4621538 L12.3075385,36.4129231 L12.3075385,2.46523077 Z M40.6136923,4.20061538 L54.8736923,18.4621538 L40.6136923,18.4621538 L40.6136923,4.20061538 Z M63.1013846,24.616 C63.5936923,24.616 64.0029231,25.0190769 64.0029231,25.5175385 L64.0029231,33.2344615 L59.0752308,33.2344615 L59.0752308,24.616 L63.1013846,24.616 Z M70.7567692,33.2344615 L66.4598462,33.2344615 L66.4598462,25.5175385 C66.4598462,23.6606154 64.9521538,22.1513846 63.1013846,22.1513846 L59.0752308,22.1513846 L59.0752308,19.1836923 L58.4675385,18.576 L58.4675385,18.5683077 L49.4890769,9.58984615 L39.8921538,0.000615384615 L9.84292308,0.000615384615 L9.84292308,13.5390769 L3.366,13.5390769 C1.50753846,13.5390769 -0.000153846154,15.0483077 -0.000153846154,16.8975385 L-0.000153846154,70.6667692 L0.006,70.6667692 C-0.000153846154,71.3636923 0.216769231,72.0436923 0.649076923,72.6083077 C1.24907692,73.396 2.16292308,73.8467692 3.15523077,73.8467692 L58.246,73.8467692 C59.6690769,73.8467692 60.9198462,72.8852308 61.2613846,71.616 L73.846,37.1098462 L73.846,36.8883077 C73.846,34.7729231 72.5475385,33.2344615 70.7567692,33.2344615 L70.7567692,33.2344615 Z" id="Fill-1" fill="#868C94" mask="url(#mask-2)"></path>
                        </g>
                        <path d="M19.6935385,20.9261538 L32.0012308,20.9261538 C32.6796923,20.9261538 33.2335385,20.3723077 33.2335385,19.6938462 C33.2335385,19.0138462 32.6796923,18.4615385 32.0012308,18.4615385 L19.6935385,18.4615385 C19.0135385,18.4615385 18.4612308,19.0138462 18.4612308,19.6938462 C18.4612308,20.3723077 19.0135385,20.9261538 19.6935385,20.9261538" id="Fill-4" fill="#868C94"></path>
                        <path d="M19.6935385,12.3076923 L32.0012308,12.3076923 C32.6796923,12.3076923 33.2335385,11.7553846 33.2335385,11.0753846 C33.2335385,10.3969231 32.6796923,9.84307692 32.0012308,9.84307692 L19.6935385,9.84307692 C19.0135385,9.84307692 18.4612308,10.3969231 18.4612308,11.0753846 C18.4612308,11.7553846 19.0135385,12.3076923 19.6935385,12.3076923" id="Fill-6" fill="#868C94"></path>
                        <path d="M19.6935385,29.5372308 L49.2304615,29.5372308 C49.9104615,29.5372308 50.4627692,28.9910769 50.4627692,28.3049231 C50.4627692,27.6264615 49.9104615,27.0803077 49.2304615,27.0803077 L19.6935385,27.0803077 C19.0135385,27.0803077 18.4612308,27.6264615 18.4612308,28.3049231 C18.4612308,28.9910769 19.0135385,29.5372308 19.6935385,29.5372308" id="Fill-8" fill="#868C94"></path>
                    </g>
                    <rect id="tr" x="0" y="0" width="96" height="96"></rect>
                </g>
            </g>
        </g>
    </g>
</svg>