<?xml version="1.0" encoding="UTF-8"?>
<svg width="56px" height="56px" viewBox="0 0 56 56" version="1.1" xmlns="http://www.w3.org/2000/svg" xmlns:xlink="http://www.w3.org/1999/xlink">
    <title>D2B2CE43-D97C-4E0A-B033-BD5DBF3791EC@1.00x</title>
    <defs>
        <path d="M47.6363636,9 L8.36363636,9 C5.94181818,9 4,10.9777778 4,13.4444444 L4,40.1111111 C4,42.5555556 5.94181818,44.5555556 8.36363636,44.5555556 L19.2727273,44.5555556 L19.2727273,49 L36.7272727,49 L36.7272727,44.5555556 L47.6363636,44.5555556 C50.0363636,44.5555556 52,42.5555556 52,40.1111111 L52,13.4444444 C52,10.9777778 50.0363636,9 47.6363636,9 Z M47,40 L8,40 L8,13 L47,13 L47,40 Z" id="path-1"></path>
    </defs>
    <g id="-" stroke="none" stroke-width="1" fill="none" fill-rule="evenodd">
        <g id="RNN_0101-_서비스-화면_기본-화면_2(리더)" transform="translate(-828.000000, -531.000000)">
            <g id="popup" transform="translate(730.000000, 381.000000)">
                <g id="01" transform="translate(30.000000, 118.000000)">
                    <g id="img_nomal" transform="translate(68.000000, 32.000000)">
                        <rect id="tr" x="0" y="0" width="56" height="56"></rect>
                        <mask id="mask-2" fill="white">
                            <use xlink:href="#path-1"></use>
                        </mask>
                        <use id="icon/av/remove_from_queue_24px" fill="#24A667" fill-rule="nonzero" xlink:href="#path-1"></use>
                    </g>
                </g>
            </g>
        </g>
    </g>
</svg>