<?xml version="1.0" encoding="UTF-8"?>
<svg width="120px" height="120px" viewBox="0 0 120 120" version="1.1" xmlns="http://www.w3.org/2000/svg" xmlns:xlink="http://www.w3.org/1999/xlink">
    <title>F8CB4470-9E33-4F7A-8194-5818468551C2@1.00x</title>
    <g id="Remote_part02" stroke="none" stroke-width="1" fill="none" fill-rule="evenodd">
        <g id="RWS_0121_접속-화면-협업-보드-파일목록(리더)" transform="translate(-821.000000, -410.000000)">
            <g id="icn_input-files" transform="translate(776.000000, 410.000000)">
                <g id="img_inputfiles" transform="translate(45.000000, 0.000000)">
                    <g id="Group-11">
                        <rect id="Rectangle" x="0" y="0" width="120" height="120"></rect>
                        <g id="image_fileshare" transform="translate(11.000000, 11.000000)">
                            <polygon id="Stroke-1" stroke="#FEFEFE" stroke-width="3" points="28.6743375 29.1763223 28.6743375 77.6004596 16.8664 80.5745 0.8214 16.8665 64.5284 0.8205 71.6703213 29.1763223"></polygon>
                            <g id="Group-6" transform="translate(14.000000, 15.016400)">
                                <line x1="0.6135" y1="11.2572" x2="42.8375" y2="0.6222" id="Fill-3" fill="#1E1E20"></line>
                                <line x1="0.6135" y1="11.2572" x2="42.8375" y2="0.6222" id="Stroke-5" stroke="#FEFEFE" stroke-width="3" opacity="0.100000001" stroke-linecap="round"></line>
                            </g>
                            <g id="Group-10" transform="translate(17.000000, 29.016400)">
                                <line x1="0.2038" y1="7.5404" x2="27.3928" y2="0.6924" id="Fill-7" fill="#1E1E20"></line>
                                <line x1="0.2038" y1="7.5404" x2="11.6427" y2="4.1164" id="Stroke-9" stroke="#FEFEFE" stroke-width="3" opacity="0.100000001" stroke-linecap="round"></line>
                            </g>
                            <g id="Group-14" transform="translate(19.000000, 36.016400)">
                                <line x1="0.9016" y1="11.2523" x2="43.1256" y2="0.6173" id="Fill-11" fill="#1E1E20"></line>
                                <line x1="0.9016" y1="11.2523" x2="9.6427" y2="9.01612593" id="Stroke-13" stroke="#FEFEFE" stroke-width="3" opacity="0.100000001" stroke-linecap="round"></line>
                            </g>
                            <path d="M86.8547,94.5162 L28.6427,94.5162 L28.6427,28.8192 L94.3397,28.8192 L94.3397,87.0312 C94.3397,91.1652 90.9887,94.5162 86.8547,94.5162 Z" id="Stroke-17" stroke="#FEFEFE" stroke-width="3"></path>
                            <polyline id="Stroke-19" stroke="#FEFEFE" stroke-width="3" stroke-linecap="round" stroke-linejoin="round" points="94.34 78.5861 79.433 78.5861 79.433 94.5161"></polyline>
                            <g id="Group-24" transform="translate(38.000000, 38.016400)">
                                <line x1="0.6975" y1="0.888" x2="17.0985" y2="0.888" id="Fill-21" fill="#1E1E20"></line>
                                <line x1="0.6975" y1="0.888" x2="17.0985" y2="0.888" id="Stroke-23" stroke="#FEFEFE" stroke-width="3" opacity="0.200000003" stroke-linecap="round"></line>
                            </g>
                            <g id="Group-28" transform="translate(38.000000, 47.016400)">
                                <line x1="0.6975" y1="1.1546" x2="44.2395" y2="1.1546" id="Fill-25" fill="#1E1E20"></line>
                                <line x1="0.6975" y1="1.1546" x2="44.2395" y2="1.1546" id="Stroke-27" stroke="#FEFEFE" stroke-width="3" opacity="0.200000003" stroke-linecap="round"></line>
                            </g>
                            <g id="Group-32" transform="translate(38.000000, 56.016400)">
                                <line x1="0.6975" y1="1.4212" x2="33.6035" y2="1.4212" id="Fill-29" fill="#1E1E20"></line>
                                <line x1="0.6975" y1="1.4212" x2="33.6035" y2="1.4212" id="Stroke-31" stroke="#FEFEFE" stroke-width="3" opacity="0.200000003" stroke-linecap="round"></line>
                            </g>
                            <g id="Group-37" transform="translate(39.000000, 66.016400)" opacity="0.200000003" stroke="#FEFEFE" stroke-width="3">
                                <path d="M20.3659,10.6952 C20.3659,16.2802 15.8379,20.8082 10.2529,20.8082 C4.6679,20.8082 0.1399,16.2802 0.1399,10.6952 C0.1399,5.1102 4.6679,0.5832 10.2529,0.5832 C15.8379,0.5832 20.3659,5.1102 20.3659,10.6952 Z" id="Stroke-35"></path>
                            </g>
                            <g id="Group-42" transform="translate(64.000000, 65.016400)" opacity="0.200000003" stroke="#FEFEFE" stroke-width="2">
                                <path d="M8.5798,4.4969 C8.5798,6.7249 6.7738,8.5299 4.5468,8.5299 C2.3198,8.5299 0.5138,6.7249 0.5138,4.4969 C0.5138,2.2699 2.3198,0.4639 4.5468,0.4639 C6.7738,0.4639 8.5798,2.2699 8.5798,4.4969 Z" id="Stroke-40"></path>
                            </g>
                        </g>
                    </g>
                </g>
            </g>
        </g>
    </g>
</svg>