<?xml version="1.0" encoding="UTF-8"?>
<svg width="33px" height="32px" viewBox="0 0 33 32" version="1.1" xmlns="http://www.w3.org/2000/svg" xmlns:xlink="http://www.w3.org/1999/xlink">
    <title>F21DC2ED-A00D-439E-A755-E3CF34A1131D@1x</title>
    <defs>
        <polygon id="path-1" points="0 0.57 19.689 0.57 19.689 13.7005657 0 13.7005657"></polygon>
        <polygon id="path-3" points="0.1336 0.4582 1.6756 0.4582 1.6756 2 0.1336 2"></polygon>
    </defs>
    <g id="Remote_Main_remote" stroke="none" stroke-width="1" fill="none" fill-rule="evenodd">
        <g id="3D-콘텐츠-제어-패널_리더-화면-_X,Z,Y-회전-버튼" transform="translate(-303.000000, -420.000000)">
            <g id="btn_rotate_key" transform="translate(143.000000, 412.000000)">
                <g id="btn_+Z_rotate" transform="translate(153.000000, 0.000000)">
                    <g id="icon_+Z_rotate" transform="translate(8.000000, 8.000000)">
                        <rect id="tr" x="0" y="0" width="32" height="32"></rect>
                        <g transform="translate(6.000000, 5.000000)">
                            <path d="M11.8027,11.1837 C11.8027,12.3587 10.8507,13.3107 9.6757,13.3107 C8.5007,13.3107 7.5487,12.3587 7.5487,11.1837 C7.5487,10.0087 8.5007,9.0567 9.6757,9.0567 C10.8507,9.0567 11.8027,10.0087 11.8027,11.1837" id="Fill-1" fill="#32373F"></path>
                            <g id="Group-5" transform="translate(0.000000, 0.430100)">
                                <mask id="mask-2" fill="white">
                                    <use xlink:href="#path-1"></use>
                                </mask>
                                <g id="Clip-4"></g>
                                <path d="M9.6756,0.5699 C6.7886,0.5699 4.1886,1.7679 2.3606,3.6839 L-0.0004,1.8889 L0.3636,9.0589 L7.2866,7.4299 L4.6406,5.4179 C6.1086,3.9079 8.1116,2.9769 10.3216,2.9769 C14.8206,2.9769 18.4676,6.8339 18.4676,11.5909 C18.4676,12.1289 18.4206,12.6559 18.3316,13.1679 C18.2346,13.7219 19.0386,13.9219 19.2136,13.3869 C19.5226,12.4419 19.6896,11.4339 19.6896,10.3869 C19.6896,4.9649 15.2056,0.5699 9.6756,0.5699" id="Fill-3" fill="#32373F" mask="url(#mask-2)"></path>
                            </g>
                            <path d="M18.1804,16.4559 C18.1804,16.8819 17.8354,17.2269 17.4094,17.2269 C16.9834,17.2269 16.6384,16.8819 16.6384,16.4559 C16.6384,16.0299 16.9834,15.6849 17.4094,15.6849 C17.8354,15.6849 18.1804,16.0299 18.1804,16.4559" id="Fill-6" fill="#32373F"></path>
                            <path d="M15.9551,18.754 C15.9551,19.18 15.6101,19.525 15.1841,19.525 C14.7581,19.525 14.4131,19.18 14.4131,18.754 C14.4131,18.328 14.7581,17.983 15.1841,17.983 C15.6101,17.983 15.9551,18.328 15.9551,18.754" id="Fill-8" fill="#32373F"></path>
                            <path d="M12.8862,20.2956 C12.8862,20.7216 12.5412,21.0666 12.1152,21.0666 C11.6892,21.0666 11.3442,20.7216 11.3442,20.2956 C11.3442,19.8696 11.6892,19.5246 12.1152,19.5246 C12.5412,19.5246 12.8862,19.8696 12.8862,20.2956" id="Fill-10" fill="#32373F"></path>
                            <g id="Group-14" transform="translate(8.000000, 19.430100)">
                                <mask id="mask-4" fill="white">
                                    <use xlink:href="#path-3"></use>
                                </mask>
                                <g id="Clip-13"></g>
                                <path d="M1.6756,1.2292 C1.6756,1.6552 1.3306,2.0002 0.9046,2.0002 C0.4786,2.0002 0.1336,1.6552 0.1336,1.2292 C0.1336,0.8032 0.4786,0.4582 0.9046,0.4582 C1.3306,0.4582 1.6756,0.8032 1.6756,1.2292" id="Fill-12" fill="#32373F" mask="url(#mask-4)"></path>
                            </g>
                            <path d="M6.4322,19.7139 C6.4322,20.1399 6.0872,20.4849 5.6612,20.4849 C5.2352,20.4849 4.8902,20.1399 4.8902,19.7139 C4.8902,19.2879 5.2352,18.9429 5.6612,18.9429 C6.0872,18.9429 6.4322,19.2879 6.4322,19.7139" id="Fill-15" fill="#32373F"></path>
                            <path d="M3.791,17.7649 C3.791,18.1909 3.446,18.5359 3.02,18.5359 C2.594,18.5359 2.249,18.1909 2.249,17.7649 C2.249,17.3389 2.594,16.9939 3.02,16.9939 C3.446,16.9939 3.791,17.3389 3.791,17.7649" id="Fill-17" fill="#32373F"></path>
                            <path d="M1.7694,15.0742 C1.7694,15.5002 1.4244,15.8452 0.9984,15.8452 C0.5724,15.8452 0.2274,15.5002 0.2274,15.0742 C0.2274,14.6482 0.5724,14.3032 0.9984,14.3032 C1.4244,14.3032 1.7694,14.6482 1.7694,15.0742" id="Fill-19" fill="#32373F"></path>
                        </g>
                    </g>
                </g>
            </g>
        </g>
    </g>
</svg>