<?xml version="1.0" encoding="UTF-8"?>
<svg width="24px" height="24px" viewBox="0 0 24 24" version="1.1" xmlns="http://www.w3.org/2000/svg" xmlns:xlink="http://www.w3.org/1999/xlink">
    <title>14A4F84E-CDA3-4726-B3E8-1A0FC7516020@1x</title>
    <g id="Remote_Main_remote" stroke="none" stroke-width="1" fill="none" fill-rule="evenodd">
        <g id="RWS_0100-_접속-화면_기본-기능-(리더)_더보기-메뉴" transform="translate(-86.000000, -458.000000)" fill="#FFFFFF" fill-rule="nonzero">
            <g id="more_lists" transform="translate(70.000000, 310.000000)">
                <g id="more_list_user" transform="translate(0.000000, 140.000000)">
                    <g transform="translate(16.000000, 8.000000)">
                        <path d="M14.0833333,11.5384615 C15.605,11.5384615 16.8241667,10.3015385 16.8241667,8.76923077 C16.8241667,7.23692308 15.605,6 14.0833333,6 C13.79,6 13.5058333,6.04615385 13.2491667,6.12923077 C13.7716667,6.87692308 14.0741667,7.78153846 14.0741667,8.76923077 C14.0741667,9.75692308 13.7625,10.6523077 13.2491667,11.4092308 C13.5058333,11.4923077 13.79,11.5384615 14.0833333,11.5384615 Z M9.5,11.5384615 C11.0216667,11.5384615 12.2408333,10.3015385 12.2408333,8.76923077 C12.2408333,7.23692308 11.0216667,6 9.5,6 C7.97833333,6 6.75,7.23692308 6.75,8.76923077 C6.75,10.3015385 7.97833333,11.5384615 9.5,11.5384615 Z M15.5683333,13.5323077 C16.3291667,14.2061538 16.8333333,15.0646154 16.8333333,16.1538462 L16.8333333,18 L19.5833333,18 L19.5833333,16.1538462 C19.5833333,14.7323077 17.4108333,13.8553846 15.5683333,13.5323077 Z M9.5,13.3846154 C7.66666667,13.3846154 4,14.3076923 4,16.1538462 L4,18 L15,18 L15,16.1538462 C15,14.3076923 11.3333333,13.3846154 9.5,13.3846154 Z"></path>
                    </g>
                </g>
            </g>
        </g>
    </g>
</svg>