<?xml version="1.0" encoding="UTF-8"?>
<svg width="40px" height="40px" viewBox="0 0 40 40" version="1.1" xmlns="http://www.w3.org/2000/svg" xmlns:xlink="http://www.w3.org/1999/xlink">
    <title>33328505-FA41-45D1-BD86-62A00B794CB1@1x</title>
    <g id="3D-Object-공유" stroke="none" stroke-width="1" fill="none" fill-rule="evenodd">
        <g id="3DO_0020-_3D-파일-업로드_리더-권한_Mobile-Web-_AR-드로잉-화면일-경우" transform="translate(-304.000000, -439.000000)">
            <g id="expand-button" transform="translate(304.000000, 284.000000)">
                <g id="icon_3D" transform="translate(0.000000, 155.000000)">
                    <polygon id="tr" opacity="0.234514509" points="0 0 40 0 40 40 0 40"></polygon>
                    <g id="Group-19" transform="translate(10.000000, 8.000000)" fill="#FFFFFF">
                        <path d="M10.129,23.4305 C10.016,23.3565 9.907,23.2755 9.79,23.2075 C8.746,22.6035 7.701,22.0025 6.657,21.3995 C6.586,21.3585 6.517,21.3115 6.432,21.2585 C6.662,20.8605 6.885,20.4725 7.117,20.0715 C7.778,20.4525 8.424,20.8255 9.071,21.1985 C9.388,21.3815 9.709,21.5585 10.021,21.7505 C10.134,21.8185 10.215,21.8185 10.33,21.7515 C11.22,21.2305 12.114,20.7185 13.006,20.2045 C13.078,20.1635 13.15,20.1245 13.236,20.0765 C13.466,20.4745 13.689,20.8615 13.922,21.2655 C13.492,21.5155 13.078,21.7565 12.663,21.9965 C11.903,22.4355 11.142,22.8735 10.383,23.3125 C10.325,23.3465 10.275,23.3905 10.221,23.4305 L10.129,23.4305 Z" id="Fill-1"></path>
                        <path d="M10.8742,19.8257 C10.8702,19.7367 10.8642,19.6707 10.8642,19.6047 C10.8642,17.1667 10.8642,14.7297 10.8622,12.2917 C10.8622,12.1607 10.8812,12.0727 11.0122,11.9967 C13.1502,10.7697 15.2842,9.5347 17.4192,8.3017 C17.4582,8.2797 17.5002,8.2627 17.5842,8.2217 C17.5842,8.3287 17.5842,8.4087 17.5842,8.4877 C17.5842,10.9027 17.5832,13.3167 17.5852,15.7317 C17.5852,15.8757 17.5702,15.9797 17.4192,16.0667 C15.2872,17.2887 13.1602,18.5197 11.0312,19.7487 C10.9872,19.7747 10.9392,19.7937 10.8742,19.8257" id="Fill-3"></path>
                        <path d="M2.7837,8.218 C3.1397,8.423 3.4697,8.611 3.7977,8.801 C5.6357,9.862 7.4727,10.923 9.3127,11.981 C9.4267,12.047 9.4897,12.113 9.4897,12.262 C9.4847,14.73 9.4857,17.198 9.4857,19.666 C9.4857,19.71 9.4807,19.755 9.4777,19.824 C9.4027,19.786 9.3427,19.759 9.2857,19.727 C7.1767,18.51 5.0687,17.292 2.9577,16.078 C2.8277,16.003 2.7607,15.927 2.76168897,15.761 C2.7677,13.323 2.7657,10.886 2.7667,8.448 C2.7667,8.383 2.7757,8.317 2.7837,8.218" id="Fill-5"></path>
                        <path d="M16.8856,7.0168 C15.8396,7.6208 14.8286,8.2048 13.8176,8.7888 C12.6746,9.4498 11.5286,10.1068 10.3886,10.7728 C10.2386,10.8598 10.1316,10.8698 9.9756,10.7788 C7.8826,9.5638 5.7856,8.3558 3.6896,7.1458 C3.6256,7.1088 3.5626,7.0678 3.4796,7.0168 C3.5436,6.9738 3.5896,6.9378 3.6396,6.9088 C5.7556,5.6868 7.8716,4.4658 9.9846,3.2408 C10.1166,3.1638 10.2136,3.1488 10.3566,3.2318 C12.4756,4.4628 14.5986,5.6868 16.7206,6.9118 C16.7656,6.9378 16.8086,6.9678 16.8856,7.0168" id="Fill-7"></path>
                        <path d="M7.1173,3.3035 C6.8853,2.9015 6.6643,2.5195 6.4333,2.1205 C6.4953,2.0795 6.5483,2.0405 6.6053,2.0075 C7.7413,1.3495 8.8783,0.6915 10.0193,0.0405 C10.0933,-0.0015 10.2303,-0.0165 10.2993,0.0225 C11.4813,0.6945 12.6563,1.3755 13.8333,2.0565 C13.8583,2.0705 13.8793,2.0925 13.9153,2.1215 C13.6883,2.5145 13.4643,2.9025 13.2343,3.3015 C12.3603,2.7975 11.4873,2.3245 10.6493,1.7965 C10.2943,1.5725 10.0433,1.5855 9.6953,1.8025 C8.8603,2.3245 7.9953,2.7965 7.1173,3.3035" id="Fill-9"></path>
                        <path d="M15.9098,4.84 C16.1438,4.436 16.3648,4.054 16.5968,3.653 C16.9438,3.853 17.2788,4.045 17.6138,4.238 C18.4588,4.726 19.3028,5.217 20.1518,5.699 C20.2938,5.78 20.3538,5.866 20.3528123,6.036 C20.3448,7.319 20.3488,8.602 20.3488,9.885 L20.3488,10.124 L18.9678,10.124 C18.9678,10.038 18.9678,9.951 18.9678,9.863 C18.9678,8.855 18.9638,7.847 18.9718,6.839 C18.9728,6.673 18.9228,6.581 18.7758,6.498 C17.8928,5.998 17.0168,5.487 16.1378,4.98 C16.0658,4.938 15.9968,4.893 15.9098,4.84" id="Fill-11"></path>
                        <path d="M18.9682,13.247 L20.3482,13.247 C20.3482,13.332 20.3482,13.406 20.3482,13.48 C20.3482,14.77 20.3482,16.061 20.3492,17.351 C20.3492,17.468 20.3492,17.563 20.2202,17.636 C19.0342,18.313 17.8532,18.998 16.6702,19.679 C16.6522,19.69 16.6302,19.695 16.5902,19.711 C16.3662,19.323 16.1422,18.935 15.9102,18.535 C15.9882,18.487 16.0572,18.442 16.1292,18.4 C17.0142,17.889 17.8982,17.375 18.7872,16.87 C18.9242,16.792 18.9732,16.703 18.9722,16.546 C18.9652,15.546 18.9682,14.545 18.9682,13.545 C18.9682,13.454 18.9682,13.363 18.9682,13.247" id="Fill-13"></path>
                        <path d="M1.3814,10.1266 L0.0114,10.1266 C0.0074,10.0406 0.0014,9.9666 0.0014,9.8916 C0.0014,8.6016 0.0014,7.3106 0.0004,6.0206 C-0.0006,5.9016 0.0074,5.8096 0.1334,5.7376 C1.3324,5.0536 2.5264,4.3616 3.7534,3.6536 C3.9814,4.0476 4.2074,4.4376 4.4434,4.8456 C4.0894,5.0506 3.7484,5.2496 3.4064,5.4476 C2.7914,5.8026 2.1794,6.1606 1.5604,6.5076 C1.4214,6.5856 1.3774,6.6766 1.3784,6.8326 C1.3844,7.8326 1.3814,8.8326 1.3814,9.8336 C1.3814,9.9236 1.3814,10.0146 1.3814,10.1266" id="Fill-15"></path>
                        <path d="M0.0217,13.2477 L1.3817,13.2477 C1.3817,13.3407 1.3817,13.4217 1.3817,13.5037 C1.3817,14.5117 1.3867,15.5197 1.3767,16.5277 C1.3747,16.7067 1.4367,16.7967 1.5877,16.8827 C2.4637,17.3787 3.3337,17.8857 4.2047,18.3897 C4.2767,18.4307 4.3477,18.4747 4.4407,18.5297 C4.2137,18.9237 3.9917,19.3107 3.7617,19.7107 C3.7077,19.6847 3.6597,19.6667 3.6167,19.6417 C2.4667,18.9787 1.3167,18.3177 0.1707,17.6477 C0.0947,17.6037 0.0087,17.4947 0.0087,17.4147 C-0.0013,16.0557 0.00166765531,14.6967 0.0037,13.3377 C0.0037,13.3157 0.0117,13.2937 0.0217,13.2477" id="Fill-17"></path>
                    </g>
                </g>
            </g>
        </g>
    </g>
</svg>