<?xml version="1.0" encoding="UTF-8"?>
<svg width="24px" height="24px" viewBox="0 0 24 24" version="1.1" xmlns="http://www.w3.org/2000/svg" xmlns:xlink="http://www.w3.org/1999/xlink">
    <title>9DD67BB7-FECD-417D-8F88-636BE041CF85@1x</title>
    <defs>
        <path d="M21.4888889,4.47777778 L19.9444444,2.61111111 C19.6444444,2.23333333 19.1888889,2 18.6666667,2 L5.33333333,2 C4.81111111,2 4.35555556,2.23333333 4.04444444,2.61111111 L2.51111111,4.47777778 C2.18888889,4.85555556 2,5.35555556 2,5.88888889 L2,19.7777778 C2,21 3,22 4.22222222,22 L19.7777778,22 C21,22 22,21 22,19.7777778 L22,5.88888889 C22,5.35555556 21.8111111,4.85555556 21.4888889,4.47777778 Z M12,18.1111111 L5.88888889,12 L9.77777778,12 L9.77777778,9.77777778 L14.2222222,9.77777778 L14.2222222,12 L18.1111111,12 L12,18.1111111 Z M4.35555556,4.22222222 L5.25555556,3.11111111 L18.5888889,3.11111111 L19.6333333,4.22222222 L4.35555556,4.22222222 Z" id="path-1"></path>
    </defs>
    <g id="Remote_Main_remote" stroke="none" stroke-width="1" fill="none" fill-rule="evenodd">
        <g id="RMS_0220_접속-화면-협업보드(리더)" transform="translate(-208.000000, -570.000000)">
            <g id="Bottom_menu_leader" transform="translate(0.000000, 479.000000)">
                <g id="board" transform="translate(30.000000, 73.000000)">
                    <g id="btn_download" transform="translate(160.000000, 0.000000)">
                        <g id="icon" transform="translate(18.000000, 18.000000)">
                            <rect id="icon_download" opacity="0.174409412" x="0" y="0" width="24" height="24"></rect>
                            <mask id="mask-2" fill="white">
                                <use xlink:href="#path-1"></use>
                            </mask>
                            <use id="icon/content/archive_24px" fill="#32373F" xlink:href="#path-1"></use>
                        </g>
                    </g>
                </g>
            </g>
        </g>
    </g>
</svg>