<?xml version="1.0" encoding="UTF-8"?>
<svg width="32px" height="32px" viewBox="0 0 32 32" version="1.1" xmlns="http://www.w3.org/2000/svg" xmlns:xlink="http://www.w3.org/1999/xlink">
    <title>F91D69BF-4AC7-45B5-BD4A-84580CB09710@1x</title>
    <defs>
        <path d="M25.8318515,21.5741452 L31.8614054,16.2240744 C32.0679589,16.0407979 32.0868286,15.7247783 31.9035521,15.5182248 C31.8903538,15.5033503 31.8762799,15.4892764 31.8614054,15.4760782 L25.8318515,10.1260074 C25.625298,9.94273088 25.3092784,9.96160058 25.1260019,10.168154 C25.0448278,10.2596376 25,10.3777007 25,10.5000055 L25,21.200147 C25,21.4762894 25.2238576,21.700147 25.5,21.700147 C25.6223048,21.700147 25.7403679,21.6553192 25.8318515,21.5741452 Z" id="path-1"></path>
    </defs>
    <g id="Remote_Cowork" stroke="none" stroke-width="1" fill="none" fill-rule="evenodd">
        <g id="3CI_0012-_3D-콘텐츠-제어-패널_리더-화면-_X,Z,Y-이동-버튼" transform="translate(-1380.000000, -636.000000)">
            <g id="content-control-panel" transform="translate(1149.000000, 506.000000)">
                <g id="btn_move_key" transform="translate(115.000000, 65.000000)">
                    <g id="btn_+X_move" transform="translate(102.000000, 51.000000)">
                        <g id="icon_+X" transform="translate(14.000000, 14.000000)">
                            <rect id="tr" x="0" y="0" width="32" height="32"></rect>
                            <path d="M8.35449219,19.0732422 L8.35449219,16.324707 L10.7666016,16.324707 L10.7666016,14.9155273 L8.35449219,14.9155273 L8.35449219,12.3447266 L6.85644531,12.3447266 L6.85644531,14.9155273 L4.43164062,14.9155273 L4.43164062,16.324707 L6.85644531,16.324707 L6.85644531,19.0732422 L8.35449219,19.0732422 Z M13.3691406,20 L15.3623047,16.6103516 L17.3491211,20 L19.2216797,20 L16.3652344,15.3408203 L19.1582031,10.7578125 L17.3046875,10.7578125 L15.3623047,14.0966797 L13.4199219,10.7578125 L11.5664062,10.7578125 L14.3657227,15.3408203 L11.5029297,20 L13.3691406,20 Z" id="+X" fill="#5E666D" fill-rule="nonzero"></path>
                            <mask id="mask-2" fill="white">
                                <use xlink:href="#path-1"></use>
                            </mask>
                            <use id="icon/navigation/arrow_right_24px-2" fill="#32373F" fill-rule="nonzero" xlink:href="#path-1"></use>
                        </g>
                    </g>
                </g>
            </g>
        </g>
    </g>
</svg>