<?xml version="1.0" encoding="UTF-8"?>
<svg width="22px" height="22px" viewBox="0 0 22 22" version="1.1" xmlns="http://www.w3.org/2000/svg" xmlns:xlink="http://www.w3.org/1999/xlink">
    <title>C9BBB6A1-1A23-4F2E-BF59-EA5CBA1C82D7@1x</title>
    <defs>
        <path d="M2.78463519,1.60667464 L9.91373178,8.73679535 C10.3393158,8.46338058 10.8456942,8.3047957 11.3891122,8.3047957 C12.8986535,8.3047957 14.1223785,9.52852073 14.1223785,11.0380621 C14.1223785,11.5811774 13.9639702,12.0872946 13.6908354,12.5127315 L20.2866507,19.1086902 L19.0020155,20.3933254 L16.936,18.3266746 L4.10040189,18.3267723 C3.14831411,18.3267723 2.36067786,17.5867405 2.28429445,16.6534781 L2.27822432,16.5045948 L2.27822432,5.57152935 C2.27822432,5.05048387 2.4998641,4.57869167 2.85351942,4.24577699 L1.5,2.89130982 L2.78463519,1.60667464 Z M14.1223785,1.92717421 L15.789671,3.74935178 L18.6778224,3.74935178 C19.6800201,3.74935178 20.5,4.56933169 20.5,5.57152935 L20.5,5.57152935 L20.5,16.5045948 C20.5,16.5855943 20.4946437,16.6654035 20.4842679,16.7436858 L15.8237003,12.084197 C15.9027387,11.7482572 15.9445561,11.3980134 15.9445561,11.0380621 C15.9445561,8.52345701 13.9037172,6.48261813 11.3891122,6.48261813 C11.0295218,6.48261813 10.6796197,6.52435167 10.3439881,6.60323622 L7.227,3.48767464 L8.65584581,1.92717421 L14.1223785,1.92717421 Z M7.41673545,8.8076097 C7.04549077,9.46698716 6.83366824,10.2279381 6.83366824,11.0380621 C6.83366824,13.5526671 8.87450712,15.593506 11.3891122,15.593506 C12.1991229,15.593506 12.9599743,15.3817427 13.619288,15.0105944 L12.2429701,13.6353137 C11.9743221,13.7235806 11.6872932,13.7713284 11.3891122,13.7713284 C9.87957084,13.7713284 8.65584581,12.5476034 8.65584581,11.0380621 C8.65584581,10.7396342 8.70367274,10.4523769 8.79207984,10.183537 Z" id="path-1"></path>
    </defs>
    <g id="Remote_Main_remote" stroke="none" stroke-width="1" fill="none" fill-rule="evenodd">
        <g id="RWS_0100-_접속-화면_기본-기능-(리더)_더보기-메뉴_카메라제어" transform="translate(-90.000000, -499.000000)">
            <g id="camera" transform="translate(70.000000, 356.000000)">
                <g id="icon_camera_off" transform="translate(0.000000, 134.000000)">
                    <g transform="translate(20.000000, 9.000000)">
                        <mask id="mask-2" fill="white">
                            <use xlink:href="#path-1"></use>
                        </mask>
                        <use id="icon/image/camera_alt_24px" fill="#FFFFFF" fill-rule="nonzero" xlink:href="#path-1"></use>
                    </g>
                </g>
            </g>
        </g>
    </g>
</svg>