<?xml version="1.0" encoding="UTF-8"?>
<svg width="96px" height="96px" viewBox="0 0 96 96" version="1.1" xmlns="http://www.w3.org/2000/svg" xmlns:xlink="http://www.w3.org/1999/xlink">
    <title>BA493618-FD5A-45A7-9F1A-0C53C895FC8D@1x</title>
    <g id="Remote_collabo_Mobile" stroke="none" stroke-width="1" fill="none" fill-rule="evenodd">
        <g id="RWS_0100-_접속-화면_기본-기능-_영상-연결중(리더)" transform="translate(-132.000000, -240.000000)">
            <g id="image_videolink" transform="translate(132.000000, 240.000000)">
                <rect id="tr" opacity="0.449813991" x="0" y="0" width="96" height="96"></rect>
                <g id="Group-20" transform="translate(2.400000, 15.600000)">
                    <polygon id="Stroke-2" stroke="#616872" stroke-width="2.4" opacity="0.600000024" points="0.4 55.29824 72.7344 55.29824 72.7344 0.39984 0.4 0.39984"></polygon>
                    <polygon id="Fill-4" fill="#616872" opacity="0.800000012" points="25.49616 15.12952 25.49616 40.56792 47.63856 27.84872"></polygon>
                    <g id="Group-19" transform="translate(48.800000, 5.232640)">
                        <path d="M19.07352,2.90392 C19.07352,4.27352 17.96312,5.38392 16.59352,5.38392 C15.22392,5.38392 14.11352,4.27352 14.11352,2.90392 C14.11352,1.53432 15.22392,0.42392 16.59352,0.42392 C17.96312,0.42392 19.07352,1.53432 19.07352,2.90392" id="Fill-5" fill="#3E454F"></path>
                        <path d="M9.88368,0.42424 C11.25328,0.42424 12.36448,1.53464 12.36448,2.90424 C12.36448,4.27384 11.25328,5.38424 9.88368,5.38424 C8.51408,5.38424 7.40368,4.27384 7.40368,2.90424 C7.40368,1.53464 8.51408,0.42424 9.88368,0.42424" id="Fill-7" fill="#3E454F"></path>
                        <path d="M3.17432,0.42424 C4.54392,0.42424 5.65432,1.53464 5.65432,2.90424 C5.65432,4.27384 4.54392,5.38424 3.17432,5.38424 C1.80472,5.38424 0.69432,4.27384 0.69432,2.90424 C0.69432,1.53464 1.80472,0.42424 3.17432,0.42424" id="Fill-9" fill="#3E454F"></path>
                        <path d="M42.12816,43.27504 C42.12816,54.05824 33.38656,62.79984 22.60336,62.79984 C11.82016,62.79984 3.07856,54.05824 3.07856,43.27504 C3.07856,32.49184 11.82016,23.75024 22.60336,23.75024 C33.38656,23.75024 42.12816,32.49184 42.12816,43.27504" id="Fill-11" fill="#1C2024"></path>
                        <path d="M42.12816,43.27504 C42.12816,54.05824 33.38656,62.79984 22.60336,62.79984 C11.82016,62.79984 3.07856,54.05824 3.07856,43.27504 C3.07856,32.49184 11.82016,23.75024 22.60336,23.75024 C33.38656,23.75024 42.12816,32.49184 42.12816,43.27504 Z" id="Stroke-13" stroke="#616872" stroke-width="2.4"></path>
                        <path d="M32.02744,35.7844 C32.05304,37.002 32.06984,38.2204 32.10904,39.4388 C32.13624,40.314 32.19384,41.1884 32.24584,42.2188 C30.01864,41.6444 27.90024,41.0972 25.54744,40.4908 C26.38344,39.8084 27.02984,39.2804 27.67144,38.7564 C25.67224,36.1956 21.67624,35.63 19.05624,37.4284 C17.60504,38.4252 16.64744,39.746 16.20424,41.4516 C15.96984,42.3532 15.32904,42.762 14.56104,42.546 C13.84904,42.3468 13.50904,41.6852 13.73544,40.8052 C14.59704,37.4516 16.70264,35.2068 19.99304,34.214 C23.28424,33.2196 26.27624,33.942 28.86584,36.2332 C29.14504,36.4804 29.41784,36.734 29.74264,37.0284 C30.40344,36.4876 31.06264,35.9492 31.72264,35.4108 L32.02744,35.7844 Z" id="Fill-15" fill="#616872"></path>
                        <path d="M17.50088,47.81448 C19.50888,50.38488 23.49768,50.95768 26.10968,49.15608 C27.55528,48.15928 28.54328,46.86168 28.97208,45.14168 C29.19848,44.23368 29.83768,43.82648 30.61208,44.02888 C31.31448,44.21208 31.67448,44.89768 31.45048,45.76728 C30.58408,49.12008 28.47128,51.36008 25.18568,52.36008 C21.92488,53.35208 18.95288,52.64008 16.36648,50.39928 C16.06408,50.13768 15.77768,49.85848 15.43608,49.54408 C14.79528,50.06648 14.15768,50.58728 13.28728,51.29848 C13.16248,48.88888 13.05048,46.70568 12.92808,44.36008 C15.15048,44.93288 17.26808,45.47928 19.61768,46.08488 C18.78648,46.76408 18.14168,47.29128 17.50088,47.81448" id="Fill-17" fill="#616872"></path>
                    </g>
                </g>
            </g>
        </g>
    </g>
</svg>