<?xml version="1.0" encoding="UTF-8"?>
<svg width="24px" height="24px" viewBox="0 0 24 24" version="1.1" xmlns="http://www.w3.org/2000/svg" xmlns:xlink="http://www.w3.org/1999/xlink">
    <title>F3E3387A-7E3E-4217-93A3-2DE410FF50CD@1x</title>
    <g id="Remote_collabo_Mobile" stroke="none" stroke-width="1" fill="none" fill-rule="evenodd">
        <g id="RWS_0060-_접속화면_참가자-정보-오픈방(추가-초대-없음)" transform="translate(-310.000000, -107.000000)">
            <g id="2.frame-" transform="translate(180.000000, 68.000000)">
                <g id="icon" transform="translate(130.000000, 12.000000)">
                    <g id="icon_mic" transform="translate(0.000000, 27.000000)">
                        <rect id="tr" x="0" y="0" width="24" height="24"></rect>
                        <circle id="icon_bg" fill="#272B30" cx="12" cy="12" r="12"></circle>
                        <g id="Group" transform="translate(6.000000, 6.000000)" fill="#A6ACB3">
                            <path d="M9.60250391,6 C9.60250391,6.45121951 9.50234742,6.87195122 9.33333333,7.25 L10.1032864,8 C10.4538341,7.40243902 10.6666667,6.72560976 10.6666667,6 L9.60250391,6 Z M7.98666667,6 C7.98666667,5.96074155 8,5.92802617 8,5.88876772 L8,1.96292257 C8,0.876772083 7.10666667,-7.72715225e-14 6,-7.72715225e-14 C4.89333333,-7.72715225e-14 4,0.876772083 4,1.96292257 L4,2.08069793 L7.98666667,6 Z M0.846666667,0.666666667 L0,1.51333333 L4.00666667,5.52 L4.00666667,6 C4.00666667,7.10666667 4.89333333,8 6,8 C6.14666667,8 6.29333333,7.98 6.43333333,7.94666667 L7.54,9.05333333 C7.06666667,9.27333333 6.54,9.4 6,9.4 C4.16,9.4 2.46666667,8 2.46666667,6 L1.33333333,6 C1.33333333,8.27333333 3.14666667,10.1533333 5.33333333,10.48 L5.33333333,12.6666667 L6.66666667,12.6666667 L6.66666667,10.48 C7.27333333,10.3933333 7.84666667,10.18 8.36,9.88 L11.1533333,12.6666667 L12,11.82 L0.846666667,0.666666667 Z" id="Shape"></path>
                        </g>
                    </g>
                </g>
            </g>
        </g>
    </g>
</svg>