<?xml version="1.0" encoding="UTF-8"?>
<svg width="33px" height="32px" viewBox="0 0 33 32" version="1.1" xmlns="http://www.w3.org/2000/svg" xmlns:xlink="http://www.w3.org/1999/xlink">
    <title>4DA0C8D0-E1A0-4BB4-9AFF-F46C701936A3@1x</title>
    <defs>
        <polygon id="path-1" points="0.8618 0.815 12.1838 0.815 12.1838 16.5154307 0.8618 16.5154307"></polygon>
        <polygon id="path-3" points="0.4 0.5381 1.431 0.5381 1.431 2 0.4 2"></polygon>
        <polygon id="path-5" points="0.5803 0.1049 4.387 0.1049 4.387 2.4199 0.5803 2.4199"></polygon>
    </defs>
    <g id="Remote_Main_remote" stroke="none" stroke-width="1" fill="none" fill-rule="evenodd">
        <g id="3D-콘텐츠-제어-패널_리더-화면-_X,Z,Y-회전-버튼" transform="translate(-207.000000, -528.000000)">
            <g id="btn_rotate_key" transform="translate(143.000000, 412.000000)">
                <g id="btn_-X_rotate" transform="translate(51.000000, 102.000000)">
                    <g id="icon_-X_rotate" transform="translate(14.000000, 14.000000)">
                        <rect id="tr" x="0" y="0" width="32" height="32"></rect>
                        <g id="Group-22" transform="translate(16.000000, 16.000000) scale(-1, -1) translate(-16.000000, -16.000000) translate(5.500000, 5.000000)">
                            <g id="Group-3" transform="translate(3.000000, 0.185000)">
                                <mask id="mask-2" fill="white">
                                    <use xlink:href="#path-1"></use>
                                </mask>
                                <g id="Clip-2"></g>
                                <path d="M5.7538,1.2489 C4.4848,1.2489 3.3018,1.8109 2.3058,2.7789 C2.3018,2.7829 2.2968,2.7819 2.2938,2.7779 L0.9198,0.8189 C0.9148,0.8119 0.9048,0.81497626 0.9048,0.8229 L0.8618,7.3639 C0.8618,7.3689 0.8648,7.3719 0.8698,7.3719 L5.5008,7.3719 C5.5068,7.3719 5.5108,7.3649 5.5068,7.3599 L3.9548,5.1459 C3.9518,5.1429 3.9528,5.1379 3.9558,5.1359 C4.6498,4.4819 5.4468,4.1089 6.2938,4.1089 C8.9868,4.1089 11.1698,7.8639 11.1698,12.4969 C11.1698,13.8169 10.9598,15.0669 10.6428,16.1779 C10.5528,16.4969 11.0128,16.6579 11.1408,16.3519 C11.7808,14.8259 12.1838,13.0119 12.1838,11.0659 C12.1838,5.6439 9.3048,1.2489 5.7538,1.2489" id="Fill-1" fill="#32373F" mask="url(#mask-2)"></path>
                            </g>
                            <path d="M13.4306,18.2434 C13.4306,18.6474 13.1996,18.9744 12.9156,18.9744 C12.6306,18.9744 12.3996,18.6474 12.3996,18.2434 C12.3996,17.8394 12.6306,17.5124 12.9156,17.5124 C13.1996,17.5124 13.4306,17.8394 13.4306,18.2434" id="Fill-4" fill="#32373F"></path>
                            <path d="M11.4235,19.8142 C11.4235,20.2182 11.1925,20.5452 10.9085,20.5452 C10.6235,20.5452 10.3925,20.2182 10.3925,19.8142 C10.3925,19.4102 10.6235,19.0832 10.9085,19.0832 C11.1925,19.0832 11.4235,19.4102 11.4235,19.8142" id="Fill-6" fill="#32373F"></path>
                            <g id="Group-10" transform="translate(8.000000, 19.185000)">
                                <mask id="mask-4" fill="white">
                                    <use xlink:href="#path-3"></use>
                                </mask>
                                <g id="Clip-9"></g>
                                <path d="M1.431,1.2691 C1.431,1.6731 1.2,2.0001 0.916,2.0001 C0.631,2.0001 0.4,1.6731 0.4,1.2691 C0.4,0.8651 0.631,0.5381 0.916,0.5381 C1.2,0.5381 1.431,0.8651 1.431,1.2691" id="Fill-8" fill="#32373F" mask="url(#mask-4)"></path>
                            </g>
                            <path d="M7.4529,19.7233 C7.4529,20.1273 7.2219,20.4543 6.9379,20.4543 C6.6529,20.4543 6.4219,20.1273 6.4219,19.7233 C6.4219,19.3193 6.6529,18.9923 6.9379,18.9923 C7.2219,18.9923 7.4529,19.3193 7.4529,19.7233" id="Fill-11" fill="#32373F"></path>
                            <path d="M5.8821,18.2434 C5.8821,18.6474 5.6511,18.9744 5.3671,18.9744 C5.0821,18.9744 4.8511,18.6474 4.8511,18.2434 C4.8511,17.8394 5.0821,17.5124 5.3671,17.5124 C5.6511,17.5124 5.8821,17.8394 5.8821,18.2434" id="Fill-13" fill="#32373F"></path>
                            <path d="M4.4568,15.7709 C4.4568,16.1749 4.2258,16.5019 3.9418,16.5019 C3.6568,16.5019 3.4258,16.1749 3.4258,15.7709 C3.4258,15.3669 3.6568,15.0399 3.9418,15.0399 C4.2258,15.0399 4.4568,15.3669 4.4568,15.7709" id="Fill-15" fill="#32373F"></path>
                            <path d="M12.479,10.2899 L1.407,10.2899 C0.63,10.2899 0,10.8079 0,11.4479 L0,11.4479 C0,12.0869 0.63,12.6049 1.407,12.6049 L12.479,12.6049 L12.479,10.2899 Z" id="Fill-17" fill="#32373F"></path>
                            <g id="Group-21" transform="translate(16.000000, 10.185000)">
                                <mask id="mask-6" fill="white">
                                    <use xlink:href="#path-5"></use>
                                </mask>
                                <g id="Clip-20"></g>
                                <path d="M2.9803,0.1049 L0.5803,0.1049 L0.5803,2.4199 L2.9803,2.4199 C3.7573,2.4199 4.3873,1.9019 4.3873,1.2629 L4.3873,1.2629 C4.3873,0.6229 3.7573,0.1049 2.9803,0.1049" id="Fill-19" fill="#32373F" mask="url(#mask-6)"></path>
                            </g>
                        </g>
                    </g>
                </g>
            </g>
        </g>
    </g>
</svg>