<?xml version="1.0" encoding="UTF-8"?>
<svg width="24px" height="24px" viewBox="0 0 24 24" version="1.1" xmlns="http://www.w3.org/2000/svg" xmlns:xlink="http://www.w3.org/1999/xlink">
    <title>EC1A97FA-D17E-4908-ADE0-47680D31D2B5@1x</title>
    <g id="Remote_collabo_Mobile" stroke="none" stroke-width="1" fill="none" fill-rule="evenodd">
        <g id="RMS_0201_접속-화면-실시간-공유_영상-없음(리더)" transform="translate(-88.000000, -570.000000)">
            <g id="Bottom_menu_leader" transform="translate(0.000000, 479.000000)">
                <g id="btn_more" transform="translate(70.000000, 73.000000)">
                    <g id="icon_more" transform="translate(12.000000, 12.000000)">
                        <polygon points="0 0 36 0 36 36 0 36"></polygon>
                        <path d="M27.4285714,19.5714286 L19.5714286,19.5714286 L19.5714286,19.5714286 L19.5714286,27.4285714 C19.5714286,28.2964475 18.867876,29 18,29 C17.132124,29 16.4285714,28.2964475 16.4285714,27.4285714 L16.4285714,19.5714286 L16.4285714,19.5714286 L8.57142857,19.5714286 C7.70355254,19.5714286 7,18.867876 7,18 C7,17.132124 7.70355254,16.4285714 8.57142857,16.4285714 L16.4285714,16.4285714 L16.4285714,16.4285714 L16.4285714,8.57142857 C16.4285714,7.70355254 17.132124,7 18,7 C18.867876,7 19.5714286,7.70355254 19.5714286,8.57142857 L19.5714286,16.4285714 L19.5714286,16.4285714 L27.4285714,16.4285714 C28.2964475,16.4285714 29,17.132124 29,18 C29,18.867876 28.2964475,19.5714286 27.4285714,19.5714286 Z" fill="#FFFFFF" fill-rule="nonzero"></path>
                    </g>
                </g>
            </g>
        </g>
    </g>
</svg>