<?xml version="1.0" encoding="UTF-8"?>
<svg width="24px" height="24px" viewBox="0 0 24 24" version="1.1" xmlns="http://www.w3.org/2000/svg" xmlns:xlink="http://www.w3.org/1999/xlink">
    <title>65C2F89C-62BE-420E-9515-5EB557548461@1x</title>
    <g id="Remote_collabo_Mobile" stroke="none" stroke-width="1" fill="none" fill-rule="evenodd">
        <g id="RWS_0060-_접속화면_참가자-정보-오픈방(추가-초대-없음)" transform="translate(-310.000000, -134.000000)">
            <g id="2.frame-" transform="translate(180.000000, 68.000000)">
                <g id="icon" transform="translate(130.000000, 12.000000)">
                    <g id="icon_volume" transform="translate(0.000000, 54.000000)">
                        <rect id="tr" x="0" y="0" width="24" height="24"></rect>
                        <g id="Group-3">
                            <rect id="icon_bg" fill="#272B30" x="0" y="0" width="24" height="24" rx="11.5862069"></rect>
                            <path d="M12.9259259,9.56181818 L12.9259259,10.9681818 L14.4685185,12.5272727 C14.4874074,12.4 14.5,12.2663636 14.5,12.1263636 C14.5,11 13.8577778,10.0327273 12.9259259,9.56181818 Z M16.0740741,12.1263636 C16.0740741,12.7245455 15.9481481,13.2845455 15.7340741,13.8063636 L16.6848148,14.7672727 C17.1003704,13.9781818 17.3333333,13.0809091 17.3333333,12.1263636 C17.3333333,9.40272727 15.4507407,7.12454545 12.9259259,6.54545455 L12.9259259,7.85636364 C14.7455556,8.40363636 16.0740741,10.1090909 16.0740741,12.1263636 Z M6.79962963,6.39909091 L6,7.20727273 L8.97814815,10.2172727 L6,10.2172727 L6,14.0354545 L8.51851852,14.0354545 L11.6666667,17.2172727 L11.6666667,12.9345455 L14.3425926,15.6390909 C13.9207407,15.97 13.4485185,16.2309091 12.9259259,16.39 L12.9259259,17.7009091 C13.7948148,17.5036364 14.5818519,17.0963636 15.2492593,16.5490909 L16.5337037,17.8536364 L17.3333333,17.0454545 L11.6666667,11.3181818 L6.79962963,6.39909091 Z M11.6666667,7.03545455 L10.3507407,8.36545455 L11.6666667,9.69545455 L11.6666667,7.03545455 Z" id="Shape" fill="#A6ACB3"></path>
                        </g>
                    </g>
                </g>
            </g>
        </g>
    </g>
</svg>