<?xml version="1.0" encoding="UTF-8"?>
<svg width="24px" height="24px" viewBox="0 0 24 24" version="1.1" xmlns="http://www.w3.org/2000/svg" xmlns:xlink="http://www.w3.org/1999/xlink">
    <title>A06B9BDD-F351-40DD-A4F8-AFD281F45772@1x</title>
    <g id="Remote_Main_remote" stroke="none" stroke-width="1" fill="none" fill-rule="evenodd">
        <g id="RWS_0100-_접속-화면_기본-기능-(리더)_더보기-메뉴_spot버튼-추가" transform="translate(-168.000000, -570.000000)">
            <g id="btn_capture" transform="translate(150.000000, 552.000000)">
                <g id="icon_capture" transform="translate(12.000000, 12.000000)">
                    <rect x="6" y="6" width="24" height="24"></rect>
                    <path d="M8.44444444,8.44444444 L16,8.44444444 L16,6 L8.44444444,6 C7.1,6 6,7.1 6,8.44444444 L6,16 L8.44444444,16 L8.44444444,8.44444444 Z M15.6666667,19 L11,25 L25,25 L21.5,20.2 L19.1316667,23.452 L15.6666667,19 Z M24,16 C24,14.8933333 23.1066667,14 22,14 C20.8933333,14 20,14.8933333 20,16 C20,17.1066667 20.8933333,18 22,18 C23.1066667,18 24,17.1066667 24,16 Z M27.5555556,6 L20,6 L20,8.44444444 L27.5555556,8.44444444 L27.5555556,16 L30,16 L30,8.44444444 C30,7.1 28.9,6 27.5555556,6 Z M27.5555556,27.5555556 L20,27.5555556 L20,30 L27.5555556,30 C28.9,30 30,28.9 30,27.5555556 L30,20 L27.5555556,20 L27.5555556,27.5555556 Z M8.44444444,20 L6,20 L6,27.5555556 C6,28.9 7.1,30 8.44444444,30 L16,30 L16,27.5555556 L8.44444444,27.5555556 L8.44444444,20 Z" id="Shape" fill="#32373F" fill-rule="nonzero"></path>
                </g>
            </g>
        </g>
    </g>
</svg>