<?xml version="1.0" encoding="UTF-8"?>
<svg width="22px" height="22px" viewBox="0 0 22 22" version="1.1" xmlns="http://www.w3.org/2000/svg" xmlns:xlink="http://www.w3.org/1999/xlink">
    <title>7FD0A903-22E3-4D87-B474-5DAEA1B08D06@1x</title>
    <defs>
        <polygon id="path-1" points="8 15.59 12.58 11 8 6.41 9.41 5 15.41 11 9.41 17"></polygon>
    </defs>
    <g id="Remote_Main_remote" stroke="none" stroke-width="1" fill="none" fill-rule="evenodd">
        <g id="RWS_0100-_접속-화면_기본-기능-(리더)_더보기-메뉴_spot버튼-추가" transform="translate(-228.000000, -379.000000)">
            <rect fill="#FFFFFF" x="0" y="0" width="360" height="640"></rect>
            <g id="vidieo_frame">
                <rect id="main_bg" fill="#272B30" x="0" y="0" width="360" height="640"></rect>
            </g>
            <g id="more_lists" transform="translate(70.000000, 310.000000)">
                <path d="M8,9.09494702e-13 L180,9.09494702e-13 C184.418278,9.08683077e-13 188,3.581722 188,8 L188,224 C188,228.418278 184.418278,232 180,232 L8,232 C3.581722,232 5.41083001e-16,228.418278 0,224 L0,8 C-5.41083001e-16,3.581722 3.581722,9.10306326e-13 8,9.09494702e-13 Z" id="more_rbox" fill="#3E454F"></path>
                <g id="more_list_user" transform="translate(0.000000, 60.000000)">
                    <rect id="tr_list_40" opacity="0.139880952" x="0" y="0" width="188" height="40"></rect>
                    <g id="icon_swipe" transform="translate(158.000000, 9.000000)">
                        <rect id="tr" x="0" y="0" width="22" height="22"></rect>
                        <mask id="mask-2" fill="white">
                            <use xlink:href="#path-1"></use>
                        </mask>
                        <use id="icon/hardware/keyboard_arrow_right_24px" fill="#C7C7C7" fill-rule="nonzero" xlink:href="#path-1"></use>
                    </g>
                </g>
            </g>
        </g>
    </g>
</svg>