<?xml version="1.0" encoding="UTF-8"?>
<svg width="22px" height="22px" viewBox="0 0 22 22" version="1.1" xmlns="http://www.w3.org/2000/svg" xmlns:xlink="http://www.w3.org/1999/xlink">
    <title>6C3B99DB-F807-40DD-A100-3EC2287D026C@1x</title>
    <g id="Remote_Main_remote" stroke="none" stroke-width="1" fill="none" fill-rule="evenodd">
        <g id="RWS_0100-_접속-화면_기본-기능-(리더)_더보기-메뉴_카메라제어" transform="translate(-90.000000, -415.000000)">
            <g id="camera" transform="translate(70.000000, 356.000000)">
                <g id="icon_camera_set" transform="translate(0.000000, 50.000000)">
                    <g transform="translate(20.000000, 9.000000)">
                        <rect id="more_list_user" opacity="0.740957031" x="0" y="0" width="22" height="22"></rect>
                        <path d="M18.0468085,4.83404255 L15.2545106,4.83404255 L13.6425532,3.07234043 L8.35744681,3.07234043 L6.74548936,4.83404255 L3.95319149,4.83404255 C2.98425532,4.83404255 2.19148936,5.62680851 2.19148936,6.59574468 L2.19148936,17.1659574 C2.19148936,18.1348936 2.98425532,18.9276596 3.95319149,18.9276596 L18.0468085,18.9276596 C19.0157447,18.9276596 19.8085106,18.1348936 19.8085106,17.1659574 L19.8085106,6.59574468 C19.8085106,5.62680851 19.0157447,4.83404255 18.0468085,4.83404255 Z M13.6425532,14.9638298 L13.6425532,12.7617021 L8.35744681,12.7617021 L8.35744681,14.9638298 L5.27446809,11.8808511 L8.35744681,8.79787234 L8.35744681,11 L13.6425532,11 L13.6425532,8.79787234 L16.7255319,11.8808511 L13.6425532,14.9638298 Z" id="Shape" fill="#FFFFFF" fill-rule="nonzero"></path>
                    </g>
                </g>
            </g>
        </g>
    </g>
</svg>