<?xml version="1.0" encoding="UTF-8"?>
<svg width="24px" height="24px" viewBox="0 0 24 24" version="1.1" xmlns="http://www.w3.org/2000/svg" xmlns:xlink="http://www.w3.org/1999/xlink">
    <title>A1D6521E-A275-4A74-A6E1-FDD4D4167038@1x</title>
    <defs>
        <path d="M26.5263158,12.7894737 L26.5263158,16.2515789 C26.5263158,16.2515789 24.2221053,16.2631579 24.2105263,16.2515789 L24.2105263,12.7894737 L20.7368421,12.7894737 C20.7368421,12.7894737 20.7484211,10.4852632 20.7368421,10.4736842 L24.2105263,10.4736842 L24.2105263,7 L26.5263158,7 L26.5263158,10.4736842 L30,10.4736842 L30,12.7894737 L26.5263158,12.7894737 Z M23.0526316,17.4210526 L23.0526316,13.9473684 L19.5789474,13.9473684 L19.5789474,10.4736842 L10.3157895,10.4736842 C9.04210526,10.4736842 8,11.5157895 8,12.7894737 L8,26.6842105 C8,27.9578947 9.04210526,29 10.3157895,29 L24.2105263,29 C25.4842105,29 26.5263158,27.9578947 26.5263158,26.6842105 L26.5263158,17.4210526 L23.0526316,17.4210526 Z M10.3157895,26.6842105 L13.7894737,22.0526316 L16.1052632,25.5263158 L19.5789474,20.8947368 L24.2105263,26.6842105 L10.3157895,26.6842105 Z" id="path-1"></path>
    </defs>
    <g id="Remote_Main_remote" stroke="none" stroke-width="1" fill="none" fill-rule="evenodd">
        <g id="RMS_0220_접속-화면-협업보드(리더)" transform="translate(-248.000000, -570.000000)">
            <g id="Bottom_menu_leader" transform="translate(0.000000, 479.000000)">
                <g id="board" transform="translate(70.000000, 73.000000)">
                    <g id="btn_upload" transform="translate(160.000000, 0.000000)">
                        <g id="icon_upload" transform="translate(12.000000, 12.000000)">
                            <rect x="6" y="7" width="24" height="24"></rect>
                            <mask id="mask-2" fill="white">
                                <use xlink:href="#path-1"></use>
                            </mask>
                            <use fill="#32373F" xlink:href="#path-1"></use>
                        </g>
                    </g>
                </g>
            </g>
        </g>
    </g>
</svg>