<?xml version="1.0" encoding="UTF-8"?>
<svg width="24px" height="24px" viewBox="0 0 24 24" version="1.1" xmlns="http://www.w3.org/2000/svg" xmlns:xlink="http://www.w3.org/1999/xlink">
    <title>740FA0A6-B45A-465E-9358-E9FAC6BC5094@1x</title>
    <g id="Remote_Cowork" stroke="none" stroke-width="1" fill="none" fill-rule="evenodd">
        <g id="3CI_0012-_3D-콘텐츠-제어-패널_리더-화면-_X,Z,Y-회전-버튼" transform="translate(-1393.000000, -840.000000)">
            <g id="image" transform="translate(263.000000, 133.000000)">
                <g id="Group-6" transform="translate(0.000000, 0.820031)">
                    <g id="icon_contentcontrol" transform="translate(1117.000000, 693.179969)">
                        <g transform="translate(13.000000, 13.000000)">
                            <rect id="tr" x="0" y="0" width="24" height="24"></rect>
                            <path d="M13.593,17.23 L15.186,18.814 L12,22 L8.814,18.814 L10.407,17.23 L12,18.814 L13.593,17.23 Z M18.814,8.814 L22,12 L18.814,15.186 L17.23,13.593 L18.814,12 L17.23,10.407 L18.814,8.814 Z M5.186,8.814 L6.77,10.407 L5.186,12 L6.77,13.593 L5.186,15.186 L2,12 L5.186,8.814 Z M12,9 C13.6568542,9 15,10.3431458 15,12 C15,13.6568542 13.6568542,15 12,15 C10.3431458,15 9,13.6568542 9,12 C9,10.3431458 10.3431458,9 12,9 Z M12,2 L15.186,5.186 L13.593,6.77 L12,5.186 L10.407,6.77 L8.814,5.186 L12,2 Z" id="Combined-Shape" fill="#FFFFFF" fill-rule="nonzero"></path>
                        </g>
                    </g>
                </g>
            </g>
        </g>
    </g>
</svg>