<?xml version="1.0" encoding="UTF-8"?>
<svg width="24px" height="24px" viewBox="0 0 24 24" version="1.1" xmlns="http://www.w3.org/2000/svg" xmlns:xlink="http://www.w3.org/1999/xlink">
    <title>FB7D6F95-D2BB-4972-9C76-E1BCB5048A96@1x</title>
    <g id="Remote_collabo_Mobile" stroke="none" stroke-width="1" fill="none" fill-rule="evenodd">
        <g id="RWS_0060-_접속화면_참가자-정보-오픈방(추가-초대-없음)" transform="translate(-310.000000, -233.000000)">
            <g id="2.frame--copy" transform="translate(180.000000, 194.000000)">
                <g id="icon" transform="translate(130.000000, 12.000000)">
                    <g id="icon_mic" transform="translate(0.000000, 27.000000)">
                        <rect id="tr" x="0" y="0" width="24" height="24"></rect>
                        <circle id="icon_bg" fill="#272B30" cx="12" cy="12" r="12"></circle>
                        <g id="Group" transform="translate(6.000000, 6.000000)" fill="#A6ACB3">
                            <path d="M6,8 C7.10666667,8 7.99333333,7.10666667 7.99333333,6 L8,2 C8,0.893333333 7.10666667,-7.28306304e-14 6,-7.28306304e-14 C4.89333333,-7.28306304e-14 4,0.893333333 4,2 L4,6 C4,7.10666667 4.89333333,8 6,8 Z M9.53333333,6 C9.53333333,8 7.84,9.4 6,9.4 C4.16,9.4 2.46666667,8 2.46666667,6 L1.33333333,6 C1.33333333,8.27333333 3.14666667,10.1533333 5.33333333,10.48 L5.33333333,12.6666667 L6.66666667,12.6666667 L6.66666667,10.48 C8.85333333,10.16 10.6666667,8.28 10.6666667,6 L9.53333333,6 Z" id="Shape"></path>
                        </g>
                    </g>
                </g>
            </g>
        </g>
    </g>
</svg>