<?xml version="1.0" encoding="UTF-8"?>
<svg width="32px" height="32px" viewBox="0 0 32 32" version="1.1" xmlns="http://www.w3.org/2000/svg" xmlns:xlink="http://www.w3.org/1999/xlink">
    <title>00AB162A-93C4-4E62-8EA2-8DE52B4E824C@1x</title>
    <defs>
        <path d="M12.7918593,32.2388514 L18.8214133,26.8887806 C19.0279668,26.7055041 19.0468365,26.3894845 18.8635599,26.182931 C18.8503617,26.1680565 18.8362878,26.1539826 18.8214133,26.1407844 L12.7918593,20.7907136 C12.5853059,20.6074371 12.2692863,20.6263068 12.0860097,20.8328603 C12.0048357,20.9243438 11.9600079,21.0424069 11.9600079,21.1647117 L11.9600079,31.8648533 C11.9600079,32.1409956 12.1838655,32.3648533 12.4600079,32.3648533 C12.5823127,32.3648533 12.7003758,32.3200254 12.7918593,32.2388514 Z" id="path-1"></path>
    </defs>
    <g id="Remote_Cowork" stroke="none" stroke-width="1" fill="none" fill-rule="evenodd">
        <g id="3CI_0012-_3D-콘텐츠-제어-패널_리더-화면-_X,Z,Y-이동-버튼" transform="translate(-1425.000000, -693.000000)">
            <g id="content-control-panel" transform="translate(1149.000000, 506.000000)">
                <g id="btn_move_key" transform="translate(115.000000, 65.000000)">
                    <g id="btn_+Z_move" transform="translate(153.000000, 114.000000)">
                        <g id="icon_-Z" transform="translate(8.000000, 8.000000)">
                            <rect id="tr" x="0" y="0" width="32" height="32"></rect>
                            <path d="M11.3544922,17.0732422 L11.3544922,14.324707 L13.7666016,14.324707 L13.7666016,12.9155273 L11.3544922,12.9155273 L11.3544922,10.3447266 L9.85644531,10.3447266 L9.85644531,12.9155273 L7.43164062,12.9155273 L7.43164062,14.324707 L9.85644531,14.324707 L9.85644531,17.0732422 L11.3544922,17.0732422 Z M21.6313477,18 L21.6313477,16.7177734 L16.6928711,16.7177734 L21.4790039,9.7734375 L21.4790039,8.7578125 L14.7822266,8.7578125 L14.7822266,10.0527344 L19.5302734,10.0527344 L14.7504883,16.9589844 L14.7504883,18 L21.6313477,18 Z" id="+Z" fill="#5E666D" fill-rule="nonzero"></path>
                            <mask id="mask-2" fill="white">
                                <use xlink:href="#path-1"></use>
                            </mask>
                            <use id="icon/navigation/arrow_right_24px-2" fill="#32373F" fill-rule="nonzero" transform="translate(15.474788, 26.514780) rotate(-270.000000) translate(-15.474788, -26.514780) " xlink:href="#path-1"></use>
                        </g>
                    </g>
                </g>
            </g>
        </g>
    </g>
</svg>