<?xml version="1.0" encoding="UTF-8"?>
<svg width="28px" height="28px" viewBox="0 0 28 28" version="1.1" xmlns="http://www.w3.org/2000/svg" xmlns:xlink="http://www.w3.org/1999/xlink">
    <title>51470E4E-0C2A-44A0-B6C8-7171DC84B01D@1x</title>
    <defs>
        <path d="M16.25,3 L7.25,3 C6.0125,3 5,3.99 5,5.2 L5,22.8 C5,24.01 6.00125,25 7.23875,25 L20.75,25 C21.9875,25 23,24.01 23,22.8 L23,9.6 L16.25,3 Z M18.5,20.6 L9.5,20.6 L9.5,18.4 L18.5,18.4 L18.5,20.6 Z M18.5,16.2 L9.5,16.2 L9.5,14 L18.5,14 L18.5,16.2 Z M15.125,10.7 L15.125,4.65 L21.3125,10.7 L15.125,10.7 Z" id="path-1"></path>
    </defs>
    <g id="Remote_Main_remote" stroke="none" stroke-width="1" fill="none" fill-rule="evenodd">
        <g id="RMS_0220_접속-화면-협업보드(리더)" transform="translate(-126.000000, -568.000000)">
            <g id="Bottom_menu_leader" transform="translate(0.000000, 479.000000)">
                <g id="board" transform="translate(30.000000, 73.000000)">
                    <g id="icon_filelist" transform="translate(80.000000, 0.000000)">
                        <g transform="translate(16.000000, 16.000000)">
                            <polygon id="Path" points="0 0 28 0 28 28 0 28"></polygon>
                            <mask id="mask-2" fill="white">
                                <use xlink:href="#path-1"></use>
                            </mask>
                            <use id="icon_pdf" fill="#32373F" xlink:href="#path-1"></use>
                        </g>
                    </g>
                </g>
            </g>
        </g>
    </g>
</svg>