<?xml version="1.0" encoding="UTF-8"?>
<svg width="24px" height="24px" viewBox="0 0 24 24" version="1.1" xmlns="http://www.w3.org/2000/svg" xmlns:xlink="http://www.w3.org/1999/xlink">
    <title>6BCD31EB-D98D-4B78-9786-52947DFA18FA@1x</title>
    <g id="Remote_collabo_Mobile" stroke="none" stroke-width="1" fill="none" fill-rule="evenodd">
        <g id="RWS_0060-_접속화면_참가자-정보-오픈방(추가-초대-없음)" transform="translate(-310.000000, -260.000000)">
            <g id="2.frame--copy" transform="translate(180.000000, 194.000000)">
                <g id="icon" transform="translate(130.000000, 12.000000)">
                    <g id="icon_volume" transform="translate(0.000000, 54.000000)">
                        <rect id="tr" x="0" y="0" width="24" height="24"></rect>
                        <g id="Group-3">
                            <rect id="icon_bg" fill="#272B30" x="0" y="0" width="24" height="24" rx="11.5862069"></rect>
                            <path d="M6,10.2172727 L6,14.0354545 L8.51851852,14.0354545 L11.6666667,17.2172727 L11.6666667,7.03545455 L8.51851852,10.2172727 L6,10.2172727 Z M14.5,12.1263636 C14.5,11 13.8577778,10.0327273 12.9259259,9.56181818 L12.9259259,14.6845455 C13.8577778,14.22 14.5,13.2527273 14.5,12.1263636 Z M12.9259259,6.54545455 L12.9259259,7.85636364 C14.7455556,8.40363636 16.0740741,10.1090909 16.0740741,12.1263636 C16.0740741,14.1436364 14.7455556,15.8490909 12.9259259,16.3963636 L12.9259259,17.7072727 C15.4507407,17.1281818 17.3333333,14.85 17.3333333,12.1263636 C17.3333333,9.40272727 15.4507407,7.12454545 12.9259259,6.54545455 Z" id="Shape" fill="#A6ACB3"></path>
                        </g>
                    </g>
                </g>
            </g>
        </g>
    </g>
</svg>