<?xml version="1.0" encoding="UTF-8"?>
<svg width="24px" height="24px" viewBox="0 0 24 24" version="1.1" xmlns="http://www.w3.org/2000/svg" xmlns:xlink="http://www.w3.org/1999/xlink">
    <title>C0E5F392-EB92-428E-A390-84C3A4C3E63E@1x</title>
    <defs>
        <path d="M20.7,6.312 L20.604,6.264 L20.592,6.288 C19.752,6.108 18.888,6 18,6 C11.376,6 6,11.376 6,18 C6,24.624 11.376,30 18,30 C24.624,30 30,24.624 30,18 C30,12.3 26.028,7.536 20.7,6.312 Z M26.892,14.4 L17.304,14.4 L20.556,8.76 C23.436,9.552 25.776,11.664 26.892,14.4 Z M19.32,8.496 L15.924,14.4 L14.544,16.8 L11.28,11.16 C13.008,9.456 15.384,8.4 18,8.4 C18.444,8.4 18.888,8.436 19.32,8.496 Z M10.44,12.108 L13.848,18 L15.228,20.4 L8.712,20.4 C8.52,19.632 8.4,18.828 8.4,18 C8.4,15.78 9.168,13.74 10.44,12.108 Z M9.108,21.6 L18.684,21.6 L15.432,27.24 C12.552,26.436 10.224,24.336 9.108,21.6 Z M16.68,27.492 L21.468,19.2 L24.732,24.84 C22.992,26.544 20.616,27.6 18,27.6 C17.544,27.6 17.112,27.552 16.68,27.492 L16.68,27.492 Z M25.56,23.892 L20.76,15.6 L27.276,15.6 C27.48,16.368 27.6,17.172 27.6,18 C27.6,20.22 26.832,22.26 25.56,23.892 Z" id="path-1"></path>
    </defs>
    <g id="Remote_collabo_Mobile" stroke="none" stroke-width="1" fill="none" fill-rule="evenodd">
        <g id="RMS_0201_접속-화면-실시간-공유_영상-없음(리더)" transform="translate(-168.000000, -570.000000)">
            <g id="Bottom_menu_leader" transform="translate(0.000000, 479.000000)">
                <g id="btn_capture" transform="translate(150.000000, 73.000000)">
                    <g id="icon_capture" transform="translate(12.000000, 12.000000)">
                        <rect x="6" y="6" width="24" height="24"></rect>
                        <mask id="mask-2" fill="white">
                            <use xlink:href="#path-1"></use>
                        </mask>
                        <use id="icon/image/camera_24px" fill="#32373F" xlink:href="#path-1"></use>
                    </g>
                </g>
            </g>
        </g>
    </g>
</svg>