<?xml version="1.0" encoding="UTF-8"?>
<svg width="24px" height="24px" viewBox="0 0 24 24" version="1.1" xmlns="http://www.w3.org/2000/svg" xmlns:xlink="http://www.w3.org/1999/xlink">
    <title>743472AC-EBDB-43EA-B424-5EEF9C3053A7@1x</title>
    <g id="Remote_Main_remote" stroke="none" stroke-width="1" fill="none" fill-rule="evenodd">
        <g id="RWS_0100-_접속-화면_기본-기능-(리더)_더보기-메뉴" transform="translate(-86.000000, -498.000000)" fill="#FFFFFF" fill-rule="nonzero">
            <g id="more_lists" transform="translate(70.000000, 310.000000)">
                <g id="icn_location" transform="translate(0.000000, 180.000000)">
                    <g transform="translate(16.000000, 8.000000)" id="Shape">
                        <path d="M12,4 C8.72854545,4 6,6.69292581 6,10.1312648 C6,11.4393423 6.38465455,12.6057689 7.12287273,13.6987691 L11.5408364,20.7434065 C11.7551636,21.0858655 12.2452727,21.0851966 12.4591636,20.7434065 L16.8962909,13.6748014 C17.6186182,12.6313344 18,11.4060848 18,10.1312648 C18,6.75048538 15.3084,4 12,4 Z M12,12.9182033 C10.4962545,12.9182033 9.27272727,11.6679084 9.27272727,10.1312648 C9.27272727,8.59462119 10.4962545,7.34432625 12,7.34432625 C13.5037455,7.34432625 14.7272727,8.59462119 14.7272727,10.1312648 C14.7272727,11.6679084 13.5037455,12.9182033 12,12.9182033 Z"></path>
                    </g>
                </g>
            </g>
        </g>
    </g>
</svg>