<?xml version="1.0" encoding="UTF-8"?>
<svg width="22px" height="22px" viewBox="0 0 22 22" version="1.1" xmlns="http://www.w3.org/2000/svg" xmlns:xlink="http://www.w3.org/1999/xlink">
    <title>8C8DFDB6-BF4E-4ED3-B83D-D5E061E2B0B5@1x</title>
    <g id="Remote_Main_remote" stroke="none" stroke-width="1" fill="none" fill-rule="evenodd">
        <g id="RWS_0100-_접속-화면_기본-기능-(리더)_더보기-메뉴_카메라제어" transform="translate(-90.000000, -457.000000)">
            <g id="camera" transform="translate(70.000000, 356.000000)">
                <g id="icon_camera_on" transform="translate(0.000000, 92.000000)">
                    <g transform="translate(20.000000, 9.000000)" id="camera_enhance-24px">
                        <polygon id="Path" points="-2.84217094e-14 -2.84217094e-14 21.1404255 -2.84217094e-14 21.1404255 21.1404255 -2.84217094e-14 21.1404255"></polygon>
                        <path d="M7.92765957,2.64255319 L6.31570213,4.40425532 L3.52340426,4.40425532 C2.55446809,4.40425532 1.76170213,5.19702128 1.76170213,6.16595745 L1.76170213,16.7361702 C1.76170213,17.7051064 2.55446809,18.4978723 3.52340426,18.4978723 L17.6170213,18.4978723 C18.5859574,18.4978723 19.3787234,17.7051064 19.3787234,16.7361702 L19.3787234,6.16595745 C19.3787234,5.19702128 18.5859574,4.40425532 17.6170213,4.40425532 L14.8247234,4.40425532 L13.212766,2.64255319 L7.92765957,2.64255319 Z M10.5702128,15.8553191 C8.13906383,15.8553191 6.16595745,13.8822128 6.16595745,11.4510638 C6.16595745,9.01991489 8.13906383,7.04680851 10.5702128,7.04680851 C13.0013617,7.04680851 14.9744681,9.01991489 14.9744681,11.4510638 C14.9744681,13.8822128 13.0013617,15.8553191 10.5702128,15.8553191 Z" id="Shape" fill="#FFFFFF" fill-rule="nonzero"></path>
                        <polygon id="Path" fill="#FFFFFF" fill-rule="nonzero" points="10.5702128 14.9744681 11.6712766 12.5521277 14.093617 11.4510638 11.6712766 10.35 10.5702128 7.92765957 9.46914894 10.35 7.04680851 11.4510638 9.46914894 12.5521277"></polygon>
                    </g>
                </g>
            </g>
        </g>
    </g>
</svg>