<?xml version="1.0" encoding="UTF-8"?>
<svg width="32px" height="32px" viewBox="0 0 32 32" version="1.1" xmlns="http://www.w3.org/2000/svg" xmlns:xlink="http://www.w3.org/1999/xlink">
    <title>1DA49AAE-66D4-4AD6-A6CD-7BC1094836DD@1x</title>
    <defs>
        <path d="M13.2792757,10.158891 L19.3088296,4.80882025 C19.5153831,4.62554374 19.5342528,4.30952411 19.3509763,4.10297065 C19.337778,4.08809615 19.3237041,4.07402227 19.3088296,4.06082401 L13.2792757,-1.28924676 C13.0727222,-1.47252327 12.7567026,-1.45365358 12.5734261,-1.24710012 C12.492252,-1.15561658 12.4474242,-1.03755344 12.4474242,-0.915248635 L12.4474242,9.78489289 C12.4474242,10.0610353 12.6712818,10.2848929 12.9474242,10.2848929 C13.069729,10.2848929 13.1877921,10.2400651 13.2792757,10.158891 Z" id="path-1"></path>
    </defs>
    <g id="Remote_Cowork" stroke="none" stroke-width="1" fill="none" fill-rule="evenodd">
        <g id="3CI_0012-_3D-콘텐츠-제어-패널_리더-화면-_X,Z,Y-이동-버튼" transform="translate(-1329.000000, -585.000000)">
            <g id="content-control-panel" transform="translate(1149.000000, 506.000000)">
                <g id="btn_move_key" transform="translate(115.000000, 65.000000)">
                    <g id="btn_+Y_move" transform="translate(51.000000, 0.000000)">
                        <g id="icon_+Y" transform="translate(14.000000, 13.000000)">
                            <rect id="tr" x="0" y="1" width="32" height="32"></rect>
                            <path d="M12.3544922,26.0732422 L12.3544922,23.324707 L14.7666016,23.324707 L14.7666016,21.9155273 L12.3544922,21.9155273 L12.3544922,19.3447266 L10.8564453,19.3447266 L10.8564453,21.9155273 L8.43164062,21.9155273 L8.43164062,23.324707 L10.8564453,23.324707 L10.8564453,26.0732422 L12.3544922,26.0732422 Z M20.003418,27 L20.003418,23.5976562 L23.1010742,17.7578125 L21.3237305,17.7578125 L19.1972656,22.1376953 L17.0708008,17.7578125 L15.2871094,17.7578125 L18.3911133,23.5976562 L18.3911133,27 L20.003418,27 Z" id="+Y" fill="#5E666D" fill-rule="nonzero"></path>
                            <mask id="mask-2" fill="white">
                                <use xlink:href="#path-1"></use>
                            </mask>
                            <use id="icon/navigation/arrow_right_24px-2" fill="#32373F" fill-rule="nonzero" transform="translate(15.962204, 4.434819) rotate(-90.000000) translate(-15.962204, -4.434819) " xlink:href="#path-1"></use>
                        </g>
                    </g>
                </g>
            </g>
        </g>
    </g>
</svg>