<?xml version="1.0" encoding="UTF-8"?>
<svg width="28px" height="28px" viewBox="0 0 28 28" version="1.1" xmlns="http://www.w3.org/2000/svg" xmlns:xlink="http://www.w3.org/1999/xlink">
    <title>EF131713-B933-4730-999A-0F3F8E057EE7@1x</title>
    <g id="Remote_collabo_Mobile" stroke="none" stroke-width="1" fill="none" fill-rule="evenodd">
        <g id="RWS_0060-_접속화면_참가자-정보_섬네일-선택" transform="translate(-32.000000, -350.000000)">
            <g id="bottom_area" transform="translate(0.000000, 280.000000)">
                <g id="list02" transform="translate(16.000000, 56.000000)">
                    <g id="icon_sharing" transform="translate(16.000000, 14.000000)">
                        <rect id="tr" x="0" y="0" width="28" height="28"></rect>
                        <path d="M3,20 L3,23 L6,23 C6,21.34 4.66,20 3,20 L3,20 Z M3,16 L3,18 C5.76,18 8,20.24 8,23 L10,23 C10,19.13 6.87,16 3,16 L3,16 Z M21,9 L7,9 L7,10.63 C10.96,11.91 14.09,15.04 15.37,19 L21,19 L21,9 L21,9 Z M3,12 L3,14 C7.97,14 12,18.03 12,23 L14,23 C14,16.92 9.07,12 3,12 L3,12 Z M23,5 L5,5 C3.9,5 3,5.9 3,7 L3,10 L5,10 L5,7 L23,7 L23,21 L16,21 L16,23 L23,23 C24.1,23 25,22.1 25,21 L25,7 C25,5.9 24.1,5 23,5 L23,5 Z" fill="#71767F"></path>
                    </g>
                </g>
            </g>
        </g>
    </g>
</svg>