<?xml version="1.0" encoding="UTF-8"?>
<svg width="24px" height="24px" viewBox="0 0 24 24" version="1.1" xmlns="http://www.w3.org/2000/svg" xmlns:xlink="http://www.w3.org/1999/xlink">
    <title>20013FCC-4403-4228-819B-322FC92032C9@1x</title>
    <g id="Remote_Cowork" stroke="none" stroke-width="1" fill="none" fill-rule="evenodd">
        <g id="3CI_0012-_3D-콘텐츠-제어-패널_리더-화면-_X,Z,Y-이동-버튼" transform="translate(-1181.000000, -697.000000)">
            <g id="content-control-panel" transform="translate(1149.000000, 506.000000)">
                <g id="move-/-rotate-/-reset" transform="translate(16.000000, 65.000000)">
                    <g id="icon_reset" transform="translate(4.000000, 114.000000)">
                        <g id="Group-13" transform="translate(12.000000, 12.000000)">
                            <polygon id="icon_cancle" points="0 0 24 0 24 24 0 24"></polygon>
                            <g id="Group" transform="translate(4.000000, 2.500000)" fill="#FFFFFF" fill-rule="nonzero">
                                <path d="M8,3 L8,0 L4,4 L8,8 L8,5 C11.31,5 14,7.69 14,11 C14,13.97 11.83,16.43 9,16.91 L9,18.93 C12.95,18.44 16,15.08 16,11 C16,6.58 12.42,3 8,3 Z" id="Path"></path>
                                <path d="M2,11 C2,9.35 2.67,7.85 3.76,6.76 L2.34,5.34 C0.9,6.79 0,8.79 0,11 C0,15.08 3.05,18.44 7,18.93 L7,16.91 C4.17,16.43 2,13.97 2,11 Z" id="Path"></path>
                            </g>
                        </g>
                    </g>
                </g>
            </g>
        </g>
    </g>
</svg>