<?xml version="1.0" encoding="UTF-8"?>
<svg width="20px" height="21px" viewBox="0 0 20 21" version="1.1" xmlns="http://www.w3.org/2000/svg" xmlns:xlink="http://www.w3.org/1999/xlink">
    <title>BB9FEBE1-6C90-4014-A6D2-5A1DF2820C18@1x</title>
    <g id="Remote_collabo_Mobile" stroke="none" stroke-width="1" fill="none" fill-rule="evenodd" opacity="0.6">
        <g id="KIN_0040-_협업-접속_영상캡쳐" transform="translate(-308.000000, -190.000000)" fill="#FFFFFF" fill-rule="nonzero">
            <g id="capture" transform="translate(16.000000, 177.000000)">
                <g id="top" transform="translate(16.000000, 14.000000)">
                    <g id="Close" transform="translate(276.000000, 0.000000)">
                        <rect id="tr" opacity="0.01" x="0" y="0" width="20" height="20"></rect>
                        <path d="M14.4107443,4.41074435 C14.7361813,4.08530744 15.2638187,4.08530744 15.5892557,4.41074435 C15.9146926,4.73618126 15.9146926,5.26381874 15.5892557,5.58925565 L15.5892557,5.58925565 L11.1776667,9.99966667 L15.5892557,14.4107443 C15.8875728,14.7090615 15.9124326,15.1772833 15.6638349,15.5039179 L15.5892557,15.5892557 C15.2638187,15.9146926 14.7361813,15.9146926 14.4107443,15.5892557 L14.4107443,15.5892557 L9.99966667,11.1776667 L5.58925565,15.5892557 C5.29093848,15.8875728 4.82271667,15.9124326 4.49608206,15.6638349 L4.41074435,15.5892557 C4.08530744,15.2638187 4.08530744,14.7361813 4.41074435,14.4107443 L4.41074435,14.4107443 L8.82166667,9.99966667 L4.41074435,5.58925565 C4.11242718,5.29093848 4.08756742,4.82271667 4.33616506,4.49608206 L4.41074435,4.41074435 C4.73618126,4.08530744 5.26381874,4.08530744 5.58925565,4.41074435 L5.58925565,4.41074435 L9.99966667,8.82166667 Z" id="Combined-Shape"></path>
                    </g>
                </g>
            </g>
        </g>
    </g>
</svg>