<?xml version="1.0" encoding="UTF-8"?>
<svg width="24px" height="24px" viewBox="0 0 24 24" version="1.1" xmlns="http://www.w3.org/2000/svg" xmlns:xlink="http://www.w3.org/1999/xlink">
    <title>7958CFFE-299E-4285-9A9F-4DAD34B6042B@1x</title>
    <g id="Remote_Main_remote" stroke="none" stroke-width="1" fill="none" fill-rule="evenodd">
        <g id="RWS_0100-_접속-화면_기본-기능-(리더)_더보기-메뉴_spot버튼-추가" transform="translate(-218.000000, -326.000000)">
            <g id="more_lists" transform="translate(70.000000, 310.000000)">
                <g id="more_list_setting" transform="translate(142.000000, 10.000000)">
                    <g id="more_icon_setting" transform="translate(6.000000, 6.000000)">
                        <rect id="tr" opacity="0.280947731" x="0" y="0" width="24" height="24"></rect>
                        <path d="M19.3976149,12 C19.3976149,11.6832 19.3680146,11.3712 19.3285475,11.064 L21.4153705,9.4752 C21.6028392,9.3312 21.6571065,9.072 21.5337718,8.8608 L19.5604167,5.5344 C19.437082,5.328 19.1805458,5.2416 18.9585434,5.328 L16.5017163,6.2928 C15.9935774,5.9136 15.4361045,5.592 14.8342312,5.3472 L14.4642272,2.8032 C14.4198267,2.5776 14.2175578,2.4 13.9708884,2.4 L10.0241782,2.4 C9.77750883,2.4 9.57523994,2.5776 9.53577284,2.8032 L9.16576876,5.3472 C8.56389545,5.592 8.00642264,5.9088 7.49828371,6.2928 L5.04145662,5.328 C4.81945418,5.2464 4.56291802,5.328 4.43958332,5.5344 L2.46622824,8.8608 C2.34289354,9.0672 2.39716081,9.3264 2.58462954,9.4752 L4.66651916,11.064 C4.62705206,11.3712 4.59745173,11.6832 4.59745173,12 C4.59745173,12.3168 4.62705206,12.6288 4.66651916,12.936 L2.58462954,14.5248 C2.39716081,14.6688 2.34289354,14.928 2.46622824,15.1392 L4.43958332,18.4656 C4.56291802,18.672 4.81945418,18.7584 5.04145662,18.672 L7.49828371,17.7072 C8.00642264,18.0864 8.56389545,18.408 9.16576876,18.6528 L9.53577284,21.1968 C9.57523994,21.4224 9.77750883,21.6 10.0241782,21.6 L13.9708884,21.6 C14.2175578,21.6 14.4198267,21.4224 14.4592938,21.1968 L14.8292979,18.6528 C15.4311712,18.408 15.988644,18.0912 16.4967829,17.7072 L18.95361,18.672 C19.1756124,18.7536 19.4321486,18.672 19.5554833,18.4656 L21.5288384,15.1392 C21.6521731,14.9328 21.5979058,14.6736 21.4104371,14.5248 L19.3285475,12.936 C19.3680146,12.6288 19.3976149,12.3168 19.3976149,12 Z M11.9975333,15.36 C10.0883123,15.36 8.5441619,13.8576 8.5441619,12 C8.5441619,10.1424 10.0883123,8.64 11.9975333,8.64 C13.9067544,8.64 15.4509047,10.1424 15.4509047,12 C15.4509047,13.8576 13.9067544,15.36 11.9975333,15.36 Z" fill="#BCC1C7"></path>
                    </g>
                </g>
            </g>
        </g>
    </g>
</svg>