<?xml version="1.0" encoding="UTF-8"?>
<svg width="40px" height="40px" viewBox="0 0 40 40" version="1.1" xmlns="http://www.w3.org/2000/svg" xmlns:xlink="http://www.w3.org/1999/xlink">
    <title>87E020FE-ED16-4C8F-9853-B51A0E5675C2@1x</title>
    <defs>
        <path d="M7.27272727,10 C9.28103545,10 10.9090909,8.37194454 10.9090909,6.36363636 C10.9090909,4.35532818 9.28103545,2.72727273 7.27272727,2.72727273 C5.26441909,2.72727273 3.63636364,4.35532818 3.63636364,6.36363636 C3.63636364,8.37194454 5.26441909,10 7.27272727,10 Z M7.27272727,11.8181818 C4.84545455,11.8181818 0,13.0363636 0,15.4545455 L0,17.2727273 L14.5454545,17.2727273 L14.5454545,15.4545455 C14.5454545,13.0363636 9.7,11.8181818 7.27272727,11.8181818 Z M12.8,4.59090909 C13.5636364,5.66363636 13.5636364,7.05454545 12.8,8.12727273 L14.3272727,9.66363636 C16.1636364,7.82727273 16.1636364,5.05454545 14.3272727,3.05454545 L12.8,4.59090909 Z M17.3363636,0 L15.8545455,1.48181818 C18.3727273,4.22727273 18.3727273,8.35454545 15.8545455,11.2454545 L17.3363636,12.7272727 C20.8818182,9.19090909 20.8909091,3.68181818 17.3363636,0 Z" id="path-1"></path>
    </defs>
    <g id="Remote_Main_remote" stroke="none" stroke-width="1" fill="none" fill-rule="evenodd">
        <g id="RTT_0212-_음성-인식_스트리밍-방식-" transform="translate(-304.000000, -439.000000)">
            <g id="icon_Voice-recognition" transform="translate(304.000000, 439.000000)">
                <polygon id="tr" points="0 0 40 0 40 40 0 40"></polygon>
                <g id="icon/action/record_voice_over_24px-2" transform="translate(10.000000, 11.000000)">
                    <mask id="mask-2" fill="white">
                        <use xlink:href="#path-1"></use>
                    </mask>
                    <use id="icon/action/record_voice_over_24px" fill="#FFFFFF" xlink:href="#path-1"></use>
                </g>
            </g>
        </g>
    </g>
</svg>