<?xml version="1.0" encoding="UTF-8"?>
<svg width="24px" height="24px" viewBox="0 0 24 24" version="1.1" xmlns="http://www.w3.org/2000/svg" xmlns:xlink="http://www.w3.org/1999/xlink">
    <title>62A3B444-2954-4C11-A81C-A39ABA08DA59@1x</title>
    <g id="Resource" stroke="none" stroke-width="1" fill="none" fill-rule="evenodd">
        <g id="icon_del">
            <rect id="tr" x="0" y="0" width="24" height="24"></rect>
            <g id="Group-4" transform="translate(2.000000, 2.000000)" fill-rule="nonzero">
                <path d="M10,0 C4.48,0 0,4.48 0,10 C0,15.52 4.48,20 10,20 C15.52,20 20,15.52 20,10 C20,4.48 15.52,0 10,0 Z" id="Path" fill="#515964"></path>
                <path d="M15,11 L11,11 L11,11 L11,15 C11,15.5522847 10.5522847,16 10,16 C9.44771525,16 9,15.5522847 9,15 L9,11 L9,11 L5,11 C4.44771525,11 4,10.5522847 4,10 C4,9.44771525 4.44771525,9 5,9 L9,9 L9,9 L9,5 C9,4.44771525 9.44771525,4 10,4 C10.5522847,4 11,4.44771525 11,5 L11,9 L11,9 L15,9 C15.5522847,9 16,9.44771525 16,10 C16,10.5522847 15.5522847,11 15,11 Z" id="Path" fill="#FFFFFF" transform="translate(10.000000, 10.000000) rotate(-315.000000) translate(-10.000000, -10.000000) "></path>
            </g>
        </g>
    </g>
</svg>