<?xml version="1.0" encoding="UTF-8"?>
<svg width="70px" height="70px" viewBox="0 0 70 70" version="1.1" xmlns="http://www.w3.org/2000/svg" xmlns:xlink="http://www.w3.org/1999/xlink">
    <title>98CF7CD9-79B6-484E-88DD-471EF6CAE35E@1x</title>
    <defs>
        <polygon id="path-1" points="0.0913060674 0.0207703373 46.7796248 0.0207703373 46.7796248 62.4053612 0.0913060674 62.4053612"></polygon>
        <polygon id="path-3" points="0.0438320161 0.0862218349 11.6007927 0.0862218349 11.6007927 11.7604723 0.0438320161 11.7604723"></polygon>
        <polygon id="path-5" points="0 0.0596961868 46.6823723 0.0596961868 46.6823723 23.4483629 0 23.4483629"></polygon>
    </defs>
    <g id="3D-Object-공유" stroke="none" stroke-width="1" fill="none" fill-rule="evenodd">
        <g id="3DO_0031-_3D-파일-출력-진행-중_리더-권한_Web-" transform="translate(-67.000000, -418.000000)">
            <g id="list_files" transform="translate(0.000000, 56.000000)">
                <g id="files" transform="translate(20.000000, 58.000000)">
                    <g id="file_01-copy" transform="translate(0.000000, 280.000000)">
                        <g id="img_3d" transform="translate(47.000000, 24.000000)">
                            <rect id="tr" opacity="0.470400856" x="0" y="0" width="70" height="70"></rect>
                            <g id="image" transform="translate(4.500000, 3.000000)">
                                <g id="Group-3" transform="translate(7.682733, 0.114028)">
                                    <mask id="mask-2" fill="white">
                                        <use xlink:href="#path-1"></use>
                                    </mask>
                                    <g id="Clip-2"></g>
                                    <path d="M43.9835816,62.4053747 L2.89430135,62.4053747 C2.86168343,62.1022437 2.57445702,62.1316267 2.39371061,62.0422644 C0.892747105,61.3013524 0.145230619,60.0771021 0.105199534,58.428684 C0.0743338158,57.1587416 0.104121256,55.8873166 0.106951737,54.6165656 C12.3959556,54.6185874 24.6849595,54.6204743 36.9739634,54.6223613 C37.0347514,54.6223613 37.0955393,54.6243831 37.1561925,54.6211483 C38.1558913,54.5676387 38.9550304,53.7852129 38.9931745,52.7859185 C39.0137966,52.240714 38.9792917,51.6933529 38.9697219,51.1470701 C38.9795612,50.8237214 38.9981615,50.5005074 38.9982963,50.1770239 C38.9999137,44.0418895 38.9996442,37.9067551 38.9993746,31.7716207 C38.9993746,30.0066138 38.3130504,29.3281071 36.5286345,29.3281071 C24.647085,29.3279723 12.7655356,29.3281071 0.883851309,29.3271636 C0.621155739,29.3271636 0.358460169,29.3146286 0.0957645985,29.3080242 C0.0967080921,20.9323621 0.0969776617,12.5565652 0.0988646489,4.18090311 C0.0994037881,2.33394703 1.17202121,0.8704537 2.91438428,0.313253348 C3.08785232,0.257722011 3.34987396,0.31473598 3.3806049,0.0207703373 L31.0976158,0.0207703373 C31.1803737,0.097462887 31.2629968,0.174155437 31.3454851,0.250982771 C31.13886,0.450733841 31.2231005,0.708172804 31.2226961,0.940541795 C31.2173047,4.45599888 31.2181135,7.97159075 31.2193265,11.4870478 C31.2201352,13.9828579 32.7452252,15.594345 35.2225698,15.7210427 C35.2503355,15.9675641 35.4445603,16.0988445 35.5992933,16.2537122 C39.1453465,19.8036742 42.6927476,23.3521535 46.2414965,26.8994198 C46.3956903,27.0536137 46.5256229,27.2518821 46.7796922,27.2607779 L46.7796922,59.6084553 C46.6737514,59.6220686 46.59005,59.662504 46.5485363,59.7718145 C46.1072509,60.9315029 45.3062248,61.7327985 44.1469408,62.174084 C44.0377651,62.2157325 43.9973297,62.2994338 43.9835816,62.4053747" id="Fill-1" fill="#E0E4E6" mask="url(#mask-2)"></path>
                                </g>
                                <g id="Group-6" transform="translate(42.861566, 15.614280)">
                                    <mask id="mask-4" fill="white">
                                        <use xlink:href="#path-3"></use>
                                    </mask>
                                    <g id="Clip-5"></g>
                                    <path d="M11.4795134,0.0862218349 C11.5199488,0.0870305437 11.5603842,0.0870305437 11.6008197,0.0862218349 L11.6008197,11.7604723 C11.3468851,11.7515765 11.2168178,11.553308 11.062624,11.399249 C7.51387506,7.85198272 3.96647397,4.30336858 0.42042074,0.753541367 C0.265822577,0.598673635 0.0714628996,0.467393242 0.0438320161,0.220737063 C3.62465973,0.216423949 7.20535266,0.213728253 10.7860456,0.204428102 C11.0194929,0.203754178 11.2762579,0.286107689 11.4795134,0.0862218349" id="Fill-4" fill="#C7D0D8" mask="url(#mask-4)"></path>
                                </g>
                                <g id="Group-9" transform="translate(0.000000, 29.362329)">
                                    <mask id="mask-6" fill="white">
                                        <use xlink:href="#path-5"></use>
                                    </mask>
                                    <g id="Clip-8"></g>
                                    <path d="M7.77843066,0.0596961868 C8.04112623,0.0663006418 8.30395658,0.078835628 8.56665215,0.078835628 C20.4482016,0.0797791216 32.3298859,0.0796443368 44.2114353,0.0797791216 C45.9957165,0.0797791216 46.6823723,0.758285792 46.6823723,2.52329271 C46.6823723,8.65842712 46.6823723,14.7935615 46.6809624,20.9288307 C46.6808276,21.2521794 46.6622273,21.5753934 46.652388,21.8990117 C46.2485727,23.0263517 45.421668,23.4379845 44.2584752,23.4367714 C32.3608864,23.423293 20.4632975,23.4284148 8.56570866,23.4293583 C8.30314787,23.4293583 8.0404523,23.4417585 7.77762195,23.4483629 C5.9365964,23.4417585 4.09557085,23.4352888 2.25441052,23.4284148 C0.766925497,23.4228886 0.00229134156,22.6713286 0.00175220237,21.197322 C-0.000673923987,14.9016589 -0.000673923987,8.60586105 0.00175220237,2.31006316 C0.00229134156,0.836865328 0.767464636,0.0853052983 2.25521923,0.0797791216 C4.09637956,0.0729050969 5.93740511,0.0663006418 7.77843066,0.0596961868 Z" id="Combined-Shape" fill="#153A6A" mask="url(#mask-6)"></path>
                                </g>
                                <path d="M54.3410789,15.7005015 C54.1378235,15.9003873 53.8810584,15.8180338 53.6476112,15.8187077 C50.0669182,15.8280079 46.4862253,15.8307036 42.9053976,15.8350167 C40.4279182,15.7084538 38.9028282,14.096832 38.9020195,11.6010219 C38.9008065,8.08556477 38.8999978,4.5699729 38.9053892,1.05451582 C38.9057935,0.822281613 38.821553,0.564707866 39.0283129,0.365091581 C44.1326132,5.47680502 49.2367787,10.5886532 54.3410789,15.7005015" id="Fill-10" fill="#AEB7BE"></path>
                                <path d="M7.77766238,52.8106784 C8.04035795,52.804074 8.30305352,52.7916738 8.56574909,52.7916738 C20.4633379,52.7908651 32.3609268,52.7856085 44.2585156,52.7990869 C45.4217084,52.8003 46.2486132,52.3886672 46.6524284,51.2613272 C46.6619982,51.8074752 46.6965031,52.3547015 46.675881,52.899906 C46.6377369,53.8992005 45.8385978,54.6816262 44.838899,54.7351358 C44.7783806,54.7385054 44.7174579,54.7363488 44.6566699,54.7363488 C32.367666,54.7344618 20.0786621,54.7325749 7.78965823,54.7305531 C7.78574947,54.0905949 7.78170593,53.4506366 7.77766238,52.8106784" id="Fill-12" fill="#C7D0D8"></path>
                            </g>
                            <path d="M26.4005475,45.89916 C25.835366,47.6359693 24.0571857,48.8545455 21.9124525,48.8545455 C20.6491333,48.8545455 19.4635219,48.4138792 18.8363636,47.7524598 L20.3530858,46.0028627 C20.8015162,46.7289679 21.4685708,47.1045749 22.2976743,47.1045749 C23.2186056,47.1045749 23.8620635,46.6639087 24.1025784,45.925389 C24.3516222,45.1606404 23.960904,44.7842866 23.0394988,44.7842866 L21.5657054,44.7842866 L21.9664688,43.553296 L24.7022546,41.4534807 L21.3468918,41.4534807 L21.9206023,39.6909091 L28,39.6909091 L27.5737447,40.9996533 L24.5035313,43.3586785 L24.9164247,43.423551 C26.1914948,43.6310496 26.8559906,44.499781 26.4005475,45.89916 Z" id="_x34_8-3D_icon-path" fill="#FFFFFF"></path>
                            <path d="M36.9072748,44.2731044 C36.0439952,46.9825993 33.4437554,48.8545455 30.516307,48.8545455 L26.6909091,48.8545455 L28.6277364,42.7762828 L30.9435896,42.7762828 L29.5993359,46.9957037 L31.2515892,46.9957037 C32.6699615,46.9957037 34.0352045,45.8960673 34.5482248,44.2860202 C35.0652743,42.6628687 34.3529491,41.5503165 32.8825721,41.5503165 L29.0189436,41.5489966 L29.6105802,39.6909091 L33.5270567,39.6909091 C36.389382,39.6910034 37.774771,41.5503165 36.9072748,44.2731044 Z" id="_x34_8-3D_icon-path" fill="#FFFFFF"></path>
                        </g>
                    </g>
                </g>
            </g>
        </g>
    </g>
</svg>