<?xml version="1.0" encoding="UTF-8"?>
<svg width="16px" height="16px" viewBox="0 0 16 16" version="1.1" xmlns="http://www.w3.org/2000/svg" xmlns:xlink="http://www.w3.org/1999/xlink">
    <title>B8B44EB3-B304-4D0E-8E45-8124C9435394@2x</title>
    <g id="Remote_Main_Mobile" stroke="none" stroke-width="1" fill="none" fill-rule="evenodd">
        <g id="Icon" transform="translate(-1315.000000, -121.000000)">
            <g id="icn_members" transform="translate(1315.000000, 121.000000)">
                <rect id="icn_renew" opacity="0.800000012" x="0" y="0" width="16" height="16"></rect>
                <g id="Shape-3" transform="translate(0.500000, 2.500000)" fill="#B6BCC2" fill-rule="nonzero">
                    <path d="M10.875,5.15625 C11.91,5.15625 12.7425,4.33125 12.7425,3.31473214 C12.7425,2.29821429 11.91,1.47321429 10.875,1.47321429 C9.84,1.47321429 9,2.29821429 9,3.31473214 C9,4.33125 9.84,5.15625 10.875,5.15625 Z M5.25,4.41964286 C6.495,4.41964286 7.4925,3.43258929 7.4925,2.20982143 C7.4925,0.987053571 6.495,0 5.25,0 C4.005,0 3,0.987053571 3,2.20982143 C3,3.43258929 4.005,4.41964286 5.25,4.41964286 Z M10.875,6.62946429 C9.5025,6.62946429 6.75,7.30714286 6.75,8.65513393 L6.75,10.3125 L15,10.3125 L15,8.65513393 C15,7.30714286 12.2475,6.62946429 10.875,6.62946429 Z M5.25,5.89285714 C3.5025,5.89285714 0,6.7546875 0,8.47098214 L0,10.3125 L5.25,10.3125 L5.25,8.65513393 C5.25,8.02901786 5.4975,6.93147321 7.0275,6.09910714 C6.375,5.96651786 5.745,5.89285714 5.25,5.89285714 Z" id="Shape"></path>
                </g>
            </g>
        </g>
    </g>
</svg>