<?xml version="1.0" encoding="UTF-8"?>
<svg width="22px" height="22px" viewBox="0 0 22 22" version="1.1" xmlns="http://www.w3.org/2000/svg" xmlns:xlink="http://www.w3.org/1999/xlink">
    <title>888EFCBB-C304-4829-A713-15A2B256842A@2x</title>
    <g id="Remote_Main" stroke="none" stroke-width="1" fill="none" fill-rule="evenodd" opacity="0.5">
        <g id="RWS_0020-_접속-전-화면_멤버-_그룹추가" transform="translate(-1492.000000, -501.000000)">
            <g id="list" transform="translate(219.000000, 464.000000)">
                <g id="btn" transform="translate(1260.000000, 30.000000)">
                    <g id="icn_members" transform="translate(13.000000, 7.000000)">
                        <rect id="icn_renew" opacity="0.800000012" x="0" y="0" width="22" height="22"></rect>
                        <path d="M14.6,11.5 C15.704,11.5 16.592,10.62 16.592,9.53571429 C16.592,8.45142857 15.704,7.57142857 14.6,7.57142857 C13.496,7.57142857 12.6,8.45142857 12.6,9.53571429 C12.6,10.62 13.496,11.5 14.6,11.5 Z M8.6,10.7142857 C9.928,10.7142857 10.992,9.66142857 10.992,8.35714286 C10.992,7.05285714 9.928,6 8.6,6 C7.272,6 6.2,7.05285714 6.2,8.35714286 C6.2,9.66142857 7.272,10.7142857 8.6,10.7142857 Z M14.6,13.0714286 C13.136,13.0714286 10.2,13.7942857 10.2,15.2321429 L10.2,17 L19,17 L19,15.2321429 C19,13.7942857 16.064,13.0714286 14.6,13.0714286 Z M8.6,12.2857143 C6.736,12.2857143 3,13.205 3,15.0357143 L3,17 L8.6,17 L8.6,15.2321429 C8.6,14.5642857 8.864,13.3935714 10.496,12.5057143 C9.8,12.3642857 9.128,12.2857143 8.6,12.2857143 Z" id="Shape" fill="#FFFFFF" fill-rule="nonzero"></path>
                    </g>
                </g>
            </g>
        </g>
    </g>
</svg>