<?xml version="1.0" encoding="UTF-8"?>
<svg width="16px" height="16px" viewBox="0 0 16 16" version="1.1" xmlns="http://www.w3.org/2000/svg" xmlns:xlink="http://www.w3.org/1999/xlink">
    <title>FD9B36AF-A478-41CB-B0D1-85864F06A321@1x</title>
    <defs>
        <path d="M12.6,1.4 L7,1.4 L5.6,0 L1.4,0 C0.63,0 0.007,0.63 0.007,1.4 L0,9.8 C0,10.57 0.63,11.2 1.4,11.2 L12.6,11.2 C13.37,11.2 14,10.57 14,9.8 L14,2.8 C14,2.03 13.37,1.4 12.6,1.4 Z M9.1,3.5 C9.87,3.5 10.5,4.13 10.5,4.9 C10.5,5.67 9.87,6.3 9.1,6.3 C8.33,6.3 7.7,5.67 7.7,4.9 C7.7,4.13 8.33,3.5 9.1,3.5 Z M11.9,9.1 L6.3,9.1 L6.3,8.4 C6.3,7.469 8.169,7 9.1,7 C10.031,7 11.9,7.469 11.9,8.4 L11.9,9.1 Z" id="path-1"></path>
    </defs>
    <g id="Remote_Main_Mobile" stroke="none" stroke-width="1" fill="none" fill-rule="evenodd">
        <g id="Icon" transform="translate(-1098.000000, -121.000000)">
            <g id="ic_main_return-copy" transform="translate(1076.000000, 99.000000)">
                <g id="icn_Group" transform="translate(22.000000, 22.000000)">
                    <rect id="icn_renew" opacity="0.800000012" x="0" y="0" width="16" height="16"></rect>
                    <g id="icon/file/folder_shared_24px-2" transform="translate(1.000000, 2.000000)">
                        <mask id="mask-2" fill="white">
                            <use xlink:href="#path-1"></use>
                        </mask>
                        <use id="icon/file/folder_shared_24px" fill="#B6BCC2" fill-rule="nonzero" xlink:href="#path-1"></use>
                    </g>
                </g>
            </g>
        </g>
    </g>
</svg>