<?xml version="1.0" encoding="UTF-8"?>
<svg width="44px" height="44px" viewBox="0 0 44 44" version="1.1" xmlns="http://www.w3.org/2000/svg" xmlns:xlink="http://www.w3.org/1999/xlink">
    <title>9E3E9950-1944-492F-AD41-50CC96DCD042@1.00x</title>
    <defs>
        <path d="M38.4,31.2 L38.4,12.9048068 L31.1615457,20.1432611 L31.1615457,13.8096136 C31.1615457,12.8143261 30.3472196,12 29.3519321,12 L19.2,12 L38.4,31.2 Z M7.27523511,4.8 L4.8,7.27523511 L9.59247649,12.0677116 L8.31097179,12.0677116 C7.34545455,12.0677116 6.55548589,12.8576803 6.55548589,13.8231975 L6.55548589,31.3780564 C6.55548589,32.3435737 7.34545455,33.1335423 8.31097179,33.1335423 L29.3768025,33.1335423 C29.7454545,33.1335423 30.061442,32.9931034 30.3423197,32.8175549 L35.9247649,38.4 L38.4,35.9247649 L7.27523511,4.8 Z" id="path-1"></path>
    </defs>
    <g id="N:N-Web" stroke="none" stroke-width="1" fill="none" fill-rule="evenodd">
        <g id="RNN_0040_홈-화면_환경-설정_카메라-없는-경우" transform="translate(-733.000000, -816.000000)">
            <g id="Group-2" transform="translate(220.000000, 458.000000)">
                <g id="Group-3" transform="translate(282.000000, 0.000000)">
                    <g id="List_01" transform="translate(2.000000, 55.000000)">
                        <g id="icon_nocamera" transform="translate(229.000000, 303.000000)">
                            <rect id="tr" x="0" y="0" width="43.2" height="43.2"></rect>
                            <mask id="mask-2" fill="white">
                                <use xlink:href="#path-1"></use>
                            </mask>
                            <use id="icon/av/videocam_off_24px" fill="#353535" fill-rule="nonzero" xlink:href="#path-1"></use>
                        </g>
                    </g>
                </g>
            </g>
        </g>
    </g>
</svg>