<?xml version="1.0" encoding="UTF-8"?>
<svg width="22px" height="22px" viewBox="0 0 22 22" version="1.1" xmlns="http://www.w3.org/2000/svg" xmlns:xlink="http://www.w3.org/1999/xlink">
    <!-- Generator: sketchtool 64 (101010) - https://sketch.com -->
    <title>3A5344FC-7A44-4652-B102-E87FEA8216D9@1.00x</title>
    <desc>Created with sketchtool.</desc>
    <g id="page" stroke="none" stroke-width="1" fill="none" fill-rule="evenodd">
        <g id="0.0-리소스-파일모음" transform="translate(-384.000000, -202.000000)">
            <g id="ic_renew" transform="translate(384.000000, 202.000000)">
                <rect id="icn_renew" opacity="0.447803442" x="0" y="0" width="22" height="22"></rect>
                <path d="M10.45,6.16 L10.45,3.3 L6.66875,6.875 L10.45,10.45 L10.45,7.59 C12.9531875,7.59 14.9875,9.51335 14.9875,11.88 C14.9875,14.24665 12.9531875,16.17 10.45,16.17 C7.9468125,16.17 5.9125,14.24665 5.9125,11.88 L4.4,11.88 C4.4,15.0403 7.107375,17.6 10.45,17.6 C13.792625,17.6 16.5,15.0403 16.5,11.88 C16.5,8.7197 13.792625,6.16 10.45,6.16 L10.45,6.16 Z" id="Shape" fill="#FFFFFF"></path>
            </g>
        </g>
    </g>
</svg>