<?xml version="1.0" encoding="UTF-8"?>
<svg width="16px" height="16px" viewBox="0 0 16 16" version="1.1" xmlns="http://www.w3.org/2000/svg" xmlns:xlink="http://www.w3.org/1999/xlink">
    <title>DC491E99-BE15-4C1B-8627-3CB408333A19@2x</title>
    <defs>
        <path d="M4.79289322,9.5 C5.06903559,9.5 5.29289322,9.72385763 5.29289322,10 C5.29289322,10.1326082 5.2402148,10.2597852 5.14644661,10.3535534 L3.86887542,11.6310577 C4.87681983,12.7769136 6.35396698,13.5 8,13.5 C10.5174902,13.5 12.6399306,11.8085909 13.2929177,9.50017618 L14.8387213,9.50086519 C14.1517263,12.6456138 11.3508113,15 8,15 C5.9399261,15 4.08770051,14.1100956 2.80677081,12.6937345 L1.85355339,13.6464466 C1.65829124,13.8417088 1.34170876,13.8417088 1.14644661,13.6464466 C1.05267842,13.5526784 1,13.4255015 1,13.2928932 L1,9.5 L4.79289322,9.5 Z M8,1 C10.0602807,1 11.9126714,1.89008309 13.193615,3.3066922 L14.1464466,2.35355339 C14.3417088,2.15829124 14.6582912,2.15829124 14.8535534,2.35355339 C14.9473216,2.44732158 15,2.57449854 15,2.70710678 L15,6.5 L11.2071068,6.5 C10.9309644,6.5 10.7071068,6.27614237 10.7071068,6 C10.7071068,5.86739176 10.7597852,5.7402148 10.8535534,5.64644661 L12.1306925,4.36845118 C11.1227581,3.22287978 9.64579785,2.5 8,2.5 C5.48214303,2.5 3.35945095,4.19190202 2.70679702,6.50083278 L1.16106056,6.50013381 C1.84768054,3.35488478 4.64883386,1 8,1 Z" id="path-1"></path>
    </defs>
    <g id="Remote_Main_Mobile" stroke="none" stroke-width="1" fill="none" fill-rule="evenodd">
        <g id="Icon" transform="translate(-1018.000000, -121.000000)">
            <g id="ic_main_return" transform="translate(996.000000, 99.000000)">
                <g id="Group-12" transform="translate(22.000000, 22.000000)">
                    <rect id="Rectangle" x="0" y="0" width="16" height="16"></rect>
                    <g id="icon-/-16px-/-ic_refresh_16">
                        <mask id="mask-2" fill="white">
                            <use xlink:href="#path-1"></use>
                        </mask>
                        <g id="shape" fill-rule="nonzero"></g>
                        <rect id="🎨-Color" fill="#B6BCC2" mask="url(#mask-2)" x="-16" y="-16" width="48" height="48"></rect>
                    </g>
                </g>
            </g>
        </g>
    </g>
</svg>