<?xml version="1.0" encoding="UTF-8"?>
<svg width="320px" height="230px" viewBox="0 0 320 230" version="1.1" xmlns="http://www.w3.org/2000/svg" xmlns:xlink="http://www.w3.org/1999/xlink">
    <title>A8F3CAF7-BCDB-442C-96E2-AAD0902CC471@1.00x</title>
    <defs>
        <polygon id="path-1" points="0.0004 0.714 256.9844 0.714 256.9844 152.2295 0.0004 152.2295"></polygon>
        <polygon id="path-3" points="0 190.286 300.244 190.286 300.244 1 0 1"></polygon>
    </defs>
    <g id="Remote_part01" stroke="none" stroke-width="1" fill="none" fill-rule="evenodd">
        <g id="RWS_0410_라이선스-만료-안내" transform="translate(-800.000000, -469.000000)">
            <g id="image" transform="translate(800.000000, 469.000000)">
                <rect id="tr" x="0" y="0" width="320" height="230"></rect>
                <g opacity="0.600000024" transform="translate(10.000000, 23.000000)">
                    <g id="Group-3" transform="translate(0.000000, 0.286000)">
                        <mask id="mask-2" fill="white">
                            <use xlink:href="#path-1"></use>
                        </mask>
                        <g id="Clip-2"></g>
                        <path d="M212.0854,152.2295 L9.8344,152.2295 C4.4114,152.2295 0.0004,147.8175 0.0004,142.3955 L0.0004,10.5485 C0.0004,5.1255 4.4114,0.7135 9.8344,0.7135 L247.1504,0.7135 C252.5734,0.7135 256.9844,5.1255 256.9844,10.5485 L256.9844,66.5925 C256.9844,66.9795 256.6714,67.2925 256.2844,67.2925 C255.8984,67.2925 255.5844,66.9795 255.5844,66.5925 L255.5844,10.5485 C255.5844,5.8975 251.8014,2.1145 247.1504,2.1145 L9.8344,2.1145 C5.1834,2.1145 1.4004,5.8975 1.4004,10.5485 L1.4004,142.3955 C1.4004,147.0455 5.1834,150.8295 9.8344,150.8295 L212.0854,150.8295 C212.4724,150.8295 212.7854,151.1425 212.7854,151.5295 C212.7854,151.9165 212.4724,152.2295 212.0854,152.2295" id="Fill-1" fill="#FFFFFF" mask="url(#mask-2)"></path>
                    </g>
                    <path d="M212.0854,127.1034 L0.7004,127.1034 C0.3134,127.1034 0.0004,126.7904 0.0004,126.4034 C0.0004,126.0164 0.3134,125.7034 0.7004,125.7034 L212.0854,125.7034 C212.4724,125.7034 212.7854,126.0164 212.7854,126.4034 C212.7854,126.7904 212.4724,127.1034 212.0854,127.1034" id="Fill-4" fill="#FFFFFF"></path>
                    <path d="M192.7056,190.286 L73.7666,190.286 C73.3796,190.286 73.0656,189.973 73.0656,189.586 C73.0656,189.199 73.3796,188.886 73.7666,188.886 L192.7056,188.886 C193.0926,188.886 193.4056,189.199 193.4056,189.586 C193.4056,189.973 193.0926,190.286 192.7056,190.286" id="Fill-6" fill="#FFFFFF"></path>
                    <path d="M299.5435,190.286 L210.4225,190.286 C210.0355,190.286 209.7225,189.973 209.7225,189.586 C209.7225,189.199 210.0355,188.886 210.4225,188.886 L299.5435,188.886 C299.9305,188.886 300.2435,189.199 300.2435,189.586 C300.2435,189.973 299.9305,190.286 299.5435,190.286" id="Fill-8" fill="#FFFFFF"></path>
                    <mask id="mask-4" fill="white">
                        <use xlink:href="#path-3"></use>
                    </mask>
                    <g id="Clip-11"></g>
                    <polygon id="Fill-10" fill="#FFFFFF" mask="url(#mask-4)" points="243.678 84.534 266.29 84.534 266.29 83.134 243.678 83.134"></polygon>
                    <path d="M134.9253,133.0917 C131.7643,133.0917 129.1933,135.6627 129.1933,138.8237 C129.1933,141.9857 131.7643,144.5567 134.9253,144.5567 C138.0863,144.5567 140.6573,141.9857 140.6573,138.8237 C140.6573,135.6627 138.0863,133.0917 134.9253,133.0917 M134.9253,145.9567 C130.9923,145.9567 127.7923,142.7577 127.7923,138.8237 C127.7923,134.8907 130.9923,131.6917 134.9253,131.6917 C138.8583,131.6917 142.0583,134.8907 142.0583,138.8237 C142.0583,142.7577 138.8583,145.9567 134.9253,145.9567" id="Fill-12" fill="#FFFFFF" mask="url(#mask-4)"></path>
                    <polygon id="Fill-13" fill="#FFFFFF" mask="url(#mask-4)" points="97.9976 189.8724 96.7206 189.2994 113.6796 151.5284 114.9566 152.1014"></polygon>
                    <polygon id="Fill-14" fill="#FFFFFF" mask="url(#mask-4)" points="168.7866 189.8724 151.8266 152.1014 153.1036 151.5284 170.0636 189.2994"></polygon>
                    <path d="M223.7593,188.8856 L286.2073,188.8856 L286.2073,84.7936 C286.2073,80.7486 282.9163,77.4576 278.8713,77.4576 L231.0953,77.4576 C227.0503,77.4576 223.7593,80.7486 223.7593,84.7936 L223.7593,188.8856 Z M287.6083,190.2856 L222.3593,190.2856 L222.3593,84.7936 C222.3593,79.9766 226.2783,76.0576 231.0953,76.0576 L278.8713,76.0576 C283.6893,76.0576 287.6083,79.9766 287.6083,84.7936 L287.6083,190.2856 Z" id="Fill-15" fill="#FFFFFF" mask="url(#mask-4)"></path>
                    <path d="M222.8101,67.2074471 L244.2851,67.2074471 L244.2851,13.7003 L12.7001,13.7003 L12.7001,125.7003 L212.8621,125.7003 L212.8621,77.0943889 C212.8621,71.6336647 217.3161,67.2074471 222.8101,67.2074471" id="Fill-16" fill="#2C2C2D" mask="url(#mask-4)"></path>
                    <polygon id="Fill-17" fill="#2C2C2D" mask="url(#mask-4)" points="230.428 188.8856 279.312 188.8856 279.312 89.168 230.428 89.168"></polygon>
                    <path d="M96.8325,34.6283 C96.2145,34.6283 95.6355,35.0133 95.4175,35.6293 C95.1425,36.4103 95.5515,37.2673 96.3325,37.5433 C96.4705,37.5913 96.6075,37.6423 96.7435,37.6933 C96.9175,37.7583 97.0965,37.7903 97.2725,37.7903 C97.8785,37.7903 98.4495,37.4193 98.6765,36.8183 C98.9685,36.0433 98.5765,35.1783 97.8015,34.8863 L97.8015,34.8853 C97.6455,34.8273 97.4895,34.7703 97.3315,34.7143 C97.1665,34.6563 96.9985,34.6283 96.8325,34.6283 L96.8325,34.6283 Z M102.9925,37.9613 C102.5405,37.9613 102.0945,38.1653 101.7985,38.5513 C101.2965,39.2103 101.4225,40.1513 102.0815,40.6543 C102.1975,40.7433 102.3125,40.8333 102.4265,40.9233 C102.7025,41.1433 103.0325,41.2503 103.3595,41.2503 C103.8015,41.2503 104.2385,41.0563 104.5345,40.6853 C105.0505,40.0373 104.9435,39.0933 104.2955,38.5773 C104.2505,38.5413 104.2065,38.5063 104.1615,38.4703 L104.1605,38.4703 C104.1565,38.4673 104.1525,38.4643 104.1485,38.4613 L104.1475,38.4603 C104.1445,38.4573 104.1405,38.4543 104.1375,38.4513 C104.1365,38.4513 104.1365,38.4513 104.1355,38.4513 C104.1325,38.4483 104.1285,38.4453 104.1255,38.4423 C104.1245,38.4423 104.1235,38.4413 104.1225,38.4403 C104.1195,38.4383 104.1165,38.4353 104.1135,38.4333 C104.1115,38.4323 104.1105,38.4313 104.1095,38.4303 C104.1065,38.4283 104.1035,38.4263 104.1015,38.4243 C104.0995,38.4223 104.0975,38.4213 104.0965,38.4203 L104.0905,38.4153 C104.0885,38.4143 104.0845,38.4113 104.0835,38.4103 L104.0775,38.4053 C104.0765,38.4043 104.0735,38.4023 104.0715,38.4013 C104.0705,38.4003 104.0695,38.3993 104.0685,38.3983 C104.0645,38.3963 104.0615,38.3933 104.0585,38.3903 C104.0575,38.3903 104.0565,38.3893 104.0555,38.3883 C104.0515,38.3853 104.0475,38.3823 104.0435,38.3793 C104.0435,38.3783 104.0425,38.3783 104.0425,38.3783 C103.9955,38.3413 103.9475,38.3043 103.8995,38.2683 C103.6275,38.0623 103.3095,37.9613 102.9925,37.9613 L102.9925,37.9613 Z M107.8365,43.0223 C107.5405,43.0223 107.2415,43.1093 106.9795,43.2913 C106.3005,43.7653 106.1335,44.7003 106.6065,45.3793 C106.6905,45.4993 106.7725,45.6203 106.8535,45.7413 C107.1435,46.1753 107.6185,46.4093 108.1035,46.4093 C108.3895,46.4093 108.6785,46.3283 108.9345,46.1573 C109.6235,45.6983 109.8095,44.7663 109.3505,44.0773 C109.3475,44.0733 109.3445,44.0693 109.3415,44.0653 C109.3415,44.0643 109.3415,44.0643 109.3405,44.0643 C109.3385,44.0603 109.3355,44.0563 109.3325,44.0523 C109.3325,44.0513 109.3325,44.0503 109.3315,44.0493 C109.3295,44.0463 109.3275,44.0443 109.3255,44.0413 C109.3245,44.0403 109.3235,44.0383 109.3225,44.0363 C109.3205,44.0343 109.3185,44.0313 109.3165,44.0283 C109.3155,44.0253 109.3145,44.0243 109.3125,44.0223 C109.3115,44.0213 109.3115,44.0193 109.3105,44.0183 C109.3085,44.0153 109.3055,44.0103 109.3035,44.0073 C109.3025,44.0063 109.3025,44.0063 109.3015,44.0053 C109.2245,43.8903 109.1455,43.7753 109.0665,43.6623 C108.7745,43.2453 108.3095,43.0223 107.8365,43.0223 L107.8365,43.0223 Z M110.8995,49.3183 C110.7555,49.3183 110.6075,49.3393 110.4625,49.3843 C109.6695,49.6263 109.2235,50.4633 109.4645,51.2563 C109.5075,51.3953 109.5485,51.5353 109.5875,51.6753 C109.7745,52.3373 110.3755,52.7693 111.0305,52.7693 C111.1655,52.7693 111.3025,52.7513 111.4385,52.7123 C112.2355,52.4873 112.7005,51.6593 112.4755,50.8613 C112.4305,50.7013 112.3825,50.5413 112.3345,50.3813 C112.1375,49.7353 111.5425,49.3183 110.8995,49.3183 L110.8995,49.3183 Z M111.8725,56.2563 C111.0545,56.2563 110.3855,56.9133 110.3735,57.7333 C110.3705,57.8803 110.3675,58.0263 110.3615,58.1723 C110.3325,59.0003 110.9795,59.6953 111.8075,59.7253 C111.8255,59.7263 111.8435,59.7263 111.8615,59.7263 C112.6655,59.7263 113.3305,59.0893 113.3595,58.2803 L113.3595,58.2783 C113.3595,58.2743 113.3605,58.2693 113.3605,58.2653 L113.3605,58.2623 C113.3605,58.2583 113.3605,58.2543 113.3605,58.2503 L113.3605,58.2483 C113.3615,58.2433 113.3615,58.2383 113.3615,58.2343 C113.3615,58.2333 113.3615,58.2323 113.3615,58.2313 L113.3615,58.2173 C113.3625,58.2123 113.3625,58.2073 113.3625,58.2023 L113.3625,58.2013 C113.3675,58.0613 113.3705,57.9203 113.3725,57.7793 C113.3855,56.9513 112.7245,56.2703 111.8955,56.2573 C111.8885,56.2563 111.8805,56.2563 111.8725,56.2563 L111.8725,56.2563 Z M110.6845,63.1583 C110.0595,63.1583 109.4755,63.5523 109.2635,64.1763 C109.2165,64.3153 109.1685,64.4523 109.1185,64.5893 C108.8355,65.3673 109.2385,66.2283 110.0175,66.5103 C110.1865,66.5723 110.3585,66.6013 110.5285,66.6013 C111.1415,66.6013 111.7165,66.2223 111.9385,65.6133 C111.9385,65.6123 111.9395,65.6093 111.9405,65.6083 C111.9405,65.6063 111.9415,65.6043 111.9425,65.6023 C111.9435,65.6003 111.9445,65.5973 111.9455,65.5953 C111.9465,65.5913 111.9475,65.5883 111.9485,65.5863 C111.9485,65.5853 111.9495,65.5823 111.9495,65.5823 C111.9515,65.5773 111.9525,65.5733 111.9545,65.5693 C111.9545,65.5683 111.9545,65.5683 111.9555,65.5673 C112.0065,65.4263 112.0565,65.2833 112.1045,65.1413 C112.3705,64.3563 111.9505,63.5043 111.1655,63.2383 C111.0065,63.1843 110.8435,63.1583 110.6845,63.1583 L110.6845,63.1583 Z M107.4275,69.3573 C106.9695,69.3573 106.5175,69.5663 106.2235,69.9613 C106.1355,70.0793 106.0475,70.1953 105.9575,70.3103 C105.4495,70.9643 105.5675,71.9063 106.2225,72.4153 C106.4955,72.6283 106.8195,72.7313 107.1415,72.7313 C107.5885,72.7313 108.0315,72.5313 108.3265,72.1503 C108.3395,72.1343 108.3525,72.1183 108.3645,72.1023 L108.3655,72.1013 C108.3685,72.0973 108.3715,72.0933 108.3745,72.0893 L108.3745,72.0883 L108.3835,72.0773 L108.3845,72.0763 C108.3875,72.0723 108.3905,72.0693 108.3925,72.0663 C108.3935,72.0653 108.3935,72.0643 108.3945,72.0643 C108.3965,72.0603 108.3995,72.0573 108.4015,72.0543 C108.4025,72.0523 108.4035,72.0513 108.4045,72.0503 C108.4065,72.0473 108.4095,72.0443 108.4115,72.0413 C108.4125,72.0393 108.4135,72.0383 108.4155,72.0373 C108.4165,72.0353 108.4175,72.0323 108.4195,72.0303 C108.4215,72.0273 108.4235,72.0253 108.4255,72.0233 C108.4265,72.0223 108.4275,72.0203 108.4285,72.0193 C108.4805,71.9503 108.5335,71.8813 108.5855,71.8123 C108.5865,71.8113 108.5865,71.8103 108.5875,71.8093 C108.5895,71.8063 108.5915,71.8033 108.5945,71.8003 C108.5965,71.7973 108.5985,71.7943 108.6015,71.7913 L108.6015,71.7903 C108.6105,71.7773 108.6205,71.7653 108.6295,71.7533 C109.1245,71.0883 108.9865,70.1493 108.3215,69.6543 C108.0525,69.4543 107.7385,69.3573 107.4275,69.3573 L107.4275,69.3573 Z M102.4235,74.2643 C102.1215,74.2643 101.8165,74.3553 101.5525,74.5453 C101.4335,74.6293 101.3135,74.7133 101.1935,74.7953 C100.5095,75.2633 100.3345,76.1963 100.8025,76.8803 C101.0935,77.3053 101.5635,77.5333 102.0415,77.5333 C102.3335,77.5333 102.6285,77.4483 102.8875,77.2713 C102.9735,77.2123 103.0595,77.1533 103.1445,77.0933 C103.1445,77.0933 103.1445,77.0933 103.1455,77.0923 C103.1495,77.0893 103.1535,77.0873 103.1575,77.0843 C103.1575,77.0843 103.1575,77.0843 103.1585,77.0843 C103.1615,77.0813 103.1645,77.0793 103.1675,77.0763 C103.1695,77.0763 103.1695,77.0753 103.1715,77.0743 C103.1745,77.0723 103.1775,77.0703 103.1805,77.0673 C103.1815,77.0663 103.1835,77.0653 103.1855,77.0653 C103.1875,77.0633 103.1905,77.0613 103.1935,77.0593 C103.1955,77.0573 103.1975,77.0563 103.1995,77.0543 L103.2035,77.0513 C103.2075,77.0493 103.2095,77.0473 103.2135,77.0453 C103.2145,77.0443 103.2155,77.0433 103.2175,77.0423 C103.2235,77.0373 103.2305,77.0323 103.2375,77.0273 C103.2375,77.0273 103.2385,77.0273 103.2385,77.0263 C103.2435,77.0233 103.2475,77.0213 103.2515,77.0173 L103.2535,77.0163 C103.2585,77.0123 103.2615,77.0103 103.2665,77.0063 C103.2675,77.0063 103.2675,77.0063 103.2675,77.0063 C103.2745,77.0013 103.2815,76.9963 103.2885,76.9913 C103.2895,76.9903 103.2905,76.9893 103.2915,76.9883 C103.2935,76.9873 103.2965,76.9853 103.2985,76.9843 C103.9715,76.5023 104.1265,75.5663 103.6445,74.8923 C103.3525,74.4823 102.8915,74.2643 102.4235,74.2643 L102.4235,74.2643 Z M96.1655,77.4023 C96.0155,77.4023 95.8615,77.4253 95.7105,77.4733 C95.5715,77.5183 95.4325,77.5603 95.2925,77.6023 C94.4985,77.8363 94.0445,78.6703 94.2785,79.4653 C94.4715,80.1183 95.0685,80.5413 95.7165,80.5413 C95.8575,80.5413 95.9995,80.5213 96.1415,80.4793 C96.1425,80.4793 96.1425,80.4793 96.1435,80.4793 C96.1475,80.4773 96.1525,80.4763 96.1565,80.4743 L96.1575,80.4743 C96.3125,80.4283 96.4665,80.3813 96.6205,80.3323 C97.4095,80.0813 97.8465,79.2373 97.5945,78.4483 C97.3915,77.8103 96.8015,77.4023 96.1655,77.4023 L96.1655,77.4023 Z M88.7705,78.4543 C87.9585,78.4543 87.2915,79.1023 87.2715,79.9183 C87.2525,80.7463 87.9075,81.4333 88.7355,81.4533 C88.8085,81.4553 88.8805,81.4563 88.9535,81.4573 L88.9545,81.4573 C88.9645,81.4583 88.9735,81.4583 88.9825,81.4583 L88.9875,81.4583 C88.9915,81.4583 88.9955,81.4583 88.9995,81.4583 L89.0045,81.4583 L89.0115,81.4583 L89.0235,81.4583 L89.0285,81.4583 C89.0315,81.4583 89.0335,81.4583 89.0365,81.4593 L89.0405,81.4593 L89.0545,81.4593 L89.0585,81.4593 C89.0665,81.4593 89.0765,81.4593 89.0845,81.4593 L89.0885,81.4593 L89.1025,81.4593 L89.1065,81.4593 L89.1135,81.4593 L89.1235,81.4593 L89.1295,81.4593 C89.1325,81.4593 89.1355,81.4603 89.1395,81.4603 L89.1435,81.4603 L89.1575,81.4603 L89.1575,81.4603 C89.1835,81.4603 89.2095,81.4603 89.2355,81.4603 L89.2405,81.4603 C90.0665,81.4603 90.7375,80.7923 90.7405101,79.9653 C90.7435,79.1363 90.0745,78.4623 89.2455,78.4603 C89.0995,78.4603 88.9535,78.4583 88.8075,78.4543 L88.7705,78.4543 Z M81.8805,77.2053 C81.2605,77.2053 80.6805,77.5923 80.4645,78.2113 C80.1905,78.9923 80.6035,79.8483 81.3855,80.1213 C81.4545,80.1453 81.5235,80.1693 81.5925,80.1923 C81.5975,80.1943 81.6025,80.1953 81.6065,80.1973 C81.6075,80.1973 81.6075,80.1973 81.6075,80.1973 C81.6125,80.1993 81.6175,80.2013 81.6215,80.2023 L81.6235,80.2023 C81.6265,80.2043 81.6315,80.2053 81.6355,80.2073 C81.6365,80.2073 81.6365,80.2073 81.6375,80.2083 C81.6415,80.2093 81.6455,80.2103 81.6495,80.2113 C81.6515,80.2123 81.6525,80.2123 81.6535,80.2133 C81.6575,80.2143 81.6615,80.2153 81.6655,80.2173 C81.6665,80.2173 81.6675,80.2173 81.6685,80.2183 C81.6725,80.2193 81.6755,80.2203 81.6785,80.2213 C81.6805,80.2223 81.6815,80.2223 81.6825,80.2223 C81.6865,80.2243 81.6895,80.2253 81.6935,80.2263 L81.6985,80.2283 C81.7025,80.2293 81.7065,80.2303 81.7095,80.2323 C81.7115,80.2323 81.7115,80.2323 81.7135,80.2333 C81.7175,80.2343 81.7215,80.2353 81.7255,80.2363 C81.7255,80.2373 81.7255,80.2373 81.7265,80.2373 C81.7305,80.2383 81.7345,80.2403 81.7395,80.2413 C81.7405,80.2423 81.7405,80.2423 81.7415,80.2423 C81.7465,80.2443 81.7505,80.2453 81.7555,80.2473 C81.7905,80.2583 81.8245,80.2703 81.8595,80.2813 C82.0145,80.3313 82.1705,80.3553 82.3245,80.3553 C82.9565,80.3553 83.5435,79.9533 83.7505,79.3193 C84.0075,78.5323 83.5765,77.6853 82.7895,77.4283 C82.6505,77.3833 82.5125,77.3363 82.3745,77.2893 C82.2105,77.2323 82.0445,77.2053 81.8805,77.2053 L81.8805,77.2053 Z M75.7105,73.8933 C75.2575,73.8933 74.8095,74.0983 74.5145,74.4873 C74.0145,75.1483 74.1435,76.0883 74.8045,76.5893 C74.8535,76.6273 74.9035,76.6643 74.9535,76.7013 L74.9545,76.7023 C74.9575,76.7043 74.9615,76.7073 74.9645,76.7103 C74.9665,76.7113 74.9665,76.7113 74.9675,76.7123 C74.9715,76.7143 74.9745,76.7173 74.9775,76.7193 C74.9785,76.7203 74.9795,76.7213 74.9815,76.7223 C74.9835,76.7243 74.9855,76.7253 74.9875,76.7273 C74.9905,76.7293 74.9945,76.7323 74.9975,76.7333 C74.9975,76.7343 74.9985,76.7353 74.9995,76.7353 C75.0575,76.7783 75.1145,76.8203 75.1725,76.8623 C75.1735,76.8633 75.1745,76.8643 75.1755,76.8653 C75.1785,76.8673 75.1805,76.8683 75.1835,76.8703 C75.1865,76.8723 75.1885,76.8753 75.1915,76.8773 C75.1925,76.8773 75.1925,76.8783 75.1935,76.8783 L75.2055,76.8873 C75.4715,77.0803 75.7795,77.1733 76.0855,77.1733 C76.5495,77.1733 77.0075,76.9583 77.3005,76.5543 C77.7875,75.8833 77.6385,74.9453 76.9675,74.4593 C76.8495,74.3733 76.7315,74.2863 76.6155,74.1983 C76.3445,73.9933 76.0265,73.8933 75.7105,73.8933 L75.7105,73.8933 Z M70.8445,68.8503 C70.5465,68.8503 70.2465,68.9393 69.9835,69.1233 C69.3065,69.5983 69.1425,70.5343 69.6185,71.2123 L69.6185,71.2123 C69.6215,71.2163 69.6235,71.2203 69.6255,71.2233 C69.6265,71.2243 69.6265,71.2243 69.6275,71.2263 C69.6305,71.2293 69.6325,71.2323 69.6345,71.2353 C69.6355,71.2373 69.6365,71.2383 69.6375,71.2393 C69.6395,71.2433 69.6425,71.2463 69.6445,71.2493 C69.6455,71.2513 69.6455,71.2523 69.6475,71.2533 L69.6515,71.2593 C69.6535,71.2623 69.6555,71.2643 69.6565,71.2673 L69.6615,71.2733 C69.6625,71.2753 69.6645,71.2783 69.6665,71.2803 C69.6675,71.2823 69.6685,71.2843 69.6705,71.2863 C69.6715,71.2883 69.6735,71.2903 69.6745,71.2933 L69.6765,71.2953 C69.6795,71.2983 69.6825,71.3033 69.6855,71.3063 C69.6855,71.3073 69.6865,71.3083 69.6865,71.3093 C69.6895,71.3133 69.6925,71.3173 69.6955,71.3223 L69.6965,71.3223 C69.7265,71.3643 69.7555,71.4053 69.7855,71.4473 L69.7855,71.4473 C69.7945,71.4603 69.8035,71.4713 69.8115,71.4833 C69.8115,71.4843 69.8125,71.4843 69.8125,71.4853 C69.8155,71.4893 69.8185,71.4923 69.8215,71.4973 C69.8225,71.4983 69.8235,71.4993 69.8245,71.5013 C69.8255,71.5033 69.8275,71.5063 69.8295,71.5083 L69.8335,71.5143 C69.8345,71.5163 69.8365,71.5183 69.8375,71.5203 C69.8395,71.5233 69.8425,71.5253 69.8445,71.5283 C69.8455,71.5293 69.8465,71.5313 69.8475,71.5323 C69.8495,71.5353 69.8515,71.5383 69.8535,71.5423 C69.8545,71.5433 69.8545,71.5433 69.8555,71.5443 C69.8575,71.5473 69.8605,71.5513 69.8635,71.5543 L69.8635,71.5553 C69.8795,71.5763 69.8945,71.5973 69.9095,71.6183 C70.2035,72.0193 70.6595,72.2313 71.1205,72.2313 C71.4285,72.2313 71.7395,72.1363 72.0065,71.9413 C72.6745,71.4503 72.8185,70.5123 72.3285,69.8443 C72.2425,69.7263 72.1575,69.6073 72.0735,69.4883 C71.7815,69.0723 71.3165,68.8503 70.8445,68.8503 L70.8445,68.8503 Z M67.7625,62.5633 C67.6165,62.5633 67.4675,62.5853 67.3195,62.6303 C66.5285,62.8753 66.0845,63.7143 66.3285,64.5063 C66.3365,64.5303 66.3435,64.5543 66.3515,64.5783 L66.3525,64.5833 C66.3535,64.5863 66.3545,64.5893 66.3555,64.5933 C66.3565,64.5953 66.3575,64.5983 66.3575,64.6003 C66.3585,64.6013 66.3585,64.6033 66.3595,64.6043 L66.3635,64.6193 C66.3635,64.6193 66.3635,64.6193 66.3645,64.6193 C66.3775,64.6633 66.3915,64.7063 66.4055,64.7503 C66.4055,64.7513 66.4065,64.7523 66.4065,64.7533 C66.4075,64.7563 66.4095,64.7613 66.4105,64.7653 C66.4105,64.7673 66.4115,64.7693 66.4125,64.7713 C66.4125,64.7733 66.4135,64.7743 66.4145,64.7773 C66.4155,64.7803 66.4165,64.7843 66.4175,64.7883 C66.4175,64.7893 66.4185,64.7903 66.4185,64.7923 C66.4205,64.7953 66.4215,64.8003 66.4225,64.8043 L66.4225,64.8043 C66.4415,64.8633 66.4615,64.9233 66.4805,64.9823 C66.6895,65.6123 67.2755,66.0103 67.9045,66.0103 C68.0615,66.0103 68.2205,65.9853 68.3765,65.9343 C69.1635,65.6733 69.5895,64.8243 69.3285,64.0383 C69.2825,63.8993 69.2385,63.7613 69.1955,63.6213 C68.9965,62.9773 68.4035,62.5633 67.7625,62.5633 L67.7625,62.5633 Z M66.7555,55.6293 C65.9425,55.6293 65.2805,56.2783 65.2655,57.0913 C65.2645,57.1183 65.2645,57.1433 65.2645,57.1703 L65.2645,57.1713 L65.2645,57.1783 L65.2645,57.1833 L65.2645,57.1863 C65.2635,57.2403 65.2635,57.2953 65.2635,57.3493 L65.2635,57.3503 L65.2635,57.3573 L65.2635,57.3593 L65.2635,57.3673 L65.2635,57.3703 L65.2635,57.3763 L65.2635,57.3803 L65.2635,57.3853 L65.2635,57.3923 L65.2635,57.3943 L65.2635,57.4043 L65.2635,57.4153 L65.2635,57.4203 L65.2635,57.4273 L65.2635,57.4323 L65.2635,57.4393 L65.2635,57.4493 L65.2635,57.4533 L65.2635,57.4613 L65.2635,57.4633 C65.2635,57.5193 65.2635,57.5723 65.2645,57.6283 C65.2755,58.4443 65.9395,59.1003 66.7575,59.1003 L66.7705,59.1003 C67.5985,59.0923 68.2675,58.4153 68.2645279,57.5873 L68.2635,57.4043 L68.2645279,57.1473 C68.2695,56.3193 67.6025,55.6393 66.7735,55.6293 L66.7555,55.6293 Z M67.9295,48.7233 C67.3025,48.7233 66.7185,49.1193 66.5075,49.7463 C66.4645,49.8743 66.4225,50.0033 66.3825,50.1313 C66.3815,50.1323 66.3815,50.1323 66.3815,50.1333 C66.3795,50.1373 66.3785,50.1423 66.3775,50.1463 L66.3755,50.1503 C66.3755,50.1523 66.3745,50.1553 66.3735,50.1583 C66.3725,50.1613 66.3715,50.1663 66.3705,50.1693 C66.3695,50.1703 66.3695,50.1703 66.3695,50.1713 C66.3635,50.1893 66.3575,50.2073 66.3525,50.2253 C66.1075,51.0153 66.5485,51.8543 67.3375,52.1013 C67.4865,52.1483 67.6375,52.1703 67.7855,52.1703 C68.4245,52.1703 69.0165,51.7583 69.2175,51.1163 C69.2605,50.9773 69.3055,50.8383 69.3525,50.7003 C69.6155,49.9153 69.1925,49.0653 68.4065,48.8013 C68.2485,48.7483 68.0875,48.7233 67.9295,48.7233 L67.9295,48.7233 Z M71.1665,42.5133 C70.7075,42.5133 70.2535,42.7243 69.9595,43.1223 C69.8605,43.2563 69.7625,43.3913 69.6665,43.5273 C69.1875,44.2043 69.3485,45.1403 70.0245,45.6183 C70.2885,45.8043 70.5905,45.8943 70.8895,45.8943 C71.3605,45.8943 71.8235,45.6733 72.1155,45.2603 C72.2005,45.1413 72.2855,45.0223 72.3725,44.9053 C72.8645,44.2393 72.7235,43.2993 72.0575,42.8073 C71.7895,42.6093 71.4765,42.5133 71.1665,42.5133 L71.1665,42.5133 Z M76.1485,37.5893 C75.8455,37.5893 75.5395,37.6803 75.2745,37.8713 C75.2685,37.8763 75.2605,37.8813 75.2545,37.8863 C75.2535,37.8863 75.2535,37.8863 75.2535,37.8863 C75.2495,37.8893 75.2475,37.8913 75.2435,37.8933 L75.2375,37.8983 C75.2365,37.8993 75.2345,37.8993 75.2335,37.9003 C75.2295,37.9033 75.2265,37.9053 75.2235,37.9083 L75.2225,37.9093 C75.1035,37.9943 74.9865,38.0813 74.8705,38.1683 C74.2085,38.6663 74.0755,39.6073 74.5735,40.2693 C74.8685,40.6613 75.3185,40.8673 75.7735,40.8673 C76.0875,40.8673 76.4045,40.7693 76.6745,40.5653 C76.7905,40.4783 76.9085,40.3913 77.0265,40.3063 C77.6995,39.8223 77.8515,38.8843 77.3675,38.2123 C77.0745,37.8053 76.6145,37.5893 76.1485,37.5893 L76.1485,37.5893 Z M82.3985,34.4283 C82.2465,34.4283 82.0915,34.4523 81.9385,34.5013 C81.7805,34.5523 81.6225,34.6053 81.4645,34.6593 C80.6815,34.9293 80.2665,35.7833 80.5365,36.5663 C80.7505,37.1883 81.3325,37.5773 81.9545,37.5773 C82.1165,37.5773 82.2815,37.5513 82.4435,37.4953 C82.5815,37.4473 82.7195,37.4013 82.8585,37.3573 C83.6465,37.1033 84.0805,36.2573 83.8265,35.4693 C83.6225,34.8333 83.0325,34.4283 82.3985,34.4283 L82.3985,34.4283 Z M89.3195,33.3483 L89.3055,33.3483 L89.3025,33.3483 L89.2895,33.3483 L89.2865,33.3483 L89.2735,33.3483 L89.2715,33.3483 L89.2585,33.3483 L89.2545,33.3483 L89.2275,33.3483 L89.2245,33.3483 L89.2105,33.3483 L89.2085,33.3483 L89.1945,33.3483 L89.1935,33.3483 C89.1885,33.3483 89.1845,33.3483 89.1795,33.3483 L89.1775,33.3483 L89.1475,33.3483 L89.1465,33.3483 L89.1325,33.3483 L89.1305,33.3483 C89.1205,33.3483 89.1105,33.3483 89.1015,33.3493 L89.0995,33.3493 L89.0845,33.3493 L89.0695,33.3493 L89.0685,33.3493 C89.0635,33.3493 89.0595,33.3493 89.0545,33.3493 L89.0525,33.3493 L89.0385,33.3493 L89.0375,33.3493 L89.0235,33.3493 L89.0205,33.3493 C89.0165,33.3493 89.0115,33.3503 89.0075,33.3503 L89.0045,33.3503 L88.9935,33.3503 L88.9895,33.3503 C88.9855,33.3503 88.9815,33.3503 88.9775,33.3503 L88.9725,33.3503 L88.9635,33.3503 L88.9545,33.3503 L88.9485,33.3503 C88.9045,33.3513 88.8595,33.3523 88.8155,33.3533 C87.9895,33.3723 87.3335,34.0563 87.3505,34.8833 C87.3665,35.7013 88.0355,36.3523 88.8495,36.3523 L88.8805,36.3523 C89.0265,36.3493 89.1725,36.3483 89.3195,36.3483 C89.4195,36.3483 89.5185,36.3373 89.6125,36.3193 C89.7075,36.3403 89.8045,36.3533 89.9045,36.3563 C90.0515,36.3593 90.1975,36.3653 90.3435,36.3723 C90.3675,36.3733 90.3915,36.3743 90.4155,36.3743 C91.2115,36.3743 91.8745,35.7483 91.9135,34.9453 C91.9525,34.1183 91.3145,33.4163 90.4875,33.3763 C90.4855,33.3763 90.4835,33.3753 90.4815,33.3753 L90.4785,33.3753 C90.4735,33.3753 90.4675,33.3753 90.4625,33.3743 L90.4605,33.3743 C90.4515,33.3743 90.4425,33.3733 90.4335,33.3733 C90.4325,33.3733 90.4315,33.3733 90.4315,33.3733 C90.4265,33.3733 90.4195,33.3723 90.4155,33.3723 L90.4125,33.3723 C90.4095,33.3723 90.4075,33.3723 90.4045,33.3723 C90.4025,33.3723 90.4015,33.3723 90.3995,33.3713 C90.3955,33.3713 90.3915,33.3713 90.3875,33.3713 L90.3815,33.3713 C90.3795,33.3713 90.3765,33.3703 90.3745,33.3703 C90.3715,33.3703 90.3675,33.3703 90.3635,33.3703 L90.3585,33.3703 C90.3545,33.3703 90.3515,33.3693 90.3485,33.3693 L90.3445,33.3693 C90.3405,33.3693 90.3365,33.3693 90.3325,33.3693 C90.3315,33.3693 90.3305,33.3683 90.3295,33.3683 C90.3245,33.3683 90.3195,33.3683 90.3145,33.3683 L90.3145,33.3683 C90.2055,33.3633 90.0965,33.3593 89.9865,33.3573 C89.9725,33.3563 89.9585,33.3563 89.9445,33.3563 C89.8455,33.3563 89.7475,33.3663 89.6525,33.3853 C89.5455,33.3603 89.4345,33.3483 89.3195,33.3483 L89.3195,33.3483 Z" id="Fill-18" fill="#FFFFFF" mask="url(#mask-4)"></path>
                    <path d="M78.7837,84.975 C77.9547,84.975 77.2837,84.304 77.2837,83.475 L77.2837,83.225 C77.2837,82.396 77.9547,81.725 78.7837,81.725 C79.6127,81.725 80.2837,82.396 80.2837,83.225 L80.2837,83.475 C80.2837,84.304 79.6127,84.975 78.7837,84.975" id="Fill-19" fill="#FFFFFF" mask="url(#mask-4)"></path>
                    <path d="M78.7837,91.5546 C77.9547,91.5546 77.2837,90.8836 77.2837,90.0546 L77.2837,89.6166 C77.2837,88.7876 77.9547,88.1166 78.7837,88.1166 C79.6127,88.1166 80.2837,88.7876 80.2837,89.6166 L80.2837,90.0546 C80.2837,90.8836 79.6127,91.5546 78.7837,91.5546 M78.7837,98.1346 C77.9547,98.1346 77.2837,97.4626 77.2837,96.6346 L77.2837,96.1956 C77.2837,95.3676 77.9547,94.6956 78.7837,94.6956 C79.6127,94.6956 80.2837,95.3676 80.2837,96.1956 L80.2837,96.6346 C80.2837,97.4626 79.6127,98.1346 78.7837,98.1346" id="Fill-20" fill="#FFFFFF" mask="url(#mask-4)"></path>
                    <path d="M78.7837,104.5253 C78.5057,104.5253 78.2287,104.4483 77.9857,104.2953 C77.5487,104.0213 77.2837,103.5413 77.2837,103.0253 L77.2837,102.7753 C77.2837,101.9463 77.9547,101.2753 78.7837,101.2753 C79.1247,101.2753 79.4397,101.3893 79.6917,101.5813 C79.9737,101.7253 80.2127,101.9593 80.3607,102.2663 C80.7197,103.0123 80.4057,103.9093 79.6597,104.2683 L79.4347,104.3773 C79.2277,104.4763 79.0057,104.5253 78.7837,104.5253" id="Fill-21" fill="#FFFFFF" mask="url(#mask-4)"></path>
                    <path d="M83.8755,102.0765 C83.3165,102.0765 82.7805,101.7635 82.5225,101.2255 C82.1635,100.4785 82.4785,99.5825 83.2255,99.2235 L83.5725,99.0565 C84.3195,98.6985 85.2165,99.0125 85.5745,99.7595 C85.9335,100.5065 85.6185,101.4025 84.8715,101.7615 L84.5235,101.9285 C84.3145,102.0285 84.0935,102.0765 83.8755,102.0765" id="Fill-22" fill="#FFFFFF" mask="url(#mask-4)"></path>
                    <path d="M89.0884,99.5682 C88.5294,99.5682 87.9934,99.2552 87.7354,98.7172 C87.3764,97.9702 87.6914,97.0742 88.4374,96.7152 L88.6634,96.6072 C89.0714,96.4112 89.5454,96.4092 89.9544,96.6032 L90.1804,96.7102 C90.9294,97.0642 91.2494,97.9592 90.8954,98.7082 C90.6064,99.3202 89.9574,99.6512 89.3174,99.5502 C89.2414,99.5622 89.1644,99.5682 89.0884,99.5682" id="Fill-23" fill="#FFFFFF" mask="url(#mask-4)"></path>
                    <path d="M94.7505,102.0297 C94.5365,102.0297 94.3185,101.9837 94.1115,101.8857 L93.7635,101.7217 C93.0145,101.3677 92.6935,100.4737 93.0475,99.7247 C93.4005,98.9757 94.2955,98.6557 95.0435,99.0087 L95.3915,99.1727 C96.1405,99.5267 96.4615,100.4207 96.1075,101.1697 C95.8525,101.7117 95.3125,102.0297 94.7505,102.0297" id="Fill-24" fill="#FFFFFF" mask="url(#mask-4)"></path>
                    <path d="M99.8423,104.4349 C99.6233,104.4349 99.4053,104.3869 99.2003,104.2909 L98.9743,104.1839 C98.2263,103.8299 97.9063,102.9349 98.2603,102.1859 C98.4073,101.8759 98.6463,101.6399 98.9303,101.4939 C99.1833,101.2999 99.4993,101.1849 99.8423,101.1849 C100.6713,101.1849 101.3423,101.8559 101.3423,102.6849 L101.3423,102.9349 C101.3423,103.4489 101.0793,103.9269 100.6443,104.2019 C100.4013,104.3569 100.1223,104.4349 99.8423,104.4349" id="Fill-25" fill="#FFFFFF" mask="url(#mask-4)"></path>
                    <path d="M99.8423,91.0199 C99.0133,91.0199 98.3423,90.3489 98.3423,89.5199 L98.3423,89.0659 C98.3423,88.2369 99.0133,87.5659 99.8423,87.5659 C100.6713,87.5659 101.3423,88.2369 101.3423,89.0659 L101.3423,89.5199 C101.3423,90.3489 100.6713,91.0199 99.8423,91.0199 M99.8423,97.8299 C99.0133,97.8299 98.3423,97.1579 98.3423,96.3299 L98.3423,95.8749 C98.3423,95.0469 99.0133,94.3749 99.8423,94.3749 C100.6713,94.3749 101.3423,95.0469 101.3423,95.8749 L101.3423,96.3299 C101.3423,97.1579 100.6713,97.8299 99.8423,97.8299" id="Fill-26" fill="#FFFFFF" mask="url(#mask-4)"></path>
                    <path d="M99.8423,84.2103 C99.0133,84.2103 98.3423,83.5393 98.3423,82.7103 L98.3423,82.4603 C98.3423,81.6313 99.0133,80.9603 99.8423,80.9603 C100.6713,80.9603 101.3423,81.6313 101.3423,82.4603 L101.3423,82.7103 C101.3423,83.5393 100.6713,84.2103 99.8423,84.2103" id="Fill-27" fill="#FFFFFF" mask="url(#mask-4)"></path>
                    <path d="M94.52,41.8588 C93.91,41.8588 93.336,42.2338 93.113,42.8388 C92.826,43.6168 93.223,44.4788 94,44.7658 C94.128,44.8138 94.255,44.8628 94.381,44.9138 C94.565,44.9878 94.756,45.0238 94.943,45.0238 C95.536,45.0238 96.098,44.6698 96.334,44.0858 C96.644,43.3188 96.275,42.4458 95.509,42.1338 C95.353,42.0698 95.195,42.0098 95.036,41.9508 C94.866,41.8888 94.691,41.8588 94.52,41.8588 M100.17,45.5718 C99.798,45.5718 99.424,45.7108 99.134,45.9878 C98.535,46.5608 98.514,47.5108 99.087,48.1088 C99.181,48.2078 99.274,48.3078 99.366,48.4098 C99.662,48.7378 100.07,48.9048 100.481,48.9048 C100.838,48.9048 101.198,48.7778 101.484,48.5198 C102.1,47.9648 102.149,47.0168 101.595,46.4008 C101.56,46.3628 101.525,46.3248 101.49,46.2858 L101.489,46.2858 C101.482,46.2778 101.476,46.2708 101.469,46.2638 L101.466,46.2608 C101.464,46.2578 101.462,46.2558 101.459,46.2538 C101.458,46.2518 101.457,46.2508 101.456,46.2488 C101.454,46.2468 101.452,46.2448 101.45,46.2428 C101.449,46.2418 101.447,46.2398 101.446,46.2378 C101.444,46.2368 101.443,46.2348 101.441,46.2338 C101.438,46.2298 101.434,46.2248 101.43,46.2218 C101.429,46.2208 101.429,46.2198 101.428,46.2188 C101.426,46.2168 101.423,46.2138 101.421,46.2118 L101.418,46.2088 C101.416,46.2068 101.415,46.2048 101.412,46.2018 C101.412,46.2008 101.411,46.1998 101.41,46.1998 C101.402,46.1918 101.394,46.1828 101.386,46.1738 L101.386,46.1738 C101.383,46.1708 101.381,46.1688 101.378,46.1668 C101.378,46.1658 101.377,46.1648 101.376,46.1638 C101.374,46.1618 101.372,46.1588 101.37,46.1558 C101.369,46.1558 101.369,46.1548 101.368,46.1548 C101.36,46.1468 101.353,46.1398 101.346,46.1318 C101.345,46.1298 101.344,46.1298 101.343,46.1278 C101.341,46.1258 101.339,46.1238 101.337,46.1218 L101.332,46.1168 C101.331,46.1158 101.33,46.1138 101.328,46.1118 C101.326,46.1098 101.324,46.1078 101.321,46.1058 C101.32,46.1048 101.32,46.1038 101.318,46.1028 C101.315,46.0988 101.312,46.0948 101.309,46.0918 L101.308,46.0908 C101.305,46.0878 101.301,46.0838 101.298,46.0808 L101.297,46.0798 C101.283,46.0648 101.269,46.0498 101.254,46.0348 C100.96,45.7268 100.565,45.5718 100.17,45.5718 M103.629,51.3798 C103.478,51.3798 103.324,51.4038 103.172,51.4518 C102.383,51.7038 101.948,52.5478 102.2,53.3378 C102.242,53.4668 102.281,53.5968 102.318,53.7288 C102.507,54.3868 103.107,54.8158 103.76,54.8158 C103.896,54.8158 104.036,54.7968 104.173,54.7578 C104.969,54.5298 105.43,53.7008 105.203,52.9048 C105.203,52.9018 105.202,52.9008 105.202,52.8988 C105.201,52.8988 105.201,52.8978 105.201,52.8978 C105.2,52.8938 105.199,52.8908 105.198,52.8868 C105.198,52.8858 105.197,52.8848 105.197,52.8828 C105.197,52.8808 105.196,52.8788 105.195,52.8758 L105.193,52.8698 L105.192,52.8638 C105.191,52.8618 105.19,52.8598 105.19,52.8588 C105.19,52.8578 105.189,52.8578 105.189,52.8568 C105.188,52.8518 105.187,52.8478 105.186,52.8428 L105.185,52.8428 C105.147,52.7128 105.108,52.5838 105.068,52.4548 C105.067,52.4538 105.067,52.4538 105.067,52.4528 C105.066,52.4488 105.065,52.4458 105.064,52.4428 C105.063,52.4418 105.063,52.4398 105.062,52.4378 C105.062,52.4368 105.061,52.4348 105.061,52.4328 C105.06,52.4308 105.059,52.4268 105.058,52.4238 C104.854,51.7868 104.265,51.3798 103.629,51.3798 M104.182,58.1218 C103.449,58.1218 102.807,58.6608 102.7,59.4078 C102.68,59.5438 102.659,59.6778 102.635,59.8128 C102.492,60.6288 103.038,61.4058 103.854,61.5488 C103.941,61.5638 104.028,61.5708 104.114,61.5708 C104.829,61.5708 105.461,61.0588 105.59,60.3318 C105.594,60.3068 105.599,60.2818 105.603,60.2568 C105.603,60.2568 105.603,60.2568 105.603,60.2558 C105.603,60.2518 105.604,60.2488 105.605,60.2448 L105.605,60.2428 C105.605,60.2398 105.606,60.2358 105.607,60.2338 C105.607,60.2328 105.607,60.2318 105.607,60.2308 C105.608,60.2268 105.608,60.2238 105.609,60.2208 C105.609,60.2188 105.609,60.2178 105.61,60.2158 C105.61,60.2138 105.61,60.2118 105.611,60.2088 C105.611,60.2068 105.612,60.2038 105.612,60.2018 C105.612,60.2008 105.613,60.1978 105.613,60.1968 C105.633,60.0778 105.651,59.9568 105.669,59.8368 C105.787,59.0158 105.218,58.2558 104.398,58.1378 C104.326,58.1278 104.253,58.1218 104.182,58.1218 M101.734,64.4188 C101.255,64.4188 100.784,64.6478 100.494,65.0728 C100.416,65.1858 100.338,65.2978 100.258,65.4078 C99.77,66.0778 99.918,67.0158 100.588,67.5038 C100.854,67.6968 101.163,67.7908 101.469,67.7908 C101.932,67.7908 102.389,67.5768 102.682,67.1748 C102.781,67.0388 102.878,66.9008 102.973,66.7628 C103.438,66.0788 103.262,65.1468 102.578,64.6798 C102.319,64.5038 102.025,64.4188 101.734,64.4188 M96.763,69.0098 C96.511,69.0098 96.254,69.0738 96.02,69.2078 C95.901,69.2758 95.782,69.3418 95.662,69.4058 C94.93,69.7958 94.653,70.7038 95.043,71.4348 C95.313,71.9418 95.832,72.2298 96.368,72.2298 C96.605,72.2298 96.845,72.1738 97.069,72.0548 C97.179,71.9968 97.289,71.9368 97.397,71.8758 C97.397,71.8758 97.398,71.8748 97.398,71.8748 C97.401,71.8738 97.405,71.8708 97.408,71.8698 C97.409,71.8688 97.41,71.8678 97.411,71.8678 C97.413,71.8668 97.415,71.8658 97.416,71.8648 C97.448,71.8468 97.478,71.8298 97.51,71.8118 C98.229,71.4008 98.478,70.4838 98.066,69.7648 C97.79,69.2808 97.284,69.0098 96.763,69.0098 M90.294,70.9528 C90.262,70.9528 90.229,70.9538 90.196,70.9568 C90.061,70.9648 89.924,70.9718 89.787,70.9768 C88.958,71.0048 88.311,71.6988 88.339,72.5268 C88.367,73.3378 89.032,73.9758 89.837,73.9758 C89.853,73.9758 89.87,73.9758 89.887,73.9748 C90.015,73.9708 90.142,73.9648 90.268,73.9578 L90.269,73.9578 C90.273,73.9568 90.277,73.9568 90.282,73.9568 L90.283,73.9568 C90.287,73.9568 90.291,73.9558 90.294,73.9558 L90.295,73.9558 C90.299,73.9558 90.303,73.9558 90.306,73.9548 L90.31,73.9548 C90.313,73.9548 90.316,73.9548 90.32,73.9548 C90.321,73.9548 90.323,73.9538 90.324,73.9538 C90.326,73.9538 90.33,73.9538 90.332,73.9538 C90.334,73.9538 90.336,73.9538 90.338,73.9528 L90.344,73.9528 C90.348,73.9528 90.353,73.9528 90.356,73.9518 L90.358,73.9518 C90.36,73.9518 90.363,73.9518 90.365,73.9518 L90.366,73.9518 C90.374,73.9508 90.381,73.9508 90.389,73.9498 C91.215,73.8968 91.843,73.1838 91.79,72.3568 C91.739,71.5628 91.079,70.9528 90.294,70.9528 M83.201,69.6898 C82.627,69.6898 82.079,70.0208 81.83,70.5788 C81.493,71.3348 81.832,72.2208 82.587,72.5588 C82.596,72.5628 82.606,72.5668 82.615,72.5708 L82.615,72.5708 C82.619,72.5728 82.623,72.5738 82.626,72.5758 C82.634,72.5798 82.641,72.5828 82.649,72.5858 C82.649,72.5868 82.65,72.5868 82.65,72.5868 C82.657,72.5898 82.665,72.5928 82.671,72.5958 C82.672,72.5958 82.672,72.5968 82.673,72.5968 C82.677,72.5978 82.68,72.5998 82.684,72.6008 L82.685,72.6018 C82.687,72.6028 82.692,72.6048 82.695,72.6058 C82.695,72.6068 82.695,72.6068 82.696,72.6068 C82.699,72.6078 82.703,72.6098 82.706,72.6108 C82.707,72.6108 82.707,72.6118 82.708,72.6118 C82.711,72.6128 82.715,72.6148 82.718,72.6158 C82.719,72.6168 82.719,72.6168 82.719,72.6168 C82.722,72.6178 82.726,72.6198 82.728,72.6208 C82.729,72.6208 82.73,72.6218 82.731,72.6218 C82.734,72.6228 82.738,72.6248 82.741,72.6258 C82.741,72.6268 82.742,72.6268 82.743,72.6278 C82.746,72.6288 82.749,72.6298 82.752,72.6308 C82.752,72.6308 82.753,72.6308 82.753,72.6318 C82.757,72.6328 82.76,72.6348 82.763,72.6358 C82.764,72.6358 82.765,72.6368 82.766,72.6368 C82.769,72.6388 82.772,72.6398 82.776,72.6418 C82.776,72.6418 82.777,72.6418 82.777,72.6418 C82.78,72.6438 82.783,72.6448 82.786,72.6458 C82.787,72.6458 82.788,72.6468 82.789,72.6468 C82.791,72.6478 82.795,72.6498 82.798,72.6508 C82.799,72.6508 82.8,72.6518 82.801,72.6518 C82.804,72.6528 82.807,72.6548 82.81,72.6558 L82.811,72.6558 C82.814,72.6578 82.818,72.6598 82.821,72.6608 C82.822,72.6608 82.823,72.6618 82.823,72.6618 L82.833,72.6658 C82.834,72.6668 82.834,72.6668 82.835,72.6668 C82.838,72.6678 82.841,72.6698 82.844,72.6708 C82.845,72.6708 82.845,72.6708 82.846,72.6708 C82.849,72.6728 82.853,72.6738 82.856,72.6758 C82.857,72.6758 82.857,72.6758 82.858,72.6768 C82.865,72.6798 82.873,72.6828 82.879,72.6858 C82.88,72.6858 82.88,72.6858 82.881,72.6868 C82.884,72.6878 82.888,72.6898 82.892,72.6908 L82.892,72.6908 C82.945,72.7128 82.999,72.7348 83.052,72.7568 C83.237,72.8328 83.429,72.8688 83.617,72.8688 C84.208,72.8688 84.768,72.5178 85.006,71.9378 C85.32,71.1708 84.954,70.2948 84.187,69.9808 C84.061,69.9288 83.935,69.8748 83.811,69.8198 C83.612,69.7308 83.405,69.6898 83.201,69.6898 M77.8,65.6168 C77.46,65.6168 77.118,65.7318 76.836,65.9678 C76.202,66.5008 76.12,67.4468 76.653,68.0808 C76.659,68.0888 76.666,68.0968 76.673,68.1048 C76.673,68.1058 76.673,68.1058 76.673,68.1058 C76.676,68.1088 76.679,68.1118 76.682,68.1148 C76.683,68.1168 76.684,68.1188 76.685,68.1198 C76.687,68.1218 76.688,68.1238 76.69,68.1258 C76.692,68.1278 76.694,68.1298 76.695,68.1318 C76.696,68.1328 76.697,68.1328 76.697,68.1338 C76.748,68.1928 76.798,68.2528 76.849,68.3108 C76.857,68.3198 76.865,68.3288 76.873,68.3378 C76.874,68.3378 76.874,68.3388 76.874,68.3388 C76.876,68.3418 76.878,68.3438 76.88,68.3468 C76.881,68.3478 76.882,68.3488 76.883,68.3498 C76.885,68.3518 76.887,68.3548 76.889,68.3568 C76.891,68.3578 76.892,68.3588 76.893,68.3608 C76.895,68.3628 76.896,68.3648 76.898,68.3668 C76.901,68.3698 76.904,68.3738 76.907,68.3768 C76.908,68.3778 76.909,68.3798 76.91,68.3808 C76.912,68.3828 76.914,68.3848 76.916,68.3878 C76.917,68.3888 76.918,68.3898 76.92,68.3918 C76.922,68.3938 76.924,68.3968 76.926,68.3988 C76.927,68.3998 76.928,68.4008 76.929,68.4018 C76.932,68.4048 76.935,68.4078 76.937,68.4118 C76.938,68.4118 76.938,68.4128 76.938,68.4128 L76.949,68.4238 L76.949,68.4248 C76.952,68.4278 76.956,68.4318 76.958,68.4348 L76.96,68.4368 C76.963,68.4408 76.966,68.4428 76.969,68.4468 L76.97,68.4478 C76.973,68.4518 76.977,68.4558 76.98,68.4598 C77.276,68.7908 77.687,68.9608 78.1,68.9608 C78.455,68.9608 78.812,68.8348 79.098,68.5798 C79.716,68.0278 79.77,67.0798 79.218,66.4618 C79.127,66.3598 79.038,66.2558 78.95,66.1518 C78.653,65.7978 78.228,65.6168 77.8,65.6168 M74.731,59.5958 C74.611,59.5958 74.49,59.6098 74.368,59.6398 C73.564,59.8398 73.075,60.6528 73.274,61.4558 C73.275,61.4628 73.277,61.4698 73.279,61.4758 C73.279,61.4768 73.279,61.4778 73.279,61.4778 C73.28,61.4818 73.281,61.4858 73.282,61.4888 C73.282,61.4898 73.282,61.4898 73.282,61.4908 C73.283,61.4948 73.284,61.4978 73.285,61.5018 L73.285,61.5028 C73.286,61.5058 73.287,61.5098 73.288,61.5138 C73.288,61.5138 73.289,61.5148 73.289,61.5158 C73.29,61.5188 73.291,61.5238 73.291,61.5268 L73.291,61.5268 C73.292,61.5318 73.293,61.5348 73.294,61.5388 L73.294,61.5398 C73.296,61.5438 73.296,61.5468 73.298,61.5508 L73.298,61.5518 C73.332,61.6838 73.366,61.8128 73.402,61.9428 C73.589,62.6038 74.19,63.0358 74.845,63.0358 C74.979,63.0358 75.116,63.0168 75.252,62.9788 C76.049,62.7548 76.514,61.9268 76.29,61.1288 C76.253,60.9978 76.218,60.8668 76.186,60.7338 C76.016,60.0518 75.404,59.5958 74.731,59.5958 M74.611,52.8318 C73.917,52.8318 73.294,53.3158 73.145,54.0218 C73.13,54.0928 73.115,54.1638 73.101,54.2348 L73.101,54.2358 C73.1,54.2438 73.098,54.2508 73.097,54.2588 L73.094,54.2738 C73.094,54.2738 73.094,54.2738 73.093,54.2748 C73.078,54.3538 73.063,54.4328 73.049,54.5118 C72.902,55.3278 73.444,56.1078 74.259,56.2548 C74.349,56.2708 74.438,56.2778 74.527,56.2778 C75.239,56.2778 75.871,55.7688 76.001,55.0438 C76.026,54.9088 76.052,54.7758 76.08,54.6428 C76.251,53.8318 75.733,53.0358 74.923,52.8648 C74.818,52.8418 74.714,52.8318 74.611,52.8318 M77.472,46.7088 C77.027,46.7088 76.587,46.9048 76.291,47.2818 C76.286,47.2888 76.28,47.2958 76.274,47.3038 L76.273,47.3048 C76.271,47.3078 76.27,47.3098 76.267,47.3128 C76.266,47.3148 76.265,47.3158 76.264,47.3168 C76.263,47.3188 76.261,47.3208 76.259,47.3228 C76.258,47.3248 76.256,47.3268 76.255,47.3288 C76.253,47.3308 76.251,47.3328 76.25,47.3348 C76.248,47.3378 76.245,47.3408 76.243,47.3448 C76.241,47.3458 76.24,47.3478 76.239,47.3488 C76.237,47.3518 76.235,47.3538 76.234,47.3558 C76.232,47.3578 76.231,47.3588 76.23,47.3608 C76.228,47.3628 76.227,47.3648 76.225,47.3678 C76.224,47.3688 76.223,47.3698 76.221,47.3718 C76.219,47.3748 76.217,47.3778 76.215,47.3798 C76.214,47.3808 76.213,47.3818 76.212,47.3828 C76.21,47.3868 76.207,47.3908 76.205,47.3938 C76.204,47.3958 76.202,47.3968 76.201,47.3988 C76.199,47.4008 76.198,47.4028 76.196,47.4048 C76.194,47.4068 76.193,47.4078 76.192,47.4098 C76.19,47.4118 76.188,47.4148 76.187,47.4168 C76.186,47.4188 76.185,47.4198 76.183,47.4208 C76.182,47.4238 76.18,47.4258 76.178,47.4288 C76.176,47.4318 76.174,47.4338 76.171,47.4368 L76.167,47.4428 C76.166,47.4448 76.164,47.4468 76.162,47.4488 C76.161,47.4508 76.16,47.4528 76.159,47.4538 C76.157,47.4568 76.155,47.4578 76.153,47.4608 L76.15,47.4648 C76.148,47.4668 76.147,47.4688 76.145,47.4718 C76.145,47.4728 76.144,47.4728 76.143,47.4738 C76.14,47.4788 76.135,47.4848 76.131,47.4898 C76.131,47.4898 76.13,47.4908 76.129,47.4918 C76.127,47.4948 76.125,47.4978 76.124,47.4998 C76.123,47.5008 76.122,47.5018 76.122,47.5028 C76.12,47.5048 76.118,47.5078 76.116,47.5108 C76.115,47.5118 76.114,47.5128 76.113,47.5138 C76.107,47.5218 76.1,47.5308 76.094,47.5398 C76.093,47.5408 76.093,47.5408 76.092,47.5418 L76.086,47.5488 C76.085,47.5498 76.084,47.5518 76.083,47.5528 C76.082,47.5558 76.081,47.5578 76.079,47.5598 C76.077,47.5618 76.076,47.5628 76.075,47.5648 C76.073,47.5668 76.072,47.5688 76.07,47.5708 C76.068,47.5738 76.065,47.5778 76.062,47.5808 C76.062,47.5828 76.061,47.5838 76.059,47.5858 C76.058,47.5878 76.056,47.5898 76.054,47.5928 C76.053,47.5948 76.052,47.5948 76.051,47.5968 C76.049,47.5998 76.047,47.6028 76.044,47.6058 C76.044,47.6068 76.043,47.6068 76.042,47.6088 C76.024,47.6328 76.006,47.6578 75.988,47.6828 C75.497,48.3498 75.64,49.2888 76.308,49.7788 C76.576,49.9758 76.887,50.0708 77.195,50.0708 C77.656,50.0708 78.111,49.8588 78.405,49.4588 C78.486,49.3488 78.568,49.2398 78.652,49.1328 C79.163,48.4808 79.048,47.5378 78.395,47.0268 C78.121,46.8128 77.795,46.7088 77.472,46.7088 M82.724,42.4488 C82.504,42.4488 82.281,42.4978 82.07,42.6008 C82.028,42.6208 81.987,42.6408 81.946,42.6618 C81.946,42.6618 81.945,42.6618 81.945,42.6618 C81.941,42.6638 81.939,42.6648 81.935,42.6668 C81.935,42.6678 81.935,42.6678 81.934,42.6678 C81.931,42.6688 81.928,42.6708 81.925,42.6718 L81.922,42.6738 L81.913,42.6778 C81.912,42.6788 81.911,42.6788 81.91,42.6798 C81.908,42.6808 81.905,42.6818 81.903,42.6828 C81.902,42.6838 81.901,42.6848 81.899,42.6848 L81.892,42.6888 C81.89,42.6898 81.888,42.6908 81.886,42.6918 C81.885,42.6918 81.884,42.6918 81.883,42.6928 C81.879,42.6948 81.876,42.6968 81.873,42.6978 C81.872,42.6988 81.872,42.6988 81.871,42.6998 C81.869,42.7008 81.866,42.7018 81.864,42.7028 C81.864,42.7028 81.864,42.7028 81.863,42.7028 C81.859,42.7058 81.855,42.7078 81.851,42.7098 C81.85,42.7098 81.85,42.7098 81.85,42.7098 C81.806,42.7328 81.762,42.7548 81.718,42.7778 L81.718,42.7778 C81.707,42.7838 81.695,42.7898 81.684,42.7948 C81.684,42.7958 81.683,42.7958 81.683,42.7958 C81.676,42.7988 81.67,42.8028 81.664,42.8058 C81.663,42.8068 81.662,42.8068 81.66,42.8078 C81.658,42.8088 81.655,42.8108 81.653,42.8118 C81.651,42.8128 81.649,42.8138 81.647,42.8148 C81.646,42.8158 81.645,42.8158 81.643,42.8168 C81.64,42.8178 81.638,42.8198 81.635,42.8208 C81.634,42.8218 81.633,42.8218 81.632,42.8218 C81.629,42.8238 81.627,42.8248 81.624,42.8268 C81.624,42.8268 81.623,42.8268 81.623,42.8278 C81.622,42.8278 81.621,42.8278 81.62,42.8288 C80.888,43.2148 80.607,44.1218 80.993,44.8548 C81.262,45.3638 81.783,45.6558 82.322,45.6558 C82.557,45.6558 82.796,45.5998 83.02,45.4828 C83.14,45.4188 83.261,45.3578 83.384,45.2968 C84.128,44.9338 84.437,44.0358 84.073,43.2908 C83.813,42.7588 83.28,42.4488 82.724,42.4488 M89.313,40.9328 L89.301,40.9328 L89.299,40.9328 L89.287,40.9328 L89.285,40.9328 L89.273,40.9328 L89.272,40.9328 L89.26,40.9328 L89.259,40.9328 L89.247,40.9328 L89.246,40.9328 L89.233,40.9328 L89.232,40.9328 L89.206,40.9328 L89.206,40.9328 C89.085,40.9338 88.966,40.9358 88.847,40.9398 L88.846,40.9398 C88.842,40.9398 88.838,40.9398 88.834,40.9398 L88.832,40.9398 L88.821,40.9398 C88.82,40.9408 88.819,40.9408 88.818,40.9408 L88.812,40.9408 C87.984,40.9658 87.333,41.6568 87.358,42.4838 C87.382,43.2968 88.048,43.9398 88.856,43.9398 C88.872,43.9398 88.887,43.9398 88.902,43.9388 C89.039,43.9348 89.175,43.9328 89.313,43.9328 C90.141,43.9328 90.813,43.2608 90.813,42.4328 C90.813,41.6048 90.141,40.9328 89.313,40.9328" id="Fill-28" fill="#FFFFFF" mask="url(#mask-4)"></path>
                    <path d="M259.099467,114 C258.600467,114 258.149467,114.342 258.029467,114.848 C257.890467,115.439 258.256467,116.032 258.848467,116.171 C259.072467,116.224 259.293467,116.282 259.513467,116.346 C259.616467,116.375 259.718467,116.39 259.820467,116.39 C260.297467,116.39 260.737467,116.077 260.876467,115.596 C261.045467,115.012 260.709467,114.402 260.125467,114.233 C259.870467,114.159 259.613467,114.091 259.352467,114.03 C259.267467,114.01 259.183467,114 259.099467,114 M263.932,116.5098 C263.604,116.5098 263.28,116.6558 263.063,116.9338 C262.69,117.4138 262.776,118.1048 263.255,118.4778 C263.437,118.6188 263.615,118.7648 263.789,118.9148 C263.997,119.0938 264.252,119.1818 264.506,119.1818 C264.816,119.1818 265.123,119.0528 265.34,118.7998 C265.737,118.3398 265.686,117.6458 265.226,117.2488 C265.137,117.1728 265.048,117.0978 264.958,117.0238 C264.955,117.0208 264.952,117.0188 264.949,117.0158 L264.949,117.0148 C264.946,117.0128 264.943,117.0108 264.94,117.0078 C264.939,117.0078 264.939,117.0068 264.939,117.0068 C264.936,117.0048 264.933,117.0028 264.93,117.0008 C264.93,116.9998 264.929,116.9998 264.929,116.9988 C264.926,116.9968 264.923,116.9948 264.921,116.9928 C264.92,116.9918 264.919,116.9908 264.918,116.9908 C264.915,116.9888 264.914,116.9868 264.912,116.9848 C264.911,116.9838 264.91,116.9838 264.909,116.9828 C264.906,116.9808 264.904,116.9788 264.902,116.9768 C264.901,116.9758 264.9,116.9758 264.898,116.9748 L264.892,116.9688 C264.89,116.9678 264.89,116.9668 264.889,116.9658 C264.886,116.9648 264.884,116.9628 264.882,116.9618 C264.881,116.9608 264.88,116.9598 264.878,116.9588 C264.876,116.9568 264.874,116.9548 264.873,116.9538 C264.872,116.9528 264.871,116.9518 264.869,116.9508 C264.868,116.9488 264.866,116.9478 264.864,116.9458 C264.862,116.9438 264.86,116.9428 264.857,116.9408 C264.856,116.9398 264.855,116.9398 264.855,116.9388 C264.852,116.9368 264.85,116.9348 264.847,116.9328 C264.846,116.9318 264.846,116.9318 264.845,116.9308 C264.842,116.9288 264.84,116.9268 264.837,116.9248 C264.836,116.9238 264.836,116.9238 264.835,116.9238 C264.833,116.9208 264.831,116.9198 264.828,116.9168 C264.828,116.9168 264.827,116.9168 264.827,116.9158 C264.824,116.9138 264.821,116.9118 264.818,116.9088 L264.818,116.9088 C264.748,116.8518 264.676,116.7958 264.605,116.7408 C264.405,116.5858 264.167,116.5098 263.932,116.5098 M267.958,121.3308 C267.787,121.3308 267.612,121.3708 267.45,121.4568 C266.912,121.7378 266.703,122.4028 266.985,122.9408 C267.091,123.1438 267.193,123.3498 267.289,123.5588 C267.474,123.9618 267.873,124.1988 268.289,124.1988 C268.443,124.1988 268.599,124.1668 268.748,124.0978 C269.299,123.8438 269.54,123.1908 269.287,122.6388 C269.213,122.4798 269.138,122.3218 269.059,122.1658 C269.057,122.1618 269.055,122.1578 269.054,122.1538 L269.053,122.1538 C269.052,122.1498 269.05,122.1468 269.048,122.1438 C269.048,122.1438 269.048,122.1428 269.047,122.1428 C269.046,122.1388 269.044,122.1358 269.042,122.1328 L269.042,122.1308 C269.04,122.1288 269.039,122.1248 269.038,122.1218 C269.038,122.1218 269.037,122.1208 269.037,122.1198 C269.035,122.1168 269.034,122.1138 269.033,122.1118 C269.032,122.1098 269.031,122.1088 269.03,122.1078 L269.027,122.1018 C269.026,122.0988 269.025,122.0978 269.024,122.0948 C269.023,122.0938 269.022,122.0918 269.022,122.0908 C269.02,122.0878 269.019,122.0858 269.018,122.0828 C269.017,122.0828 269.017,122.0818 269.017,122.0808 C269.015,122.0778 269.013,122.0748 269.012,122.0718 C269.012,122.0708 269.011,122.0708 269.011,122.0708 C268.986,122.0198 268.959,121.9688 268.933,121.9188 C268.736,121.5448 268.354,121.3308 267.958,121.3308 M269.615,127.3868 C269.595,127.3868 269.576,127.3878 269.556,127.3888 C268.95,127.4198 268.483,127.9378 268.515,128.5438 C268.527,128.7728 268.533,129.0028 268.534,129.2348 C268.535,129.8408 269.027,130.3318 269.633,130.3318 L269.636,130.3318 C270.243,130.3308 270.734,129.8378 270.734,129.2318 C270.734,129.1668 270.733,129.1018 270.732,129.0368 L270.732,129.0348 L270.732,129.0238 L270.732,129.0218 L270.732,129.0118 L270.732,129.0078 C270.732,129.0048 270.732,129.0028 270.731,128.9998 L270.731,128.9948 L270.731,128.9878 L270.731,128.9818 L270.731,128.9758 L270.731,128.9688 L270.731,128.9638 L270.731,128.9558 L270.731,128.9528 C270.73,128.9488 270.73,128.9458 270.73,128.9428 L270.73,128.9408 L270.73,128.9298 L270.73,128.9278 L270.73,128.9168 L270.73,128.9158 L270.73,128.9038 L270.73,128.9028 C270.726,128.7448 270.72,128.5878 270.712,128.4298 C270.681,127.8428 270.196,127.3868 269.615,127.3868 M268.607,133.5868 C268.169,133.5868 267.754,133.8508 267.583,134.2828 C267.499,134.4968 267.41,134.7078 267.315,134.9168 C267.063,135.4698 267.308,136.1218 267.861,136.3738 C268.008,136.4408 268.164,136.4718 268.316,136.4718 C268.733,136.4718 269.132,136.2328 269.317,135.8288 C269.427,135.5868 269.532,135.3388 269.63,135.0898 C269.853,134.5248 269.576,133.8868 269.011,133.6638 C268.878,133.6118 268.742,133.5868 268.607,133.5868 M265.108,138.8028 C264.833,138.8028 264.559,138.9048 264.345,139.1108 C264.18,139.2708 264.01,139.4258 263.836,139.5768 C263.378,139.9758 263.331,140.6708 263.729,141.1288 C263.947,141.3788 264.252,141.5058 264.559,141.5058 C264.816,141.5058 265.073,141.4178 265.281,141.2358 C265.375,141.1538 265.469,141.0708 265.561,140.9858 C265.568,140.9808 265.574,140.9748 265.58,140.9698 L265.58,140.9688 C265.585,140.9638 265.592,140.9578 265.598,140.9528 C265.601,140.9498 265.604,140.9468 265.607,140.9438 L265.608,140.9438 C265.611,140.9418 265.613,140.9388 265.616,140.9358 C265.617,140.9358 265.617,140.9348 265.618,140.9348 C265.62,140.9328 265.623,140.9298 265.625,140.9278 C265.625,140.9268 265.626,140.9268 265.626,140.9258 C265.629,140.9238 265.631,140.9218 265.634,140.9198 C265.634,140.9188 265.635,140.9188 265.636,140.9178 C265.638,140.9158 265.64,140.9128 265.643,140.9108 L265.645,140.9088 C265.647,140.9068 265.65,140.9048 265.652,140.9028 L265.654,140.9008 C265.657,140.8988 265.659,140.8968 265.661,140.8948 C265.662,140.8938 265.663,140.8928 265.664,140.8928 C265.665,140.8898 265.667,140.8878 265.67,140.8858 C265.671,140.8848 265.671,140.8848 265.672,140.8838 C265.675,140.8818 265.677,140.8788 265.679,140.8778 C265.68,140.8768 265.681,140.8758 265.682,140.8748 C265.684,140.8728 265.686,140.8708 265.688,140.8698 C265.689,140.8678 265.691,140.8668 265.692,140.8658 C265.694,140.8638 265.695,140.8628 265.697,140.8608 C265.699,140.8598 265.7,140.8578 265.702,140.8568 C265.703,140.8558 265.704,140.8548 265.706,140.8528 C265.706,140.8518 265.708,140.8498 265.71,140.8478 C265.711,140.8468 265.712,140.8458 265.714,140.8448 C265.716,140.8428 265.718,140.8408 265.72,140.8398 C265.72,140.8388 265.72,140.8388 265.721,140.8378 C265.772,140.7898 265.823,140.7418 265.873,140.6928 C266.309,140.2718 266.322,139.5768 265.901,139.1398 C265.685,138.9158 265.397,138.8028 265.108,138.8028 M259.763,142.0998 C259.642,142.0998 259.519,142.1198 259.399,142.1618 C259.183,142.2378 258.964,142.3088 258.744,142.3738 C258.162,142.5458 257.829,143.1568 258,143.7398 C258.141,144.2188 258.58,144.5288 259.054,144.5288 C259.158,144.5288 259.262,144.5148 259.366,144.4838 C259.367,144.4828 259.368,144.4828 259.369,144.4828 C259.372,144.4828 259.374,144.4818 259.377,144.4808 C259.378,144.4808 259.379,144.4798 259.38,144.4798 C259.383,144.4788 259.386,144.4778 259.389,144.4768 C259.39,144.4768 259.391,144.4768 259.392,144.4758 C259.395,144.4748 259.398,144.4738 259.402,144.4728 L259.404,144.4728 C259.407,144.4718 259.41,144.4708 259.414,144.4698 C259.415,144.4698 259.415,144.4688 259.416,144.4688 L259.425,144.4658 C259.426,144.4658 259.427,144.4658 259.428,144.4648 C259.431,144.4638 259.434,144.4628 259.437,144.4628 C259.438,144.4628 259.439,144.4628 259.44,144.4618 C259.443,144.4608 259.447,144.4598 259.45,144.4588 C259.451,144.4588 259.451,144.4588 259.452,144.4588 C259.455,144.4578 259.458,144.4568 259.461,144.4558 C259.462,144.4548 259.462,144.4548 259.463,144.4548 C259.466,144.4538 259.47,144.4528 259.474,144.4518 L259.475,144.4508 C259.479,144.4498 259.482,144.4488 259.486,144.4478 L259.487,144.4478 C259.666,144.3928 259.844,144.3358 260.021,144.2748 C260.022,144.2748 260.022,144.2748 260.022,144.2748 C260.026,144.2738 260.029,144.2728 260.033,144.2708 C260.033,144.2708 260.035,144.2708 260.036,144.2698 C260.038,144.2688 260.04,144.2678 260.043,144.2678 C260.044,144.2668 260.046,144.2668 260.047,144.2658 C260.049,144.2648 260.052,144.2638 260.054,144.2638 C260.056,144.2628 260.058,144.2618 260.06,144.2618 C260.062,144.2608 260.063,144.2608 260.064,144.2598 L260.073,144.2568 C260.073,144.2568 260.074,144.2568 260.074,144.2568 C260.093,144.2498 260.111,144.2438 260.129,144.2368 C260.702,144.0348 261.002,143.4078 260.801,142.8358 C260.642,142.3828 260.217,142.0998 259.763,142.0998 M252.788,142.7838 C252.248,142.7838 251.777,143.1818 251.7,143.7308 C251.615,144.3328 252.034,144.8888 252.634,144.9738 C252.635,144.9738 252.636,144.9738 252.636,144.9738 C252.64,144.9748 252.643,144.9748 252.646,144.9748 C252.647,144.9758 252.648,144.9758 252.649,144.9758 L252.658,144.9768 C252.66,144.9768 252.661,144.9778 252.663,144.9778 C252.665,144.9778 252.667,144.9778 252.669,144.9788 C252.671,144.9788 252.673,144.9788 252.675,144.9798 C252.677,144.9798 252.678,144.9798 252.68,144.9798 C252.682,144.9808 252.686,144.9808 252.688,144.9808 C252.689,144.9818 252.691,144.9818 252.692,144.9818 C252.695,144.9818 252.697,144.9828 252.701,144.9828 C252.702,144.9828 252.703,144.9828 252.704,144.9828 C252.707,144.9838 252.709,144.9838 252.713,144.9838 L252.714,144.9848 C252.804,144.9968 252.896,145.0088 252.986,145.0198 L252.987,145.0198 C252.991,145.0198 252.995,145.0198 252.998,145.0208 L252.999,145.0208 C253.003,145.0218 253.007,145.0218 253.01,145.0218 C253.011,145.0228 253.012,145.0228 253.012,145.0228 C253.015,145.0228 253.02,145.0238 253.023,145.0238 C253.024,145.0238 253.025,145.0238 253.025,145.0238 C253.029,145.0248 253.032,145.0248 253.036,145.0248 C253.037,145.0248 253.038,145.0248 253.039,145.0248 C253.041,145.0258 253.044,145.0258 253.047,145.0258 C253.048,145.0258 253.05,145.0268 253.051,145.0268 C253.054,145.0268 253.057,145.0268 253.059,145.0278 C253.061,145.0278 253.063,145.0278 253.064,145.0278 C253.067,145.0288 253.069,145.0288 253.072,145.0288 C253.074,145.0288 253.076,145.0288 253.077,145.0298 C253.08,145.0298 253.082,145.0298 253.083,145.0298 C253.085,145.0308 253.088,145.0308 253.09,145.0308 C253.091,145.0308 253.094,145.0318 253.096,145.0318 C253.098,145.0318 253.101,145.0318 253.103,145.0328 C253.105,145.0328 253.107,145.0328 253.108,145.0328 C253.111,145.0338 253.113,145.0338 253.116,145.0338 C253.118,145.0338 253.119,145.0338 253.121,145.0348 C253.123,145.0348 253.125,145.0348 253.128,145.0358 C253.13,145.0358 253.131,145.0358 253.132,145.0358 C253.135,145.0358 253.138,145.0368 253.141,145.0368 L253.144,145.0368 C253.148,145.0378 253.151,145.0378 253.154,145.0378 C253.155,145.0378 253.156,145.0388 253.157,145.0388 C253.161,145.0388 253.164,145.0388 253.166,145.0398 C253.167,145.0398 253.168,145.0398 253.169,145.0398 C253.172,145.0398 253.176,145.0408 253.179,145.0408 L253.181,145.0408 C253.185,145.0418 253.189,145.0418 253.192,145.0428 L253.194,145.0428 C253.197,145.0428 253.201,145.0428 253.205,145.0438 C253.206,145.0438 253.206,145.0438 253.206,145.0438 C253.209,145.0438 253.213,145.0448 253.217,145.0448 L253.218,145.0448 L253.23,145.0458 L253.231,145.0458 C253.235,145.0468 253.239,145.0468 253.243,145.0468 C253.289,145.0518 253.333,145.0568 253.379,145.0608 L253.38,145.0608 C253.384,145.0618 253.388,145.0618 253.392,145.0618 C253.396,145.0628 253.4,145.0628 253.404,145.0628 C253.405,145.0628 253.405,145.0628 253.406,145.0638 C253.409,145.0638 253.413,145.0638 253.416,145.0648 L253.418,145.0648 C253.421,145.0648 253.425,145.0648 253.428,145.0658 L253.43,145.0658 C253.463,145.0678 253.497,145.0698 253.53,145.0698 C254.092,145.0698 254.573,144.6398 254.623,144.0678 C254.678,143.4628 254.232,142.9288 253.626,142.8748 C253.397,142.8538 253.168,142.8268 252.942,142.7958 C252.89,142.7878 252.838,142.7838 252.788,142.7838 M246.906,140.5988 C246.543,140.5988 246.189,140.7768 245.979,141.1048 C245.65,141.6158 245.798,142.2958 246.31,142.6248 C246.443,142.7098 246.577,142.7928 246.712,142.8748 L246.713,142.8748 C246.716,142.8768 246.72,142.8788 246.723,142.8808 L246.724,142.8808 C246.727,142.8828 246.731,142.8848 246.734,142.8868 L246.736,142.8878 C246.738,142.8898 246.742,142.8918 246.745,142.8938 L246.746,142.8948 C246.748,142.8968 246.751,142.8978 246.754,142.8998 C246.755,142.8998 246.756,142.8998 246.757,142.9008 C246.759,142.9028 246.762,142.9038 246.765,142.9058 C246.766,142.9068 246.767,142.9068 246.768,142.9078 C246.77,142.9088 246.773,142.9108 246.775,142.9118 L246.781,142.9148 C246.782,142.9158 246.784,142.9168 246.786,142.9178 C246.788,142.9198 246.79,142.9208 246.791,142.9208 C246.792,142.9218 246.794,142.9228 246.795,142.9238 C246.797,142.9248 246.8,142.9268 246.802,142.9278 C246.803,142.9288 246.804,142.9288 246.805,142.9298 L246.814,142.9348 L246.814,142.9348 C246.874,142.9708 246.935,143.0058 246.997,143.0408 C247.167,143.1388 247.355,143.1848 247.54,143.1848 C247.921,143.1848 248.291,142.9868 248.495,142.6318 C248.797,142.1048 248.615,141.4328 248.087,141.1308 C247.888,141.0168 247.692,140.8968 247.498,140.7728 C247.315,140.6548 247.109,140.5988 246.906,140.5988 M242.456,136.1608 C242.251,136.1608 242.044,136.2178 241.86,136.3368 C241.349,136.6668 241.203,137.3468 241.533,137.8578 C241.55,137.8858 241.569,137.9138 241.586,137.9418 C241.586,137.9418 241.586,137.9418 241.587,137.9418 C241.589,137.9448 241.591,137.9478 241.593,137.9518 C241.593,137.9518 241.594,137.9518 241.594,137.9528 C241.596,137.9558 241.598,137.9588 241.6,137.9618 C241.601,137.9628 241.601,137.9628 241.601,137.9638 C241.603,137.9668 241.605,137.9688 241.607,137.9718 C241.607,137.9728 241.608,137.9738 241.609,137.9748 C241.61,137.9768 241.612,137.9798 241.614,137.9818 C241.614,137.9828 241.615,137.9838 241.616,137.9858 C241.617,137.9878 241.619,137.9898 241.62,137.9918 C241.621,137.9938 241.622,137.9948 241.623,137.9958 C241.623,137.9978 241.625,137.9998 241.626,138.0018 C241.627,138.0038 241.628,138.0048 241.629,138.0068 C241.63,138.0088 241.632,138.0098 241.633,138.0118 L241.639,138.0208 C241.639,138.0208 241.639,138.0218 241.64,138.0218 C241.642,138.0248 241.644,138.0278 241.646,138.0308 L241.646,138.0318 C241.649,138.0348 241.651,138.0388 241.653,138.0418 L241.653,138.0418 C241.76,138.2028 241.871,138.3628 241.984,138.5208 C242.199,138.8178 242.536,138.9768 242.876,138.9768 C243.099,138.9768 243.324,138.9088 243.518,138.7698 C244.011,138.4148 244.123,137.7278 243.769,137.2338 C243.635,137.0478 243.505,136.8578 243.38,136.6648 C243.17,136.3388 242.817,136.1608 242.456,136.1608 M240.258,130.2818 C240.207,130.2818 240.154,130.2858 240.101,130.2928 C239.499,130.3788 239.082,130.9358 239.168,131.5368 L239.168,131.5398 C239.168,131.5428 239.169,131.5458 239.169,131.5478 C239.169,131.5488 239.17,131.5518 239.17,131.5528 C239.17,131.5548 239.171,131.5578 239.171,131.5598 C239.208,131.8178 239.252,132.0738 239.302,132.3278 C239.405,132.8518 239.865,133.2158 240.38,133.2158 C240.45,133.2158 240.521,133.2088 240.592,133.1948 C241.189,133.0788 241.578,132.5008 241.46,131.9048 C241.417,131.6798 241.378,131.4538 241.346,131.2258 C241.267,130.6768 240.796,130.2818 240.258,130.2818 M240.698,124.0138 C240.223,124.0138 239.785,124.3248 239.643,124.8028 C239.635,124.8298 239.628,124.8558 239.621,124.8818 C239.621,124.8828 239.62,124.8828 239.62,124.8838 C239.619,124.8868 239.619,124.8898 239.618,124.8928 C239.617,124.8948 239.617,124.8968 239.616,124.8978 C239.615,124.8998 239.615,124.9018 239.614,124.9038 C239.614,124.9068 239.613,124.9098 239.612,124.9118 C239.612,124.9138 239.611,124.9138 239.611,124.9148 C239.61,124.9188 239.609,124.9208 239.608,124.9248 L239.608,124.9258 C239.607,124.9298 239.606,124.9338 239.605,124.9368 L239.605,124.9378 C239.556,125.1088 239.51,125.2828 239.467,125.4568 L239.467,125.4578 C239.466,125.4608 239.465,125.4648 239.464,125.4678 C239.464,125.4688 239.464,125.4698 239.463,125.4708 C239.463,125.4738 239.462,125.4768 239.461,125.4798 C239.461,125.4808 239.46,125.4828 239.46,125.4838 C239.46,125.4858 239.459,125.4878 239.458,125.4908 C239.458,125.4928 239.457,125.4948 239.457,125.4968 C239.457,125.4988 239.457,125.4998 239.457,125.5018 C239.456,125.5038 239.455,125.5068 239.455,125.5098 C239.455,125.5108 239.454,125.5108 239.454,125.5118 C239.449,125.5348 239.443,125.5578 239.437,125.5808 C239.298,126.1708 239.663,126.7628 240.253,126.9038 C240.338,126.9238 240.424,126.9338 240.508,126.9338 C241.006,126.9338 241.457,126.5938 241.578,126.0878 C241.631,125.8638 241.69,125.6428 241.754,125.4228 C241.924,124.8398 241.59,124.2288 241.007,124.0588 C240.904,124.0278 240.8,124.0138 240.698,124.0138 M243.708,118.5038 C243.401,118.5038 243.094,118.6318 242.876,118.8828 C242.703,119.0848 242.533,119.2908 242.369,119.5008 C241.994,119.9788 242.079,120.6708 242.557,121.0448 C242.758,121.2018 242.997,121.2778 243.234,121.2778 C243.561,121.2778 243.884,121.1338 244.101,120.8568 C244.243,120.6748 244.389,120.4978 244.54,120.3238 C244.937,119.8648 244.887,119.1698 244.428,118.7728 C244.22,118.5918 243.964,118.5038 243.708,118.5038 M248.733,114.7338 C248.58,114.7338 248.424,114.7668 248.276,114.8348 C248.169,114.8828 248.064,114.9328 247.958,114.9838 L247.948,114.9888 L247.947,114.9888 C247.944,114.9908 247.94,114.9928 247.937,114.9948 C247.936,114.9948 247.936,114.9948 247.936,114.9948 C247.932,114.9968 247.929,114.9988 247.925,114.9998 L247.924,115.0008 L247.915,115.0048 L247.914,115.0058 L247.904,115.0108 L247.902,115.0118 C247.899,115.0128 247.896,115.0148 247.892,115.0158 C247.892,115.0168 247.891,115.0168 247.891,115.0168 C247.887,115.0188 247.884,115.0198 247.881,115.0218 C247.88,115.0218 247.88,115.0228 247.879,115.0228 C247.876,115.0238 247.873,115.0258 247.87,115.0268 L247.869,115.0278 C247.865,115.0298 247.862,115.0308 247.859,115.0328 C247.858,115.0328 247.858,115.0328 247.857,115.0338 C247.854,115.0348 247.851,115.0368 247.847,115.0388 C247.847,115.0388 247.846,115.0388 247.845,115.0388 C247.842,115.0408 247.839,115.0428 247.835,115.0438 C247.835,115.0448 247.834,115.0448 247.834,115.0448 C247.831,115.0458 247.828,115.0478 247.825,115.0488 C247.824,115.0498 247.824,115.0498 247.823,115.0508 L247.814,115.0548 L247.812,115.0558 L247.803,115.0608 C247.802,115.0608 247.801,115.0618 247.8,115.0618 L247.791,115.0658 C247.79,115.0668 247.79,115.0668 247.79,115.0668 C247.787,115.0688 247.784,115.0698 247.781,115.0708 L247.778,115.0728 C247.776,115.0738 247.773,115.0758 247.77,115.0768 L247.767,115.0788 C247.764,115.0798 247.761,115.0808 247.759,115.0828 C247.757,115.0828 247.757,115.0838 247.756,115.0838 C247.753,115.0858 247.75,115.0868 247.748,115.0878 C247.747,115.0878 247.746,115.0888 247.745,115.0898 L247.737,115.0938 L247.733,115.0958 C247.731,115.0968 247.728,115.0978 247.726,115.0988 L247.721,115.1018 L247.715,115.1048 C247.713,115.1058 247.711,115.1068 247.71,115.1078 C247.707,115.1078 247.706,115.1088 247.704,115.1098 C247.703,115.1108 247.701,115.1118 247.699,115.1128 L247.693,115.1158 L247.687,115.1188 C247.685,115.1198 247.684,115.1208 247.682,115.1218 L247.676,115.1248 L247.67,115.1278 C247.668,115.1278 247.667,115.1288 247.665,115.1298 L247.659,115.1328 C247.658,115.1338 247.656,115.1348 247.654,115.1358 L247.648,115.1388 C247.646,115.1398 247.645,115.1408 247.643,115.1408 L247.637,115.1438 C247.635,115.1458 247.631,115.1468 247.629,115.1488 L247.626,115.1498 L247.618,115.1538 L247.616,115.1548 C247.613,115.1568 247.61,115.1578 247.606,115.1598 C247.606,115.1598 247.606,115.1608 247.605,115.1608 C247.588,115.1698 247.572,115.1778 247.555,115.1868 C247.018,115.4678 246.809,116.1308 247.089,116.6698 C247.285,117.0458 247.668,117.2618 248.066,117.2618 C248.237,117.2618 248.411,117.2218 248.573,117.1368 C248.776,117.0308 248.982,116.9308 249.191,116.8348 C249.744,116.5818 249.987,115.9288 249.734,115.3768 C249.548,114.9728 249.15,114.7338 248.733,114.7338 M254.871,113.4028 L254.858,113.4028 L254.845,113.4028 L254.833,113.4028 L254.832,113.4028 L254.821,113.4028 L254.82,113.4028 L254.808,113.4028 L254.807,113.4028 L254.796,113.4028 L254.794,113.4028 L254.784,113.4028 L254.781,113.4028 L254.771,113.4028 L254.769,113.4028 L254.759,113.4028 L254.755,113.4028 C254.752,113.4038 254.749,113.4038 254.747,113.4038 L254.743,113.4038 L254.734,113.4038 L254.73,113.4038 L254.721,113.4038 L254.717,113.4038 L254.708,113.4038 L254.705,113.4038 C254.702,113.4038 254.7,113.4038 254.697,113.4038 L254.692,113.4038 L254.684,113.4038 L254.679,113.4038 L254.671,113.4038 L254.666,113.4038 L254.66,113.4038 C254.658,113.4048 254.656,113.4048 254.654,113.4048 L254.649,113.4048 L254.64,113.4048 L254.636,113.4048 L254.627,113.4048 C254.626,113.4048 254.625,113.4048 254.624,113.4048 L254.615,113.4048 L254.613,113.4048 L254.602,113.4048 L254.6,113.4048 C254.596,113.4048 254.592,113.4058 254.589,113.4058 L254.587,113.4058 L254.576,113.4058 C254.572,113.4058 254.567,113.4058 254.563,113.4058 C254.467,113.4078 254.372,113.4108 254.277,113.4138 L254.276,113.4138 C254.272,113.4138 254.268,113.4148 254.264,113.4148 L254.262,113.4148 C254.259,113.4148 254.255,113.4148 254.252,113.4148 L254.248,113.4148 C254.247,113.4148 254.243,113.4158 254.241,113.4158 L254.236,113.4158 C254.233,113.4158 254.231,113.4158 254.229,113.4158 L254.223,113.4158 C254.221,113.4158 254.218,113.4168 254.217,113.4168 L254.209,113.4168 C254.208,113.4168 254.207,113.4168 254.207,113.4168 L254.197,113.4168 C254.196,113.4178 254.195,113.4178 254.194,113.4178 C254.19,113.4178 254.187,113.4178 254.183,113.4178 L254.182,113.4178 C254.178,113.4178 254.174,113.4178 254.17,113.4188 L254.169,113.4188 C254.136,113.4198 254.103,113.4208 254.071,113.4228 C253.463,113.4528 252.997,113.9688 253.027,114.5758 C253.055,115.1648 253.541,115.6218 254.124,115.6218 C254.142,115.6218 254.161,115.6208 254.179,115.6198 C254.409,115.6088 254.638,115.6028 254.871,115.6028 C255.478,115.6028 255.97,115.1108 255.97,114.5028 C255.97,113.8958 255.478,113.4028 254.871,113.4028" id="Fill-29" fill="#FFFFFF" mask="url(#mask-4)"></path>
                    <path d="M261.8091,150.0321 C261.2021,150.0321 260.7091,149.5391 260.7091,148.9321 L260.7091,148.1321 C260.7091,147.5251 261.2021,147.0321 261.8091,147.0321 C262.4161,147.0321 262.9091,147.5251 262.9091,148.1321 L262.9091,148.9321 C262.9091,149.5391 262.4161,150.0321 261.8091,150.0321 M247.9221,150.1941 C247.3151,150.1941 246.8231,149.7011 246.8231,149.0941 L246.8231,148.2941 C246.8231,147.6861 247.3151,147.1941 247.9221,147.1941 C248.5301,147.1941 249.0221,147.6861 249.0221,148.2941 L249.0221,149.0941 C249.0221,149.7011 248.5301,150.1941 247.9221,150.1941 M261.8091,156.8321 C261.2021,156.8321 260.7091,156.3391 260.7091,155.7321 L260.7091,154.9321 C260.7091,154.3241 261.2021,153.8321 261.8091,153.8321 C262.4161,153.8321 262.9091,154.3241 262.9091,154.9321 L262.9091,155.7321 C262.9091,156.3391 262.4161,156.8321 261.8091,156.8321 M247.9221,156.9941 C247.3151,156.9941 246.8231,156.5011 246.8231,155.8941 L246.8231,155.0941 C246.8231,154.4861 247.3151,153.9931 247.9221,153.9931 C248.5301,153.9931 249.0221,154.4861 249.0221,155.0941 L249.0221,155.8941 C249.0221,156.5011 248.5301,156.9941 247.9221,156.9941 M255.2611,159.2971 C255.1261,159.2971 254.9901,159.2721 254.8581,159.2201 C254.3421,159.3751 253.7871,159.1391 253.5481,158.6431 C253.2851,158.0951 253.5151,157.4381 254.0631,157.1751 L254.3891,157.0181 C254.6881,156.8761 255.0351,156.8741 255.3351,157.0151 L255.7321,157.2021 C256.2811,157.4611 256.5161,158.1171 256.2571,158.6661 C256.0701,159.0641 255.6741,159.2971 255.2611,159.2971 M261.4101,162.2021 C261.2521,162.2021 261.0921,162.1691 260.9411,162.0971 L260.2171,161.7551 C259.6671,161.4961 259.4331,160.8401 259.6921,160.2911 C259.9531,159.7421 260.6081,159.5061 261.1571,159.7661 L261.8801,160.1081 C262.4301,160.3671 262.6641,161.0231 262.4051,161.5721 C262.2171,161.9701 261.8221,162.2021 261.4101,162.2021 M248.4131,162.2151 C248.0021,162.2151 247.6101,161.9861 247.4201,161.5921 C247.1571,161.0441 247.3871,160.3871 247.9351,160.1241 L248.6571,159.7771 C249.2041,159.5121 249.8621,159.7431 250.1241,160.2911 C250.3881,160.8391 250.1581,161.4961 249.6101,161.7591 L248.8881,162.1061 C248.7351,162.1801 248.5731,162.2151 248.4131,162.2151" id="Fill-30" fill="#FFFFFF" mask="url(#mask-4)"></path>
                    <path d="M254.8657,118.4047 L254.8577,118.4047 L254.8557,118.4047 L254.8487,118.4047 L254.8477,118.4047 L254.8397,118.4047 L254.8387,118.4047 L254.8317,118.4047 L254.8297,118.4047 C254.8247,118.4047 254.8187,118.4047 254.8137,118.4047 L254.8117,118.4047 L254.8047,118.4047 L254.8037,118.4047 L254.7957,118.4047 L254.7947,118.4047 L254.7877,118.4047 L254.7857,118.4047 L254.7687,118.4047 L254.7677,118.4047 L254.7607,118.4047 C254.7547,118.4047 254.7487,118.4057 254.7427,118.4057 L254.7247,118.4057 C254.5037,118.4087 254.2827,118.4177 254.0647,118.4337 C253.4597,118.4787 253.0057,119.0057 253.0497,119.6107 C253.0917,120.1897 253.5737,120.6307 254.1447,120.6307 C254.1717,120.6307 254.1987,120.6297 254.2257,120.6277 C254.4367,120.6127 254.6507,120.6047 254.8657,120.6047 C254.9947,120.6047 255.1227,120.6077 255.2507,120.6127 C255.2667,120.6137 255.2827,120.6137 255.2997,120.6137 C255.8847,120.6137 256.3717,120.1527 256.3967,119.5617 C256.4237,118.9547 255.9527,118.4417 255.3457,118.4157 C255.3447,118.4157 255.3447,118.4147 255.3447,118.4147 L255.3387,118.4147 L255.3367,118.4147 C255.3347,118.4147 255.3317,118.4147 255.3287,118.4147 L255.3227,118.4147 C255.3217,118.4137 255.3207,118.4137 255.3197,118.4137 L255.3137,118.4137 L255.3117,118.4137 C255.3097,118.4137 255.3077,118.4137 255.3047,118.4137 L255.3037,118.4137 C255.3017,118.4137 255.2987,118.4137 255.2967,118.4127 L255.2957,118.4127 C255.1967,118.4087 255.0967,118.4067 254.9977,118.4057 L254.9887,118.4057 C254.9767,118.4047 254.9667,118.4047 254.9547,118.4047 L254.9527,118.4047 L254.9457,118.4047 L254.9437,118.4047 L254.9377,118.4047 L254.9347,118.4047 L254.9277,118.4047 L254.9277,118.4047 L254.9107,118.4047 L254.9087,118.4047 C254.9057,118.4047 254.9037,118.4047 254.9017,118.4047 L254.8987,118.4047 L254.8937,118.4047 L254.8907,118.4047 L254.8857,118.4047 L254.8827,118.4047 L254.8767,118.4047 L254.8747,118.4047 L254.8657,118.4047 Z M260.3547,120.0847 C260.0017,120.0847 259.6557,120.2537 259.4427,120.5677 C259.1017,121.0707 259.2337,121.7547 259.7367,122.0947 C259.9137,122.2147 260.0857,122.3407 260.2527,122.4727 C260.4537,122.6327 260.6947,122.7097 260.9327,122.7097 C261.2587,122.7097 261.5797,122.5667 261.7977,122.2917 C262.1737,121.8147 262.0927,121.1227 261.6157,120.7467 C261.5687,120.7097 261.5217,120.6727 261.4737,120.6367 C261.4737,120.6357 261.4727,120.6347 261.4717,120.6347 C261.4707,120.6337 261.4697,120.6337 261.4697,120.6327 C261.4687,120.6317 261.4677,120.6317 261.4667,120.6307 C261.4657,120.6297 261.4647,120.6287 261.4637,120.6287 C261.4617,120.6267 261.4597,120.6257 261.4587,120.6237 L261.4577,120.6237 C261.4567,120.6227 261.4537,120.6207 261.4517,120.6197 C261.4517,120.6187 261.4507,120.6187 261.4507,120.6187 C261.4487,120.6167 261.4467,120.6157 261.4457,120.6147 C261.4447,120.6137 261.4447,120.6137 261.4447,120.6137 C261.3407,120.5347 261.2347,120.4577 261.1287,120.3827 C261.1277,120.3827 261.1277,120.3827 261.1277,120.3817 C261.1257,120.3807 261.1237,120.3797 261.1217,120.3787 C261.1217,120.3777 261.1207,120.3777 261.1207,120.3777 L261.1147,120.3727 C261.1137,120.3727 261.1137,120.3727 261.1137,120.3727 C261.1117,120.3707 261.1097,120.3697 261.1087,120.3687 C261.1077,120.3677 261.1067,120.3677 261.1057,120.3667 C261.1047,120.3667 261.1037,120.3657 261.1017,120.3647 C261.1007,120.3637 261.1007,120.3627 261.0997,120.3627 C261.0977,120.3627 261.0977,120.3617 261.0967,120.3607 C261.0947,120.3597 261.0927,120.3577 261.0907,120.3567 C261.0897,120.3557 261.0897,120.3557 261.0887,120.3557 C261.0877,120.3547 261.0867,120.3537 261.0847,120.3527 C261.0837,120.3517 261.0837,120.3517 261.0837,120.3517 C261.0467,120.3247 261.0087,120.2997 260.9697,120.2737 C260.7817,120.1457 260.5667,120.0847 260.3547,120.0847 L260.3547,120.0847 Z M264.0637,124.8207 C263.9377,124.8207 263.8097,124.8417 263.6847,124.8877 C263.1147,125.0977 262.8227,125.7297 263.0317,126.3007 C263.1047,126.4987 263.1717,126.7007 263.2297,126.9057 C263.3677,127.3887 263.8077,127.7037 264.2867,127.7037 C264.3867,127.7037 264.4887,127.6897 264.5897,127.6607 C265.1737,127.4947 265.5117,126.8867 265.3447,126.3027 C265.3327,126.2577 265.3187,126.2117 265.3047,126.1667 L265.3047,126.1657 C265.3037,126.1577 265.3007,126.1507 265.2987,126.1427 L265.2987,126.1407 C265.2977,126.1387 265.2967,126.1367 265.2967,126.1347 C265.2957,126.1337 265.2957,126.1337 265.2957,126.1337 C265.2947,126.1317 265.2947,126.1287 265.2937,126.1267 C265.2937,126.1257 265.2937,126.1247 265.2927,126.1247 C265.2927,126.1227 265.2917,126.1207 265.2917,126.1187 C265.2907,126.1177 265.2907,126.1177 265.2907,126.1167 C265.2897,126.1147 265.2897,126.1127 265.2887,126.1117 L265.2887,126.1097 C265.2877,126.1077 265.2867,126.1047 265.2867,126.1027 C265.2857,126.1017 265.2857,126.1007 265.2857,126.0997 C265.2847,126.0987 265.2847,126.0967 265.2837,126.0957 C265.2837,126.0947 265.2837,126.0927 265.2827,126.0917 C265.2827,126.0907 265.2817,126.0897 265.2817,126.0887 C265.2817,126.0877 265.2807,126.0867 265.2807,126.0847 L265.2807,126.0837 C265.2797,126.0807 265.2787,126.0777 265.2767,126.0737 L265.2767,126.0717 C265.2757,126.0707 265.2757,126.0687 265.2747,126.0677 L265.2747,126.0667 C265.2727,126.0607 265.2707,126.0547 265.2697,126.0497 L265.2687,126.0487 C265.2167,125.8777 265.1587,125.7087 265.0967,125.5407 C264.9327,125.0957 264.5117,124.8207 264.0637,124.8207 L264.0637,124.8207 Z M264.3057,130.8317 C263.8247,130.8317 263.3827,131.1507 263.2467,131.6377 C263.1897,131.8427 263.1257,132.0457 263.0537,132.2447 C262.8477,132.8167 263.1447,133.4467 263.7177,133.6527 C263.8407,133.6967 263.9657,133.7177 264.0897,133.7177 C264.5397,133.7177 264.9617,133.4387 265.1237,132.9907 C265.2017,132.7727 265.2737,132.5507 265.3387,132.3267 L265.3387,132.3257 C265.3407,132.3207 265.3417,132.3157 265.3437,132.3107 L265.3437,132.3097 C265.3447,132.3077 265.3447,132.3047 265.3447,132.3027 C265.3447,132.3017 265.3447,132.3017 265.3457,132.3007 C265.3457,132.2997 265.3467,132.2977 265.3467,132.2957 C265.3467,132.2947 265.3477,132.2937 265.3477,132.2937 C265.3477,132.2907 265.3487,132.2887 265.3497,132.2867 C265.3497,132.2857 265.3497,132.2847 265.3507,132.2837 C265.3507,132.2827 265.3507,132.2807 265.3517,132.2797 C265.3517,132.2787 265.3517,132.2777 265.3527,132.2767 C265.3527,132.2747 265.3527,132.2737 265.3537,132.2717 C265.3537,132.2707 265.3547,132.2697 265.3547,132.2687 C265.3547,132.2667 265.3557,132.2647 265.3567,132.2627 C265.3567,132.2617 265.3567,132.2597 265.3577,132.2587 C265.3577,132.2577 265.3577,132.2567 265.3587,132.2557 C265.3587,132.2547 265.3587,132.2527 265.3597,132.2517 C265.3597,132.2507 265.3597,132.2497 265.3607,132.2487 C265.3617,132.2437 265.3637,132.2387 265.3647,132.2337 L265.3647,132.2327 C265.3657,132.2307 265.3657,132.2287 265.3667,132.2267 L265.3667,132.2267 C265.5287,131.6417 265.1867,131.0347 264.6007,130.8727 C264.5027,130.8447 264.4037,130.8317 264.3057,130.8317 L264.3057,130.8317 Z M260.9897,135.8507 C260.7487,135.8507 260.5057,135.9297 260.3027,136.0927 C260.1367,136.2257 259.9657,136.3527 259.7897,136.4737 C259.2887,136.8187 259.1627,137.5027 259.5077,138.0037 C259.7197,138.3137 260.0637,138.4797 260.4137,138.4797 C260.6287,138.4797 260.8457,138.4167 261.0367,138.2857 C261.2567,138.1347 261.4697,137.9757 261.6777,137.8087 C262.1527,137.4287 262.2277,136.7367 261.8477,136.2627 C261.6317,135.9917 261.3117,135.8507 260.9897,135.8507 L260.9897,135.8507 Z M255.3707,137.9877 C255.3517,137.9877 255.3337,137.9877 255.3147,137.9887 C255.1657,137.9967 255.0157,137.9997 254.8657,137.9997 L254.6737,137.9977 L254.6617,137.9977 C254.0587,137.9977 253.5627,138.4827 253.5497,139.0857 C253.5367,139.6847 254.0047,140.1757 254.5987,140.1967 C254.6147,140.1967 254.6307,140.1977 254.6457,140.1977 L254.6537,140.1977 L254.6547,140.1977 L254.6627,140.1977 L254.6677,140.1977 C254.6687,140.1987 254.6697,140.1987 254.6717,140.1987 L254.6777,140.1987 L254.6787,140.1987 L254.6847,140.1987 L254.6857,140.1987 L254.6927,140.1987 C254.7227,140.1987 254.7527,140.1997 254.7827,140.1997 L254.7837,140.1997 L254.7897,140.1997 L254.7917,140.1997 L254.7977,140.1997 L254.7997,140.1997 L254.8047,140.1997 L254.8077,140.1997 L254.8177,140.1997 L254.8207,140.1997 L254.8247,140.1997 L254.8297,140.1997 L254.8337,140.1997 L254.8377,140.1997 L254.8417,140.1997 L254.8457,140.1997 L254.8487,140.1997 L254.8547,140.1997 L254.8577,140.1997 L254.8657,140.1997 L254.8777,140.1997 L254.9007,140.1997 L254.9077,140.1997 L254.9097,140.1997 L254.9247,140.1997 L254.9277,140.1997 L254.9327,140.1997 L254.9357,140.1997 C255.0297,140.1987 255.1237,140.1977 255.2167,140.1947 C255.2197,140.1947 255.2217,140.1947 255.2247,140.1947 L255.2327,140.1947 L255.2337,140.1947 C255.2367,140.1937 255.2387,140.1937 255.2407,140.1937 L255.2427,140.1937 L255.2487,140.1937 C255.2497,140.1937 255.2507,140.1937 255.2517,140.1937 L255.2577,140.1937 L255.2607,140.1937 C255.2617,140.1937 255.2627,140.1937 255.2647,140.1927 L255.2687,140.1927 L255.2727,140.1927 C255.2747,140.1927 255.2757,140.1927 255.2777,140.1927 L255.2817,140.1927 L255.2867,140.1927 L255.2897,140.1927 C255.2917,140.1917 255.2937,140.1917 255.2957,140.1917 L255.2977,140.1917 C255.2997,140.1917 255.3027,140.1917 255.3037,140.1917 L255.3047,140.1917 C255.3457,140.1897 255.3867,140.1877 255.4277,140.1857 C256.0337,140.1547 256.4997,139.6377 256.4687,139.0317 C256.4387,138.4447 255.9527,137.9877 255.3707,137.9877 L255.3707,137.9877 Z M248.9697,136.0277 C248.6367,136.0277 248.3067,136.1777 248.0907,136.4647 C247.7247,136.9497 247.8207,137.6387 248.3057,138.0057 C248.3447,138.0337 248.3827,138.0627 248.4207,138.0907 C248.4217,138.0917 248.4217,138.0917 248.4217,138.0917 C248.4237,138.0927 248.4247,138.0937 248.4267,138.0947 C248.4267,138.0947 248.4267,138.0947 248.4277,138.0957 C248.4287,138.0967 248.4317,138.0987 248.4347,138.1007 C248.4347,138.1017 248.4357,138.1017 248.4357,138.1027 C248.4377,138.1037 248.4387,138.1037 248.4397,138.1047 C248.4407,138.1057 248.4417,138.1067 248.4427,138.1067 C248.4437,138.1077 248.4447,138.1087 248.4457,138.1087 C248.4467,138.1097 248.4477,138.1107 248.4487,138.1117 C248.4497,138.1127 248.4517,138.1127 248.4527,138.1137 C248.4537,138.1147 248.4557,138.1157 248.4567,138.1167 C248.4577,138.1177 248.4587,138.1187 248.4597,138.1187 C248.4607,138.1197 248.4617,138.1207 248.4637,138.1217 C248.4637,138.1227 248.4647,138.1227 248.4657,138.1237 C248.4667,138.1247 248.4687,138.1257 248.4697,138.1267 C248.4697,138.1277 248.4707,138.1277 248.4707,138.1277 C248.4727,138.1297 248.4747,138.1307 248.4767,138.1327 C248.4777,138.1327 248.4777,138.1327 248.4777,138.1327 C248.4797,138.1337 248.4817,138.1347 248.4837,138.1367 C248.4837,138.1367 248.4837,138.1367 248.4847,138.1377 C248.4867,138.1387 248.4887,138.1397 248.4907,138.1417 L248.4907,138.1417 C248.4957,138.1457 248.4997,138.1477 248.5037,138.1517 C248.5047,138.1517 248.5047,138.1517 248.5047,138.1517 L248.5107,138.1557 L248.5307,138.1707 C248.5447,138.1797 248.5567,138.1897 248.5707,138.1987 C248.5967,138.2177 248.6247,138.2367 248.6507,138.2557 C248.6537,138.2577 248.6557,138.2587 248.6577,138.2597 L248.6577,138.2607 C248.6607,138.2617 248.6627,138.2637 248.6647,138.2647 C248.6667,138.2667 248.6697,138.2677 248.6717,138.2697 L248.6717,138.2697 C248.6737,138.2707 248.6757,138.2727 248.6777,138.2737 L248.6787,138.2747 C248.6797,138.2757 248.6827,138.2777 248.6837,138.2787 C248.6847,138.2787 248.6847,138.2787 248.6847,138.2797 C248.6867,138.2807 248.6887,138.2817 248.6917,138.2837 L248.6917,138.2837 C248.6937,138.2847 248.6957,138.2867 248.6977,138.2877 C248.6977,138.2877 248.6987,138.2887 248.6987,138.2887 C248.7007,138.2897 248.7027,138.2907 248.7047,138.2927 C248.7047,138.2927 248.7047,138.2927 248.7057,138.2927 C248.7077,138.2947 248.7097,138.2957 248.7117,138.2977 L248.7127,138.2977 C248.7147,138.2997 248.7157,138.3007 248.7177,138.3017 L248.7197,138.3027 C248.7207,138.3037 248.7227,138.3047 248.7237,138.3057 C248.7247,138.3057 248.7247,138.3067 248.7257,138.3077 C248.7277,138.3087 248.7297,138.3097 248.7307,138.3107 C248.7317,138.3117 248.7327,138.3117 248.7337,138.3127 C248.7347,138.3137 248.7367,138.3147 248.7377,138.3157 C248.7387,138.3157 248.7397,138.3167 248.7407,138.3177 C248.7417,138.3187 248.7427,138.3187 248.7437,138.3197 C248.7447,138.3207 248.7457,138.3207 248.7477,138.3217 C248.7477,138.3217 248.7497,138.3227 248.7497,138.3237 C248.7517,138.3247 248.7537,138.3257 248.7557,138.3267 C248.7567,138.3277 248.7577,138.3277 248.7587,138.3287 C248.7597,138.3297 248.7607,138.3307 248.7617,138.3317 C248.7617,138.3317 248.7627,138.3327 248.7637,138.3327 C248.7647,138.3337 248.7667,138.3347 248.7677,138.3357 L248.7687,138.3367 C248.7737,138.3397 248.7787,138.3427 248.7827,138.3457 C248.7837,138.3457 248.7837,138.3467 248.7847,138.3467 C248.7857,138.3477 248.7877,138.3487 248.7887,138.3497 C248.7887,138.3497 248.7897,138.3507 248.7897,138.3507 C248.7947,138.3537 248.7997,138.3567 248.8037,138.3607 L248.8047,138.3607 C248.8057,138.3617 248.8077,138.3627 248.8097,138.3637 L248.8097,138.3637 C248.8597,138.3977 248.9107,138.4307 248.9617,138.4637 C249.1457,138.5827 249.3527,138.6397 249.5567,138.6397 C249.9187,138.6397 250.2717,138.4627 250.4817,138.1357 C250.8117,137.6257 250.6657,136.9457 250.1547,136.6157 C249.9757,136.4997 249.8017,136.3777 249.6317,136.2497 C249.4327,136.0997 249.2007,136.0277 248.9697,136.0277 L248.9697,136.0277 Z M245.5067,131.1077 C245.3977,131.1077 245.2887,131.1237 245.1797,131.1577 C244.6007,131.3367 244.2757,131.9517 244.4547,132.5317 C244.4857,132.6317 244.5177,132.7307 244.5517,132.8287 L244.5517,132.8297 L244.5567,132.8447 L244.5567,132.8467 C244.5577,132.8487 244.5577,132.8497 244.5587,132.8517 C244.5587,132.8527 244.5597,132.8537 244.5597,132.8537 C244.5607,132.8557 244.5607,132.8577 244.5617,132.8597 C244.5617,132.8607 244.5617,132.8617 244.5627,132.8627 C244.5637,132.8637 244.5637,132.8657 244.5647,132.8677 C244.5647,132.8687 244.5657,132.8697 244.5657,132.8707 C244.5657,132.8717 244.5667,132.8727 244.5667,132.8747 C244.5677,132.8757 244.5677,132.8767 244.5687,132.8787 C244.5687,132.8787 244.5687,132.8807 244.5697,132.8817 C244.5697,132.8837 244.5707,132.8867 244.5717,132.8887 C244.5717,132.8897 244.5727,132.8907 244.5727,132.8907 C244.5737,132.8927 244.5737,132.8937 244.5747,132.8957 L244.5747,132.8977 C244.5757,132.8997 244.5767,132.9007 244.5767,132.9027 L244.5767,132.9027 C244.6227,133.0327 244.6707,133.1607 244.7197,133.2887 C244.8897,133.7217 245.3047,133.9867 245.7447,133.9867 C245.8787,133.9867 246.0137,133.9617 246.1457,133.9097 C246.7117,133.6877 246.9897,133.0487 246.7677,132.4837 C246.6897,132.2867 246.6197,132.0857 246.5557,131.8827 C246.4107,131.4107 245.9757,131.1077 245.5067,131.1077 L245.5067,131.1077 Z M245.5717,125.0917 C245.1117,125.0917 244.6827,125.3827 244.5287,125.8427 C244.4957,125.9437 244.4637,126.0437 244.4317,126.1457 C244.4307,126.1517 244.4287,126.1577 244.4277,126.1637 L244.4277,126.1637 C244.4267,126.1657 244.4267,126.1677 244.4257,126.1697 L244.4257,126.1707 C244.4237,126.1757 244.4217,126.1807 244.4207,126.1867 C244.4207,126.1867 244.4197,126.1877 244.4197,126.1877 C244.4197,126.1897 244.4187,126.1917 244.4187,126.1927 C244.4187,126.1937 244.4177,126.1947 244.4177,126.1947 C244.4177,126.1967 244.4167,126.1977 244.4167,126.1997 L244.4167,126.1997 C244.4157,126.2037 244.4147,126.2067 244.4137,126.2097 C244.4137,126.2107 244.4127,126.2117 244.4127,126.2127 C244.4117,126.2137 244.4117,126.2157 244.4117,126.2167 C244.4107,126.2177 244.4107,126.2187 244.4107,126.2197 C244.4097,126.2207 244.4097,126.2217 244.4097,126.2237 C244.4087,126.2257 244.4077,126.2277 244.4077,126.2297 C244.4067,126.2307 244.4067,126.2317 244.4067,126.2327 C244.4057,126.2347 244.4057,126.2357 244.4057,126.2367 C244.4047,126.2377 244.4047,126.2387 244.4047,126.2397 C244.4037,126.2417 244.4037,126.2427 244.4027,126.2447 C244.4027,126.2457 244.4027,126.2457 244.4017,126.2467 C244.4017,126.2487 244.4007,126.2517 244.3997,126.2537 L244.3997,126.2567 C244.3987,126.2587 244.3987,126.2597 244.3977,126.2607 C244.3977,126.2617 244.3977,126.2627 244.3967,126.2637 C244.3967,126.2657 244.3957,126.2677 244.3957,126.2687 C244.3957,126.2697 244.3957,126.2707 244.3947,126.2707 C244.3947,126.2737 244.3937,126.2757 244.3927,126.2787 L244.3927,126.2807 C244.3917,126.2817 244.3917,126.2837 244.3907,126.2857 C244.3907,126.2857 244.3907,126.2867 244.3897,126.2877 C244.3897,126.2897 244.3887,126.2917 244.3887,126.2937 C244.3887,126.2947 244.3877,126.2947 244.3877,126.2957 C244.3877,126.2977 244.3867,126.3007 244.3867,126.3027 L244.3867,126.3037 C244.3857,126.3057 244.3857,126.3077 244.3847,126.3097 C244.3847,126.3107 244.3847,126.3117 244.3837,126.3117 C244.3837,126.3137 244.3827,126.3167 244.3817,126.3187 L244.3817,126.3197 C244.3807,126.3217 244.3807,126.3237 244.3797,126.3267 L244.3797,126.3277 C244.3787,126.3297 244.3777,126.3327 244.3777,126.3347 C244.3777,126.3347 244.3777,126.3357 244.3767,126.3357 C244.3757,126.3417 244.3747,126.3457 244.3727,126.3507 L244.3727,126.3517 C244.3717,126.3547 244.3707,126.3567 244.3707,126.3587 C244.3707,126.3597 244.3707,126.3597 244.3697,126.3607 C244.3687,126.3657 244.3677,126.3697 244.3657,126.3757 L244.3657,126.3767 C244.3647,126.3787 244.3647,126.3807 244.3637,126.3837 L244.3637,126.3837 C244.3617,126.3897 244.3607,126.3947 244.3587,126.3997 L244.3587,126.4007 C244.3537,126.4167 244.3497,126.4327 244.3447,126.4487 C244.3307,126.5027 244.3167,126.5567 244.3027,126.6117 C244.1537,127.1997 244.5107,127.7977 245.0977,127.9467 C245.1887,127.9697 245.2807,127.9817 245.3707,127.9817 C245.8617,127.9817 246.3087,127.6497 246.4347,127.1527 C246.4877,126.9457 246.5487,126.7407 246.6147,126.5407 C246.8077,125.9647 246.4977,125.3417 245.9217,125.1487 C245.8047,125.1097 245.6877,125.0917 245.5717,125.0917 L245.5717,125.0917 Z M249.1407,120.2497 C248.9187,120.2497 248.6937,120.3167 248.4987,120.4577 C248.3907,120.5347 248.2847,120.6147 248.1787,120.6967 L248.1787,120.6967 C248.1777,120.6987 248.1757,120.6997 248.1747,120.7007 C248.1747,120.7007 248.1737,120.7007 248.1737,120.7017 C248.1687,120.7047 248.1647,120.7087 248.1597,120.7117 C248.1597,120.7127 248.1587,120.7127 248.1587,120.7127 C248.1577,120.7137 248.1557,120.7147 248.1547,120.7157 C248.1547,120.7167 248.1537,120.7167 248.1527,120.7177 L248.1497,120.7197 L248.1467,120.7217 C248.1447,120.7227 248.1427,120.7247 248.1417,120.7257 C248.1397,120.7267 248.1397,120.7277 248.1387,120.7287 C248.1377,120.7287 248.1367,120.7297 248.1367,120.7307 C248.1347,120.7317 248.1347,120.7327 248.1337,120.7327 C248.1327,120.7337 248.1317,120.7347 248.1307,120.7357 C248.1297,120.7367 248.1277,120.7377 248.1267,120.7377 C248.1257,120.7387 248.1257,120.7387 248.1247,120.7397 L248.1187,120.7437 C248.1187,120.7447 248.1177,120.7447 248.1167,120.7457 C248.1157,120.7467 248.1147,120.7477 248.1127,120.7487 C248.1127,120.7487 248.1117,120.7497 248.1107,120.7497 C248.1097,120.7517 248.1077,120.7527 248.1057,120.7547 L248.1057,120.7547 C248.1027,120.7567 248.1007,120.7577 248.0987,120.7597 C248.0967,120.7617 248.0947,120.7627 248.0937,120.7647 C248.0937,120.7647 248.0927,120.7647 248.0927,120.7647 L248.0867,120.7697 L248.0867,120.7697 C248.0117,120.8287 247.9387,120.8887 247.8657,120.9497 C247.4017,121.3407 247.3417,122.0327 247.7317,122.4977 C247.9487,122.7577 248.2617,122.8917 248.5747,122.8917 C248.8247,122.8917 249.0757,122.8067 249.2817,122.6337 C249.4447,122.4977 249.6127,122.3667 249.7857,122.2417 C250.2787,121.8857 250.3897,121.1987 250.0347,120.7057 C249.8197,120.4077 249.4827,120.2497 249.1407,120.2497 L249.1407,120.2497 Z" id="Fill-31" fill="#FFFFFF" mask="url(#mask-4)"></path>
                    <path d="M202.1958,54.8739 L129.4928,54.8739 C128.6638,54.8739 127.9928,54.2029 127.9928,53.3739 C127.9928,52.5449 128.6638,51.8739 129.4928,51.8739 L202.1958,51.8739 C203.0238,51.8739 203.6958,52.5449 203.6958,53.3739 C203.6958,54.2029 203.0238,54.8739 202.1958,54.8739" id="Fill-32" fill="#FFFFFF" mask="url(#mask-4)"></path>
                    <path d="M186.3872,69.5463 L129.4922,69.5463 C128.6642,69.5463 127.9922,68.8753 127.9922,68.0463 C127.9922,67.2173 128.6642,66.5463 129.4922,66.5463 L186.3872,66.5463 C187.2152,66.5463 187.8872,67.2173 187.8872,68.0463 C187.8872,68.8753 187.2152,69.5463 186.3872,69.5463" id="Fill-33" fill="#FFFFFF" mask="url(#mask-4)"></path>
                    <path d="M157.9399,83.6996 L129.4929,83.6996 C128.6639,83.6996 127.9929,83.0286 127.9929,82.1996 C127.9929,81.3706 128.6639,80.6996 129.4929,80.6996 L157.9399,80.6996 C158.7689,80.6996 159.4399,81.3706 159.4399,82.1996 C159.4399,83.0286 158.7689,83.6996 157.9399,83.6996" id="Fill-34" fill="#FFFFFF" mask="url(#mask-4)"></path>
                </g>
            </g>
        </g>
    </g>
</svg>