<?xml version="1.0" encoding="UTF-8"?>
<svg width="205px" height="148px" viewBox="0 0 205 148" version="1.1" xmlns="http://www.w3.org/2000/svg" xmlns:xlink="http://www.w3.org/1999/xlink">
    <title>0F98FE20-A4B0-4938-A61C-8F582DB51E17@1x</title>
    <defs>
        <polygon id="path-1" points="0 0.23136 22.48864 0.23136 22.48864 22.719872 0 22.719872"></polygon>
        <polygon id="path-3" points="0 0.46272 44.97728 0.46272 44.97728 45.439744 0 45.439744"></polygon>
    </defs>
    <g id="Remote_Main_Mobile" stroke="none" stroke-width="1" fill="none" fill-rule="evenodd">
        <g id="RWS_0510_라이선스-미할당-안내" transform="translate(-78.000000, -220.000000)">
            <g id="img_noworkspace" transform="translate(78.000000, 220.000000)">
                <rect id="tr" x="0" y="0" width="204.8" height="147.2"></rect>
                <g id="Group-35" opacity="0.600000024" transform="translate(6.400000, 14.720000)">
                    <g id="Group-3" transform="translate(0.000000, 0.183040)" fill="#FFFFFF" stroke="#A6ACB3" stroke-width="1.5">
                        <path d="M135.734656,97.42688 L6.294016,97.42688 C2.823296,97.42688 0.000256,94.6032 0.000256,91.13312 L0.000256,6.75104 C0.000256,3.28032 2.823296,0.45664 6.294016,0.45664 L158.176256,0.45664 C161.646976,0.45664 164.470016,3.28032 164.470016,6.75104 L164.470016,42.6192 C164.470016,42.86688 164.269696,43.0672 164.022016,43.0672 C163.774976,43.0672 163.574016,42.86688 163.574016,42.6192 L163.574016,6.75104 C163.574016,3.7744 161.152896,1.35328 158.176256,1.35328 L6.294016,1.35328 C3.317376,1.35328 0.896256,3.7744 0.896256,6.75104 L0.896256,91.13312 C0.896256,94.10912 3.317376,96.53088 6.294016,96.53088 L135.734656,96.53088 C135.982336,96.53088 136.182656,96.7312 136.182656,96.97888 C136.182656,97.22656 135.982336,97.42688 135.734656,97.42688" id="Fill-1"></path>
                    </g>
                    <path d="M135.734656,81.346176 L0.448256,81.346176 C0.200576,81.346176 0.000256,81.145856 0.000256,80.898176 C0.000256,80.650496 0.200576,80.450176 0.448256,80.450176 L135.734656,80.450176 C135.982336,80.450176 136.182656,80.650496 136.182656,80.898176 C136.182656,81.145856 135.982336,81.346176 135.734656,81.346176" id="Fill-4" stroke="#A6ACB3" stroke-width="1.5" fill="#FFFFFF"></path>
                    <path d="M123.331584,121.78304 L47.210624,121.78304 C46.962944,121.78304 46.761984,121.58272 46.761984,121.33504 C46.761984,121.08736 46.962944,120.88704 47.210624,120.88704 L123.331584,120.88704 C123.579264,120.88704 123.779584,121.08736 123.779584,121.33504 C123.779584,121.58272 123.579264,121.78304 123.331584,121.78304" id="Fill-6" stroke="#A6ACB3" stroke-width="1.5" fill="#FFFFFF"></path>
                    <path d="M191.70784,121.78304 L134.6704,121.78304 C134.42272,121.78304 134.2224,121.58272 134.2224,121.33504 C134.2224,121.08736 134.42272,120.88704 134.6704,120.88704 L191.70784,120.88704 C191.95552,120.88704 192.15584,121.08736 192.15584,121.33504 C192.15584,121.58272 191.95552,121.78304 191.70784,121.78304" id="Fill-8" stroke="#A6ACB3" stroke-width="1.5" fill="#FFFFFF"></path>
                    <polygon id="Fill-10" stroke="#A6ACB3" stroke-width="1.5" fill="#FFFFFF" points="155.95392 54.10176 170.4256 54.10176 170.4256 53.20576 155.95392 53.20576"></polygon>
                    <path d="M86.352192,85.178688 C84.329152,85.178688 82.683712,86.824128 82.683712,88.847168 C82.683712,90.870848 84.329152,92.516288 86.352192,92.516288 C88.375232,92.516288 90.020672,90.870848 90.020672,88.847168 C90.020672,86.824128 88.375232,85.178688 86.352192,85.178688 M86.352192,93.412288 C83.835072,93.412288 81.787072,91.364928 81.787072,88.847168 C81.787072,86.330048 83.835072,84.282688 86.352192,84.282688 C88.869312,84.282688 90.917312,86.330048 90.917312,88.847168 C90.917312,91.364928 88.869312,93.412288 86.352192,93.412288" id="Fill-12" stroke="#A6ACB3" stroke-width="1.5" fill="#FFFFFF"></path>
                    <polygon id="Fill-13" stroke="#A6ACB3" stroke-width="1.5" fill="#FFFFFF" points="62.718464 121.518336 61.901184 121.151616 72.754944 96.978176 73.572224 97.344896"></polygon>
                    <polygon id="Fill-14" stroke="#A6ACB3" stroke-width="1.5" fill="#FFFFFF" points="108.023424 121.518336 97.169024 97.344896 97.986304 96.978176 108.840704 121.151616"></polygon>
                    <path d="M143.616,120.84992 L183.58272,120.84992 L183.58272,54.23104 C183.58272,51.64224 181.47648,49.536 178.88768,49.536 L148.31104,49.536 C145.72224,49.536 143.616,51.64224 143.616,54.23104 L143.616,120.84992 Z M184.47936,121.74592 L142.72,121.74592 L142.72,54.23104 C142.72,51.14816 145.22816,48.64 148.31104,48.64 L178.88768,48.64 C181.9712,48.64 184.47936,51.14816 184.47936,54.23104 L184.47936,121.74592 Z" id="Fill-15" stroke="#A6ACB3" stroke-width="1.5" fill="#FFFFFF"></path>
                    <path d="M156.5344,43.2045741 L156.5344,8.96 L8.32,8.96 L8.40413169,79.7296939 L136.42368,79.7296939 L136.42368,49.5322169 C136.42368,46.0373534 139.27424,43.2045741 142.7904,43.2045741 L156.5344,43.2045741 Z" id="Fill-16" fill="#3E454F"></path>
                    <polygon id="Fill-17" fill="#3E454F" points="147.84 120.093104 179.12576 120.093104 179.12576 56.96 147.84 56.96"></polygon>
                    <g id="logo" transform="translate(152.320000, 72.960000)">
                        <g id="Group-3" transform="translate(0.000000, 0.088736)">
                            <mask id="mask-2" fill="white">
                                <use xlink:href="#path-1"></use>
                            </mask>
                            <g id="Clip-2"></g>
                            <path d="M11.244384,0.231232 C2.737824,0.231232 -9.6e-05,2.969152 -9.6e-05,11.475712 C-9.6e-05,19.982272 2.737824,22.719872 11.244384,22.719872 C19.750944,22.719872 22.488864,19.982272 22.488864,11.475712 C22.488864,2.969152 19.750944,0.231232 11.244384,0.231232" id="Fill-1" fill="#616872" mask="url(#mask-2)"></path>
                        </g>
                        <polygon id="Fill-4" fill="#E5E5E5" points="11.244384 7.941984 11.244384 5.363104 5.873824 8.463584 8.107424 9.753184"></polygon>
                        <polygon id="Fill-6" fill="#FFFFFF" points="11.244384 7.941984 11.244384 5.363104 16.614624 8.463584 14.381344 9.753184"></polygon>
                        <polygon id="Fill-8" fill="#A5A5A5" points="11.244384 7.941984 8.107424 9.753184 11.244384 11.564384 14.381344 9.753184"></polygon>
                        <polygon id="Fill-10" fill="#C6C6C6" points="5.87392 8.463712 5.87392 14.664992 11.24448 17.765472 11.24448 15.186912 8.1072 13.375392 8.1072 9.753312"></polygon>
                        <polygon id="Fill-12" fill="#A5A5A5" points="16.614848 8.463712 16.614848 14.664992 11.244288 17.765472 11.244288 15.186912 14.381568 13.375392 14.381568 9.753312"></polygon>
                        <polygon id="Fill-14" fill="#E5E5E5" points="11.244384 11.564352 8.107424 13.375232 8.107424 9.753152"></polygon>
                        <polygon id="Fill-16" fill="#FFFFFF" points="11.244384 11.564352 14.381344 13.375232 14.381344 9.753152"></polygon>
                    </g>
                    <g id="logo" transform="translate(63.360000, 21.760000)">
                        <g id="Group-3" transform="translate(0.000000, 0.177472)">
                            <mask id="mask-4" fill="white">
                                <use xlink:href="#path-3"></use>
                            </mask>
                            <g id="Clip-2"></g>
                            <path d="M22.488768,0.462464 C5.475648,0.462464 -0.000192,5.938304 -0.000192,22.951424 C-0.000192,39.964544 5.475648,45.439744 22.488768,45.439744 C39.501888,45.439744 44.977728,39.964544 44.977728,22.951424 C44.977728,5.938304 39.501888,0.462464 22.488768,0.462464" id="Fill-1" fill="#616872" mask="url(#mask-4)"></path>
                        </g>
                        <polygon id="Fill-4" fill="#E5E5E5" points="22.488768 15.883968 22.488768 10.726208 11.747648 16.927168 16.214848 19.506368"></polygon>
                        <polygon id="Fill-6" fill="#FFFFFF" points="22.488768 15.883968 22.488768 10.726208 33.229248 16.927168 28.762688 19.506368"></polygon>
                        <polygon id="Fill-8" fill="#A5A5A5" points="22.488768 15.883968 16.214848 19.506368 22.488768 23.128768 28.762688 19.506368"></polygon>
                        <polygon id="Fill-10" fill="#C6C6C6" points="11.74784 16.927424 11.74784 29.329984 22.48896 35.530944 22.48896 30.373824 16.2144 26.750784 16.2144 19.506624"></polygon>
                        <polygon id="Fill-12" fill="#A5A5A5" points="33.229696 16.927424 33.229696 29.329984 22.488576 35.530944 22.488576 30.373824 28.763136 26.750784 28.763136 19.506624"></polygon>
                        <polygon id="Fill-14" fill="#E5E5E5" points="22.488768 23.128704 16.214848 26.750464 16.214848 19.506304"></polygon>
                        <polygon id="Fill-16" fill="#FFFFFF" points="22.488768 23.128704 28.762688 26.750464 28.762688 19.506304"></polygon>
                    </g>
                </g>
            </g>
        </g>
    </g>
</svg>