<?xml version="1.0" encoding="UTF-8"?>
<svg width="320px" height="230px" viewBox="0 0 320 230" version="1.1" xmlns="http://www.w3.org/2000/svg" xmlns:xlink="http://www.w3.org/1999/xlink">
    <title>893638ED-18C6-4136-AE68-BBF190A5B0E1@1.00x</title>
    <defs>
        <polygon id="path-1" points="0.0004 0.714 256.9844 0.714 256.9844 152.2295 0.0004 152.2295"></polygon>
        <polygon id="path-3" points="0 190.286 300.244 190.286 300.244 1 0 1"></polygon>
        <polygon id="path-5" points="0 0.3615 35.1385 0.3615 35.1385 35.4998 0 35.4998"></polygon>
        <polygon id="path-7" points="0 0.723 70.277 0.723 70.277 70.9996 0 70.9996"></polygon>
    </defs>
    <g id="Remote_part01" stroke="none" stroke-width="1" fill="none" fill-rule="evenodd">
        <g id="RWS_0510_라이선스-미할당-안내" transform="translate(-800.000000, -512.000000)">
            <g id="img_noworkspace" transform="translate(800.000000, 512.000000)">
                <rect id="tr" x="0" y="0" width="320" height="230"></rect>
                <g id="Group-35" opacity="0.600000024" transform="translate(10.000000, 23.000000)">
                    <g id="Group-3" transform="translate(0.000000, 0.286000)">
                        <mask id="mask-2" fill="white">
                            <use xlink:href="#path-1"></use>
                        </mask>
                        <g id="Clip-2"></g>
                        <path d="M212.0854,152.2295 L9.8344,152.2295 C4.4114,152.2295 0.0004,147.8175 0.0004,142.3955 L0.0004,10.5485 C0.0004,5.1255 4.4114,0.7135 9.8344,0.7135 L247.1504,0.7135 C252.5734,0.7135 256.9844,5.1255 256.9844,10.5485 L256.9844,66.5925 C256.9844,66.9795 256.6714,67.2925 256.2844,67.2925 C255.8984,67.2925 255.5844,66.9795 255.5844,66.5925 L255.5844,10.5485 C255.5844,5.8975 251.8014,2.1145 247.1504,2.1145 L9.8344,2.1145 C5.1834,2.1145 1.4004,5.8975 1.4004,10.5485 L1.4004,142.3955 C1.4004,147.0455 5.1834,150.8295 9.8344,150.8295 L212.0854,150.8295 C212.4724,150.8295 212.7854,151.1425 212.7854,151.5295 C212.7854,151.9165 212.4724,152.2295 212.0854,152.2295" id="Fill-1" fill="#FFFFFF" mask="url(#mask-2)"></path>
                    </g>
                    <path d="M212.0854,127.1034 L0.7004,127.1034 C0.3134,127.1034 0.0004,126.7904 0.0004,126.4034 C0.0004,126.0164 0.3134,125.7034 0.7004,125.7034 L212.0854,125.7034 C212.4724,125.7034 212.7854,126.0164 212.7854,126.4034 C212.7854,126.7904 212.4724,127.1034 212.0854,127.1034" id="Fill-4" fill="#FFFFFF"></path>
                    <path d="M192.7056,190.286 L73.7666,190.286 C73.3796,190.286 73.0656,189.973 73.0656,189.586 C73.0656,189.199 73.3796,188.886 73.7666,188.886 L192.7056,188.886 C193.0926,188.886 193.4056,189.199 193.4056,189.586 C193.4056,189.973 193.0926,190.286 192.7056,190.286" id="Fill-6" fill="#FFFFFF"></path>
                    <path d="M299.5435,190.286 L210.4225,190.286 C210.0355,190.286 209.7225,189.973 209.7225,189.586 C209.7225,189.199 210.0355,188.886 210.4225,188.886 L299.5435,188.886 C299.9305,188.886 300.2435,189.199 300.2435,189.586 C300.2435,189.973 299.9305,190.286 299.5435,190.286" id="Fill-8" fill="#FFFFFF"></path>
                    <mask id="mask-4" fill="white">
                        <use xlink:href="#path-3"></use>
                    </mask>
                    <g id="Clip-11"></g>
                    <polygon id="Fill-10" fill="#FFFFFF" mask="url(#mask-4)" points="243.678 84.534 266.29 84.534 266.29 83.134 243.678 83.134"></polygon>
                    <path d="M134.9253,133.0917 C131.7643,133.0917 129.1933,135.6627 129.1933,138.8237 C129.1933,141.9857 131.7643,144.5567 134.9253,144.5567 C138.0863,144.5567 140.6573,141.9857 140.6573,138.8237 C140.6573,135.6627 138.0863,133.0917 134.9253,133.0917 M134.9253,145.9567 C130.9923,145.9567 127.7923,142.7577 127.7923,138.8237 C127.7923,134.8907 130.9923,131.6917 134.9253,131.6917 C138.8583,131.6917 142.0583,134.8907 142.0583,138.8237 C142.0583,142.7577 138.8583,145.9567 134.9253,145.9567" id="Fill-12" fill="#FFFFFF" mask="url(#mask-4)"></path>
                    <polygon id="Fill-13" fill="#FFFFFF" mask="url(#mask-4)" points="97.9976 189.8724 96.7206 189.2994 113.6796 151.5284 114.9566 152.1014"></polygon>
                    <polygon id="Fill-14" fill="#FFFFFF" mask="url(#mask-4)" points="168.7866 189.8724 151.8266 152.1014 153.1036 151.5284 170.0636 189.2994"></polygon>
                    <path d="M224.4,188.828 L286.848,188.828 L286.848,84.736 C286.848,80.691 283.557,77.4 279.512,77.4 L231.736,77.4 C227.691,77.4 224.4,80.691 224.4,84.736 L224.4,188.828 Z M288.249,190.228 L223,190.228 L223,84.736 C223,79.919 226.919,76 231.736,76 L279.512,76 C284.33,76 288.249,79.919 288.249,84.736 L288.249,190.228 Z" id="Fill-15" fill="#FFFFFF" mask="url(#mask-4)"></path>
                    <path d="M223.11,67.5071471 L244.585,67.5071471 L244.585,14 L13,14 L13,126 L213.162,126 L213.162,77.3940889 C213.162,71.9333647 217.616,67.5071471 223.11,67.5071471" id="Fill-16" fill="#2C2C2D" mask="url(#mask-4)"></path>
                    <polygon id="Fill-17" fill="#2C2C2D" mask="url(#mask-4)" points="231 188.7176 279.884 188.7176 279.884 89 231 89"></polygon>
                    <g id="logo" mask="url(#mask-4)">
                        <g transform="translate(238.000000, 114.000000)">
                            <g id="Group-3" stroke-width="1" fill="none" transform="translate(0.000000, 0.138650)">
                                <mask id="mask-6" fill="white">
                                    <use xlink:href="#path-5"></use>
                                </mask>
                                <g id="Clip-2"></g>
                                <path d="M17.56935,0.3613 C4.27785,0.3613 -0.00015,4.6393 -0.00015,17.9308 C-0.00015,31.2223 4.27785,35.4998 17.56935,35.4998 C30.86085,35.4998 35.13885,31.2223 35.13885,17.9308 C35.13885,4.6393 30.86085,0.3613 17.56935,0.3613" id="Fill-1" fill="#181819" mask="url(#mask-6)"></path>
                            </g>
                            <polygon id="Fill-4" fill="#E5E5E5" points="17.56935 12.40935 17.56935 8.37985 9.17785 13.22435 12.66785 15.23935"></polygon>
                            <polygon id="Fill-6" fill="#FFFFFF" points="17.56935 12.40935 17.56935 8.37985 25.96035 13.22435 22.47085 15.23935"></polygon>
                            <polygon id="Fill-8" fill="#A5A5A5" points="17.56935 12.40935 12.66785 15.23935 17.56935 18.06935 22.47085 15.23935"></polygon>
                            <polygon id="Fill-10" fill="#C6C6C6" points="9.178 13.22455 9.178 22.91405 17.5695 27.75855 17.5695 23.72955 12.6675 20.89905 12.6675 15.23955"></polygon>
                            <polygon id="Fill-12" fill="#A5A5A5" points="25.9607 13.22455 25.9607 22.91405 17.5692 27.75855 17.5692 23.72955 22.4712 20.89905 22.4712 15.23955"></polygon>
                            <polygon id="Fill-14" fill="#E5E5E5" points="17.56935 18.0693 12.66785 20.8988 12.66785 15.2393"></polygon>
                            <polygon id="Fill-16" fill="#FFFFFF" points="17.56935 18.0693 22.47085 20.8988 22.47085 15.2393"></polygon>
                        </g>
                    </g>
                    <g id="logo" mask="url(#mask-4)">
                        <g transform="translate(99.000000, 34.000000)">
                            <g id="Group-3" stroke-width="1" fill="none" transform="translate(0.000000, 0.277300)">
                                <mask id="mask-8" fill="white">
                                    <use xlink:href="#path-7"></use>
                                </mask>
                                <g id="Clip-2"></g>
                                <path d="M35.1387,0.7226 C8.5557,0.7226 -0.0003,9.2786 -0.0003,35.8616 C-0.0003,62.4446 8.5557,70.9996 35.1387,70.9996 C61.7217,70.9996 70.2777,62.4446 70.2777,35.8616 C70.2777,9.2786 61.7217,0.7226 35.1387,0.7226" id="Fill-1" fill="#181819" mask="url(#mask-8)"></path>
                            </g>
                            <polygon id="Fill-4" fill="#E5E5E5" points="35.1387 24.8187 35.1387 16.7597 18.3557 26.4487 25.3357 30.4787"></polygon>
                            <polygon id="Fill-6" fill="#FFFFFF" points="35.1387 24.8187 35.1387 16.7597 51.9207 26.4487 44.9417 30.4787"></polygon>
                            <polygon id="Fill-8" fill="#A5A5A5" points="35.1387 24.8187 25.3357 30.4787 35.1387 36.1387 44.9417 30.4787"></polygon>
                            <polygon id="Fill-10" fill="#C6C6C6" points="18.356 26.4491 18.356 45.8281 35.139 55.5171 35.139 47.4591 25.335 41.7981 25.335 30.4791"></polygon>
                            <polygon id="Fill-12" fill="#A5A5A5" points="51.9214 26.4491 51.9214 45.8281 35.1384 55.5171 35.1384 47.4591 44.9424 41.7981 44.9424 30.4791"></polygon>
                            <polygon id="Fill-14" fill="#E5E5E5" points="35.1387 36.1386 25.3357 41.7976 25.3357 30.4786"></polygon>
                            <polygon id="Fill-16" fill="#FFFFFF" points="35.1387 36.1386 44.9417 41.7976 44.9417 30.4786"></polygon>
                        </g>
                    </g>
                </g>
            </g>
        </g>
    </g>
</svg>