<?xml version="1.0" encoding="UTF-8"?>
<svg width="24px" height="24px" viewBox="0 0 24 24" version="1.1" xmlns="http://www.w3.org/2000/svg" xmlns:xlink="http://www.w3.org/1999/xlink">
    <title>8D625922-DFFF-4DD8-90C2-9558F25DEF44@1.00x</title>
    <defs>
        <path d="M17,11 L7,11 L7,13 L17,13 L17,11 Z M19,4 L18,4 L18,2 L16,2 L16,4 L8,4 L8,2 L6,2 L6,4 L5,4 C3.89,4 3,4.9 3,6 L3,20 C3,21.1 3.89,22 5,22 L19,22 C20.1,22 21,21.1 21,20 L21,6 C21,4.9 20.1,4 19,4 Z M19,20 L5,20 L5,9 L19,9 L19,20 Z M14,15 L7,15 L7,17 L14,17 L14,15 Z" id="path-1"></path>
    </defs>
    <g id="Design" stroke="none" stroke-width="1" fill="none" fill-rule="evenodd">
        <g id="00_리소스-정리" transform="translate(-66.000000, -270.000000)">
            <g id="ic_calender" transform="translate(66.000000, 270.000000)">
                <rect id="tr" x="0" y="0" width="24" height="24"></rect>
                <mask id="mask-2" fill="white">
                    <use xlink:href="#path-1"></use>
                </mask>
                <use id="icon/notification/event_note_24px" fill="#0F75F5" fill-rule="nonzero" xlink:href="#path-1"></use>
            </g>
        </g>
    </g>
</svg>