<svg xmlns="http://www.w3.org/2000/svg" width="20" height="20" viewBox="0 0 20 20">
    <g fill="none" fill-rule="evenodd" opacity=".75">
        <path d="M0 0L20 0 20 20 0 20z"/>
        <path fill="#002A5B" fill-rule="nonzero" d="M13.183 12.021h-.612l-.216-.209c.93-1.084 1.41-2.564 1.146-4.137-.364-2.153-2.161-3.873-4.33-4.136-3.277-.403-6.035 2.355-5.632 5.632.263 2.169 1.983 3.966 4.136 4.33 1.573.263 3.053-.217 4.137-1.146l.21.216v.612l3.292 3.293c.317.317.836.317 1.154 0 .318-.318.318-.837 0-1.154l-3.285-3.3zm-4.648 0c-1.929 0-3.486-1.557-3.486-3.486 0-1.929 1.557-3.486 3.486-3.486 1.93 0 3.486 1.557 3.486 3.486 0 1.93-1.557 3.486-3.486 3.486z"/>
    </g>
</svg>
