<?xml version="1.0" encoding="UTF-8"?>
<svg width="20px" height="20px" viewBox="0 0 20 20" version="1.1" xmlns="http://www.w3.org/2000/svg" xmlns:xlink="http://www.w3.org/1999/xlink">
    <!-- Generator: sketchtool 63.1 (101010) - https://sketch.com -->
    <title>FE162BB9-89A9-4700-8CF8-D99A4EF5C97C</title>
    <desc>Created with sketchtool.</desc>
    <g id="-" stroke="none" stroke-width="1" fill="none" fill-rule="evenodd">
        <g id="C-B-05.02.2.워크스페이스-작업-관리_워크스페이스-작업-목록_선택-작업-정보_작업-삭제_alert" transform="translate(-150.000000, -187.000000)">
            <g id="Subheadline" transform="translate(134.000000, 173.000000)">
                <g id="arrow_back" transform="translate(16.000000, 14.000000)">
                    <polygon id="ic_arrow_back" points="0 0 20 0 20 20 0 20"></polygon>
                    <path d="M15.8333333,9.16666667 L6.525,9.16666667 L10.5916667,5.1 C10.9166667,4.775 10.9166667,4.24166667 10.5916667,3.91666667 C10.2666667,3.59166667 9.74166667,3.59166667 9.41666667,3.91666667 L3.925,9.40833333 C3.6,9.73333333 3.6,10.2583333 3.925,10.5833333 L9.41666667,16.075 C9.74166667,16.4 10.2666667,16.4 10.5916667,16.075 C10.9166667,15.75 10.9166667,15.225 10.5916667,14.9 L6.525,10.8333333 L15.8333333,10.8333333 C16.2916667,10.8333333 16.6666667,10.4583333 16.6666667,10 C16.6666667,9.54166667 16.2916667,9.16666667 15.8333333,9.16666667 Z" id="Path" fill="#0F2F65" fill-rule="nonzero"></path>
                </g>
            </g>
        </g>
    </g>
</svg>