<svg xmlns="http://www.w3.org/2000/svg" xmlns:xlink="http://www.w3.org/1999/xlink" width="24" height="24" viewBox="0 0 24 24">
    <defs>
        <path id="prefix__a" d="M2 4H0v14c0 1.1.9 2 2 2h14v-2H2V4zm16-4H6C4.9 0 4 .9 4 2v12c0 1.1.9 2 2 2h12c1.1 0 2-.9 2-2V2c0-1.1-.9-2-2-2zm-1 9H7V7h10v2zm0 4H7v-2h10v2zm0-8H7V3h10v2z"/>
    </defs>
    <g fill="none" fill-rule="evenodd" opacity="1" transform="translate(2 2)">
        <mask id="prefix__b" fill="#fff">
            <use xlink:href="#prefix__a"/>
        </mask>
        <g fill="#FFF" mask="url(#prefix__b)">
            <path d="M0 0H50V50H0z" transform="translate(-15 -15)"/>
        </g>
    </g>
</svg>
