<svg xmlns="http://www.w3.org/2000/svg" xmlns:xlink="http://www.w3.org/1999/xlink" width="20" height="20" viewBox="0 0 20 20">
    <defs>
        <path id="prefix__a" d="M14.833 4.667H3.167c-1.384 0-2.5 1.116-2.5 2.5v5H4V15.5h10v-3.333h3.333v-5c0-1.384-1.116-2.5-2.5-2.5zm-2.5 9.166H5.667V9.667h6.666v4.166zM14.833 8C14.375 8 14 7.625 14 7.167c0-.459.375-.834.833-.834.459 0 .834.375.834.834 0 .458-.375.833-.834.833zM14 .5H4v3.333h10V.5z"/>
    </defs>
    <g fill="none" fill-rule="evenodd" opacity=".6" transform="translate(1 2)">
        <mask id="prefix__b" fill="#fff">
            <use xlink:href="#prefix__a"/>
        </mask>
        <g fill="#0D2A58" mask="url(#prefix__b)">
            <path d="M0 0H41.667V41.667H0z" transform="translate(-11.833 -12.833)"/>
        </g>
    </g>
</svg>
