<svg xmlns="http://www.w3.org/2000/svg" width="24" height="24" viewBox="0 0 24 24">
    <g fill="none" fill-rule="evenodd">
        <path d="M0 0L24 0 24 24 0 24z"/>
        <g fill-rule="nonzero">
            <path fill="#A4B3CB" fill-opacity="1" d="M14.222 0H1.778C.8 0 0 .8 0 1.778v12.444C0 15.2.8 16 1.778 16h12.444C15.2 16 16 15.2 16 14.222V1.778C16 .8 15.2 0 14.222 0z" transform="translate(4 4)"/>
            <path fill="#0F2F65" d="M4.444 12.444c-.488 0-.888-.4-.888-.888V7.11c0-.489.4-.889.888-.889.49 0 .89.4.89.89v4.444c0 .488-.4.888-.89.888zm3.556 0c-.489 0-.889-.4-.889-.888V4.444c0-.488.4-.888.889-.888s.889.4.889.888v7.112c0 .488-.4.888-.889.888zm3.556 0c-.49 0-.89-.4-.89-.888V9.778c0-.49.4-.89.89-.89.488 0 .888.4.888.89v1.778c0 .488-.4.888-.888.888z" transform="translate(4 4)"/>
        </g>
    </g>
</svg>
