<svg xmlns="http://www.w3.org/2000/svg" xmlns:xlink="http://www.w3.org/1999/xlink" width="24" height="24" viewBox="0 0 24 24">
    <defs>
        <path id="prefix__a" d="M19.405 12.078c.045-.352.079-.704.079-1.078 0-.374-.034-.726-.08-1.078l2.387-1.815c.215-.165.271-.462.136-.704l-2.262-3.806c-.136-.242-.441-.33-.69-.242l-2.816 1.1c-.588-.44-1.221-.803-1.91-1.078l-.43-2.915C13.783.198 13.546 0 13.263 0H8.741c-.283 0-.52.198-.554.462l-.43 2.915c-.69.275-1.323.649-1.911 1.078l-2.816-1.1c-.26-.099-.554 0-.69.242L.078 7.403c-.147.242-.079.539.136.704L2.6 9.922c-.045.352-.079.715-.079 1.078 0 .363.034.726.08 1.078L.213 13.893c-.215.165-.271.462-.136.704l2.262 3.806c.136.242.441.33.69.242l2.816-1.1c.588.44 1.221.803 1.91 1.078l.43 2.915c.035.264.272.462.555.462h4.523c.283 0 .52-.198.554-.462l.43-2.915c.69-.275 1.323-.649 1.911-1.078l2.816 1.1c.26.099.554 0 .69-.242l2.262-3.806c.135-.242.079-.539-.136-.704l-2.386-1.815zM11 15c-2.206 0-4-1.794-4-4s1.794-4 4-4 4 1.794 4 4-1.794 4-4 4z"/>
    </defs>
    <g fill="none" fill-rule="evenodd">
        <path d="M18 36c13.617 0 18-4.383 18-18S31.617 0 18 0 0 4.383 0 18s4.383 18 18 18z" transform="translate(-6 -6)"/>
        <g opacity=".65" transform="translate(-6 -6) translate(7 7)">
            <use fill="#FFF" xlink:href="#prefix__a"/>
        </g>
    </g>
</svg>
