<svg xmlns="http://www.w3.org/2000/svg" xmlns:xlink="http://www.w3.org/1999/xlink" width="20" height="20" viewBox="0 0 20 20">
    <defs>
        <path id="prefix__a" d="M19.167 1.667c0 .916-.75 1.666-1.667 1.666-.15 0-.292-.016-.425-.058l-2.967 2.958c.042.134.059.284.059.434 0 .916-.75 1.666-1.667 1.666s-1.667-.75-1.667-1.666c0-.15.017-.3.059-.434L8.767 4.108c-.134.042-.284.059-.434.059-.15 0-.3-.017-.433-.059l-3.792 3.8c.042.134.059.275.059.425C4.167 9.25 3.417 10 2.5 10S.833 9.25.833 8.333c0-.916.75-1.666 1.667-1.666.15 0 .292.016.425.058l3.8-3.792c-.042-.133-.058-.283-.058-.433 0-.917.75-1.667 1.666-1.667C9.25.833 10 1.583 10 2.5c0 .15-.017.3-.058.433l2.125 2.125C12.2 5.017 12.35 5 12.5 5c.15 0 .3.017.433.058l2.959-2.966c-.042-.134-.059-.275-.059-.425C15.833.75 16.583 0 17.5 0s1.667.75 1.667 1.667z"/>
    </defs>
    <g fill="none" fill-rule="evenodd" transform="translate(0 5)">
        <mask id="prefix__b" fill="#fff">
            <use xlink:href="#prefix__a"/>
        </mask>
        <g fill="#0D2A58" mask="url(#prefix__b)">
            <path d="M0 0H41.667V41.667H0z" transform="translate(-10.833 -15.833)"/>
        </g>
    </g>
</svg>
