<svg xmlns="http://www.w3.org/2000/svg" xmlns:xlink="http://www.w3.org/1999/xlink" width="24" height="24" viewBox="0 0 24 24">
    <defs>
        <path id="prefix__a" d="M11.2 0H1.6C.72 0 0 .72 0 1.6v9.6c0 .88.72 1.6 1.6 1.6h9.6c.88 0 1.6-.72 1.6-1.6V1.6c0-.88-.72-1.6-1.6-1.6z"/>
    </defs>
    <g fill="none" fill-rule="evenodd">
        <path d="M0 0L24 0 24 24 0 24z"/>
        <g transform="translate(4 4)">
            <use fill="#B3C0D4" transform="matrix(-1 0 0 1 12.8 0)" xlink:href="#prefix__a"/>
            <path fill="#0F2F65" d="M10.4 7.2L2.4 7.2 2.4 5.6 10.4 5.6zM10.4 10.4L2.4 10.4 2.4 8.8 10.4 8.8zM10.4 4L2.4 4 2.4 2.4 10.4 2.4z"/>
            <path fill="#ACB6C9" d="M14.4 3.2H16v11.2c0 .88-.72 1.6-1.6 1.6H3.2v-1.6h11.2V3.2z"/>
        </g>
    </g>
</svg>
